<svg xmlns="http://www.w3.org/2000/svg" viewBox="0 0 547 385"><defs><style>.cls-1{fill:#607D8B;}</style></defs><title>Asset 132</title><g id="Layer_2" data-name="Layer 2"><g id="Layer_1-2" data-name="Layer 1"><path class="cls-1" d="M271.4,252.2h0Z"/><path class="cls-1" d="M172,267.5A106.2,106.2,0,0,1,247.1,86.3v5A101.2,101.2,0,0,0,175.6,264Z"/><path class="cls-1" d="M320.4,268.3a2.7,2.7,0,0,1-1.8-.8,2.4,2.4,0,0,1,0-3.5,101.6,101.6,0,0,0,17.6-23.6,2.5,2.5,0,0,1,3.4-1,2.4,2.4,0,0,1,1,3.3,104.5,104.5,0,0,1-18.4,24.8A2.7,2.7,0,0,1,320.4,268.3Z"/><path class="cls-1" d="M346.6,224h-.7a2.6,2.6,0,0,1-1.7-3.1,100.4,100.4,0,0,0,4.1-28.3,2.5,2.5,0,0,1,2.5-2.5,2.5,2.5,0,0,1,2.5,2.5,106.1,106.1,0,0,1-4.3,29.7A2.5,2.5,0,0,1,346.6,224Z"/><path class="cls-1" d="M126.7,312.9A170.3,170.3,0,0,1,247.1,22.2v5A165.3,165.3,0,0,0,130.2,309.4Z"/><path class="cls-1" d="M367.5,312.9l-3.5-3.5a164.4,164.4,0,0,0,48.4-116.9h5A168.9,168.9,0,0,1,367.5,312.9Z"/><path class="cls-1" d="M437.1,195h-108a2.5,2.5,0,0,1,0-5H434.6a187.7,187.7,0,0,0-14.7-70.5,191.8,191.8,0,0,0-17.3-31.8,188.7,188.7,0,0,0-82.5-68A187.7,187.7,0,0,0,249.6,5V110.5a2.5,2.5,0,1,1-5,0V2.5A2.5,2.5,0,0,1,247.1,0a193.4,193.4,0,0,1,38.8,3.9A188.8,188.8,0,0,1,322,15.1,192.4,192.4,0,0,1,435.7,153.7a193.4,193.4,0,0,1,3.9,38.8A2.5,2.5,0,0,1,437.1,195Z"/><path class="cls-1" d="M329.1,195a2.5,2.5,0,0,1-2.5-2.5,79.8,79.8,0,0,0-6.2-31,81.4,81.4,0,0,0-17.1-25.3A78.8,78.8,0,0,0,247.1,113a2.5,2.5,0,0,1-2.5-2.5,2.5,2.5,0,0,1,2.5-2.5,84.2,84.2,0,0,1,59.8,24.7A86.1,86.1,0,0,1,325,159.6a84.1,84.1,0,0,1,6.6,32.9A2.5,2.5,0,0,1,329.1,195Z"/><path class="cls-1" d="M247.1,385a193.4,193.4,0,0,1-38.8-3.9,191.3,191.3,0,0,1-36.1-11.3A191.9,191.9,0,0,1,111,328.6a2.4,2.4,0,0,1,0-3.5l76.3-76.4a2.5,2.5,0,0,1,3.6,0,2.7,2.7,0,0,1,0,3.6l-74.6,74.5a189.5,189.5,0,0,0,26,21.2,191.3,191.3,0,0,0,31.8,17.2,189,189,0,0,0,35.2,11,192.4,192.4,0,0,0,75.6,0,189,189,0,0,0,35.2-11A191.3,191.3,0,0,0,351.9,348a189.5,189.5,0,0,0,26-21.2l-74.6-74.5a2.7,2.7,0,0,1,0-3.6,2.5,2.5,0,0,1,3.6,0l76.3,76.4a2.4,2.4,0,0,1,0,3.5A191.9,191.9,0,0,1,322,369.8a189,189,0,0,1-36.1,11.3A193.4,193.4,0,0,1,247.1,385Z"/><path class="cls-1" d="M247.1,277a84.1,84.1,0,0,1-32.9-6.6,86.1,86.1,0,0,1-26.9-18.1,2.7,2.7,0,0,1,0-3.6,2.5,2.5,0,0,1,3.6,0,79.1,79.1,0,0,0,112.4,0,2.5,2.5,0,1,1,3.6,3.6A86.1,86.1,0,0,1,280,270.4,84.1,84.1,0,0,1,247.1,277Z"/><path class="cls-1" d="M84.8,344.2H2.5a2.5,2.5,0,0,1,0-5H83.8l28.7-28.7a2.5,2.5,0,0,1,3.6,0,2.6,2.6,0,0,1,0,3.5L86.6,343.5A2.4,2.4,0,0,1,84.8,344.2Z"/><path class="cls-1" d="M40,334H2.5A2.5,2.5,0,0,1,0,331.5,2.5,2.5,0,0,1,2.5,329H40a2.5,2.5,0,0,1,2.5,2.5A2.5,2.5,0,0,1,40,334Z"/><path class="cls-1" d="M76.3,334H51.9a2.5,2.5,0,0,1-2.5-2.5,2.5,2.5,0,0,1,2.5-2.5H76.3a2.5,2.5,0,0,1,2.5,2.5A2.5,2.5,0,0,1,76.3,334Z"/><path class="cls-1" d="M381.7,47.7a2.4,2.4,0,0,1-1.8-.7,2.5,2.5,0,0,1,0-3.6l31.2-31.2a2.4,2.4,0,0,1,1.8-.7H544.5A2.5,2.5,0,0,1,547,14a2.6,2.6,0,0,1-2.5,2.5H413.9L383.4,47A2.3,2.3,0,0,1,381.7,47.7Z"/><path class="cls-1" d="M544.5,32.7h-60a2.5,2.5,0,1,1,0-5h60a2.5,2.5,0,0,1,0,5Z"/><path class="cls-1" d="M465.6,32.7H426.5a2.5,2.5,0,1,1,0-5h39.1a2.5,2.5,0,0,1,0,5Z"/><path class="cls-1" d="M338.9,184.6h-1l-.4-.2-.4-.3-.3-.4-.2-.4c-.1-.2-.1-.4-.2-.5v-.5a2.9,2.9,0,0,1,.7-1.8,2.8,2.8,0,0,1,2.3-.7l.5.2.4.2.4.3.3.4c.1.1.1.3.2.4a2,2,0,0,1,.1,1.5,1.1,1.1,0,0,1-.1.5l-.2.4-.3.4-.4.3-.4.2h-1Z"/><path class="cls-1" d="M414.1,182.1a2.5,2.5,0,0,1,2.5-2.5h0a2.5,2.5,0,0,1,2.5,2.5h0a2.5,2.5,0,0,1-2.5,2.5h0A2.5,2.5,0,0,1,414.1,182.1Zm-9.7,0a2.5,2.5,0,0,1,2.5-2.5h0a2.5,2.5,0,0,1,2.5,2.5h0a2.5,2.5,0,0,1-2.5,2.5h0A2.5,2.5,0,0,1,404.4,182.1Zm-9.7,0a2.5,2.5,0,0,1,2.5-2.5h0a2.5,2.5,0,0,1,2.5,2.5h0a2.5,2.5,0,0,1-2.5,2.5h0A2.5,2.5,0,0,1,394.7,182.1Zm-9.7,0a2.5,2.5,0,0,1,2.5-2.5h0a2.5,2.5,0,0,1,2.5,2.5h0a2.5,2.5,0,0,1-2.5,2.5h0A2.5,2.5,0,0,1,385,182.1Zm-9.8,0a2.5,2.5,0,0,1,2.5-2.5h0a2.5,2.5,0,0,1,2.5,2.5h0a2.5,2.5,0,0,1-2.5,2.5h0A2.5,2.5,0,0,1,375.2,182.1Zm-9.7,0a2.5,2.5,0,0,1,2.5-2.5h0a2.5,2.5,0,0,1,2.5,2.5h0a2.5,2.5,0,0,1-2.5,2.5h0A2.5,2.5,0,0,1,365.5,182.1Zm-9.7,0a2.5,2.5,0,0,1,2.5-2.5h0a2.5,2.5,0,0,1,2.5,2.5h0a2.5,2.5,0,0,1-2.5,2.5h0A2.5,2.5,0,0,1,355.8,182.1Zm-9.7,0a2.5,2.5,0,0,1,2.5-2.5h0a2.5,2.5,0,0,1,2.5,2.5h0a2.5,2.5,0,0,1-2.5,2.5h0A2.5,2.5,0,0,1,346.1,182.1Z"/><path class="cls-1" d="M426.3,184.6a2.9,2.9,0,0,1-1.8-.7l-.3-.4c-.1-.2-.1-.3-.2-.4a1.1,1.1,0,0,1-.1-.5,3.8,3.8,0,0,1,.1-1.5c.1-.1.1-.3.2-.4l.3-.4a2.8,2.8,0,0,1,2.3-.7l.5.2.4.2.4.3.3.4.2.4.2.5v.5a2.9,2.9,0,0,1-.7,1.8l-.4.3-.4.2h-1Z"/><path class="cls-1" d="M250.2,240.6a47.8,47.8,0,0,1-17.6-3.4,47.5,47.5,0,1,1,17.6,3.4Zm.1-89.9a42.8,42.8,0,0,0-39.4,26.7h0A42.4,42.4,0,0,0,289.7,209a42.5,42.5,0,0,0-23.6-55.2A41.6,41.6,0,0,0,250.3,150.7Zm0,76.5a32.9,32.9,0,0,1-12.6-2.5,34,34,0,0,1-18.9-44.2,33.9,33.9,0,0,1,63,25.3h0A34,34,0,0,1,250.3,227.2Zm0-63a30.1,30.1,0,0,0-11.4,2.3,29,29,0,0,0,.6,53.6A29.1,29.1,0,0,0,277.2,204h0a29,29,0,0,0-26.9-39.8Z"/><path class="cls-1" d="M358.1,251.3l-1-.2-55-22.1a2.3,2.3,0,0,1-1.4-1.3,2.1,2.1,0,0,1,0-1.9l7.7-19.3a2.5,2.5,0,0,1,3.2-1.4l55.1,22.1a2.5,2.5,0,0,1,1.4,3.3l-7.7,19.2a2.7,2.7,0,0,1-1.4,1.4Zm-51.9-26,50.5,20.2,5.8-14.6-50.4-20.2Z"/><path class="cls-1" d="M305.1,224l-.9-.2-15.3-6.1a2.5,2.5,0,1,1,1.9-4.7l12.9,5.2,1.9-4.7-12.5-5a2.5,2.5,0,0,1,1.9-4.7l14.8,6a2.4,2.4,0,0,1,1.4,3.2l-3.8,9.4a2.5,2.5,0,0,1-1.3,1.4Z"/><path class="cls-1" d="M366.4,249.1a4.8,4.8,0,0,1-2-.4l-3.8-1.5a2.5,2.5,0,0,1-1.4-3.2,2.5,2.5,0,0,1,3.3-1.4l3.8,1.5c.1.1.4,0,.5-.3l1.5-3.9a.6.6,0,0,0-.1-.6l-3.8-1.5a2.5,2.5,0,0,1,1.8-4.7l3.9,1.6a5.4,5.4,0,0,1,2.9,7l-1.6,4A5.5,5.5,0,0,1,366.4,249.1Z"/><path class="cls-1" d="M377.2,248.2a2.6,2.6,0,0,1-1.7-.7l-.4-.4-.2-.4a4.3,4.3,0,0,0-.1-.5,1.3,1.3,0,0,1,0-1,4.3,4.3,0,0,0,.1-.5l.2-.4c.1-.1.2-.3.4-.4a2.4,2.4,0,0,1,2.2-.6h.5l.4.2.4.3.3.4.2.4c.1.2.1.4.2.5v.5a2.4,2.4,0,0,1-.7,1.8l-.4.3-.4.2-.5.2Z"/><path class="cls-1" d="M426.2,267.6a2.5,2.5,0,0,1-1.4-3.3h0a2.4,2.4,0,0,1,3.2-1.4h0a2.5,2.5,0,0,1,1.4,3.2h0a2.4,2.4,0,0,1-2.3,1.6h-.9Zm-10-3.9a2.5,2.5,0,0,1-1.4-3.3h0A2.5,2.5,0,0,1,418,259h0a2.5,2.5,0,0,1,1.5,3.2h0a2.6,2.6,0,0,1-2.4,1.6h-.9Zm-10-3.9a2.7,2.7,0,0,1-1.4-3.3h0a2.5,2.5,0,0,1,3.3-1.4h0a2.4,2.4,0,0,1,1.4,3.2h0a2.5,2.5,0,0,1-2.3,1.6h-1Zm-9.9-4a2.5,2.5,0,0,1-1.5-3.2h0a2.6,2.6,0,0,1,3.3-1.4h0a2.4,2.4,0,0,1,1.4,3.2h0a2.5,2.5,0,0,1-2.3,1.6h0A1.5,1.5,0,0,1,396.3,255.8Zm-10-3.9a2.4,2.4,0,0,1-1.4-3.2h0a2.4,2.4,0,0,1,3.2-1.4h0a2.4,2.4,0,0,1,1.4,3.2h0a2.5,2.5,0,0,1-2.3,1.6h0A1.5,1.5,0,0,1,386.3,251.9Z"/><path class="cls-1" d="M437.1,271.6h-1l-.4-.3-.4-.3a2.9,2.9,0,0,1-.7-1.8v-.4c.1-.2.1-.4.2-.5a.5.5,0,0,1,.2-.4l.3-.4a2.5,2.5,0,0,1,3.6,0l.3.4c.1.1.1.2.2.4a.7.7,0,0,1,.1.5.6.6,0,0,1,.1.4.7.7,0,0,1-.1.5.7.7,0,0,1-.1.5c-.1.2-.1.3-.2.4l-.3.4A2.6,2.6,0,0,1,437.1,271.6Z"/><path class="cls-1" d="M303,266.6a2.9,2.9,0,0,1-1.8-.7l-.3-.4-.2-.4-.2-.5v-1c.1-.1.1-.3.2-.4s.1-.3.2-.5l.3-.4a2.7,2.7,0,0,1,2.3-.6h.4l.5.2.4.3.3.4.2.5a.6.6,0,0,1,.1.4,3.8,3.8,0,0,1-.1,1.5c-.1.1-.1.3-.2.4l-.3.4-.4.3-.5.2-.4.2Z"/><path class="cls-1" d="M356.7,321.4a2.7,2.7,0,0,1,0-3.6h0a2.7,2.7,0,0,1,3.6,0h0a2.7,2.7,0,0,1,0,3.6h0a2.6,2.6,0,0,1-1.8.7h0A2.6,2.6,0,0,1,356.7,321.4Zm-6.9-7a2.4,2.4,0,0,1,0-3.5h0a2.4,2.4,0,0,1,3.5,0h0a2.4,2.4,0,0,1,0,3.5h0a2.5,2.5,0,0,1-1.7.8h0A2.5,2.5,0,0,1,349.8,314.4Zm-6.9-6.9a2.4,2.4,0,0,1,0-3.5h0a2.4,2.4,0,0,1,3.5,0h0a2.4,2.4,0,0,1,0,3.5h0a2.4,2.4,0,0,1-1.8.7h0A2.2,2.2,0,0,1,342.9,307.5Zm-7-6.9a2.5,2.5,0,0,1,0-3.6h0a2.6,2.6,0,0,1,3.5,0h0a2.5,2.5,0,0,1,0,3.6h0a2.2,2.2,0,0,1-1.7.7h0A2.4,2.4,0,0,1,335.9,300.6Zm-6.9-7a2.4,2.4,0,0,1,0-3.5h0a2.4,2.4,0,0,1,3.5,0h0a2.4,2.4,0,0,1,0,3.5h0a2.5,2.5,0,0,1-1.8.8h0A2.5,2.5,0,0,1,329,293.6Zm-7-6.9a2.6,2.6,0,0,1,0-3.5h0a2.5,2.5,0,0,1,3.6,0h0a2.6,2.6,0,0,1,0,3.5h0a2.6,2.6,0,0,1-1.8.7h0A2.6,2.6,0,0,1,322,286.7Zm-6.9-6.9a2.5,2.5,0,0,1,0-3.6h0a2.4,2.4,0,0,1,3.5,0h0a2.5,2.5,0,0,1,0,3.6h0a2.8,2.8,0,0,1-1.7.7h0A2.9,2.9,0,0,1,315.1,279.8Zm-6.9-7a2.4,2.4,0,0,1,0-3.5h0a2.4,2.4,0,0,1,3.5,0h0a2.4,2.4,0,0,1,0,3.5h0a2.4,2.4,0,0,1-1.8.7h0A2.2,2.2,0,0,1,308.2,272.8Z"/><path class="cls-1" d="M365.4,329.1a2.3,2.3,0,0,1-1.7-.8c-.1-.1-.3-.2-.3-.4l-.3-.4a4.3,4.3,0,0,1-.1-.5.6.6,0,0,1-.1-.4.7.7,0,0,1,.1-.5,4.3,4.3,0,0,1,.1-.5l.3-.4c0-.2.2-.3.3-.4a2.6,2.6,0,0,1,3.5,0l.3.4a.5.5,0,0,1,.2.4.8.8,0,0,1,.2.5v.9a.8.8,0,0,1-.2.5.5.5,0,0,1-.2.4l-.3.4A2.5,2.5,0,0,1,365.4,329.1Z"/><path class="cls-1" d="M395.5,94.3a2.3,2.3,0,0,1-2-1.1c-3.5-4.9-7.2-9.7-11.1-14.2a152.4,152.4,0,0,0-12.3-13.1A168.9,168.9,0,0,0,356.6,54a171.3,171.3,0,0,0-14.7-10.6,174.3,174.3,0,0,0-15.7-9.2,167.5,167.5,0,0,0-16.7-7.6c-5.7-2.3-11.6-4.3-17.5-6.1a2.4,2.4,0,0,1-1.7-3.1,2.6,2.6,0,0,1,3.1-1.7c6.1,1.8,12.1,3.9,18,6.2s11.6,5,17.1,7.9a174.8,174.8,0,0,1,16.2,9.4c5.1,3.4,10.2,7,15,10.9a178.4,178.4,0,0,1,13.9,12.2c4.4,4.2,8.7,8.8,12.7,13.4s7.7,9.6,11.3,14.7a2.5,2.5,0,0,1-.7,3.4A2.4,2.4,0,0,1,395.5,94.3Z"/><path class="cls-1" d="M420.2,143.3a2.5,2.5,0,0,1-2.4-1.7,166.1,166.1,0,0,0-6.6-17,2.5,2.5,0,1,1,4.6-2,183.5,183.5,0,0,1,6.7,17.4,2.5,2.5,0,0,1-1.6,3.2Z"/><path class="cls-1" d="M279.3,151a2.5,2.5,0,0,1-1.8-.8,2.4,2.4,0,0,1,0-3.5l13.4-13.4a2.5,2.5,0,0,1,3.6,0,2.6,2.6,0,0,1,0,3.5l-13.4,13.4A2.7,2.7,0,0,1,279.3,151Z"/><path class="cls-1" d="M175,254.3a2.6,2.6,0,0,1-1.8-.7,2.6,2.6,0,0,1,0-3.5l30.5-30.5a2.4,2.4,0,0,1,3.5,0,2.5,2.5,0,0,1,0,3.6l-30.4,30.4A2.6,2.6,0,0,1,175,254.3Z"/><path class="cls-1" d="M28.5,323.9H3.2a2.5,2.5,0,0,1-2.5-2.5V290.1a2.5,2.5,0,0,1,2.5-2.5h18a2.6,2.6,0,0,1,2.5,2.5,2.5,2.5,0,0,1-2.5,2.5H5.7v26.3H28.5a2.5,2.5,0,0,1,0,5Z"/><path class="cls-1" d="M40.9,323.9H21.2a2.5,2.5,0,0,1-2.5-2.5V268a2.5,2.5,0,0,1,2.5-2.5H40.9a2.5,2.5,0,0,1,2.5,2.5,2.5,2.5,0,0,1-2.5,2.5H23.7v48.4H40.9a2.5,2.5,0,0,1,0,5Z"/><path class="cls-1" d="M66.3,323.9H40.9a2.5,2.5,0,0,1-2.5-2.5V244.7a2.5,2.5,0,0,1,2.5-2.5H66.3a2.5,2.5,0,0,1,2.5,2.5v76.7A2.5,2.5,0,0,1,66.3,323.9Zm-22.9-5H63.8V247.2H43.4Z"/><path class="cls-1" d="M424.2,106.1a2.5,2.5,0,0,1-2.5-2.5V78.3a2.5,2.5,0,0,1,2.5-2.5h0a2.5,2.5,0,0,1,2.5,2.5v22.8H542V85.7a2.5,2.5,0,0,1,2.5-2.5h0a2.5,2.5,0,0,1,2.5,2.5v17.9a2.5,2.5,0,0,1-.8,1.8,2.6,2.6,0,0,1-1.7.7Z"/><path class="cls-1" d="M544.5,88.2H424.2a2.5,2.5,0,0,1-2.5-2.5V65.9a2.5,2.5,0,1,1,5,0V83.2H542V65.9a2.5,2.5,0,0,1,2.5-2.5,2.5,2.5,0,0,1,2.5,2.5V85.7A2.5,2.5,0,0,1,544.5,88.2Z"/><path class="cls-1" d="M544.5,68.4H424.2a2.5,2.5,0,0,1-2.5-2.5V45.5a2.5,2.5,0,0,1,2.5-2.5H544.5a2.6,2.6,0,0,1,2.5,2.5V65.9A2.5,2.5,0,0,1,544.5,68.4Zm-117.8-5H542V48H426.7Z"/></g></g></svg>