<svg xmlns="http://www.w3.org/2000/svg" viewBox="0 0 260.7 377.9"><defs><style>.cls-1{opacity:0.92;}.cls-2{fill:#607D8B;}.cls-3{fill:#607D8B;}</style></defs><title>Asset 131</title><g id="Layer_2" data-name="Layer 2"><g id="Layer_1-2" data-name="Layer 1"><g class="cls-1"><path class="cls-2" d="M219.9,214.3h0Z"/></g><g class="cls-1"><path class="cls-2" d="M219.9,214.3Z"/></g><path class="cls-3" d="M228.8,377.9H34.3a23.2,23.2,0,0,1-23.2-23.3V198.1a2.5,2.5,0,0,1,2.5-2.5,2.5,2.5,0,0,1,2.5,2.5V354.6a18.3,18.3,0,0,0,18.2,18.3H228.8A18.3,18.3,0,0,0,247,354.6V319.5a2.5,2.5,0,0,1,5,0v35.1A23.2,23.2,0,0,1,228.8,377.9Z"/><path class="cls-3" d="M249.5,236.5A2.5,2.5,0,0,1,247,234V217.9A19.9,19.9,0,0,0,227.1,198H192.2a2.5,2.5,0,0,1,0-5h34.9A25,25,0,0,1,252,217.9V234A2.5,2.5,0,0,1,249.5,236.5Z"/><path class="cls-3" d="M175.2,198H29.9a2.5,2.5,0,0,1,0-5H175.2a2.5,2.5,0,0,1,0,5Z"/><path class="cls-3" d="M249.3,217.3h-.1a2.6,2.6,0,0,1-2.4-2.6l.2-12.9a20,20,0,0,0-19.9-19.9,2.5,2.5,0,0,1,0-5A25,25,0,0,1,252,201.8l-.2,13A2.5,2.5,0,0,1,249.3,217.3Z"/><path class="cls-3" d="M61.8,181.9H29.9a2.5,2.5,0,0,1,0-5H61.8a2.5,2.5,0,0,1,0,5Z"/><path class="cls-3" d="M248.5,322H185.9a2.6,2.6,0,0,1-2.5-2.5v-52a2.5,2.5,0,0,1,2.5-2.5h62.6a12.2,12.2,0,0,1,12.2,12.2v32.5A12.2,12.2,0,0,1,248.5,322Zm-60.1-5h60.1a7.3,7.3,0,0,0,7.2-7.3V277.2a7.2,7.2,0,0,0-7.2-7.2H188.4Z"/><path class="cls-3" d="M205.8,306.1a12.6,12.6,0,0,1-9-3.7,12.4,12.4,0,0,1-3.7-8.9,12.6,12.6,0,0,1,3.7-9,13.1,13.1,0,0,1,9-3.7,2.5,2.5,0,0,1,2.5,2.5,2.5,2.5,0,0,1-2.5,2.5,7.9,7.9,0,0,0-7.7,7.7,7.4,7.4,0,0,0,2.3,5.4,7.6,7.6,0,0,0,5.4,2.2,7.9,7.9,0,0,0,5.4-2.2,7.7,7.7,0,0,0,2.2-5.4,2.5,2.5,0,0,1,5,0,12.6,12.6,0,0,1-12.6,12.6Z"/><path class="cls-3" d="M249.5,270a2.5,2.5,0,0,1-2.5-2.5V234a19.9,19.9,0,0,0-19.9-19.9H29.8c-10.1,0-18.6-8-18.9-17.9a18.6,18.6,0,0,1,18.6-19.3,2.5,2.5,0,0,1,0,5,13.4,13.4,0,0,0-9.8,4.2,13,13,0,0,0-3.8,9.9c.2,7.2,6.5,13.1,13.9,13.1H227.1A25,25,0,0,1,252,234v33.5A2.5,2.5,0,0,1,249.5,270Z"/><path class="cls-3" d="M29.9,198a2.4,2.4,0,0,1-2.3-1.6,2.4,2.4,0,0,1,1.4-3.2l166.6-63.9a12.2,12.2,0,0,1,9.4.2,11.9,11.9,0,0,1,6.4,6.8l22.4,58.3a2.5,2.5,0,0,1-1.5,3.2,2.4,2.4,0,0,1-3.2-1.4l-22.4-58.3a6.8,6.8,0,0,0-3.8-4,7,7,0,0,0-5.5-.2L30.8,197.8Z"/><path class="cls-3" d="M214.1,197.9a2.6,2.6,0,0,1-2.4-1.6L197.4,159a7.1,7.1,0,0,0-3.8-4,7.2,7.2,0,0,0-5.6-.2l-111.9,43a2.6,2.6,0,0,1-3.3-1.5,2.5,2.5,0,0,1,1.5-3.2l112-43a12.5,12.5,0,0,1,9.3.3,12.1,12.1,0,0,1,6.5,6.8l14.3,37.3a2.6,2.6,0,0,1-1.4,3.3Z"/><path class="cls-3" d="M152.4,135.9a2.7,2.7,0,0,1-2.3-1.4,2.5,2.5,0,0,1,1.1-3.3l23.1-11.7a12.3,12.3,0,0,1,16.5,5.3l3.7,7.3a2.6,2.6,0,0,1-1.1,3.4,2.6,2.6,0,0,1-3.4-1.1l-3.7-7.3a7.2,7.2,0,0,0-9.7-3.2l-23.1,11.7A2.3,2.3,0,0,1,152.4,135.9Z"/><path class="cls-3" d="M29.9,198a2.4,2.4,0,0,1-2.2-1.4,2.3,2.3,0,0,1,1.1-3.3l100.7-51.1a2.5,2.5,0,1,1,2.3,4.4L31,197.7A2,2,0,0,1,29.9,198Z"/><path class="cls-3" d="M177.2,370H34.6a15.4,15.4,0,0,1-15.4-15.4V219.1a2.5,2.5,0,0,1,2.5-2.5,2.5,2.5,0,0,1,2.5,2.5V354.6A10.4,10.4,0,0,0,34.6,365H177.2a2.5,2.5,0,1,1,0,5Z"/><path class="cls-3" d="M194.1,370h-7.4a2.5,2.5,0,0,1,0-5h7.4a2.5,2.5,0,1,1,0,5Z"/><path class="cls-3" d="M218.7,329.8H181a5.2,5.2,0,0,1-5.2-5.2V272.3a2.5,2.5,0,0,1,5,0v52.3l.2.2h37.7a2.5,2.5,0,0,1,0,5Z"/><path class="cls-3" d="M230.4,329.8h-3.3a2.5,2.5,0,1,1,0-5h3.3a2.5,2.5,0,1,1,0,5Z"/><path class="cls-3" d="M2.5,312.1H2l-.5-.2-.4-.2-.4-.3L.4,311c-.1-.1-.1-.3-.2-.4l-.2-.5v-.5a2.6,2.6,0,0,1,.7-1.7l.4-.3.4-.3h2l.4.3.4.3a2.6,2.6,0,0,1,.7,1.7v.5l-.2.5-.2.4-.3.4-.4.3-.4.2-.5.2Z"/><path class="cls-3" d="M0,299.9a2.5,2.5,0,0,1,2.5-2.5h0A2.5,2.5,0,0,1,5,299.9H5a2.5,2.5,0,0,1-2.5,2.5h0A2.5,2.5,0,0,1,0,299.9Zm0-9.8a2.5,2.5,0,0,1,2.5-2.5h0A2.5,2.5,0,0,1,5,290.1H5a2.5,2.5,0,0,1-2.5,2.5h0A2.5,2.5,0,0,1,0,290.1Zm0-9.8a2.5,2.5,0,0,1,2.5-2.5h0A2.5,2.5,0,0,1,5,280.3H5a2.5,2.5,0,0,1-2.5,2.5h0A2.5,2.5,0,0,1,0,280.3Zm0-9.7a2.5,2.5,0,0,1,2.5-2.5h0A2.5,2.5,0,0,1,5,270.6H5a2.5,2.5,0,0,1-2.5,2.5h0A2.5,2.5,0,0,1,0,270.6Zm0-9.8a2.5,2.5,0,0,1,2.5-2.5h0A2.5,2.5,0,0,1,5,260.8H5a2.5,2.5,0,0,1-2.5,2.5h0A2.5,2.5,0,0,1,0,260.8Zm0-9.7a2.5,2.5,0,0,1,2.5-2.5h0A2.5,2.5,0,0,1,5,251.1H5a2.5,2.5,0,0,1-2.5,2.5h0A2.5,2.5,0,0,1,0,251.1Zm0-9.8a2.5,2.5,0,0,1,2.5-2.5h0A2.5,2.5,0,0,1,5,241.3H5a2.5,2.5,0,0,1-2.5,2.5h0A2.5,2.5,0,0,1,0,241.3Zm0-9.8A2.5,2.5,0,0,1,2.5,229h0A2.5,2.5,0,0,1,5,231.5H5A2.5,2.5,0,0,1,2.5,234h0A2.5,2.5,0,0,1,0,231.5Zm0-9.7a2.5,2.5,0,0,1,2.5-2.5h0A2.5,2.5,0,0,1,5,221.8H5a2.5,2.5,0,0,1-2.5,2.5h0A2.5,2.5,0,0,1,0,221.8ZM0,212a2.5,2.5,0,0,1,2.5-2.5h0A2.5,2.5,0,0,1,5,212H5a2.5,2.5,0,0,1-2.5,2.5h0A2.5,2.5,0,0,1,0,212Zm0-9.8a2.5,2.5,0,0,1,2.5-2.5h0A2.5,2.5,0,0,1,5,202.2H5a2.5,2.5,0,0,1-2.5,2.5h0A2.5,2.5,0,0,1,0,202.2Zm0-9.7A2.5,2.5,0,0,1,2.5,190h0A2.5,2.5,0,0,1,5,192.5H5A2.5,2.5,0,0,1,2.5,195h0A2.5,2.5,0,0,1,0,192.5Zm2.4-7.3a2.5,2.5,0,0,1-2-2.9h0a2.4,2.4,0,0,1,2.9-2h0a2.5,2.5,0,0,1,2,2.9h0a2.6,2.6,0,0,1-2.5,2H2.4Zm3-9.3a2.5,2.5,0,0,1-.2-3.5h0a2.5,2.5,0,0,1,3.5-.2h0a2.5,2.5,0,0,1,.2,3.5h0a2.5,2.5,0,0,1-1.9.9H7A2.8,2.8,0,0,1,5.4,175.9Zm7.3-6.4a2.5,2.5,0,0,1,1.6-3.1h0a2.6,2.6,0,0,1,3.2,1.6h0a2.5,2.5,0,0,1-1.6,3.1h0l-.8.2h0A2.6,2.6,0,0,1,12.7,169.5Zm38.9-1.6a2.5,2.5,0,0,1,2.5-2.5h0a2.5,2.5,0,0,1,2.5,2.5h0a2.5,2.5,0,0,1-2.5,2.5h0A2.5,2.5,0,0,1,51.6,167.9Zm-9.8,0a2.5,2.5,0,0,1,2.5-2.5h0a2.5,2.5,0,0,1,2.5,2.5h0a2.5,2.5,0,0,1-2.5,2.5h0A2.5,2.5,0,0,1,41.8,167.9Zm-9.8,0a2.5,2.5,0,0,1,2.5-2.5h0a2.5,2.5,0,0,1,2.5,2.5h0a2.5,2.5,0,0,1-2.5,2.5h0A2.5,2.5,0,0,1,32,167.9Zm-9.7,0a2.5,2.5,0,0,1,2.5-2.5h0a2.5,2.5,0,0,1,2.5,2.5h0a2.5,2.5,0,0,1-2.5,2.5h0A2.5,2.5,0,0,1,22.3,167.9Z"/><path class="cls-3" d="M63.9,170.4h-1l-.4-.2-.4-.3a2.6,2.6,0,0,1-.7-1.8v-.5c0-.2.1-.3.1-.5l.3-.4.3-.4.4-.3.4-.2.5-.2h.9l.5.2.4.2.4.3.3.4.3.4c0,.2.1.3.1.5v.5a2.6,2.6,0,0,1-.7,1.8l-.4.3-.4.2h-.9Z"/><path class="cls-3" d="M160.8,36.4H142.4a2.5,2.5,0,0,1-2.5-2.5,2.5,2.5,0,0,1,2.5-2.5h18.4a1.9,1.9,0,0,0,1.8-1.9,1.8,1.8,0,0,0-1.8-1.8H142.4a2.5,2.5,0,0,1,0-5h18.4a6.9,6.9,0,0,1,0,13.7Z"/><path class="cls-3" d="M133.8,36.4H115.4a6.9,6.9,0,0,1,0-13.7h18.4a2.5,2.5,0,0,1,0,5H115.4a1.8,1.8,0,0,0-1.8,1.8,1.9,1.9,0,0,0,1.8,1.9h18.4a2.5,2.5,0,0,1,2.5,2.5A2.5,2.5,0,0,1,133.8,36.4Z"/><path class="cls-3" d="M142.4,27.7a2.5,2.5,0,0,1-2.5-2.5V6.8a1.8,1.8,0,0,0-3.6,0V25.2a2.5,2.5,0,0,1-5,0V6.8a6.8,6.8,0,0,1,13.6,0V25.2A2.5,2.5,0,0,1,142.4,27.7Z"/><path class="cls-3" d="M138.1,59.1a6.8,6.8,0,0,1-6.8-6.8V33.9a2.5,2.5,0,0,1,5,0V52.3a1.8,1.8,0,0,0,3.6,0V33.9a2.5,2.5,0,0,1,5,0V52.3A6.8,6.8,0,0,1,138.1,59.1Z"/><path class="cls-3" d="M161.8,110.9H143.4a2.5,2.5,0,0,1,0-5h18.4a1.8,1.8,0,0,0,0-3.6H143.4a2.5,2.5,0,0,1,0-5h18.4a6.8,6.8,0,0,1,0,13.6Z"/><path class="cls-3" d="M134.8,110.9H116.4a6.8,6.8,0,0,1,0-13.6h18.4a2.5,2.5,0,0,1,0,5H116.4a1.8,1.8,0,0,0,0,3.6h18.4a2.5,2.5,0,0,1,0,5Z"/><path class="cls-3" d="M143.4,102.3a2.5,2.5,0,0,1-2.5-2.5V81.4a1.8,1.8,0,0,0-3.6,0V99.8a2.5,2.5,0,1,1-5,0V81.4a6.8,6.8,0,1,1,13.6,0V99.8A2.5,2.5,0,0,1,143.4,102.3Z"/><path class="cls-3" d="M139.1,133.6a6.7,6.7,0,0,1-6.8-6.8V108.4a2.5,2.5,0,0,1,5,0v18.4a1.8,1.8,0,0,0,3.6,0V108.4a2.5,2.5,0,0,1,5,0v18.4A6.7,6.7,0,0,1,139.1,133.6Z"/><path class="cls-3" d="M202.3,74.1H183.9a2.5,2.5,0,0,1-2.5-2.5,2.5,2.5,0,0,1,2.5-2.5h18.4a1.9,1.9,0,0,0,1.8-1.9,1.9,1.9,0,0,0-1.8-1.8H183.9a2.5,2.5,0,1,1,0-5h18.4a6.9,6.9,0,0,1,0,13.7Z"/><path class="cls-3" d="M175.2,74.1H156.8a6.9,6.9,0,0,1,0-13.7h18.4a2.5,2.5,0,0,1,0,5H156.8a1.8,1.8,0,0,0-1.8,1.8,1.9,1.9,0,0,0,1.8,1.9h18.4a2.5,2.5,0,0,1,2.5,2.5A2.5,2.5,0,0,1,175.2,74.1Z"/><path class="cls-3" d="M183.9,65.4a2.5,2.5,0,0,1-2.5-2.5V44.5a1.9,1.9,0,0,0-1.9-1.8,1.8,1.8,0,0,0-1.8,1.8V62.9a2.5,2.5,0,1,1-5,0V44.5a6.9,6.9,0,0,1,13.7,0V62.9A2.5,2.5,0,0,1,183.9,65.4Z"/><path class="cls-3" d="M179.5,96.8a6.9,6.9,0,0,1-6.8-6.8V71.6a2.5,2.5,0,0,1,5,0V90a1.8,1.8,0,0,0,1.8,1.8,1.9,1.9,0,0,0,1.9-1.8V71.6a2.5,2.5,0,0,1,2.5-2.5,2.5,2.5,0,0,1,2.5,2.5V90A6.9,6.9,0,0,1,179.5,96.8Z"/><path class="cls-3" d="M243.6,110.9H225.2a2.5,2.5,0,0,1,0-5h18.4a1.8,1.8,0,1,0,0-3.6H225.2a2.5,2.5,0,0,1,0-5h18.4a6.8,6.8,0,1,1,0,13.6Z"/><path class="cls-3" d="M216.6,110.9H198.2a6.8,6.8,0,1,1,0-13.6h18.4a2.5,2.5,0,0,1,0,5H198.2a1.8,1.8,0,1,0,0,3.6h18.4a2.5,2.5,0,0,1,0,5Z"/><path class="cls-3" d="M225.2,102.3a2.5,2.5,0,0,1-2.5-2.5V81.4a1.8,1.8,0,1,0-3.6,0V99.8a2.5,2.5,0,0,1-2.5,2.5,2.5,2.5,0,0,1-2.5-2.5V81.4a6.8,6.8,0,1,1,13.6,0V99.8A2.5,2.5,0,0,1,225.2,102.3Z"/><path class="cls-3" d="M220.9,133.6a6.7,6.7,0,0,1-6.8-6.8V108.4a2.5,2.5,0,0,1,2.5-2.5,2.5,2.5,0,0,1,2.5,2.5v18.4a1.8,1.8,0,1,0,3.6,0V108.4a2.5,2.5,0,0,1,5,0v18.4A6.8,6.8,0,0,1,220.9,133.6Z"/><path class="cls-3" d="M94.6,130.8H72.8a2.5,2.5,0,0,1,0-5H94.6a2.6,2.6,0,0,0,2.6-2.6,2.6,2.6,0,0,0-2.6-2.6H72.8a2.5,2.5,0,1,1,0-5H94.6a7.6,7.6,0,1,1,0,15.2Z"/><path class="cls-3" d="M62.6,130.8H40.8a7.6,7.6,0,1,1,0-15.2H62.6a2.5,2.5,0,0,1,0,5H40.8a2.6,2.6,0,0,0-2.6,2.6,2.6,2.6,0,0,0,2.6,2.6H62.6a2.5,2.5,0,0,1,0,5Z"/><path class="cls-3" d="M72.8,120.6a2.5,2.5,0,0,1-2.5-2.5V96.3a2.6,2.6,0,0,0-2.6-2.6,2.6,2.6,0,0,0-2.6,2.6v21.8a2.5,2.5,0,1,1-5,0V96.3a7.6,7.6,0,1,1,15.2,0v21.8A2.5,2.5,0,0,1,72.8,120.6Z"/><path class="cls-3" d="M67.7,157.7a7.6,7.6,0,0,1-7.6-7.6V128.3a2.5,2.5,0,1,1,5,0v21.8a2.6,2.6,0,0,0,2.6,2.6,2.6,2.6,0,0,0,2.6-2.6V128.3a2.5,2.5,0,1,1,5,0v21.8A7.6,7.6,0,0,1,67.7,157.7Z"/><path class="cls-3" d="M120.7,77.1H98.9a2.5,2.5,0,0,1-2.5-2.5,2.5,2.5,0,0,1,2.5-2.5h21.8a2.6,2.6,0,0,0,2.6-2.6,2.6,2.6,0,0,0-2.6-2.6H98.9a2.5,2.5,0,1,1,0-5h21.8a7.6,7.6,0,1,1,0,15.2Z"/><path class="cls-3" d="M88.7,77.1H66.9a7.6,7.6,0,0,1,0-15.2H88.7a2.5,2.5,0,0,1,0,5H66.9a2.6,2.6,0,0,0-2.6,2.6,2.6,2.6,0,0,0,2.6,2.6H88.7a2.5,2.5,0,0,1,2.5,2.5A2.5,2.5,0,0,1,88.7,77.1Z"/><path class="cls-3" d="M98.9,66.9a2.5,2.5,0,0,1-2.5-2.5V42.7A2.7,2.7,0,0,0,93.8,40a2.6,2.6,0,0,0-2.6,2.7V64.4a2.5,2.5,0,0,1-5,0V42.7a7.6,7.6,0,1,1,15.2,0V64.4A2.5,2.5,0,0,1,98.9,66.9Z"/><path class="cls-3" d="M93.8,104a7.6,7.6,0,0,1-7.6-7.6V74.6a2.5,2.5,0,0,1,5,0V96.4A2.5,2.5,0,0,0,93.8,99a2.6,2.6,0,0,0,2.6-2.6V74.6a2.5,2.5,0,0,1,5,0V96.4A7.6,7.6,0,0,1,93.8,104Z"/><path class="cls-3" d="M247.5,295.6a2.5,2.5,0,0,1-2.5-2.5V278.3a2.5,2.5,0,1,1,5,0v14.8A2.5,2.5,0,0,1,247.5,295.6Z"/><path class="cls-3" d="M238.3,261.8a2.5,2.5,0,0,1-2.5-2.5V228.6a2.5,2.5,0,1,1,5,0v30.7A2.5,2.5,0,0,1,238.3,261.8Z"/></g></g></svg>