<svg xmlns="http://www.w3.org/2000/svg" viewBox="0 0 307.5 379"><defs><style>.cls-1{fill:#607D8B;}</style></defs><title>Asset 122</title><g id="Layer_2" data-name="Layer 2"><g id="Layer_1-2" data-name="Layer 1"><path class="cls-1" d="M29.8,358.7H20.2a2.5,2.5,0,0,1-2.5-2.5V20.7a2.5,2.5,0,0,1,2.5-2.5H227.8a2.5,2.5,0,0,1,2.5,2.5,2.6,2.6,0,0,1-2.5,2.5H22.7V353.7h7.1a2.5,2.5,0,0,1,0,5Z"/><path class="cls-1" d="M263.2,358.7H58.7a2.5,2.5,0,1,1,0-5h202V56.1a2.5,2.5,0,0,1,2.5-2.5,2.5,2.5,0,0,1,2.5,2.5V356.2A2.5,2.5,0,0,1,263.2,358.7Z"/><path class="cls-1" d="M263.2,58.6H227.8a2.5,2.5,0,0,1-2.5-2.5V20.7a2.4,2.4,0,0,1,1.5-2.3,2.5,2.5,0,0,1,2.7.5l35.4,35.4a2.5,2.5,0,0,1,.6,2.7A2.5,2.5,0,0,1,263.2,58.6Zm-32.9-5h26.8L230.3,26.7Z"/><path class="cls-1" d="M12.1,340.5H2.5A2.5,2.5,0,0,1,0,338V2.5A2.5,2.5,0,0,1,2.5,0H210.1a2.5,2.5,0,0,1,2.5,2.5A2.5,2.5,0,0,1,210.1,5H5V335.5h7.1a2.5,2.5,0,1,1,0,5Z"/><path class="cls-1" d="M227.8,23.2h-.1L210,22.7a2.4,2.4,0,0,1-2.4-2.5V2.5A2.5,2.5,0,0,1,209.1.2a2.5,2.5,0,0,1,2.8.6l17.7,18.1a2.6,2.6,0,0,1,.5,2.8A2.5,2.5,0,0,1,227.8,23.2Zm-15.2-5.4,9.1.2-9.1-9.4Z"/><path class="cls-1" d="M106.6,149.2H45.5a2.5,2.5,0,0,1-2.5-2.5v-61a2.5,2.5,0,0,1,2.5-2.5h49a2.5,2.5,0,0,1,0,5H48v56h56.1V96.5a2.5,2.5,0,0,1,2.5-2.5,2.5,2.5,0,0,1,2.5,2.5v50.2A2.5,2.5,0,0,1,106.6,149.2Z"/><path class="cls-1" d="M106.6,222.5H45.5A2.5,2.5,0,0,1,43,220V158.9a2.5,2.5,0,0,1,2.5-2.5h61.1a2.6,2.6,0,0,1,2.5,2.5V220A2.6,2.6,0,0,1,106.6,222.5Zm-58.6-5h56.1V161.4H48Z"/><path class="cls-1" d="M106.6,293.6H45.5a2.5,2.5,0,0,1-2.5-2.5v-61a2.5,2.5,0,0,1,2.5-2.5h61.1a2.5,2.5,0,0,1,2.5,2.5v61A2.5,2.5,0,0,1,106.6,293.6Zm-58.6-5h56.1v-56H48Z"/><path class="cls-1" d="M245.5,326.7H45.5a2.5,2.5,0,0,1-2.5-2.5V305a2.5,2.5,0,0,1,2.5-2.5h200A2.5,2.5,0,0,1,248,305v19.2A2.6,2.6,0,0,1,245.5,326.7ZM48,321.7H243V307.5H48Z"/><path class="cls-1" d="M106.6,338.3H45.5a2.5,2.5,0,0,1,0-5h61.1a2.5,2.5,0,0,1,0,5Z"/><path class="cls-1" d="M179.9,272.6h-64a2.5,2.5,0,0,1-2.5-2.5,2.5,2.5,0,0,1,2.5-2.5h64a2.5,2.5,0,0,1,2.5,2.5A2.5,2.5,0,0,1,179.9,272.6Z"/><path class="cls-1" d="M243.9,253.6h-128a2.5,2.5,0,0,1,0-5h128a2.5,2.5,0,0,1,0,5Z"/><path class="cls-1" d="M179.9,200.4h-64a2.5,2.5,0,0,1,0-5h64a2.5,2.5,0,0,1,0,5Z"/><path class="cls-1" d="M243.9,181.4h-128a2.5,2.5,0,0,1,0-5h128a2.5,2.5,0,0,1,0,5Z"/><path class="cls-1" d="M179.9,128.2h-64a2.5,2.5,0,0,1,0-5h64a2.5,2.5,0,0,1,0,5Z"/><path class="cls-1" d="M243.9,109.2h-128a2.5,2.5,0,0,1,0-5h128a2.5,2.5,0,0,1,0,5Z"/><path class="cls-1" d="M227.8,74.2H46.1a2.5,2.5,0,0,1-2.5-2.5,2.5,2.5,0,0,1,2.5-2.5H227.8a2.5,2.5,0,0,1,2.5,2.5A2.6,2.6,0,0,1,227.8,74.2Z"/><path class="cls-1" d="M69.5,124.9a2.2,2.2,0,0,1-1.7-.7L50.9,107.3a2.5,2.5,0,0,1,0-3.6,2.6,2.6,0,0,1,3.5,0l15.1,15.2,39.7-39.7a2.6,2.6,0,0,1,3.5,0,2.5,2.5,0,0,1,0,3.6L71.3,124.2A2.4,2.4,0,0,1,69.5,124.9Z"/><path class="cls-1" d="M20.2,379a2.9,2.9,0,0,1-1.8-.7l-.3-.4c-.1-.1-.1-.3-.2-.4a.9.9,0,0,1-.1-.5.9.9,0,0,1-.1-.5,3.1,3.1,0,0,1,.7-1.8,2.7,2.7,0,0,1,2.3-.6h.4l.5.2.4.3a3.1,3.1,0,0,1,.7,1.8.9.9,0,0,1-.1.5.9.9,0,0,1-.1.5.8.8,0,0,1-.2.4l-.3.4-.4.3-.5.2-.4.2Z"/><path class="cls-1" d="M250.5,376.5A2.5,2.5,0,0,1,253,374h0a2.5,2.5,0,0,1,2.5,2.5h0A2.5,2.5,0,0,1,253,379h0A2.5,2.5,0,0,1,250.5,376.5Zm-10.1,0a2.5,2.5,0,0,1,2.5-2.5h0a2.5,2.5,0,0,1,2.5,2.5h0a2.5,2.5,0,0,1-2.5,2.5h0A2.5,2.5,0,0,1,240.4,376.5Zm-10.1,0a2.5,2.5,0,0,1,2.5-2.5h0a2.5,2.5,0,0,1,2.5,2.5h0a2.5,2.5,0,0,1-2.5,2.5h0A2.5,2.5,0,0,1,230.3,376.5Zm-10.1,0a2.5,2.5,0,0,1,2.5-2.5h0a2.5,2.5,0,0,1,2.5,2.5h0a2.5,2.5,0,0,1-2.5,2.5h0A2.5,2.5,0,0,1,220.2,376.5Zm-10.2,0a2.5,2.5,0,0,1,2.5-2.5h0a2.5,2.5,0,0,1,2.5,2.5h0a2.5,2.5,0,0,1-2.5,2.5h0A2.5,2.5,0,0,1,210,376.5Zm-10.1,0a2.5,2.5,0,0,1,2.5-2.5h0a2.5,2.5,0,0,1,2.5,2.5h0a2.5,2.5,0,0,1-2.5,2.5h0A2.5,2.5,0,0,1,199.9,376.5Zm-10.1,0a2.5,2.5,0,0,1,2.5-2.5h0a2.5,2.5,0,0,1,2.5,2.5h0a2.5,2.5,0,0,1-2.5,2.5h0A2.5,2.5,0,0,1,189.8,376.5Zm-10.1,0a2.5,2.5,0,0,1,2.5-2.5h0a2.5,2.5,0,0,1,2.5,2.5h0a2.5,2.5,0,0,1-2.5,2.5h0A2.5,2.5,0,0,1,179.7,376.5Zm-10.1,0a2.5,2.5,0,0,1,2.5-2.5h0a2.5,2.5,0,0,1,2.5,2.5h0a2.5,2.5,0,0,1-2.5,2.5h0A2.5,2.5,0,0,1,169.6,376.5Zm-10.2,0a2.5,2.5,0,0,1,2.5-2.5h0a2.5,2.5,0,0,1,2.5,2.5h0a2.5,2.5,0,0,1-2.5,2.5h0A2.5,2.5,0,0,1,159.4,376.5Zm-10.1,0a2.5,2.5,0,0,1,2.5-2.5h0a2.5,2.5,0,0,1,2.5,2.5h0a2.5,2.5,0,0,1-2.5,2.5h0A2.5,2.5,0,0,1,149.3,376.5Zm-10.1,0a2.5,2.5,0,0,1,2.5-2.5h0a2.5,2.5,0,0,1,2.5,2.5h0a2.5,2.5,0,0,1-2.5,2.5h0A2.5,2.5,0,0,1,139.2,376.5Zm-10.1,0a2.5,2.5,0,0,1,2.5-2.5h0a2.5,2.5,0,0,1,2.5,2.5h0a2.5,2.5,0,0,1-2.5,2.5h0A2.5,2.5,0,0,1,129.1,376.5Zm-10.2,0a2.5,2.5,0,0,1,2.5-2.5h0a2.5,2.5,0,0,1,2.5,2.5h0a2.5,2.5,0,0,1-2.5,2.5h0A2.5,2.5,0,0,1,118.9,376.5Zm-10.1,0a2.5,2.5,0,0,1,2.5-2.5h0a2.5,2.5,0,0,1,2.5,2.5h0a2.5,2.5,0,0,1-2.5,2.5h0A2.5,2.5,0,0,1,108.8,376.5Zm-10.1,0a2.5,2.5,0,0,1,2.5-2.5h0a2.5,2.5,0,0,1,2.5,2.5h0a2.5,2.5,0,0,1-2.5,2.5h0A2.5,2.5,0,0,1,98.7,376.5Zm-10.1,0a2.5,2.5,0,0,1,2.5-2.5h0a2.5,2.5,0,0,1,2.5,2.5h0a2.5,2.5,0,0,1-2.5,2.5h0A2.5,2.5,0,0,1,88.6,376.5Zm-10.2,0a2.5,2.5,0,0,1,2.5-2.5h0a2.5,2.5,0,0,1,2.5,2.5h0a2.5,2.5,0,0,1-2.5,2.5h0A2.5,2.5,0,0,1,78.4,376.5Zm-10.1,0a2.5,2.5,0,0,1,2.5-2.5h0a2.5,2.5,0,0,1,2.5,2.5h0a2.5,2.5,0,0,1-2.5,2.5h0A2.5,2.5,0,0,1,68.3,376.5Zm-10.1,0a2.5,2.5,0,0,1,2.5-2.5h0a2.5,2.5,0,0,1,2.5,2.5h0a2.5,2.5,0,0,1-2.5,2.5h0A2.5,2.5,0,0,1,58.2,376.5Zm-10.1,0a2.5,2.5,0,0,1,2.5-2.5h0a2.5,2.5,0,0,1,2.5,2.5h0a2.5,2.5,0,0,1-2.5,2.5h0A2.5,2.5,0,0,1,48.1,376.5Zm-10.1,0a2.5,2.5,0,0,1,2.5-2.5h0a2.5,2.5,0,0,1,2.5,2.5h0a2.5,2.5,0,0,1-2.5,2.5h0A2.5,2.5,0,0,1,38,376.5Zm-10.2,0a2.5,2.5,0,0,1,2.5-2.5h0a2.5,2.5,0,0,1,2.5,2.5h0a2.5,2.5,0,0,1-2.5,2.5h0A2.5,2.5,0,0,1,27.8,376.5Z"/><path class="cls-1" d="M263.2,379a2.9,2.9,0,0,1-1.8-.7l-.3-.4a.8.8,0,0,1-.2-.4c-.1-.2-.2-.3-.2-.5v-.5a2.6,2.6,0,0,1,.7-1.8,2.6,2.6,0,0,1,3.5,0,2.7,2.7,0,0,1,.8,1.8c0,.2-.1.3-.1.5s-.1.3-.1.5l-.3.4-.3.4A2.6,2.6,0,0,1,263.2,379Z"/><path class="cls-1" d="M288.9,368.8h-1l-.4-.3-.4-.3-.3-.4a.5.5,0,0,1-.2-.4.7.7,0,0,1-.1-.5.7.7,0,0,1-.1-.5,2.6,2.6,0,0,1,.7-1.7l.4-.3.4-.3h.5a2.5,2.5,0,0,1,2.3.7,2.6,2.6,0,0,1,.7,1.7,2.9,2.9,0,0,1-.7,1.8A2.4,2.4,0,0,1,288.9,368.8Z"/><path class="cls-1" d="M286.4,356.2a2.5,2.5,0,0,1,2.5-2.5h0a2.5,2.5,0,0,1,2.5,2.5h0a2.5,2.5,0,0,1-2.5,2.5h0A2.5,2.5,0,0,1,286.4,356.2Zm0-10.1a2.5,2.5,0,0,1,2.5-2.5h0a2.5,2.5,0,0,1,2.5,2.5h0a2.5,2.5,0,0,1-2.5,2.5h0A2.5,2.5,0,0,1,286.4,346.1Zm0-10.1a2.5,2.5,0,0,1,2.5-2.5h0a2.5,2.5,0,0,1,2.5,2.5h0a2.5,2.5,0,0,1-2.5,2.5h0A2.5,2.5,0,0,1,286.4,336Zm0-10.2a2.5,2.5,0,0,1,2.5-2.5h0a2.5,2.5,0,0,1,2.5,2.5h0a2.5,2.5,0,0,1-2.5,2.5h0A2.5,2.5,0,0,1,286.4,325.8Zm0-10.1a2.5,2.5,0,0,1,2.5-2.5h0a2.5,2.5,0,0,1,2.5,2.5h0a2.5,2.5,0,0,1-2.5,2.5h0A2.5,2.5,0,0,1,286.4,315.7Zm0-10.1a2.5,2.5,0,0,1,2.5-2.5h0a2.5,2.5,0,0,1,2.5,2.5h0a2.5,2.5,0,0,1-2.5,2.5h0A2.5,2.5,0,0,1,286.4,305.6Zm0-10.1a2.5,2.5,0,0,1,2.5-2.5h0a2.5,2.5,0,0,1,2.5,2.5h0a2.5,2.5,0,0,1-2.5,2.5h0A2.5,2.5,0,0,1,286.4,295.5Zm0-10.2a2.5,2.5,0,0,1,2.5-2.5h0a2.5,2.5,0,0,1,2.5,2.5h0a2.5,2.5,0,0,1-2.5,2.5h0A2.5,2.5,0,0,1,286.4,285.3Zm0-10.1a2.5,2.5,0,0,1,2.5-2.5h0a2.5,2.5,0,0,1,2.5,2.5h0a2.5,2.5,0,0,1-2.5,2.5h0A2.5,2.5,0,0,1,286.4,275.2Zm0-10.1a2.5,2.5,0,0,1,2.5-2.5h0a2.5,2.5,0,0,1,2.5,2.5h0a2.5,2.5,0,0,1-2.5,2.5h0A2.5,2.5,0,0,1,286.4,265.1Zm0-10.1a2.5,2.5,0,0,1,2.5-2.5h0a2.5,2.5,0,0,1,2.5,2.5h0a2.5,2.5,0,0,1-2.5,2.5h0A2.5,2.5,0,0,1,286.4,255Zm0-10.2a2.5,2.5,0,0,1,2.5-2.5h0a2.5,2.5,0,0,1,2.5,2.5h0a2.5,2.5,0,0,1-2.5,2.5h0A2.5,2.5,0,0,1,286.4,244.8Zm0-10.1a2.5,2.5,0,0,1,2.5-2.5h0a2.5,2.5,0,0,1,2.5,2.5h0a2.5,2.5,0,0,1-2.5,2.5h0A2.5,2.5,0,0,1,286.4,234.7Zm0-10.1a2.5,2.5,0,0,1,2.5-2.5h0a2.5,2.5,0,0,1,2.5,2.5h0a2.5,2.5,0,0,1-2.5,2.5h0A2.5,2.5,0,0,1,286.4,224.6Zm0-10.1a2.5,2.5,0,0,1,2.5-2.5h0a2.5,2.5,0,0,1,2.5,2.5h0a2.5,2.5,0,0,1-2.5,2.5h0A2.5,2.5,0,0,1,286.4,214.5Zm0-10.2a2.5,2.5,0,0,1,2.5-2.5h0a2.5,2.5,0,0,1,2.5,2.5h0a2.5,2.5,0,0,1-2.5,2.5h0A2.5,2.5,0,0,1,286.4,204.3Zm0-10.1a2.5,2.5,0,0,1,2.5-2.5h0a2.5,2.5,0,0,1,2.5,2.5h0a2.5,2.5,0,0,1-2.5,2.5h0A2.5,2.5,0,0,1,286.4,194.2Zm0-10.1a2.5,2.5,0,0,1,2.5-2.5h0a2.5,2.5,0,0,1,2.5,2.5h0a2.5,2.5,0,0,1-2.5,2.5h0A2.5,2.5,0,0,1,286.4,184.1Zm0-10.1a2.5,2.5,0,0,1,2.5-2.5h0a2.5,2.5,0,0,1,2.5,2.5h0a2.5,2.5,0,0,1-2.5,2.5h0A2.5,2.5,0,0,1,286.4,174Zm0-10.2a2.5,2.5,0,0,1,2.5-2.5h0a2.5,2.5,0,0,1,2.5,2.5h0a2.5,2.5,0,0,1-2.5,2.5h0A2.5,2.5,0,0,1,286.4,163.8Zm0-10.1a2.5,2.5,0,0,1,2.5-2.5h0a2.5,2.5,0,0,1,2.5,2.5h0a2.5,2.5,0,0,1-2.5,2.5h0A2.5,2.5,0,0,1,286.4,153.7Z"/><path class="cls-1" d="M288.9,146.1h-1l-.4-.2-.4-.3a3.1,3.1,0,0,1-.7-1.8v-.5l.2-.5a.8.8,0,0,1,.2-.4l.3-.4.4-.3.4-.2.5-.2a2.8,2.8,0,0,1,2.3.7l.3.4c.1.1.1.3.2.4l.2.5v.5a3.1,3.1,0,0,1-.7,1.8A2.9,2.9,0,0,1,288.9,146.1Z"/><path class="cls-1" d="M20.2,368.8a2.4,2.4,0,0,1-1.8-.7,2.9,2.9,0,0,1-.7-1.8,2.6,2.6,0,0,1,.7-1.7,2.5,2.5,0,0,1,2.3-.7h.5l.4.3.4.3a2.6,2.6,0,0,1,.7,1.7.7.7,0,0,1-.1.5.7.7,0,0,1-.1.5.5.5,0,0,1-.2.4l-.3.4-.4.3-.4.3h-1Z"/><path class="cls-1" d="M250.5,366.3a2.5,2.5,0,0,1,2.5-2.5h0a2.5,2.5,0,0,1,2.5,2.5h0a2.5,2.5,0,0,1-2.5,2.5h0A2.5,2.5,0,0,1,250.5,366.3Zm-10.1,0a2.5,2.5,0,0,1,2.5-2.5h0a2.5,2.5,0,0,1,2.5,2.5h0a2.5,2.5,0,0,1-2.5,2.5h0A2.5,2.5,0,0,1,240.4,366.3Zm-10.1,0a2.5,2.5,0,0,1,2.5-2.5h0a2.5,2.5,0,0,1,2.5,2.5h0a2.5,2.5,0,0,1-2.5,2.5h0A2.5,2.5,0,0,1,230.3,366.3Zm-10.1,0a2.5,2.5,0,0,1,2.5-2.5h0a2.6,2.6,0,0,1,2.5,2.5h0a2.5,2.5,0,0,1-2.5,2.5h0A2.5,2.5,0,0,1,220.2,366.3Zm-10.2,0a2.6,2.6,0,0,1,2.5-2.5h0a2.5,2.5,0,0,1,2.5,2.5h0a2.5,2.5,0,0,1-2.5,2.5h0A2.5,2.5,0,0,1,210,366.3Zm-10.1,0a2.5,2.5,0,0,1,2.5-2.5h0a2.5,2.5,0,0,1,2.5,2.5h0a2.5,2.5,0,0,1-2.5,2.5h0A2.5,2.5,0,0,1,199.9,366.3Zm-10.1,0a2.5,2.5,0,0,1,2.5-2.5h0a2.5,2.5,0,0,1,2.5,2.5h0a2.5,2.5,0,0,1-2.5,2.5h0A2.5,2.5,0,0,1,189.8,366.3Zm-10.1,0a2.5,2.5,0,0,1,2.5-2.5h0a2.5,2.5,0,0,1,2.5,2.5h0a2.5,2.5,0,0,1-2.5,2.5h0A2.5,2.5,0,0,1,179.7,366.3Zm-10.1,0a2.5,2.5,0,0,1,2.5-2.5h0a2.6,2.6,0,0,1,2.5,2.5h0a2.5,2.5,0,0,1-2.5,2.5h0A2.5,2.5,0,0,1,169.6,366.3Zm-10.2,0a2.5,2.5,0,0,1,2.5-2.5h0a2.5,2.5,0,0,1,2.5,2.5h0a2.5,2.5,0,0,1-2.5,2.5h0A2.5,2.5,0,0,1,159.4,366.3Zm-10.1,0a2.5,2.5,0,0,1,2.5-2.5h0a2.5,2.5,0,0,1,2.5,2.5h0a2.5,2.5,0,0,1-2.5,2.5h0A2.5,2.5,0,0,1,149.3,366.3Zm-10.1,0a2.5,2.5,0,0,1,2.5-2.5h0a2.5,2.5,0,0,1,2.5,2.5h0a2.5,2.5,0,0,1-2.5,2.5h0A2.5,2.5,0,0,1,139.2,366.3Zm-10.1,0a2.5,2.5,0,0,1,2.5-2.5h0a2.6,2.6,0,0,1,2.5,2.5h0a2.5,2.5,0,0,1-2.5,2.5h0A2.5,2.5,0,0,1,129.1,366.3Zm-10.2,0a2.6,2.6,0,0,1,2.5-2.5h0a2.5,2.5,0,0,1,2.5,2.5h0a2.5,2.5,0,0,1-2.5,2.5h0A2.5,2.5,0,0,1,118.9,366.3Zm-10.1,0a2.5,2.5,0,0,1,2.5-2.5h0a2.5,2.5,0,0,1,2.5,2.5h0a2.5,2.5,0,0,1-2.5,2.5h0A2.5,2.5,0,0,1,108.8,366.3Zm-10.1,0a2.5,2.5,0,0,1,2.5-2.5h0a2.5,2.5,0,0,1,2.5,2.5h0a2.5,2.5,0,0,1-2.5,2.5h0A2.5,2.5,0,0,1,98.7,366.3Zm-10.1,0a2.5,2.5,0,0,1,2.5-2.5h0a2.6,2.6,0,0,1,2.5,2.5h0a2.5,2.5,0,0,1-2.5,2.5h0A2.5,2.5,0,0,1,88.6,366.3Zm-10.2,0a2.6,2.6,0,0,1,2.5-2.5h0a2.5,2.5,0,0,1,2.5,2.5h0a2.5,2.5,0,0,1-2.5,2.5h0A2.5,2.5,0,0,1,78.4,366.3Zm-10.1,0a2.5,2.5,0,0,1,2.5-2.5h0a2.5,2.5,0,0,1,2.5,2.5h0a2.5,2.5,0,0,1-2.5,2.5h0A2.5,2.5,0,0,1,68.3,366.3Zm-10.1,0a2.5,2.5,0,0,1,2.5-2.5h0a2.5,2.5,0,0,1,2.5,2.5h0a2.5,2.5,0,0,1-2.5,2.5h0A2.5,2.5,0,0,1,58.2,366.3Zm-10.1,0a2.5,2.5,0,0,1,2.5-2.5h0a2.5,2.5,0,0,1,2.5,2.5h0a2.5,2.5,0,0,1-2.5,2.5h0A2.5,2.5,0,0,1,48.1,366.3Zm-10.1,0a2.5,2.5,0,0,1,2.4-2.5h0a2.5,2.5,0,0,1,2.5,2.5h0a2.5,2.5,0,0,1-2.5,2.5h0A2.5,2.5,0,0,1,38,366.3Zm-10.2,0a2.5,2.5,0,0,1,2.5-2.5h0a2.5,2.5,0,0,1,2.5,2.5h0a2.5,2.5,0,0,1-2.5,2.5h0A2.5,2.5,0,0,1,27.8,366.3Z"/><path class="cls-1" d="M263.2,368.8h-1l-.4-.3-.4-.3-.3-.4a.5.5,0,0,1-.2-.4.8.8,0,0,1-.2-.5v-.5a2.2,2.2,0,0,1,.7-1.7l.4-.3.4-.3h.5a2.3,2.3,0,0,1,2.2.7,2.3,2.3,0,0,1,.8,1.7,2.5,2.5,0,0,1-.8,1.8A2.2,2.2,0,0,1,263.2,368.8Z"/><path class="cls-1" d="M288.9,137.3a18.6,18.6,0,1,1,18.6-18.6A18.7,18.7,0,0,1,288.9,137.3Zm0-32.2a13.6,13.6,0,1,0,13.6,13.6A13.6,13.6,0,0,0,288.9,105.1Z"/></g></g></svg>