<svg xmlns="http://www.w3.org/2000/svg" viewBox="0 0 467.8 394.7"><defs><style>.cls-1{fill:#607D8B;}</style></defs><title>Asset 121</title><g id="Layer_2" data-name="Layer 2"><g id="Layer_1-2" data-name="Layer 1"><path class="cls-1" d="M357.8,394.7H167.3a44.6,44.6,0,0,1-44.6-44.6V93.8a44.6,44.6,0,0,1,44.6-44.6h34.5V35.5a17.9,17.9,0,0,1,17.9-17.9h85.6a18,18,0,0,1,18,17.9V49.2h34.5a44.6,44.6,0,0,1,44.6,44.6V350.1A44.6,44.6,0,0,1,357.8,394.7ZM167.3,54.2a39.7,39.7,0,0,0-39.6,39.6V350.1a39.7,39.7,0,0,0,39.6,39.6H357.8a39.7,39.7,0,0,0,39.6-39.6V93.8a39.7,39.7,0,0,0-39.6-39.6h-37a2.5,2.5,0,0,1-2.5-2.5V35.5a13,13,0,0,0-13-12.9H219.7a12.9,12.9,0,0,0-12.9,12.9V51.7a2.5,2.5,0,0,1-2.5,2.5Zm190.5,315H167.3a19.2,19.2,0,0,1-19.1-19.1V93.8a19.2,19.2,0,0,1,19.1-19.1h37a2.5,2.5,0,0,1,2.5,2.5v23.7c0,4.6,2.2,5.6,11.6,5.6h88.3c9.4,0,11.6-1,11.6-5.6V77.2a2.5,2.5,0,0,1,2.5-2.5h37a19.1,19.1,0,0,1,19,19.1V313a2.5,2.5,0,0,1-2.5,2.5,2.6,2.6,0,0,1-2.5-2.5V93.8a14.1,14.1,0,0,0-14-14.1H323.3v21.2c0,10.6-9.6,10.6-16.6,10.6H218.4c-7,0-16.6,0-16.6-10.6V79.7H167.3a14.1,14.1,0,0,0-14.1,14.1V350.1a14.1,14.1,0,0,0,14.1,14.1H357.8a14.1,14.1,0,0,0,14-14.1,2.5,2.5,0,0,1,2.5-2.5,2.5,2.5,0,0,1,2.5,2.5A19.1,19.1,0,0,1,357.8,369.2Z"/><path class="cls-1" d="M228.5,214.3a9.8,9.8,0,0,1-7.6-2.9l-7.1-7.2-7.2,7.2a11,11,0,0,1-7.6,2.9,9.9,9.9,0,0,1-7.6-2.9h0a10.9,10.9,0,0,1,0-15.2l7.2-7.2-7.2-7.1a10.7,10.7,0,0,1,15.2-15.2l7.2,7.2,7.1-7.2a10.9,10.9,0,0,1,15.2,0,10.9,10.9,0,0,1,0,15.2l-7.2,7.1,7.2,7.2a10.5,10.5,0,0,1-7.6,18.1Zm-14.7-17.2,10.7,10.7a4.9,4.9,0,0,0,4,1.5,5.6,5.6,0,0,0,4-9.6L221.8,189l10.7-10.7a5.7,5.7,0,0,0,0-8,5.3,5.3,0,0,0-4-1.7,5.4,5.4,0,0,0-4,1.7L213.8,181l-10.7-10.7a5.7,5.7,0,0,0-4.1-1.7,5.4,5.4,0,0,0-4,1.7,5.7,5.7,0,0,0,0,8L205.7,189,195,199.7a5.8,5.8,0,0,0,0,8.1,4.9,4.9,0,0,0,4,1.5,6.2,6.2,0,0,0,4.1-1.5Z"/><path class="cls-1" d="M341.5,298.8a9.9,9.9,0,0,1-7.5-3l-7.2-7.2-7.2,7.2a11,11,0,0,1-7.5,3,10,10,0,0,1-7.6-3,10.9,10.9,0,0,1,0-15.2l7.1-7.1-7.1-7.2a10.7,10.7,0,0,1,15.1-15.1l7.2,7.1,7.2-7.1a10.7,10.7,0,0,1,15.1,0h0a10.8,10.8,0,0,1,0,15.1l-7.2,7.2,7.2,7.1a10.9,10.9,0,0,1,0,15.2A11.1,11.1,0,0,1,341.5,298.8Zm-14.7-17.2,10.7,10.7a4.9,4.9,0,0,0,4,1.5,5.6,5.6,0,0,0,4.1-9.6l-10.7-10.7,10.7-10.7a6,6,0,0,0,0-8.1,5.8,5.8,0,0,0-4.1-1.6,5.8,5.8,0,0,0-4,1.6l-10.7,10.7-10.7-10.7a5.8,5.8,0,0,0-8.1,0,6,6,0,0,0,0,8.1l10.7,10.7L308,284.2a6,6,0,0,0,0,8.1,5.1,5.1,0,0,0,4.1,1.5,6,6,0,0,0,4-1.5Z"/><path class="cls-1" d="M184.9,291.6h-1.5a10.8,10.8,0,0,1-11-9.4,11.3,11.3,0,0,1,9.1-12.1h.2c82.5-11.9,111.6-81.8,121.1-117.3l-12.2,7.5a10.6,10.6,0,0,1-15.1-3.5,10.8,10.8,0,0,1-1.4-8.4,10.3,10.3,0,0,1,5-6.7l35.6-21.4a11,11,0,0,1,8.5-1.4,10.5,10.5,0,0,1,6.6,5l21.5,35.2a10.9,10.9,0,0,1-3.5,14.6,10.7,10.7,0,0,1-5.8,1.8,10.9,10.9,0,0,1-9.2-5.2h-.1l-8.4-13.9A210,210,0,0,1,304,207.7c-26.3,47.1-67.4,76.1-118.9,83.9ZM182.5,275a6.3,6.3,0,0,0-5.1,6.7,5.8,5.8,0,0,0,6,4.9h1.1c49.8-7.5,89.6-35.7,115.1-81.4a203.9,203.9,0,0,0,21.2-56l1.3-6.2,14.8,24.6a6.4,6.4,0,0,0,5.1,2.9,5.9,5.9,0,0,0,3.1-1,5.7,5.7,0,0,0,1.8-7.8l-21.4-35.3a5.6,5.6,0,0,0-3.5-2.7,5.5,5.5,0,0,0-4.5.8h-.1l-35.8,21.5a5.3,5.3,0,0,0-2.7,3.5,5.5,5.5,0,0,0,.8,4.5v.2a5.4,5.4,0,0,0,3.5,2.6,5.8,5.8,0,0,0,4.6-.8l22.6-13.9-1.4,5.9c-3.4,14.7-12.2,43.4-31.7,70C253.7,250.2,221.8,269.4,182.5,275Z"/><path class="cls-1" d="M259.3,351.5a28.9,28.9,0,1,1,28.9-28.9A28.6,28.6,0,0,1,259.3,351.5Zm0-52.7a23.9,23.9,0,1,0,23.9,23.8A23.6,23.6,0,0,0,259.3,298.8Z"/><path class="cls-1" d="M310.7,102.8H213.8a2.5,2.5,0,0,1-2.5-2.5V77.2a2.5,2.5,0,0,1,2.5-2.5h96.9a2.5,2.5,0,0,1,2.5,2.5v23.1A2.5,2.5,0,0,1,310.7,102.8Zm-94.4-5h91.9V79.7H216.3Z"/><path class="cls-1" d="M244.7,2.5A2.5,2.5,0,0,1,247.2,0h0a2.5,2.5,0,0,1,2.5,2.5h0A2.5,2.5,0,0,1,247.2,5h0A2.5,2.5,0,0,1,244.7,2.5Zm-10,0A2.5,2.5,0,0,1,237.2,0h0a2.5,2.5,0,0,1,2.5,2.5h0A2.5,2.5,0,0,1,237.2,5h0A2.5,2.5,0,0,1,234.7,2.5Zm-10,0A2.5,2.5,0,0,1,227.2,0h0a2.5,2.5,0,0,1,2.5,2.5h0A2.5,2.5,0,0,1,227.2,5h0A2.5,2.5,0,0,1,224.7,2.5Zm-10,0A2.5,2.5,0,0,1,217.2,0h0a2.5,2.5,0,0,1,2.5,2.5h0A2.5,2.5,0,0,1,217.2,5h0A2.5,2.5,0,0,1,214.7,2.5Zm-10,0A2.5,2.5,0,0,1,207.2,0h0a2.5,2.5,0,0,1,2.5,2.5h0A2.5,2.5,0,0,1,207.2,5h0A2.5,2.5,0,0,1,204.7,2.5Zm-10,0A2.5,2.5,0,0,1,197.2,0h0a2.5,2.5,0,0,1,2.5,2.5h0A2.5,2.5,0,0,1,197.2,5h0A2.5,2.5,0,0,1,194.7,2.5Zm-10,0A2.5,2.5,0,0,1,187.2,0h0a2.5,2.5,0,0,1,2.5,2.5h0A2.5,2.5,0,0,1,187.2,5h0A2.5,2.5,0,0,1,184.7,2.5Zm-10,0A2.5,2.5,0,0,1,177.2,0h0a2.5,2.5,0,0,1,2.5,2.5h0A2.5,2.5,0,0,1,177.2,5h0A2.5,2.5,0,0,1,174.7,2.5Zm-10,0A2.5,2.5,0,0,1,167.2,0h0a2.5,2.5,0,0,1,2.5,2.5h0A2.5,2.5,0,0,1,167.2,5h0A2.5,2.5,0,0,1,164.7,2.5Zm-10,0A2.5,2.5,0,0,1,157.2,0h0a2.5,2.5,0,0,1,2.5,2.5h0A2.5,2.5,0,0,1,157.2,5h0A2.5,2.5,0,0,1,154.7,2.5Zm-10,0A2.5,2.5,0,0,1,147.2,0h0a2.5,2.5,0,0,1,2.5,2.5h0A2.5,2.5,0,0,1,147.2,5h0A2.5,2.5,0,0,1,144.7,2.5Zm-10,0A2.5,2.5,0,0,1,137.2,0h0a2.5,2.5,0,0,1,2.5,2.5h0A2.5,2.5,0,0,1,137.2,5h0A2.5,2.5,0,0,1,134.7,2.5Zm-10,0A2.5,2.5,0,0,1,127.2,0h0a2.5,2.5,0,0,1,2.5,2.5h0A2.5,2.5,0,0,1,127.2,5h0A2.5,2.5,0,0,1,124.7,2.5Zm-10,0A2.5,2.5,0,0,1,117.2,0h0a2.5,2.5,0,0,1,2.5,2.5h0A2.5,2.5,0,0,1,117.2,5h0A2.5,2.5,0,0,1,114.7,2.5Zm-10,0A2.5,2.5,0,0,1,107.2,0h0a2.5,2.5,0,0,1,2.5,2.5h0A2.5,2.5,0,0,1,107.2,5h0A2.5,2.5,0,0,1,104.7,2.5Z"/><path class="cls-1" d="M417.7,25.1a2.5,2.5,0,0,1,2.5-2.5h0a2.5,2.5,0,0,1,2.5,2.5h0a2.5,2.5,0,0,1-2.5,2.5h0A2.5,2.5,0,0,1,417.7,25.1Zm-10,0a2.5,2.5,0,0,1,2.5-2.5h0a2.5,2.5,0,0,1,2.5,2.5h0a2.5,2.5,0,0,1-2.5,2.5h0A2.5,2.5,0,0,1,407.7,25.1Zm-10,0a2.5,2.5,0,0,1,2.5-2.5h0a2.5,2.5,0,0,1,2.5,2.5h0a2.5,2.5,0,0,1-2.5,2.5h0A2.5,2.5,0,0,1,397.7,25.1Zm-10,0a2.5,2.5,0,0,1,2.5-2.5h0a2.5,2.5,0,0,1,2.5,2.5h0a2.5,2.5,0,0,1-2.5,2.5h0A2.5,2.5,0,0,1,387.7,25.1Zm-10,0a2.5,2.5,0,0,1,2.5-2.5h0a2.5,2.5,0,0,1,2.5,2.5h0a2.5,2.5,0,0,1-2.5,2.5h0A2.5,2.5,0,0,1,377.7,25.1Zm-10,0a2.5,2.5,0,0,1,2.5-2.5h0a2.5,2.5,0,0,1,2.5,2.5h0a2.5,2.5,0,0,1-2.5,2.5h0A2.5,2.5,0,0,1,367.7,25.1Zm-10,0a2.5,2.5,0,0,1,2.5-2.5h0a2.5,2.5,0,0,1,2.5,2.5h0a2.5,2.5,0,0,1-2.5,2.5h0A2.5,2.5,0,0,1,357.7,25.1Zm-10,0a2.5,2.5,0,0,1,2.5-2.5h0a2.5,2.5,0,0,1,2.5,2.5h0a2.5,2.5,0,0,1-2.5,2.5h0A2.5,2.5,0,0,1,347.7,25.1Z"/><path class="cls-1" d="M434.3,77.3a2.5,2.5,0,0,1,2.5-2.5h0a2.5,2.5,0,0,1,2.5,2.5h0a2.5,2.5,0,0,1-2.5,2.5h0A2.5,2.5,0,0,1,434.3,77.3Zm-10,0a2.5,2.5,0,0,1,2.5-2.5h0a2.5,2.5,0,0,1,2.5,2.5h0a2.5,2.5,0,0,1-2.5,2.5h0A2.5,2.5,0,0,1,424.3,77.3Z"/><path class="cls-1" d="M462.8,148.2a2.5,2.5,0,0,1,2.5-2.5h0a2.5,2.5,0,0,1,2.5,2.5h0a2.6,2.6,0,0,1-2.5,2.5h0A2.5,2.5,0,0,1,462.8,148.2Zm-10,0a2.5,2.5,0,0,1,2.5-2.5h0a2.5,2.5,0,0,1,2.5,2.5h0a2.6,2.6,0,0,1-2.5,2.5h0A2.5,2.5,0,0,1,452.8,148.2Zm-10,0a2.5,2.5,0,0,1,2.5-2.5h0a2.5,2.5,0,0,1,2.5,2.5h0a2.6,2.6,0,0,1-2.5,2.5h0A2.5,2.5,0,0,1,442.8,148.2Zm-10,0a2.5,2.5,0,0,1,2.5-2.5h0a2.5,2.5,0,0,1,2.5,2.5h0a2.6,2.6,0,0,1-2.5,2.5h0A2.5,2.5,0,0,1,432.8,148.2Z"/><path class="cls-1" d="M50,189a2.5,2.5,0,0,1,2.5-2.5h0A2.5,2.5,0,0,1,55,189h0a2.5,2.5,0,0,1-2.5,2.5h0A2.5,2.5,0,0,1,50,189Zm-10,0a2.5,2.5,0,0,1,2.5-2.5h0A2.5,2.5,0,0,1,45,189h0a2.5,2.5,0,0,1-2.5,2.5h0A2.5,2.5,0,0,1,40,189Zm-10,0a2.5,2.5,0,0,1,2.5-2.5h0A2.5,2.5,0,0,1,35,189h0a2.5,2.5,0,0,1-2.5,2.5h0A2.5,2.5,0,0,1,30,189Zm-10,0a2.5,2.5,0,0,1,2.5-2.5h0A2.5,2.5,0,0,1,25,189h0a2.5,2.5,0,0,1-2.5,2.5h0A2.5,2.5,0,0,1,20,189Zm-10,0a2.5,2.5,0,0,1,2.5-2.5h0A2.5,2.5,0,0,1,15,189h0a2.5,2.5,0,0,1-2.5,2.5h0A2.5,2.5,0,0,1,10,189ZM0,189a2.5,2.5,0,0,1,2.5-2.5h0A2.5,2.5,0,0,1,5,189H5a2.5,2.5,0,0,1-2.5,2.5h0A2.5,2.5,0,0,1,0,189Z"/><path class="cls-1" d="M99.3,129.8a2.5,2.5,0,0,1,2.5-2.5h0a2.5,2.5,0,0,1,2.5,2.5h0a2.5,2.5,0,0,1-2.5,2.5h0A2.5,2.5,0,0,1,99.3,129.8Zm-10,0a2.5,2.5,0,0,1,2.5-2.5h0a2.5,2.5,0,0,1,2.5,2.5h0a2.5,2.5,0,0,1-2.5,2.5h0A2.5,2.5,0,0,1,89.3,129.8Zm-10,0a2.5,2.5,0,0,1,2.5-2.5h0a2.5,2.5,0,0,1,2.5,2.5h0a2.5,2.5,0,0,1-2.5,2.5h0A2.5,2.5,0,0,1,79.3,129.8Zm-10,0a2.5,2.5,0,0,1,2.5-2.5h0a2.5,2.5,0,0,1,2.5,2.5h0a2.5,2.5,0,0,1-2.5,2.5h0A2.5,2.5,0,0,1,69.3,129.8Z"/><path class="cls-1" d="M425.8,289.1a2.5,2.5,0,0,1,2.5-2.5h0a2.5,2.5,0,0,1,2.5,2.5h0a2.5,2.5,0,0,1-2.5,2.5h0A2.5,2.5,0,0,1,425.8,289.1Zm-10,0a2.5,2.5,0,0,1,2.5-2.5h0a2.5,2.5,0,0,1,2.5,2.5h0a2.5,2.5,0,0,1-2.5,2.5h0A2.5,2.5,0,0,1,415.8,289.1Z"/><path class="cls-1" d="M97.1,289.5a2.5,2.5,0,0,1,2.5-2.5h0a2.5,2.5,0,0,1,2.5,2.5h0a2.5,2.5,0,0,1-2.5,2.5h0A2.5,2.5,0,0,1,97.1,289.5Zm-10,0a2.5,2.5,0,0,1,2.5-2.5h0a2.5,2.5,0,0,1,2.5,2.5h0a2.5,2.5,0,0,1-2.5,2.5h0A2.5,2.5,0,0,1,87.1,289.5Zm-10,0a2.5,2.5,0,0,1,2.5-2.5h0a2.5,2.5,0,0,1,2.5,2.5h0a2.5,2.5,0,0,1-2.5,2.5h0A2.5,2.5,0,0,1,77.1,289.5Z"/></g></g></svg>