<svg xmlns="http://www.w3.org/2000/svg" viewBox="0 0 406.1 406.1"><defs><style>.cls-1{fill:#607D8B;}</style></defs><title>Asset 134</title><g id="Layer_2" data-name="Layer 2"><g id="Layer_1-2" data-name="Layer 1"><path class="cls-1" d="M303.6,235.8l-4.6-1.6.4-1.1.8-2.6.3-1.1c.1-.5.3-1,.4-1.4l.8-3.8c.2-.8.4-1.9.6-3a22.3,22.3,0,0,0,.4-2.3c.2-1.2.3-2.4.5-3.4a15,15,0,0,0,.2-2l.3-3.7a21.1,21.1,0,0,0,.2-2.6V203l4.8.2v4a26.6,26.6,0,0,1-.2,3l-.3,3.9a11.2,11.2,0,0,0-.2,2c-.2,1.1-.3,2.3-.5,3.5h0a18.5,18.5,0,0,0-.4,2.3,27.2,27.2,0,0,1-.7,3.3l-.8,3.7a15.4,15.4,0,0,1-.5,1.7l-.3,1.1-.8,2.8Z"/><path class="cls-1" d="M332.1,245l-4.6-1.5.5-1.3.5-1.7,1.1-3.9a6.4,6.4,0,0,1,.2-.7l-5.8-2.4-8.2-3.1.5-2.1a11.6,11.6,0,0,0,.5-2.1l.9-5c.2-1.1.3-2.3.5-3.3a8.8,8.8,0,0,1,.2-1.7c.1-1.2.2-2.1.2-2.1V212l8.8-.5,6.2-.5v-.8a9.1,9.1,0,0,0,.1-1.7V203l4.8.2v5.4a12.7,12.7,0,0,1-.1,2v1.3a4.4,4.4,0,0,1-1.4,3,3.8,3.8,0,0,1-2.7.9l-6.5.5-4.6.2c0,.2-.1.3-.1.4a10,10,0,0,1-.2,1.6c-.1,1.1-.3,2.3-.4,3.5l-1,5.1v.3l4.2,1.7,6.1,2.4a4.2,4.2,0,0,1,2.8,5h0a11,11,0,0,1-.4,1.5l-1.1,3.8c-.2.7-.4,1.4-.6,1.9Zm-2.2-9.6Z"/><path class="cls-1" d="M288.6,265.2l-3.9-2.8.7-1a4.2,4.2,0,0,1,.6-.8l1-1.4,2.2-3.5.2-.4,2.3-3.9.7-1.5.6-1c.8-1.6,1.5-3.2,2.1-4.5l1.2-2.7,1.5-3.7,1.2-3.8,4.6,1.6-1.3,3.9-2,5-.8,1.7c-.6,1.3-1.4,3-2.3,4.7a9.3,9.3,0,0,1-.5,1l-.9,1.7-2.2,3.9-.4.7-2.2,3.4-1.2,1.6a4.3,4.3,0,0,1-.4.7Z"/><path class="cls-1" d="M312.8,282.8l-3.9-2.8,2.5-3.5,2-3.1-4.7-4-6.8-5.5,2.2-3.7.4-.7.7-1.3,2.5-4.8,2.7-6.1,8.5,2.2,5.9,1.5.3-.7a3.6,3.6,0,0,1,.4-.9c.2-.5.4-1.2.7-1.8l1.3-4.1,4.6,1.5-1.4,4.1a10.2,10.2,0,0,1-.8,2.1l-.3.8-.5,1.3a4.2,4.2,0,0,1-2.3,2.4,3.9,3.9,0,0,1-2.8.1l-6.4-1.6-4.5-1.2-1.1,2.5-2.5,4.9a10.9,10.9,0,0,0-.8,1.5l-.4.6-.2.3,3.6,2.9,5,4.2a4,4,0,0,1,1.6,2.4,3.9,3.9,0,0,1-.6,3.3h0l-2.3,3.6Zm.9-9.8Z"/><path class="cls-1" d="M265.2,288.6l-2.8-3.9,1-.7,2.1-1.7c1.6-1.2,3-2.5,3-2.5l2-1.7,2.2-2,1.7-1.7a12.9,12.9,0,0,0,1.6-1.7l2.1-2.2,1.7-1.9c0-.1,1.3-1.5,2.5-3l1.7-2.2.7-1,3.9,2.8-.8,1.1-1.7,2.2-2.7,3.3-1.6,1.8-2.3,2.5-1.6,1.7h-.1l-1.8,1.6a25.5,25.5,0,0,1-2.4,2.3l-1.9,1.6c0,.1-1.6,1.4-3.2,2.7l-2.3,1.8Z"/><path class="cls-1" d="M282.8,312.8l-2.8-3.9,1.1-.8,1.4-1,.9-.7,2.3-1.8.6-.5-3.3-5.3-4.7-7.3,2-1.8.3-.3a2.7,2.7,0,0,0,.8-.7l3.7-3.5,3.5-3.7.8-.8.3-.4,1.8-2,7.3,4.7,5.3,3.3a1.5,1.5,0,0,0,.4-.6l1.9-2.3.7-.9,1-1.4.8-1.1,3.9,2.8-.8,1.1-1.2,1.6-2.5,3.2-.9,1.1a4.2,4.2,0,0,1-5.7.7l-5.5-3.4-3.9-2.5-.2.2-3.6,3.8-3.7,3.5-.2.3,2.4,3.8,3.5,5.6a4.1,4.1,0,0,1-.7,5.6h0l-1.1,1-2.4,1.8-.8.7-1.6,1.2Zm3.8-9Zm17.2-17.1Z"/><path class="cls-1" d="M235.8,303.6l-1.6-4.5,3.8-1.3,5.1-2.1,1.3-.6,4.4-2.1,1.1-.5,1.5-.8,3.9-2.2.4-.3h0l3.5-2.2,1.4-1,.8-.6,1-.7,2.8,3.9-1.1.7-.7.6-1.6,1.1-3.4,2.2-.8.4-3.8,2.2-1.7,1a3.1,3.1,0,0,0-1,.5l-4.7,2.2-2.9,1.3-3.9,1.5Z"/><path class="cls-1" d="M245,332.1l-1.5-4.5,4.1-1.4,1.8-.7.9-.4.7-.2c-.2-1-.8-3.5-1.5-6l-2.2-8.4,6.6-3.1,4.3-2.2,1.3-.7.7-.4,3.7-2.2,5.5,6.8,4,4.7,3.2-2,3.4-2.5,2.8,3.9-3.5,2.5-3.8,2.5a4,4,0,0,1-3.2.5,3.8,3.8,0,0,1-2.4-1.5c-.4-.6-2.3-2.8-4.2-5.1l-2.9-3.5-.9.5-1.5.8-5.4,2.8-2,.9,1.2,4.4c.7,2.9,1.4,5.7,1.6,6.4a3.9,3.9,0,0,1-.1,2.8,4.2,4.2,0,0,1-2.4,2.3l-1.3.5-.8.4-2.1.7Zm28-18.4Z"/><path class="cls-1" d="M203.1,308.8V304h4.1l2.6-.2,3.8-.3,2-.2,3.4-.5,2.3-.4,3-.5,3.7-.9,1.5-.4,1.1-.3,2.6-.8,1.1-.3,1.6,4.5-1.3.5-2.7.7-1.1.3-1.8.5-3.6.8-3.3.7-2.3.4h-.1l-3.5.5-2,.2h-.2l-3.8.3-2.9.2Z"/><path class="cls-1" d="M203.1,338.8V334l4.3-.2H211l.5-6.2.5-8.8h2.1l2.1-.2,1.7-.2,3.4-.5,4.9-.9,2.1-.4,2.1-.6,3.1,8.2,2.4,5.8.7-.2,3.9-1.1,1.7-.5,1.3-.4,1.5,4.5-1.3.4-1.9.6-3.9,1.1-1.4.4a4.2,4.2,0,0,1-5-2.8l-2.4-6-1.7-4.3h-.3l-5.1,1-3.6.4-1.5.2h-.4l-.2,4.6-.5,6.5a3.9,3.9,0,0,1-1,2.7,4.6,4.6,0,0,1-2.9,1.5h-8.8Zm32.3-8.9Z"/><path class="cls-1" d="M203,308.8h-4l-3-.2-3.9-.3-2-.2-3.5-.5h-.1l-2.3-.4a23.6,23.6,0,0,1-3.3-.7l-3.7-.8-1.8-.5-1-.3-2.8-.8-1.2-.4,1.5-4.5,1.2.3,2.6.8,1.1.3,1.4.4,3.8.8a19.8,19.8,0,0,0,3,.6l2.3.4,3.4.5,2,.2,3.7.3,2.6.2h4.1Z"/><path class="cls-1" d="M203,338.8h-8.7a4.8,4.8,0,0,1-3-1.5,3.8,3.8,0,0,1-.9-2.7l-.5-6.5-.3-4.6h-.3l-1.6-.2-3.5-.4-5.1-.9h-.3l-1.7,4.3-2.4,6a4.2,4.2,0,0,1-5,2.8h0l-1.5-.4-3.8-1.1-1.9-.5-1.4-.5,1.6-4.5,1.3.4,1.7.5,3.9,1.1.7.2,2.3-5.8,3.2-8.2,2,.6,2.2.4,5,.9,3.3.5,1.6.2,2.2.2h2.1l.5,8.8.4,6.2h3.8l4.2.2Zm-32.3-8.9Z"/><path class="cls-1" d="M170.4,303.6l-4-1.3-5-2.1-1.6-.7a50.2,50.2,0,0,1-4.7-2.3l-1-.5-1.7-.8-3.9-2.3-.7-.4-3.4-2.2-1.6-1.1-.7-.5-1.1-.8,2.8-3.9,1,.7.8.6,1.4,1,3.5,2.2.4.3,3.9,2.2,1.5.8,1,.5,4.4,2.1,2.7,1.2,3.8,1.5,3.7,1.3Z"/><path class="cls-1" d="M161.1,332.1l-4.1-1.4-2-.7-.8-.4-1.3-.5a4.2,4.2,0,0,1-2.4-2.3,3.9,3.9,0,0,1-.1-2.8c.2-.7.9-3.5,1.6-6.4l1.2-4.4-2.5-1.2-4.9-2.5-1.5-.8-.9-.5-2.9,3.5-4.3,5.1a3.6,3.6,0,0,1-2.3,1.5,4.3,4.3,0,0,1-3.3-.5h0l-3.6-2.4-3.6-2.6,2.8-3.9,3.5,2.5,3.1,2,3.9-4.7,5.5-6.8,3.8,2.2.7.4,1.3.8,4.8,2.4,6.1,2.8-2.3,8.4c-.6,2.5-1.2,5-1.4,6l.7.3a3.2,3.2,0,0,1,.9.3l1.8.7,4.1,1.4Z"/><path class="cls-1" d="M141,288.6l-1.1-.8-2.2-1.7-3.3-2.7-1.9-1.6-2.4-2.3-1.7-1.6h-.1l-1.6-1.7-2.3-2.4-1.7-2s-1.4-1.6-2.6-3.2l-1.8-2.3-.7-1,3.9-2.8.7,1,1.7,2.1a24.5,24.5,0,0,0,2.5,3l1.6,2,2.1,2.2c.6.6,1.1,1.2,1.7,1.7s1.1,1.1,1.7,1.7l2.2,2.1,1.9,1.6,3,2.5,2.2,1.7,1,.7Z"/><path class="cls-1" d="M123.4,312.8l-1.1-.7-1.6-1.2-.9-.7-2.3-1.9-1.2-.9a4.2,4.2,0,0,1-.6-5.6l3.4-5.6,2.5-3.8-.3-.3-3.7-3.6-3.5-3.7-.3-.2L110,287l-5.6,3.5a4.1,4.1,0,0,1-5.6-.7h0l-1-1.1-2.5-3.2-1.2-1.6-.8-1.1,4-2.8.7,1.1,1.1,1.4.7.9,1.8,2.3.5.6,5.3-3.3,7.3-4.7,1.8,2,.3.4.7.8,3.5,3.7,3.7,3.4a5.9,5.9,0,0,0,.8.8l.4.3,2,1.8-4.7,7.3-3.3,5.3.6.4,2.3,1.9.9.7,1.4,1,1.1.8Zm-3.9-9Zm-17.1-17.2Z"/><path class="cls-1" d="M117.6,265.2l-.8-1.1-.5-.7-1.1-1.6-2.2-3.4-.4-.7-2.3-3.9-.9-1.7a3.1,3.1,0,0,0-.5-1c-.9-1.7-1.6-3.4-2.2-4.7l-1.3-2.9-1.5-3.9-1.3-3.8,4.5-1.6,1.3,3.8,1.8,4.6.9,1.8a42.9,42.9,0,0,0,2.1,4.4l.5,1.1.8,1.5,2.2,3.9.3.4h0l2.2,3.4,1,1.4.6.8.7,1Z"/><path class="cls-1" d="M93.3,282.8l-2.5-3.5-2.4-3.7a4.8,4.8,0,0,1-.6-3.3,4.5,4.5,0,0,1,1.6-2.4c.6-.4,2.8-2.3,5-4.2l3.6-2.9v-.2a4.3,4.3,0,0,0-.4-.7l-.8-1.5-2.9-5.8L93,253l-4.4,1.2-6.4,1.6a3.9,3.9,0,0,1-2.8-.1,4.2,4.2,0,0,1-2.3-2.4l-.5-1.3a5.9,5.9,0,0,1-.4-.8c-.2-.6-.5-1.3-.7-2.1L74.1,245l4.5-1.5,1.4,4.1.7,1.8.3.9.3.7,6-1.5,8.4-2.2,2.9,6.3,2.3,4.6.8,1.3a2.5,2.5,0,0,0,.4.7l2.1,3.7-6.7,5.6-4.7,3.9,2,3.2,2.5,3.4Zm-.8-9.8Z"/><path class="cls-1" d="M102.6,235.8l-.5-1.3-.7-2.7-.3-1.1a15.4,15.4,0,0,1-.5-1.7l-.9-3.7-.6-3.3a22.3,22.3,0,0,0-.4-2.3h0c-.2-1.2-.3-2.4-.5-3.5a16.8,16.8,0,0,1-.2-2v-.2l-.2-3.8a23.3,23.3,0,0,1-.2-2.9v-4l4.8-.2v4.1a18.4,18.4,0,0,0,.2,2.6l.2,3.8.3,2c.1,1,.3,2.2.4,3.4s.3,1.5.5,2.3a20.8,20.8,0,0,0,.5,3l.9,3.7a8.3,8.3,0,0,0,.4,1.5l.3,1.1.7,2.6.4,1.1Z"/><path class="cls-1" d="M74.1,245l-.5-1.2a19.4,19.4,0,0,0-.5-2L72,237.9a8.3,8.3,0,0,1-.4-1.4,4.2,4.2,0,0,1,2.8-5l6-2.4,4.3-1.7a.4.4,0,0,0-.1-.3l-.9-5c-.2-1.3-.3-2.6-.5-3.7a7.7,7.7,0,0,0-.2-1.5v-.4l-4.6-.2-6.5-.5a3.8,3.8,0,0,1-2.7-.9,5.1,5.1,0,0,1-1.5-3v-3.3c0-.4-.1-.7-.1-1.1v-4.3l4.8-.2v4.4a3.7,3.7,0,0,1,.1,1.1V211l6.2.5,8.8.5v2.1a14.2,14.2,0,0,0,.2,2.1c.1.5.1,1.1.2,1.6s.3,2.3.5,3.5l.9,4.9c.2,1.3.4,2.1.4,2.1l.5,2.1-8.1,3.2-5.8,2.3a2.5,2.5,0,0,0,.2.7l1.1,3.9c.2.7.3,1.3.5,1.8l.4,1.2Zm2.2-9.6Z"/><path class="cls-1" d="M102.2,203.2l-4.8-.2v-4a26.6,26.6,0,0,1,.2-3l.3-3.9a16.8,16.8,0,0,1,.2-2c.2-1.1.3-2.3.5-3.5h0a22.3,22.3,0,0,0,.4-2.3,27.2,27.2,0,0,1,.7-3.3l.8-3.7a15.4,15.4,0,0,1,.5-1.7l.3-1.1.8-2.8.4-1.2,4.5,1.6-.4,1.1-.7,2.6-.3,1.1a10.3,10.3,0,0,0-.4,1.4l-.9,3.8a20.8,20.8,0,0,0-.5,3c-.2.8-.3,1.5-.5,2.3s-.3,2.4-.4,3.4l-.3,2-.2,3.7a21.1,21.1,0,0,0-.2,2.6Z"/><path class="cls-1" d="M72.2,203.2l-4.8-.2v-4.3c0-.4.1-.7.1-1.1v-3.3a5.1,5.1,0,0,1,1.5-3,3.8,3.8,0,0,1,2.7-.9l6.5-.5,4.6-.2v-.4a7.7,7.7,0,0,0,.2-1.5c.2-1.1.3-2.4.5-3.6l.9-5.1v-.3l-4.3-1.7-6-2.4a4.2,4.2,0,0,1-2.8-5h0a11,11,0,0,1,.4-1.5l1.1-3.9a16.7,16.7,0,0,0,.5-1.8l.5-1.3,4.5,1.5-.4,1.3a12.2,12.2,0,0,0-.5,1.7l-1.1,3.9a2.5,2.5,0,0,0-.2.7l5.8,2.4,8.1,3.1-.5,2.1-.5,2.1-.8,5c-.2,1.1-.4,2.3-.5,3.4s-.1,1.1-.2,1.6a14.2,14.2,0,0,0-.2,2.1v2.1l-8.8.5-6.2.5v2.5a4.9,4.9,0,0,1-.1,1.2Zm4.1-32.5h0Z"/><path class="cls-1" d="M107.1,172l-4.5-1.6,1.3-3.9,2-4.9.8-1.8c.6-1.3,1.3-3,2.2-4.7a3.1,3.1,0,0,0,.5-1l.9-1.7,2.3-3.9.4-.7,2.2-3.4,1.1-1.6.5-.7.8-1.1,3.9,2.8-.7,1-.6.8-1,1.4-2.2,3.5-.3.4-2.2,3.9-.8,1.5-.5,1c-.8,1.6-1.6,3.2-2.1,4.5l-1.2,2.6-1.5,3.8Z"/><path class="cls-1" d="M78.6,162.7l-4.5-1.6,1.4-4c.2-.8.5-1.5.7-2.1a4.1,4.1,0,0,0,.3-.8l.6-1.3a4.2,4.2,0,0,1,2.3-2.4,3.9,3.9,0,0,1,2.8-.1l6.3,1.6,4.5,1.2,1.3-2.8,2.4-4.6.8-1.5.4-.6v-.3l-3.6-2.9-5-4.3a3.9,3.9,0,0,1-1.6-2.3,4.8,4.8,0,0,1,.6-3.3h0l2.4-3.6,2.5-3.6,4,2.8-2.5,3.5-2,3.1,4.7,4,6.7,5.4-2.1,3.8a2.5,2.5,0,0,0-.4.7l-.8,1.3-2.8,5.6-2.4,5.3-8.4-2.2-6-1.5-.3.7-.3.9-.7,1.8Zm13.9-29.5Z"/><path class="cls-1" d="M121.5,143.8l-3.9-2.8.8-1.1,1.7-2.2c1.2-1.6,2.6-3.2,2.7-3.3l1.6-1.8,2.3-2.5,1.6-1.7h.1l1.7-1.6,2.4-2.3,2-1.6a20,20,0,0,1,3.2-2.7l2.3-1.8,1-.7,2.8,3.9-1,.7-2.1,1.7-3.1,2.5-1.9,1.7-2.2,2c-.6.6-1.2,1.1-1.7,1.7s-1.1,1.1-1.7,1.7l-2.1,2.2-1.6,1.9-2.5,3-1.7,2.2Z"/><path class="cls-1" d="M114.7,127.9l-7.3-4.7-5.3-3.3-.5.6-1.8,2.3-.7.9L98,125.1l-.7,1.1-4-2.8.8-1.1,1.2-1.6,2.5-3.2,1-1.1a4.1,4.1,0,0,1,5.6-.7l5.6,3.4,3.8,2.5.3-.3,3.6-3.7,3.7-3.5.2-.3-2.5-3.8-3.4-5.6a4.1,4.1,0,0,1,.7-5.6h0l1.1-1,2.3-1.8.9-.7,1.6-1.2,1.1-.7,2.8,3.9-1.1.8-1.4,1-.9.7-2.3,1.8-.6.5,3.3,5.3,4.7,7.3-2,1.8-.4.3-.8.7L121,121l-3.5,3.7-.7.8-.3.4Zm-12.3-8.4Zm17.1-17.1Z"/><path class="cls-1" d="M143.8,121.5l-2.8-3.9,1-.8.8-.5,1.6-1.1,3.4-2.2.7-.4,3.9-2.2a9.5,9.5,0,0,1,1.7-1l1-.5,4.7-2.2,2.9-1.3,3.9-1.5,3.8-1.3,1.5,4.5-3.7,1.3-6.4,2.7-4.4,2.1-1.1.5-1.6.8-3.8,2.2-.4.3h-.1l-3.4,2.2-1.4,1-.8.6Z"/><path class="cls-1" d="M142.2,104.2l-5.5-6.7-3.9-4.7-3.2,2-3.4,2.5-2.8-3.9,3.5-2.5,3.7-2.5a4.3,4.3,0,0,1,3.3-.5,3.6,3.6,0,0,1,2.3,1.5l4.3,5,2.9,3.6.9-.5,1.5-.8,5-2.6,2.4-1.1L152,88.6c-.7-2.9-1.4-5.7-1.6-6.4a3.9,3.9,0,0,1,.1-2.8,4.2,4.2,0,0,1,2.4-2.3l1.3-.5.8-.4,2-.7,4.1-1.4,1.6,4.5L158.6,80l-1.8.7-.9.4-.7.2c.2,1,.8,3.5,1.4,6l2.3,8.4-6.1,2.8L148,101l-1.3.7-.7.4Zm-9-11.7Z"/><path class="cls-1" d="M171.9,107.1l-1.5-4.5,1.3-.5,2.7-.7,1-.3,1.8-.5,3.7-.8a23.6,23.6,0,0,1,3.3-.7l2.3-.4h.1l3.5-.5,2-.2h.2l3.7-.3,3-.2h4v4.8h-4l-2.7.2-3.7.2-2,.3-3.4.5-2.3.4-3,.5-3.7.9-1.5.4-1.1.3-2.6.8Z"/><path class="cls-1" d="M175.8,90.4l-3.2-8.2-2.3-5.8-.7.2-3.9,1.1-1.8.5-1.2.4-1.6-4.5,1.3-.5,2-.5,3.8-1.1,1.5-.4a4.2,4.2,0,0,1,5,2.8l2.4,6,1.7,4.3h.2l5.1-.9,3.6-.4,1.6-.2h.3l.3-4.6.5-6.5a3.8,3.8,0,0,1,.9-2.7,4.8,4.8,0,0,1,3-1.5H203v4.8l-4.3.2h-3.7l-.4,6.2-.5,8.8h-2.1l-2.1.2-1.7.2-3.4.5-4.9.9-2.2.4Zm-5-14.1Z"/><path class="cls-1" d="M234.2,107.1l-1.9-.6-1.8-.5-1.1-.3-1.5-.4-3.7-.9-3-.5-2.3-.4-3.4-.5-2-.3-3.7-.2-2.7-.2H203V97.4h4.1l2.9.2,4,.3,2,.2,3.5.5h.1l2.3.4,3.3.7,3.7.8,1.7.5,1.1.3,2.8.8,1.2.4Z"/><path class="cls-1" d="M230.4,90.4l-2.1-.6-2.1-.4-5-.9-3.4-.5-1.6-.2-2.1-.2H212l-.5-8.8-.5-6.2h-8V67.4h8.8a4.6,4.6,0,0,1,2.9,1.5,3.9,3.9,0,0,1,1,2.7l.5,6.5.2,4.6h.4l1.5.2,3.6.4,5.1.9h.3l1.7-4.3,2.4-6a4.2,4.2,0,0,1,5-2.8h0l1.4.4,3.9,1.1,1.9.5,1.3.5-1.5,4.5-1.3-.4-1.7-.5-3.9-1.1-.7-.2-2.4,5.8Zm5-14.1Z"/><path class="cls-1" d="M262.4,121.5l-1.1-.7-.7-.6-1.5-1-3.5-2.2-.3-.3-3.9-2.2-1.5-.8-1.1-.5-4.4-2.1-2.7-1.2-3.7-1.5-3.8-1.3,1.6-4.5,3.9,1.3,4.6,1.8,2.1,1,4.7,2.3,1,.4,1.7.9,3.8,2.3.8.4,3.4,2.2,1.6,1.1.7.5,1.1.8Z"/><path class="cls-1" d="M263.9,104.2l-3.7-2.1-.7-.4-1.3-.8-5.4-2.7-5.5-2.5,2.2-8.4c.7-2.5,1.3-5,1.5-6l-.7-.3a3.2,3.2,0,0,1-.9-.3l-1.8-.7-4.1-1.4,1.5-4.5,4.1,1.4,2.1.7.8.4,1.3.5a4.2,4.2,0,0,1,2.4,2.3,3.9,3.9,0,0,1,.1,2.8l-1.6,6.3L253,93l2.5,1.2,4.9,2.5,1.5.8.9.5,2.9-3.5c1.9-2.3,3.8-4.5,4.2-5.1a3.8,3.8,0,0,1,2.4-1.5,4.3,4.3,0,0,1,3.3.5h0l3.6,2.4,3.6,2.6L280,97.3l-3.5-2.5-3.1-2-4,4.7ZM273,92.5Z"/><path class="cls-1" d="M284.7,143.8l-.7-1-1.7-2.1c-1.2-1.6-2.5-3-2.5-3.1l-1.7-1.9-2.1-2.2a12.9,12.9,0,0,0-1.6-1.7l-1.7-1.7-2.2-2.1-1.9-1.6-3-2.5-2.2-1.7-1-.7,2.8-3.9,1.1.8,2.2,1.7a27,27,0,0,1,3.2,2.7l1.9,1.6a25.5,25.5,0,0,1,2.4,2.3l1.8,1.6h.1l1.6,1.7,2.3,2.4,1.6,2c.1,0,1.4,1.6,2.7,3.2l1.8,2.3.7,1Z"/><path class="cls-1" d="M291.5,127.9l-1.8-2-.3-.4-.7-.8-3.6-3.7-3.6-3.4a3.2,3.2,0,0,0-.9-.8l-.3-.3-2-1.8,4.7-7.3,3.3-5.3-.6-.4-2.3-1.9-.9-.7-1.4-1-1.1-.8,2.8-3.9,1.1.7,1.6,1.2.8.7,2.4,1.9,1.1.9a4.1,4.1,0,0,1,.7,5.6l-3.4,5.6-2.5,3.8c0,.1.1.2.2.3l3.8,3.6,3.5,3.7.2.2,3.9-2.4,5.5-3.5a4.2,4.2,0,0,1,5.7.7h0l.9,1.1,2.5,3.2,1.2,1.6.8,1.1-3.9,2.8-.8-1.1a11,11,0,0,0-1.1-1.4l-.6-.9-1.9-2.3a1.5,1.5,0,0,0-.4-.6l-5.3,3.3Zm12.3-8.4h0Zm-17.1-17.1Z"/><path class="cls-1" d="M299,172l-1.2-3.8-1.9-4.7-.8-1.7c-.6-1.3-1.3-2.9-2.1-4.4l-.6-1.1a7.1,7.1,0,0,0-.8-1.5l-2.2-3.9-.2-.4h-.1L287,147l-1-1.4a4.2,4.2,0,0,1-.6-.8l-.7-1,3.9-2.8.7,1.1.6.7,1.1,1.6,2.2,3.4.4.7,2.2,3.9.9,1.7a9.3,9.3,0,0,1,.5,1c.9,1.7,1.7,3.4,2.3,4.7l1.3,2.9,1.5,3.9,1.3,3.8Z"/><path class="cls-1" d="M327.5,162.7l-1.3-4.1c-.3-.6-.5-1.3-.7-1.8a3.6,3.6,0,0,1-.4-.9l-.3-.7-6,1.5-8.4,2.2-2.7-6.1-2.5-4.8-.7-1.3-.4-.7-2.2-3.8,6.8-5.5,4.7-3.9-2-3.2-2.5-3.4,3.9-2.8,2.5,3.5,2.5,3.7a4.3,4.3,0,0,1,.5,3.3,3.5,3.5,0,0,1-1.6,2.3l-5,4.3-3.6,2.9.2.2a1.6,1.6,0,0,0,.4.7,10.9,10.9,0,0,0,.8,1.5l2.6,5,1,2.4,4.5-1.2,6.4-1.6a3.9,3.9,0,0,1,2.8.1,4.2,4.2,0,0,1,2.3,2.4l.5,1.3.3.8a10.2,10.2,0,0,1,.8,2.1l1.4,4Zm-13.8-29.5Z"/><path class="cls-1" d="M304,203.2v-4.1a18.4,18.4,0,0,0-.2-2.6l-.3-3.8a15,15,0,0,0-.2-2c-.2-1-.3-2.2-.5-3.4a22.3,22.3,0,0,0-.4-2.3c-.2-1.1-.4-2.2-.6-3l-.8-3.7c-.1-.5-.3-1-.4-1.5l-.3-1.1-.8-2.6L299,172l4.6-1.6.4,1.3.8,2.7.3,1.1a15.4,15.4,0,0,1,.5,1.7l.8,3.7a27.2,27.2,0,0,1,.7,3.3,18.5,18.5,0,0,0,.4,2.3h0c.2,1.2.3,2.4.5,3.5a11.2,11.2,0,0,0,.2,2v.2l.3,3.8a23.3,23.3,0,0,1,.2,2.9v4Z"/><path class="cls-1" d="M333.9,203.2v-5.5a9.1,9.1,0,0,0-.1-1.7v-.8l-6.3-.5-8.7-.5v-2.1s-.1-.9-.2-2.1a8.8,8.8,0,0,1-.2-1.7c-.2-1-.3-2.2-.5-3.4l-.9-4.9a11.6,11.6,0,0,0-.5-2.1l-.5-2.1,8.2-3.2,5.8-2.3a6.4,6.4,0,0,1-.2-.7l-1.1-3.9c-.2-.7-.4-1.3-.5-1.8l-.5-1.2,4.6-1.5.4,1.2.6,1.9,1.1,4a8.3,8.3,0,0,1,.4,1.4,4.2,4.2,0,0,1-2.8,5l-6,2.4-4.3,1.7v.3l.9,5c.2,1.3.4,2.5.5,3.6a10,10,0,0,1,.2,1.6c0,.1.1.2.1.4l4.6.2,6.5.5a3.8,3.8,0,0,1,2.7.9,4.4,4.4,0,0,1,1.4,3v1.3a12.7,12.7,0,0,1,.1,2V203Zm-4-32.4Z"/><path class="cls-1" d="M62.7,262.4h0a2.6,2.6,0,0,1,1.3-3.3h0a2.5,2.5,0,0,1,3.3,1.4h0a2.3,2.3,0,0,1-1.3,3.2h0a1.8,1.8,0,0,1-1,.2h0A2.4,2.4,0,0,1,62.7,262.4Zm-3.6-9.5h0a2.5,2.5,0,0,1,1.5-3.2h0a2.6,2.6,0,0,1,3.2,1.6h0a2.5,2.5,0,0,1-1.5,3.2h-.9A2.5,2.5,0,0,1,59.1,252.9Zm-3-9.7a2.5,2.5,0,0,1,1.7-3.1h0a2.6,2.6,0,0,1,3.1,1.8h0a2.5,2.5,0,0,1-1.8,3.1h-.6A2.5,2.5,0,0,1,56.1,243.2Zm-2.4-9.9a2.5,2.5,0,0,1,2-2.9h0a2.4,2.4,0,0,1,2.9,1.9h0a2.5,2.5,0,0,1-1.9,3h-.5A2.6,2.6,0,0,1,53.7,233.3Zm-1.6-10a2.4,2.4,0,0,1,2.1-2.8h0a2.5,2.5,0,0,1,2.8,2.1h0a2.4,2.4,0,0,1-2.1,2.8h-.4A2.5,2.5,0,0,1,52.1,223.3Zm-1-10.1a2.5,2.5,0,0,1,2.3-2.7h0a2.6,2.6,0,0,1,2.7,2.3h0a2.6,2.6,0,0,1-2.4,2.7h-.1A2.5,2.5,0,0,1,51.1,213.2ZM50.7,203a2.5,2.5,0,0,1,2.5-2.5h0a2.5,2.5,0,0,1,2.5,2.5h0a2.5,2.5,0,0,1-2.5,2.5h0A2.5,2.5,0,0,1,50.7,203Zm2.7-7.5a2.5,2.5,0,0,1-2.3-2.6h0a2.5,2.5,0,0,1,2.6-2.4h0a2.6,2.6,0,0,1,2.4,2.7h0a2.5,2.5,0,0,1-2.5,2.3h-.2Zm.8-10a2.4,2.4,0,0,1-2.1-2.8h0a2.5,2.5,0,0,1,2.8-2.1h0a2.4,2.4,0,0,1,2.1,2.8h.1a2.6,2.6,0,0,1-2.5,2.2h-.4Zm1.5-9.8a2.5,2.5,0,0,1-1.9-3h0a2.5,2.5,0,0,1,2.9-1.9h0a2.4,2.4,0,0,1,2,2.9h0a2.6,2.6,0,0,1-2.5,2h-.5Zm2.2-9.8a2.5,2.5,0,0,1-1.8-3.1h0a2.5,2.5,0,0,1,3.1-1.7h0a2.5,2.5,0,0,1,1.8,3h0a2.6,2.6,0,0,1-2.5,1.9h-.6Zm2.8-9.6a2.6,2.6,0,0,1-1.6-3.2h0a2.5,2.5,0,0,1,3.2-1.5h0a2.5,2.5,0,0,1,1.6,3.2h0a2.6,2.6,0,0,1-2.4,1.6h-.8Zm3.4-9.4a2.5,2.5,0,0,1-1.3-3.3h0a2.6,2.6,0,0,1,3.3-1.3h0a2.6,2.6,0,0,1,1.3,3.3h0a2.5,2.5,0,0,1-2.3,1.5h0Zm4.1-9.1a2.5,2.5,0,0,1-1.1-3.4h0a2.5,2.5,0,0,1,3.3-1.1h0a2.4,2.4,0,0,1,1.1,3.4h0a2.5,2.5,0,0,1-2.2,1.3h0Zm4.6-8.9a2.5,2.5,0,0,1-.8-3.4h0a2.5,2.5,0,0,1,3.4-.9h0a2.5,2.5,0,0,1,.9,3.4h0a2.6,2.6,0,0,1-2.2,1.3h0A2.2,2.2,0,0,1,72.8,128.9Zm5.3-8.5a2.6,2.6,0,0,1-.7-3.5h0a2.5,2.5,0,0,1,3.5-.6h0a2.6,2.6,0,0,1,.7,3.5h0a2.5,2.5,0,0,1-2.1,1h0A2.3,2.3,0,0,1,78.1,120.4Zm5.8-8.1a2.6,2.6,0,0,1-.4-3.6h0a2.6,2.6,0,0,1,3.5-.4h0a2.4,2.4,0,0,1,.4,3.5h0a2.3,2.3,0,0,1-2,1h0A2.7,2.7,0,0,1,83.9,112.3Zm6.3-7.8A2.5,2.5,0,0,1,90,101h0a2.6,2.6,0,0,1,3.6-.2h0a2.4,2.4,0,0,1,.1,3.5h0a2.1,2.1,0,0,1-1.8.9h0A2.8,2.8,0,0,1,90.2,104.5ZM97,97.2a2.5,2.5,0,0,1,.1-3.5h0a2.4,2.4,0,0,1,3.5,0h0a2.5,2.5,0,0,1,0,3.6h0a2.9,2.9,0,0,1-1.8.7h0A2.7,2.7,0,0,1,97,97.2Zm7.3-6.8a2.6,2.6,0,0,1,.3-3.6h0a2.7,2.7,0,0,1,3.6.3h0a2.7,2.7,0,0,1-.3,3.6h0a2.7,2.7,0,0,1-1.7.6h0A2.5,2.5,0,0,1,104.3,90.4Zm7.8-6.4a2.5,2.5,0,0,1,.5-3.5h0a2.5,2.5,0,0,1,3.5.6h0a2.5,2.5,0,0,1-.5,3.5h0a2.8,2.8,0,0,1-1.5.4h0A2.3,2.3,0,0,1,112.1,84Zm8.1-5.8a2.5,2.5,0,0,1,.8-3.4h0a2.4,2.4,0,0,1,3.4.7h0a2.6,2.6,0,0,1-.7,3.5h0a3.7,3.7,0,0,1-1.4.4h0A2.5,2.5,0,0,1,120.2,78.2Zm8.5-5.2a2.5,2.5,0,0,1,1-3.4h0a2.4,2.4,0,0,1,3.4,1h0a2.4,2.4,0,0,1-1,3.3h0a1.9,1.9,0,0,1-1.2.4h0A2.6,2.6,0,0,1,128.7,73Zm8.8-4.7a2.5,2.5,0,0,1,1.3-3.3h0a2.4,2.4,0,0,1,3.3,1.2h0a2.5,2.5,0,0,1-1.2,3.3h0a2.2,2.2,0,0,1-1.1.2h0A2.7,2.7,0,0,1,137.5,68.3Zm9.2-4.1a2.4,2.4,0,0,1,1.4-3.2h0a2.4,2.4,0,0,1,3.2,1.4h0a2.4,2.4,0,0,1-1.4,3.2h0a1.5,1.5,0,0,1-.9.2h0A2.5,2.5,0,0,1,146.7,64.2Zm109,1.2a2.5,2.5,0,0,1-1.5-3.2h0a2.7,2.7,0,0,1,3.3-1.5h0a2.5,2.5,0,0,1,1.4,3.3h0a2.5,2.5,0,0,1-2.3,1.6h0Zm-99.6-4.6a2.5,2.5,0,0,1,1.6-3.2h0a2.5,2.5,0,0,1,3.1,1.7h0a2.4,2.4,0,0,1-1.6,3.1h-.7A2.5,2.5,0,0,1,156.1,60.8Zm90.3,1.4h0a2.5,2.5,0,0,1-1.7-3.1h0a2.5,2.5,0,0,1,3.1-1.7h0a2.5,2.5,0,0,1,1.7,3.2h0a2.5,2.5,0,0,1-2.4,1.7h-.7Zm-80.7-4.3a2.5,2.5,0,0,1,1.8-3h0a2.5,2.5,0,0,1,3,1.9h0a2.5,2.5,0,0,1-1.8,3h-.6A2.5,2.5,0,0,1,165.7,57.9Zm71.2,1.7a2.5,2.5,0,0,1-1.9-3h0a2.5,2.5,0,0,1,3-1.8h0a2.5,2.5,0,0,1,1.9,3h0a2.6,2.6,0,0,1-2.4,1.9h-.6Zm-61.5-3.8a2.5,2.5,0,0,1,2.1-2.9h0a2.5,2.5,0,0,1,2.8,2h0a2.4,2.4,0,0,1-2,2.9h-.4A2.6,2.6,0,0,1,175.4,55.8Zm51.9,1.9h-.1a2.5,2.5,0,0,1-2-2.8h0a2.5,2.5,0,0,1,2.9-2.1h0a2.5,2.5,0,0,1,2,2.9h0a2.5,2.5,0,0,1-2.4,2.1h-.4Zm-42-3.4a2.6,2.6,0,0,1,2.2-2.8h0a2.6,2.6,0,0,1,2.8,2.3h0a2.5,2.5,0,0,1-2.3,2.7h-.2A2.4,2.4,0,0,1,185.3,54.3Zm32.2,2.2a2.5,2.5,0,0,1-2.2-2.8h0a2.3,2.3,0,0,1,2.7-2.2h0a2.3,2.3,0,0,1,2.2,2.7h0a2.5,2.5,0,0,1-2.5,2.3h-.2Zm-22.2-3.1a2.4,2.4,0,0,1,2.4-2.5h0a2.5,2.5,0,0,1,2.6,2.4h0a2.5,2.5,0,0,1-2.5,2.5h0A2.5,2.5,0,0,1,195.3,53.4Zm12.4,2.4a2.4,2.4,0,0,1-2.4-2.5h0a2.5,2.5,0,0,1,2.5-2.5h0a2.6,2.6,0,0,1,2.5,2.6h0a2.5,2.5,0,0,1-2.5,2.4h-.1Z"/><path class="cls-1" d="M198.3,355.4h0a2.6,2.6,0,0,1-2.4-2.6h0a2.5,2.5,0,0,1,2.6-2.4h0a2.4,2.4,0,0,1,2.4,2.6h0a2.5,2.5,0,0,1-2.5,2.4h-.1Zm10.2,0a2.6,2.6,0,0,1-2.6-2.5h0a2.5,2.5,0,0,1,2.4-2.5h0a2.4,2.4,0,0,1,2.6,2.4h0a2.5,2.5,0,0,1-2.4,2.6Zm-20.3-.7a2.5,2.5,0,0,1-2.3-2.7h0a2.5,2.5,0,0,1,2.8-2.2h0a2.3,2.3,0,0,1,2.2,2.7h0a2.4,2.4,0,0,1-2.5,2.2h-.2Zm27.7-2.3a2.5,2.5,0,0,1,2.2-2.7h0a2.6,2.6,0,0,1,2.8,2.2h0a2.6,2.6,0,0,1-2.3,2.8h-.2A2.5,2.5,0,0,1,215.9,352.4Zm-37.8,1a2.4,2.4,0,0,1-2-2.9h0a2.5,2.5,0,0,1,2.8-2h0a2.5,2.5,0,0,1,2.1,2.9h0a2.5,2.5,0,0,1-2.5,2h-.4Zm47.7-2.1a2.5,2.5,0,0,1,2.1-2.9h0a2.5,2.5,0,0,1,2.9,2h0a2.5,2.5,0,0,1-2.1,2.9h-.4A2.5,2.5,0,0,1,225.8,351.3Zm-57.7.1h0a2.5,2.5,0,0,1-1.8-3h0a2.4,2.4,0,0,1,3-1.8h0a2.5,2.5,0,0,1,1.9,3h0a2.6,2.6,0,0,1-2.5,1.9h-.6Zm67.6-2a2.4,2.4,0,0,1,1.8-3h0a2.5,2.5,0,0,1,3,1.9h0a2.6,2.6,0,0,1-1.8,3h-.6A2.4,2.4,0,0,1,235.7,349.4Zm-77.4-.6h0a2.5,2.5,0,0,1-1.6-3.2h0a2.5,2.5,0,0,1,3.1-1.6h0a2.5,2.5,0,0,1,1.7,3.1h0a2.6,2.6,0,0,1-2.4,1.8h-.8Zm87-1.9a2.5,2.5,0,0,1,1.7-3.1h0a2.5,2.5,0,0,1,3.1,1.6h0a2.5,2.5,0,0,1-1.6,3.2h-.8A2.6,2.6,0,0,1,245.3,346.9Zm-96.6-1.4h0a2.5,2.5,0,0,1-1.4-3.3h0a2.4,2.4,0,0,1,3.2-1.4h0a2.4,2.4,0,0,1,1.4,3.2h0a2.4,2.4,0,0,1-2.3,1.6h-.9Zm106.1-1.7a2.5,2.5,0,0,1,1.5-3.2h0a2.4,2.4,0,0,1,3.2,1.4h0a2.4,2.4,0,0,1-1.4,3.2h0l-.9.2h0A2.6,2.6,0,0,1,254.8,343.8Zm9.3-3.8a2.5,2.5,0,0,1,1.2-3.3h0a2.5,2.5,0,0,1,3.3,1.2h0a2.4,2.4,0,0,1-1.2,3.3h0a1.9,1.9,0,0,1-1,.3h0A2.5,2.5,0,0,1,264.1,340Zm9-4.3a2.4,2.4,0,0,1,1-3.4h0a2.5,2.5,0,0,1,3.4.9h0a2.6,2.6,0,0,1-1,3.4h0a2.7,2.7,0,0,1-1.2.3h0A2.4,2.4,0,0,1,273.1,335.7Zm8.7-5a2.6,2.6,0,0,1,.7-3.5h0a2.6,2.6,0,0,1,3.5.8h0a2.5,2.5,0,0,1-.8,3.4h0a2.2,2.2,0,0,1-1.3.4h0A2.4,2.4,0,0,1,281.8,330.7Zm8.3-5.6a2.4,2.4,0,0,1,.5-3.4h0a2.4,2.4,0,0,1,3.5.5h0a2.5,2.5,0,0,1-.5,3.5h0a3,3,0,0,1-1.5.5h0A2.4,2.4,0,0,1,290.1,325.1Zm7.9-6a2.6,2.6,0,0,1,.3-3.6h0a2.6,2.6,0,0,1,3.5.3h0a2.6,2.6,0,0,1-.2,3.6h0a2.7,2.7,0,0,1-1.7.6h0A2.5,2.5,0,0,1,298,319.1Zm7.6-6.6a2.5,2.5,0,0,1,0-3.6h0a2.5,2.5,0,0,1,3.5.1h0a2.4,2.4,0,0,1,0,3.5h0a2.4,2.4,0,0,1-1.8.7h0A2.2,2.2,0,0,1,305.6,312.5Zm7-7.1a2.5,2.5,0,0,1-.2-3.5h0a2.5,2.5,0,0,1,3.6-.2h0a2.4,2.4,0,0,1,.1,3.5h0a2.1,2.1,0,0,1-1.8.8h0A2.7,2.7,0,0,1,312.6,305.4Zm6.6-7.5a2.4,2.4,0,0,1-.4-3.5h0a2.5,2.5,0,0,1,3.5-.5h0a2.6,2.6,0,0,1,.4,3.6h0a2.5,2.5,0,0,1-2,.9h0A3,3,0,0,1,319.2,297.9Zm6.1-8a2.5,2.5,0,0,1-.7-3.5h0a2.5,2.5,0,0,1,3.5-.6h0a2.5,2.5,0,0,1,.6,3.5h0a2.3,2.3,0,0,1-2,1.1h0A2.4,2.4,0,0,1,325.3,289.9Zm5.5-8.3a2.5,2.5,0,0,1-.9-3.4h0a2.5,2.5,0,0,1,3.4-.9h0a2.5,2.5,0,0,1,.9,3.4h0a2.5,2.5,0,0,1-2.1,1.2h0A2.8,2.8,0,0,1,330.8,281.6Zm4.9-8.7a2.6,2.6,0,0,1-1.1-3.4h0a2.6,2.6,0,0,1,3.4-1.1h0a2.6,2.6,0,0,1,1.1,3.4h0a2.4,2.4,0,0,1-2.2,1.4h0A2.7,2.7,0,0,1,335.7,272.9Zm4.4-9a2.4,2.4,0,0,1-1.3-3.3h0a2.6,2.6,0,0,1,3.3-1.3h0a2.6,2.6,0,0,1,1.3,3.3h0a2.5,2.5,0,0,1-2.3,1.5h0Zm3.8-9.3a2.5,2.5,0,0,1-1.6-3.1h0a2.5,2.5,0,0,1,3.2-1.6h0a2.5,2.5,0,0,1,1.5,3.2h0a2.5,2.5,0,0,1-2.3,1.7h0Zm3.1-9.5a2.4,2.4,0,0,1-1.8-3h0a2.5,2.5,0,0,1,3.1-1.8h0a2.7,2.7,0,0,1,1.8,3.1h0a2.7,2.7,0,0,1-2.5,1.8H347Zm2.5-9.7a2.4,2.4,0,0,1-2-2.9h0a2.6,2.6,0,0,1,3-2h0a2.5,2.5,0,0,1,1.9,3h0a2.5,2.5,0,0,1-2.4,2h-.5Zm1.8-9.8a2.5,2.5,0,0,1-2.2-2.8h0a2.5,2.5,0,0,1,2.8-2.1h0a2.4,2.4,0,0,1,2.2,2.8h0a2.6,2.6,0,0,1-2.5,2.1h-.3Zm1.1-9.9a2.6,2.6,0,0,1-2.3-2.7h0a2.5,2.5,0,0,1,2.7-2.3h0a2.5,2.5,0,0,1,2.3,2.6h0a2.5,2.5,0,0,1-2.5,2.4h-.2Zm.5-10a2.5,2.5,0,0,1-2.5-2.5h0a2.5,2.5,0,0,1,2.5-2.5h0a2.5,2.5,0,0,1,2.5,2.5h0a2.5,2.5,0,0,1-2.5,2.5Zm-2.8-12.3a2.6,2.6,0,0,1,2.4-2.7h0a2.5,2.5,0,0,1,2.6,2.3h0a2.5,2.5,0,0,1-2.3,2.7h-.2A2.5,2.5,0,0,1,350.1,193.4Zm-.9-9.8a2.4,2.4,0,0,1,2.1-2.8h0a2.5,2.5,0,0,1,2.8,2.1h0a2.5,2.5,0,0,1-2.1,2.8h-.4A2.5,2.5,0,0,1,349.2,183.6Zm-1.7-9.7a2.6,2.6,0,0,1,2-3h0a2.4,2.4,0,0,1,2.9,2h0a2.4,2.4,0,0,1-1.9,2.9H350A2.6,2.6,0,0,1,347.5,173.9Zm-2.2-9.6h0a2.5,2.5,0,0,1,1.7-3.1h0a2.6,2.6,0,0,1,3.1,1.8h0a2.5,2.5,0,0,1-1.8,3.1h-.6A2.6,2.6,0,0,1,345.3,164.3Zm-2.9-9.4a2.5,2.5,0,0,1,1.5-3.2h0a2.6,2.6,0,0,1,3.2,1.6h0a2.5,2.5,0,0,1-1.5,3.2h-.9A2.3,2.3,0,0,1,342.4,154.9Zm-3.5-9.2h0a2.4,2.4,0,0,1,1.3-3.3h0a2.5,2.5,0,0,1,3.3,1.3h0a2.6,2.6,0,0,1-1.4,3.3h0l-.9.2h0A2.5,2.5,0,0,1,338.9,145.7Z"/><path class="cls-1" d="M207.6,389.4a2.6,2.6,0,0,1-2.6-2.5h0a2.5,2.5,0,0,1,2.4-2.5h0a2.4,2.4,0,0,1,2.6,2.4h0a2.6,2.6,0,0,1-2.4,2.6Zm-10.2-.1h0a2.4,2.4,0,0,1-2.4-2.5h0a2.4,2.4,0,0,1,2.6-2.4h0a2.4,2.4,0,0,1,2.4,2.5h0a2.5,2.5,0,0,1-2.5,2.4h-.1Zm17.6-2.7a2.5,2.5,0,0,1,2.3-2.7h0a2.5,2.5,0,0,1,2.7,2.3h0a2.5,2.5,0,0,1-2.3,2.7h-.2A2.5,2.5,0,0,1,215,386.6Zm-27.7,2.2a2.5,2.5,0,0,1-2.3-2.7h0a2.5,2.5,0,0,1,2.7-2.3h0a2.5,2.5,0,0,1,2.3,2.7h0a2.5,2.5,0,0,1-2.5,2.3h-.2Zm37.7-3.1a2.4,2.4,0,0,1,2.1-2.8h0a2.4,2.4,0,0,1,2.8,2.1h0a2.5,2.5,0,0,1-2.1,2.8h-.4A2.4,2.4,0,0,1,225,385.7Zm-47.8,2a2.6,2.6,0,0,1-2.1-2.9h0a2.5,2.5,0,0,1,2.8-2.1h0a2.6,2.6,0,0,1,2.2,2.8h0a2.6,2.6,0,0,1-2.5,2.2h-.4Zm57.6-3.5a2.6,2.6,0,0,1,2-2.9h0a2.5,2.5,0,0,1,3,2h0a2.6,2.6,0,0,1-2,2.9h-.5A2.7,2.7,0,0,1,234.8,384.2ZM167.2,386a2.5,2.5,0,0,1-1.9-2.9h0a2.4,2.4,0,0,1,2.9-2h0a2.5,2.5,0,0,1,2,2.9h0a2.6,2.6,0,0,1-2.5,2h-.5Zm77.4-3.8a2.5,2.5,0,0,1,1.9-3h0a2.5,2.5,0,0,1,3,1.8h0a2.6,2.6,0,0,1-1.8,3.1h-.6A2.5,2.5,0,0,1,244.6,382.2Zm-87.3,1.6h0a2.6,2.6,0,0,1-1.8-3.1h0a2.6,2.6,0,0,1,3.1-1.8h0a2.6,2.6,0,0,1,1.8,3.1h0a2.6,2.6,0,0,1-2.4,1.9h-.7Zm97-4.1a2.5,2.5,0,0,1,1.7-3.1h0a2.4,2.4,0,0,1,3.1,1.7h0a2.4,2.4,0,0,1-1.7,3.1h-.7A2.5,2.5,0,0,1,254.3,379.7ZM147.6,381a2.5,2.5,0,0,1-1.7-3.1h0a2.5,2.5,0,0,1,3.2-1.6h0a2.5,2.5,0,0,1,1.6,3.1h0a2.4,2.4,0,0,1-2.4,1.7h-.7Zm116.2-4.3a2.5,2.5,0,0,1,1.5-3.2h0a2.4,2.4,0,0,1,3.2,1.5h0a2.5,2.5,0,0,1-1.4,3.2h-.9A2.6,2.6,0,0,1,263.8,376.7Zm-125.8,1h0a2.4,2.4,0,0,1-1.5-3.2h0a2.5,2.5,0,0,1,3.2-1.4h0a2.4,2.4,0,0,1,1.5,3.2h0a2.5,2.5,0,0,1-2.3,1.6h0A1.5,1.5,0,0,1,138,377.7Zm135.2-4.6a2.5,2.5,0,0,1,1.3-3.3h0a2.6,2.6,0,0,1,3.3,1.3h0a2.6,2.6,0,0,1-1.3,3.3h0a1.8,1.8,0,0,1-1,.2h0A2.4,2.4,0,0,1,273.2,373.1Zm-144.6.8h0a2.4,2.4,0,0,1-1.3-3.2h0a2.5,2.5,0,0,1,3.3-1.3h0a2.5,2.5,0,0,1,1.3,3.3h0a2.5,2.5,0,0,1-2.3,1.5h0A1.9,1.9,0,0,1,128.6,373.9ZM282.3,369a2.4,2.4,0,0,1,1.2-3.3h0a2.5,2.5,0,0,1,3.3,1.1h0a2.6,2.6,0,0,1-1.1,3.4h0a2.3,2.3,0,0,1-1.1.2h0A2.5,2.5,0,0,1,282.3,369Zm-162.9.6a2.5,2.5,0,0,1-1.1-3.3h0a2.5,2.5,0,0,1,3.4-1.1h0a2.5,2.5,0,0,1,1.1,3.3h0a2.5,2.5,0,0,1-2.3,1.4h0Zm171.8-5.1a2.5,2.5,0,0,1,1-3.4h0a2.5,2.5,0,0,1,3.4.9h0a2.5,2.5,0,0,1-1,3.4h0a1.9,1.9,0,0,1-1.2.4h0A2.6,2.6,0,0,1,291.2,364.5Zm-180.7.3a2.5,2.5,0,0,1-.9-3.4h0a2.5,2.5,0,0,1,3.4-.9h0a2.5,2.5,0,0,1,.9,3.4h0a2.5,2.5,0,0,1-2.2,1.3h0A1.9,1.9,0,0,1,110.5,364.8Zm189.4-5.4a2.4,2.4,0,0,1,.7-3.4h0a2.6,2.6,0,0,1,3.5.8h0a2.5,2.5,0,0,1-.8,3.4h0a2.2,2.2,0,0,1-1.3.4h0A2.2,2.2,0,0,1,299.9,359.4Zm-198.1.2a2.6,2.6,0,0,1-.7-3.5h0a2.5,2.5,0,0,1,3.5-.7h0a2.4,2.4,0,0,1,.7,3.4h0a2.5,2.5,0,0,1-2.1,1.2h0A3.7,3.7,0,0,1,101.8,359.6ZM308.2,354a2.5,2.5,0,0,1,.6-3.5h0a2.5,2.5,0,0,1,3.5.5h0a2.5,2.5,0,0,1-.6,3.5h0a2.7,2.7,0,0,1-1.5.5h0A2.8,2.8,0,0,1,308.2,354Zm-214.7-.2a2.4,2.4,0,0,1-.5-3.5h0a2.4,2.4,0,0,1,3.4-.5h0a2.4,2.4,0,0,1,.6,3.5h0a2.8,2.8,0,0,1-2,1h0A2.7,2.7,0,0,1,93.5,353.8ZM316.3,348a2.5,2.5,0,0,1,.3-3.5h0a2.4,2.4,0,0,1,3.5.4h0a2.5,2.5,0,0,1-.3,3.5h0a2.4,2.4,0,0,1-1.6.5h0A2.3,2.3,0,0,1,316.3,348Zm-230.8-.4h0a2.4,2.4,0,0,1-.4-3.5h0a2.4,2.4,0,0,1,3.5-.3h0a2.4,2.4,0,0,1,.4,3.5h0a2.5,2.5,0,0,1-2,.9h0A2.2,2.2,0,0,1,85.5,347.6Zm238.5-6a2.4,2.4,0,0,1,.1-3.5h.1a2.5,2.5,0,0,1,3.5.2h0a2.5,2.5,0,0,1-.2,3.5h0a2.3,2.3,0,0,1-1.7.7h0A2.3,2.3,0,0,1,324,341.6ZM77.8,341a2.5,2.5,0,0,1-.2-3.5h0a2.6,2.6,0,0,1,3.6-.2h0a2.4,2.4,0,0,1,.1,3.5h0a2.3,2.3,0,0,1-1.8.9h0A2.3,2.3,0,0,1,77.8,341Zm253.5-6.1a2.5,2.5,0,0,1,0-3.6h0a2.4,2.4,0,0,1,3.5,0h0a2.5,2.5,0,0,1,0,3.6h0a2.6,2.6,0,0,1-1.7.7h0A2.9,2.9,0,0,1,331.3,334.9ZM70.5,334a2.4,2.4,0,0,1,0-3.5h0a2.4,2.4,0,0,1,3.5,0h0a2.4,2.4,0,0,1,0,3.5h0a2.3,2.3,0,0,1-1.7.7h0A2.4,2.4,0,0,1,70.5,334Zm-6.9-7.4h0a2.3,2.3,0,0,1,.2-3.5h0a2.4,2.4,0,0,1,3.5.2h0a2.5,2.5,0,0,1-.2,3.5h0a2.7,2.7,0,0,1-1.7.6h0A2.2,2.2,0,0,1,63.6,326.6ZM57,318.8h0a2.5,2.5,0,0,1,.5-3.5h0a2.5,2.5,0,0,1,3.5.4h0a2.6,2.6,0,0,1-.4,3.5h0a2.5,2.5,0,0,1-1.6.6h0A2.5,2.5,0,0,1,57,318.8Zm-6-8.1h0a2.5,2.5,0,0,1,.6-3.5h0a2.4,2.4,0,0,1,3.4.6h0a2.5,2.5,0,0,1-.5,3.5h0a3,3,0,0,1-1.5.5h0A2.4,2.4,0,0,1,51,310.7Zm-5.7-8.4a2.4,2.4,0,0,1,.8-3.4h0a2.6,2.6,0,0,1,3.5.7h0a2.6,2.6,0,0,1-.8,3.5h0a3.3,3.3,0,0,1-1.3.4h0A2.5,2.5,0,0,1,45.3,302.3Zm-5.1-8.7a2.5,2.5,0,0,1,.9-3.4h0a2.4,2.4,0,0,1,3.4,1h0a2.5,2.5,0,0,1-.9,3.4h0a2.7,2.7,0,0,1-1.2.3h0A2.5,2.5,0,0,1,40.2,293.6Zm-4.7-9h0a2.5,2.5,0,0,1,1.1-3.3h0a2.6,2.6,0,0,1,3.4,1.1h0a2.6,2.6,0,0,1-1.2,3.4h0l-1.1.2h0A2.4,2.4,0,0,1,35.5,284.6Z"/><path class="cls-1" d="M372.9,273.8a2.6,2.6,0,0,1-1.4-3.3h0a2.4,2.4,0,0,1,3.2-1.4h0a2.5,2.5,0,0,1,1.4,3.3h0a2.5,2.5,0,0,1-2.3,1.5h-.9Zm3.6-9.4a2.5,2.5,0,0,1-1.6-3.1h0a2.4,2.4,0,0,1,3.2-1.6h0a2.4,2.4,0,0,1,1.5,3.2h0a2.5,2.5,0,0,1-2.3,1.7h0Zm3-9.5a2.5,2.5,0,0,1-1.7-3.1h0a2.5,2.5,0,0,1,3.1-1.7h0a2.5,2.5,0,0,1,1.7,3.1h0a2.5,2.5,0,0,1-2.4,1.8h-.7Zm2.6-9.7a2.4,2.4,0,0,1-1.9-2.9h0a2.5,2.5,0,0,1,3-1.9h0a2.5,2.5,0,0,1,1.9,2.9h0a2.6,2.6,0,0,1-2.5,2h-.5Zm2-9.8a2.5,2.5,0,0,1-2.1-2.8h0a2.6,2.6,0,0,1,2.9-2.1h0a2.5,2.5,0,0,1,2.1,2.9h0a2.6,2.6,0,0,1-2.5,2.1h-.4Zm1.5-9.8a2.5,2.5,0,0,1-2.2-2.8h0a2.3,2.3,0,0,1,2.7-2.2h0a2.4,2.4,0,0,1,2.2,2.7h0a2.5,2.5,0,0,1-2.5,2.3h-.2Zm.9-10a2.5,2.5,0,0,1-2.3-2.6h0a2.4,2.4,0,0,1,2.6-2.4h0a2.5,2.5,0,0,1,2.3,2.6h0a2.4,2.4,0,0,1-2.4,2.4h-.2Zm-2.1-12.5a2.5,2.5,0,0,1,2.5-2.5h0a2.5,2.5,0,0,1,2.5,2.5h0a2.5,2.5,0,0,1-2.5,2.5h0A2.5,2.5,0,0,1,384.4,203.1Z"/><path class="cls-1" d="M325.7,69.5a2.5,2.5,0,0,1-.2-3.5h0a2.5,2.5,0,0,1,3.6-.2h0a2.4,2.4,0,0,1,.1,3.5h0a2.3,2.3,0,0,1-1.8.9h0A2.8,2.8,0,0,1,325.7,69.5ZM318.2,63a2.5,2.5,0,0,1-.3-3.5h0a2.4,2.4,0,0,1,3.5-.3h0a2.5,2.5,0,0,1,.4,3.5h0a2.5,2.5,0,0,1-2,.9h0A2.7,2.7,0,0,1,318.2,63Zm-7.7-6a2.6,2.6,0,0,1-.6-3.5h0a2.6,2.6,0,0,1,3.5-.6h0a2.6,2.6,0,0,1,.6,3.5h0a2.6,2.6,0,0,1-2.1,1.1h0A2.4,2.4,0,0,1,310.5,57Zm-8.1-5.7a2.5,2.5,0,0,1-.8-3.4h0a2.5,2.5,0,0,1,3.5-.7h0a2.4,2.4,0,0,1,.7,3.4h0a2.6,2.6,0,0,1-2.1,1.1h0A2.2,2.2,0,0,1,302.4,51.3ZM294,46.2h0a2.6,2.6,0,0,1-.9-3.5h0a2.5,2.5,0,0,1,3.4-.9h0a2.5,2.5,0,0,1,.9,3.4h0a2.6,2.6,0,0,1-2.2,1.3h0A2.7,2.7,0,0,1,294,46.2Zm-8.7-4.8a2.5,2.5,0,0,1-1.1-3.3h0a2.5,2.5,0,0,1,3.4-1.1h0a2.5,2.5,0,0,1,1.1,3.3h0a2.5,2.5,0,0,1-2.3,1.4h0Zm-8.9-4.2h0a2.5,2.5,0,0,1-1.3-3.3h0a2.6,2.6,0,0,1,3.3-1.3h0a2.5,2.5,0,0,1,1.3,3.3h0a2.4,2.4,0,0,1-2.3,1.5h0ZM129.2,34.7a2.6,2.6,0,0,1,1.4-3.3h0a2.5,2.5,0,0,1,3.2,1.3h0a2.4,2.4,0,0,1-1.3,3.3h0a1.6,1.6,0,0,1-1,.2h0A2.6,2.6,0,0,1,129.2,34.7Zm138.1-1.2a2.6,2.6,0,0,1-1.5-3.3h0a2.5,2.5,0,0,1,3.2-1.4h0a2.5,2.5,0,0,1,1.5,3.2h0a2.5,2.5,0,0,1-2.3,1.6h-.9ZM138.5,30.9a2.5,2.5,0,0,1,1.5-3.2h0a2.6,2.6,0,0,1,3.2,1.5h0a2.4,2.4,0,0,1-1.5,3.2h0l-.9.2h0A2.6,2.6,0,0,1,138.5,30.9ZM258,30.2a2.4,2.4,0,0,1-1.7-3.1h0a2.5,2.5,0,0,1,3.2-1.6h0a2.5,2.5,0,0,1,1.6,3.1h0a2.4,2.4,0,0,1-2.4,1.7H258ZM147.9,27.7a2.6,2.6,0,0,1,1.7-3.1h0a2.5,2.5,0,0,1,3.1,1.6h0a2.4,2.4,0,0,1-1.6,3.1h0l-.8.2h0A2.6,2.6,0,0,1,147.9,27.7Zm100.6-.2a2.4,2.4,0,0,1-1.8-3h0a2.4,2.4,0,0,1,3-1.8h0a2.4,2.4,0,0,1,1.8,3h0a2.6,2.6,0,0,1-2.4,1.9h-.6Zm-90.9-2.6a2.4,2.4,0,0,1,1.8-3h0a2.5,2.5,0,0,1,3,1.9h0a2.5,2.5,0,0,1-1.8,3H160A2.5,2.5,0,0,1,157.6,24.9Zm81.3.4h0a2.5,2.5,0,0,1-2-2.9h0a2.5,2.5,0,0,1,3-2h0a2.5,2.5,0,0,1,1.9,2.9h0a2.4,2.4,0,0,1-2.4,2h-.5Zm-71.6-2.6a2.6,2.6,0,0,1,2-2.9h0a2.5,2.5,0,0,1,2.9,2h0a2.4,2.4,0,0,1-2,2.9h-.4A2.6,2.6,0,0,1,167.3,22.7Zm61.8.9a2.5,2.5,0,0,1-2.1-2.8h0a2.5,2.5,0,0,1,2.9-2.1h0a2.5,2.5,0,0,1,2.1,2.8h0a2.6,2.6,0,0,1-2.5,2.2h-.4Zm-51.9-2.5a2.4,2.4,0,0,1,2.1-2.8h0a2.4,2.4,0,0,1,2.8,2.1h0a2.4,2.4,0,0,1-2.1,2.8h-.3A2.5,2.5,0,0,1,177.2,21.1Zm42.2,1.4a2.5,2.5,0,0,1-2.3-2.7h0a2.5,2.5,0,0,1,2.7-2.3h0a2.5,2.5,0,0,1,2.3,2.7h0a2.6,2.6,0,0,1-2.5,2.3h-.2Zm-32.3-2.6a2.5,2.5,0,0,1,2.3-2.6h0a2.5,2.5,0,0,1,2.7,2.3h0a2.5,2.5,0,0,1-2.3,2.7h-.2A2.5,2.5,0,0,1,187.1,19.9Zm22.4,2a2.5,2.5,0,0,1-2.4-2.6h0a2.4,2.4,0,0,1,2.6-2.4h0a2.5,2.5,0,0,1,2.4,2.6h0a2.6,2.6,0,0,1-2.5,2.4h-.1Zm-12.4-2.5a2.5,2.5,0,0,1,2.4-2.6h0a2.6,2.6,0,0,1,2.6,2.5h0a2.5,2.5,0,0,1-2.5,2.5h0A2.5,2.5,0,0,1,197.1,19.4Z"/><path class="cls-1" d="M16.8,203.1a2.5,2.5,0,0,1,2.5-2.5h0a2.5,2.5,0,0,1,2.5,2.5h0a2.5,2.5,0,0,1-2.5,2.5h0A2.5,2.5,0,0,1,16.8,203.1Zm2.6-7.5A2.5,2.5,0,0,1,17,193h0a2.6,2.6,0,0,1,2.7-2.4h0a2.5,2.5,0,0,1,2.3,2.6h0a2.5,2.5,0,0,1-2.5,2.4h-.1Zm.7-10a2.5,2.5,0,0,1-2.3-2.7h0a2.5,2.5,0,0,1,2.8-2.2h0a2.3,2.3,0,0,1,2.2,2.7h0a2.4,2.4,0,0,1-2.5,2.2h-.2Zm1.2-9.9a2.5,2.5,0,0,1-2.1-2.9h0a2.4,2.4,0,0,1,2.9-2h0a2.4,2.4,0,0,1,2,2.8h0a2.4,2.4,0,0,1-2.4,2.1h-.4Zm1.7-9.8a2.6,2.6,0,0,1-1.9-3h0a2.5,2.5,0,0,1,3-1.9h0a2.5,2.5,0,0,1,1.9,2.9h0a2.5,2.5,0,0,1-2.4,2H23Zm2.3-9.8a2.5,2.5,0,0,1-1.7-3.1h0a2.4,2.4,0,0,1,3-1.7h0a2.5,2.5,0,0,1,1.8,3.1h0a2.5,2.5,0,0,1-2.4,1.8h-.7Zm2.8-9.6a2.5,2.5,0,0,1-1.6-3.2h0a2.5,2.5,0,0,1,3.2-1.5h0a2.5,2.5,0,0,1,1.6,3.2h0a2.5,2.5,0,0,1-2.4,1.6h-.8Zm3.3-9.4a2.5,2.5,0,0,1-1.3-3.3h0a2.5,2.5,0,0,1,3.2-1.4h0a2.6,2.6,0,0,1,1.4,3.3h0a2.5,2.5,0,0,1-2.3,1.6h0Zm3.9-9.2a2.5,2.5,0,0,1-1.2-3.4h0a2.5,2.5,0,0,1,3.3-1.2h0a2.4,2.4,0,0,1,1.2,3.3h0a2.4,2.4,0,0,1-2.3,1.5h0Zm4.3-9a2.6,2.6,0,0,1-1-3.4h0a2.5,2.5,0,0,1,3.4-1.1h0a2.5,2.5,0,0,1,1,3.4h0a2.3,2.3,0,0,1-2.2,1.3h0Zm4.9-8.8a2.5,2.5,0,0,1-.9-3.4h0a2.6,2.6,0,0,1,3.5-.9h0a2.7,2.7,0,0,1,.8,3.5h0a2.7,2.7,0,0,1-2.1,1.2h0A2.8,2.8,0,0,1,44.5,110.1Zm5.3-8.5a2.5,2.5,0,0,1-.7-3.5h0a2.5,2.5,0,0,1,3.5-.6h0a2.5,2.5,0,0,1,.6,3.5h0a2.2,2.2,0,0,1-2,1h0A2.3,2.3,0,0,1,49.8,101.6Zm5.7-8.2a2.4,2.4,0,0,1-.4-3.5h0a2.4,2.4,0,0,1,3.5-.4h0A2.4,2.4,0,0,1,59,93h0a2.5,2.5,0,0,1-2,.9h0A2.3,2.3,0,0,1,55.5,93.4Zm6.2-7.8a2.5,2.5,0,0,1-.3-3.5h0a2.5,2.5,0,0,1,3.6-.3h0a2.5,2.5,0,0,1,.2,3.5h0a2.5,2.5,0,0,1-1.9.9h0A2.7,2.7,0,0,1,61.7,85.6Zm6.6-7.5a2.6,2.6,0,0,1-.1-3.6h0a2.6,2.6,0,0,1,3.6-.1h0a2.5,2.5,0,0,1,0,3.6h0a2.3,2.3,0,0,1-1.8.8h0A2.8,2.8,0,0,1,68.3,78.1Z"/><path class="cls-1" d="M59.5,346.7a2.4,2.4,0,0,1,0-3.5h0a2.4,2.4,0,0,1,3.5,0h0a2.4,2.4,0,0,1,0,3.5h0a2.5,2.5,0,0,1-1.8.8h0A2.5,2.5,0,0,1,59.5,346.7Zm-7-7.3a2.4,2.4,0,0,1,.2-3.5h0a2.4,2.4,0,0,1,3.5.1h0a2.5,2.5,0,0,1-.2,3.6h0a2.5,2.5,0,0,1-1.6.6h0A2.7,2.7,0,0,1,52.5,339.4Zm-6.6-7.7h0a2.5,2.5,0,0,1,.3-3.5h0a2.6,2.6,0,0,1,3.6.3h0a2.6,2.6,0,0,1-.4,3.6h0a3,3,0,0,1-1.6.5h0A2.5,2.5,0,0,1,45.9,331.7Zm-6.2-8h0a2.5,2.5,0,0,1,.5-3.5h0a2.5,2.5,0,0,1,3.5.6h0a2.4,2.4,0,0,1-.5,3.4h0a2.3,2.3,0,0,1-1.5.5h0A2.3,2.3,0,0,1,39.7,323.7Zm-5.8-8.3a2.4,2.4,0,0,1,.7-3.4h0a2.4,2.4,0,0,1,3.4.7h0a2.4,2.4,0,0,1-.7,3.4h0a2.4,2.4,0,0,1-1.4.5h0A2.2,2.2,0,0,1,33.9,315.4Zm-5.4-8.5a2.6,2.6,0,0,1,.8-3.5h0a2.6,2.6,0,0,1,3.5.9h0a2.5,2.5,0,0,1-.9,3.4h0a2.2,2.2,0,0,1-1.3.4h0A2.4,2.4,0,0,1,28.5,306.9Zm-5-8.9h0a2.4,2.4,0,0,1,1-3.3h0a2.4,2.4,0,0,1,3.4,1h0a2.5,2.5,0,0,1-1,3.4h0a2.7,2.7,0,0,1-1.2.3h0A2.5,2.5,0,0,1,23.5,298ZM19,289a2.4,2.4,0,0,1,1.2-3.3h0a2.4,2.4,0,0,1,3.3,1.2h0a2.4,2.4,0,0,1-1.2,3.3h0a1.8,1.8,0,0,1-1,.2h0A2.4,2.4,0,0,1,19,289Zm-4.1-9.3h0a2.4,2.4,0,0,1,1.4-3.2h0a2.5,2.5,0,0,1,3.3,1.3h0a2.5,2.5,0,0,1-1.4,3.3h0l-.9.2h0A2.6,2.6,0,0,1,14.9,279.7Zm-3.6-9.5a2.5,2.5,0,0,1,1.6-3.1h0a2.5,2.5,0,0,1,3.2,1.5h0a2.6,2.6,0,0,1-1.6,3.2h-.8A2.5,2.5,0,0,1,11.3,270.2Zm-3.1-9.6a2.6,2.6,0,0,1,1.7-3.1h0a2.4,2.4,0,0,1,3.1,1.7h0a2.4,2.4,0,0,1-1.7,3.1h-.7A2.6,2.6,0,0,1,8.2,260.6Zm-2.6-9.8a2.5,2.5,0,0,1,1.9-3h0a2.5,2.5,0,0,1,3,1.9h0a2.5,2.5,0,0,1-1.9,3H8.1A2.5,2.5,0,0,1,5.6,250.8Zm-2.1-9.9a2.5,2.5,0,0,1,2-2.9h0a2.4,2.4,0,0,1,2.9,2h0a2.4,2.4,0,0,1-2,2.9H6A2.6,2.6,0,0,1,3.5,240.9Zm-1.6-10h0A2.5,2.5,0,0,1,4,228.1H4a2.5,2.5,0,0,1,2.8,2.2h0a2.5,2.5,0,0,1-2.1,2.8H4.4A2.5,2.5,0,0,1,1.9,230.9Zm-1.1-10h0A2.4,2.4,0,0,1,3,218.2H3a2.4,2.4,0,0,1,2.7,2.2h0a2.4,2.4,0,0,1-2.2,2.7H3.2A2.5,2.5,0,0,1,.8,220.9ZM.1,210.8a2.5,2.5,0,0,1,2.4-2.6h0a2.4,2.4,0,0,1,2.6,2.4h0a2.5,2.5,0,0,1-2.4,2.6H2.6A2.6,2.6,0,0,1,.1,210.8Zm2.4-7.6A2.6,2.6,0,0,1,0,200.6H0a2.5,2.5,0,0,1,2.5-2.4h0A2.5,2.5,0,0,1,5,200.7H5a2.5,2.5,0,0,1-2.5,2.5Zm.2-10a2.5,2.5,0,0,1-2.3-2.7h0A2.5,2.5,0,0,1,3,188.2H3a2.6,2.6,0,0,1,2.4,2.6h0a2.5,2.5,0,0,1-2.5,2.4H2.7Zm.7-10a2.6,2.6,0,0,1-2.2-2.8h0A2.6,2.6,0,0,1,4,178.2H4A2.5,2.5,0,0,1,6.2,181h0a2.4,2.4,0,0,1-2.5,2.2H3.4Zm1.3-9.9a2.5,2.5,0,0,1-2.1-2.9h0a2.6,2.6,0,0,1,2.9-2.1h0a2.5,2.5,0,0,1,2,2.9h0a2.5,2.5,0,0,1-2.4,2.1H4.7Zm1.7-9.9a2.4,2.4,0,0,1-1.9-2.9h0a2.5,2.5,0,0,1,2.9-2h0a2.6,2.6,0,0,1,2,3h0a2.6,2.6,0,0,1-2.5,2H6.4Zm2.2-9.7a2.6,2.6,0,0,1-1.8-3.1h0a2.7,2.7,0,0,1,3.1-1.8h0a2.7,2.7,0,0,1,1.8,3.1h0a2.6,2.6,0,0,1-2.4,1.9H8.6Zm2.7-9.6a2.6,2.6,0,0,1-1.6-3.2h0a2.5,2.5,0,0,1,3.1-1.6h0a2.4,2.4,0,0,1,1.6,3.1h0a2.4,2.4,0,0,1-2.3,1.8h-.8Zm3.2-9.5a2.6,2.6,0,0,1-1.5-3.3h0a2.6,2.6,0,0,1,3.3-1.4h0a2.5,2.5,0,0,1,1.4,3.2h0a2.5,2.5,0,0,1-2.3,1.6h-.9Z"/><path class="cls-1" d="M208.2,403.7a2.4,2.4,0,0,1,2.4-2.6h0a2.5,2.5,0,0,1,2.6,2.4h0a2.7,2.7,0,0,1-2.4,2.6h-.1A2.5,2.5,0,0,1,208.2,403.7Zm10-.5a2.4,2.4,0,0,1,2.2-2.7h0a2.4,2.4,0,0,1,2.7,2.2h0a2.4,2.4,0,0,1-2.2,2.7h-.3A2.4,2.4,0,0,1,218.2,403.2Zm9.9-1a2.4,2.4,0,0,1,2.1-2.8h0a2.5,2.5,0,0,1,2.9,2.1h0a2.6,2.6,0,0,1-2.2,2.8h-.3A2.5,2.5,0,0,1,228.1,402.2Zm9.9-1.5a2.4,2.4,0,0,1,2-2.9h0a2.4,2.4,0,0,1,2.9,2h0a2.5,2.5,0,0,1-2,2.9h-.4A2.5,2.5,0,0,1,238,400.7Zm9.8-2a2.5,2.5,0,0,1,1.8-3h0a2.6,2.6,0,0,1,3.1,1.8h0a2.6,2.6,0,0,1-1.9,3.1h-.6A2.4,2.4,0,0,1,247.8,398.7Zm9.7-2.4a2.6,2.6,0,0,1,1.7-3.2h0a2.6,2.6,0,0,1,3.1,1.7h0a2.4,2.4,0,0,1-1.7,3.1h0l-.7.2h0A2.6,2.6,0,0,1,257.5,396.3Zm9.5-3a2.6,2.6,0,0,1,1.6-3.2h0a2.6,2.6,0,0,1,3.2,1.6h0a2.5,2.5,0,0,1-1.6,3.1h0l-.8.2h0A2.7,2.7,0,0,1,267,393.3Zm9.4-3.4a2.5,2.5,0,0,1,1.4-3.3h0a2.6,2.6,0,0,1,3.3,1.4h0a2.6,2.6,0,0,1-1.4,3.3h-.9A2.5,2.5,0,0,1,276.4,389.9Zm9.3-3.9a2.4,2.4,0,0,1,1.2-3.3h0a2.4,2.4,0,0,1,3.3,1.2h0a2.5,2.5,0,0,1-1.2,3.3h0a2.2,2.2,0,0,1-1.1.2h0A2.4,2.4,0,0,1,285.7,386Zm9-4.3a2.4,2.4,0,0,1,1-3.4h0a2.5,2.5,0,0,1,3.4,1h0a2.5,2.5,0,0,1-1.1,3.4h0a2,2,0,0,1-1.1.3h0A2.5,2.5,0,0,1,294.7,381.7Zm8.7-4.8a2.6,2.6,0,0,1,.9-3.5h0a2.5,2.5,0,0,1,3.4.9h0a2.5,2.5,0,0,1-.8,3.4h0a2.2,2.2,0,0,1-1.3.4h0A2.7,2.7,0,0,1,303.4,376.9Zm8.6-5.3a2.4,2.4,0,0,1,.7-3.4h0a2.4,2.4,0,0,1,3.4.7h0a2.4,2.4,0,0,1-.7,3.4h0a2.4,2.4,0,0,1-1.4.5h0A2.2,2.2,0,0,1,312,371.6Zm8.2-5.6a2.5,2.5,0,0,1,.5-3.5h0a2.5,2.5,0,0,1,3.5.5h0a2.4,2.4,0,0,1-.5,3.5h0a2.7,2.7,0,0,1-1.5.5h0A2.5,2.5,0,0,1,320.2,366Zm8-6a2.6,2.6,0,0,1,.3-3.6h0a2.6,2.6,0,0,1,3.6.4h0a2.5,2.5,0,0,1-.4,3.5h0a2.5,2.5,0,0,1-1.6.6h0A2.5,2.5,0,0,1,328.2,360Zm7.6-6.5a2.5,2.5,0,0,1,.2-3.5h0a2.4,2.4,0,0,1,3.5.2h0a2.4,2.4,0,0,1-.1,3.5h0a2.7,2.7,0,0,1-1.7.6h0A2.4,2.4,0,0,1,335.8,353.5Zm7.4-6.8a2.4,2.4,0,0,1,0-3.5h0a2.4,2.4,0,0,1,3.5,0h0a2.4,2.4,0,0,1,0,3.5h0a2.5,2.5,0,0,1-1.8.8h0A2.5,2.5,0,0,1,343.2,346.7Z"/><path class="cls-1" d="M401.1,195.6a2.5,2.5,0,0,1,2.4-2.6h0a2.5,2.5,0,0,1,2.5,2.4h.1a2.6,2.6,0,0,1-2.5,2.6h0A2.4,2.4,0,0,1,401.1,195.6Zm-.7-9.8a2.5,2.5,0,0,1,2.3-2.7h0a2.4,2.4,0,0,1,2.7,2.2h0a2.5,2.5,0,0,1-2.2,2.7h-.3A2.5,2.5,0,0,1,400.4,185.8Zm-1.1-9.9h0a2.6,2.6,0,0,1,2.2-2.8h0a2.5,2.5,0,0,1,2.8,2.2h0a2.5,2.5,0,0,1-2.1,2.8h-.4A2.6,2.6,0,0,1,399.3,175.9Zm-1.5-9.7a2.4,2.4,0,0,1,2-2.9h0a2.5,2.5,0,0,1,2.9,2h0a2.6,2.6,0,0,1-2,2.9h-.5A2.4,2.4,0,0,1,397.8,166.2Zm-2.1-9.7a2.6,2.6,0,0,1,1.8-3h0a2.6,2.6,0,0,1,3.1,1.9h0a2.6,2.6,0,0,1-1.9,3h-.6A2.5,2.5,0,0,1,395.7,156.5Zm-2.6-9.5h0a2.5,2.5,0,0,1,1.7-3.1h0a2.5,2.5,0,0,1,3.1,1.7h0a2.4,2.4,0,0,1-1.7,3.1h-.7A2.6,2.6,0,0,1,393.1,147Zm-3-9.4a2.6,2.6,0,0,1,1.5-3.2h0a2.6,2.6,0,0,1,3.2,1.6h0a2.3,2.3,0,0,1-1.5,3.1h0l-.8.2h0A2.6,2.6,0,0,1,390.1,137.6Zm-3.5-9.2a2.5,2.5,0,0,1,1.4-3.3h0a2.4,2.4,0,0,1,3.2,1.4h0a2.5,2.5,0,0,1-1.3,3.3h-1A2.5,2.5,0,0,1,386.6,128.4Zm-3.9-9.1a2.4,2.4,0,0,1,1.2-3.3h0a2.5,2.5,0,0,1,3.3,1.2h0a2.5,2.5,0,0,1-1.2,3.3h0a2.3,2.3,0,0,1-1.1.3h0A2.5,2.5,0,0,1,382.7,119.3Zm-4.4-8.8h0a2.5,2.5,0,0,1,1-3.4h0a2.5,2.5,0,0,1,3.4,1.1h0a2.4,2.4,0,0,1-1.1,3.3h0a2,2,0,0,1-1.1.3h0A2.5,2.5,0,0,1,378.3,110.5Zm-4.9-8.6a2.5,2.5,0,0,1,.9-3.4h0a2.4,2.4,0,0,1,3.4.8h0a2.6,2.6,0,0,1-.9,3.5h0l-1.2.3h0A2.5,2.5,0,0,1,373.4,101.9Zm-5.2-8.4h0a2.4,2.4,0,0,1,.7-3.4h0a2.4,2.4,0,0,1,3.4.7h0a2.4,2.4,0,0,1-.7,3.4h0a2.3,2.3,0,0,1-1.4.4h0A2.1,2.1,0,0,1,368.2,93.5Zm-5.7-8A2.5,2.5,0,0,1,363,82h0a2.4,2.4,0,0,1,3.5.5h0A2.5,2.5,0,0,1,366,86h0a3,3,0,0,1-1.5.5h0A2.6,2.6,0,0,1,362.5,85.5Zm-6.1-7.8h0a2.6,2.6,0,0,1,.4-3.6h0a2.5,2.5,0,0,1,3.5.4h0a2.4,2.4,0,0,1-.4,3.5h0a2.2,2.2,0,0,1-1.5.6h0A2.5,2.5,0,0,1,356.4,77.7ZM350,70.2a2.5,2.5,0,0,1,.2-3.6h0a2.5,2.5,0,0,1,3.5.2h0a2.6,2.6,0,0,1-.2,3.6h0a2.7,2.7,0,0,1-1.7.6h0A2.5,2.5,0,0,1,350,70.2ZM343.2,63a2.4,2.4,0,0,1,0-3.5h0a2.4,2.4,0,0,1,3.5,0h0a2.4,2.4,0,0,1,0,3.5h0a2.5,2.5,0,0,1-1.8.8h0A2.5,2.5,0,0,1,343.2,63Z"/><path class="cls-1" d="M122.7,19.2A2.5,2.5,0,0,1,124,16h0a2.4,2.4,0,0,1,3.3,1.3h0a2.5,2.5,0,0,1-1.3,3.3h0l-1,.2h0A2.5,2.5,0,0,1,122.7,19.2Zm157.1,1.2a2.6,2.6,0,0,1-1.3-3.3h0a2.6,2.6,0,0,1,3.3-1.3h0a2.4,2.4,0,0,1,1.3,3.3h0a2.5,2.5,0,0,1-2.3,1.5h0A2,2,0,0,1,279.8,20.4ZM132,15.5a2.4,2.4,0,0,1,1.5-3.2h0a2.4,2.4,0,0,1,3.2,1.4h0a2.7,2.7,0,0,1-1.5,3.3h-.9A2.4,2.4,0,0,1,132,15.5Zm138.6,1.3a2.5,2.5,0,0,1-1.4-3.2h0a2.4,2.4,0,0,1,3.2-1.5h0a2.4,2.4,0,0,1,1.4,3.2h0a2.5,2.5,0,0,1-2.3,1.7h0ZM141.4,12.2A2.5,2.5,0,0,1,143,9h0a2.6,2.6,0,0,1,3.2,1.7h0a2.5,2.5,0,0,1-1.7,3.1h-.7A2.5,2.5,0,0,1,141.4,12.2Zm119.9,1.5a2.5,2.5,0,0,1-1.7-3.1h0a2.5,2.5,0,0,1,3.2-1.7h0a2.5,2.5,0,0,1,1.6,3.1h0a2.5,2.5,0,0,1-2.4,1.8h-.7ZM151,9.3a2.4,2.4,0,0,1,1.8-3h0a2.4,2.4,0,0,1,3,1.8h0a2.4,2.4,0,0,1-1.8,3h-.6A2.4,2.4,0,0,1,151,9.3ZM251.8,11A2.4,2.4,0,0,1,250,8h0a2.4,2.4,0,0,1,3-1.8h0a2.4,2.4,0,0,1,1.8,3h0a2.4,2.4,0,0,1-2.4,1.9h-.6ZM160.7,7a2.5,2.5,0,0,1,2-3h0a2.5,2.5,0,0,1,2.9,2h0a2.4,2.4,0,0,1-1.9,2.9h-.5A2.5,2.5,0,0,1,160.7,7Zm81.4,1.9a2.5,2.5,0,0,1-1.9-3h0a2.6,2.6,0,0,1,2.9-2h0a2.4,2.4,0,0,1,2,2.9h0a2.5,2.5,0,0,1-2.5,2h-.5ZM170.5,5.1a2.5,2.5,0,0,1,2.1-2.8h0a2.5,2.5,0,0,1,2.9,2.1h0a2.5,2.5,0,0,1-2.1,2.8H173A2.5,2.5,0,0,1,170.5,5.1Zm61.9,2.1a2.6,2.6,0,0,1-2.1-2.9h0a2.6,2.6,0,0,1,2.9-2.1h0a2.6,2.6,0,0,1,2.1,2.9h0a2.6,2.6,0,0,1-2.5,2.1h-.4Zm-52-3.4A2.6,2.6,0,0,1,182.7,1h0a2.5,2.5,0,0,1,2.7,2.3h0A2.5,2.5,0,0,1,183.2,6h-.3A2.7,2.7,0,0,1,180.4,3.8ZM222.6,6a2.5,2.5,0,0,1-2.2-2.8h0A2.3,2.3,0,0,1,223.1,1h0a2.5,2.5,0,0,1,2.3,2.7h0A2.7,2.7,0,0,1,222.9,6h-.3ZM190.4,2.9A2.4,2.4,0,0,1,192.8.3h0a2.5,2.5,0,0,1,2.6,2.3h0A2.6,2.6,0,0,1,193,5.3h-.1A2.6,2.6,0,0,1,190.4,2.9Zm22.4,2.3a2.4,2.4,0,0,1-2.4-2.6h0A2.5,2.5,0,0,1,213,.2h0a2.6,2.6,0,0,1,2.4,2.7h0a2.5,2.5,0,0,1-2.5,2.3h-.1ZM200.4,2.5A2.5,2.5,0,0,1,202.9,0h0a2.5,2.5,0,0,1,2.5,2.5h0A2.5,2.5,0,0,1,202.9,5h0A2.5,2.5,0,0,1,200.4,2.5Z"/></g></g></svg>