<svg xmlns="http://www.w3.org/2000/svg" viewBox="0 0 345.59 345.6"><defs><style>.cls-1{fill:#607D8B;}</style></defs><title>disconnect</title><g id="Layer_2" data-name="Layer 2"><g id="Layer_1-2" data-name="Layer 1"><path class="cls-1" d="M204.37,164.77a18.31,18.31,0,0,1-18.3-18.27V83.34a13.27,13.27,0,0,0-26.54,0v63.15a18.29,18.29,0,0,1-36.58,0V83.34a49.85,49.85,0,0,1,99.7,0v63.15A18.29,18.29,0,0,1,204.37,164.77Zm-31.58-99.7a18.29,18.29,0,0,1,18.27,18.27v63.15a13.29,13.29,0,0,0,26.58,0V83.34a44.85,44.85,0,0,0-89.7,0v63.15a13.29,13.29,0,0,0,26.58,0V83.34A18.29,18.29,0,0,1,172.79,65.07Z"/><path class="cls-1" d="M172.79,312.11a49.9,49.9,0,0,1-49.85-49.85V199.11a18.29,18.29,0,0,1,36.58,0v63.15a13.27,13.27,0,0,0,26.54,0V199.11a18.29,18.29,0,0,1,36.58,0v63.15A49.9,49.9,0,0,1,172.79,312.11ZM141.22,185.84a13.29,13.29,0,0,0-13.27,13.27v63.15a44.85,44.85,0,1,0,89.7,0V199.11a13.29,13.29,0,0,0-26.58,0v63.15a18.27,18.27,0,0,1-36.54,0V199.11A13.3,13.3,0,0,0,141.22,185.84Z"/><path class="cls-1" d="M259.79,125.71"/><path class="cls-1" d="M241.18,172.8"/><path class="cls-1" d="M237.48,197.57"/><path class="cls-1" d="M62.29,172.8"/><path class="cls-1" d="M108.1,148"/><path class="cls-1" d="M111,175.11H62.65a2.5,2.5,0,1,1,0-5H111a2.5,2.5,0,0,1,0,5Z"/><path class="cls-1" d="M82.11,222.08a2.5,2.5,0,0,1-1.77-4.27l34.21-34.21a2.5,2.5,0,1,1,3.54,3.54L83.87,221.35A2.49,2.49,0,0,1,82.11,222.08Z"/><path class="cls-1" d="M116.32,162.36a2.49,2.49,0,0,1-1.77-.73L80.34,127.41a2.5,2.5,0,1,1,3.54-3.54l34.21,34.21a2.5,2.5,0,0,1-1.77,4.27Z"/><path class="cls-1" d="M14.94,122.69a2.5,2.5,0,0,1-2.5-2.5V15a2.5,2.5,0,0,1,2.5-2.5H120.18a2.5,2.5,0,0,1,0,5H17.44V120.19A2.5,2.5,0,0,1,14.94,122.69Z"/><path class="cls-1" d="M330.64,122.69a2.5,2.5,0,0,1-2.5-2.5V17.45H225.41a2.5,2.5,0,0,1,0-5H330.64a2.5,2.5,0,0,1,2.5,2.5V120.19A2.5,2.5,0,0,1,330.64,122.69Z"/><path class="cls-1" d="M330.64,333.15H225.41a2.5,2.5,0,1,1,0-5H328.14V225.42a2.5,2.5,0,1,1,5,0V330.65A2.5,2.5,0,0,1,330.64,333.15Z"/><path class="cls-1" d="M120.18,333.15H14.94a2.5,2.5,0,0,1-2.5-2.5V225.42a2.5,2.5,0,0,1,5,0V328.15H120.18a2.5,2.5,0,1,1,0,5Z"/><path class="cls-1" d="M282.33,175.11H233.94a2.5,2.5,0,0,1,0-5h48.38a2.5,2.5,0,0,1,0,5Z"/><path class="cls-1" d="M228.66,162.36a2.5,2.5,0,0,1-1.77-4.27l34.21-34.21a2.5,2.5,0,0,1,3.54,3.54l-34.21,34.21A2.49,2.49,0,0,1,228.66,162.36Z"/><path class="cls-1" d="M262.87,222.08a2.49,2.49,0,0,1-1.77-.73l-34.21-34.21a2.5,2.5,0,0,1,3.54-3.54l34.21,34.21a2.5,2.5,0,0,1-1.77,4.27Z"/><path class="cls-1" d="M0,109a2.5,2.5,0,0,1,2.5-2.5h0A2.5,2.5,0,0,1,5,109H5a2.5,2.5,0,0,1-2.5,2.5h0A2.5,2.5,0,0,1,0,109ZM0,99a2.5,2.5,0,0,1,2.5-2.5h0A2.5,2.5,0,0,1,5,99H5a2.5,2.5,0,0,1-2.5,2.5h0A2.5,2.5,0,0,1,0,99ZM0,89a2.5,2.5,0,0,1,2.5-2.5h0A2.5,2.5,0,0,1,5,89H5a2.5,2.5,0,0,1-2.5,2.5h0A2.5,2.5,0,0,1,0,89ZM0,79a2.5,2.5,0,0,1,2.5-2.5h0A2.5,2.5,0,0,1,5,79H5a2.5,2.5,0,0,1-2.5,2.5h0A2.5,2.5,0,0,1,0,79ZM0,69a2.5,2.5,0,0,1,2.5-2.5h0A2.5,2.5,0,0,1,5,69H5a2.5,2.5,0,0,1-2.5,2.5h0A2.5,2.5,0,0,1,0,69ZM0,59a2.5,2.5,0,0,1,2.5-2.5h0A2.5,2.5,0,0,1,5,59H5a2.5,2.5,0,0,1-2.5,2.5h0A2.5,2.5,0,0,1,0,59ZM0,49a2.5,2.5,0,0,1,2.5-2.5h0A2.5,2.5,0,0,1,5,49H5a2.5,2.5,0,0,1-2.5,2.5h0A2.5,2.5,0,0,1,0,49ZM0,39a2.5,2.5,0,0,1,2.5-2.5h0A2.5,2.5,0,0,1,5,39H5a2.5,2.5,0,0,1-2.5,2.5h0A2.5,2.5,0,0,1,0,39ZM0,29a2.5,2.5,0,0,1,2.5-2.5h0A2.5,2.5,0,0,1,5,29H5a2.5,2.5,0,0,1-2.5,2.5h0A2.5,2.5,0,0,1,0,29ZM0,19a2.5,2.5,0,0,1,2.5-2.5h0A2.5,2.5,0,0,1,5,19H5a2.5,2.5,0,0,1-2.5,2.5h0A2.5,2.5,0,0,1,0,19ZM0,9a2.5,2.5,0,0,1,2.5-2.5h0A2.5,2.5,0,0,1,5,9H5a2.5,2.5,0,0,1-2.5,2.5h0A2.5,2.5,0,0,1,0,9ZM113.53,2.51A2.5,2.5,0,0,1,116,0h0a2.5,2.5,0,0,1,2.5,2.51h0A2.51,2.51,0,0,1,116,5h0A2.51,2.51,0,0,1,113.53,2.51Zm-10,0A2.5,2.5,0,0,1,106,0h0a2.5,2.5,0,0,1,2.5,2.51h0A2.51,2.51,0,0,1,106,5h0A2.51,2.51,0,0,1,103.53,2.51Zm-10,0A2.5,2.5,0,0,1,96,0h0a2.5,2.5,0,0,1,2.5,2.51h0A2.51,2.51,0,0,1,96,5h0A2.51,2.51,0,0,1,93.53,2.51Zm-10,0A2.5,2.5,0,0,1,86,0h0a2.5,2.5,0,0,1,2.5,2.51h0A2.51,2.51,0,0,1,86,5h0A2.51,2.51,0,0,1,83.53,2.51Zm-10,0A2.5,2.5,0,0,1,76,0h0a2.5,2.5,0,0,1,2.5,2.51h0A2.51,2.51,0,0,1,76,5h0A2.51,2.51,0,0,1,73.53,2.51Zm-10,0A2.5,2.5,0,0,1,66,0h0a2.5,2.5,0,0,1,2.5,2.51h0A2.51,2.51,0,0,1,66,5h0A2.51,2.51,0,0,1,63.53,2.51Zm-10,0A2.5,2.5,0,0,1,56,0h0a2.5,2.5,0,0,1,2.5,2.51h0A2.51,2.51,0,0,1,56,5h0A2.51,2.51,0,0,1,53.53,2.51Zm-10,0A2.5,2.5,0,0,1,46,0h0a2.5,2.5,0,0,1,2.5,2.51h0A2.51,2.51,0,0,1,46,5h0A2.51,2.51,0,0,1,43.53,2.51Zm-10,0A2.5,2.5,0,0,1,36,0h0a2.5,2.5,0,0,1,2.5,2.51h0A2.51,2.51,0,0,1,36,5h0A2.51,2.51,0,0,1,33.53,2.51Zm-10,0A2.5,2.5,0,0,1,26,0h0a2.5,2.5,0,0,1,2.5,2.51h0A2.51,2.51,0,0,1,26,5h0A2.51,2.51,0,0,1,23.53,2.51Zm-10,0A2.5,2.5,0,0,1,16,0h0a2.5,2.5,0,0,1,2.5,2.51h0A2.51,2.51,0,0,1,16,5h0A2.51,2.51,0,0,1,13.53,2.51Zm-10,0A2.5,2.5,0,0,1,6,0H6a2.5,2.5,0,0,1,2.5,2.51h0A2.51,2.51,0,0,1,6,5H6A2.51,2.51,0,0,1,3.53,2.51Z"/><path class="cls-1" d="M340.59,116a2.5,2.5,0,0,1,2.5-2.5h0a2.5,2.5,0,0,1,2.5,2.5h0a2.5,2.5,0,0,1-2.5,2.5h0A2.5,2.5,0,0,1,340.59,116Zm0-10a2.5,2.5,0,0,1,2.5-2.5h0a2.5,2.5,0,0,1,2.5,2.5h0a2.5,2.5,0,0,1-2.5,2.5h0A2.5,2.5,0,0,1,340.59,106Zm0-10a2.5,2.5,0,0,1,2.5-2.5h0a2.5,2.5,0,0,1,2.5,2.5h0a2.5,2.5,0,0,1-2.5,2.5h0A2.5,2.5,0,0,1,340.59,96Zm0-10a2.5,2.5,0,0,1,2.5-2.5h0a2.5,2.5,0,0,1,2.5,2.5h0a2.5,2.5,0,0,1-2.5,2.5h0A2.5,2.5,0,0,1,340.59,86Zm0-10a2.5,2.5,0,0,1,2.5-2.5h0a2.5,2.5,0,0,1,2.5,2.5h0a2.5,2.5,0,0,1-2.5,2.5h0A2.5,2.5,0,0,1,340.59,76Zm0-10a2.5,2.5,0,0,1,2.5-2.5h0a2.5,2.5,0,0,1,2.5,2.5h0a2.5,2.5,0,0,1-2.5,2.5h0A2.5,2.5,0,0,1,340.59,66Zm0-10a2.5,2.5,0,0,1,2.5-2.5h0a2.5,2.5,0,0,1,2.5,2.5h0a2.5,2.5,0,0,1-2.5,2.5h0A2.5,2.5,0,0,1,340.59,56Zm0-10a2.5,2.5,0,0,1,2.5-2.5h0a2.5,2.5,0,0,1,2.5,2.5h0a2.5,2.5,0,0,1-2.5,2.5h0A2.5,2.5,0,0,1,340.59,46Zm0-10a2.5,2.5,0,0,1,2.5-2.5h0a2.5,2.5,0,0,1,2.5,2.5h0a2.5,2.5,0,0,1-2.5,2.5h0A2.5,2.5,0,0,1,340.59,36Zm0-10a2.5,2.5,0,0,1,2.5-2.5h0a2.5,2.5,0,0,1,2.5,2.5h0a2.5,2.5,0,0,1-2.5,2.5h0A2.5,2.5,0,0,1,340.59,26Zm0-10a2.5,2.5,0,0,1,2.5-2.5h0a2.5,2.5,0,0,1,2.5,2.5h0a2.5,2.5,0,0,1-2.5,2.5h0A2.5,2.5,0,0,1,340.59,16Zm0-10a2.5,2.5,0,0,1,2.5-2.5h0a2.5,2.5,0,0,1,2.5,2.5h0a2.5,2.5,0,0,1-2.5,2.5h0A2.5,2.5,0,0,1,340.59,6ZM334.12,2.5a2.5,2.5,0,0,1,2.5-2.5h0a2.5,2.5,0,0,1,2.5,2.5h0A2.51,2.51,0,0,1,336.62,5h0A2.51,2.51,0,0,1,334.12,2.5Zm-10,0a2.5,2.5,0,0,1,2.5-2.5h0a2.5,2.5,0,0,1,2.5,2.5h0A2.51,2.51,0,0,1,326.62,5h0A2.51,2.51,0,0,1,324.12,2.5Zm-10,0a2.5,2.5,0,0,1,2.5-2.5h0a2.5,2.5,0,0,1,2.5,2.5h0A2.51,2.51,0,0,1,316.62,5h0A2.51,2.51,0,0,1,314.12,2.5Zm-10,0a2.5,2.5,0,0,1,2.5-2.5h0a2.5,2.5,0,0,1,2.5,2.5h0A2.51,2.51,0,0,1,306.62,5h0A2.51,2.51,0,0,1,304.12,2.5Zm-10,0a2.5,2.5,0,0,1,2.5-2.5h0a2.5,2.5,0,0,1,2.5,2.5h0A2.51,2.51,0,0,1,296.62,5h0A2.51,2.51,0,0,1,294.12,2.5Zm-10,0a2.5,2.5,0,0,1,2.5-2.5h0a2.5,2.5,0,0,1,2.5,2.5h0A2.51,2.51,0,0,1,286.62,5h0A2.51,2.51,0,0,1,284.12,2.5Zm-10,0a2.5,2.5,0,0,1,2.5-2.5h0a2.5,2.5,0,0,1,2.5,2.5h0A2.51,2.51,0,0,1,276.62,5h0A2.51,2.51,0,0,1,274.12,2.5Zm-10,0a2.5,2.5,0,0,1,2.5-2.5h0a2.5,2.5,0,0,1,2.5,2.5h0A2.51,2.51,0,0,1,266.62,5h0A2.51,2.51,0,0,1,264.12,2.5Zm-10,0a2.5,2.5,0,0,1,2.5-2.5h0a2.5,2.5,0,0,1,2.5,2.5h0A2.51,2.51,0,0,1,256.62,5h0A2.51,2.51,0,0,1,254.12,2.5Zm-10,0a2.5,2.5,0,0,1,2.5-2.5h0a2.5,2.5,0,0,1,2.5,2.5h0A2.51,2.51,0,0,1,246.62,5h0A2.51,2.51,0,0,1,244.12,2.5Zm-10,0a2.5,2.5,0,0,1,2.5-2.5h0a2.5,2.5,0,0,1,2.5,2.5h0A2.51,2.51,0,0,1,236.62,5h0A2.51,2.51,0,0,1,234.12,2.5Z"/><path class="cls-1" d="M337.06,343.1a2.5,2.5,0,0,1,2.5-2.5h0a2.5,2.5,0,0,1,2.5,2.5h0a2.5,2.5,0,0,1-2.5,2.5h0A2.5,2.5,0,0,1,337.06,343.1Zm-10,0a2.5,2.5,0,0,1,2.5-2.5h0a2.5,2.5,0,0,1,2.5,2.5h0a2.5,2.5,0,0,1-2.5,2.5h0A2.5,2.5,0,0,1,327.06,343.1Zm-10,0a2.5,2.5,0,0,1,2.5-2.5h0a2.5,2.5,0,0,1,2.5,2.5h0a2.5,2.5,0,0,1-2.5,2.5h0A2.5,2.5,0,0,1,317.06,343.1Zm-10,0a2.5,2.5,0,0,1,2.5-2.5h0a2.5,2.5,0,0,1,2.5,2.5h0a2.5,2.5,0,0,1-2.5,2.5h0A2.5,2.5,0,0,1,307.06,343.1Zm-10,0a2.5,2.5,0,0,1,2.5-2.5h0a2.5,2.5,0,0,1,2.5,2.5h0a2.5,2.5,0,0,1-2.5,2.5h0A2.5,2.5,0,0,1,297.06,343.1Zm-10,0a2.5,2.5,0,0,1,2.5-2.5h0a2.5,2.5,0,0,1,2.5,2.5h0a2.5,2.5,0,0,1-2.5,2.5h0A2.5,2.5,0,0,1,287.06,343.1Zm-10,0a2.5,2.5,0,0,1,2.5-2.5h0a2.5,2.5,0,0,1,2.5,2.5h0a2.5,2.5,0,0,1-2.5,2.5h0A2.5,2.5,0,0,1,277.06,343.1Zm-10,0a2.5,2.5,0,0,1,2.5-2.5h0a2.5,2.5,0,0,1,2.5,2.5h0a2.5,2.5,0,0,1-2.5,2.5h0A2.5,2.5,0,0,1,267.06,343.1Zm-10,0a2.5,2.5,0,0,1,2.5-2.5h0a2.5,2.5,0,0,1,2.5,2.5h0a2.5,2.5,0,0,1-2.5,2.5h0A2.5,2.5,0,0,1,257.06,343.1Zm-10,0a2.5,2.5,0,0,1,2.5-2.5h0a2.5,2.5,0,0,1,2.5,2.5h0a2.5,2.5,0,0,1-2.5,2.5h0A2.5,2.5,0,0,1,247.06,343.1Zm-10,0a2.5,2.5,0,0,1,2.5-2.5h0a2.5,2.5,0,0,1,2.5,2.5h0a2.5,2.5,0,0,1-2.5,2.5h0A2.5,2.5,0,0,1,237.06,343.1Zm-10,0a2.5,2.5,0,0,1,2.5-2.5h0a2.5,2.5,0,0,1,2.5,2.5h0a2.5,2.5,0,0,1-2.5,2.5h0A2.5,2.5,0,0,1,227.06,343.1Zm113.53-6.47a2.5,2.5,0,0,1,2.5-2.5h0a2.5,2.5,0,0,1,2.5,2.5h0a2.5,2.5,0,0,1-2.5,2.5h0A2.5,2.5,0,0,1,340.59,336.63Zm0-10a2.5,2.5,0,0,1,2.5-2.5h0a2.5,2.5,0,0,1,2.5,2.5h0a2.5,2.5,0,0,1-2.5,2.5h0A2.5,2.5,0,0,1,340.59,326.63Zm0-10a2.5,2.5,0,0,1,2.5-2.5h0a2.5,2.5,0,0,1,2.5,2.5h0a2.5,2.5,0,0,1-2.5,2.5h0A2.5,2.5,0,0,1,340.59,316.63Zm0-10a2.5,2.5,0,0,1,2.5-2.5h0a2.5,2.5,0,0,1,2.5,2.5h0a2.5,2.5,0,0,1-2.5,2.5h0A2.5,2.5,0,0,1,340.59,306.63Zm0-10a2.5,2.5,0,0,1,2.5-2.5h0a2.5,2.5,0,0,1,2.5,2.5h0a2.5,2.5,0,0,1-2.5,2.5h0A2.5,2.5,0,0,1,340.59,296.63Zm0-10a2.5,2.5,0,0,1,2.5-2.5h0a2.5,2.5,0,0,1,2.5,2.5h0a2.5,2.5,0,0,1-2.5,2.5h0A2.5,2.5,0,0,1,340.59,286.63Zm0-10a2.5,2.5,0,0,1,2.5-2.5h0a2.5,2.5,0,0,1,2.5,2.5h0a2.5,2.5,0,0,1-2.5,2.5h0A2.5,2.5,0,0,1,340.59,276.63Zm0-10a2.5,2.5,0,0,1,2.5-2.5h0a2.5,2.5,0,0,1,2.5,2.5h0a2.5,2.5,0,0,1-2.5,2.5h0A2.5,2.5,0,0,1,340.59,266.63Zm0-10a2.5,2.5,0,0,1,2.5-2.5h0a2.5,2.5,0,0,1,2.5,2.5h0a2.5,2.5,0,0,1-2.5,2.5h0A2.5,2.5,0,0,1,340.59,256.63Zm0-10a2.5,2.5,0,0,1,2.5-2.5h0a2.5,2.5,0,0,1,2.5,2.5h0a2.5,2.5,0,0,1-2.5,2.5h0A2.5,2.5,0,0,1,340.59,246.63Zm0-10a2.5,2.5,0,0,1,2.5-2.5h0a2.5,2.5,0,0,1,2.5,2.5h0a2.5,2.5,0,0,1-2.5,2.5h0A2.5,2.5,0,0,1,340.59,236.63Z"/><path class="cls-1" d="M106.46,343.1a2.5,2.5,0,0,1,2.5-2.5h0a2.5,2.5,0,0,1,2.5,2.5h0a2.5,2.5,0,0,1-2.5,2.5h0A2.5,2.5,0,0,1,106.46,343.1Zm-10,0a2.5,2.5,0,0,1,2.5-2.5h0a2.5,2.5,0,0,1,2.5,2.5h0a2.5,2.5,0,0,1-2.5,2.5h0A2.5,2.5,0,0,1,96.46,343.1Zm-10,0a2.5,2.5,0,0,1,2.5-2.5h0a2.5,2.5,0,0,1,2.5,2.5h0a2.5,2.5,0,0,1-2.5,2.5h0A2.5,2.5,0,0,1,86.46,343.1Zm-10,0a2.5,2.5,0,0,1,2.5-2.5h0a2.5,2.5,0,0,1,2.5,2.5h0a2.5,2.5,0,0,1-2.5,2.5h0A2.5,2.5,0,0,1,76.46,343.1Zm-10,0a2.5,2.5,0,0,1,2.5-2.5h0a2.5,2.5,0,0,1,2.5,2.5h0a2.5,2.5,0,0,1-2.5,2.5h0A2.5,2.5,0,0,1,66.46,343.1Zm-10,0a2.5,2.5,0,0,1,2.5-2.5h0a2.5,2.5,0,0,1,2.5,2.5h0a2.5,2.5,0,0,1-2.5,2.5h0A2.5,2.5,0,0,1,56.46,343.1Zm-10,0a2.5,2.5,0,0,1,2.5-2.5h0a2.5,2.5,0,0,1,2.5,2.5h0a2.5,2.5,0,0,1-2.5,2.5h0A2.5,2.5,0,0,1,46.46,343.1Zm-10,0a2.5,2.5,0,0,1,2.5-2.5h0a2.5,2.5,0,0,1,2.5,2.5h0a2.5,2.5,0,0,1-2.5,2.5h0A2.5,2.5,0,0,1,36.46,343.1Zm-10,0a2.5,2.5,0,0,1,2.5-2.5h0a2.5,2.5,0,0,1,2.5,2.5h0a2.5,2.5,0,0,1-2.5,2.5h0A2.5,2.5,0,0,1,26.46,343.1Zm-10,0a2.5,2.5,0,0,1,2.5-2.5h0a2.5,2.5,0,0,1,2.5,2.5h0a2.5,2.5,0,0,1-2.5,2.5h0A2.5,2.5,0,0,1,16.46,343.1Zm-10,0A2.5,2.5,0,0,1,9,340.6H9a2.5,2.5,0,0,1,2.5,2.5h0A2.5,2.5,0,0,1,9,345.6H9A2.5,2.5,0,0,1,6.46,343.1ZM0,339.57a2.5,2.5,0,0,1,2.5-2.5h0a2.5,2.5,0,0,1,2.5,2.5H5a2.5,2.5,0,0,1-2.5,2.5h0A2.5,2.5,0,0,1,0,339.57Zm0-10a2.5,2.5,0,0,1,2.5-2.5h0a2.5,2.5,0,0,1,2.5,2.5H5a2.5,2.5,0,0,1-2.5,2.5h0A2.5,2.5,0,0,1,0,329.57Zm0-10a2.5,2.5,0,0,1,2.5-2.5h0a2.5,2.5,0,0,1,2.5,2.5H5a2.5,2.5,0,0,1-2.5,2.5h0A2.5,2.5,0,0,1,0,319.57Zm0-10a2.5,2.5,0,0,1,2.5-2.5h0a2.5,2.5,0,0,1,2.5,2.5H5a2.5,2.5,0,0,1-2.5,2.5h0A2.5,2.5,0,0,1,0,309.57Zm0-10a2.5,2.5,0,0,1,2.5-2.5h0a2.5,2.5,0,0,1,2.5,2.5H5a2.5,2.5,0,0,1-2.5,2.5h0A2.5,2.5,0,0,1,0,299.57Zm0-10a2.5,2.5,0,0,1,2.5-2.5h0a2.5,2.5,0,0,1,2.5,2.5H5a2.5,2.5,0,0,1-2.5,2.5h0A2.5,2.5,0,0,1,0,289.57Zm0-10a2.5,2.5,0,0,1,2.5-2.5h0a2.5,2.5,0,0,1,2.5,2.5H5a2.5,2.5,0,0,1-2.5,2.5h0A2.5,2.5,0,0,1,0,279.57Zm0-10a2.5,2.5,0,0,1,2.5-2.5h0a2.5,2.5,0,0,1,2.5,2.5H5a2.5,2.5,0,0,1-2.5,2.5h0A2.5,2.5,0,0,1,0,269.57Zm0-10a2.5,2.5,0,0,1,2.5-2.5h0a2.5,2.5,0,0,1,2.5,2.5H5a2.5,2.5,0,0,1-2.5,2.5h0A2.5,2.5,0,0,1,0,259.57Zm0-10a2.5,2.5,0,0,1,2.5-2.5h0a2.5,2.5,0,0,1,2.5,2.5H5a2.5,2.5,0,0,1-2.5,2.5h0A2.5,2.5,0,0,1,0,249.57Zm0-10a2.5,2.5,0,0,1,2.5-2.5h0a2.5,2.5,0,0,1,2.5,2.5H5a2.5,2.5,0,0,1-2.5,2.5h0A2.5,2.5,0,0,1,0,239.57Zm0-10a2.5,2.5,0,0,1,2.5-2.5h0a2.5,2.5,0,0,1,2.5,2.5H5a2.5,2.5,0,0,1-2.5,2.5h0A2.5,2.5,0,0,1,0,229.57Z"/><path class="cls-1" d="M286.26,172.6a2.5,2.5,0,0,1,2.5-2.5h0a2.5,2.5,0,0,1,2.5,2.5h0a2.5,2.5,0,0,1-2.5,2.5h0A2.5,2.5,0,0,1,286.26,172.6Zm-10,0a2.49,2.49,0,0,1,2.49-2.5h0a2.51,2.51,0,0,1,2.51,2.5h0a2.51,2.51,0,0,1-2.51,2.5h0A2.49,2.49,0,0,1,276.27,172.6Zm-10,0a2.5,2.5,0,0,1,2.5-2.5h0a2.5,2.5,0,0,1,2.5,2.5h0a2.5,2.5,0,0,1-2.5,2.5h0A2.5,2.5,0,0,1,266.26,172.6Zm-10,0a2.5,2.5,0,0,1,2.51-2.5h0a2.49,2.49,0,0,1,2.49,2.5h0a2.49,2.49,0,0,1-2.49,2.5h0A2.5,2.5,0,0,1,256.26,172.6Zm-10,0a2.5,2.5,0,0,1,2.51-2.5h0a2.49,2.49,0,0,1,2.49,2.5h0a2.49,2.49,0,0,1-2.49,2.5h0A2.5,2.5,0,0,1,246.26,172.6Zm-10,0a2.49,2.49,0,0,1,2.49-2.5h0a2.51,2.51,0,0,1,2.51,2.5h0a2.51,2.51,0,0,1-2.51,2.5h0A2.49,2.49,0,0,1,236.27,172.6Z"/></g></g></svg>