<svg xmlns="http://www.w3.org/2000/svg" viewBox="0 0 349.9 349.9"><defs><style>.cls-1{fill:#ff7043;}</style></defs><title>Asset 136</title><g id="Layer_2" data-name="Layer 2"><g id="Layer_1-2" data-name="Layer 1"><path class="cls-1" d="M342,349.9H7.9A7.9,7.9,0,0,1,0,342V82.8a7.9,7.9,0,0,1,7.9-7.9H148l-14.7-9.4a8,8,0,0,1-3.7-6.7V7.9A7.9,7.9,0,0,1,137.5,0h72a7.9,7.9,0,0,1,7.9,7.9V58.8a7.8,7.8,0,0,1-3.4,6.5l-13.8,9.6H342a7.9,7.9,0,0,1,7.9,7.9V342A7.9,7.9,0,0,1,342,349.9ZM7.9,79.9A2.9,2.9,0,0,0,5,82.8V342a2.9,2.9,0,0,0,2.9,2.9H342a2.9,2.9,0,0,0,2.9-2.9V82.8a2.9,2.9,0,0,0-2.9-2.9H192.2a2.3,2.3,0,0,1-2.3-1.8,2.4,2.4,0,0,1,.9-2.8l20.4-14.1a2.7,2.7,0,0,0,1.2-2.4V7.9A2.9,2.9,0,0,0,209.5,5h-72a2.9,2.9,0,0,0-2.9,2.9V58.8a3,3,0,0,0,1.4,2.5l21.9,14a2.5,2.5,0,0,1,1,2.8,2.5,2.5,0,0,1-2.4,1.8ZM336.6,339.1H180.4a2.5,2.5,0,0,1-2.5-2.5,2.5,2.5,0,0,1,2.5-2.5H334.1V90.7H180.4a2.5,2.5,0,0,1,0-5H336.6a2.5,2.5,0,0,1,2.5,2.5V336.6A2.5,2.5,0,0,1,336.6,339.1Zm-167,0H13.3a2.5,2.5,0,0,1-2.5-2.5V88.2a2.5,2.5,0,0,1,2.5-2.5H169.6a2.5,2.5,0,0,1,0,5H15.8V334.1H169.6a2.5,2.5,0,0,1,2.5,2.5A2.5,2.5,0,0,1,169.6,339.1Zm135-26.6H180.4a2.5,2.5,0,1,1,0-5H304.6a2.9,2.9,0,0,0,2.9-2.9V261.4a2.9,2.9,0,0,0-2.9-2.9H180.4a2.5,2.5,0,1,1,0-5H304.6a7.9,7.9,0,0,1,7.9,7.9v43.2A8,8,0,0,1,304.6,312.5Zm-135,0H33.8a8,8,0,0,1-7.9-7.9V261.4a7.9,7.9,0,0,1,7.9-7.9H169.6a2.5,2.5,0,1,1,0,5H33.8a2.9,2.9,0,0,0-2.9,2.9v43.2a2.9,2.9,0,0,0,2.9,2.9H169.6a2.5,2.5,0,1,1,0,5Zm91.8-72h-81a2.5,2.5,0,1,1,0-5h81a2.9,2.9,0,0,0,2.9-2.9V189.4a2.9,2.9,0,0,0-2.9-2.9h-81a2.5,2.5,0,1,1,0-5h81a7.9,7.9,0,0,1,7.9,7.9v43.2A8,8,0,0,1,261.4,240.5Zm-91.8,0H33.8a8,8,0,0,1-7.9-7.9V189.4a7.9,7.9,0,0,1,7.9-7.9H169.6a2.5,2.5,0,1,1,0,5H33.8a2.9,2.9,0,0,0-2.9,2.9v43.2a2.9,2.9,0,0,0,2.9,2.9H169.6a2.5,2.5,0,1,1,0,5Zm42.8-72h-32a2.5,2.5,0,0,1-2.5-2.5,2.5,2.5,0,0,1,2.5-2.5h32a2.9,2.9,0,0,0,2.9-2.9V117.4a2.9,2.9,0,0,0-2.9-2.9h-32a2.5,2.5,0,0,1-2.5-2.5,2.5,2.5,0,0,1,2.5-2.5h32a7.9,7.9,0,0,1,7.9,7.9v43.2A7.9,7.9,0,0,1,212.4,168.5Zm-42.8,0H33.8a8,8,0,0,1-7.9-7.9V117.4a7.9,7.9,0,0,1,7.9-7.9H169.6a2.5,2.5,0,0,1,2.5,2.5,2.5,2.5,0,0,1-2.5,2.5H33.8a2.9,2.9,0,0,0-2.9,2.9v43.2a2.9,2.9,0,0,0,2.9,2.9H169.6a2.5,2.5,0,0,1,2.5,2.5A2.5,2.5,0,0,1,169.6,168.5Zm5.2-89.7a2.2,2.2,0,0,1-1.3-.4L141.6,58a2.7,2.7,0,0,1-1.2-2.1V13.3a2.5,2.5,0,0,1,2.5-2.5h61.2a2.5,2.5,0,0,1,2.5,2.5V56a2.8,2.8,0,0,1-1,2.1L176.3,78.4A2.8,2.8,0,0,1,174.8,78.8ZM145.4,54.5l29.4,18.8,26.8-18.6V15.8H145.4Z"/><path class="cls-1" d="M169.6,339.1a2.5,2.5,0,0,1-2.5-2.5V88.2a2.5,2.5,0,0,1,5,0V336.6A2.5,2.5,0,0,1,169.6,339.1Z"/><path class="cls-1" d="M180.4,339.1a2.5,2.5,0,0,1-2.5-2.5V88.2a2.5,2.5,0,0,1,5,0V336.6A2.5,2.5,0,0,1,180.4,339.1Z"/><path class="cls-1" d="M103.6,233H35.9a2.5,2.5,0,0,1-2.5-2.5V198.9a2.5,2.5,0,0,1,5,0V228h65.2a2.5,2.5,0,1,1,0,5Z"/><path class="cls-1" d="M103.6,161.4H35.9a2.5,2.5,0,0,1-2.5-2.5V127.4a2.5,2.5,0,0,1,5,0v29h65.2a2.5,2.5,0,0,1,0,5Z"/><path class="cls-1" d="M103.6,305.4H35.9a2.5,2.5,0,0,1-2.5-2.5V271.4a2.5,2.5,0,0,1,5,0v29h65.2a2.5,2.5,0,1,1,0,5Z"/><path class="cls-1" d="M127.2,161.4H110.7a2.5,2.5,0,0,1,0-5h16.5a2.5,2.5,0,0,1,0,5Z"/><path class="cls-1" d="M127.2,233H110.7a2.5,2.5,0,1,1,0-5h16.5a2.5,2.5,0,0,1,0,5Z"/><path class="cls-1" d="M127.2,305.4H110.7a2.5,2.5,0,1,1,0-5h16.5a2.5,2.5,0,0,1,0,5Z"/><path class="cls-1" d="M175.9,67.9a2.6,2.6,0,0,1-2.1-1.1,2.5,2.5,0,0,1,.6-3.5l19-13.1V22.5a2.5,2.5,0,0,1,5,0v29a2.3,2.3,0,0,1-1.1,2l-20,13.9A2.4,2.4,0,0,1,175.9,67.9Z"/></g></g></svg>