<svg xmlns="http://www.w3.org/2000/svg" viewBox="0 0 308.1 344.6"><defs><style>.cls-1{fill:#607D8B;}</style></defs><title>Asset 116</title><g id="Layer_2" data-name="Layer 2"><g id="Layer_1-2" data-name="Layer 1"><path class="cls-1" d="M174.5,333.2A163.1,163.1,0,0,1,59.1,54.7,162.8,162.8,0,0,1,159.9,7.5a15.9,15.9,0,0,1,11.8,4,15.4,15.4,0,0,1,5,11.4V167.6a11.3,11.3,0,0,0,3.3,7.9l99.8,97.1a14.9,14.9,0,0,1,4.7,11.6,15.7,15.7,0,0,1-5.5,11.2,165.7,165.7,0,0,1-41,25A162.3,162.3,0,0,1,174.5,333.2ZM161.3,11.9h-1A158.9,158.9,0,0,0,28.2,108.3a159,159,0,0,0,0,123.6,159.1,159.1,0,0,0,84.5,84.4,159,159,0,0,0,123.6,0A161.5,161.5,0,0,0,276.2,292a10.8,10.8,0,0,0,3.9-8,11.2,11.2,0,0,0-3.3-8.3h0l-99.9-97.1a15.7,15.7,0,0,1-4.6-11V22.9a10.8,10.8,0,0,0-3.6-8.1A10.6,10.6,0,0,0,161.3,11.9Z"/><path class="cls-1" d="M223.6,92.8a1.9,1.9,0,0,1-1.2-.4A90.7,90.7,0,0,0,210,86a92.2,92.2,0,0,0-35.5-7.2,2.2,2.2,0,0,1-2.2-2.2,2.2,2.2,0,0,1,2.2-2.2,94.7,94.7,0,0,1,50.3,14.3,2.2,2.2,0,0,1,.7,3A2.3,2.3,0,0,1,223.6,92.8Z"/><path class="cls-1" d="M267.9,265.7a1.8,1.8,0,0,1-1.5-.7,2.1,2.1,0,0,1,0-3.1,129.6,129.6,0,0,0,37.2-77.4,10.8,10.8,0,0,0-2.7-8.6,11.1,11.1,0,0,0-8.2-3.6H174.5a2.2,2.2,0,0,1-2.2-2.2,2.2,2.2,0,0,1,2.2-2.2H292.7a15.3,15.3,0,0,1,15.3,17A132.7,132.7,0,0,1,269.5,265,2.1,2.1,0,0,1,267.9,265.7Z"/><path class="cls-1" d="M285.4,172.3a2.2,2.2,0,0,1-2.2-2.2,106.4,106.4,0,0,0-2.3-21.9,102.6,102.6,0,0,0-6.3-20.4,106.4,106.4,0,0,0-10-18.5,113.8,113.8,0,0,0-13.3-16.1c-2.1-2.1-4.3-4.1-6.5-6a11.1,11.1,0,0,0-14.9.6l-53,53.1a2.3,2.3,0,0,1-3.2-3.2l53.1-53a15.5,15.5,0,0,1,20.8-.9,81.8,81.8,0,0,1,6.8,6.3,116.2,116.2,0,0,1,13.9,16.7A127.1,127.1,0,0,1,278.7,126a113.3,113.3,0,0,1,8.9,44.1A2.2,2.2,0,0,1,285.4,172.3Z"/><path class="cls-1" d="M255.7,303a2.3,2.3,0,0,1-1.9-1.1,2.2,2.2,0,0,1,.7-3l4.5-2.8a2.1,2.1,0,0,1,3,.6,2.2,2.2,0,0,1-.6,3.1l-4.5,2.8A1.9,1.9,0,0,1,255.7,303Z"/><path class="cls-1" d="M175.8,325.4h-2a2.2,2.2,0,0,1-2.2-2.2,2.2,2.2,0,0,1,2.2-2.2c3.5.1,7.1,0,10.6-.2a2.1,2.1,0,0,1,2.3,2.1,2.1,2.1,0,0,1-2,2.3Zm-12.8-.5h-.1c-3.6-.3-7.3-.7-10.9-1.3a2.2,2.2,0,1,1,.7-4.3q5.3.8,10.5,1.2a2.2,2.2,0,0,1,2,2.4A2.1,2.1,0,0,1,163,324.9Zm32.3-.7a2.2,2.2,0,0,1-2.2-1.9,2.2,2.2,0,0,1,1.9-2.5c3.5-.4,7-1,10.4-1.7a2.3,2.3,0,0,1,2.6,1.7,2.1,2.1,0,0,1-1.7,2.6c-3.5.7-7.2,1.3-10.8,1.8Zm-53.5-2.6h-.5c-3.5-.8-7.1-1.8-10.5-2.8a2.2,2.2,0,0,1-1.5-2.8,2.1,2.1,0,0,1,2.7-1.4c3.4,1,6.8,1.9,10.3,2.7a2.1,2.1,0,0,1,1.6,2.6A2.1,2.1,0,0,1,141.8,321.6Zm74.5-1.6a2.2,2.2,0,0,1-.5-4.3c3.3-.9,6.8-2,10.1-3.2a2.2,2.2,0,1,1,1.4,4.2c-3.4,1.2-6.9,2.3-10.4,3.2Zm-95.1-4.6h-.8l-5.1-2.1-4.9-2.2a2.2,2.2,0,1,1,1.8-4l4.9,2.2,4.9,1.9a2.4,2.4,0,0,1,1.3,2.9A2.3,2.3,0,0,1,121.2,315.4Zm115.4-2.5a2.3,2.3,0,0,1-2-1.3,2.1,2.1,0,0,1,1.1-2.9c3.3-1.4,6.5-3,9.6-4.6a2.3,2.3,0,0,1,3,.9,2.2,2.2,0,0,1-.9,3c-3.3,1.7-6.6,3.3-9.9,4.7Zm-134.9-6.5a1.9,1.9,0,0,1-1-.3c-3.2-1.8-6.4-3.7-9.4-5.6a2.2,2.2,0,0,1-.6-3.1,2.1,2.1,0,0,1,3-.6c3,1.9,6,3.7,9.1,5.4a2.3,2.3,0,0,1,.9,3A2.4,2.4,0,0,1,101.7,306.4Zm-18-11.8a2,2,0,0,1-1.3-.4c-2.9-2.2-5.8-4.5-8.5-6.9a2.2,2.2,0,0,1,2.9-3.3c2.6,2.3,5.4,4.6,8.2,6.7a2.2,2.2,0,0,1,.5,3.1A2.5,2.5,0,0,1,83.7,294.6ZM67.5,280.5a2.3,2.3,0,0,1-1.6-.6c-2.5-2.6-5-5.3-7.4-8a2.2,2.2,0,1,1,3.3-2.9q3.5,4,7.2,7.8a2.1,2.1,0,0,1,0,3.1A2.2,2.2,0,0,1,67.5,280.5ZM53.4,264.3a2.1,2.1,0,0,1-1.8-.9c-1.6-2.1-3.1-4.3-4.6-6.5s-1.1-1.6-1.6-2.4a2.2,2.2,0,0,1,.6-3.1,2.4,2.4,0,0,1,3.1.7l1.5,2.4,4.5,6.3a2.1,2.1,0,0,1-.4,3.1A2.2,2.2,0,0,1,53.4,264.3Zm-11.7-18a2.3,2.3,0,0,1-2-1.2c-1.7-3.1-3.4-6.4-4.9-9.7a2.2,2.2,0,0,1,1.1-2.9,2.2,2.2,0,0,1,2.9,1c1.5,3.2,3.1,6.4,4.8,9.5a2.2,2.2,0,0,1-.9,3A1.9,1.9,0,0,1,41.7,246.3Zm-9.1-19.5a2.1,2.1,0,0,1-2-1.5c-1.3-3.3-2.5-6.8-3.6-10.3a2.2,2.2,0,0,1,4.3-1.3c1,3.4,2.1,6.8,3.4,10.1a2.1,2.1,0,0,1-1.3,2.8Zm-6.2-20.6a2.1,2.1,0,0,1-2.1-1.7c-.3-1.1-.5-2.1-.7-3.1s-1-5.1-1.4-7.7a2.3,2.3,0,0,1,1.9-2.5,2.2,2.2,0,0,1,2.5,1.9c.4,2.4.8,4.9,1.3,7.4s.4,2,.7,3a2.2,2.2,0,0,1-1.7,2.6Zm-3.2-21.3a2.1,2.1,0,0,1-2.2-2c-.3-3.6-.5-7.3-.5-10.9a2.1,2.1,0,0,1,2.1-2.2,2.2,2.2,0,0,1,2.3,2.2c0,3.5.2,7,.5,10.5a2.2,2.2,0,0,1-2.1,2.4Zm-.3-21.5h-.1a2.2,2.2,0,0,1-2.1-2.3c.2-3.6.5-7.3,1-10.9a2.2,2.2,0,0,1,4.4.6c-.5,3.5-.8,7-1,10.6A2.2,2.2,0,0,1,22.9,163.4Zm2.7-21.3h-.4a2.2,2.2,0,0,1-1.7-2.6v-.7q1-5.1,2.4-9.9a2.2,2.2,0,0,1,2.7-1.6,2.1,2.1,0,0,1,1.5,2.7c-.8,3.2-1.6,6.4-2.3,9.6v.7A2.2,2.2,0,0,1,25.6,142.1Zm5.7-20.7h-.7a2.3,2.3,0,0,1-1.4-2.9c1.1-2.9,2.2-5.9,3.5-8.8a5,5,0,0,1,.5-1.3,2.2,2.2,0,0,1,4.1,1.7l-.6,1.3c-1.2,2.8-2.3,5.7-3.3,8.6A2.3,2.3,0,0,1,31.3,121.4Zm8.6-19.7a2.3,2.3,0,0,1-2-3.3c1.7-3.2,3.5-6.4,5.4-9.5a2.2,2.2,0,0,1,3-.7,2.1,2.1,0,0,1,.7,3c-1.8,3-3.6,6.1-5.2,9.3A2.2,2.2,0,0,1,39.9,101.7ZM51.1,83.3a2.2,2.2,0,0,1-1.3-.4,2.2,2.2,0,0,1-.5-3.1c2.1-2.9,4.4-5.8,6.7-8.6a2.1,2.1,0,0,1,3.1-.3,2.3,2.3,0,0,1,.3,3.1,104.6,104.6,0,0,0-6.5,8.4A2.1,2.1,0,0,1,51.1,83.3ZM64.8,66.8a1.8,1.8,0,0,1-1.5-.7,2.2,2.2,0,0,1-.1-3.1c.9-.9,1.8-1.9,2.8-2.8s3.3-3.3,5-4.8a2.2,2.2,0,0,1,3,3.2l-4.9,4.7-2.7,2.8A2.4,2.4,0,0,1,64.8,66.8ZM80.7,52.2a2.2,2.2,0,0,1-1.8-.8,2.2,2.2,0,0,1,.4-3.1c2.8-2.2,5.8-4.4,8.8-6.5a2.1,2.1,0,0,1,3,.6,2.2,2.2,0,0,1-.5,3.1c-2.9,2-5.8,4.1-8.6,6.3A2.2,2.2,0,0,1,80.7,52.2ZM98.4,40.1A2.2,2.2,0,0,1,97.3,36c3.1-1.9,6.3-3.6,9.6-5.2a2.2,2.2,0,1,1,1.9,3.9c-3.1,1.6-6.3,3.3-9.3,5.1A2,2,0,0,1,98.4,40.1Zm19.3-9.6a2.3,2.3,0,0,1-2.1-1.3,2.2,2.2,0,0,1,1.2-2.9c3.4-1.4,6.8-2.7,10.2-3.8a2.1,2.1,0,0,1,2.8,1.4,2.2,2.2,0,0,1-1.4,2.8c-3.3,1.1-6.7,2.3-9.9,3.7Z"/><path class="cls-1" d="M138.1,23.8a2.1,2.1,0,0,1-2.1-1.7,2.2,2.2,0,0,1,1.6-2.7l5.2-1.2a2.2,2.2,0,0,1,.9,4.3l-5,1.2Z"/><path class="cls-1" d="M184.6,185.2a2.2,2.2,0,0,1-1.6-3.8l13-12.9a2.2,2.2,0,0,1,3.1,3.1l-12.9,13A2.5,2.5,0,0,1,184.6,185.2Z"/><path class="cls-1" d="M193.1,193.5a2.2,2.2,0,0,1-1.5-.6,2.2,2.2,0,0,1,0-3.2l20.9-20.9a2.2,2.2,0,0,1,3.1,3.1l-20.9,21A2.3,2.3,0,0,1,193.1,193.5Z"/><path class="cls-1" d="M202.1,201.4a2.1,2.1,0,0,1-1.6-.7,2.3,2.3,0,0,1,0-3.1l28.4-28.4a2.3,2.3,0,0,1,3.1,0,2.2,2.2,0,0,1,0,3.2l-28.4,28.3A1.9,1.9,0,0,1,202.1,201.4Z"/><path class="cls-1" d="M210.2,210.1a2.1,2.1,0,0,1-1.6-.7,2.3,2.3,0,0,1,0-3.1l37.7-37.7a2.3,2.3,0,0,1,3.1,0,2.1,2.1,0,0,1,0,3.1l-37.7,37.7A1.9,1.9,0,0,1,210.2,210.1Z"/><path class="cls-1" d="M218.9,218.2a2.5,2.5,0,0,1-1.6-.6,2.3,2.3,0,0,1,0-3.1l45.3-45.4a2.4,2.4,0,0,1,3.2,0,2.3,2.3,0,0,1,0,3.1l-45.4,45.4A2.2,2.2,0,0,1,218.9,218.2Z"/><path class="cls-1" d="M227.2,226.7a1.9,1.9,0,0,1-1.5-.7,2.1,2.1,0,0,1,0-3.1l54.2-54.2a2.3,2.3,0,0,1,3.1,0,2.4,2.4,0,0,1,0,3.2L228.8,226A2,2,0,0,1,227.2,226.7Z"/><path class="cls-1" d="M236.1,234.7a2,2,0,0,1-1.6-.7,2.1,2.1,0,0,1,0-3.1l60.7-60.7a2.3,2.3,0,0,1,3.1,0,2.2,2.2,0,0,1,0,3.2L237.6,234A1.9,1.9,0,0,1,236.1,234.7Z"/><path class="cls-1" d="M244.3,243.3a2.1,2.1,0,0,1-1.6-.7,2.3,2.3,0,0,1,0-3.1l60-60a2.3,2.3,0,0,1,3.1,0,2.1,2.1,0,0,1,0,3.1l-59.9,60A2.1,2.1,0,0,1,244.3,243.3Z"/><path class="cls-1" d="M252.8,251.6a2.3,2.3,0,0,1-1.5-.7,2.1,2.1,0,0,1,0-3.1l50.6-50.7a2.2,2.2,0,0,1,3.2,0,2.3,2.3,0,0,1,0,3.1l-50.7,50.7A2.6,2.6,0,0,1,252.8,251.6Z"/><path class="cls-1" d="M261.3,259.9a2.3,2.3,0,0,1-1.5-.7,2.1,2.1,0,0,1,0-3.1l33.9-33.9a2.2,2.2,0,0,1,3.1,3.1l-33.9,33.9A2.4,2.4,0,0,1,261.3,259.9Z"/><path class="cls-1" d="M298.7,165.8h-.8l-.4-.2-.3-.3a2.3,2.3,0,0,1-.7-1.5.9.9,0,0,1,.1-.5.6.6,0,0,1,.1-.4l.2-.4.3-.3a2.3,2.3,0,0,1,3.1,0l.3.3a.5.5,0,0,0,.2.4c0,.1.1.3.1.4v1.3a.8.8,0,0,0-.2.4l-.3.3A2.4,2.4,0,0,1,298.7,165.8Z"/><path class="cls-1" d="M295.7,150.3h0a2.2,2.2,0,0,1,1.9-2.4h0a2.2,2.2,0,0,1,2.5,1.9h0a2.2,2.2,0,0,1-1.9,2.4h-.3A2.3,2.3,0,0,1,295.7,150.3Zm-2.4-13a2.2,2.2,0,0,1,1.6-2.7h0a2.2,2.2,0,0,1,2.7,1.6h0a2.2,2.2,0,0,1-1.6,2.7h-.5A2.2,2.2,0,0,1,293.3,137.3Zm-4-12.7a2.2,2.2,0,0,1,1.3-2.8h0a2.1,2.1,0,0,1,2.8,1.2h0a2.2,2.2,0,0,1-1.2,2.9h-.8A2.3,2.3,0,0,1,289.3,124.6Zm-5.5-12.1a2.1,2.1,0,0,1,.9-2.9h0a2.2,2.2,0,0,1,3,.9h0a2.1,2.1,0,0,1-.9,2.9h0a1.9,1.9,0,0,1-1,.3h0A2.2,2.2,0,0,1,283.8,112.5Zm-6.9-11.3a2.1,2.1,0,0,1,.5-3h0a2.1,2.1,0,0,1,3.1.5h0a2.2,2.2,0,0,1-.6,3.1h0a2.5,2.5,0,0,1-1.2.4h0A2.2,2.2,0,0,1,276.9,101.2Zm-8.3-10.4a2.2,2.2,0,0,1,.2-3.1h0a2.2,2.2,0,0,1,3.1.2h0a2.2,2.2,0,0,1-.2,3.1h0a2,2,0,0,1-1.5.6h0A2.1,2.1,0,0,1,268.6,90.8Zm-9.5-9.3a2.2,2.2,0,0,1-.2-3.1h0a2.2,2.2,0,0,1,3.1-.2h0a2.1,2.1,0,0,1,.2,3.1h0a2.1,2.1,0,0,1-1.6.8h0A2.4,2.4,0,0,1,259.1,81.5Z"/><path class="cls-1" d="M249.8,73.8a2.2,2.2,0,0,1-1.5-.6,2.4,2.4,0,0,1-.7-1.6,7046202863960,7046202863960,0,0,1,.2-.8c.1-.1.1-.3.2-.4l.3-.3a2.1,2.1,0,0,1,3.1,0l.3.3c.1.1.1.3.2.4s.1.3.1.4v.4a2.4,2.4,0,0,1-.7,1.6A2.3,2.3,0,0,1,249.8,73.8Z"/><path class="cls-1" d="M52.5,294.3h-.4l-.4-.2-.4-.2-.3-.2-.3-.4a.5.5,0,0,1-.2-.4c-.1-.1-.1-.2-.1-.4a.8.8,0,0,1,0-.8c0-.2,0-.3.1-.4a.5.5,0,0,1,.2-.4l.3-.4.3-.2a.5.5,0,0,1,.4-.2l.4-.2a2.4,2.4,0,0,1,2,.6l.3.4c0,.1.1.2.2.4s.1.2.1.4v.4a2.1,2.1,0,0,1-2.2,2.2Z"/><path class="cls-1" d="M41.9,283.8h0a2.2,2.2,0,0,1,.2-3.1h0a2.1,2.1,0,0,1,3.1.3h0a2.2,2.2,0,0,1-.2,3.1h0a2.5,2.5,0,0,1-1.5.5h0A1.8,1.8,0,0,1,41.9,283.8Zm-8.3-10.4h-.1a2.2,2.2,0,0,1,.5-3.1h0a2.2,2.2,0,0,1,3.1.5h0a2.1,2.1,0,0,1-.5,3h0a2.1,2.1,0,0,1-1.3.5h0A2.4,2.4,0,0,1,33.6,273.4Zm-7.5-11.1a2.2,2.2,0,0,1,.7-3.1h0a2.2,2.2,0,0,1,3,.7h0a2.4,2.4,0,0,1-.7,3.1h0a2.7,2.7,0,0,1-1.2.3h0A2.2,2.2,0,0,1,26.1,262.3Zm-6.7-11.7a2.2,2.2,0,0,1,1-2.9h0a2.2,2.2,0,0,1,3,.9h0a2.3,2.3,0,0,1-1,3h0l-1,.2h0A2.2,2.2,0,0,1,19.4,250.6Zm-5.7-12.1a2.3,2.3,0,0,1,1.2-2.9h0a2.3,2.3,0,0,1,2.9,1.2h0a2.2,2.2,0,0,1-1.2,2.9h0l-.8.2h0A2.3,2.3,0,0,1,13.7,238.5ZM9,226H9a2.2,2.2,0,0,1,1.4-2.8h0a2.2,2.2,0,0,1,2.8,1.4h0a2.2,2.2,0,0,1-1.4,2.8h-.7A2.3,2.3,0,0,1,9,226ZM5.2,213.2h0a2.2,2.2,0,0,1,1.6-2.7h0a2.2,2.2,0,0,1,2.7,1.6h0a2.2,2.2,0,0,1-1.6,2.7H7.4A2.2,2.2,0,0,1,5.2,213.2ZM2.5,200.1h0a2.3,2.3,0,0,1,1.8-2.6h0a2.2,2.2,0,0,1,2.5,1.8h0A2.3,2.3,0,0,1,5,201.9H4.6A2.1,2.1,0,0,1,2.5,200.1ZM.7,186.8h0a2.2,2.2,0,0,1,2-2.4h0a2.2,2.2,0,0,1,2.4,2h0a2.2,2.2,0,0,1-2,2.4H2.9A2.3,2.3,0,0,1,.7,186.8ZM0,173.4a2.2,2.2,0,0,1,2.2-2.2h0a2.2,2.2,0,0,1,2.2,2.2h0a2.2,2.2,0,0,1-2.2,2.2h0A2.2,2.2,0,0,1,0,173.4Zm2.4-11A2.2,2.2,0,0,1,.3,160h0a2.1,2.1,0,0,1,2.3-2h0a2.2,2.2,0,0,1,2.1,2.3h0a2.2,2.2,0,0,1-2.2,2.1H2.4Zm1.1-13.2a2.2,2.2,0,0,1-1.9-2.5h0a2.3,2.3,0,0,1,2.5-1.9h0A2.3,2.3,0,0,1,6,147.3H6a2.2,2.2,0,0,1-2.2,1.9H3.5Zm2.1-13a2.4,2.4,0,0,1-1.7-2.7h0a2.2,2.2,0,0,1,2.6-1.6h0a2.1,2.1,0,0,1,1.7,2.6h0a2.1,2.1,0,0,1-2.1,1.7H5.6Zm3.1-12.9a2.1,2.1,0,0,1-1.4-2.7h0a2.1,2.1,0,0,1,2.7-1.5h0a2.2,2.2,0,0,1,1.5,2.7h0a2.2,2.2,0,0,1-2.1,1.6H8.7Zm4.2-12.5a2.2,2.2,0,0,1-1.3-2.9h0a2.2,2.2,0,0,1,2.8-1.3h0a2.3,2.3,0,0,1,1.3,2.9h0a2.2,2.2,0,0,1-2.1,1.4h-.7Zm5-12.2a2.3,2.3,0,0,1-1-3h0a2.2,2.2,0,0,1,2.9-1h0a2.2,2.2,0,0,1,1.1,2.9h0a2.3,2.3,0,0,1-2,1.3h0Zm6-11.8a2.3,2.3,0,0,1-.8-3h0a2.2,2.2,0,0,1,3-.8h0a2.1,2.1,0,0,1,.8,3h0A2.1,2.1,0,0,1,25,87.1h0Zm6.9-11.3a2.3,2.3,0,0,1-.6-3.1h0a2.2,2.2,0,0,1,3.1-.5h0a2.1,2.1,0,0,1,.6,3h0a2,2,0,0,1-1.8,1h0A2,2,0,0,1,30.8,75.5Zm7.7-10.7a2.3,2.3,0,0,1-.3-3.1h0a2.2,2.2,0,0,1,3.1-.4h0a2.3,2.3,0,0,1,.4,3.2h0a2.5,2.5,0,0,1-1.8.8h0A2.7,2.7,0,0,1,38.5,64.8Zm8.6-10.1a2.1,2.1,0,0,1-.1-3.1h0a2.1,2.1,0,0,1,3.1-.1h0a2.2,2.2,0,0,1,.1,3.1h0a2,2,0,0,1-1.6.7h0A2.2,2.2,0,0,1,47.1,54.7Zm9.3-9.4a2.1,2.1,0,0,1,.1-3.1h0a2.1,2.1,0,0,1,3.1.1h0a2.2,2.2,0,0,1-.1,3.1h0A2.2,2.2,0,0,1,58,46h0A2,2,0,0,1,56.4,45.3Zm9.9-8.7a2.3,2.3,0,0,1,.4-3.1h0a2.2,2.2,0,0,1,3.1.4h0a2.1,2.1,0,0,1-.4,3.1h0a2.4,2.4,0,0,1-1.3.5h0A2.3,2.3,0,0,1,66.3,36.6Zm10.6-7.9a2.2,2.2,0,0,1,.6-3h0a2.2,2.2,0,0,1,3.1.6h0a2.1,2.1,0,0,1-.6,3h0a1.9,1.9,0,0,1-1.2.4h0A2.3,2.3,0,0,1,76.9,28.7Zm11.2-7a2.2,2.2,0,0,1,.9-3h0a2.2,2.2,0,0,1,3,.8h0a2.2,2.2,0,0,1-.9,3h0a2,2,0,0,1-1.1.3h0A2.3,2.3,0,0,1,88.1,21.7Zm11.7-6.2a2.2,2.2,0,0,1,1.1-2.9h0a2.1,2.1,0,0,1,2.9,1h0a2.3,2.3,0,0,1-1.1,3h0l-.9.2h0A2.3,2.3,0,0,1,99.8,15.5Zm12.1-5.3a2.2,2.2,0,0,1,1.3-2.8h0a2.3,2.3,0,0,1,2.9,1.3h0a2.2,2.2,0,0,1-1.3,2.8h0l-.8.2h0A2.4,2.4,0,0,1,111.9,10.2Zm12.5-4.3a2.3,2.3,0,0,1,1.5-2.7h0a2.4,2.4,0,0,1,2.8,1.5h0a2.4,2.4,0,0,1-1.5,2.8h-.7A2.2,2.2,0,0,1,124.4,5.9Z"/><path class="cls-1" d="M139.4,4.4a2.1,2.1,0,0,1-1.5-.7l-.3-.3a.8.8,0,0,1-.2-.4.6.6,0,0,1-.1-.4.6.6,0,0,1-.1-.4.9.9,0,0,1,.1-.5.8.8,0,0,1,.1-.4c0-.1.1-.2.2-.3l.3-.4a2.3,2.3,0,0,1,3.1,0l.3.4c0,.1.1.2.2.3s.1.3.1.4v.5a2,2,0,0,1-.6,1.5A2.4,2.4,0,0,1,139.4,4.4Z"/><path class="cls-1" d="M270.2,315.3a2,2,0,0,1-1.6-.7c-.1,0-.2-.2-.3-.3s-.1-.2-.2-.4-.1-.2-.1-.4v-.8c0-.2.1-.3.1-.5l.2-.3.3-.4a2.4,2.4,0,0,1,2-.6h.4l.4.3.3.2.3.4.2.3a.9.9,0,0,1,.1.5c.1.1.1.2.1.4a2.1,2.1,0,0,1-.7,1.5c-.1.2-.2.2-.3.3l-.4.2-.4.2Z"/><path class="cls-1" d="M168.8,342.4a2.2,2.2,0,0,1,2.3-2.2h0a2.2,2.2,0,0,1,2.1,2.3h0a2.1,2.1,0,0,1-2.2,2.1h0A2.2,2.2,0,0,1,168.8,342.4Zm13.1-.1a2.4,2.4,0,0,1,2.1-2.4h0a2.2,2.2,0,0,1,2.3,2.1h0a2.2,2.2,0,0,1-2,2.4h-.2A2.3,2.3,0,0,1,181.9,342.3Zm-24.2,1.6h0a2.2,2.2,0,0,1-2-2.4h0a2.2,2.2,0,0,1,2.4-2h0a2.2,2.2,0,0,1,2,2.4h0a2.3,2.3,0,0,1-2.2,2h-.2Zm37.3-2.7a2.3,2.3,0,0,1,1.9-2.5h0a2.3,2.3,0,0,1,2.5,1.9h0a2.2,2.2,0,0,1-1.9,2.5h-.3A2.2,2.2,0,0,1,195,341.2Zm-50.5,1h0a2.3,2.3,0,0,1-1.8-2.6h0a2.3,2.3,0,0,1,2.6-1.8h0a2.2,2.2,0,0,1,1.8,2.6h0a2.3,2.3,0,0,1-2.2,1.8h-.4Zm63.5-3.1a2.1,2.1,0,0,1,1.7-2.6h0a2.2,2.2,0,0,1,2.6,1.7h0a2.2,2.2,0,0,1-1.7,2.6h-.5A2.1,2.1,0,0,1,208,339.1Zm-76.5.3a2.2,2.2,0,0,1-1.6-2.7h0a2.3,2.3,0,0,1,2.7-1.6h0a2.2,2.2,0,0,1,1.6,2.7h0a2.3,2.3,0,0,1-2.1,1.7h-.6Zm89.2-3.4a2.3,2.3,0,0,1,1.5-2.7h0a2.3,2.3,0,0,1,2.8,1.5h0a2.1,2.1,0,0,1-1.5,2.7h-.6A2.2,2.2,0,0,1,220.7,336Zm-101.9-.3a2.2,2.2,0,0,1-1.4-2.8h0a2.1,2.1,0,0,1,2.8-1.4h0a2.2,2.2,0,0,1,1.3,2.8h0a2.2,2.2,0,0,1-2.1,1.5h-.6ZM233.2,332a2.2,2.2,0,0,1,1.3-2.8h0a2.2,2.2,0,0,1,2.9,1.2h0a2.3,2.3,0,0,1-1.3,2.9h-.8A2.3,2.3,0,0,1,233.2,332Zm12.2-5a2.1,2.1,0,0,1,1-2.9h0a2.3,2.3,0,0,1,3,1h0a2.3,2.3,0,0,1-1.1,3h0l-.9.2h0A2.1,2.1,0,0,1,245.4,327Zm11.7-5.9a2.3,2.3,0,0,1,.8-3h0a2.2,2.2,0,0,1,3,.8h0a2.1,2.1,0,0,1-.8,3h0a2,2,0,0,1-1.1.3h0A2.1,2.1,0,0,1,257.1,321.1Z"/><path class="cls-1" d="M107.2,331.1a2.3,2.3,0,0,1-1.6-.6l-.3-.3c-.1-.2-.1-.3-.2-.4s-.1-.3-.1-.4v-.5a2.2,2.2,0,0,1,.6-1.5,2.3,2.3,0,0,1,3.1,0,2.3,2.3,0,0,1,.7,1.5.9.9,0,0,1-.1.5.8.8,0,0,1-.1.4c-.1.1-.1.2-.2.4l-.3.3A2.2,2.2,0,0,1,107.2,331.1Z"/><path class="cls-1" d="M263.2,119.6a2.1,2.1,0,0,1-1.9-1.1c-1.7-2.9-3.6-5.7-5.5-8.4s-4.1-5.3-6.3-7.8-4.6-4.8-7-7.1a2.2,2.2,0,0,1-.1-3.1,2.1,2.1,0,0,1,3.1-.1,102.1,102.1,0,0,1,7.3,7.4,100.2,100.2,0,0,1,6.5,8.1,102.8,102.8,0,0,1,5.8,8.8,2.2,2.2,0,0,1-1.9,3.3Z"/><path class="cls-1" d="M274.9,148.4a2.1,2.1,0,0,1-2.1-1.7c-.9-3.3-1.8-6.6-3-9.8a2.2,2.2,0,0,1,4.2-1.5,93.2,93.2,0,0,1,3,10.3,2.2,2.2,0,0,1-1.6,2.7Z"/></g></g></svg>