<svg xmlns="http://www.w3.org/2000/svg" viewBox="0 0 380.6 355.5"><defs><style>.cls-1{fill:#ffa726;}</style></defs><title>Asset 135</title><g id="Layer_2" data-name="Layer 2"><g id="Layer_1-2" data-name="Layer 1"><path class="cls-1" d="M322.8,353a2.5,2.5,0,0,1,2.5-2.5h0a2.5,2.5,0,0,1,2.5,2.5h0a2.5,2.5,0,0,1-2.5,2.5h0A2.6,2.6,0,0,1,322.8,353Zm-20,0a2.5,2.5,0,0,1,2.5-2.5h0a2.5,2.5,0,0,1,2.5,2.5h0a2.6,2.6,0,0,1-2.5,2.5h0A2.5,2.5,0,0,1,302.8,353Zm-20.1,0a2.5,2.5,0,0,1,2.5-2.5h0a2.5,2.5,0,0,1,2.5,2.5h0a2.5,2.5,0,0,1-2.5,2.5h0A2.5,2.5,0,0,1,282.7,353Zm-20.1,0a2.5,2.5,0,0,1,2.5-2.5h0a2.5,2.5,0,0,1,2.5,2.5h0a2.5,2.5,0,0,1-2.5,2.5h0A2.5,2.5,0,0,1,262.6,353Zm-20,0a2.5,2.5,0,0,1,2.5-2.5h0a2.5,2.5,0,0,1,2.5,2.5h0a2.6,2.6,0,0,1-2.5,2.5h0A2.5,2.5,0,0,1,242.6,353Zm-20.1,0a2.5,2.5,0,0,1,2.5-2.5h0a2.5,2.5,0,0,1,2.5,2.5h0a2.5,2.5,0,0,1-2.5,2.5h0A2.5,2.5,0,0,1,222.5,353Zm-20.1,0a2.5,2.5,0,0,1,2.5-2.5h0a2.5,2.5,0,0,1,2.5,2.5h0a2.5,2.5,0,0,1-2.5,2.5h0A2.5,2.5,0,0,1,202.4,353Zm-20.1,0a2.5,2.5,0,0,1,2.5-2.5h0a2.5,2.5,0,0,1,2.5,2.5h0a2.5,2.5,0,0,1-2.5,2.5h0A2.6,2.6,0,0,1,182.3,353Zm-20,0a2.5,2.5,0,0,1,2.5-2.5h0a2.5,2.5,0,0,1,2.5,2.5h0a2.6,2.6,0,0,1-2.5,2.5h0A2.5,2.5,0,0,1,162.3,353Zm-20.1,0a2.5,2.5,0,0,1,2.5-2.5h0a2.5,2.5,0,0,1,2.5,2.5h0a2.5,2.5,0,0,1-2.5,2.5h0A2.5,2.5,0,0,1,142.2,353Zm-20.1,0a2.5,2.5,0,0,1,2.5-2.5h0a2.5,2.5,0,0,1,2.5,2.5h0a2.5,2.5,0,0,1-2.5,2.5h0A2.5,2.5,0,0,1,122.1,353Zm-20,0a2.5,2.5,0,0,1,2.5-2.5h0a2.5,2.5,0,0,1,2.5,2.5h0a2.6,2.6,0,0,1-2.5,2.5h0A2.5,2.5,0,0,1,102.1,353ZM82,353a2.5,2.5,0,0,1,2.5-2.5h0A2.5,2.5,0,0,1,87,353h0a2.5,2.5,0,0,1-2.5,2.5h0A2.5,2.5,0,0,1,82,353Zm-20.1,0a2.5,2.5,0,0,1,2.5-2.5h0a2.5,2.5,0,0,1,2.5,2.5h0a2.5,2.5,0,0,1-2.5,2.5h0A2.5,2.5,0,0,1,61.9,353Zm-17.7,2.4a2.5,2.5,0,0,1-2.4-2.6h0a2.6,2.6,0,0,1,2.6-2.4h0a2.5,2.5,0,0,1,2.4,2.6h0a2.4,2.4,0,0,1-2.5,2.4h-.1Zm298.7-3.3a2.4,2.4,0,0,1,1.7-3h0a2.5,2.5,0,0,1,3.1,1.7h0a2.6,2.6,0,0,1-1.8,3.1h-.6A2.5,2.5,0,0,1,342.9,352.1ZM24,349.9a2.5,2.5,0,0,1-1-3.4h0a2.4,2.4,0,0,1,3.3-1h0a2.5,2.5,0,0,1,1.1,3.4h0a2.7,2.7,0,0,1-2.2,1.3h0A2.4,2.4,0,0,1,24,349.9Zm336.9-6.1a2.5,2.5,0,0,1,.3-3.6h0a2.4,2.4,0,0,1,3.5.3h0a2.5,2.5,0,0,1-.2,3.5h0a2.7,2.7,0,0,1-1.7.6h0A2.7,2.7,0,0,1,360.9,343.8ZM8.2,336h0a2.5,2.5,0,0,1,.6-3.5h0a2.5,2.5,0,0,1,3.5.6h0a2.4,2.4,0,0,1-.6,3.4h0a1.9,1.9,0,0,1-1.4.5h0A2.5,2.5,0,0,1,8.2,336Zm365.3-7.7a2.6,2.6,0,0,1-1.3-3.3h0a2.6,2.6,0,0,1,3.3-1.3h0a2.5,2.5,0,0,1,1.3,3.3h0a2.5,2.5,0,0,1-2.3,1.5h0ZM0,316.6a2.6,2.6,0,0,1,2.1-2.9h0a2.6,2.6,0,0,1,2.9,2H5a2.5,2.5,0,0,1-2.1,2.9H2.5A2.6,2.6,0,0,1,0,316.6Zm375.6-10h0a2.6,2.6,0,0,1,2.4-2.7h0a2.5,2.5,0,0,1,2.6,2.4h0a2.4,2.4,0,0,1-2.4,2.6h-.1A2.5,2.5,0,0,1,375.6,306.6ZM2.9,298.7a2.4,2.4,0,0,1-1.7-3.1h0a2.5,2.5,0,0,1,3.1-1.7h0A2.6,2.6,0,0,1,6,297H6a2.6,2.6,0,0,1-2.4,1.8H2.9Zm367.6-10.2c-.1,0-.1,0-.1-.1h0a2.6,2.6,0,0,1,1-3.4h0a2.6,2.6,0,0,1,3.4,1h0a2.5,2.5,0,0,1-.9,3.4h0a2.7,2.7,0,0,1-1.2.3h0A2.5,2.5,0,0,1,370.5,288.5ZM11,280.5a2.5,2.5,0,0,1-.9-3.4h0a2.4,2.4,0,0,1,3.4-1h0a2.5,2.5,0,0,1,.9,3.4h0a2.5,2.5,0,0,1-2.2,1.3h0A2.7,2.7,0,0,1,11,280.5Zm349.8-9.7a2.4,2.4,0,0,1,1-3.4h0a2.4,2.4,0,0,1,3.3,1h0a2.5,2.5,0,0,1-.9,3.4h0a2.7,2.7,0,0,1-1.2.3h0A2.5,2.5,0,0,1,360.8,270.8ZM20.7,262.9a2.6,2.6,0,0,1-1-3.4h0a2.5,2.5,0,0,1,3.4-1h0a2.5,2.5,0,0,1,1,3.4h0a2.6,2.6,0,0,1-2.2,1.3h0A2.7,2.7,0,0,1,20.7,262.9Zm330.4-9.7a2.5,2.5,0,0,1,1-3.4h0a2.6,2.6,0,0,1,3.4,1h0a2.5,2.5,0,0,1-1,3.4h0a2.7,2.7,0,0,1-1.2.3h0A2.6,2.6,0,0,1,351.1,253.2ZM30.4,245.3a2.4,2.4,0,0,1-1-3.4h0a2.4,2.4,0,0,1,3.4-1h0a2.5,2.5,0,0,1,.9,3.4h0a2.4,2.4,0,0,1-2.1,1.3h0A2.1,2.1,0,0,1,30.4,245.3Zm311.1-9.7a2.5,2.5,0,0,1,.9-3.4h0a2.5,2.5,0,0,1,3.4,1h0a2.4,2.4,0,0,1-1,3.4h0a2.1,2.1,0,0,1-1.2.3h0A2.3,2.3,0,0,1,341.5,235.6ZM40,227.7a2.6,2.6,0,0,1-1-3.4h0a2.5,2.5,0,0,1,3.4-1h0a2.5,2.5,0,0,1,1,3.4h0a2.6,2.6,0,0,1-2.2,1.3h0A2.7,2.7,0,0,1,40,227.7ZM331.8,218a2.5,2.5,0,0,1,1-3.4h0a2.6,2.6,0,0,1,3.4,1h0a2.6,2.6,0,0,1-1,3.4h0l-1.2.3h0A2.4,2.4,0,0,1,331.8,218ZM49.7,210.1a2.5,2.5,0,0,1-1-3.4h0a2.5,2.5,0,0,1,3.4-1h0a2.6,2.6,0,0,1,1,3.4h0a2.7,2.7,0,0,1-2.2,1.3h0A2.4,2.4,0,0,1,49.7,210.1Zm272.4-9.7a2.6,2.6,0,0,1,1-3.4h0a2.6,2.6,0,0,1,3.4,1h0a2.4,2.4,0,0,1-1,3.4h0a2.4,2.4,0,0,1-1.2.3h0A2.5,2.5,0,0,1,322.1,200.4ZM59.3,192.5a2.6,2.6,0,0,1-1-3.4h0a2.5,2.5,0,0,1,3.4-1h0a2.5,2.5,0,0,1,1,3.4h0a2.5,2.5,0,0,1-2.2,1.3h0Zm253.2-9.7a2.5,2.5,0,0,1,1-3.4h0a2.6,2.6,0,0,1,3.4,1h0a2.6,2.6,0,0,1-1,3.4h0l-1.2.3h0A2.4,2.4,0,0,1,312.5,182.8ZM69,174.9a2.5,2.5,0,0,1-1-3.4h0a2.5,2.5,0,0,1,3.4-1h0a2.6,2.6,0,0,1,1,3.4h0a2.6,2.6,0,0,1-2.2,1.3h0A2.4,2.4,0,0,1,69,174.9Zm233.8-9.7a2.6,2.6,0,0,1,1-3.4h0a2.6,2.6,0,0,1,3.4,1h0a2.5,2.5,0,0,1-1,3.4h0a2.4,2.4,0,0,1-1.2.3h0A2.5,2.5,0,0,1,302.8,165.2ZM78.6,157.3a2.6,2.6,0,0,1-1-3.4h0a2.5,2.5,0,0,1,3.4-1h0a2.5,2.5,0,0,1,1,3.4h0a2.5,2.5,0,0,1-2.2,1.3h0Zm214.6-9.7a2.5,2.5,0,0,1,1-3.4h0a2.6,2.6,0,0,1,3.4,1h0a2.6,2.6,0,0,1-1,3.4h0a2.7,2.7,0,0,1-1.2.3h0A2.3,2.3,0,0,1,293.2,147.6ZM88.3,139.7a2.5,2.5,0,0,1-1-3.4h0a2.6,2.6,0,0,1,3.4-1h0a2.6,2.6,0,0,1,1,3.4h0a2.6,2.6,0,0,1-2.2,1.3h0A2.7,2.7,0,0,1,88.3,139.7ZM283.5,130a2.4,2.4,0,0,1,1-3.3h0a2.4,2.4,0,0,1,3.4.9h0a2.4,2.4,0,0,1-1,3.4h0a2.7,2.7,0,0,1-1.2.3h0A2.4,2.4,0,0,1,283.5,130ZM97.9,122.1a2.6,2.6,0,0,1-1-3.4h0a2.6,2.6,0,0,1,3.4-1h0a2.5,2.5,0,0,1,1,3.4h0a2.5,2.5,0,0,1-2.2,1.3h0A2.7,2.7,0,0,1,97.9,122.1Zm176-9.7a2.4,2.4,0,0,1,1-3.3h0a2.5,2.5,0,0,1,3.4.9h0a2.5,2.5,0,0,1-1,3.4h0l-1.2.3h0A2.3,2.3,0,0,1,273.9,112.4Zm-166.3-7.9a2.5,2.5,0,0,1-1-3.4h0a2.6,2.6,0,0,1,3.4-1h0a2.6,2.6,0,0,1,1,3.4h0a2.6,2.6,0,0,1-2.2,1.3h0A2.7,2.7,0,0,1,107.6,104.5Zm156.6-9.6a2.5,2.5,0,0,1,1-3.4h0a2.5,2.5,0,0,1,3.4.9h0a2.4,2.4,0,0,1-1,3.4h0a2.7,2.7,0,0,1-1.2.3h0A2.5,2.5,0,0,1,264.2,94.9Zm-147-8a2.6,2.6,0,0,1-1-3.4h0a2.6,2.6,0,0,1,3.4-1h0a2.5,2.5,0,0,1,1,3.4h0a2.5,2.5,0,0,1-2.2,1.3h0Zm137.4-9.6a2.4,2.4,0,0,1,1-3.4h0a2.5,2.5,0,0,1,3.4.9h0a2.5,2.5,0,0,1-1,3.4h0a1.9,1.9,0,0,1-1.2.4h0A2.5,2.5,0,0,1,254.6,77.3Zm-127.7-8a2.5,2.5,0,0,1-1-3.4h0a2.6,2.6,0,0,1,3.4-1h0a2.6,2.6,0,0,1,1,3.4h0a2.4,2.4,0,0,1-2.2,1.3h0A2.7,2.7,0,0,1,126.9,69.3Zm118-9.6a2.5,2.5,0,0,1,1-3.4h0a2.4,2.4,0,0,1,3.4,1h0a2.4,2.4,0,0,1-1,3.3h0a1.9,1.9,0,0,1-1.2.4h0A2.6,2.6,0,0,1,244.9,59.7Zm-108.4-8a2.4,2.4,0,0,1-.9-3.4h0a2.4,2.4,0,0,1,3.3-1h0a2.4,2.4,0,0,1,1,3.4h0a2.3,2.3,0,0,1-2.2,1.3h0Zm98.8-9.6a2.4,2.4,0,0,1,1-3.4h0a2.4,2.4,0,0,1,3.4,1h0a2.6,2.6,0,0,1-1,3.4h0a2.7,2.7,0,0,1-1.2.3h0A2.5,2.5,0,0,1,235.3,42.1Zm-89.1-8a2.5,2.5,0,0,1-1-3.4h0a2.6,2.6,0,0,1,3.4-1h0a2.5,2.5,0,0,1,1,3.4h0a2.4,2.4,0,0,1-2.2,1.3h0A2.7,2.7,0,0,1,146.2,34.1Zm79.4-9.5h0a2.5,2.5,0,0,1,.9-3.4h0a2.4,2.4,0,0,1,3.4.8h0a2.5,2.5,0,0,1-.8,3.4h0a2.2,2.2,0,0,1-1.3.4h0A2.5,2.5,0,0,1,225.6,24.6Zm-68.9-7.5a2.5,2.5,0,0,1,0-3.6h0a2.4,2.4,0,0,1,3.5,0h0a2.4,2.4,0,0,1,0,3.5h0a2.5,2.5,0,0,1-1.8.8h0A2.8,2.8,0,0,1,156.7,17.1Zm55.8-5.9a2.6,2.6,0,0,1-.8-3.5h0a2.6,2.6,0,0,1,3.5-.7h0a2.4,2.4,0,0,1,.7,3.4h0a2.2,2.2,0,0,1-2.1,1.2h0A2.2,2.2,0,0,1,212.5,11.2ZM172.9,5.5a2.6,2.6,0,0,1,1.6-3.2h0a2.5,2.5,0,0,1,3.1,1.6h0A2.3,2.3,0,0,1,176.1,7h0l-.8.2h0A2.6,2.6,0,0,1,172.9,5.5ZM194.8,5h0a2.5,2.5,0,0,1-2.2-2.8h0A2.5,2.5,0,0,1,195.3,0h0a2.5,2.5,0,0,1,2.2,2.8h0A2.4,2.4,0,0,1,195.1,5h-.3Z"/><path class="cls-1" d="M329.6,340.1H50.3a36.7,36.7,0,0,1-32.1-54.3L157.8,31.2a36.7,36.7,0,0,1,64.3,0L361.8,285.8a36.7,36.7,0,0,1-32.2,54.3ZM190,17.2a31.3,31.3,0,0,0-27.8,16.4L22.6,288.2a31.7,31.7,0,0,0,27.7,46.9H329.6a31.7,31.7,0,0,0,27.8-46.9L217.7,33.6A31.1,31.1,0,0,0,190,17.2Z"/><path class="cls-1" d="M321.1,316.1H58.9a17.6,17.6,0,0,1-15.4-26l131.1-239A17.3,17.3,0,0,1,190,42h0a17.3,17.3,0,0,1,15.4,9.1l131.1,239h0a17.6,17.6,0,0,1-15.4,26ZM190,47a12.2,12.2,0,0,0-11,6.5L47.8,292.5a12.7,12.7,0,0,0,.3,12.5,12.4,12.4,0,0,0,10.8,6.1H321.1a12.5,12.5,0,0,0,11-18.6L201,53.5A12.3,12.3,0,0,0,190,47Z"/><path class="cls-1" d="M190,296.9A24,24,0,1,1,213.9,273,24,24,0,0,1,190,296.9Zm0-42.9a19,19,0,1,0,18.9,19A19,19,0,0,0,190,254Z"/><path class="cls-1" d="M202.7,234.6H177.3a8.4,8.4,0,0,1-8.5-8.3l-3.6-115.1a10.8,10.8,0,0,1,3-7.8,10.9,10.9,0,0,1,7.8-3.3h28a10.7,10.7,0,0,1,7.7,3.3,10.9,10.9,0,0,1,3.1,7.8l-3.6,115.1A8.5,8.5,0,0,1,202.7,234.6ZM176,105.1a5.6,5.6,0,0,0-4.2,1.8,5.8,5.8,0,0,0-1.6,4.2l3.6,115.1a3.5,3.5,0,0,0,3.5,3.4h25.4a3.5,3.5,0,0,0,3.5-3.4l3.6-115.1a5.9,5.9,0,0,0-1.7-4.2,5.4,5.4,0,0,0-4.1-1.8Z"/></g></g></svg>