<svg xmlns="http://www.w3.org/2000/svg" viewBox="0 0 523.9 345.7"><defs><style>.cls-1{opacity:0.92;}.cls-2{fill:#607D8B;}</style></defs><title>Asset 114</title><g id="Layer_2" data-name="Layer 2"><g id="Layer_1-2" data-name="Layer 1"><g class="cls-1"><path class="cls-2" d="M371.9,196.1h0Z"/></g><g class="cls-1"><path class="cls-2" d="M371.8,196.1Z"/></g><polygon class="cls-2" points="389.6 206.9 409 187.5 409 187.5 389.6 206.9"/><path class="cls-2" d="M261.9,345.7a39.9,39.9,0,0,1-39.4-45.3,39.8,39.8,0,0,1,33.7-34,41.4,41.4,0,0,1,15.3.8L377.1,161.6a193,193,0,0,0-93.5-36.7V152c0,11.4-8.5,21.2-19.5,22.3a21.6,21.6,0,0,1-23.8-21.6V124.9a192,192,0,0,0-93.5,36.7l4.7,4.7c8.1,8.1,8.9,21,2,29.5a21.7,21.7,0,0,1-32.2,1.7l-6.3-6.4a192.6,192.6,0,0,0-43.9,92.1H91.3c11.4,0,21.2,8.5,22.3,19.5A21.8,21.8,0,0,1,92,326.6H27A27.1,27.1,0,0,1,.1,297.3C10.4,161.4,125.4,54.9,261.9,54.9a262.9,262.9,0,0,1,165.2,58.9,2.6,2.6,0,0,1,.4,3.6,2.5,2.5,0,0,1-3.5.3A258.5,258.5,0,0,0,261.9,59.9C128,59.9,15.2,164.4,5.1,297.7A22.1,22.1,0,0,0,27,321.6H92a16.7,16.7,0,0,0,16.6-18.4c-.8-8.4-8.4-15-17.3-15H68.2a2.2,2.2,0,0,1-1.9-.9,2.4,2.4,0,0,1-.6-2A197.6,197.6,0,0,1,113,185.8a2.5,2.5,0,0,1,1.8-.8,2.1,2.1,0,0,1,1.8.7l8.3,8.2a16.1,16.1,0,0,0,12.6,4.9,16.8,16.8,0,0,0,12.1-6.1c5.4-6.6,4.6-16.6-1.6-22.9l-6.8-6.7a2.4,2.4,0,0,1-.7-2,2.4,2.4,0,0,1,.9-1.8,198.4,198.4,0,0,1,101.1-39.7,2.6,2.6,0,0,1,1.9.7,2.1,2.1,0,0,1,.9,1.8v30.6a16.5,16.5,0,0,0,18.4,16.6c8.3-.9,14.9-8.5,14.9-17.3V122.1a2.3,2.3,0,0,1,.8-1.8,3.1,3.1,0,0,1,2-.7,198.1,198.1,0,0,1,101,39.7,2.2,2.2,0,0,1,1,1.8,2.4,2.4,0,0,1-.7,2L274,271.7a2.4,2.4,0,0,1-2.4.7,34.8,34.8,0,1,0-9.7,68.3,40.2,40.2,0,0,0,6.9-.6,35,35,0,0,0,26.5-24,35.8,35.8,0,0,0,.7-17.5,2.4,2.4,0,0,1,.7-2.3L407.2,185.7a2.6,2.6,0,0,1,1.9-.7,2.5,2.5,0,0,1,1.8.8,197.6,197.6,0,0,1,47.3,99.5,2.4,2.4,0,0,1-.6,2,2.5,2.5,0,0,1-1.9.9H431.9a16.8,16.8,0,0,0-12.4,5.5,16.5,16.5,0,0,0-4.2,12.9c.8,8.4,8.4,15,17.3,15h64.3a22.1,22.1,0,0,0,21.9-23.9c-4.3-56.6-28-111.1-66.7-153.5a2.5,2.5,0,0,1,.1-3.5,2.5,2.5,0,0,1,3.6.2,262.2,262.2,0,0,1,68,156.4,27.2,27.2,0,0,1-26.9,29.3H432.6c-11.4,0-21.2-8.6-22.3-19.5a21.6,21.6,0,0,1,21.6-23.9h20.8a191.6,191.6,0,0,0-43.8-92.1L301.2,298.9a40.5,40.5,0,0,1-1.1,18.6A39.8,39.8,0,0,1,269.7,345,41.1,41.1,0,0,1,261.9,345.7Z"/><path class="cls-2" d="M380.9,163.8a2.3,2.3,0,0,1-1.7-.7,2.5,2.5,0,0,1,0-3.6l82-82.3a2.4,2.4,0,0,1,3.5,0,2.5,2.5,0,0,1,0,3.6l-82,82.3A2.4,2.4,0,0,1,380.9,163.8Z"/><path class="cls-2" d="M474.4,124.6a2.7,2.7,0,0,1-1.8-.8,2.6,2.6,0,0,1,0-3.5l16.1-16.1a2.5,2.5,0,0,1,3.6,0,2.7,2.7,0,0,1,0,3.6l-16.1,16A2.5,2.5,0,0,1,474.4,124.6Z"/><path class="cls-2" d="M490.5,108.5a2.6,2.6,0,0,1-1.8-.7l-27.5-27a2.5,2.5,0,0,1,0-3.6,2.5,2.5,0,0,1,3.5,0l27.5,27a2.5,2.5,0,0,1,.1,3.5A2.7,2.7,0,0,1,490.5,108.5Z"/><path class="cls-2" d="M409,190a2.7,2.7,0,0,1-1.8-.8,2.6,2.6,0,0,1,0-3.5l55.5-55.5a2.5,2.5,0,0,1,3.6,0,2.6,2.6,0,0,1,0,3.5l-55.5,55.5A2.5,2.5,0,0,1,409,190Z"/><path class="cls-2" d="M263.4,336.8a31.3,31.3,0,0,1-25-50,2.5,2.5,0,1,1,4,3,26.1,26.1,0,0,0,.1,31.6,26.4,26.4,0,0,0,21.7,10.4,2.5,2.5,0,0,1,2.6,2.4,2.5,2.5,0,0,1-2.4,2.6Z"/><path class="cls-2" d="M434.6,95a2.5,2.5,0,0,1-1.6-.6A258.3,258.3,0,0,0,271,36.6a2.5,2.5,0,0,1-2.5-2.5,2.5,2.5,0,0,1,2.5-2.5,263.2,263.2,0,0,1,165.2,59,2.5,2.5,0,0,1,.3,3.5A2.5,2.5,0,0,1,434.6,95Z"/><path class="cls-2" d="M452,77a2.2,2.2,0,0,1-1.5-.6C393.8,30.4,322.7,5,250.3,5a2.5,2.5,0,0,1-2.5-2.5A2.5,2.5,0,0,1,250.3,0C323.8,0,396,25.8,453.6,72.5A2.4,2.4,0,0,1,454,76,2.6,2.6,0,0,1,452,77Z"/></g></g></svg>