<?xml version="1.0" standalone="no"?>
<!DOCTYPE svg PUBLIC "-//W3C//DTD SVG 20010904//EN"
 "http://www.w3.org/TR/2001/REC-SVG-20010904/DTD/svg10.dtd">
<svg version="1.0" xmlns="http://www.w3.org/2000/svg"
 width="155.000000pt" height="155.000000pt" viewBox="0 0 155.000000 155.000000"
 preserveAspectRatio="xMidYMid meet">
<metadata>
Created by potrace 1.11, written by Peter Selinger 2001-2013
</metadata>
<g transform="translate(0.000000,155.000000) scale(0.100000,-0.100000)"
fill="#000000" stroke="none">
<path d="M697 1544 c-1 -1 -33 -4 -72 -8 -147 -13 -354 -79 -519 -164 l-88
-47 7 -115 c7 -119 12 -171 17 -176 3 -2 289 -167 368 -211 25 -14 90 -51 145
-83 55 -32 118 -68 140 -80 230 -129 265 -152 256 -168 -15 -27 -48 -59 -106
-103 -67 -50 -77 -49 -165 24 -80 65 -157 157 -209 246 -36 60 -47 71 -123
114 -157 89 -173 99 -221 128 -73 45 -78 41 -57 -38 76 -291 260 -549 535
-749 112 -82 148 -104 169 -104 44 0 267 168 377 285 97 103 209 255 209 284
0 20 25 5 -601 360 -325 184 -397 226 -393 233 6 9 152 54 204 63 95 16 250
21 325 10 83 -13 202 -45 270 -73 l70 -29 1 -48 c1 -55 -31 -197 -62 -278 -3
-10 31 -37 105 -86 61 -39 113 -71 116 -71 8 0 80 190 90 239 2 9 8 37 14 63
19 81 25 150 26 258 l0 105 -120 60 c-113 57 -277 117 -354 130 -19 3 -37 7
-40 9 -14 9 -305 28 -314 20z"/>
</g>
</svg>
