<svg xmlns="http://www.w3.org/2000/svg" viewBox="0 0 439.59 385"><defs><style>.cls-1{fill:#FF9800;}</style></defs><title>analysis-alt</title><g id="Layer_2" data-name="Layer 2"><g id="Layer_1-2" data-name="Layer 1"><path class="cls-1" d="M271.36,252.16l-.08-.08Z"/><path class="cls-1" d="M172,267.54a106.15,106.15,0,0,1,75.1-181.2v5A101.15,101.15,0,0,0,175.58,264Z"/><path class="cls-1" d="M320.39,268.28a2.5,2.5,0,0,1-1.77-4.27,101.39,101.39,0,0,0,17.59-23.63,2.5,2.5,0,0,1,4.4,2.37,106.39,106.39,0,0,1-18.46,24.8A2.49,2.49,0,0,1,320.39,268.28Z"/><path class="cls-1" d="M346.65,224a2.5,2.5,0,0,1-2.4-3.2,101.33,101.33,0,0,0,4-28.28,2.5,2.5,0,0,1,5,0A106.29,106.29,0,0,1,349,222.16,2.5,2.5,0,0,1,346.65,224Z"/><path class="cls-1" d="M126.67,312.92A170.32,170.32,0,0,1,247.1,22.17v5A165.32,165.32,0,0,0,130.2,309.38Z"/><path class="cls-1" d="M367.54,312.92,364,309.38a164.24,164.24,0,0,0,48.42-116.9h5A169.2,169.2,0,0,1,367.54,312.92Z"/><path class="cls-1" d="M437.09,195H329.14a2.5,2.5,0,0,1,0-5H434.57a188.78,188.78,0,0,0-3.79-35.29A187.81,187.81,0,0,0,284.89,8.81,188.77,188.77,0,0,0,249.6,5V110.45a2.5,2.5,0,0,1-5,0V2.5A2.5,2.5,0,0,1,247.1,0a193.91,193.91,0,0,1,38.79,3.91A192.53,192.53,0,0,1,435.68,153.73a193.93,193.93,0,0,1,3.91,38.79A2.5,2.5,0,0,1,437.09,195Z"/><path class="cls-1" d="M329.14,195a2.5,2.5,0,0,1-2.5-2.5A79.47,79.47,0,0,0,247.2,113h-.1a2.5,2.5,0,0,1,0-5,84.47,84.47,0,0,1,84.54,84.4s0,.09,0,.14A2.5,2.5,0,0,1,329.14,195Z"/><path class="cls-1" d="M247.1,385a193.91,193.91,0,0,1-38.79-3.91,191.44,191.44,0,0,1-68.83-29A193.77,193.77,0,0,1,111,328.59a2.5,2.5,0,0,1,0-3.54h0l76.33-76.33a2.5,2.5,0,0,1,3.54,3.54l-74.55,74.55a186.86,186.86,0,0,0,93,49.34,190.22,190.22,0,0,0,75.57,0,186.46,186.46,0,0,0,67-28.21,188.89,188.89,0,0,0,26-21.14l-74.55-74.55a2.5,2.5,0,0,1,3.54-3.54L383.22,325a2.5,2.5,0,0,1,0,3.54h0A192.31,192.31,0,0,1,247.1,385Z"/><path class="cls-1" d="M247.1,277a84.28,84.28,0,0,1-59.78-24.76,2.5,2.5,0,1,1,3.54-3.54h0a79.47,79.47,0,0,0,112.39.09l.09-.09a2.5,2.5,0,1,1,3.54,3.54A84.28,84.28,0,0,1,247.1,277Z"/><path class="cls-1" d="M84.84,344.21H2.5a2.5,2.5,0,0,1,0-5H83.8l28.72-28.72a2.5,2.5,0,1,1,3.54,3.54h0L86.6,343.48A2.5,2.5,0,0,1,84.84,344.21Z"/><path class="cls-1" d="M40,334H2.5a2.5,2.5,0,0,1,0-5H40a2.5,2.5,0,0,1,0,5Z"/><path class="cls-1" d="M76.3,334H51.86a2.5,2.5,0,1,1,0-5H76.3a2.5,2.5,0,0,1,0,5Z"/><path class="cls-1" d="M338.89,184.59a2.7,2.7,0,0,1-.49-.05,2.41,2.41,0,0,1-.9-.37,2.92,2.92,0,0,1-.38-.31,2.82,2.82,0,0,1-.31-.38,2.45,2.45,0,0,1-.23-.43,2.52,2.52,0,0,1-.14-.47,2.69,2.69,0,0,1,0-.49,2.51,2.51,0,0,1,3.46-2.31,2.46,2.46,0,0,1,1.12.92,3,3,0,0,1,.23.44,2.52,2.52,0,0,1,.14,1.46,2.52,2.52,0,0,1-.14.47,3.46,3.46,0,0,1-.23.43,2.8,2.8,0,0,1-.31.38,3.77,3.77,0,0,1-.38.31,2.61,2.61,0,0,1-.43.23,2.82,2.82,0,0,1-.47.14A2.7,2.7,0,0,1,338.89,184.59Z"/><path class="cls-1" d="M414.09,182.09a2.5,2.5,0,0,1,2.5-2.5h0a2.5,2.5,0,0,1,2.5,2.5h0a2.5,2.5,0,0,1-2.5,2.5h0A2.5,2.5,0,0,1,414.09,182.09Zm-9.72,0a2.5,2.5,0,0,1,2.5-2.5h0a2.5,2.5,0,0,1,2.5,2.5h0a2.5,2.5,0,0,1-2.5,2.5h0a2.5,2.5,0,0,1-2.51-2.49Zm-9.71,0a2.5,2.5,0,0,1,2.5-2.5h0a2.5,2.5,0,0,1,2.5,2.5h0a2.5,2.5,0,0,1-2.5,2.5h0A2.5,2.5,0,0,1,394.66,182.09Zm-9.71,0a2.5,2.5,0,0,1,2.5-2.5h0a2.5,2.5,0,0,1,2.5,2.5h0a2.5,2.5,0,0,1-2.5,2.5h0a2.5,2.5,0,0,1-2.45-2.5Zm-9.71,0a2.5,2.5,0,0,1,2.5-2.5h0a2.5,2.5,0,0,1,2.5,2.5h0a2.5,2.5,0,0,1-2.5,2.5h0a2.5,2.5,0,0,1-2.5-2.5h0Zm-9.71,0a2.49,2.49,0,0,1,2.48-2.5h0a2.5,2.5,0,0,1,2.5,2.5h0a2.5,2.5,0,0,1-2.5,2.5h0a2.49,2.49,0,0,1-2.5-2.48s0,0,0,0Zm-9.72,0a2.5,2.5,0,0,1,2.5-2.5h0a2.5,2.5,0,0,1,2.5,2.5h0a2.5,2.5,0,0,1-2.5,2.5h0a2.5,2.5,0,0,1-2.5-2.5h0Zm-9.71,0a2.5,2.5,0,0,1,2.5-2.5h0a2.5,2.5,0,0,1,2.5,2.5h0a2.5,2.5,0,0,1-2.5,2.5h0a2.5,2.5,0,0,1-2.5-2.5h0Z"/><path class="cls-1" d="M426.3,184.59a2.55,2.55,0,0,1-1.77-.73,2.89,2.89,0,0,1-.31-.38,2.52,2.52,0,0,1-.23-.43,2.45,2.45,0,0,1-.14-.47,2.43,2.43,0,0,1,0-1,2.36,2.36,0,0,1,.14-.46,2.28,2.28,0,0,1,.23-.44,3.76,3.76,0,0,1,.31-.38,2.54,2.54,0,0,1,2.26-.68,2.76,2.76,0,0,1,.47.14,3.55,3.55,0,0,1,.43.23,3.62,3.62,0,0,1,.38.31,3.76,3.76,0,0,1,.31.38,2.33,2.33,0,0,1,.23.44,2.5,2.5,0,0,1,.14.46,2.7,2.7,0,0,1,0,.49,2.55,2.55,0,0,1-.73,1.77,3.77,3.77,0,0,1-.38.31,2.58,2.58,0,0,1-.43.23,2.78,2.78,0,0,1-.47.14A2,2,0,0,1,426.3,184.59Z"/><path class="cls-1" d="M250.25,240.63a47.44,47.44,0,1,1,44.09-29.78A47.44,47.44,0,0,1,250.25,240.63Zm.05-89.91a42.53,42.53,0,0,0-39.38,26.67h0a42.36,42.36,0,1,0,39.38-26.67Zm0,76.44a34,34,0,1,1,31.57-21.33h0a34,34,0,0,1-31.61,21.33Zm0-63A29,29,0,1,0,277.2,204h0a29,29,0,0,0-26.9-39.77Z"/><path class="cls-1" d="M358.06,251.27a2.5,2.5,0,0,1-.93-.18L302.06,229a2.5,2.5,0,0,1-1.39-3.25l7.72-19.24a2.5,2.5,0,0,1,3.25-1.39l55.07,22.08a2.5,2.5,0,0,1,1.39,3.25l-7.72,19.24a2.5,2.5,0,0,1-2.32,1.57Zm-51.82-26,50.43,20.22,5.85-14.6L312.1,210.7Z"/><path class="cls-1" d="M305.08,224a2.5,2.5,0,0,1-.93-.18l-15.25-6.11a2.5,2.5,0,0,1,1.86-4.64l12.93,5.18,1.9-4.74-12.47-5a2.5,2.5,0,0,1,1.86-4.64l14.79,5.93a2.5,2.5,0,0,1,1.39,3.25l-3.76,9.38a2.5,2.5,0,0,1-2.32,1.57Z"/><path class="cls-1" d="M366.36,249.12a5.22,5.22,0,0,1-2-.38l-3.82-1.53a2.5,2.5,0,0,1,1.86-4.64l3.82,1.53a.41.41,0,0,0,.49-.29l1.59-4a.41.41,0,0,0-.15-.55l-3.82-1.53a2.5,2.5,0,0,1,1.76-4.68l.1,0,3.82,1.53a5.41,5.41,0,0,1,2.93,7l-1.59,4A5.46,5.46,0,0,1,366.36,249.12Z"/><path class="cls-1" d="M377.22,248.2a2.53,2.53,0,0,1-1.77-.73,2.36,2.36,0,0,1-.31-.39,2.2,2.2,0,0,1-.23-.43,2.68,2.68,0,0,1-.14-.46,2.1,2.1,0,0,1,0-.49,2,2,0,0,1,0-.49,2.53,2.53,0,0,1,.14-.47,2.22,2.22,0,0,1,.23-.43,1.94,1.94,0,0,1,.31-.38,2.49,2.49,0,0,1,2.25-.68,2.54,2.54,0,0,1,.47.14,2.25,2.25,0,0,1,.43.23,1.92,1.92,0,0,1,.38.31,1.9,1.9,0,0,1,.31.38,2.27,2.27,0,0,1,.23.43,2.39,2.39,0,0,1,.2,1,2.53,2.53,0,0,1-.74,1.77,3.07,3.07,0,0,1-.38.31,3,3,0,0,1-.43.23,2.55,2.55,0,0,1-.47.14A2.63,2.63,0,0,1,377.22,248.2Z"/><path class="cls-1" d="M426.19,267.56a2.49,2.49,0,0,1-1.42-3.22v0h0A2.51,2.51,0,0,1,428,262.9h0a2.5,2.5,0,0,1,1.41,3.24h0a2.49,2.49,0,0,1-2.33,1.59h0A2.44,2.44,0,0,1,426.19,267.56Zm-10-3.91a2.5,2.5,0,0,1-1.42-3.24h0A2.49,2.49,0,0,1,418,259h0a2.49,2.49,0,0,1,1.42,3.22v0h0a2.49,2.49,0,0,1-2.32,1.59h0a2.39,2.39,0,0,1-.87-.18Zm-10-3.9a2.51,2.51,0,0,1-1.42-3.24h0a2.5,2.5,0,0,1,3.24-1.42h0a2.5,2.5,0,0,1,1.42,3.24h0a2.5,2.5,0,0,1-2.33,1.59h0a2.61,2.61,0,0,1-.86-.17Zm-10-3.91a2.51,2.51,0,0,1-1.42-3.24h0a2.51,2.51,0,0,1,3.24-1.42h0a2.51,2.51,0,0,1,1.42,3.24h0A2.5,2.5,0,0,1,397.1,256h0a2.45,2.45,0,0,1-.84-.17Zm-10-3.91a2.49,2.49,0,0,1-1.42-3.22v0h0a2.49,2.49,0,0,1,3.22-1.42h0a2.49,2.49,0,0,1,1.42,3.22v0h0a2.5,2.5,0,0,1-2.33,1.58h0a2.44,2.44,0,0,1-.82-.17Z"/><path class="cls-1" d="M437.08,271.64a2.57,2.57,0,0,1-.48,0,2.52,2.52,0,0,1-.47-.14,2.19,2.19,0,0,1-.43-.23,2.34,2.34,0,0,1-.38-.31,2.52,2.52,0,0,1-.74-1.77,2.77,2.77,0,0,1,0-.49,2.72,2.72,0,0,1,.38-.9,2.29,2.29,0,0,1,.31-.38,2.58,2.58,0,0,1,3.53,0,2.29,2.29,0,0,1,.31.38,2.72,2.72,0,0,1,.38.9,2.44,2.44,0,0,1,0,1,2.55,2.55,0,0,1-.15.47,2.48,2.48,0,0,1-.23.43,2.26,2.26,0,0,1-.31.38A2.53,2.53,0,0,1,437.08,271.64Z"/><path class="cls-1" d="M303,266.61a2.5,2.5,0,0,1-1.77-.74,1.92,1.92,0,0,1-.31-.38,2.26,2.26,0,0,1-.23-.43,2.62,2.62,0,0,1-.15-.47,2.57,2.57,0,0,1,0-.48,2.18,2.18,0,0,1,.19-1,2.24,2.24,0,0,1,.23-.43,1.93,1.93,0,0,1,.31-.38,2.44,2.44,0,0,1,2.72-.54,2.23,2.23,0,0,1,.43.23,2.44,2.44,0,0,1,.69.69,2.18,2.18,0,0,1,.23.43,2.54,2.54,0,0,1,.15.47,2.39,2.39,0,0,1,0,1,2.55,2.55,0,0,1-.15.47,2.19,2.19,0,0,1-.23.43,2.44,2.44,0,0,1-.69.69,2.25,2.25,0,0,1-.43.23,2.61,2.61,0,0,1-.47.15A2.58,2.58,0,0,1,303,266.61Z"/><path class="cls-1" d="M356.72,321.38a2.52,2.52,0,0,1,0-3.54h0a2.5,2.5,0,0,1,3.54,0h0a2.52,2.52,0,0,1,0,3.54h0a2.53,2.53,0,0,1-1.77.73h0A2.54,2.54,0,0,1,356.72,321.38Zm-6.93-6.94a2.5,2.5,0,0,1,0-3.54h0a2.51,2.51,0,0,1,3.53,0h0a2.5,2.5,0,0,1,0,3.54h0a2.49,2.49,0,0,1-1.77.73h0A2.45,2.45,0,0,1,349.79,314.44Zm-6.94-6.94a2.5,2.5,0,0,1,0-3.54h0a2.5,2.5,0,0,1,3.53,0h0a2.5,2.5,0,0,1,0,3.54h0a2.49,2.49,0,0,1-1.77.73h0A2.47,2.47,0,0,1,342.85,307.5Zm-6.94-6.94a2.49,2.49,0,0,1,0-3.52h0a2.49,2.49,0,0,1,3.52,0h0a2.49,2.49,0,0,1,0,3.52h0a2.45,2.45,0,0,1-1.76.73h0A2.49,2.49,0,0,1,335.91,300.56ZM329,293.62a2.49,2.49,0,0,1,0-3.52h0a2.5,2.5,0,0,1,3.54,0h0a2.5,2.5,0,0,1,0,3.53h0a2.5,2.5,0,0,1-1.77.74h0A2.51,2.51,0,0,1,329,293.62Zm-7-6.93a2.52,2.52,0,0,1,0-3.54h0a2.5,2.5,0,0,1,3.54,0h0a2.52,2.52,0,0,1,0,3.54h0a2.53,2.53,0,0,1-1.77.73h0A2.53,2.53,0,0,1,322,286.69Zm-6.94-6.94a2.52,2.52,0,0,1,0-3.54h0a2.52,2.52,0,0,1,3.54,0h0a2.5,2.5,0,0,1,0,3.54h0a2.49,2.49,0,0,1-1.77.73h0a2.49,2.49,0,0,1-1.74-.73Zm-6.93-6.94a2.49,2.49,0,0,1,0-3.52h0a2.49,2.49,0,0,1,3.52,0h0a2.49,2.49,0,0,1,0,3.52h0a2.49,2.49,0,0,1-1.77.73h0a2.45,2.45,0,0,1-1.73-.73Z"/><path class="cls-1" d="M365.43,329a2.55,2.55,0,0,1-1.77-.73,3.65,3.65,0,0,1-.31-.38,2.56,2.56,0,0,1-.23-.44,2.45,2.45,0,0,1-.12-.5,2.09,2.09,0,0,1,0-.49,2,2,0,0,1,0-.49,2.5,2.5,0,0,1,.14-.47,2.44,2.44,0,0,1,.23-.43,2.78,2.78,0,0,1,.31-.38,2.6,2.6,0,0,1,3.54,0,2.79,2.79,0,0,1,.31.38,3.43,3.43,0,0,1,.23.43,2.5,2.5,0,0,1,.14.47,2.61,2.61,0,0,1,0,.49,2.79,2.79,0,0,1,0,.49,2.45,2.45,0,0,1-.14.46,2.44,2.44,0,0,1-.54.82A2.55,2.55,0,0,1,365.43,329Z"/><path class="cls-1" d="M395.51,94.29a2.5,2.5,0,0,1-2-1.07c-3.43-4.89-7.13-9.68-11-14.23a173.6,173.6,0,0,0-12.32-13.12c-4.32-4.12-8.92-8.17-13.59-11.87s-9.6-7.34-14.67-10.62S331.58,37,326.22,34.22s-11-5.38-16.67-7.65a179.34,179.34,0,0,0-17.54-6,2.5,2.5,0,1,1,1.23-4.85l.16,0c6.08,1.76,12.14,3.84,18,6.19s11.56,5,17.12,7.85a174.9,174.9,0,0,1,16.13,9.41c5.2,3.41,10.23,7,15.06,10.87S369.19,58,373.6,62.31s8.66,8.79,12.64,13.46,7.79,9.58,11.3,14.61a2.5,2.5,0,0,1-2,3.93Z"/><path class="cls-1" d="M420.16,143.29a2.5,2.5,0,0,1-2.37-1.71c-1.9-5.73-4.12-11.43-6.57-17a2.5,2.5,0,1,1,4.57-2c2.52,5.68,4.79,11.53,6.75,17.42a2.5,2.5,0,0,1-2.37,3.29Z"/><path class="cls-1" d="M279.29,151a2.5,2.5,0,0,1-1.77-4.27l13.41-13.41a2.5,2.5,0,0,1,3.54,3.54l-13.41,13.41A2.49,2.49,0,0,1,279.29,151Z"/><path class="cls-1" d="M175,254.32a2.5,2.5,0,0,1-1.77-4.27l30.44-30.44a2.5,2.5,0,0,1,3.54,3.54l-30.44,30.44A2.49,2.49,0,0,1,175,254.32Z"/><path class="cls-1" d="M28.54,323.87H3.21a2.5,2.5,0,0,1-2.5-2.5V290.15a2.5,2.5,0,0,1,2.5-2.5H21.15a2.5,2.5,0,1,1,0,5H5.71v26.23H28.54a2.5,2.5,0,1,1,0,5Z"/><path class="cls-1" d="M40.93,323.87H21.15a2.5,2.5,0,0,1-2.5-2.5V268a2.5,2.5,0,0,1,2.5-2.5H40.93a2.5,2.5,0,1,1,0,5H23.65v48.41H40.93a2.5,2.5,0,0,1,0,5Z"/><path class="cls-1" d="M66.26,323.87H40.93a2.5,2.5,0,0,1-2.5-2.5V244.65a2.5,2.5,0,0,1,2.5-2.5H66.26a2.5,2.5,0,0,1,2.5,2.5v76.72A2.5,2.5,0,0,1,66.26,323.87Zm-22.83-5H63.76V247.15H43.43Z"/></g></g></svg>