<svg xmlns="http://www.w3.org/2000/svg" viewBox="0 0 347 341.4"><defs><style>.cls-1{fill:#FF5722;}</style></defs><title>Asset 113</title><g id="Layer_2" data-name="Layer 2"><g id="Layer_1-2" data-name="Layer 1"><path class="cls-1" d="M317.5,117.1a2.2,2.2,0,0,1,1.7.7l.3.4.3.4c0,.2.1.3.1.5s.1.3.1.5a2.3,2.3,0,0,1-.8,1.7,2.3,2.3,0,0,1-2.2.7h-.5l-.4-.2a.8.8,0,0,1-.4-.4l-.3-.3c-.1-.2-.2-.3-.2-.5a.8.8,0,0,1-.2-.4v-1c0-.2.1-.3.2-.5l.2-.4.3-.4.4-.3.4-.2.5-.2Z"/><path class="cls-1" d="M170.2,324a2.5,2.5,0,0,1,0,5,2.5,2.5,0,0,1,0-5Zm12.4,2.2a2.5,2.5,0,0,1-2.3,2.6,2.6,2.6,0,0,1-2.7-2.4,2.6,2.6,0,0,1,2.4-2.6h.1a2.4,2.4,0,0,1,2.5,2.4Zm-22.1-2.6a2.6,2.6,0,0,1,2.3,2.7,2.5,2.5,0,1,1-2.5-2.7Zm32,1.6a2.4,2.4,0,0,1-2.2,2.7,2.5,2.5,0,0,1-2.8-2.1,2.6,2.6,0,0,1,2.2-2.8h.3a2.4,2.4,0,0,1,2.5,2.2Zm-41.8-2.6a2.5,2.5,0,1,1-2.8,2.1,2.6,2.6,0,0,1,2.5-2.2Zm51.6.9a2.5,2.5,0,1,1-4.9.9,2.5,2.5,0,0,1,2-2.9h.5a2.5,2.5,0,0,1,2.4,2Zm-61.2-2.6h0a2.5,2.5,0,0,1,1.9,3,2.4,2.4,0,0,1-2.9,1.9,2.5,2.5,0,0,1,.5-4.9Zm70.9.4a2.5,2.5,0,1,1-3-1.8h.6a2.6,2.6,0,0,1,2.4,1.9Zm-80.4-2.7a2.5,2.5,0,0,1-1.3,4.9,2.6,2.6,0,0,1-1.8-3.1,2.5,2.5,0,0,1,2.4-1.8Zm89.9-.2a2.6,2.6,0,0,1-1.6,3.2,2.6,2.6,0,0,1-3.2-1.7,2.5,2.5,0,0,1,1.7-3.1h.7a2.5,2.5,0,0,1,2.4,1.7Zm-99.2-2.6h0a2.3,2.3,0,0,1,1.5,3.1,2.5,2.5,0,0,1-3.2,1.6,2.5,2.5,0,0,1,.8-4.9l.9.2Zm108.5-.9a2.5,2.5,0,0,1-1.4,3.3,2.4,2.4,0,0,1-3.2-1.4,2.5,2.5,0,0,1,1.4-3.3h.9a2.5,2.5,0,0,1,2.3,1.5Zm-117.7-2.6a2.5,2.5,0,0,1,1.4,3.3,2.6,2.6,0,0,1-3.3,1.3,2.5,2.5,0,0,1-1.4-3.3,2.7,2.7,0,0,1,2.4-1.5l.9.2Zm126.8-1.4a2.5,2.5,0,0,1-1.2,3.3,2.5,2.5,0,0,1-3.3-1.2,2.4,2.4,0,0,1,1.2-3.3,1.9,1.9,0,0,1,1-.3,2.5,2.5,0,0,1,2.3,1.5Zm-135.7-2.6a2.4,2.4,0,0,1,1.2,3.3,2.6,2.6,0,0,1-3.4,1.1,2.5,2.5,0,0,1-1.1-3.3,2.4,2.4,0,0,1,2.2-1.4,2,2,0,0,1,1.1.3Zm144.5-2.1a2.6,2.6,0,0,1-1,3.4,2.5,2.5,0,1,1-2.4-4.4,2.7,2.7,0,0,1,1.2-.3,2.6,2.6,0,0,1,2.2,1.3ZM95.6,303.6a2.5,2.5,0,0,1,.9,3.4,2.5,2.5,0,1,1-4.3-2.5,2.5,2.5,0,0,1,2.2-1.2,2.7,2.7,0,0,1,1.2.3ZM257.1,301a2.6,2.6,0,0,1-.7,3.5,2.6,2.6,0,0,1-3.5-.8,2.4,2.4,0,0,1,.8-3.4,2.2,2.2,0,0,1,1.3-.4,2.4,2.4,0,0,1,2.1,1.1ZM87.3,298.5a2.5,2.5,0,1,1-3.4.7,2.2,2.2,0,0,1,2-1.2,2.4,2.4,0,0,1,1.4.5Zm178-3.2a2.5,2.5,0,1,1-3.5-.6,2.4,2.4,0,0,1,1.4-.5,2.6,2.6,0,0,1,2.1,1.1ZM79.4,292.8a2.5,2.5,0,0,1,.5,3.5,2.6,2.6,0,0,1-3.6.4,2.5,2.5,0,0,1,1.6-4.4,2.3,2.3,0,0,1,1.5.5ZM273,289a2.5,2.5,0,0,1-.3,3.5,2.5,2.5,0,0,1-3.2-3.8,2.3,2.3,0,0,1,1.6-.6,2.5,2.5,0,0,1,1.9.9ZM71.8,286.6a2.4,2.4,0,0,1,.3,3.5,2.5,2.5,0,0,1-3.6.2,2.5,2.5,0,0,1-.2-3.5,2.4,2.4,0,0,1,1.9-.8,2.3,2.3,0,0,1,1.6.6Zm208.5-4.3a2.5,2.5,0,1,1-3.5-.1,2.2,2.2,0,0,1,1.7-.7,2.7,2.7,0,0,1,1.8.8Zm6.9-7.2a2.5,2.5,0,0,1,.1,3.5h0a2.5,2.5,0,0,1-3.5.2,2.6,2.6,0,0,1-.2-3.6,2.7,2.7,0,0,1,1.9-.8,2.3,2.3,0,0,1,1.7.7Zm6.4-7.6a2.5,2.5,0,0,1-3.2,3.9,2.5,2.5,0,1,1,3.2-3.9Zm5.9-8a2.5,2.5,0,0,1,.5,3.5,2.4,2.4,0,0,1-3.4.6,2.5,2.5,0,0,1-.6-3.5,2.4,2.4,0,0,1,2-1.1,3,3,0,0,1,1.5.5Zm5.4-8.3a2.5,2.5,0,0,1,.8,3.4,2.6,2.6,0,0,1-3.5.8,2.5,2.5,0,0,1,1.3-4.6,2.5,2.5,0,0,1,1.4.4Zm4.8-8.7a2.5,2.5,0,0,1,1,3.4,2.6,2.6,0,0,1-3.4,1,2.5,2.5,0,0,1,1.2-4.7l1.2.3Zm4.3-9a2.5,2.5,0,0,1,1.2,3.3,2.6,2.6,0,0,1-3.3,1.3,2.5,2.5,0,0,1,1-4.8l1.1.2Zm3.6-9.2a2.5,2.5,0,0,1,1.5,3.2,2.5,2.5,0,1,1-4.7-1.8,2.5,2.5,0,0,1,2.3-1.6l.9.2Zm3.1-9.5a2.6,2.6,0,0,1,1.7,3.2,2.5,2.5,0,0,1-3.2,1.6,2.5,2.5,0,0,1,.8-4.9Zm2.5-9.6a2.5,2.5,0,0,1-1.2,4.9,2.5,2.5,0,0,1,.6-5Zm1.8-9.8a2.5,2.5,0,0,1,2,2.9h0a2.5,2.5,0,0,1-2.9,2.1,2.6,2.6,0,0,1-2-2.9,2.6,2.6,0,0,1,2.5-2.1Zm1.2-9.8a2.5,2.5,0,1,1-2.8,2.2,2.4,2.4,0,0,1,2.5-2.2Zm.5-10a2.5,2.5,0,0,1,2.4,2.6,2.5,2.5,0,0,1-2.6,2.4,2.4,2.4,0,0,1-2.4-2.6h0a2.6,2.6,0,0,1,2.5-2.5Zm2.5-7.5a2.6,2.6,0,0,1-2.5,2.6,2.4,2.4,0,0,1-2.5-2.4,2.4,2.4,0,0,1,2.4-2.6h.1a2.6,2.6,0,0,1,2.5,2.4Zm-.6-10a2.5,2.5,0,0,1-2.3,2.7,2.5,2.5,0,0,1-.5-5h.3a2.7,2.7,0,0,1,2.5,2.3ZM327.3,148a2.5,2.5,0,0,1-2.1,2.9,2.5,2.5,0,0,1-2.8-2.1,2.4,2.4,0,0,1,2.1-2.8h.3a2.5,2.5,0,0,1,2.5,2.1Zm-1.9-9.9h0a2.5,2.5,0,0,1-1.9,3,2.4,2.4,0,0,1-2.9-1.9,2.5,2.5,0,0,1,1.9-3h.5a2.5,2.5,0,0,1,2.4,1.9Zm-2.5-9.8a2.5,2.5,0,1,1-4.8,1.4,2.5,2.5,0,0,1,1.7-3.1h.7a2.5,2.5,0,0,1,2.4,1.8Z"/><path class="cls-1" d="M62.8,279.1a2.9,2.9,0,0,1,1.8.7,2.7,2.7,0,0,1,0,3.6,2.6,2.6,0,0,1-3.5,0,2.4,2.4,0,0,1,0-3.6,2.6,2.6,0,0,1,1.7-.7Z"/><path class="cls-1" d="M54.2,288.1a2.4,2.4,0,0,1,1.8.7l.3.4.3.4a4.3,4.3,0,0,1,.1.5v.5a2.2,2.2,0,0,1-.7,1.7,2.3,2.3,0,0,1-2.2.7h-.5l-.4-.3-.4-.3a2.3,2.3,0,0,1-.8-1.7,4.3,4.3,0,0,1,.1-.5,4.3,4.3,0,0,1,.1-.5l.3-.4.3-.4.4-.3.4-.3h.9Z"/><path class="cls-1" d="M171.6,336.4a2.6,2.6,0,0,1,2.5,2.5,2.6,2.6,0,0,1-2.6,2.5,2.5,2.5,0,0,1-2.4-2.5,2.5,2.5,0,0,1,2.5-2.5Zm12.5,2.1a2.6,2.6,0,0,1-2.4,2.7,2.5,2.5,0,0,1-2.6-2.4,2.3,2.3,0,0,1,2.3-2.6h.2a2.5,2.5,0,0,1,2.5,2.3Zm-22.4-2.4h0a2.5,2.5,0,0,1,2.3,2.7,2.3,2.3,0,0,1-2.6,2.3,2.5,2.5,0,0,1-2.3-2.6,2.4,2.4,0,0,1,2.4-2.4Zm32.3,1.4a2.5,2.5,0,0,1-2.2,2.8,2.7,2.7,0,0,1-2.8-2.2,2.6,2.6,0,0,1,2.2-2.8h.3a2.4,2.4,0,0,1,2.5,2.2Zm-42.1-2.3a2.6,2.6,0,0,1,2.2,2.8,2.5,2.5,0,0,1-2.8,2.2,2.5,2.5,0,0,1,.3-5Zm52,.7a2.6,2.6,0,0,1-2,2.9,2.5,2.5,0,0,1-2.9-2,2.4,2.4,0,0,1,2-2.9h.4a2.6,2.6,0,0,1,2.5,2.1Zm-61.8-2.2a2.5,2.5,0,0,1-.9,5,2.6,2.6,0,0,1-2-2.9,2.6,2.6,0,0,1,2.5-2.1Zm71.6,0a2.5,2.5,0,0,1-4.9,1.2,2.6,2.6,0,0,1,1.8-3.1h.6a2.5,2.5,0,0,1,2.5,1.9Zm-81.2-2a2.5,2.5,0,0,1,1.8,3,2.4,2.4,0,0,1-3,1.8,2.4,2.4,0,0,1-1.8-3,2.5,2.5,0,0,1,2.4-1.9Zm90.8-.8a2.5,2.5,0,0,1-1.7,3.1,2.5,2.5,0,0,1-3.1-1.6,2.4,2.4,0,0,1,1.7-3.1h.7a2.6,2.6,0,0,1,2.4,1.8ZM123,329.1a2.5,2.5,0,1,1-1.5,4.7,2.4,2.4,0,0,1-1.6-3.1,2.4,2.4,0,0,1,2.3-1.8l.8.2Zm109.7-1.5a2.5,2.5,0,1,1-3.2-1.5l.9-.2a2.6,2.6,0,0,1,2.3,1.7Zm-119-1.7h0a2.5,2.5,0,0,1,1.4,3.2,2.4,2.4,0,0,1-3.2,1.4h0a2.4,2.4,0,0,1-1.5-3.2,2.6,2.6,0,0,1,2.4-1.6l.9.2Zm128.2-2.2a2.5,2.5,0,0,1-1.3,3.3,2.7,2.7,0,0,1-3.3-1.3,2.6,2.6,0,0,1,1.3-3.3h0a2,2,0,0,1,1-.2,2.4,2.4,0,0,1,2.3,1.5Zm-137.4-1.6a2.5,2.5,0,0,1,1.3,3.3,2.5,2.5,0,0,1-3.3,1.3h0a2.6,2.6,0,0,1-1.3-3.3,2.5,2.5,0,0,1,2.3-1.5l1,.2Zm146.4-2.9a2.5,2.5,0,1,1-3.4-1.1,2.7,2.7,0,0,1,1.2-.3,2.5,2.5,0,0,1,2.2,1.4ZM95.7,317.8a2.5,2.5,0,0,1,1,3.4,2.4,2.4,0,0,1-3.4,1,2.4,2.4,0,0,1-1-3.3,2.4,2.4,0,0,1,2.2-1.4,2.7,2.7,0,0,1,1.2.3Zm163.9-3.6a2.5,2.5,0,0,1-.9,3.4,2.4,2.4,0,0,1-3.4-.8,2.6,2.6,0,0,1,.8-3.5,3.1,3.1,0,0,1,1.3-.3,2.5,2.5,0,0,1,2.2,1.2ZM87.1,313a2.5,2.5,0,0,1,.8,3.4,2.5,2.5,0,0,1-3.4.9,2.6,2.6,0,0,1-.9-3.5,2.7,2.7,0,0,1,2.2-1.2,2.2,2.2,0,0,1,1.3.4Zm180.8-4.3a2.5,2.5,0,0,1-.6,3.5h-.1a2.4,2.4,0,0,1-3.4-.7,2.5,2.5,0,0,1,.6-3.5,4.3,4.3,0,0,1,1.4-.4,2.6,2.6,0,0,1,2.1,1.1ZM78.8,307.6a2.6,2.6,0,0,1-2.9,4.2h0a2.5,2.5,0,0,1-.6-3.5,2.6,2.6,0,0,1,2-1.1,2.8,2.8,0,0,1,1.5.4Zm197.1-4.9a2.4,2.4,0,1,1-2-1,2.6,2.6,0,0,1,2,1Zm-205.1-.9a2.4,2.4,0,0,1,.4,3.5,2.5,2.5,0,0,1-3.5.5,2.4,2.4,0,0,1-.4-3.5,2.3,2.3,0,0,1,2-1,3,3,0,0,1,1.5.5Zm212.8-5.6a2.5,2.5,0,0,1-.3,3.6,2.4,2.4,0,0,1-3.5-.3,2.5,2.5,0,0,1,.2-3.5,2.7,2.7,0,0,1,3.6.2Zm-220.4-.7h0a2.5,2.5,0,0,1,.2,3.5,2.4,2.4,0,0,1-3.5.3h0a2.6,2.6,0,0,1-.2-3.6,2.7,2.7,0,0,1,1.9-.8,2.7,2.7,0,0,1,1.6.6Zm227.6-6.2a2.5,2.5,0,1,1-3.6,3.5,2.5,2.5,0,0,1,.1-3.5,2.2,2.2,0,0,1,1.7-.7,2.4,2.4,0,0,1,1.8.7Zm6.8-7.3a2.5,2.5,0,0,1-3.3,3.7,2.5,2.5,0,0,1,1.6-4.4,2.8,2.8,0,0,1,1.7.7Zm6.4-7.7a2.5,2.5,0,1,1-3.1,3.9,2.4,2.4,0,0,1-.4-3.5,2.3,2.3,0,0,1,1.9-1,2.5,2.5,0,0,1,1.6.6Zm5.9-8.1a2.5,2.5,0,1,1-3.5.6,2.6,2.6,0,0,1,2-1.1,3,3,0,0,1,1.5.5Zm5.4-8.5a2.7,2.7,0,0,1,.8,3.5,2.5,2.5,0,0,1-4.3-2.6,2.5,2.5,0,0,1,2.2-1.2,3.1,3.1,0,0,1,1.3.3Zm4.9-8.7a2.6,2.6,0,0,1,1,3.4h0a2.5,2.5,0,1,1-2.2-3.7l1.2.3Zm4.3-9a2.4,2.4,0,0,1,1.2,3.3,2.4,2.4,0,0,1-3.3,1.2,2.5,2.5,0,0,1-1.2-3.3,2.4,2.4,0,0,1,2.3-1.4,1.8,1.8,0,0,1,1,.2Zm3.8-9.3a2.5,2.5,0,0,1,1.4,3.3,2.4,2.4,0,0,1-3.2,1.4,2.5,2.5,0,0,1-1.4-3.3h0a2.5,2.5,0,0,1,2.3-1.5Zm3.2-9.4a2.4,2.4,0,0,1,1.7,3.1A2.6,2.6,0,0,1,330,226a2.5,2.5,0,0,1,.8-4.9l.7.2Zm2.7-9.7a2.5,2.5,0,0,1,1.8,3,2.5,2.5,0,0,1-3.1,1.8,2.4,2.4,0,0,1-1.7-3,2.5,2.5,0,0,1,2.4-1.9Zm2.1-9.8a2.6,2.6,0,0,1,2,2.9,2.5,2.5,0,0,1-3,2,2.5,2.5,0,0,1,.5-4.9Zm1.5-9.9a2.5,2.5,0,0,1-.7,5,2.7,2.7,0,0,1-2.2-2.9,2.6,2.6,0,0,1,2.5-2.1Zm.9-10a2.6,2.6,0,0,1,2.3,2.7,2.5,2.5,0,1,1-2.5-2.7Zm.3-10a2.5,2.5,0,0,1,2.4,2.6,2.5,2.5,0,0,1-5-.1,2.5,2.5,0,0,1,2.5-2.5Zm2.3-7.6a2.5,2.5,0,0,1-2.4,2.6,2.4,2.4,0,0,1-2.6-2.4,2.5,2.5,0,0,1,2.4-2.6h.1a2.6,2.6,0,0,1,2.5,2.4Zm-.8-10.1h0a2.4,2.4,0,0,1-2.2,2.7,2.3,2.3,0,0,1-2.7-2.2,2.5,2.5,0,0,1,2.2-2.8h.2a2.5,2.5,0,0,1,2.5,2.3Zm-1.3-10.1a2.5,2.5,0,0,1-2.1,2.9,2.5,2.5,0,1,1-.8-5h.4a2.6,2.6,0,0,1,2.5,2.1Zm-2-10h0a2.5,2.5,0,0,1-1.9,3,2.5,2.5,0,1,1-1.1-4.8h.6a2.5,2.5,0,0,1,2.4,1.9Zm-2.5-9.8a2.6,2.6,0,0,1-1.7,3.1,2.5,2.5,0,1,1-1.4-4.8h.7a2.6,2.6,0,0,1,2.4,1.8Z"/><path class="cls-1" d="M329.1,112.9a2.9,2.9,0,0,1,1.8.7,2.6,2.6,0,0,1,.7,1.8,2.4,2.4,0,0,1-.7,1.8l-.4.3-.4.2-.5.2a2.6,2.6,0,0,1-3-2.5,2.7,2.7,0,0,1,.8-1.8,2.6,2.6,0,0,1,1.7-.7Z"/><path class="cls-1" d="M287.2,127.8h.4l.5.2.4.2.4.3.3.4.3.4c0,.2.1.3.1.5a4.3,4.3,0,0,1,.1.5,2.3,2.3,0,0,1-.8,1.7c-.1.1-.2.3-.4.3l-.4.3h-.5a2.3,2.3,0,0,1-2.2-.7,2.2,2.2,0,0,1-.7-1.7v-.5c0-.2.1-.3.1-.5l.3-.4.3-.4a2.4,2.4,0,0,1,1.8-.7Z"/><path class="cls-1" d="M180.1,292a2.4,2.4,0,0,1-2.4,2.5,2.5,2.5,0,0,1-2.6-2.4,2.5,2.5,0,0,1,2.4-2.5h.1a2.5,2.5,0,0,1,2.5,2.5Zm-12.3-2.5a2.5,2.5,0,0,1,2.4,2.6,2.4,2.4,0,0,1-2.6,2.4,2.5,2.5,0,0,1,.1-5ZM190,291a2.6,2.6,0,0,1-2.2,2.8,2.6,2.6,0,0,1-2.8-2.2,2.5,2.5,0,0,1,2.2-2.8h.3A2.6,2.6,0,0,1,190,291Zm-31.8-2.3a2.5,2.5,0,0,1,2.2,2.8,2.5,2.5,0,0,1-2.8,2.1,2.4,2.4,0,0,1-2.2-2.8,2.5,2.5,0,0,1,2.5-2.1Zm41.5.6a2.5,2.5,0,1,1-2.9-2h.5a2.5,2.5,0,0,1,2.4,2.1Zm-51.1-2.2h0a2.4,2.4,0,0,1,2,2.9,2.5,2.5,0,1,1-4.9-1,2.5,2.5,0,0,1,2.4-2Zm60.7-.4a2.6,2.6,0,0,1-1.7,3.1,2.5,2.5,0,1,1-1.4-4.8h.7a2.5,2.5,0,0,1,2.4,1.8Zm-70-2a2.5,2.5,0,0,1-1.5,4.8,2.6,2.6,0,0,1-1.7-3.1,2.6,2.6,0,0,1,2.4-1.8Zm79.3-1.3a2.5,2.5,0,0,1-1.5,3.2,2.5,2.5,0,1,1-1.7-4.6,1.3,1.3,0,0,1,.8-.2,2.5,2.5,0,0,1,2.4,1.6Zm-88.5-1.9a2.5,2.5,0,0,1,1.4,3.3,2.4,2.4,0,0,1-3.2,1.4,2.5,2.5,0,0,1-1.4-3.2,2.4,2.4,0,0,1,2.3-1.6Zm97.5-2.2a2.5,2.5,0,1,1-4.5,2.2,2.4,2.4,0,0,1,1.2-3.3,1.9,1.9,0,0,1,1-.3,2.4,2.4,0,0,1,2.3,1.4Zm-106.4-1.7h0a2.5,2.5,0,1,1-2.2,4.5,2.5,2.5,0,0,1-1.1-3.3,2.4,2.4,0,0,1,2.2-1.4l1.1.2Zm115.1-3.1a2.6,2.6,0,1,1-4.4,2.6,2.7,2.7,0,0,1,.9-3.5,3.1,3.1,0,0,1,1.3-.3,2.5,2.5,0,0,1,2.2,1.2ZM112.7,273a2.6,2.6,0,0,1,.9,3.5,2.5,2.5,0,1,1-2.2-3.8,2.8,2.8,0,0,1,1.3.3Zm131.8-3.9a2.4,2.4,0,0,1-.6,3.4,2.5,2.5,0,0,1-2.9-4.1,2.7,2.7,0,0,1,1.4-.4,2.6,2.6,0,0,1,2.1,1.1Zm-139.9-1.3a2.4,2.4,0,0,1,.6,3.4,2.5,2.5,0,0,1-3.5.6,2.5,2.5,0,0,1-.6-3.5,2.8,2.8,0,0,1,2.1-1,1.9,1.9,0,0,1,1.4.5Zm147.7-4.9a2.5,2.5,0,0,1-.4,3.5,2.4,2.4,0,0,1-3.5-.3,2.5,2.5,0,0,1,.3-3.5,2.6,2.6,0,0,1,3.6.3ZM97,261.8h0a2.6,2.6,0,0,1,.3,3.5,2.5,2.5,0,0,1-3.6.3,2.5,2.5,0,0,1,1.7-4.4,2.7,2.7,0,0,1,1.6.6Zm162.5-5.7a2.6,2.6,0,0,1-.1,3.6,2.5,2.5,0,0,1-3.5-3.6,2.7,2.7,0,0,1,3.6,0Zm6.6-7.3a2.5,2.5,0,0,1,.3,3.6,2.6,2.6,0,0,1-3.6.2,2.5,2.5,0,0,1-.2-3.5,2.5,2.5,0,0,1,1.9-.9,2.3,2.3,0,0,1,1.6.6Zm6.1-7.8a2.5,2.5,0,1,1-3.5.5,2.6,2.6,0,0,1,2-1,3,3,0,0,1,1.5.5Zm5.4-8.3a2.6,2.6,0,0,1,.8,3.5h0a2.5,2.5,0,1,1-4.3-2.7,2.7,2.7,0,0,1,2.2-1.2,3.3,3.3,0,0,1,1.3.4Zm4.7-8.7a2.6,2.6,0,0,1,1.1,3.4,2.5,2.5,0,1,1-4.5-2.3,2.5,2.5,0,0,1,2.2-1.4l1.2.3Zm4-9a2.5,2.5,0,0,1,1.3,3.2,2.5,2.5,0,0,1-3.3,1.4,2.6,2.6,0,0,1-1.3-3.3,2.4,2.4,0,0,1,2.3-1.5,2,2,0,0,1,1,.2Zm3.2-9.4a2.5,2.5,0,0,1,1.6,3.1,2.5,2.5,0,0,1-3.2,1.7,2.6,2.6,0,0,1-1.6-3.2,2.6,2.6,0,0,1,2.4-1.7Zm2.4-9.6a2.6,2.6,0,0,1,1.9,3,2.5,2.5,0,0,1-3,1.9,2.5,2.5,0,0,1-1.9-3,2.5,2.5,0,0,1,2.4-2Zm1.6-9.7a2.4,2.4,0,0,1,2.1,2.8h0a2.4,2.4,0,0,1-2.8,2.1,2.5,2.5,0,0,1,.3-5Zm.8-9.9a2.6,2.6,0,0,1,2.4,2.6,2.6,2.6,0,0,1-2.7,2.4,2.5,2.5,0,0,1-2.3-2.7h0a2.5,2.5,0,0,1,2.5-2.3Zm2.6-7.5a2.6,2.6,0,0,1-2.5,2.6,2.5,2.5,0,0,1-2.5-2.4,2.4,2.4,0,0,1,2.4-2.6h.1a2.6,2.6,0,0,1,2.5,2.4Zm-.7-10a2.4,2.4,0,0,1-2.2,2.7,2.3,2.3,0,0,1-2.7-2.2,2.5,2.5,0,0,1,2.2-2.8h.3a2.5,2.5,0,0,1,2.4,2.3Zm-1.4-10a2.5,2.5,0,0,1-2,2.9,2.5,2.5,0,1,1-.9-4.9h.4a2.6,2.6,0,0,1,2.5,2.1Zm-2.3-9.9h0a2.4,2.4,0,0,1-1.7,3.1,2.5,2.5,0,1,1-1.3-4.8h.6a2.5,2.5,0,0,1,2.4,1.8Z"/><path class="cls-1" d="M88,254.5a2.4,2.4,0,0,1,2.5,2.5v.5c-.1.1-.1.3-.2.4s-.1.3-.2.5l-.3.4a2.7,2.7,0,0,1-3.6,0l-.3-.4-.2-.5a.6.6,0,0,1-.1-.4.9.9,0,0,1-.1-.5,2.9,2.9,0,0,1,.7-1.8,3.1,3.1,0,0,1,1.8-.7Z"/><path class="cls-1" d="M178.8,210.2h35.6a2.6,2.6,0,0,1,2,1,2.7,2.7,0,0,1,.4,2.3,98.7,98.7,0,0,1-9.7,22.3,2.5,2.5,0,0,1-3.4.9,2.6,2.6,0,0,1-.8-3.5,90.6,90.6,0,0,0,8.1-18H181.3V253c5.4-1.9,10.6-5.6,15.3-11a2.5,2.5,0,1,1,3.8,3.2c-6.3,7.3-13.4,11.9-21.1,13.6a2.3,2.3,0,0,1-2.1-.5,2.5,2.5,0,0,1-.9-1.9V212.7a2.5,2.5,0,0,1,2.5-2.5Zm-62.8,5H101.8a86.1,86.1,0,0,0,25.4,26.6A110.8,110.8,0,0,1,116,215.2Zm-18.6-5h20.5a2.6,2.6,0,0,1,2.4,1.9c3.9,14.2,9.8,26.6,17.2,35.9a2.6,2.6,0,0,1,0,3.1,2.6,2.6,0,0,1-3.1.7,91.3,91.3,0,0,1-39.2-37.9,2.3,2.3,0,0,1,.1-2.4,2.4,2.4,0,0,1,2.1-1.3Zm151,5H229.2A108.7,108.7,0,0,1,215,246.5a85.2,85.2,0,0,0,33.4-31.3Zm-21.1-5h25.4a2.5,2.5,0,0,1,2.2,1.2,2.8,2.8,0,0,1,0,2.5,89.2,89.2,0,0,1-45.1,40.5h0l-1.1.4-1,.4a2.5,2.5,0,0,1-3-.9,2.4,2.4,0,0,1,.2-3.1c8.7-9.6,15.6-23.1,20-39.2a2.5,2.5,0,0,1,2.4-1.8Zm-63.4,5H134.2c6.6,19.7,17.4,33.5,29.7,37.8V215.2Zm-33.1-5h35.6a2.5,2.5,0,0,1,2.5,2.5v43.7a2.5,2.5,0,0,1-.9,1.9,2.3,2.3,0,0,1-2.1.5c-16.3-3.6-29.9-20.2-37.5-45.4a2.2,2.2,0,0,1,.4-2.2,2.2,2.2,0,0,1,2-1Zm125.7-67.3H232.9a170.1,170.1,0,0,1,2.3,27.5,174.3,174.3,0,0,1-2.1,27.5h23.4a86.3,86.3,0,0,0,0-55Zm-26.6-5h28.3a2.6,2.6,0,0,1,2.4,1.7,90.5,90.5,0,0,1,0,61.6,2.6,2.6,0,0,1-2.4,1.7H230.1a2.8,2.8,0,0,1-1.9-.9,2.6,2.6,0,0,1-.6-2.1,164.4,164.4,0,0,0,2.6-29.5,155.1,155.1,0,0,0-2.8-29.5,2.7,2.7,0,0,1,.6-2.1,2.8,2.8,0,0,1,1.9-.9Zm-14.7,5H181.3v55h34.2a167.3,167.3,0,0,0,2.3-27.5,150.6,150.6,0,0,0-2.6-27.5Zm-36.4-5h38.4a2.7,2.7,0,0,1,2.5,2,150.3,150.3,0,0,1,3.1,30.5,160.7,160.7,0,0,1-2.8,30.4,2.6,2.6,0,0,1-2.5,2.1H178.8a2.5,2.5,0,0,1-2.5-2.5v-60a2.5,2.5,0,0,1,2.5-2.5Zm-50.7,0h38.3a2.5,2.5,0,0,1,2.5,2.5v60a2.5,2.5,0,0,1-2.5,2.5H127.7a2.7,2.7,0,0,1-2.5-2c-.8-4.4-1.5-8.9-2-13.5a2.6,2.6,0,0,1,2.3-2.8,2.5,2.5,0,0,1,2.7,2.3c.4,3.7.9,7.4,1.6,11h34.1v-55H130.1a140.9,140.9,0,0,0-2.7,27.5,2.5,2.5,0,0,1-5,0,141.8,141.8,0,0,1,3.3-30.5,2.4,2.4,0,0,1,2.4-2Zm-15.8,5H93.7a85.6,85.6,0,0,0-.1,55h18.5a177.1,177.1,0,0,1-2.1-27.5,164.6,164.6,0,0,1,2.3-27.5Zm-20.4-5h23.4a2.9,2.9,0,0,1,2,.9,3.1,3.1,0,0,1,.5,2.1,157,157,0,0,0-2.8,29.5,177.9,177.9,0,0,0,2.5,29.5,3,3,0,0,1-.5,2.1,2.8,2.8,0,0,1-1.9.9H91.8a2.5,2.5,0,0,1-2.3-1.7,90,90,0,0,1,.1-61.6,2.5,2.5,0,0,1,2.3-1.7Zm176.3-8.6a2.4,2.4,0,0,1,2.3,1.5,103.3,103.3,0,0,1-172.9,108,2.4,2.4,0,0,1,.3-3.5,2.5,2.5,0,0,1,3.5.2,98.3,98.3,0,0,0,164.5-27.6,97.1,97.1,0,0,0,0-75.2,2.6,2.6,0,0,1,1.3-3.3Zm-151.8-3.8a112.6,112.6,0,0,1,12.2-27.4,85.6,85.6,0,0,0-26.8,27.4ZM137,88a2.6,2.6,0,0,1,2,1,2.6,2.6,0,0,1,0,3.1c-7.8,9.5-14.1,22.1-18.3,36.6a2.5,2.5,0,0,1-2.4,1.8H97.5a2.4,2.4,0,0,1-2.1-1.2,2.5,2.5,0,0,1-.1-2.5A90.2,90.2,0,0,1,136,88.3a1.9,1.9,0,0,1,1-.3Zm111.4,37.5a85.8,85.8,0,0,0-34.8-32,106.6,106.6,0,0,1,15.2,32ZM205.3,84.7h.8a90.7,90.7,0,0,1,48.8,42,2.5,2.5,0,0,1-2.2,3.7H227a2.4,2.4,0,0,1-2.4-1.8c-4.7-16.2-12-29.9-21.2-39.8a2.4,2.4,0,0,1-.2-3.1,2.4,2.4,0,0,1,2.1-1.1Zm-41.4,40.8V87.9c-11.6,4.7-22.2,18.4-29,37.6Zm2.5-43.6a2.2,2.2,0,0,1,1.5.6,2.4,2.4,0,0,1,1,1.9V128a2.5,2.5,0,0,1-2.5,2.5h-35a2.5,2.5,0,0,1-2-1,2.4,2.4,0,0,1-.4-2.3c7.9-24.3,21.7-41.2,36.8-45.2Zm43.9,43.6c-6.9-19.2-17.5-32.9-29-37.6v37.6ZM178.8,81.9h.6c15.1,4,28.8,20.9,36.8,45.2a2.7,2.7,0,0,1-.4,2.3,2.6,2.6,0,0,1-2,1h-35a2.5,2.5,0,0,1-2.5-2.5V84.4a2.3,2.3,0,0,1,.9-1.9,2.5,2.5,0,0,1,1.6-.6ZM175,67a103.1,103.1,0,0,1,84.8,44.2,2.5,2.5,0,0,1-4.1,2.9A98.2,98.2,0,0,0,175,72a98.4,98.4,0,0,0-90.7,60.7,97.1,97.1,0,0,0,0,75.2A79.1,79.1,0,0,0,90,219.6a2.5,2.5,0,1,1-4.3,2.5,106.8,106.8,0,0,1-6.1-12.2,103.5,103.5,0,0,1,55.9-135A101.3,101.3,0,0,1,175,67Z"/><path class="cls-1" d="M27.8,217.2h.5l.5.2.4.2.4.3a2.4,2.4,0,0,1,.7,1.8v.5l-.2.4c0,.2-.1.3-.2.5l-.3.3-.4.4-.4.2H26.9l-.5-.2-.3-.4-.4-.3c0-.2-.1-.3-.2-.5s-.1-.3-.1-.4a1.1,1.1,0,0,1-.1-.5,2.5,2.5,0,0,1,.8-1.8l.3-.3.5-.2.4-.2Z"/><path class="cls-1" d="M27.1,209.3a2.5,2.5,0,1,1-4.8,1.4,2.5,2.5,0,0,1,1.7-3.1h.7a2.5,2.5,0,0,1,2.4,1.8Zm-2.5-9.7h0a2.4,2.4,0,0,1-1.9,2.9,2.5,2.5,0,1,1-1.1-4.8h.6a2.5,2.5,0,0,1,2.4,2Zm-1.8-9.9a2.5,2.5,0,0,1-2.1,2.9,2.5,2.5,0,0,1-2.8-2.1,2.4,2.4,0,0,1,2-2.9h.4a2.6,2.6,0,0,1,2.5,2.1Zm-1.2-9.9a2.5,2.5,0,0,1-2.3,2.7,2.6,2.6,0,0,1-2.7-2.3,2.5,2.5,0,0,1,2.3-2.7h.2a2.5,2.5,0,0,1,2.5,2.3Zm-.5-10h0a2.5,2.5,0,0,1-5,.1h0a2.6,2.6,0,0,1,2.5-2.6h0a2.5,2.5,0,0,1,2.5,2.5Zm-2.2-12.7a2.5,2.5,0,0,1,2.3,2.6h0a2.4,2.4,0,0,1-2.6,2.4,2.3,2.3,0,0,1-2.3-2.6h0a2.4,2.4,0,0,1,2.4-2.4Zm1-10.1a2.6,2.6,0,0,1,2.2,2.8,2.6,2.6,0,0,1-2.8,2.2,2.5,2.5,0,0,1-2.2-2.8,2.4,2.4,0,0,1,2.5-2.2Zm1.6-10.1a2.5,2.5,0,0,1,2,2.9,2.5,2.5,0,0,1-2.9,2.1,2.7,2.7,0,0,1-2-3,2.5,2.5,0,0,1,2.5-2Zm2.4-9.9a2.5,2.5,0,1,1-3.1,1.8,2.6,2.6,0,0,1,2.4-1.9Zm2.9-9.7a2.3,2.3,0,0,1,1.6,3.1,2.4,2.4,0,0,1-3.1,1.6,2.5,2.5,0,0,1-1.6-3.1,2.4,2.4,0,0,1,2.4-1.7Zm3.7-9.5a2.5,2.5,0,0,1,1.4,3.2,2.6,2.6,0,0,1-3.3,1.4,2.5,2.5,0,0,1,.9-4.8,1.8,1.8,0,0,1,1,.2Zm4.2-9.3a2.5,2.5,0,1,1-3.3,1.2,2.4,2.4,0,0,1,2.2-1.4,2,2,0,0,1,1.1.2Zm4.9-8.9a2.3,2.3,0,1,1-1.3-.4,2,2,0,0,1,1.3.4ZM45,80.9a2.5,2.5,0,0,1,.7,3.5,2.4,2.4,0,0,1-3.4.7,2.5,2.5,0,0,1,1.3-4.6,3.3,3.3,0,0,1,1.4.4Zm6-8.2a2.5,2.5,0,1,1-3.5.5,2.6,2.6,0,0,1,2-1,3,3,0,0,1,1.5.5Zm6.5-7.8a2.5,2.5,0,1,1-3.3,3.8,2.6,2.6,0,0,1-.2-3.6,2.7,2.7,0,0,1,1.9-.8,2.7,2.7,0,0,1,1.6.6Z"/><path class="cls-1" d="M62.8,56.7h.9l.5.2.4.4a2.6,2.6,0,0,1,.7,1.7,2.9,2.9,0,0,1-.7,1.8l-.4.3-.5.2-.4.2h-1l-.5-.2-.4-.2L61,61a2.4,2.4,0,0,1-.7-1.8v-.5c.1-.1.1-.3.2-.4s.1-.3.2-.5l.3-.3a2.5,2.5,0,0,1,1.8-.8Z"/><path class="cls-1" d="M53.9,48a2.5,2.5,0,0,1,1.8.8,2.6,2.6,0,0,1,.7,1.7,2.7,2.7,0,0,1-.7,1.8,2.7,2.7,0,0,1-3.6,0,2.7,2.7,0,0,1-.7-1.8,2.6,2.6,0,0,1,.7-1.7,2.5,2.5,0,0,1,1.8-.8Z"/><path class="cls-1" d="M15.5,213.8h0a2.5,2.5,0,0,1-1.7,3.1,2.6,2.6,0,0,1-3.1-1.7,2.4,2.4,0,0,1,1.7-3.1h.7a2.5,2.5,0,0,1,2.4,1.8ZM13,204.4a2.5,2.5,0,0,1-1.8,3,2.5,2.5,0,0,1-3-1.9,2.4,2.4,0,0,1,1.8-3h.6a2.5,2.5,0,0,1,2.4,2Zm-1.9-9.5h0a2.5,2.5,0,0,1-2,2.9,2.5,2.5,0,0,1-2.9-2.1,2.6,2.6,0,0,1,2.1-2.9h.4a2.5,2.5,0,0,1,2.4,2.1Zm-1.3-9.6A2.3,2.3,0,0,1,7.6,188a2.5,2.5,0,1,1-.5-4.9h.2a2.4,2.4,0,0,1,2.5,2.2ZM9,175.6a2.3,2.3,0,0,1-2.3,2.6,2.4,2.4,0,0,1-2.6-2.3,2.5,2.5,0,0,1,2.3-2.7h.2A2.4,2.4,0,0,1,9,175.6ZM6.4,163.4a2.4,2.4,0,0,1,2.4,2.5,2.5,2.5,0,0,1-5,0,2.6,2.6,0,0,1,2.5-2.5Zm.5-9.8a2.5,2.5,0,0,1,2.3,2.7,2.5,2.5,0,0,1-2.6,2.3,2.6,2.6,0,0,1-2.4-2.7,2.5,2.5,0,0,1,2.5-2.3ZM8,143.8a2.6,2.6,0,0,1,2.2,2.8,2.6,2.6,0,0,1-2.8,2.2A2.5,2.5,0,0,1,5.2,146a2.5,2.5,0,0,1,2.5-2.2Zm1.6-9.7a2.5,2.5,0,0,1,2,2.9,2.4,2.4,0,0,1-2.9,2,2.5,2.5,0,0,1-2-2.9,2.5,2.5,0,0,1,2.5-2Zm2.3-9.6a2.6,2.6,0,0,1,1.8,3.1,2.5,2.5,0,0,1-4.9-1.2,2.5,2.5,0,0,1,2.5-1.9Zm2.8-9.4a2.5,2.5,0,0,1,1.6,3.1,2.5,2.5,0,0,1-3.1,1.7,2.6,2.6,0,0,1-1.7-3.2,2.7,2.7,0,0,1,2.4-1.7Zm3.3-9.3a2.7,2.7,0,0,1,1.5,3.3h0a2.5,2.5,0,0,1-3.3,1.4,2.4,2.4,0,0,1-1.4-3.2,2.5,2.5,0,0,1,2.3-1.6Zm3.9-9a2.6,2.6,0,0,1,1.3,3.3,2.6,2.6,0,0,1-3.4,1.3,2.5,2.5,0,0,1-1.2-3.3,2.4,2.4,0,0,1,2.3-1.5l1,.2ZM26.3,88A2.5,2.5,0,0,1,24,92.5a2.5,2.5,0,0,1,1.2-4.8l1.1.3Zm4.9-8.5a2.6,2.6,0,1,1-1.3-.3,2.8,2.8,0,0,1,1.3.3Zm5.4-8.2a2.5,2.5,0,0,1,.7,3.5,2.5,2.5,0,0,1-3.5.6,2.4,2.4,0,0,1-.6-3.4,2.2,2.2,0,0,1,2-1.1,2.3,2.3,0,0,1,1.4.4Zm5.9-7.9a2.5,2.5,0,1,1-3.5.5,2.5,2.5,0,0,1,2-1,2.7,2.7,0,0,1,1.5.5Zm6.4-7.5a2.5,2.5,0,0,1,.2,3.5h0a2.4,2.4,0,0,1-3.5.3,2.6,2.6,0,0,1-.2-3.6,2.3,2.3,0,0,1,1.8-.8,2.7,2.7,0,0,1,1.7.6Z"/><path class="cls-1" d="M16.1,221.3a2.5,2.5,0,0,1,1.8.8l.3.4.3.4a4.3,4.3,0,0,1,.1.5v.4a2.4,2.4,0,0,1-.7,1.8,2.6,2.6,0,0,1-3.5,0,2.5,2.5,0,0,1-.8-1.8c0-.1.1-.3.1-.4a4.3,4.3,0,0,1,.1-.5l.3-.4.3-.4a2.3,2.3,0,0,1,1.7-.8Z"/><path class="cls-1" d="M55.3,203h.4l.5.2.4.2.4.3a2.4,2.4,0,0,1,0,3.6l-.4.3-.4.2-.5.2a2.9,2.9,0,0,1-2.2-.7,2.7,2.7,0,0,1,0-3.6,2.9,2.9,0,0,1,1.8-.7Z"/><path class="cls-1" d="M54.7,195.1h0a2.5,2.5,0,1,1-4.8,1.3,2.5,2.5,0,0,1,1.8-3.1h.6a2.6,2.6,0,0,1,2.4,1.9Zm-2-9.8h0a2.5,2.5,0,0,1-2.1,2.9,2.6,2.6,0,0,1-2.9-2,2.5,2.5,0,0,1,2.1-2.9h.4a2.5,2.5,0,0,1,2.5,2Zm-1.3-9.9h0a2.5,2.5,0,0,1-2.3,2.7,2.5,2.5,0,0,1-2.6-2.3h0a2.5,2.5,0,0,1,2.2-2.7h.2a2.5,2.5,0,0,1,2.5,2.3Zm-2.8-12.5a2.6,2.6,0,0,1,2.5,2.6,2.5,2.5,0,0,1-2.5,2.4,2.5,2.5,0,1,1,0-5Zm.7-10.1a1.9,1.9,0,1,1-.2-.1Zm1.6-10.1a2.5,2.5,0,1,1-.9,4.9,2.5,2.5,0,0,1-2-2.9,2.6,2.6,0,0,1,2.5-2.1Zm2.5-9.9a2.5,2.5,0,0,1,1.7,3.1h.1a2.5,2.5,0,0,1-4.9-1.4,2.5,2.5,0,0,1,2.4-1.8Zm3.3-9.6a2.5,2.5,0,1,1-3.2,1.4,2.6,2.6,0,0,1,2.4-1.6,1.2,1.2,0,0,1,.8.2Zm4.2-9.4a2.5,2.5,0,0,1-2.1,4.6,2.5,2.5,0,0,1-1.2-3.4,2.4,2.4,0,0,1,2.2-1.4l1.1.2Zm4.9-8.9a2.5,2.5,0,0,1,.9,3.4h0a2.5,2.5,0,1,1-4.3-2.5,2.5,2.5,0,0,1,2.2-1.2,2.7,2.7,0,0,1,1.2.3Zm5.7-8.4a2.3,2.3,0,0,1,.6,3.4h0a2.4,2.4,0,1,1-4-2.8,2.3,2.3,0,0,1,2-1.1,2.4,2.4,0,0,1,1.4.5Zm6.4-8a2.5,2.5,0,0,1-3.2,3.8,2.5,2.5,0,0,1-.3-3.5,2.5,2.5,0,0,1,1.9-.9,2.3,2.3,0,0,1,1.6.6Z"/><path class="cls-1" d="M83.2,80.4a2.9,2.9,0,0,1,1.8.7l.3.4a.8.8,0,0,1,.2.4c.1.2.2.3.2.5v.5a2.6,2.6,0,0,1-.7,1.8l-.4.3-.4.2h-.5a1.4,1.4,0,0,1-.9,0h-.5l-.4-.2-.4-.3a2.7,2.7,0,0,1-.8-1.8c0-.2.1-.3.1-.5s.1-.3.1-.5l.3-.4.3-.4a2.6,2.6,0,0,1,1.7-.7Z"/><path class="cls-1" d="M4.6,277.1a2.6,2.6,0,0,1-.7,3.5,2.5,2.5,0,0,1-3.5-.7,2.7,2.7,0,0,1,.7-3.5,3.3,3.3,0,0,1,1.4-.4,2.6,2.6,0,0,1,2.1,1.1Zm8.3-5.6a2.6,2.6,0,0,1-.7,3.5,2.5,2.5,0,0,1-3.5-.7,2.5,2.5,0,0,1,.7-3.4,2.4,2.4,0,0,1,1.4-.5,2.6,2.6,0,0,1,2.1,1.1Zm8.3-5.5a2.5,2.5,0,0,1-4.2,2.8,2.6,2.6,0,0,1,.7-3.5,2.3,2.3,0,0,1,1.4-.4,2.6,2.6,0,0,1,2.1,1.1Zm8.3-5.6a2.5,2.5,0,0,1-4.2,2.8,2.6,2.6,0,0,1,.7-3.5,2.3,2.3,0,0,1,1.4-.4,2.6,2.6,0,0,1,2.1,1.1Zm8.3-5.6a2.6,2.6,0,0,1-.7,3.5,2.6,2.6,0,0,1-3.5-.7,2.7,2.7,0,0,1,.7-3.5,2.3,2.3,0,0,1,1.4-.4,2.6,2.6,0,0,1,2.1,1.1Zm8.3-5.6a2.6,2.6,0,0,1-.7,3.5,2.5,2.5,0,0,1-3.5-.7,2.5,2.5,0,0,1,.7-3.4,2.4,2.4,0,0,1,1.4-.5,2.6,2.6,0,0,1,2.1,1.1Zm8.3-5.5a2.5,2.5,0,0,1-4.2,2.8,2.6,2.6,0,0,1,.7-3.5,2.3,2.3,0,0,1,1.4-.4,2.4,2.4,0,0,1,2.1,1.1Zm8.3-5.6a2.5,2.5,0,1,1-3.5-.7,2.3,2.3,0,0,1,1.4-.4,2.6,2.6,0,0,1,2.1,1.1Zm8.3-5.6a2.5,2.5,0,1,1-3.5-.7,2.3,2.3,0,0,1,1.4-.4,2.6,2.6,0,0,1,2.1,1.1Z"/><path class="cls-1" d="M279.6,103.8a2.5,2.5,0,0,1-4.2,2.8,2.6,2.6,0,0,1,.7-3.5,2.5,2.5,0,0,1,1.4-.4,2.6,2.6,0,0,1,2.1,1.1Zm8.4-5.4a2.5,2.5,0,0,1-.7,3.4,2.4,2.4,0,0,1-3.5-.7,2.6,2.6,0,0,1,.7-3.5,3.3,3.3,0,0,1,1.4-.4,2.5,2.5,0,0,1,2.1,1.2Zm8.4-5.5a2.6,2.6,0,0,1-.8,3.5,2.5,2.5,0,0,1-3.4-.8,2.4,2.4,0,0,1,.7-3.4,2.3,2.3,0,0,1,1.4-.4,2.6,2.6,0,0,1,2.1,1.1Zm8.3-5.4a2.4,2.4,0,0,1-.7,3.4,2.6,2.6,0,0,1-3.5-.7,2.6,2.6,0,0,1,.8-3.5,3.3,3.3,0,0,1,1.3-.4,2.2,2.2,0,0,1,2.1,1.2Zm8.4-5.5a2.5,2.5,0,1,1-4.2,2.7,2.4,2.4,0,0,1,2.1-3.8,2.6,2.6,0,0,1,2.1,1.1Zm8.4-5.5a2.5,2.5,0,0,1-4.2,2.8,2.6,2.6,0,0,1,.7-3.5,2.3,2.3,0,0,1,1.4-.4,2.6,2.6,0,0,1,2.1,1.1Zm8.4-5.4a2.5,2.5,0,0,1-.8,3.4,2.4,2.4,0,0,1-3.4-.7,2.5,2.5,0,0,1,.7-3.5,3.3,3.3,0,0,1,1.4-.4,2.5,2.5,0,0,1,2.1,1.2Zm8.3-5.5a2.5,2.5,0,1,1-4.1,2.7,2.4,2.4,0,0,1,.7-3.4,2.2,2.2,0,0,1,1.3-.4,2.4,2.4,0,0,1,2.1,1.1Zm8.4-5.5a2.5,2.5,0,0,1-4.2,2.8,2.6,2.6,0,0,1,.8-3.5,2,2,0,0,1,1.3-.4,2.6,2.6,0,0,1,2.1,1.1Z"/><path class="cls-1" d="M127.7,24v.5c-.1.1-.1.3-.2.4s-.1.3-.2.5l-.3.3a2.5,2.5,0,0,1-1.8.8h-.9l-.5-.2-.3-.4-.4-.3c0-.2-.1-.3-.2-.5s-.1-.3-.1-.4a1.7,1.7,0,0,1,0-1c0-.2.1-.3.1-.5l.2-.4.4-.4.3-.3.5-.2.4-.2h.5a2.9,2.9,0,0,1,1.8.7l.3.4a.8.8,0,0,1,.2.4l.2.5V24Z"/><path class="cls-1" d="M135.6,23.2a2.4,2.4,0,0,1-3.1-1.7,2.5,2.5,0,0,1,1.7-3.1,2.6,2.6,0,0,1,3.1,1.7,2,2,0,0,1,.1.7,2.5,2.5,0,0,1-1.8,2.4Zm9.7-2.4h0a2.4,2.4,0,0,1-2.9-1.9,2.5,2.5,0,0,1,1.9-3,2.4,2.4,0,0,1,2.9,1.9,1.1,1.1,0,0,1,.1.5,2.6,2.6,0,0,1-2,2.5Zm9.9-1.9a2.4,2.4,0,0,1-2.9-2.1,2.5,2.5,0,0,1,2.1-2.8,2.5,2.5,0,0,1,2.9,2.1v.4a2.4,2.4,0,0,1-2.1,2.4Zm9.9-1.1a2.5,2.5,0,0,1-2.7-2.3,2.5,2.5,0,1,1,5-.4v.2a2.5,2.5,0,0,1-2.3,2.5Zm10-.5h0a2.5,2.5,0,0,1-2.5-2.5,2.5,2.5,0,0,1,2.4-2.5h0a2.4,2.4,0,0,1,2.6,2.4h0a2.6,2.6,0,0,1-2.5,2.5ZM187.8,15a2.5,2.5,0,0,1-2.6,2.4h0a2.5,2.5,0,0,1-2.4-2.6,2.4,2.4,0,0,1,2.6-2.4h0a2.6,2.6,0,0,1,2.4,2.5Zm10.1,1a2.4,2.4,0,0,1-2.8,2.2,2.6,2.6,0,0,1-2.2-2.8,2.6,2.6,0,0,1,2.8-2.2,2.6,2.6,0,0,1,2.2,2.5V16ZM208,17.7a2.5,2.5,0,0,1-5-.9,2.5,2.5,0,0,1,3-2,2.4,2.4,0,0,1,2,2.4v.5Zm9.9,2.3a2.5,2.5,0,0,1-4.9-1.2,2.5,2.5,0,0,1,3.1-1.8,2.6,2.6,0,0,1,1.9,2.4c0,.2-.1.4-.1.6Zm9.7,3a2.5,2.5,0,1,1-1.6-3.2,2.5,2.5,0,0,1,1.7,2.4,2.2,2.2,0,0,1-.1.8Zm9.5,3.6a2.4,2.4,0,0,1-3.2,1.4,2.5,2.5,0,1,1,3.4-2.3,1.5,1.5,0,0,1-.2.9Zm9.3,4.3a2.5,2.5,0,0,1-3.3,1.1,2.4,2.4,0,0,1-1.2-3.3,2.5,2.5,0,0,1,3.3-1.2,2.7,2.7,0,0,1,1.4,2.3,2.3,2.3,0,0,1-.2,1.1Zm8.9,4.8a2.6,2.6,0,0,1-3.4,1,2.5,2.5,0,0,1-.9-3.4,2.5,2.5,0,0,1,3.4-1,2.6,2.6,0,0,1,1.3,2.2,1.9,1.9,0,0,1-.4,1.2Zm8.7,5.5a2.7,2.7,0,0,1-3.5.7,2.5,2.5,0,0,1-.7-3.5,2.4,2.4,0,0,1,3.4-.7,2.5,2.5,0,0,1,1.2,2.1,3.7,3.7,0,0,1-.4,1.4Zm8.2,5.9a2.4,2.4,0,0,1-3.5.5,2.5,2.5,0,0,1,3-4,2.8,2.8,0,0,1,1,2,2.5,2.5,0,0,1-.5,1.5Zm7.8,6.5a2.5,2.5,0,1,1-3.8-3.2,2.5,2.5,0,0,1,3.6-.3,2.7,2.7,0,0,1,.8,1.9,2.3,2.3,0,0,1-.6,1.6Z"/><path class="cls-1" d="M288.2,58.9a.7.7,0,0,1-.1.5c0,.2-.1.3-.1.5a.8.8,0,0,0-.2.4.8.8,0,0,1-.4.4,2.2,2.2,0,0,1-1.7.7,2.4,2.4,0,0,1-1.8-.7l-.3-.4a.8.8,0,0,1-.2-.4l-.2-.5v-1c.1-.1.1-.3.2-.4s.1-.3.2-.5l.3-.3a2.5,2.5,0,0,1,1.8-.8h.9l.5.3q.1,0,.3.3a2.3,2.3,0,0,1,.8,1.7Z"/><path class="cls-1" d="M296.9,50.1a2.8,2.8,0,0,1-2.5,2.5,2.3,2.3,0,0,1-1.8-.8,2.6,2.6,0,0,1,0-3.5,2.3,2.3,0,0,1,1.8-.7,2.2,2.2,0,0,1,1.7.7,2.5,2.5,0,0,1,.8,1.8Z"/><path class="cls-1" d="M131.1,11.6h0A2.4,2.4,0,0,1,128,9.9a2.6,2.6,0,0,1,1.7-3.1,2.4,2.4,0,0,1,3.1,1.7,2,2,0,0,1,.1.7,2.5,2.5,0,0,1-1.8,2.4Zm9.4-2.4a2.5,2.5,0,0,1-3-1.9,2.6,2.6,0,0,1,1.9-3,2.5,2.5,0,0,1,3,1.9c0,.2.1.4.1.6a2.5,2.5,0,0,1-2,2.4ZM150,7.3h0a2.6,2.6,0,0,1-2.9-2.1,2.5,2.5,0,0,1,2.1-2.8,2.4,2.4,0,0,1,2.9,2v.4A2.6,2.6,0,0,1,150,7.3ZM159.6,6a2.5,2.5,0,0,1-2.7-2.2A2.4,2.4,0,0,1,159.1,1a2.3,2.3,0,0,1,2.7,2.2v.3A2.6,2.6,0,0,1,159.6,6Zm9.7-.8a2.4,2.4,0,0,1-2.6-2.4A2.5,2.5,0,0,1,169,.2a2.6,2.6,0,0,1,2.7,2.4h0a2.6,2.6,0,0,1-2.4,2.5Zm12.2-2.7A2.5,2.5,0,0,1,179,5a2.5,2.5,0,0,1-2.5-2.5,2.5,2.5,0,0,1,5,0Zm9.8.5a2.5,2.5,0,1,1-5-.3,2.5,2.5,0,0,1,5,.2Zm9.8,1.1a2.5,2.5,0,0,1-2.8,2.2,2.6,2.6,0,0,1-2.2-2.8,2.6,2.6,0,0,1,2.8-2.2,2.6,2.6,0,0,1,2.2,2.5v.3Zm9.7,1.7a2.6,2.6,0,0,1-2.9,2,2.5,2.5,0,0,1-2-2.9,2.4,2.4,0,0,1,2.9-2,2.5,2.5,0,0,1,2,2.4v.5ZM220.4,8a2.5,2.5,0,0,1-4.9-1.2,2.5,2.5,0,0,1,3-1.8,2.4,2.4,0,0,1,1.9,2.4V8Zm9.4,2.8a2.5,2.5,0,0,1-3.1,1.7A2.7,2.7,0,0,1,225,9.3a2.5,2.5,0,0,1,3.2-1.6,2.5,2.5,0,0,1,1.7,2.4,1.7,1.7,0,0,1-.1.7Zm9.3,3.4a2.6,2.6,0,0,1-3.3,1.4h0a2.4,2.4,0,0,1-1.4-3.2,2.5,2.5,0,0,1,3.2-1.5,2.6,2.6,0,0,1,1.6,2.4,2.8,2.8,0,0,1-.1.9Zm9,3.8a2.5,2.5,0,0,1-3.3,1.3,2.5,2.5,0,0,1-1.3-3.3,2.5,2.5,0,0,1,4.8,1,3,3,0,0,1-.2,1Zm8.8,4.5a2.5,2.5,0,0,1-3.4,1,2.6,2.6,0,0,1-1.1-3.4,2.5,2.5,0,0,1,3.4-1,2.4,2.4,0,0,1,1.4,2.2,2.7,2.7,0,0,1-.3,1.2Zm8.5,4.9a2.6,2.6,0,0,1-3.4.9,2.6,2.6,0,0,1-.9-3.5,2.6,2.6,0,0,1,3.4-.9,2.6,2.6,0,0,1,1.2,2.2,3.1,3.1,0,0,1-.3,1.3Zm8.2,5.4a2.6,2.6,0,0,1-3.5.7,2.5,2.5,0,0,1-.6-3.5,2.5,2.5,0,0,1,4.5,1.4,2.3,2.3,0,0,1-.4,1.4Zm7.9,5.9a2.4,2.4,0,0,1-3.5.4,2.5,2.5,0,0,1-.5-3.5,2.4,2.4,0,0,1,3.5-.4,2.3,2.3,0,0,1,1,2,3,3,0,0,1-.5,1.5ZM289,45a2.4,2.4,0,0,1-3.5.3h0a2.4,2.4,0,0,1-.3-3.5,2.5,2.5,0,0,1,3.6-.3,2.7,2.7,0,0,1,.8,1.9A2.3,2.3,0,0,1,289,45Z"/><path class="cls-1" d="M123.6,12.3a2.5,2.5,0,0,1-.8,1.8l-.4.3-.4.2-.5.2h-.4a2.9,2.9,0,0,1-1.8-.7,2.7,2.7,0,0,1,0-3.6,2.9,2.9,0,0,1,1.8-.7h.4l.5.2.4.2.4.3a2.5,2.5,0,0,1,.8,1.8Z"/><path class="cls-1" d="M141.9,51.4v.5l-.2.5c-.1.1-.1.3-.2.4l-.3.4a2.7,2.7,0,0,1-3.6,0l-.3-.4c-.1-.1-.1-.3-.2-.4l-.2-.5a3.2,3.2,0,0,1,.7-2.3,2.7,2.7,0,0,1,3.6,0,3.1,3.1,0,0,1,.7,1.8Z"/><path class="cls-1" d="M149.8,50.9h0a2.5,2.5,0,0,1-1.3-4.9,2.6,2.6,0,0,1,3.1,1.8c0,.2.1.5.1.7a2.6,2.6,0,0,1-1.9,2.4Zm9.8-2.1h0a2.5,2.5,0,1,1,2-2.9v.4a2.5,2.5,0,0,1-2,2.5Zm9.9-1.2h0a2.5,2.5,0,0,1-.4-5h0a2.5,2.5,0,0,1,2.7,2.3v.2a2.5,2.5,0,0,1-2.3,2.5ZM182,44.7a2.6,2.6,0,0,1-2.6,2.5,2.5,2.5,0,1,1,2.6-2.5Zm10.1.8a2.5,2.5,0,0,1-2.7,2.2,2.3,2.3,0,0,1-2.2-2.7,2.5,2.5,0,0,1,2.7-2.3,2.7,2.7,0,0,1,2.3,2.5v.3Zm10.1,1.6a2.5,2.5,0,0,1-2.9,2,2.5,2.5,0,0,1-2-2.9,2.4,2.4,0,0,1,2.9-2,2.5,2.5,0,0,1,2.1,2.4c0,.2-.1.3-.1.5Zm9.9,2.5a2.5,2.5,0,0,1-3.1,1.7h0a2.5,2.5,0,1,1,3.2-2.4,2,2,0,0,1-.1.7Zm9.6,3.3a2.5,2.5,0,1,1-4.6-1.8,2.5,2.5,0,0,1,3.2-1.4,2.4,2.4,0,0,1,1.6,2.3,1.5,1.5,0,0,1-.2.9Zm9.4,4.1a2.5,2.5,0,0,1-3.4,1.2,2.5,2.5,0,1,1,2.2-4.5,2.4,2.4,0,0,1,1.4,2.3,3.6,3.6,0,0,1-.2,1Zm8.9,5a2.5,2.5,0,0,1-3.4.9h0a2.5,2.5,0,1,1,2.5-4.3,2.4,2.4,0,0,1,1.2,2.1A2.8,2.8,0,0,1,240,62Zm8.4,5.7a2.4,2.4,0,0,1-3.4.6h0a2.5,2.5,0,0,1-.6-3.5,2.4,2.4,0,0,1,3.4-.6,2.6,2.6,0,0,1,1.1,2.1,2.4,2.4,0,0,1-.5,1.4Zm8,6.4a2.5,2.5,0,0,1-3.5.3,2.5,2.5,0,1,1,3.2-3.8,2.5,2.5,0,0,1,.9,1.9,2.7,2.7,0,0,1-.6,1.6Z"/><path class="cls-1" d="M264.5,79.4a3.1,3.1,0,0,1-.7,1.8l-.4.3-.4.2h-1a3.1,3.1,0,0,1-1.8-.7l-.3-.4-.2-.5a.6.6,0,0,1-.1-.4,1.7,1.7,0,0,1,0-1,1.1,1.1,0,0,1,.1-.5c.1-.1.1-.3.2-.4l.3-.4a3.1,3.1,0,0,1,1.8-.7h.5l.5.2.4.2.4.3a2.9,2.9,0,0,1,.7,1.8Z"/></g></g></svg>