<svg xmlns="http://www.w3.org/2000/svg" viewBox="0 0 547.2 556.1"><defs><style>.cls-1{fill:#66bb6a;}.cls-2{fill:#ff7043;}.cls-3{fill:#ffa726;}.cls-4{fill:#546e7a;}.cls-5{fill:#607d8b;}</style></defs><title>circle</title><g id="Layer_1" data-name="Layer 1"><path class="cls-1" d="M268.9,538.1h-1.5A264.9,264.9,0,0,1,8.3,273.1,276.3,276.3,0,0,1,10.4,239a263.8,263.8,0,0,1,6.4-32.8A270.5,270.5,0,0,1,27,175c1.8-4.5,3.8-9,5.8-13.5l2.7,1.3c-2.1,4.3-4,8.8-5.8,13.3A259.3,259.3,0,0,0,19.6,207a253.9,253.9,0,0,0-6.3,32.4,269.8,269.8,0,0,0-2.1,33.7A261.8,261.8,0,0,0,266,535.1v-173a89.3,89.3,0,0,1-31.3-8.4,89.2,89.2,0,0,1-44.2-47.1,89.2,89.2,0,0,1-6.5-33.5,92.4,92.4,0,0,1,.6-10.5,89.2,89.2,0,0,1,1.8-10.1,81,81,0,0,1,2.8-9.6c1-2.7,2.1-5.4,3.3-8l-113-65.3,1.4-2.5,115.5,66.6-.6,1.3a70,70,0,0,0-3.8,8.9c-1.1,3-2,6.2-2.8,9.3s-1.3,6.5-1.7,9.8a84.3,84.3,0,0,0-.6,10.1,85.4,85.4,0,0,0,6.3,32.4,86.4,86.4,0,0,0,17.1,26.7,86.6,86.6,0,0,0,57.2,27.1h1.4Z"/><path class="cls-1" d="M42.1,146.4c-6.5,6-15.8,12.9-23.6,16.1l14.7,1.8L43.4,175C41.3,166.8,41.2,155.2,42.1,146.4Z"/><path class="cls-2" d="M345.8,226.1l-.7-1.1a88.4,88.4,0,0,0-30.5-27.8,87.1,87.1,0,0,0-19.6-7.8,88.2,88.2,0,0,0-43.3,0,86.1,86.1,0,0,0-19.7,7.8A88.4,88.4,0,0,0,201.5,225l-.7,1.1L46,136.8l.7-1.3a266.7,266.7,0,0,1,94.8-92.4A261.1,261.1,0,0,1,204,17.2,264.5,264.5,0,0,1,405.1,43.1a261.1,261.1,0,0,1,53.2,40.2,269,269,0,0,1,31.8,37.3l-2.4,1.7A262.2,262.2,0,0,0,90.3,85.4,267.2,267.2,0,0,0,50,135.7l149.9,86.5a86.2,86.2,0,0,1,13.2-15.1,89.9,89.9,0,0,1,17.5-12.5,88.4,88.4,0,0,1,20.3-8,89.5,89.5,0,0,1,44.8,0,86.7,86.7,0,0,1,20.3,8,94.4,94.4,0,0,1,17.5,12.5,86.2,86.2,0,0,1,13.2,15.1L459.8,157l1.5,2.5Z"/><path class="cls-2" d="M498.6,136.2c-2-8.6-3.3-20.1-2.2-28.5l-8.8,11.9-14.4,3.5C481.4,125.3,491.5,131,498.6,136.2Z"/><path class="cls-3" d="M296.9,537.1l-.2-2.9A261.6,261.6,0,0,0,535.4,273.1a269.8,269.8,0,0,0-2.1-33.7A253.9,253.9,0,0,0,527,207a259.3,259.3,0,0,0-10.1-30.9,267.9,267.9,0,0,0-13-27.7L354.1,234.9c1.2,2.6,2.3,5.3,3.3,8s2.1,6.4,2.9,9.6,1.3,6.8,1.7,10.1a92.4,92.4,0,0,1,.6,10.5,91.1,91.1,0,0,1-6.4,33.5,92.4,92.4,0,0,1-17.8,27.7,90.6,90.6,0,0,1-26.5,19.4,89.3,89.3,0,0,1-31.3,8.4V492.6h-2.9V359.4h1.4a86.1,86.1,0,0,0,57.2-27.1,86.4,86.4,0,0,0,17.1-26.7,85.4,85.4,0,0,0,6.3-32.4,84.3,84.3,0,0,0-.6-10.1,80.3,80.3,0,0,0-1.7-9.8,76.4,76.4,0,0,0-2.8-9.3,87.6,87.6,0,0,0-3.7-8.9l-.7-1.3L505,144.4l.8,1.3A260.9,260.9,0,0,1,519.6,175a252.5,252.5,0,0,1,10.2,31.2,263.8,263.8,0,0,1,6.4,32.8,276.3,276.3,0,0,1,2.1,34.1,264.6,264.6,0,0,1-241.4,264Z"/><path class="cls-3" d="M279.2,536.6c8.5,2.6,19.1,7.2,25.8,12.4l-5.9-13.6,4.2-14.2C297.2,527.1,287.3,533,279.2,536.6Z"/><path class="cls-4" d="M272.9,57.3h-3v5.2h-1.7V49.7h4.3a4.8,4.8,0,0,1,3.3,1,3.3,3.3,0,0,1,1.1,2.8,3.7,3.7,0,0,1-.6,2.1,3.5,3.5,0,0,1-1.8,1.3l3,5.5h-1.8Zm-3-1.4h2.6a3.2,3.2,0,0,0,2-.6,2.3,2.3,0,0,0,.7-1.8,2.1,2.1,0,0,0-.7-1.8,2.8,2.8,0,0,0-2-.6h-2.6Z"/><path class="cls-4" d="M283,62.7a4.2,4.2,0,0,1-3.1-1.3,4.5,4.5,0,0,1-1.3-3.4v-.3a4.9,4.9,0,0,1,.6-2.5,3.4,3.4,0,0,1,1.5-1.8,4.1,4.1,0,0,1,5,.6,5.2,5.2,0,0,1,1,3.5v.7h-6.4a3.6,3.6,0,0,0,.8,2.3,2.8,2.8,0,0,0,2,.8,2.6,2.6,0,0,0,1.4-.3,5.2,5.2,0,0,0,1.1-1l1,.8A4.1,4.1,0,0,1,283,62.7Zm-.2-8.6a2.6,2.6,0,0,0-1.7.7,4,4,0,0,0-.8,2.1h4.8v-.2a3.6,3.6,0,0,0-.7-1.9A2.2,2.2,0,0,0,282.8,54.1Z"/><path class="cls-4" d="M291.6,60.3,294,53h1.6l-3.4,9.5H291L287.5,53h1.7Z"/><path class="cls-4" d="M297.2,50.4a1.4,1.4,0,0,1,.2-.6,1,1,0,0,1,.8-.3.9.9,0,0,1,.7.3,1.4,1.4,0,0,1,.2.6,1.4,1.4,0,0,1-.2.7.9.9,0,0,1-.7.3,1,1,0,0,1-.8-.3A1.4,1.4,0,0,1,297.2,50.4ZM299,62.5h-1.7V53H299Z"/><path class="cls-4" d="M305.5,62.7a4.2,4.2,0,0,1-3.1-1.3,4.9,4.9,0,0,1-1.2-3.4v-.3a4.9,4.9,0,0,1,.5-2.5,4.5,4.5,0,0,1,1.5-1.8,4.2,4.2,0,0,1,2.1-.6,3.7,3.7,0,0,1,2.9,1.2,5.2,5.2,0,0,1,1,3.5v.7h-6.4a3.6,3.6,0,0,0,.8,2.3,2.8,2.8,0,0,0,2,.8,3.3,3.3,0,0,0,1.5-.3l1-1,1,.8A4.1,4.1,0,0,1,305.5,62.7Zm-.2-8.6a2.4,2.4,0,0,0-1.6.7,3.4,3.4,0,0,0-.9,2.1h4.8v-.2a3.6,3.6,0,0,0-.7-1.9A2.2,2.2,0,0,0,305.3,54.1Z"/><path class="cls-4" d="M319.5,60.2l1.8-7.2H323l-2.8,9.5h-1.3l-2.3-7.2-2.3,7.2H313L310.2,53h1.7l1.8,7.1L316,53h1.3Z"/><path class="cls-4" d="M254.2,89a2.4,2.4,0,0,1-1.8-.7,2.9,2.9,0,0,1-.7-1.9,3.2,3.2,0,0,1,.7-2,2.9,2.9,0,0,1,1.9-.7,2.5,2.5,0,0,1,1.8.8,2.4,2.4,0,0,1,.7,1.9,2.6,2.6,0,0,1-.7,1.9A2.5,2.5,0,0,1,254.2,89Zm.1-1a2,2,0,0,0,1.3-.4,2,2,0,0,0,0-2.4,2,2,0,0,0-1.4-.5,1.7,1.7,0,0,0-1.2,2.9A1.7,1.7,0,0,0,254.3,88Z"/><path class="cls-4" d="M272.1,89.3V81.4h2.6a2.7,2.7,0,0,1,1.9.6,1.8,1.8,0,0,1,.6,1.5,1.7,1.7,0,0,1-.3,1,2.7,2.7,0,0,1-.8.7,2.1,2.1,0,0,1,1,.6,2.7,2.7,0,0,1,.3,1.2,2.4,2.4,0,0,1-.6,1.7,3,3,0,0,1-2,.6Zm1.1-4.5h1.5a1.4,1.4,0,0,0,1.1-.4,1.2,1.2,0,0,0,0-1.8,1.6,1.6,0,0,0-1.1-.3h-1.5Zm0,.8v2.8h1.7a2,2,0,0,0,1.1-.3,1.4,1.4,0,0,0,.4-1.1c0-.9-.5-1.4-1.5-1.4Z"/><path class="cls-4" d="M281.2,89.4a2.6,2.6,0,0,1-1.9-.8,2.8,2.8,0,0,1-.7-2.1v-.2a4,4,0,0,1,.3-1.5,2.4,2.4,0,0,1,.9-1.1,2.8,2.8,0,0,1,1.3-.3,2.3,2.3,0,0,1,1.8.7,3.3,3.3,0,0,1,.6,2.1v.4h-3.9a1.6,1.6,0,0,0,.5,1.4,1.4,1.4,0,0,0,1.2.6l.9-.2.6-.6.6.5A2.5,2.5,0,0,1,281.2,89.4Zm-.1-5.2a1.3,1.3,0,0,0-1,.4,2.2,2.2,0,0,0-.5,1.2h2.9a2.1,2.1,0,0,0-.4-1.2A1.2,1.2,0,0,0,281.1,84.2Z"/><path class="cls-4" d="M285.6,83.5v.7a2.1,2.1,0,0,1,1.8-.8c1.2,0,1.8.6,1.8,2v3.9h-1V85.4a1.2,1.2,0,0,0-.3-.9,1,1,0,0,0-.8-.3,1.4,1.4,0,0,0-.9.3,1.7,1.7,0,0,0-.6.6v4.2h-1V83.5Z"/><path class="cls-4" d="M293,88.6a1.3,1.3,0,0,0,1-.4,1,1,0,0,0,.4-.8h1a3,3,0,0,1-.4,1,2.7,2.7,0,0,1-.8.7,2.7,2.7,0,0,1-1.2.3,2.3,2.3,0,0,1-1.8-.8,3.1,3.1,0,0,1-.7-2.2h0a4.1,4.1,0,0,1,.3-1.6,2.8,2.8,0,0,1,.9-1,2.8,2.8,0,0,1,1.3-.3,2.5,2.5,0,0,1,1.7.5,2.6,2.6,0,0,1,.7,1.6h-1a1.8,1.8,0,0,0-.4-1,1.7,1.7,0,0,0-1-.3c-.5,0-.9.1-1.1.5a2.5,2.5,0,0,0-.4,1.6v.2a2.2,2.2,0,0,0,.4,1.5A1.1,1.1,0,0,0,293,88.6Z"/><path class="cls-4" d="M297.5,84.2a1.9,1.9,0,0,1,1.7-.8c1.2,0,1.8.6,1.8,2v3.9h-1V85.4a2,2,0,0,0-.2-.9,1.2,1.2,0,0,0-.9-.3l-.9.3a1,1,0,0,0-.5.6v4.2h-1V81h1Z"/><path class="cls-4" d="M303.5,83.5v.6a2.1,2.1,0,0,1,1.7-.7,1.8,1.8,0,0,1,1.7.9l.7-.7a2,2,0,0,1,1.1-.2,1.8,1.8,0,0,1,2,2v3.9h-1V85.4a1.2,1.2,0,0,0-.3-.9,1.3,1.3,0,0,0-1-.3l-.9.3a1.3,1.3,0,0,0-.4.9v3.9h-1V85.5c0-.9-.4-1.3-1.2-1.3a1.5,1.5,0,0,0-1.4.8v4.3h-1V83.5Z"/><path class="cls-4" d="M315.8,89.3c-.1-.1-.1-.3-.2-.6a2.4,2.4,0,0,1-1.6.7,2,2,0,0,1-1.4-.5,1.4,1.4,0,0,1-.6-1.2,1.8,1.8,0,0,1,.7-1.5,3.6,3.6,0,0,1,1.9-.5h1v-.4a1,1,0,0,0-.3-.8,1.2,1.2,0,0,0-.9-.3c-.4,0-.7,0-.9.2a.8.8,0,0,0-.4.7h-1a1.6,1.6,0,0,1,.3-.9,2,2,0,0,1,.9-.6,2,2,0,0,1,1.1-.2,2.1,2.1,0,0,1,1.6.5,1.5,1.5,0,0,1,.6,1.3v2.7a4.4,4.4,0,0,0,.2,1.3h-1Zm-1.7-.8.9-.2a1.3,1.3,0,0,0,.6-.7V86.4h-.8c-1.2,0-1.8.4-1.8,1.1a.8.8,0,0,0,.3.7A1.1,1.1,0,0,0,314.1,88.5Z"/><path class="cls-4" d="M321,84.3h-.5a1.3,1.3,0,0,0-1.3.8v4.2h-1V83.5h.9v.6a1.6,1.6,0,0,1,1.4-.7h.5Z"/><path class="cls-4" d="M323.5,86.6l-.6.6v2.1h-1V81h1v5l.5-.6,1.8-1.9h1.2l-2.2,2.4,2.5,3.4h-1.2Z"/><path class="cls-4" d="M254.2,105.2a2.4,2.4,0,0,1-1.8-.7,2.9,2.9,0,0,1-.7-1.9,3.2,3.2,0,0,1,.7-2,2.9,2.9,0,0,1,1.9-.7,2.5,2.5,0,0,1,1.8.8,2.4,2.4,0,0,1,.7,1.9,2.6,2.6,0,0,1-.7,1.9A2.5,2.5,0,0,1,254.2,105.2Zm.1-1a2,2,0,0,0,1.3-.4,2,2,0,0,0,0-2.4,2,2,0,0,0-1.4-.5,1.7,1.7,0,0,0-1.2,2.9A1.7,1.7,0,0,0,254.3,104.2Z"/><path class="cls-4" d="M272.1,105.5V97.6h2.6a2.7,2.7,0,0,1,1.9.6,1.8,1.8,0,0,1,.6,1.5,1.7,1.7,0,0,1-.3,1,2.7,2.7,0,0,1-.8.7,2.1,2.1,0,0,1,1,.6,2.7,2.7,0,0,1,.3,1.2,2.4,2.4,0,0,1-.6,1.7,3,3,0,0,1-2,.6Zm1.1-4.5h1.5a1.4,1.4,0,0,0,1.1-.4,1.2,1.2,0,0,0,0-1.8,1.6,1.6,0,0,0-1.1-.3h-1.5Zm0,.8v2.8h1.7a2,2,0,0,0,1.1-.3,1.4,1.4,0,0,0,.4-1.1c0-.9-.5-1.4-1.5-1.4Z"/><path class="cls-4" d="M281.2,105.6a2.6,2.6,0,0,1-1.9-.8,2.8,2.8,0,0,1-.7-2.1v-.2a4,4,0,0,1,.3-1.5,2.4,2.4,0,0,1,.9-1.1,2.8,2.8,0,0,1,1.3-.3,2.3,2.3,0,0,1,1.8.7,3.3,3.3,0,0,1,.6,2.1v.4h-3.9a1.6,1.6,0,0,0,.5,1.4,1.4,1.4,0,0,0,1.2.6l.9-.2.6-.6.6.5A2.5,2.5,0,0,1,281.2,105.6Zm-.1-5.2a1.3,1.3,0,0,0-1,.4,2.2,2.2,0,0,0-.5,1.2h2.9a2.1,2.1,0,0,0-.4-1.2A1.2,1.2,0,0,0,281.1,100.4Z"/><path class="cls-4" d="M288,103.9a.9.9,0,0,0-.3-.6l-1-.4-1.2-.4a1.8,1.8,0,0,1-.7-.5,1.9,1.9,0,0,1-.2-.7,1.8,1.8,0,0,1,.6-1.3,2.5,2.5,0,0,1,1.6-.4,2.4,2.4,0,0,1,1.6.5,1.5,1.5,0,0,1,.6,1.3h-1a.8.8,0,0,0-.4-.7,1.1,1.1,0,0,0-.8-.3c-.4,0-.7,0-.9.2a.9.9,0,0,0-.3.6.7.7,0,0,0,.3.6l1,.3,1.2.4c.3.2.6.3.7.6a1.5,1.5,0,0,1,.2.8,1.4,1.4,0,0,1-.6,1.2,2.9,2.9,0,0,1-2.9.2,1.8,1.8,0,0,1-.8-.7,1.6,1.6,0,0,1-.3-.9h1a.9.9,0,0,0,.4.8,1.5,1.5,0,0,0,1,.3,1.2,1.2,0,0,0,.9-.3A.6.6,0,0,0,288,103.9Z"/><path class="cls-4" d="M291.7,98.3v1.4h1.1v.7h-1.1V104a1.1,1.1,0,0,0,.1.6h1v.8H292a1.5,1.5,0,0,1-1-.4,2.1,2.1,0,0,1-.3-1.2v-3.6h-1.1v-.7h1.1V98.3Z"/><path class="cls-4" d="M301.5,102.6a3.8,3.8,0,0,1-.6,2.2,1.9,1.9,0,0,1-1.6.8,2.1,2.1,0,0,1-1.7-.7v2.8h-1v-8h.9v.6a2.1,2.1,0,0,1,1.7-.7,1.9,1.9,0,0,1,1.6.7,3.8,3.8,0,0,1,.6,2.2Zm-1-.1a2.2,2.2,0,0,0-.4-1.5,1.1,1.1,0,0,0-1.1-.6,1.6,1.6,0,0,0-1.4.8V104a1.6,1.6,0,0,0,1.4.8,1.3,1.3,0,0,0,1.1-.6A2.7,2.7,0,0,0,300.5,102.5Z"/><path class="cls-4" d="M305.6,100.5h-.5a1.3,1.3,0,0,0-1.3.8v4.2h-1V99.7h1v.6a1.5,1.5,0,0,1,1.4-.7h.4Z"/><path class="cls-4" d="M309.9,105.5c-.1-.1-.1-.3-.1-.6a2.8,2.8,0,0,1-1.7.7,2.2,2.2,0,0,1-1.4-.5,1.4,1.4,0,0,1-.6-1.2,2.1,2.1,0,0,1,.7-1.5,3.7,3.7,0,0,1,2-.5h.9v-.4a1,1,0,0,0-.3-.8,1.2,1.2,0,0,0-.9-.3,1.5,1.5,0,0,0-.9.2.9.9,0,0,0-.3.7h-1a1.6,1.6,0,0,1,.3-.9,2.4,2.4,0,0,1,.8-.6,2.5,2.5,0,0,1,1.2-.2,1.8,1.8,0,0,1,1.5.5,1.5,1.5,0,0,1,.6,1.3v2.7a4.4,4.4,0,0,0,.2,1.3h-1Zm-1.6-.8.8-.2a1.3,1.3,0,0,0,.6-.7v-1.2H309c-1.3,0-1.9.4-1.9,1.1a.7.7,0,0,0,.4.7A1,1,0,0,0,308.3,104.7Z"/><path class="cls-4" d="M314.6,104.8a1.3,1.3,0,0,0,1-.4,1,1,0,0,0,.4-.8h.9a1.7,1.7,0,0,1-.3,1,2.2,2.2,0,0,1-.9.7,2,2,0,0,1-1.1.3,2.6,2.6,0,0,1-1.9-.8,3.6,3.6,0,0,1-.7-2.2h0a2.9,2.9,0,0,1,.4-1.6,3.9,3.9,0,0,1,.8-1,3.2,3.2,0,0,1,1.4-.3,2.1,2.1,0,0,1,1.6.5,1.9,1.9,0,0,1,.7,1.6H316a1.8,1.8,0,0,0-.4-1,1.7,1.7,0,0,0-1-.3,1.3,1.3,0,0,0-1.2.5,3.4,3.4,0,0,0-.4,1.6v.2a3,3,0,0,0,.4,1.5A1.4,1.4,0,0,0,314.6,104.8Z"/><path class="cls-4" d="M319.4,98.3v1.4h1.1v.7h-1.1V104c0,.3.1.4.1.6h1v.8h-.7a1.8,1.8,0,0,1-1.1-.4,2.1,2.1,0,0,1-.3-1.2v-3.6h-1v-.7h1V98.3Z"/><path class="cls-4" d="M321.7,98.1a.6.6,0,0,1,.1-.4l.4-.2.5.2a.6.6,0,0,1,.1.4c0,.2,0,.3-.1.4l-.5.2a.5.5,0,0,1-.4-.2C321.7,98.4,321.7,98.3,321.7,98.1Zm1,7.4h-1V99.7h1Z"/><path class="cls-4" d="M326.6,104.8a1.3,1.3,0,0,0,1-.4,1,1,0,0,0,.4-.8h1a3,3,0,0,1-.4,1,2.7,2.7,0,0,1-.8.7l-1.2.3a2.3,2.3,0,0,1-1.8-.8,3.1,3.1,0,0,1-.7-2.2h0a4.1,4.1,0,0,1,.3-1.6,2.8,2.8,0,0,1,.9-1,2.8,2.8,0,0,1,1.3-.3,2.5,2.5,0,0,1,1.7.5,2.6,2.6,0,0,1,.7,1.6h-1a1.8,1.8,0,0,0-.4-1,1.7,1.7,0,0,0-1-.3c-.5,0-.9.1-1.1.5a2.5,2.5,0,0,0-.4,1.6v.2a2.2,2.2,0,0,0,.4,1.5A1.1,1.1,0,0,0,326.6,104.8Z"/><path class="cls-4" d="M332.5,105.6a2.6,2.6,0,0,1-1.9-.8,2.9,2.9,0,0,1-.8-2.1v-.2a2.8,2.8,0,0,1,.4-1.5,2.4,2.4,0,0,1,.9-1.1,2.8,2.8,0,0,1,1.3-.3,2.1,2.1,0,0,1,1.7.7,3.3,3.3,0,0,1,.7,2.1v.4h-4a2,2,0,0,0,.5,1.4,1.4,1.4,0,0,0,1.2.6l.9-.2.7-.6.6.5A2.5,2.5,0,0,1,332.5,105.6Zm-.1-5.2a1.2,1.2,0,0,0-1,.4,2.3,2.3,0,0,0-.6,1.2h3a3.4,3.4,0,0,0-.4-1.2A1.3,1.3,0,0,0,332.4,100.4Z"/><path class="cls-4" d="M342.2,105.5a3.5,3.5,0,0,1-.1-.6,2.6,2.6,0,0,1-1.7.7,2.2,2.2,0,0,1-1.4-.5,1.3,1.3,0,0,1-.5-1.2,2,2,0,0,1,.6-1.5,3.9,3.9,0,0,1,2-.5h1v-.4a.8.8,0,0,0-.4-.8,1.2,1.2,0,0,0-.9-.3,1.5,1.5,0,0,0-.9.2.9.9,0,0,0-.3.7h-1a1.6,1.6,0,0,1,.3-.9,2.4,2.4,0,0,1,.8-.6,2.5,2.5,0,0,1,1.2-.2,2.1,2.1,0,0,1,1.6.5,2.3,2.3,0,0,1,.6,1.3v2.7a2.5,2.5,0,0,0,.2,1.3h-1.1Zm-1.6-.8.9-.2.6-.7v-1.2h-.8c-1.2,0-1.8.4-1.8,1.1a.8.8,0,0,0,.3.7A1,1,0,0,0,340.6,104.7Z"/><path class="cls-4" d="M345.7,105.5h-1V97.2h1Z"/><path class="cls-4" d="M347.3,98.1a.6.6,0,0,1,.1-.4l.5-.2a.5.5,0,0,1,.4.2l.2.4a.7.7,0,0,1-.6.6l-.5-.2C347.3,98.4,347.3,98.3,347.3,98.1Zm1.1,7.4h-1V99.7h1Z"/><path class="cls-4" d="M349.7,102.5a3.3,3.3,0,0,1,.6-2.1,2,2,0,0,1,1.7-.8,2.1,2.1,0,0,1,1.7.7v-.6h.9v5.6a2.4,2.4,0,0,1-.6,1.8,2.9,2.9,0,0,1-1.8.7,2.8,2.8,0,0,1-1.3-.3,2.2,2.2,0,0,1-.9-.7l.5-.6a2,2,0,0,0,1.6.7,1.4,1.4,0,0,0,1.1-.4,1.2,1.2,0,0,0,.4-1.1v-.5a2.2,2.2,0,0,1-1.6.7,2.3,2.3,0,0,1-1.7-.8A3.9,3.9,0,0,1,349.7,102.5Zm1,.1a2.5,2.5,0,0,0,.4,1.6,1.6,1.6,0,0,0,1.1.5,1.5,1.5,0,0,0,1.4-.8v-2.7a1.4,1.4,0,0,0-1.3-.8,1.4,1.4,0,0,0-1.2.6A2.4,2.4,0,0,0,350.7,102.6Z"/><path class="cls-4" d="M357.1,99.7v.7a1.9,1.9,0,0,1,1.7-.8c1.3,0,1.9.6,1.9,2v3.9h-1v-3.9a1.1,1.1,0,0,0-1.2-1.2,1.1,1.1,0,0,0-.8.3.9.9,0,0,0-.6.6v4.2h-1V99.7Z"/><path class="cls-4" d="M363.1,99.7v.6a2.1,2.1,0,0,1,1.7-.7,1.6,1.6,0,0,1,1.6.9,2.7,2.7,0,0,1,.8-.7,2,2,0,0,1,1.1-.2c1.3,0,1.9.6,1.9,2v3.9h-1v-3.9a2,2,0,0,0-.2-.9,1.5,1.5,0,0,0-1-.3,1.2,1.2,0,0,0-.9.3,1,1,0,0,0-.4.9v3.9h-1v-3.8a1.2,1.2,0,0,0-1.3-1.3,1.3,1.3,0,0,0-1.3.8v4.3h-1V99.7Z"/><path class="cls-4" d="M374.2,105.6a2.7,2.7,0,0,1-1.9-.8,2.8,2.8,0,0,1-.7-2.1v-.2a4,4,0,0,1,.3-1.5,2.4,2.4,0,0,1,.9-1.1,3.1,3.1,0,0,1,1.3-.3,2.1,2.1,0,0,1,1.8.7,3.3,3.3,0,0,1,.6,2.1v.4h-3.9a2,2,0,0,0,.5,1.4,1.4,1.4,0,0,0,1.2.6l.9-.2.6-.6.6.5A2.5,2.5,0,0,1,374.2,105.6Zm-.1-5.2a1.3,1.3,0,0,0-1,.4,2.2,2.2,0,0,0-.5,1.2h2.9a1.6,1.6,0,0,0-.4-1.2A1.2,1.2,0,0,0,374.1,100.4Z"/><path class="cls-4" d="M378.6,99.7v.7a2.2,2.2,0,0,1,1.8-.8c1.2,0,1.8.6,1.8,2v3.9h-1v-3.9a1.2,1.2,0,0,0-.3-.9c-.1-.2-.4-.3-.8-.3a1.4,1.4,0,0,0-.9.3,1,1,0,0,0-.5.6v4.2h-1V99.7Z"/><path class="cls-4" d="M385.1,98.3v1.4h1.1v.7h-1.1V104a1.1,1.1,0,0,0,.1.6h1v.8h-.8a1.5,1.5,0,0,1-1-.4,2.1,2.1,0,0,1-.3-1.2v-3.6H383v-.7h1.1V98.3Z"/><path class="cls-4" d="M254.2,121.4a2.4,2.4,0,0,1-1.8-.7,2.9,2.9,0,0,1-.7-1.9,3.2,3.2,0,0,1,.7-2,2.9,2.9,0,0,1,1.9-.7,2.5,2.5,0,0,1,1.8.8,2.4,2.4,0,0,1,.7,1.9,2.6,2.6,0,0,1-.7,1.9A2.5,2.5,0,0,1,254.2,121.4Zm.1-1a2,2,0,0,0,1.3-.4,2,2,0,0,0,0-2.4,2,2,0,0,0-1.4-.5A1.7,1.7,0,0,0,253,120,1.7,1.7,0,0,0,254.3,120.4Z"/><path class="cls-4" d="M273.2,121.7h-1v-7.9h1Z"/><path class="cls-4" d="M274.7,118.7a2.8,2.8,0,0,1,.7-2.1,1.7,1.7,0,0,1,1.6-.8,2.1,2.1,0,0,1,1.6.6v-3h1v8.3h-.9V121a2.1,2.1,0,0,1-1.7.8,1.8,1.8,0,0,1-1.6-.9,2.8,2.8,0,0,1-.7-2.1Zm1,.1a2.5,2.5,0,0,0,.4,1.6,1.6,1.6,0,0,0,1.1.5,1.3,1.3,0,0,0,1.4-.8v-2.7a1.4,1.4,0,0,0-1.3-.8,1.4,1.4,0,0,0-1.2.6A2.4,2.4,0,0,0,275.7,118.8Z"/><path class="cls-4" d="M283.6,121.8a2.4,2.4,0,0,1-1.9-.8,2.9,2.9,0,0,1-.8-2.1v-.2a4,4,0,0,1,.3-1.5,3.6,3.6,0,0,1,1-1.1,2.8,2.8,0,0,1,1.3-.3,2.1,2.1,0,0,1,1.7.7,3.3,3.3,0,0,1,.6,2.1v.4h-3.9a2,2,0,0,0,.5,1.4,1.4,1.4,0,0,0,1.2.6l.9-.2.7-.6.6.5A2.5,2.5,0,0,1,283.6,121.8Zm-.1-5.2a1.5,1.5,0,0,0-1.1.4,3.3,3.3,0,0,0-.5,1.2h2.9a1.6,1.6,0,0,0-.4-1.2A1,1,0,0,0,283.5,116.6Z"/><path class="cls-4" d="M287.9,115.9v.7a1.9,1.9,0,0,1,1.7-.8c1.2,0,1.9.6,1.9,2v3.9h-1v-3.9a1.1,1.1,0,0,0-1.2-1.2,1.1,1.1,0,0,0-.8.3.9.9,0,0,0-.6.6v4.2h-1v-5.8Z"/><path class="cls-4" d="M294.4,114.5v1.4h1.1v.7h-1.1v3.6a1.1,1.1,0,0,0,.2.6h.9v.8h-.7a1.3,1.3,0,0,1-1-.4,1.6,1.6,0,0,1-.4-1.2v-3.6h-1v-.7h1v-1.4Z"/><path class="cls-4" d="M296.7,114.3a.6.6,0,0,1,.1-.4l.4-.2.5.2a.6.6,0,0,1,.1.4c0,.2,0,.3-.1.4l-.5.2-.4-.2C296.7,114.6,296.7,114.5,296.7,114.3Zm1,7.4h-1v-5.8h1Z"/><path class="cls-4" d="M299.8,121.7v-5.1h-.9v-.7h.9v-.6a2.3,2.3,0,0,1,.5-1.5,2,2,0,0,1,1.4-.5h.7v.8h-.6a.8.8,0,0,0-.7.3,1.1,1.1,0,0,0-.3.8v.7H302v.7h-1.2v5.1Z"/><path class="cls-4" d="M305,120.2l1.4-4.3h1.1l-2.4,6.7a1.8,1.8,0,0,1-1.7,1.4h-.6v-.8h.3a1.1,1.1,0,0,0,.8-.2c.2-.1.3-.3.5-.7l.2-.6-2.1-5.7h1.1Z"/><path class="cls-4" d="M316,118.8a3.8,3.8,0,0,1-.6,2.2,2.1,2.1,0,0,1-1.7.8,1.9,1.9,0,0,1-1.6-.7v2.8h-1v-8h.9v.6a2.4,2.4,0,0,1,3.4,0,3.8,3.8,0,0,1,.6,2.2Zm-1-.1a3,3,0,0,0-.4-1.5,1.4,1.4,0,0,0-1.2-.6,1.4,1.4,0,0,0-1.3.8v2.8a1.4,1.4,0,0,0,1.3.8,1.4,1.4,0,0,0,1.2-.6A3.5,3.5,0,0,0,315,118.7Z"/><path class="cls-4" d="M320.1,116.7h-.5a1.5,1.5,0,0,0-1.4.8v4.2h-1v-5.8h1v.6a1.6,1.6,0,0,1,1.4-.7h.5Z"/><path class="cls-4" d="M320.6,118.7a3.3,3.3,0,0,1,.3-1.5,3.6,3.6,0,0,1,1-1.1,2.8,2.8,0,0,1,1.3-.3,2.4,2.4,0,0,1,2,.8,3.4,3.4,0,0,1,.7,2.2h0a4.1,4.1,0,0,1-.3,1.6,3.2,3.2,0,0,1-1,1,2.1,2.1,0,0,1-1.4.4,2.7,2.7,0,0,1-1.9-.8,3.2,3.2,0,0,1-.7-2.2Zm1,.1a2.5,2.5,0,0,0,.4,1.6,1.5,1.5,0,0,0,2.4,0,2.9,2.9,0,0,0,.5-1.7,2.5,2.5,0,0,0-.5-1.5,1.5,1.5,0,0,0-2.4,0A2.4,2.4,0,0,0,321.6,118.8Z"/><path class="cls-4" d="M329.5,121a1.2,1.2,0,0,0,.9-.4.8.8,0,0,0,.4-.8h1a1.8,1.8,0,0,1-.4,1,2.7,2.7,0,0,1-.8.7,2.3,2.3,0,0,1-1.1.3,2.4,2.4,0,0,1-1.9-.8,3.1,3.1,0,0,1-.7-2.2h0a4.1,4.1,0,0,1,.3-1.6,2.8,2.8,0,0,1,.9-1,2.9,2.9,0,0,1,1.4-.3,2.2,2.2,0,0,1,1.6.5,2.6,2.6,0,0,1,.7,1.6h-1a1.3,1.3,0,0,0-.4-1,1.6,1.6,0,0,0-.9-.3,1.3,1.3,0,0,0-1.2.5,2.5,2.5,0,0,0-.4,1.6v.2a2.2,2.2,0,0,0,.4,1.5A1.4,1.4,0,0,0,329.5,121Z"/><path class="cls-4" d="M335.3,121.8a2.6,2.6,0,0,1-1.9-.8,2.9,2.9,0,0,1-.8-2.1v-.2a2.8,2.8,0,0,1,.4-1.5,2.4,2.4,0,0,1,.9-1.1,2.8,2.8,0,0,1,1.3-.3,2.1,2.1,0,0,1,1.7.7,2.8,2.8,0,0,1,.7,2.1v.4h-4a2,2,0,0,0,.5,1.4,1.8,1.8,0,0,0,1.3.6l.8-.2.7-.6.6.5A2.5,2.5,0,0,1,335.3,121.8Zm-.1-5.2a1.2,1.2,0,0,0-1,.4,1.7,1.7,0,0,0-.5,1.2h2.9a3.4,3.4,0,0,0-.4-1.2A1.3,1.3,0,0,0,335.2,116.6Z"/><path class="cls-4" d="M342.1,120.1a.9.9,0,0,0-.3-.6l-1.1-.4-1.2-.4a1,1,0,0,1-.6-.5,1,1,0,0,1-.2-.7,1.8,1.8,0,0,1,.6-1.3,2.4,2.4,0,0,1,1.5-.4,2.1,2.1,0,0,1,1.6.5,1.5,1.5,0,0,1,.6,1.3h-1a.9.9,0,0,0-.3-.7,1.2,1.2,0,0,0-.9-.3,1.1,1.1,0,0,0-.8.2.9.9,0,0,0-.3.6.7.7,0,0,0,.3.6l1,.3,1.2.4a2,2,0,0,1,.7.6,1.5,1.5,0,0,1,.2.8,1.4,1.4,0,0,1-.6,1.2,2.9,2.9,0,0,1-2.9.2,1.8,1.8,0,0,1-.8-.7,1.6,1.6,0,0,1-.3-.9h1a.9.9,0,0,0,.4.8,1.3,1.3,0,0,0,1,.3,1.6,1.6,0,0,0,.9-.3A.6.6,0,0,0,342.1,120.1Z"/><path class="cls-4" d="M347.8,120.1a.9.9,0,0,0-.3-.6l-1.1-.4-1.2-.4a1,1,0,0,1-.6-.5,1.1,1.1,0,0,1-.3-.7,1.6,1.6,0,0,1,.7-1.3,2.4,2.4,0,0,1,1.5-.4,2.1,2.1,0,0,1,1.6.5,1.5,1.5,0,0,1,.6,1.3h-1a.9.9,0,0,0-.3-.7,1.6,1.6,0,0,0-.9-.3,1.3,1.3,0,0,0-.9.2.9.9,0,0,0-.3.6.7.7,0,0,0,.3.6l1.1.3,1.2.4c.3.2.5.3.6.6a1,1,0,0,1,.3.8,1.3,1.3,0,0,1-.7,1.2,2.5,2.5,0,0,1-1.6.5,2.7,2.7,0,0,1-1.2-.3,1.4,1.4,0,0,1-.8-.7,1.2,1.2,0,0,1-.4-.9h1a2,2,0,0,0,.4.8,1.7,1.7,0,0,0,1,.3,1.2,1.2,0,0,0,.9-.3A.5.5,0,0,0,347.8,120.1Z"/><path class="cls-4" d="M352.5,118.7a3.3,3.3,0,0,1,.7-2.1,1.8,1.8,0,0,1,1.6-.8,2.4,2.4,0,0,1,1.7.6v-3h.9v8.3h-.9V121a2.1,2.1,0,0,1-1.7.8,1.9,1.9,0,0,1-1.6-.9,3.3,3.3,0,0,1-.7-2.1Zm1,.1a3.4,3.4,0,0,0,.4,1.6,1.7,1.7,0,0,0,1.2.5,1.4,1.4,0,0,0,1.4-.8v-2.7a1.6,1.6,0,0,0-1.4-.8,1.4,1.4,0,0,0-1.2.6A3.1,3.1,0,0,0,353.5,118.8Z"/><path class="cls-4" d="M359,114.3a.6.6,0,0,1,.1-.4l.5-.2a.5.5,0,0,1,.4.2.8.8,0,0,1,.2.4.5.5,0,0,1-.2.4l-.4.2-.5-.2C359,114.6,359,114.5,359,114.3Zm1.1,7.4h-1v-5.8h1Z"/><path class="cls-4" d="M365,120.1a.9.9,0,0,0-.3-.6l-1-.4-1.2-.4a1.8,1.8,0,0,1-.7-.5,1.9,1.9,0,0,1-.2-.7,1.8,1.8,0,0,1,.6-1.3,2.5,2.5,0,0,1,1.6-.4,2.2,2.2,0,0,1,1.6.5,1.5,1.5,0,0,1,.6,1.3h-1a.8.8,0,0,0-.4-.7,1.1,1.1,0,0,0-.8-.3c-.4,0-.7,0-.9.2a.9.9,0,0,0-.3.6.7.7,0,0,0,.3.6l1,.3,1.2.4c.3.2.6.3.7.6s.2.4.2.8a1.4,1.4,0,0,1-.6,1.2,2.5,2.5,0,0,1-1.6.5,2.1,2.1,0,0,1-1.2-.3,1.6,1.6,0,0,1-.9-.7,1.6,1.6,0,0,1-.3-.9h1a1.2,1.2,0,0,0,.4.8,1.7,1.7,0,0,0,1,.3,1.2,1.2,0,0,0,.9-.3A.6.6,0,0,0,365,120.1Z"/><path class="cls-4" d="M369.7,121a1.2,1.2,0,0,0,.9-.4.8.8,0,0,0,.4-.8h1a1.8,1.8,0,0,1-.4,1,2.7,2.7,0,0,1-.8.7,2.3,2.3,0,0,1-1.1.3,2.4,2.4,0,0,1-1.9-.8,3.1,3.1,0,0,1-.7-2.2h0a4.1,4.1,0,0,1,.3-1.6,2.8,2.8,0,0,1,.9-1,2.9,2.9,0,0,1,1.4-.3,2.4,2.4,0,0,1,1.6.5,2.6,2.6,0,0,1,.7,1.6h-1a1.3,1.3,0,0,0-.4-1,1.6,1.6,0,0,0-.9-.3,1.2,1.2,0,0,0-1.2.5,2.5,2.5,0,0,0-.4,1.6v.2a2.2,2.2,0,0,0,.4,1.5A1.3,1.3,0,0,0,369.7,121Z"/><path class="cls-4" d="M372.8,118.7a2.4,2.4,0,0,1,.4-1.5,2.4,2.4,0,0,1,.9-1.1,2.9,2.9,0,0,1,1.4-.3,2.2,2.2,0,0,1,1.9.8,2.9,2.9,0,0,1,.7,2.2h0a4.1,4.1,0,0,1-.3,1.6,2.2,2.2,0,0,1-.9,1,2.3,2.3,0,0,1-1.4.4,2.4,2.4,0,0,1-1.9-.8,3.3,3.3,0,0,1-.8-2.2Zm1,.1a2.5,2.5,0,0,0,.5,1.6,1.5,1.5,0,0,0,2.4,0,2.9,2.9,0,0,0,.4-1.7,2.4,2.4,0,0,0-.4-1.5,1.5,1.5,0,0,0-2.4,0A2.3,2.3,0,0,0,373.8,118.8Z"/><path class="cls-4" d="M380.3,115.9v.7a2.2,2.2,0,0,1,1.8-.8c1.2,0,1.8.6,1.8,2v3.9h-1v-3.9a2,2,0,0,0-.2-.9,1.2,1.2,0,0,0-.9-.3,1.4,1.4,0,0,0-.9.3,1,1,0,0,0-.5.6v4.2h-1v-5.8Z"/><path class="cls-4" d="M386.4,115.9v.7a1.9,1.9,0,0,1,1.7-.8c1.3,0,1.9.6,1.9,2v3.9h-1v-3.9a1.1,1.1,0,0,0-1.2-1.2,1.1,1.1,0,0,0-.8.3c-.3.1-.4.3-.6.6v4.2h-1v-5.8Z"/><path class="cls-4" d="M393.9,121.8a2.6,2.6,0,0,1-1.9-.8,2.9,2.9,0,0,1-.8-2.1v-.2a4.2,4.2,0,0,1,.4-1.5,2.4,2.4,0,0,1,.9-1.1,2.8,2.8,0,0,1,1.3-.3,2.1,2.1,0,0,1,1.7.7,2.8,2.8,0,0,1,.7,2.1v.4h-4a2.6,2.6,0,0,0,.5,1.4,1.8,1.8,0,0,0,1.3.6l.9-.2.6-.6.6.5A2.5,2.5,0,0,1,393.9,121.8Zm-.1-5.2a1.2,1.2,0,0,0-1,.4,1.7,1.7,0,0,0-.5,1.2h2.9a2.1,2.1,0,0,0-.4-1.2A1.3,1.3,0,0,0,393.8,116.6Z"/><path class="cls-4" d="M399.7,121a1.2,1.2,0,0,0,.9-.4.8.8,0,0,0,.4-.8h1a3,3,0,0,1-.4,1,2.7,2.7,0,0,1-.8.7,2.3,2.3,0,0,1-1.1.3,2.4,2.4,0,0,1-1.9-.8,3.1,3.1,0,0,1-.7-2.2h0a4.1,4.1,0,0,1,.3-1.6,2.8,2.8,0,0,1,.9-1,2.9,2.9,0,0,1,1.4-.3,2.4,2.4,0,0,1,1.6.5,2.6,2.6,0,0,1,.7,1.6h-1a1.3,1.3,0,0,0-.4-1,1.6,1.6,0,0,0-.9-.3,1.2,1.2,0,0,0-1.2.5,2.5,2.5,0,0,0-.4,1.6v.2a2.2,2.2,0,0,0,.4,1.5A1.3,1.3,0,0,0,399.7,121Z"/><path class="cls-4" d="M404.4,114.5v1.4h1.1v.7h-1.1v3.6a1.1,1.1,0,0,0,.2.6h.9v.8h-.7a1.3,1.3,0,0,1-1-.4,2.1,2.1,0,0,1-.4-1.2v-3.6h-1v-.7h1v-1.4Z"/><path class="cls-4" d="M410.1,120.1a.9.9,0,0,0-.3-.6l-1.1-.4-1.2-.4a1.8,1.8,0,0,1-.7-.5,1.9,1.9,0,0,1-.2-.7,1.8,1.8,0,0,1,.6-1.3,2.7,2.7,0,0,1,1.6-.4,2.2,2.2,0,0,1,1.6.5,1.5,1.5,0,0,1,.6,1.3h-1a.9.9,0,0,0-.3-.7,1.6,1.6,0,0,0-.9-.3c-.4,0-.7,0-.9.2a.9.9,0,0,0-.3.6.7.7,0,0,0,.3.6l1,.3,1.2.4c.4.2.6.3.7.6a1,1,0,0,1,.3.8,1.5,1.5,0,0,1-.7,1.2,2.5,2.5,0,0,1-1.6.5,2.4,2.4,0,0,1-1.2-.3,1.6,1.6,0,0,1-.9-.7,1.6,1.6,0,0,1-.3-.9h1a1.2,1.2,0,0,0,.4.8,1.7,1.7,0,0,0,1,.3,1.2,1.2,0,0,0,.9-.3A.7.7,0,0,0,410.1,120.1Z"/><path class="cls-4" d="M254.2,137.6a2.4,2.4,0,0,1-1.8-.7,2.9,2.9,0,0,1-.7-1.9,3.2,3.2,0,0,1,.7-2,2.9,2.9,0,0,1,1.9-.7,2.5,2.5,0,0,1,1.8.8,2.4,2.4,0,0,1,.7,1.9,2.6,2.6,0,0,1-.7,1.9A2.5,2.5,0,0,1,254.2,137.6Zm.1-1a2,2,0,0,0,1.3-.4,2,2,0,0,0,0-2.4,2,2,0,0,0-1.4-.5,1.7,1.7,0,0,0-1.2,2.9A1.7,1.7,0,0,0,254.3,136.6Z"/><path class="cls-4" d="M276.4,135.8h-3.2l-.8,2.1h-1l3-7.9h.9l2.9,7.9h-1Zm-2.9-.8h2.6l-1.3-3.7Z"/><path class="cls-4" d="M278.9,134.9a3.3,3.3,0,0,1,.6-2.1,2,2,0,0,1,1.7-.8,2.1,2.1,0,0,1,1.6.6v-3h1v8.3h-.9v-.7a1.9,1.9,0,0,1-1.6.8,2.1,2.1,0,0,1-1.7-.9,3.3,3.3,0,0,1-.6-2.1Zm1,.1a2.5,2.5,0,0,0,.4,1.6,1.6,1.6,0,0,0,1.1.5,1.3,1.3,0,0,0,1.4-.8v-2.7a1.5,1.5,0,0,0-1.4-.8,1.4,1.4,0,0,0-1.1.6A2.4,2.4,0,0,0,279.9,135Z"/><path class="cls-4" d="M285.1,134.9a3.3,3.3,0,0,1,.6-2.1,2,2,0,0,1,1.7-.8,2.1,2.1,0,0,1,1.6.6v-3h1v8.3h-.9v-.7a1.8,1.8,0,0,1-1.6.8,2.1,2.1,0,0,1-1.7-.9,3.3,3.3,0,0,1-.6-2.1Zm1,.1a2.5,2.5,0,0,0,.4,1.6,1.6,1.6,0,0,0,1.1.5,1.3,1.3,0,0,0,1.4-.8v-2.7a1.5,1.5,0,0,0-1.4-.8,1.4,1.4,0,0,0-1.1.6A2.4,2.4,0,0,0,286.1,135Z"/><path class="cls-4" d="M296.6,137.2a1,1,0,0,0,.9-.4,1.1,1.1,0,0,0,.5-.8h.9a1.7,1.7,0,0,1-.3,1,2.2,2.2,0,0,1-.9.7,2,2,0,0,1-1.1.3,2.6,2.6,0,0,1-1.9-.8,3.1,3.1,0,0,1-.7-2.2h0a4.1,4.1,0,0,1,.3-1.6,2.8,2.8,0,0,1,.9-1,3.2,3.2,0,0,1,1.4-.3,2.1,2.1,0,0,1,1.6.5,1.9,1.9,0,0,1,.7,1.6H298a1.9,1.9,0,0,0-.5-1,1.2,1.2,0,0,0-.9-.3,1.3,1.3,0,0,0-1.2.5,2.5,2.5,0,0,0-.4,1.6v.2a2.2,2.2,0,0,0,.4,1.5A1.4,1.4,0,0,0,296.6,137.2Z"/><path class="cls-4" d="M299.8,134.9a3.3,3.3,0,0,1,.3-1.5,2.4,2.4,0,0,1,.9-1.1,3.2,3.2,0,0,1,1.4-.3,2.2,2.2,0,0,1,1.9.8,2.9,2.9,0,0,1,.8,2.2h0a2.9,2.9,0,0,1-.4,1.6,2.2,2.2,0,0,1-.9,1,2.3,2.3,0,0,1-1.4.4,2.6,2.6,0,0,1-1.9-.8,3.2,3.2,0,0,1-.7-2.2Zm1,.1a2.5,2.5,0,0,0,.4,1.6,1.5,1.5,0,0,0,2.4,0,2.9,2.9,0,0,0,.5-1.7,2.5,2.5,0,0,0-.5-1.5,1.5,1.5,0,0,0-2.4,0A2.4,2.4,0,0,0,300.8,135Z"/><path class="cls-4" d="M307.2,132.1v.7a1.9,1.9,0,0,1,1.7-.8c1.2,0,1.9.6,1.9,2v3.9h-1V134a1.1,1.1,0,0,0-1.2-1.2,1.1,1.1,0,0,0-.8.3.9.9,0,0,0-.6.6v4.2h-1v-5.8Z"/><path class="cls-4" d="M313.7,130.7v1.4h1.1v.7h-1.1v3.6a1.1,1.1,0,0,0,.2.6h.9v.8h-.7a1.3,1.3,0,0,1-1-.4,1.6,1.6,0,0,1-.4-1.2v-3.6h-1v-.7h1v-1.4Z"/><path class="cls-4" d="M318.4,138a2.4,2.4,0,0,1-1.9-.8,2.9,2.9,0,0,1-.8-2.1v-.2a4,4,0,0,1,.3-1.5,3.6,3.6,0,0,1,1-1.1,2.8,2.8,0,0,1,1.3-.3,2.1,2.1,0,0,1,1.7.7,3.3,3.3,0,0,1,.6,2.1v.4h-3.9a2,2,0,0,0,.5,1.4,1.4,1.4,0,0,0,1.2.6l.9-.2.7-.6.6.5A2.5,2.5,0,0,1,318.4,138Zm-.1-5.2a1.5,1.5,0,0,0-1.1.4,3.3,3.3,0,0,0-.5,1.2h3a2.2,2.2,0,0,0-.5-1.2A1,1,0,0,0,318.3,132.8Z"/><path class="cls-4" d="M323.7,134.2l1.3-2.1h1.2l-1.9,2.8,2,3h-1.2l-1.3-2.2-1.4,2.2h-1.1l1.9-3-1.9-2.8h1.2Z"/><path class="cls-4" d="M328.6,130.7v1.4h1.1v.7h-1.1v3.6a1.1,1.1,0,0,0,.1.6h1v.8h-.8a1.8,1.8,0,0,1-1-.4,2.1,2.1,0,0,1-.3-1.2v-3.6h-1.1v-.7h1.1v-1.4Z"/><path class="cls-4" d="M254.2,153.8a2.4,2.4,0,0,1-1.8-.7,2.9,2.9,0,0,1-.7-1.9,3.2,3.2,0,0,1,.7-2,2.9,2.9,0,0,1,1.9-.7,2.5,2.5,0,0,1,1.8.8,2.4,2.4,0,0,1,.7,1.9,2.6,2.6,0,0,1-.7,1.9A2.5,2.5,0,0,1,254.2,153.8Zm.1-1a2,2,0,0,0,1.3-.4,2,2,0,0,0,0-2.4,2,2,0,0,0-1.4-.5,1.7,1.7,0,0,0-1.2,2.9A1.7,1.7,0,0,0,254.3,152.8Z"/><path class="cls-4" d="M272.1,154.1v-7.9h2.6a2.7,2.7,0,0,1,1.9.6,1.8,1.8,0,0,1,.6,1.5,1.7,1.7,0,0,1-.3,1,2.7,2.7,0,0,1-.8.7,2.1,2.1,0,0,1,1,.6,2.7,2.7,0,0,1,.3,1.2,2.4,2.4,0,0,1-.6,1.7,3,3,0,0,1-2,.6Zm1.1-4.5h1.5a1.4,1.4,0,0,0,1.1-.4,1.2,1.2,0,0,0,0-1.8,1.6,1.6,0,0,0-1.1-.3h-1.5Zm0,.8v2.8h1.7a2,2,0,0,0,1.1-.3,1.4,1.4,0,0,0,.4-1.1c0-.9-.5-1.4-1.5-1.4Z"/><path class="cls-4" d="M282.4,153.5a2.2,2.2,0,0,1-1.7.7,1.7,1.7,0,0,1-1.4-.6,2.3,2.3,0,0,1-.5-1.6v-3.7h1V152c0,.9.3,1.3,1.1,1.3a1.5,1.5,0,0,0,1.5-.8v-4.2h1v5.8h-1Z"/><path class="cls-4" d="M284.9,146.7a.6.6,0,0,1,.1-.4l.5-.2.4.2.2.4a.7.7,0,0,1-.6.6l-.5-.2C284.9,147,284.9,146.9,284.9,146.7Zm1.1,7.4h-1v-5.8h1Z"/><path class="cls-4" d="M288.6,154.1h-1v-8.3h1Z"/><path class="cls-4" d="M290,151.1a3.3,3.3,0,0,1,.6-2.1,1.9,1.9,0,0,1,1.7-.8,2.1,2.1,0,0,1,1.6.6v-3h1v8.3H294v-.7a1.9,1.9,0,0,1-1.6.8,2,2,0,0,1-1.7-.9,3.3,3.3,0,0,1-.6-2.1Zm1,.1a2.5,2.5,0,0,0,.4,1.6,1.6,1.6,0,0,0,2.5-.3v-2.7a1.6,1.6,0,0,0-1.4-.8,1.3,1.3,0,0,0-1.1.6A2.4,2.4,0,0,0,291,151.2Z"/><path class="cls-4" d="M304.1,151.2a3.8,3.8,0,0,1-.6,2.2,2.3,2.3,0,0,1-1.7.8,2.1,2.1,0,0,1-1.7-.8v.7h-1v-8.3h1v3.1a2.1,2.1,0,0,1,1.7-.7,1.9,1.9,0,0,1,1.7.8,3.3,3.3,0,0,1,.6,2.1Zm-1-.1a3.4,3.4,0,0,0-.4-1.6,1.6,1.6,0,0,0-1.1-.5,1.6,1.6,0,0,0-1.5.9v2.5a1.6,1.6,0,0,0,1.5.9,1.6,1.6,0,0,0,1.1-.5A3.5,3.5,0,0,0,303.1,151.1Z"/><path class="cls-4" d="M308.9,153.5a2.2,2.2,0,0,1-1.7.7,1.7,1.7,0,0,1-1.4-.6,2.3,2.3,0,0,1-.5-1.6v-3.7h1V152c0,.9.3,1.3,1.1,1.3a1.5,1.5,0,0,0,1.5-.8v-4.2h1v5.8h-1Z"/><path class="cls-4" d="M314.8,152.5a.9.9,0,0,0-.3-.6l-1.1-.4a3.4,3.4,0,0,1-1.2-.4,1,1,0,0,1-.6-.5,1.1,1.1,0,0,1-.3-.7,1.8,1.8,0,0,1,.6-1.3,2.7,2.7,0,0,1,1.6-.4,2.2,2.2,0,0,1,1.6.5,1.5,1.5,0,0,1,.6,1.3h-1a.9.9,0,0,0-.3-.7,1.6,1.6,0,0,0-.9-.3c-.4,0-.7,0-.9.2a.9.9,0,0,0-.3.6.7.7,0,0,0,.3.6l1,.3,1.3.4c.3.2.5.3.6.6a1,1,0,0,1,.3.8,1.3,1.3,0,0,1-.7,1.2,2.5,2.5,0,0,1-1.6.5,2.4,2.4,0,0,1-1.2-.3,1.6,1.6,0,0,1-.9-.7,1.6,1.6,0,0,1-.3-.9h1a2,2,0,0,0,.4.8,1.7,1.7,0,0,0,1,.3,1.2,1.2,0,0,0,.9-.3A.5.5,0,0,0,314.8,152.5Z"/><path class="cls-4" d="M317.1,146.7a.6.6,0,0,1,.1-.4l.4-.2.5.2a.6.6,0,0,1,.1.4c0,.2,0,.3-.1.4l-.5.2-.4-.2C317.1,147,317.1,146.9,317.1,146.7Zm1,7.4h-1v-5.8h1Z"/><path class="cls-4" d="M320.7,148.3v.7a1.9,1.9,0,0,1,1.7-.8c1.3,0,1.9.6,1.9,2v3.9h-1v-3.9a1.1,1.1,0,0,0-1.2-1.2,1.1,1.1,0,0,0-.8.3c-.3.1-.4.3-.6.6v4.2h-1v-5.8Z"/><path class="cls-4" d="M328.2,154.2a2.6,2.6,0,0,1-1.9-.8,2.9,2.9,0,0,1-.8-2.1v-.2a4.2,4.2,0,0,1,.4-1.5,2.4,2.4,0,0,1,.9-1.1,2.8,2.8,0,0,1,1.3-.3,2.1,2.1,0,0,1,1.7.7,2.8,2.8,0,0,1,.7,2.1v.4h-4a2.6,2.6,0,0,0,.5,1.4,1.8,1.8,0,0,0,1.3.6l.9-.2.6-.6.6.5A2.5,2.5,0,0,1,328.2,154.2Zm-.1-5.2a1.2,1.2,0,0,0-1,.4,1.7,1.7,0,0,0-.5,1.2h2.9a2.1,2.1,0,0,0-.4-1.2A1.3,1.3,0,0,0,328.1,149Z"/><path class="cls-4" d="M335,152.5a.9.9,0,0,0-.3-.6l-1.1-.4a3.4,3.4,0,0,1-1.2-.4,1.5,1.5,0,0,1-.6-.5,1,1,0,0,1-.2-.7,1.8,1.8,0,0,1,.6-1.3,2.4,2.4,0,0,1,1.5-.4,2.1,2.1,0,0,1,1.6.5,1.5,1.5,0,0,1,.6,1.3h-1a.9.9,0,0,0-.3-.7,1.2,1.2,0,0,0-.9-.3,1.1,1.1,0,0,0-.8.2.9.9,0,0,0-.3.6.7.7,0,0,0,.3.6l1,.3,1.2.4a2,2,0,0,1,.7.6,1.5,1.5,0,0,1,.2.8,1.4,1.4,0,0,1-.6,1.2,2.9,2.9,0,0,1-2.9.2,1.8,1.8,0,0,1-.8-.7,1.6,1.6,0,0,1-.3-.9h1a.9.9,0,0,0,.4.8,1.5,1.5,0,0,0,1,.3,1.6,1.6,0,0,0,.9-.3A.6.6,0,0,0,335,152.5Z"/><path class="cls-4" d="M340.7,152.5a.9.9,0,0,0-.3-.6l-1.1-.4a3.4,3.4,0,0,1-1.2-.4,1,1,0,0,1-.6-.5,1,1,0,0,1-.2-.7,1.8,1.8,0,0,1,.6-1.3,2.4,2.4,0,0,1,1.5-.4,2.1,2.1,0,0,1,1.6.5,1.5,1.5,0,0,1,.6,1.3h-1a.9.9,0,0,0-.3-.7,1.6,1.6,0,0,0-.9-.3c-.4,0-.6,0-.8.2a.7.7,0,0,0-.4.6.7.7,0,0,0,.3.6l1.1.3,1.2.4c.3.2.5.3.6.6a1,1,0,0,1,.3.8,1.3,1.3,0,0,1-.7,1.2,2.5,2.5,0,0,1-1.6.5l-1.2-.3a1.4,1.4,0,0,1-.8-.7,1.6,1.6,0,0,1-.3-.9h.9a2,2,0,0,0,.4.8,1.7,1.7,0,0,0,1,.3,1.2,1.2,0,0,0,.9-.3A.5.5,0,0,0,340.7,152.5Z"/><path class="cls-4" d="M348,153.4a1,1,0,0,0,.9-.4.9.9,0,0,0,.5-.8h.9a1.7,1.7,0,0,1-.3,1,2.2,2.2,0,0,1-.9.7,2,2,0,0,1-1.1.3,2.6,2.6,0,0,1-1.9-.8,3.6,3.6,0,0,1-.7-2.2h0a4.1,4.1,0,0,1,.3-1.6,2.8,2.8,0,0,1,.9-1,3.2,3.2,0,0,1,1.4-.3,2.1,2.1,0,0,1,1.6.5,1.9,1.9,0,0,1,.7,1.6h-.9a1.8,1.8,0,0,0-.4-1,1.7,1.7,0,0,0-1-.3,1.3,1.3,0,0,0-1.2.5,3.4,3.4,0,0,0-.4,1.6v.2a3,3,0,0,0,.4,1.5A1.4,1.4,0,0,0,348,153.4Z"/><path class="cls-4" d="M355,154.1a3.5,3.5,0,0,1-.1-.6,2.6,2.6,0,0,1-1.7.7,2.4,2.4,0,0,1-1.4-.5,1.7,1.7,0,0,1-.5-1.2,1.8,1.8,0,0,1,.7-1.5,3.3,3.3,0,0,1,1.9-.5h1v-.4a1,1,0,0,0-.3-.8,1.3,1.3,0,0,0-1-.3,1.1,1.1,0,0,0-.8.2.8.8,0,0,0-.4.7h-1a1.6,1.6,0,0,1,.3-.9,2.4,2.4,0,0,1,.8-.6,2.5,2.5,0,0,1,1.2-.2,2.1,2.1,0,0,1,1.6.5,1.5,1.5,0,0,1,.6,1.3v2.7a2.5,2.5,0,0,0,.2,1.3H355Zm-1.6-.8.9-.2a1.3,1.3,0,0,0,.6-.7v-1.2h-.8c-1.2,0-1.8.4-1.8,1.1a.8.8,0,0,0,.3.7A1.1,1.1,0,0,0,353.4,153.3Z"/><path class="cls-4" d="M360.8,152.5a.9.9,0,0,0-.3-.6l-1-.4a2.4,2.4,0,0,1-1.2-.4,1.3,1.3,0,0,1-.7-.5,1.9,1.9,0,0,1-.2-.7,1.8,1.8,0,0,1,.6-1.3,2.4,2.4,0,0,1,1.5-.4,2.1,2.1,0,0,1,1.6.5,1.6,1.6,0,0,1,.7,1.3h-1a1,1,0,0,0-.4-.7,1.2,1.2,0,0,0-.9-.3,1.1,1.1,0,0,0-.8.2.9.9,0,0,0-.3.6.7.7,0,0,0,.3.6l1,.3,1.2.4a2,2,0,0,1,.7.6,1.5,1.5,0,0,1,.2.8,1.4,1.4,0,0,1-.6,1.2,2.9,2.9,0,0,1-2.9.2,1.8,1.8,0,0,1-.8-.7,1.6,1.6,0,0,1-.3-.9h1a.9.9,0,0,0,.4.8,1.5,1.5,0,0,0,1,.3l.9-.3A.6.6,0,0,0,360.8,152.5Z"/><path class="cls-4" d="M365.5,154.2a2.6,2.6,0,0,1-1.9-.8,2.9,2.9,0,0,1-.8-2.1v-.2a4.2,4.2,0,0,1,.4-1.5,2.4,2.4,0,0,1,.9-1.1,2.8,2.8,0,0,1,1.3-.3,2.4,2.4,0,0,1,1.8.7,3.3,3.3,0,0,1,.6,2.1v.4h-4a2.6,2.6,0,0,0,.5,1.4,1.8,1.8,0,0,0,1.3.6l.9-.2.6-.6.6.5A2.5,2.5,0,0,1,365.5,154.2Zm-.1-5.2a1.3,1.3,0,0,0-1,.4,1.7,1.7,0,0,0-.5,1.2h2.9a2.1,2.1,0,0,0-.4-1.2A1.3,1.3,0,0,0,365.4,149Z"/><path class="cls-4" d="M67.3,268.4a8.1,8.1,0,0,1-.6,3.3,6.7,6.7,0,0,1-1.8,2.2,5.6,5.6,0,0,1-5.4,0,4.9,4.9,0,0,1-1.8-2.2,6.3,6.3,0,0,1-.7-3.2v-.9a6.6,6.6,0,0,1,.7-3.2,4.4,4.4,0,0,1,1.8-2.2,4.6,4.6,0,0,1,2.7-.8,5,5,0,0,1,2.7.8,6.3,6.3,0,0,1,1.8,2.1,8.8,8.8,0,0,1,.6,3.3Zm-1.7-.8a5.8,5.8,0,0,0-.9-3.5,3,3,0,0,0-2.5-1.2,3.1,3.1,0,0,0-2.6,1.2,5.7,5.7,0,0,0-.9,3.4v.9a5.8,5.8,0,0,0,.9,3.5,3.2,3.2,0,0,0,2.6,1.3,2.9,2.9,0,0,0,2.5-1.2,5.7,5.7,0,0,0,.9-3.4Z"/><path class="cls-4" d="M77.6,269.8a5.6,5.6,0,0,1-1,3.5,3,3,0,0,1-2.7,1.3,3.7,3.7,0,0,1-2.7-1.1v4.6H69.6V264.9h1.5V266a3.3,3.3,0,0,1,2.8-1.3,3.5,3.5,0,0,1,2.7,1.3,5.7,5.7,0,0,1,1,3.6Zm-1.6-.2a4.2,4.2,0,0,0-.7-2.6,2.5,2.5,0,0,0-4.1.4V272a2.5,2.5,0,0,0,2.2,1.3,2.2,2.2,0,0,0,1.9-1A4.1,4.1,0,0,0,76,269.6Z"/><path class="cls-4" d="M81.9,262.6v2.3h1.8v1.3H81.9v5.9a1.5,1.5,0,0,0,.2.8,1,1,0,0,0,.8.3h.8v1.3l-1.2.2a1.9,1.9,0,0,1-1.7-.7,2.4,2.4,0,0,1-.5-1.8v-5.9H78.5v-1.3h1.8v-2.3Z"/><path class="cls-4" d="M85.6,262.4a.8.8,0,0,1,.2-.7.9.9,0,0,1,.7-.3.8.8,0,0,1,.7.3.9.9,0,0,1,.3.7.7.7,0,0,1-.3.6.8.8,0,0,1-.7.3.9.9,0,0,1-.7-.3C85.6,262.9,85.6,262.6,85.6,262.4Zm1.7,12H85.7v-9.5h1.6Z"/><path class="cls-4" d="M91.5,264.9V266a3.3,3.3,0,0,1,2.8-1.3,2.6,2.6,0,0,1,2.7,1.6,3.3,3.3,0,0,1,1.3-1.1,3.5,3.5,0,0,1,1.8-.5c2.1,0,3.1,1.1,3.1,3.3v6.4h-1.6v-6.3a2.4,2.4,0,0,0-.4-1.5,2.5,2.5,0,0,0-1.6-.5,2,2,0,0,0-1.5.6,2.1,2.1,0,0,0-.7,1.4v6.3H95.8v-6.2a1.9,1.9,0,0,0-2.1-2.1,2.3,2.3,0,0,0-2.2,1.4v6.9H89.9v-9.5Z"/><path class="cls-4" d="M105.7,262.4a.9.9,0,0,1,.3-.7.8.8,0,0,1,.7-.3.9.9,0,0,1,.7.3.8.8,0,0,1,.2.7c0,.2,0,.5-.2.6a.9.9,0,0,1-.7.3.8.8,0,0,1-.7-.3A.7.7,0,0,1,105.7,262.4Zm1.8,12h-1.7v-9.5h1.7Z"/><path class="cls-4" d="M115.6,271.9a1.2,1.2,0,0,0-.5-1,3.9,3.9,0,0,0-1.7-.7,5.2,5.2,0,0,1-2-.6,2.4,2.4,0,0,1-1.1-.9,2.1,2.1,0,0,1-.3-1.2,2.5,2.5,0,0,1,1-2,3.9,3.9,0,0,1,2.5-.8,3.6,3.6,0,0,1,2.6.9,2.4,2.4,0,0,1,1,2.1h-1.6a1.4,1.4,0,0,0-.6-1.1,1.6,1.6,0,0,0-1.4-.5,2.1,2.1,0,0,0-1.4.4,1.1,1.1,0,0,0-.5,1,1.1,1.1,0,0,0,.5.9,7.1,7.1,0,0,0,1.7.5,6.9,6.9,0,0,1,1.9.7,2.3,2.3,0,0,1,1.2.9,2.5,2.5,0,0,1,.3,1.3,2.3,2.3,0,0,1-1,2,4.2,4.2,0,0,1-2.6.8,4.6,4.6,0,0,1-2.1-.4,4.7,4.7,0,0,1-1.3-1.1,2.4,2.4,0,0,1-.5-1.6h1.6a1.5,1.5,0,0,0,.7,1.3,2.5,2.5,0,0,0,1.6.5,2.6,2.6,0,0,0,1.4-.4A1.2,1.2,0,0,0,115.6,271.9Z"/><path class="cls-4" d="M123.3,274.6a3.9,3.9,0,0,1-3.1-1.3,4.4,4.4,0,0,1-1.3-3.4v-.3a5.1,5.1,0,0,1,.6-2.5,3.5,3.5,0,0,1,1.5-1.7,3.1,3.1,0,0,1,2.1-.7A3.5,3.5,0,0,1,126,266a5,5,0,0,1,1,3.5v.6h-6.4a3.4,3.4,0,0,0,.8,2.3,2.5,2.5,0,0,0,2,.9,2.9,2.9,0,0,0,1.4-.4,3.1,3.1,0,0,0,1.1-.9l1,.8A4,4,0,0,1,123.3,274.6Zm-.2-8.5a2.2,2.2,0,0,0-1.7.7,3.7,3.7,0,0,0-.8,2h4.8a3.6,3.6,0,0,0-.7-2A2.1,2.1,0,0,0,123.1,266.1Z"/><path class="cls-4" d="M43.8,301.1a2.4,2.4,0,0,1-1.8-.7,2.9,2.9,0,0,1,0-3.8,2.6,2.6,0,0,1,1.9-.8,2.7,2.7,0,1,1-.1,5.3Zm.1-1a2,2,0,0,0,1.3-.4,2,2,0,0,0,0-2.4,2.2,2.2,0,0,0-1.4-.5,1.7,1.7,0,0,0-1.2.5,1.7,1.7,0,0,0,0,2.4A1.7,1.7,0,0,0,43.9,300.1Z"/><path class="cls-4" d="M62.8,301.4h-1v-7.8h1Z"/><path class="cls-4" d="M65.5,295.6v.6a2.1,2.1,0,0,1,1.7-.7,1.8,1.8,0,0,1,1.7.9,2.3,2.3,0,0,1,.7-.7l1.1-.2a1.8,1.8,0,0,1,2,2v3.9h-1v-3.8a1.3,1.3,0,0,0-.3-1,1.2,1.2,0,0,0-.9-.3,1.7,1.7,0,0,0-1,.3,3.6,3.6,0,0,0-.4.9v3.9h-1v-3.8c0-.9-.4-1.3-1.2-1.3a1.5,1.5,0,0,0-1.4.8v4.3h-1v-5.8Z"/><path class="cls-4" d="M79.1,298.6a3.7,3.7,0,0,1-.6,2.1,2.1,2.1,0,0,1-1.7.8,1.9,1.9,0,0,1-1.6-.7v2.8h-1v-8h.9v.6a2.1,2.1,0,0,1,1.7-.7,1.9,1.9,0,0,1,1.7.8,3.4,3.4,0,0,1,.6,2.2Zm-1-.2a2.4,2.4,0,0,0-.4-1.5,1.4,1.4,0,0,0-1.2-.6,1.4,1.4,0,0,0-1.3.8v2.8a1.4,1.4,0,0,0,1.3.8,1.4,1.4,0,0,0,1.2-.6A2.7,2.7,0,0,0,78.1,298.4Z"/><path class="cls-4" d="M83.2,296.5h-.5a1.2,1.2,0,0,0-1.3.9v4.1h-1v-5.8h.9v.7a1.5,1.5,0,0,1,1.4-.8h.5Z"/><path class="cls-4" d="M83.7,298.4a4,4,0,0,1,.3-1.5,3.6,3.6,0,0,1,1-1.1,2.8,2.8,0,0,1,1.3-.3,2.4,2.4,0,0,1,2,.8,3.1,3.1,0,0,1,.7,2.2h0a4,4,0,0,1-.3,1.5,1.9,1.9,0,0,1-1,1,2,2,0,0,1-1.3.4,2.8,2.8,0,0,1-2-.8,3.8,3.8,0,0,1-.7-2.2Zm1,.2a2.5,2.5,0,0,0,.5,1.5,1.5,1.5,0,0,0,2.4,0,2.9,2.9,0,0,0,.4-1.7,2.4,2.4,0,0,0-.4-1.5,1.5,1.5,0,0,0-1.3-.6,1.4,1.4,0,0,0-1.1.6A2.6,2.6,0,0,0,84.7,298.6Z"/><path class="cls-4" d="M92.1,300l1.4-4.4h1l-2,5.8h-.8l-2.1-5.8h1Z"/><path class="cls-4" d="M97.8,301.5a2.7,2.7,0,0,1-1.9-.8,2.8,2.8,0,0,1-.7-2.1h0a4.1,4.1,0,0,1,.3-1.6,2.5,2.5,0,0,1,2.2-1.4,2.1,2.1,0,0,1,1.8.7,3.4,3.4,0,0,1,.6,2.2v.4H96.2a1.9,1.9,0,0,0,.5,1.4,1.7,1.7,0,0,0,1.2.5l.9-.2.6-.6.6.5A2.5,2.5,0,0,1,97.8,301.5Zm-.1-5.2a1.3,1.3,0,0,0-1,.4,2.2,2.2,0,0,0-.5,1.3h2.9a2.1,2.1,0,0,0-.4-1.2A1.2,1.2,0,0,0,97.7,296.3Z"/><path class="cls-4" d="M108.9,298.6a3.7,3.7,0,0,1-.6,2.1,2.1,2.1,0,0,1-1.7.8,1.9,1.9,0,0,1-1.6-.7v2.8h-1v-8h.9v.6a2.1,2.1,0,0,1,1.7-.7,1.9,1.9,0,0,1,1.7.8,3.4,3.4,0,0,1,.6,2.2Zm-1-.2a2.4,2.4,0,0,0-.4-1.5,1.4,1.4,0,0,0-1.2-.6,1.4,1.4,0,0,0-1.3.8v2.8a1.4,1.4,0,0,0,1.3.8,1.4,1.4,0,0,0,1.2-.6A2.7,2.7,0,0,0,107.9,298.4Z"/><path class="cls-4" d="M113,296.5h-.5a1.4,1.4,0,0,0-1.4.9v4.1h-1v-5.8h1v.7a1.5,1.5,0,0,1,1.4-.8h.5Z"/><path class="cls-4" d="M113.5,298.4a4,4,0,0,1,.3-1.5,3.6,3.6,0,0,1,1-1.1,2.8,2.8,0,0,1,1.3-.3,2.4,2.4,0,0,1,2,.8,3.6,3.6,0,0,1,.7,2.2h0a4,4,0,0,1-.3,1.5,2.4,2.4,0,0,1-1,1,2.1,2.1,0,0,1-1.4.4,2.7,2.7,0,0,1-1.9-.8,3.2,3.2,0,0,1-.7-2.2Zm1,.2a3.3,3.3,0,0,0,.4,1.5,1.4,1.4,0,0,0,1.2.6,1.5,1.5,0,0,0,1.3-.6,3.9,3.9,0,0,0,.4-1.7,2.5,2.5,0,0,0-.5-1.5,1.4,1.4,0,0,0-1.2-.6,1.3,1.3,0,0,0-1.1.6A2.6,2.6,0,0,0,114.5,298.6Z"/><path class="cls-4" d="M122.4,300.7a1.6,1.6,0,0,0,.9-.3.9.9,0,0,0,.4-.8h1a1.8,1.8,0,0,1-.4.9,1.8,1.8,0,0,1-.8.7,2.3,2.3,0,0,1-1.1.3,2.4,2.4,0,0,1-1.9-.8,2.9,2.9,0,0,1-.7-2.2h0a3.3,3.3,0,0,1,.3-1.5,2.4,2.4,0,0,1,.9-1.1,2.9,2.9,0,0,1,1.4-.3,2.3,2.3,0,0,1,1.6.6,2,2,0,0,1,.7,1.5h-1a1,1,0,0,0-.4-.9,1.1,1.1,0,0,0-.9-.4,1.7,1.7,0,0,0-1.2.5,2.5,2.5,0,0,0-.4,1.6v.2a2.1,2.1,0,0,0,.4,1.5A1.4,1.4,0,0,0,122.4,300.7Z"/><path class="cls-4" d="M128.2,301.5a2.6,2.6,0,0,1-1.9-.8,2.9,2.9,0,0,1-.8-2.1h0a4.2,4.2,0,0,1,.4-1.6,2.2,2.2,0,0,1,.9-1,2,2,0,0,1,1.3-.4,2.1,2.1,0,0,1,1.7.7,2.9,2.9,0,0,1,.7,2.2v.4h-4a3.4,3.4,0,0,0,.5,1.4,2.1,2.1,0,0,0,1.3.5l.9-.2.6-.6.6.5A2.5,2.5,0,0,1,128.2,301.5Zm-.1-5.2a1.2,1.2,0,0,0-1,.4,1.7,1.7,0,0,0-.5,1.3h2.9a2.1,2.1,0,0,0-.4-1.2A1.3,1.3,0,0,0,128.1,296.3Z"/><path class="cls-4" d="M135,299.9a.9.9,0,0,0-.3-.7l-1.1-.4-1.2-.3c-.2-.2-.5-.4-.6-.6a1.4,1.4,0,0,1-.2-.7,1.4,1.4,0,0,1,.6-1.2,2,2,0,0,1,1.5-.5,2.1,2.1,0,0,1,1.6.5,1.6,1.6,0,0,1,.6,1.3h-1a.9.9,0,0,0-.3-.7,1.2,1.2,0,0,0-.9-.3l-.8.2a.9.9,0,0,0-.3.6.6.6,0,0,0,.3.6l1,.3,1.2.4.7.6a1.9,1.9,0,0,1,.2.8,1.4,1.4,0,0,1-.6,1.2,2.8,2.8,0,0,1-1.6.5l-1.3-.2a2.7,2.7,0,0,1-.8-.7,1.9,1.9,0,0,1-.3-1h1a.9.9,0,0,0,.4.8,1.5,1.5,0,0,0,1,.3l.9-.2A.9.9,0,0,0,135,299.9Z"/><path class="cls-4" d="M140.7,299.9a.9.9,0,0,0-.3-.7l-1.1-.4-1.2-.3a1.7,1.7,0,0,1-.6-.6.8.8,0,0,1-.2-.7,1.4,1.4,0,0,1,.6-1.2,2,2,0,0,1,1.5-.5,2.1,2.1,0,0,1,1.6.5,1.6,1.6,0,0,1,.6,1.3h-1a.9.9,0,0,0-.3-.7,1.4,1.4,0,0,0-.9-.3l-.8.2a.7.7,0,0,0-.4.6.6.6,0,0,0,.3.6l1.1.3,1.2.4.7.6a1.9,1.9,0,0,1,.2.8,1.3,1.3,0,0,1-.7,1.2,2.5,2.5,0,0,1-1.6.5l-1.2-.2a1.9,1.9,0,0,1-.8-.7,1.9,1.9,0,0,1-.3-1h.9a2,2,0,0,0,.4.8,1.7,1.7,0,0,0,1,.3l.9-.2A.7.7,0,0,0,140.7,299.9Z"/><path class="cls-4" d="M43.8,317.3a2.4,2.4,0,0,1-1.8-.7,2.9,2.9,0,0,1,0-3.8,2.6,2.6,0,0,1,1.9-.8,2.7,2.7,0,1,1-.1,5.3Zm.1-1a2,2,0,0,0,1.3-.4,2,2,0,0,0,0-2.4,2.2,2.2,0,0,0-1.4-.5,1.7,1.7,0,0,0-1.2.5,1.7,1.7,0,0,0,0,2.4A1.7,1.7,0,0,0,43.9,316.3Z"/><path class="cls-4" d="M66,315.5H62.8l-.8,2.1H61l2.9-7.8h.9l3,7.8h-1Zm-2.9-.8h2.6L64.4,311Z"/><path class="cls-4" d="M72.3,317a2.1,2.1,0,0,1-1.7.7,2.3,2.3,0,0,1-1.5-.5,2.5,2.5,0,0,1-.4-1.6v-3.8h.9v3.7c0,.9.4,1.4,1.1,1.4a1.4,1.4,0,0,0,1.5-.9v-4.2h1v5.8h-.9Z"/><path class="cls-4" d="M76.1,310.4v1.4h1.1v.7H76.1v3.7a.7.7,0,0,0,.1.5l.5.2h.5v.8h-.8a1.3,1.3,0,0,1-1-.4,2,2,0,0,1-.3-1.1v-3.7H74v-.7h1.1v-1.4Z"/><path class="cls-4" d="M78,314.6a4,4,0,0,1,.3-1.5,2.4,2.4,0,0,1,.9-1.1,3.2,3.2,0,0,1,1.4-.3,2.2,2.2,0,0,1,1.9.8,3.1,3.1,0,0,1,.8,2.2h0a4.2,4.2,0,0,1-.4,1.5,2.2,2.2,0,0,1-.9,1,2.3,2.3,0,0,1-1.4.4,2.6,2.6,0,0,1-1.9-.8,3.2,3.2,0,0,1-.7-2.2Zm1,.2a2.4,2.4,0,0,0,.4,1.5,1.5,1.5,0,0,0,2.4,0,2.9,2.9,0,0,0,.5-1.7,2.5,2.5,0,0,0-.5-1.5,1.5,1.5,0,0,0-2.4,0A2.7,2.7,0,0,0,79,314.8Z"/><path class="cls-4" d="M85.4,311.8v.6a2.1,2.1,0,0,1,1.7-.7,1.6,1.6,0,0,1,1.6.9,2.7,2.7,0,0,1,.8-.7l1.1-.2c1.3,0,1.9.6,1.9,2v3.9h-1v-3.8c0-.5,0-.8-.2-1a1.3,1.3,0,0,0-1-.3,1.2,1.2,0,0,0-1.3,1.2v3.9h-1v-3.8a1.2,1.2,0,0,0-1.3-1.3,1.3,1.3,0,0,0-1.3.8v4.3h-1v-5.8Z"/><path class="cls-4" d="M97.7,317.6a3.5,3.5,0,0,1-.1-.6,2.2,2.2,0,0,1-1.7.7,2.4,2.4,0,0,1-1.4-.5A1.7,1.7,0,0,1,94,316a1.5,1.5,0,0,1,.7-1.4,2.7,2.7,0,0,1,1.9-.5h1v-.5a1.1,1.1,0,0,0-.3-.8,1.5,1.5,0,0,0-1-.3l-.9.2a.9.9,0,0,0-.3.7h-1a1.1,1.1,0,0,1,.3-.8,2.7,2.7,0,0,1,.8-.7l1.2-.2a2.1,2.1,0,0,1,1.6.5,2,2,0,0,1,.6,1.4v2.6a2.4,2.4,0,0,0,.2,1.3H97.7Zm-1.6-.8a1.5,1.5,0,0,0,.9-.2l.6-.6v-1.2h-.8c-1.2,0-1.8.3-1.8,1a1,1,0,0,0,.3.8Z"/><path class="cls-4" d="M101.5,310.4v1.4h1.1v.7h-1.1v3.7a.7.7,0,0,0,.1.5l.5.2h.5v.8h-.8a1.2,1.2,0,0,1-1-.4,2,2,0,0,1-.3-1.1v-3.7H99.4v-.7h1.1v-1.4Z"/><path class="cls-4" d="M103.7,310.2a.8.8,0,0,1,.2-.4h.8a.8.8,0,0,1,.2.4.5.5,0,0,1-.2.4l-.4.2a.7.7,0,0,1-.6-.6Zm1.1,7.4h-1v-5.8h1Z"/><path class="cls-4" d="M108.7,316.9a1.2,1.2,0,0,0,.9-.3,1,1,0,0,0,.5-.8h.9a1.6,1.6,0,0,1-.3.9,1.6,1.6,0,0,1-.9.7,2,2,0,0,1-1.1.3,2.6,2.6,0,0,1-1.9-.8,3.4,3.4,0,0,1-.7-2.2h0a3.3,3.3,0,0,1,.3-1.5,2.4,2.4,0,0,1,.9-1.1,3.2,3.2,0,0,1,1.4-.3,2.1,2.1,0,0,1,1.6.6,1.7,1.7,0,0,1,.7,1.5h-.9a1.3,1.3,0,0,0-.4-.9,1.3,1.3,0,0,0-1-.4,1.7,1.7,0,0,0-1.2.5,3.4,3.4,0,0,0-.4,1.6v.2a2.7,2.7,0,0,0,.4,1.5A1.4,1.4,0,0,0,108.7,316.9Z"/><path class="cls-4" d="M115.7,317.6a3.5,3.5,0,0,1-.1-.6,2.2,2.2,0,0,1-1.7.7,2.4,2.4,0,0,1-1.4-.5,1.7,1.7,0,0,1-.5-1.2,1.5,1.5,0,0,1,.7-1.4,2.7,2.7,0,0,1,1.9-.5h1v-.5a1.1,1.1,0,0,0-.3-.8,1.5,1.5,0,0,0-1-.3l-.8.2a.8.8,0,0,0-.4.7h-1a1.1,1.1,0,0,1,.3-.8,2.7,2.7,0,0,1,.8-.7l1.2-.2a2.1,2.1,0,0,1,1.6.5,1.7,1.7,0,0,1,.6,1.4v2.6a2.4,2.4,0,0,0,.2,1.3h-1.1Zm-1.6-.8a1.5,1.5,0,0,0,.9-.2l.6-.6v-1.2h-.8c-1.2,0-1.8.3-1.8,1a1,1,0,0,0,.3.8Z"/><path class="cls-4" d="M119.2,317.6h-1v-8.3h1Z"/><path class="cls-4" d="M121.9,317.6h-1v-8.3h1Z"/><path class="cls-4" d="M125.4,316.1l1.3-4.3h1.1l-2.4,6.7a1.7,1.7,0,0,1-1.7,1.4h-.5V319h.2a1.5,1.5,0,0,0,.8-.2,1.6,1.6,0,0,0,.5-.8l.2-.6-2.1-5.7h1.1Z"/><path class="cls-4" d="M132.7,310.4v1.4h1.1v.7h-1.1v3.7a.8.8,0,0,0,.2.5.6.6,0,0,0,.5.2h.5v.8h-.8a1.1,1.1,0,0,1-1-.4,2.1,2.1,0,0,1-.4-1.1v-3.7h-1v-.7h1v-1.4Z"/><path class="cls-4" d="M137.8,312.7h-.5a1.3,1.3,0,0,0-1.3.9v4.1h-1v-5.8h1v.7a1.4,1.4,0,0,1,1.4-.8h.4Z"/><path class="cls-4" d="M142.1,317.6c-.1-.1-.1-.3-.2-.6a2.2,2.2,0,0,1-3,.2,1.4,1.4,0,0,1-.6-1.2,1.7,1.7,0,0,1,.7-1.4,3,3,0,0,1,2-.5h.9v-.5a1.1,1.1,0,0,0-.3-.8,1.2,1.2,0,0,0-.9-.3l-.9.2a1,1,0,0,0-.4.7h-1a.9.9,0,0,1,.4-.8,1.9,1.9,0,0,1,.8-.7l1.2-.2a2,2,0,0,1,1.5.5,1.7,1.7,0,0,1,.6,1.4v2.6a3.9,3.9,0,0,0,.2,1.3h-1Zm-1.7-.8a1.5,1.5,0,0,0,.9-.2l.6-.6v-1.2h-.8c-1.2,0-1.8.3-1.8,1a1,1,0,0,0,.3.8Z"/><path class="cls-4" d="M146.8,316.9a1.2,1.2,0,0,0,.9-.3,1.4,1.4,0,0,0,.5-.8h.9a1.6,1.6,0,0,1-.3.9,1.6,1.6,0,0,1-.9.7,2,2,0,0,1-1.1.3,2.6,2.6,0,0,1-1.9-.8,3.4,3.4,0,0,1-.7-2.2h0a3.3,3.3,0,0,1,.3-1.5,2.4,2.4,0,0,1,.9-1.1,3.2,3.2,0,0,1,1.4-.3,2.1,2.1,0,0,1,1.6.6,1.7,1.7,0,0,1,.7,1.5h-.9a1.3,1.3,0,0,0-.5-.9,1,1,0,0,0-.9-.4,1.7,1.7,0,0,0-1.2.5,3.4,3.4,0,0,0-.4,1.6v.2a2.1,2.1,0,0,0,.4,1.5A1.4,1.4,0,0,0,146.8,316.9Z"/><path class="cls-4" d="M151.9,314.9l-.7.7v2h-1v-8.3h1v5l.6-.6,1.8-1.9h1.2l-2.3,2.4,2.5,3.4h-1.1Z"/><path class="cls-4" d="M62.5,325v.6a2.1,2.1,0,0,1,1.7-.7,1.7,1.7,0,0,1,1.7.9,1.9,1.9,0,0,1,.8-.7l1.1-.2c1.2,0,1.9.6,1.9,2v3.9h-1V327a1.3,1.3,0,0,0-.3-1,1.2,1.2,0,0,0-.9-.3,1.7,1.7,0,0,0-1,.3,3.6,3.6,0,0,0-.4.9v3.9h-1V327c0-.9-.4-1.3-1.2-1.3a1.5,1.5,0,0,0-1.4.8v4.3h-1V325Z"/><path class="cls-4" d="M74.8,330.8c-.1-.1-.1-.3-.2-.6a2.2,2.2,0,0,1-3,.2,1.4,1.4,0,0,1-.6-1.2,1.7,1.7,0,0,1,.7-1.4,3,3,0,0,1,2-.5h.9v-.5a1.1,1.1,0,0,0-.3-.8,1.2,1.2,0,0,0-.9-.3l-.9.2a1,1,0,0,0-.4.7h-1a1.2,1.2,0,0,1,.4-.8,1.9,1.9,0,0,1,.8-.7l1.2-.2a1.8,1.8,0,0,1,1.5.5,1.7,1.7,0,0,1,.6,1.4v2.6a3.9,3.9,0,0,0,.2,1.3h-1Zm-1.7-.8a1.5,1.5,0,0,0,.9-.2,1.7,1.7,0,0,0,.6-.6V328h-.7c-1.3,0-1.9.3-1.9,1a1,1,0,0,0,.3.8Z"/><path class="cls-4" d="M78.5,323.6V325h1.1v.7H78.5v3.7a.8.8,0,0,0,.2.5.6.6,0,0,0,.5.2h.4v.8h-.7a1.1,1.1,0,0,1-1-.4,1.5,1.5,0,0,1-.4-1.1v-3.7h-1V325h1v-1.4Z"/><path class="cls-4" d="M84.4,330.2a2.1,2.1,0,0,1-1.7.7,2.3,2.3,0,0,1-1.5-.5,2.5,2.5,0,0,1-.4-1.6V325h.9v3.7c0,.9.4,1.4,1.1,1.4a1.4,1.4,0,0,0,1.5-.9V325h1v5.8h-.9Z"/><path class="cls-4" d="M89.6,325.9h-.4a1.4,1.4,0,0,0-1.4.9v4.1h-1V325h1v.7a1.4,1.4,0,0,1,1.4-.8h.4Z"/><path class="cls-4" d="M90.6,323.4a.6.6,0,0,1,.1-.4h.9a.6.6,0,0,1,.1.4c0,.2,0,.3-.1.4a.4.4,0,0,1-.4.2c-.2,0-.4,0-.5-.2S90.6,323.6,90.6,323.4Zm1,7.4h-1V325h1Z"/><path class="cls-4" d="M94.6,323.6V325h1.1v.7H94.6v3.7a.7.7,0,0,0,.1.5l.5.2h.5v.8h-.8a1.2,1.2,0,0,1-1-.4,2,2,0,0,1-.3-1.1v-3.7H92.5V325h1.1v-1.4Z"/><path class="cls-4" d="M98.7,329.3l1.4-4.3h1l-2.3,6.7c-.4,1-.9,1.4-1.7,1.4h-.6v-.9h.3l.8-.2a1.5,1.5,0,0,0,.4-.8l.3-.6L96.2,325h1.1Z"/><path class="cls-4" d="M43.8,346.7A2.4,2.4,0,0,1,42,346a2.9,2.9,0,0,1,0-3.8,2.6,2.6,0,0,1,1.9-.8,2.7,2.7,0,1,1-.1,5.3Zm.1-1a2,2,0,0,0,1.3-.4,2,2,0,0,0,0-2.4,2.2,2.2,0,0,0-1.4-.5,1.7,1.7,0,0,0-1.2.5,1.7,1.7,0,0,0,0,2.4A1.7,1.7,0,0,0,43.9,345.7Z"/><path class="cls-4" d="M62.7,343.9V347h-1v-7.8h2.9a3,3,0,0,1,2,.6,2.3,2.3,0,0,1,.7,1.8,2.1,2.1,0,0,1-.7,1.7,3,3,0,0,1-2,.6Zm0-.8h1.9a1.8,1.8,0,0,0,1.3-.4,1.4,1.4,0,0,0,.4-1.1,1.2,1.2,0,0,0-.4-1.1,1.7,1.7,0,0,0-1.2-.5h-2Z"/><path class="cls-4" d="M72.1,346.4a2.1,2.1,0,0,1-1.7.7,2,2,0,0,1-1.4-.5,2.1,2.1,0,0,1-.5-1.6v-3.8h1v3.7c0,.9.3,1.4,1,1.4a1.6,1.6,0,0,0,1.6-.9v-4.2H73V347h-.9Z"/><path class="cls-4" d="M79.5,344.2a3.5,3.5,0,0,1-.6,2.1,2.2,2.2,0,0,1-3.4,0v.7h-.9v-8.3h1v3.1a2.2,2.2,0,0,1,3.3.1,3.4,3.4,0,0,1,.6,2.2Zm-1-.2a2.2,2.2,0,0,0-.4-1.5,1.3,1.3,0,0,0-1.1-.6,1.3,1.3,0,0,0-1.4.9v2.5a1.4,1.4,0,0,0,1.4,1,1.3,1.3,0,0,0,1.1-.6A2.7,2.7,0,0,0,78.5,344Z"/><path class="cls-4" d="M81.8,347h-1v-8.3h1Z"/><path class="cls-4" d="M83.4,339.6a.8.8,0,0,1,.2-.4h.8a.8.8,0,0,1,.2.4.5.5,0,0,1-.2.4c-.1.2-.2.2-.4.2s-.3,0-.4-.2A.5.5,0,0,1,83.4,339.6Zm1.1,7.4h-1v-5.8h1Z"/><path class="cls-4" d="M89.5,345.5a.9.9,0,0,0-.3-.7l-1.1-.4-1.2-.3-.7-.6a1.4,1.4,0,0,1-.2-.7,1.4,1.4,0,0,1,.6-1.2,2.1,2.1,0,0,1,1.6-.5,2.2,2.2,0,0,1,1.6.5,1.6,1.6,0,0,1,.6,1.3h-1a.8.8,0,0,0-.4-.7,1.1,1.1,0,0,0-.8-.3l-.9.2a.9.9,0,0,0-.3.6.6.6,0,0,0,.3.6l1,.3,1.2.4a2.2,2.2,0,0,1,.7.6,1.1,1.1,0,0,1,.2.8,1.4,1.4,0,0,1-.6,1.2,2.5,2.5,0,0,1-1.6.5l-1.2-.2a2.2,2.2,0,0,1-.9-.7,1.9,1.9,0,0,1-.3-1h1a1.2,1.2,0,0,0,.4.8,1.7,1.7,0,0,0,1,.3l.9-.2C89.3,345.9,89.5,345.7,89.5,345.5Z"/><path class="cls-4" d="M92.7,341.9a2.2,2.2,0,0,1,1.8-.8q1.8,0,1.8,2.1V347h-1v-3.9a1.2,1.2,0,0,0-.3-.9,1,1,0,0,0-.8-.3,1.2,1.2,0,0,0-.9.3,2.2,2.2,0,0,0-.6.7V347h-1v-8.3h1Z"/><path class="cls-4" d="M100.2,347.1a2.6,2.6,0,0,1-1.9-.8,2.9,2.9,0,0,1-.8-2.1h0a4.2,4.2,0,0,1,.4-1.6,2.2,2.2,0,0,1,.9-1,2,2,0,0,1,1.3-.4,2.4,2.4,0,0,1,1.8.7,3.4,3.4,0,0,1,.6,2.2v.4h-4a3.4,3.4,0,0,0,.5,1.4,2.1,2.1,0,0,0,1.3.5l.9-.2.6-.6.6.5A2.5,2.5,0,0,1,100.2,347.1Zm-.1-5.2a1.3,1.3,0,0,0-1,.4,1.7,1.7,0,0,0-.5,1.3h2.9a2.1,2.1,0,0,0-.4-1.2A1.3,1.3,0,0,0,100.1,341.9Z"/><path class="cls-4" d="M106.4,342.1H106a1.4,1.4,0,0,0-1.4.9V347h-1v-5.8h1v.7a1.4,1.4,0,0,1,1.4-.8h.4Z"/><path class="cls-4" d="M113.7,347c-.1-.1-.1-.3-.2-.6a2.2,2.2,0,0,1-3,.2,1.4,1.4,0,0,1-.6-1.2,1.5,1.5,0,0,1,.7-1.4,2.9,2.9,0,0,1,1.9-.5h1V343a1.1,1.1,0,0,0-.3-.8,1.2,1.2,0,0,0-.9-.3l-.9.2a.8.8,0,0,0-.4.7h-1a1.1,1.1,0,0,1,.3-.8,2.2,2.2,0,0,1,.9-.7l1.1-.2a2.1,2.1,0,0,1,1.6.5,1.7,1.7,0,0,1,.6,1.4v2.6a3.9,3.9,0,0,0,.2,1.3h-1Zm-1.7-.8a1.5,1.5,0,0,0,.9-.2,1.7,1.7,0,0,0,.6-.6v-1.2h-.8c-1.2,0-1.8.3-1.8,1a1,1,0,0,0,.3.8Z"/><path class="cls-4" d="M119.6,346.4a1.8,1.8,0,0,1-1.7.7,2.2,2.2,0,0,1-1.4-.5,2.5,2.5,0,0,1-.5-1.6v-3.8h1v3.7c0,.9.4,1.4,1.1,1.4a1.4,1.4,0,0,0,1.5-.9v-4.2h1V347h-.9Z"/><path class="cls-4" d="M121.9,344a3.3,3.3,0,0,1,.6-2.1,2.2,2.2,0,0,1,3.3-.1v-3.1h1V347h-.9v-.6a1.9,1.9,0,0,1-1.6.7,2.1,2.1,0,0,1-1.7-.8,3.8,3.8,0,0,1-.6-2.2Zm1,.2a2.4,2.4,0,0,0,.4,1.5,1.3,1.3,0,0,0,1.1.6,1.5,1.5,0,0,0,1.4-.9v-2.7a1.6,1.6,0,0,0-1.4-.8,1.3,1.3,0,0,0-1.1.6A2.7,2.7,0,0,0,122.9,344.2Z"/><path class="cls-4" d="M128.3,339.6a.8.8,0,0,1,.2-.4h.9a.6.6,0,0,1,.1.4c0,.2,0,.3-.1.4s-.3.2-.5.2-.3,0-.4-.2A.5.5,0,0,1,128.3,339.6Zm1.1,7.4h-1v-5.8h1Z"/><path class="cls-4" d="M132.3,339.8v1.4h1.1v.7h-1.1v3.7a.8.8,0,0,0,.2.5l.5.2h.5v.8h-.8a1.1,1.1,0,0,1-1-.4,2.1,2.1,0,0,1-.4-1.1v-3.7h-1v-.7h1v-1.4Z"/><path class="cls-4" d="M137.1,344a3.3,3.3,0,0,1,.6-2.1,1.9,1.9,0,0,1,1.7-.8,2,2,0,0,1,1.6.7v-3.1h1V347h-.9v-.6a1.9,1.9,0,0,1-1.6.7,2.1,2.1,0,0,1-1.7-.8,3.8,3.8,0,0,1-.6-2.2Zm1,.2a2.4,2.4,0,0,0,.4,1.5,1.1,1.1,0,0,0,1.1.6,1.5,1.5,0,0,0,1.4-.9v-2.7a1.6,1.6,0,0,0-1.4-.8,1.1,1.1,0,0,0-1.1.6A2.7,2.7,0,0,0,138.1,344.2Z"/><path class="cls-4" d="M145.9,347.1a2.6,2.6,0,0,1-1.9-.8,2.8,2.8,0,0,1-.7-2.1h0a4.1,4.1,0,0,1,.3-1.6,2.2,2.2,0,0,1,.9-1,2,2,0,0,1,1.3-.4,2.3,2.3,0,0,1,1.8.7,3.4,3.4,0,0,1,.6,2.2v.4h-3.9a1.9,1.9,0,0,0,.5,1.4,1.7,1.7,0,0,0,1.2.5l.9-.2.6-.6.6.5A2.5,2.5,0,0,1,145.9,347.1Zm-.1-5.2a1.3,1.3,0,0,0-1,.4,2.2,2.2,0,0,0-.5,1.3h2.9a2.1,2.1,0,0,0-.4-1.2A1.3,1.3,0,0,0,145.8,341.9Z"/><path class="cls-4" d="M149.8,347v-5.1h-.9v-.7h.9v-.6a2.5,2.5,0,0,1,.5-1.5,2.2,2.2,0,0,1,1.4-.5h.7v.8h-.6a.9.9,0,0,0-.7.3c-.2.1-.3.4-.3.8v.6h1.3v.7h-1.3V347Z"/><path class="cls-4" d="M155.4,347.1a2.7,2.7,0,0,1-1.9-.8,2.8,2.8,0,0,1-.7-2.1h0a4.1,4.1,0,0,1,.3-1.6,2.5,2.5,0,0,1,2.2-1.4,2.1,2.1,0,0,1,1.8.7,3.4,3.4,0,0,1,.6,2.2v.4h-3.9a2.4,2.4,0,0,0,.5,1.4,1.7,1.7,0,0,0,1.2.5l.9-.2.6-.6.6.5A2.5,2.5,0,0,1,155.4,347.1Zm-.1-5.2a1.3,1.3,0,0,0-1,.4,2.2,2.2,0,0,0-.5,1.3h2.9a1.6,1.6,0,0,0-.4-1.2A1.2,1.2,0,0,0,155.3,341.9Z"/><path class="cls-4" d="M159.8,341.2v.7a2.5,2.5,0,0,1,1.8-.8q1.8,0,1.8,2.1V347h-1v-3.9a2,2,0,0,0-.2-.9,1.2,1.2,0,0,0-.9-.3,1.6,1.6,0,0,0-.9.3,1.3,1.3,0,0,0-.5.7V347h-1v-5.8Z"/><path class="cls-4" d="M167.3,346.3a1.6,1.6,0,0,0,.9-.3.9.9,0,0,0,.4-.8h1a1.8,1.8,0,0,1-.4.9,1.8,1.8,0,0,1-.8.7,2.3,2.3,0,0,1-1.1.3,2.4,2.4,0,0,1-1.9-.8,2.9,2.9,0,0,1-.7-2.2h0a3.3,3.3,0,0,1,.3-1.5,2.4,2.4,0,0,1,.9-1.1,2.9,2.9,0,0,1,1.4-.3,2.5,2.5,0,0,1,1.6.6,2.4,2.4,0,0,1,.7,1.5h-1a1,1,0,0,0-.4-.9,1.2,1.2,0,0,0-.9-.4,1.7,1.7,0,0,0-1.2.5,2.5,2.5,0,0,0-.4,1.6v.2a2.1,2.1,0,0,0,.4,1.5A1.3,1.3,0,0,0,167.3,346.3Z"/><path class="cls-4" d="M173.1,347.1a2.6,2.6,0,0,1-1.9-.8,2.9,2.9,0,0,1-.8-2.1h0a2.9,2.9,0,0,1,.4-1.6,2.2,2.2,0,0,1,.9-1,2,2,0,0,1,1.3-.4,2.1,2.1,0,0,1,1.7.7,2.9,2.9,0,0,1,.7,2.2v.4h-4a2.4,2.4,0,0,0,.5,1.4,2.1,2.1,0,0,0,1.3.5l.8-.2.7-.6.6.5A2.5,2.5,0,0,1,173.1,347.1Zm-.1-5.2a1.2,1.2,0,0,0-1,.4,1.7,1.7,0,0,0-.5,1.3h2.9a3.4,3.4,0,0,0-.4-1.2A1.3,1.3,0,0,0,173,341.9Z"/><path class="cls-4" d="M357.5,367h-1.7V354.2h1.7Z"/><path class="cls-4" d="M361.8,357.5v1a3.5,3.5,0,0,1,2.8-1.2,2.7,2.7,0,0,1,2.7,1.5,3.7,3.7,0,0,1,3.1-1.5c2,0,3.1,1.1,3.1,3.3V367H372v-6.3a2.1,2.1,0,0,0-.4-1.5,2.5,2.5,0,0,0-1.6-.5,2.5,2.5,0,0,0-1.5.5,2.6,2.6,0,0,0-.7,1.5V367h-1.6v-6.2a1.9,1.9,0,0,0-2.1-2.1,2.2,2.2,0,0,0-2.2,1.4V367h-1.6v-9.5Z"/><path class="cls-4" d="M384.1,362.3a5.2,5.2,0,0,1-1,3.5,3.1,3.1,0,0,1-2.7,1.4,3.7,3.7,0,0,1-2.7-1.1v4.6h-1.6V357.5h1.5v1a3.2,3.2,0,0,1,2.7-1.2,3,3,0,0,1,2.7,1.3,5.7,5.7,0,0,1,1,3.6Zm-1.6-.1a4,4,0,0,0-.7-2.6,2.2,2.2,0,0,0-1.9-.9,2.4,2.4,0,0,0-2.2,1.3v4.5a2.5,2.5,0,0,0,2.3,1.3,2.1,2.1,0,0,0,1.8-.9A4.1,4.1,0,0,0,382.5,362.2Z"/><path class="cls-4" d="M388,367h-1.7V353.5H388Z"/><path class="cls-4" d="M394.5,367.2a4.2,4.2,0,0,1-3.1-1.3,4.7,4.7,0,0,1-1.2-3.4v-.3a5.1,5.1,0,0,1,.5-2.5,5.4,5.4,0,0,1,1.5-1.8,3.9,3.9,0,0,1,2.1-.6,3.7,3.7,0,0,1,2.9,1.2,5.2,5.2,0,0,1,1,3.5v.7h-6.4a3.6,3.6,0,0,0,.8,2.3,2.4,2.4,0,0,0,2,.8,3.3,3.3,0,0,0,1.5-.3,4.3,4.3,0,0,0,1-.9l1,.7A3.9,3.9,0,0,1,394.5,367.2Zm-.2-8.6a2.1,2.1,0,0,0-1.6.8,2.9,2.9,0,0,0-.9,2h4.8v-.2a3.6,3.6,0,0,0-.7-1.9A2.2,2.2,0,0,0,394.3,358.6Z"/><path class="cls-4" d="M401.6,357.5v1a3.5,3.5,0,0,1,2.8-1.2,2.7,2.7,0,0,1,2.7,1.5,4.3,4.3,0,0,1,1.2-1.1,5.8,5.8,0,0,1,1.8-.4c2.1,0,3.2,1.1,3.2,3.3V367h-1.6v-6.3a1.8,1.8,0,0,0-2-2,2.5,2.5,0,0,0-1.5.5,2.1,2.1,0,0,0-.7,1.5V367h-1.7v-6.2c0-1.4-.6-2.1-2-2.1a2.1,2.1,0,0,0-2.2,1.4V367h-1.6v-9.5Z"/><path class="cls-4" d="M419.8,367.2a4.2,4.2,0,0,1-3.1-1.3,4.7,4.7,0,0,1-1.2-3.4v-.3a5.1,5.1,0,0,1,.5-2.5,5.4,5.4,0,0,1,1.5-1.8,4.2,4.2,0,0,1,2.1-.6,3.6,3.6,0,0,1,2.9,1.2,5.2,5.2,0,0,1,1,3.5v.7h-6.4a3.6,3.6,0,0,0,.8,2.3,2.4,2.4,0,0,0,2,.8,3.3,3.3,0,0,0,1.5-.3,4.3,4.3,0,0,0,1-.9l1,.7A3.9,3.9,0,0,1,419.8,367.2Zm-.2-8.6a2.1,2.1,0,0,0-1.6.8,2.9,2.9,0,0,0-.9,2h4.8v-.2a2.9,2.9,0,0,0-.7-1.9A2.2,2.2,0,0,0,419.6,358.6Z"/><path class="cls-4" d="M426.9,357.5v1.2a3.6,3.6,0,0,1,2.9-1.4c2,0,3,1.1,3,3.4V367h-1.6v-6.3a2.1,2.1,0,0,0-.5-1.5,2,2,0,0,0-1.4-.5,2.1,2.1,0,0,0-1.4.4,5.2,5.2,0,0,0-1,1.1V367h-1.6v-9.5Z"/><path class="cls-4" d="M437.5,355.2v2.3h1.8v1.2h-1.8v5.9a1.2,1.2,0,0,0,.3.9c.1.2.4.3.8.3h.8V367l-1.3.2a1.8,1.8,0,0,1-1.6-.7,2.7,2.7,0,0,1-.6-1.9v-5.9h-1.7v-1.2h1.7v-2.3Z"/><path class="cls-4" d="M342,394.7a2.4,2.4,0,0,1-1.8-.7,2.9,2.9,0,0,1,0-3.8,2.4,2.4,0,0,1,1.9-.8,2.5,2.5,0,0,1,1.8.8,2.9,2.9,0,0,1,0,3.8A2.5,2.5,0,0,1,342,394.7Zm.1-1a1.6,1.6,0,0,0,1.2-.4,1.7,1.7,0,0,0,0-2.4,1.7,1.7,0,0,0-1.3-.4,2,2,0,0,0-1.3.4,1.7,1.7,0,0,0,0,2.4A2,2,0,0,0,342.1,393.7Z"/><path class="cls-4" d="M362.2,391.5a4.8,4.8,0,0,1-1.9-.9,2.1,2.1,0,0,1-.7-1.4,1.9,1.9,0,0,1,.8-1.5,2.9,2.9,0,0,1,1.9-.6,3.2,3.2,0,0,1,1.4.3,2.1,2.1,0,0,1,1,.8,1.9,1.9,0,0,1,.4,1.2H364a1.5,1.5,0,0,0-.4-1.1,2.2,2.2,0,0,0-1.3-.4,1.6,1.6,0,0,0-1.2.4,1,1,0,0,0-.4.9.9.9,0,0,0,.4.8l1.4.6,1.5.6a2,2,0,0,1,.8.8,1.7,1.7,0,0,1,.3,1,1.8,1.8,0,0,1-.8,1.5,2.9,2.9,0,0,1-1.9.6,3.3,3.3,0,0,1-1.5-.3,2.4,2.4,0,0,1-1.1-.8,2,2,0,0,1-.4-1.3h1a1.4,1.4,0,0,0,.6,1.2,2.6,2.6,0,0,0,1.4.4,1.6,1.6,0,0,0,1.2-.4,1.2,1.2,0,0,0,0-1.8A3.8,3.8,0,0,0,362.2,391.5Z"/><path class="cls-4" d="M368.7,395.1a2.8,2.8,0,0,1-2-.8,2.7,2.7,0,0,1-.7-2v-.2a4.1,4.1,0,0,1,.3-1.6,2.4,2.4,0,0,1,1-1,1.7,1.7,0,0,1,1.2-.4,2.1,2.1,0,0,1,1.8.7,3.4,3.4,0,0,1,.6,2.2v.4H367a2.2,2.2,0,0,0,.5,1.4,1.7,1.7,0,0,0,1.2.5l.9-.2a1.7,1.7,0,0,0,.6-.6l.7.5A2.7,2.7,0,0,1,368.7,395.1Zm-.2-5.2a1.3,1.3,0,0,0-1,.4,3.2,3.2,0,0,0-.5,1.3h2.9a1.6,1.6,0,0,0-.4-1.2A1.1,1.1,0,0,0,368.5,389.9Z"/><path class="cls-4" d="M373.4,387.8v1.4h1.1v.8h-1.1v3.6a.8.8,0,0,0,.2.5.6.6,0,0,0,.5.2h.4v.8h-.7a1.1,1.1,0,0,1-1-.4,1.4,1.4,0,0,1-.4-1.1V390h-1v-.8h1v-1.4Z"/><path class="cls-4" d="M379.7,387.8v1.4h1.1v.8h-1.1v3.6a.8.8,0,0,0,.2.5.6.6,0,0,0,.5.2h.5v.8h-.8a1.1,1.1,0,0,1-1-.4,1.8,1.8,0,0,1-.4-1.1V390h-1v-.8h1v-1.4Z"/><path class="cls-4" d="M385.6,395c-.1-.1-.1-.3-.2-.6a2.2,2.2,0,0,1-3,.2,1.4,1.4,0,0,1-.6-1.2,1.7,1.7,0,0,1,.7-1.4,3,3,0,0,1,2-.5h.9V391a1.1,1.1,0,0,0-.3-.8,1.2,1.2,0,0,0-.9-.3l-.9.2a1,1,0,0,0-.4.7h-1a1.1,1.1,0,0,1,.3-.8,3.1,3.1,0,0,1,.9-.7l1.1-.2a2.1,2.1,0,0,1,1.6.5,1.7,1.7,0,0,1,.6,1.4v2.6a3.9,3.9,0,0,0,.2,1.3h-1Zm-1.7-.8a1.5,1.5,0,0,0,.9-.2,1.7,1.7,0,0,0,.6-.6v-1.2h-.8c-1.2,0-1.8.3-1.8,1a1,1,0,0,0,.3.8A1.1,1.1,0,0,0,383.9,394.2Z"/><path class="cls-4" d="M391.4,393.5a.9.9,0,0,0-.3-.7l-1.1-.4-1.2-.3-.7-.6a1.4,1.4,0,0,1-.2-.7,1.4,1.4,0,0,1,.6-1.2,2.1,2.1,0,0,1,1.6-.5,2.2,2.2,0,0,1,1.6.5,1.6,1.6,0,0,1,.6,1.3h-1a.8.8,0,0,0-.4-.7,1.1,1.1,0,0,0-.8-.3l-.9.2a.9.9,0,0,0-.3.7.5.5,0,0,0,.3.5l1,.3,1.2.4a2.2,2.2,0,0,1,.7.6,1.1,1.1,0,0,1,.2.8,1.4,1.4,0,0,1-.6,1.2,2.1,2.1,0,0,1-1.6.5l-1.2-.2a2.2,2.2,0,0,1-.9-.7,1.7,1.7,0,0,1-.3-1h1a1.2,1.2,0,0,0,.4.8,1.7,1.7,0,0,0,1,.3l.9-.2C391.2,393.9,391.4,393.7,391.4,393.5Z"/><path class="cls-4" d="M395.3,392.3l-.7.7v2h-1v-8.3h1v5l.6-.6,1.8-1.9h1.2l-2.3,2.4,2.6,3.4h-1.2Z"/><path class="cls-4" d="M402.6,393.5a.9.9,0,0,0-.3-.7l-1.1-.4-1.2-.3-.6-.6a.8.8,0,0,1-.2-.7,1.4,1.4,0,0,1,.6-1.2,2,2,0,0,1,1.5-.5,2.1,2.1,0,0,1,1.6.5,1.6,1.6,0,0,1,.6,1.3h-1a.9.9,0,0,0-.3-.7,1.2,1.2,0,0,0-.9-.3l-.8.2a.9.9,0,0,0-.3.7.5.5,0,0,0,.3.5l1,.3,1.2.4.7.6a1.9,1.9,0,0,1,.2.8,1.4,1.4,0,0,1-.6,1.2,2.2,2.2,0,0,1-1.6.5l-1.3-.2a2.7,2.7,0,0,1-.8-.7,1.7,1.7,0,0,1-.3-1h1a.9.9,0,0,0,.4.8,1.3,1.3,0,0,0,1,.3l.9-.2A.9.9,0,0,0,402.6,393.5Z"/><path class="cls-4" d="M342,410.9a2.4,2.4,0,0,1-1.8-.7,2.9,2.9,0,0,1,0-3.8,2.4,2.4,0,0,1,1.9-.8,2.5,2.5,0,0,1,1.8.8,2.9,2.9,0,0,1,0,3.8A2.5,2.5,0,0,1,342,410.9Zm.1-1a1.6,1.6,0,0,0,1.2-.4,1.7,1.7,0,0,0,0-2.4,1.7,1.7,0,0,0-1.3-.4,2,2,0,0,0-1.3.4,1.7,1.7,0,0,0,0,2.4A2,2,0,0,0,342.1,409.9Z"/><path class="cls-4" d="M362.2,407.7a4.8,4.8,0,0,1-1.9-.9,2.1,2.1,0,0,1-.7-1.4,1.9,1.9,0,0,1,.8-1.5,2.9,2.9,0,0,1,1.9-.6,3.2,3.2,0,0,1,1.4.3,2.1,2.1,0,0,1,1,.8,1.9,1.9,0,0,1,.4,1.2H364a1.5,1.5,0,0,0-.4-1.1,2.2,2.2,0,0,0-1.3-.4,1.6,1.6,0,0,0-1.2.4,1,1,0,0,0-.4.9.9.9,0,0,0,.4.8,4.8,4.8,0,0,0,1.4.6l1.5.6a2,2,0,0,1,.8.8,1.7,1.7,0,0,1,.3,1,1.8,1.8,0,0,1-.8,1.5,2.9,2.9,0,0,1-1.9.6,3.3,3.3,0,0,1-1.5-.3,2.4,2.4,0,0,1-1.1-.8,2,2,0,0,1-.4-1.3h1a1.4,1.4,0,0,0,.6,1.2,2.6,2.6,0,0,0,1.4.4,1.6,1.6,0,0,0,1.2-.4,1.2,1.2,0,0,0,0-1.8A3.8,3.8,0,0,0,362.2,407.7Z"/><path class="cls-4" d="M368.7,411.3a2.8,2.8,0,0,1-2-.8,2.7,2.7,0,0,1-.7-2v-.2a4.1,4.1,0,0,1,.3-1.6,2.4,2.4,0,0,1,1-1,1.7,1.7,0,0,1,1.2-.4,2.1,2.1,0,0,1,1.8.7,3.4,3.4,0,0,1,.6,2.2v.4H367a2.2,2.2,0,0,0,.5,1.4,1.7,1.7,0,0,0,1.2.5l.9-.2a1.7,1.7,0,0,0,.6-.6l.7.5A2.7,2.7,0,0,1,368.7,411.3Zm-.2-5.2a1.3,1.3,0,0,0-1,.4,3.2,3.2,0,0,0-.5,1.3h2.9a1.6,1.6,0,0,0-.4-1.2A1.1,1.1,0,0,0,368.5,406.1Z"/><path class="cls-4" d="M373.2,411.2h-1v-8.3h1Z"/><path class="cls-4" d="M377.2,411.3a2.8,2.8,0,0,1-2-.8,2.7,2.7,0,0,1-.7-2v-.2a4.1,4.1,0,0,1,.3-1.6,2.9,2.9,0,0,1,.9-1,2.2,2.2,0,0,1,1.3-.4,2.1,2.1,0,0,1,1.8.7,3.4,3.4,0,0,1,.6,2.2v.4h-3.9a2.2,2.2,0,0,0,.5,1.4,1.7,1.7,0,0,0,1.2.5l.9-.2c.2-.2.5-.4.6-.6l.7.5A2.7,2.7,0,0,1,377.2,411.3Zm-.2-5.2a1.3,1.3,0,0,0-1,.4,3.2,3.2,0,0,0-.5,1.3h2.9a1.6,1.6,0,0,0-.4-1.2A1.1,1.1,0,0,0,377,406.1Z"/><path class="cls-4" d="M382.9,410.5a1.2,1.2,0,0,0,.9-.3,1.4,1.4,0,0,0,.5-.8h.9a1.6,1.6,0,0,1-.3.9,1.6,1.6,0,0,1-.9.7,2,2,0,0,1-1.1.3,2.6,2.6,0,0,1-1.9-.8,3.4,3.4,0,0,1-.7-2.2h0a3.3,3.3,0,0,1,.3-1.5,2.4,2.4,0,0,1,.9-1.1,3.2,3.2,0,0,1,1.4-.3,2.1,2.1,0,0,1,1.6.6,1.8,1.8,0,0,1,.7,1.5h-.9a1.3,1.3,0,0,0-.5-.9,1,1,0,0,0-.9-.4,1.7,1.7,0,0,0-1.2.5,3.4,3.4,0,0,0-.4,1.6v.2a2.5,2.5,0,0,0,.4,1.6A1.7,1.7,0,0,0,382.9,410.5Z"/><path class="cls-4" d="M387.7,404v1.4h1.1v.8h-1.1v3.6a.7.7,0,0,0,.1.5l.5.2h.5v.8H388a1.3,1.3,0,0,1-1-.4,1.8,1.8,0,0,1-.3-1.1v-3.6h-1.1v-.8h1.1V404Z"/><path class="cls-4" d="M395.5,406.3H395a1.4,1.4,0,0,0-1.4.9v4.1h-.9v-5.8h.9v.7a1.5,1.5,0,0,1,1.4-.8h.5Z"/><path class="cls-4" d="M398.7,411.3a2.6,2.6,0,0,1-1.9-.8,2.8,2.8,0,0,1-.8-2v-.2a4.1,4.1,0,0,1,.3-1.6,3.2,3.2,0,0,1,1-1,2,2,0,0,1,1.3-.4,2.1,2.1,0,0,1,1.7.7,3.4,3.4,0,0,1,.6,2.2v.4H397a2.2,2.2,0,0,0,.5,1.4,1.7,1.7,0,0,0,1.2.5l.9-.2.7-.6.6.5A2.5,2.5,0,0,1,398.7,411.3Zm-.1-5.2a1.5,1.5,0,0,0-1.1.4,3.2,3.2,0,0,0-.5,1.3h3a2.2,2.2,0,0,0-.5-1.2A1,1,0,0,0,398.6,406.1Z"/><path class="cls-4" d="M405.5,409.7a.9.9,0,0,0-.3-.7l-1.1-.4-1.2-.3a1.7,1.7,0,0,1-.6-.6.8.8,0,0,1-.2-.7,1.4,1.4,0,0,1,.6-1.2,2,2,0,0,1,1.5-.5,2.5,2.5,0,0,1,1.6.5,1.6,1.6,0,0,1,.6,1.3h-1a.9.9,0,0,0-.3-.7,1.4,1.4,0,0,0-.9-.3l-.8.2a.9.9,0,0,0-.3.7c0,.2,0,.4.2.5l1.1.3,1.2.4.7.6a1.9,1.9,0,0,1,.2.8,1.4,1.4,0,0,1-.6,1.2,2.5,2.5,0,0,1-1.7.5l-1.2-.2a1.9,1.9,0,0,1-.8-.7,1.7,1.7,0,0,1-.3-1h1a.9.9,0,0,0,.4.8,1.2,1.2,0,0,0,.9.3l.9-.2A.7.7,0,0,0,405.5,409.7Z"/><path class="cls-4" d="M407.5,408.2a4,4,0,0,1,.3-1.5,2.4,2.4,0,0,1,1-1,2,2,0,0,1,1.3-.4,2.8,2.8,0,0,1,2,.8,3.2,3.2,0,0,1,.7,2.2h0a4,4,0,0,1-.3,1.5,2.4,2.4,0,0,1-1,1,2,2,0,0,1-1.3.4,2.8,2.8,0,0,1-2-.8,3.8,3.8,0,0,1-.7-2.2Zm1,.2a2.5,2.5,0,0,0,.5,1.5,1.5,1.5,0,0,0,2.4,0,2.7,2.7,0,0,0,.4-1.7,2.4,2.4,0,0,0-.4-1.5,1.8,1.8,0,0,0-1.3-.6,1.4,1.4,0,0,0-1.1.6A2.6,2.6,0,0,0,408.5,408.4Z"/><path class="cls-4" d="M417.6,410.6a1.9,1.9,0,0,1-1.7.7,2,2,0,0,1-1.4-.5,2.5,2.5,0,0,1-.5-1.6v-3.8h1v3.7c0,.9.4,1.4,1.1,1.4a1.4,1.4,0,0,0,1.5-.9v-4.2h1v5.8h-.9Z"/><path class="cls-4" d="M422.9,406.3h-.5a1.3,1.3,0,0,0-1.3.9v4.1h-1v-5.8h1v.7a1.4,1.4,0,0,1,1.4-.8h.4Z"/><path class="cls-4" d="M426.1,410.5l.9-.3a.9.9,0,0,0,.4-.8h1a1.8,1.8,0,0,1-.4.9,1.8,1.8,0,0,1-.8.7,2.3,2.3,0,0,1-1.1.3,2.4,2.4,0,0,1-1.9-.8,2.9,2.9,0,0,1-.7-2.2h0a3.3,3.3,0,0,1,.3-1.5,2.4,2.4,0,0,1,.9-1.1,2.9,2.9,0,0,1,1.4-.3,2.5,2.5,0,0,1,1.6.6,2.6,2.6,0,0,1,.7,1.5h-1a1,1,0,0,0-.4-.9,1.2,1.2,0,0,0-.9-.4,1.5,1.5,0,0,0-1.2.5,2.5,2.5,0,0,0-.4,1.6v.2a2.5,2.5,0,0,0,.4,1.6A1.5,1.5,0,0,0,426.1,410.5Z"/><path class="cls-4" d="M431.9,411.3a2.6,2.6,0,0,1-1.9-.8,2.8,2.8,0,0,1-.8-2v-.2a2.9,2.9,0,0,1,.4-1.6,2.2,2.2,0,0,1,.9-1,2,2,0,0,1,1.3-.4,2.1,2.1,0,0,1,1.7.7,2.9,2.9,0,0,1,.7,2.2v.4h-4a2.2,2.2,0,0,0,.5,1.4,2.1,2.1,0,0,0,1.3.5l.8-.2.7-.6.6.5A2.5,2.5,0,0,1,431.9,411.3Zm-.1-5.2a1.2,1.2,0,0,0-1,.4,1.7,1.7,0,0,0-.5,1.3h2.9a3.4,3.4,0,0,0-.4-1.2A1.3,1.3,0,0,0,431.8,406.1Z"/><path class="cls-4" d="M342,427.1a2.4,2.4,0,0,1-1.8-.7,2.9,2.9,0,0,1,0-3.8,2.4,2.4,0,0,1,1.9-.8,2.5,2.5,0,0,1,1.8.8,2.9,2.9,0,0,1,0,3.8A2.5,2.5,0,0,1,342,427.1Zm.1-1a1.6,1.6,0,0,0,1.2-.4,1.7,1.7,0,0,0,0-2.4,1.7,1.7,0,0,0-1.3-.4,2,2,0,0,0-1.3.4,1.7,1.7,0,0,0,0,2.4A2,2,0,0,0,342.1,426.1Z"/><path class="cls-4" d="M365.6,424.9a2.9,2.9,0,0,1-.9,1.9,2.7,2.7,0,0,1-2,.7,2.8,2.8,0,0,1-2.3-1,4,4,0,0,1-.8-2.6v-.8a3.8,3.8,0,0,1,.4-1.9,2.8,2.8,0,0,1,1.1-1.3,3.1,3.1,0,0,1,1.7-.4,2.7,2.7,0,0,1,2,.7,2.4,2.4,0,0,1,.8,1.9h-1a2.6,2.6,0,0,0-.6-1.4,2.1,2.1,0,0,0-1.2-.4,2.2,2.2,0,0,0-1.6.7,3.3,3.3,0,0,0-.6,2.1v.8a3.2,3.2,0,0,0,.6,2,1.6,1.6,0,0,0,1.5.8,2.5,2.5,0,0,0,1.3-.4,2.3,2.3,0,0,0,.6-1.4Z"/><path class="cls-4" d="M366.6,424.4a2.8,2.8,0,0,1,.4-1.5,1.8,1.8,0,0,1,.9-1,2.1,2.1,0,0,1,1.4-.4,2.7,2.7,0,0,1,1.9.8,3.1,3.1,0,0,1,.7,2.2h0a4,4,0,0,1-.3,1.5,2.2,2.2,0,0,1-.9,1,2.3,2.3,0,0,1-1.4.4,2.4,2.4,0,0,1-1.9-.8,3.3,3.3,0,0,1-.8-2.2Zm1,.2a2.5,2.5,0,0,0,.5,1.5,1.5,1.5,0,0,0,2.4,0,2.7,2.7,0,0,0,.4-1.7,2.4,2.4,0,0,0-.4-1.5,1.5,1.5,0,0,0-2.4,0A2.6,2.6,0,0,0,367.6,424.6Z"/><path class="cls-4" d="M374.2,427.4h-1v-8.3h1Z"/><path class="cls-4" d="M376.9,427.4h-1v-8.3h1Z"/><path class="cls-4" d="M382.1,427.4c-.1-.1-.1-.3-.2-.6a2.2,2.2,0,0,1-3,.2,1.4,1.4,0,0,1-.6-1.2,1.7,1.7,0,0,1,.7-1.4,3,3,0,0,1,2-.5h.9v-.5a1.1,1.1,0,0,0-.3-.8,1.2,1.2,0,0,0-.9-.3l-.9.2a1,1,0,0,0-.4.7h-1a1.2,1.2,0,0,1,.4-.8,1.9,1.9,0,0,1,.8-.7l1.2-.2a1.8,1.8,0,0,1,1.5.5,1.7,1.7,0,0,1,.6,1.4V426a3.9,3.9,0,0,0,.2,1.3h-1Zm-1.7-.8a1.5,1.5,0,0,0,.9-.2,1.7,1.7,0,0,0,.6-.6v-1.2h-.7c-1.3,0-1.9.3-1.9,1a1,1,0,0,0,.3.8A1.1,1.1,0,0,0,380.4,426.6Z"/><path class="cls-4" d="M389.4,424.6a3.5,3.5,0,0,1-.6,2.1,2.2,2.2,0,0,1-3.4,0v.7h-.9v-8.3h1v3.1a2.2,2.2,0,0,1,3.3.1,3.4,3.4,0,0,1,.6,2.2Zm-1-.2a2.2,2.2,0,0,0-.4-1.5,1.1,1.1,0,0,0-1.1-.6,1.4,1.4,0,0,0-1.4.9v2.5a1.5,1.5,0,0,0,1.4,1,1.3,1.3,0,0,0,1.1-.6A2.7,2.7,0,0,0,388.4,424.4Z"/><path class="cls-4" d="M390.4,424.4a4,4,0,0,1,.3-1.5,1.9,1.9,0,0,1,1-1,2,2,0,0,1,1.3-.4,2.4,2.4,0,0,1,1.9.8,3.1,3.1,0,0,1,.8,2.2h0a4,4,0,0,1-.3,1.5,3.2,3.2,0,0,1-1,1,2.1,2.1,0,0,1-1.4.4,2.6,2.6,0,0,1-1.9-.8,3.2,3.2,0,0,1-.7-2.2Zm1,.2a2.4,2.4,0,0,0,.4,1.5,1.5,1.5,0,0,0,2.4,0,2.6,2.6,0,0,0,.5-1.7,2.5,2.5,0,0,0-.5-1.5,1.5,1.5,0,0,0-2.4,0A2.7,2.7,0,0,0,391.4,424.6Z"/><path class="cls-4" d="M399.7,422.5h-.5a1.4,1.4,0,0,0-1.3.9v4.1h-1v-5.8h1v.7a1.4,1.4,0,0,1,1.4-.8h.4Z"/><path class="cls-4" d="M404,427.4a3.5,3.5,0,0,1-.1-.6,2.2,2.2,0,0,1-1.7.7,2.4,2.4,0,0,1-1.4-.5,1.3,1.3,0,0,1-.5-1.2,1.5,1.5,0,0,1,.7-1.4,2.7,2.7,0,0,1,1.9-.5h1v-.5a1.1,1.1,0,0,0-.3-.8,1.7,1.7,0,0,0-1-.3l-.9.2a.9.9,0,0,0-.3.7h-1a1.1,1.1,0,0,1,.3-.8,2.7,2.7,0,0,1,.8-.7l1.2-.2a2.1,2.1,0,0,1,1.6.5,2.6,2.6,0,0,1,.6,1.4V426a2.4,2.4,0,0,0,.2,1.3H404Zm-1.6-.8a1.5,1.5,0,0,0,.9-.2l.6-.6v-1.2h-.8c-1.2,0-1.8.3-1.8,1a1,1,0,0,0,.3.8C401.8,426.6,402,426.6,402.4,426.6Z"/><path class="cls-4" d="M407.8,420.2v1.4h1.1v.8h-1.1V426a.7.7,0,0,0,.1.5l.5.2h.5v.8h-.8a1.2,1.2,0,0,1-1-.4,1.8,1.8,0,0,1-.3-1.1v-3.6h-1.1v-.8h1.1v-1.4Z"/><path class="cls-4" d="M412.4,427.5a2.6,2.6,0,0,1-1.9-.8,2.7,2.7,0,0,1-.7-2v-.2a4.1,4.1,0,0,1,.3-1.6,2.2,2.2,0,0,1,.9-1,2,2,0,0,1,1.3-.4,2.3,2.3,0,0,1,1.8.7,3.4,3.4,0,0,1,.6,2.2v.4h-3.9a1.7,1.7,0,0,0,.5,1.4,1.7,1.7,0,0,0,1.2.5l.9-.2.6-.6.6.5A2.5,2.5,0,0,1,412.4,427.5Zm-.1-5.2a1.3,1.3,0,0,0-1,.4,1.7,1.7,0,0,0-.5,1.3h2.9a2.1,2.1,0,0,0-.4-1.2A1.3,1.3,0,0,0,412.3,422.3Z"/><path class="cls-4" d="M423.7,426l1.1-4.4h1l-1.7,5.8h-.8l-1.4-4.4-1.4,4.4h-.8l-1.7-5.8h1l1.2,4.3,1.3-4.3h.8Z"/><path class="cls-4" d="M426.8,420a.8.8,0,0,1,.2-.4h.9a.6.6,0,0,1,.1.4c0,.2,0,.3-.1.4s-.3.2-.5.2-.3,0-.4-.2A.5.5,0,0,1,426.8,420Zm1.1,7.4h-1v-5.8h1Z"/><path class="cls-4" d="M430.8,420.2v1.4h1.1v.8h-1.1V426a.8.8,0,0,0,.2.5l.5.2h.5v.8h-.8a1.1,1.1,0,0,1-1-.4,1.8,1.8,0,0,1-.3-1.1v-3.6h-1.1v-.8h1.1v-1.4Z"/><path class="cls-4" d="M434.1,422.3a2.1,2.1,0,0,1,1.7-.8c1.2,0,1.9.7,1.9,2.1v3.8h-1v-3.8a1.3,1.3,0,0,0-.3-1,1.2,1.2,0,0,0-.9-.3,1.1,1.1,0,0,0-.8.3,1.3,1.3,0,0,0-.6.7v4.1h-1v-8.3h1Z"/><path class="cls-4" d="M361.1,433.4v1.4h1.1v.8h-1.1v3.6a.7.7,0,0,0,.1.5l.5.2h.5v.8h-.8a1.2,1.2,0,0,1-1-.4,1.8,1.8,0,0,1-.3-1.1v-3.6H359v-.8h1.1v-1.4Z"/><path class="cls-4" d="M365.7,440.7a2.6,2.6,0,0,1-1.9-.8,2.7,2.7,0,0,1-.7-2v-.2a4.1,4.1,0,0,1,.3-1.6,2.2,2.2,0,0,1,.9-1,2,2,0,0,1,1.3-.4,2.3,2.3,0,0,1,1.8.7,3.4,3.4,0,0,1,.6,2.2v.4h-3.9a1.7,1.7,0,0,0,.5,1.4,1.7,1.7,0,0,0,1.2.5l.9-.2.6-.6.6.5A2.5,2.5,0,0,1,365.7,440.7Zm-.1-5.2a1.3,1.3,0,0,0-1,.4,2.2,2.2,0,0,0-.5,1.3H367a2.1,2.1,0,0,0-.4-1.2A1.2,1.2,0,0,0,365.6,435.5Z"/><path class="cls-4" d="M372.7,440.6a3.5,3.5,0,0,1-.1-.6,2.2,2.2,0,0,1-1.7.7,2.4,2.4,0,0,1-1.4-.5,1.7,1.7,0,0,1-.5-1.2,1.5,1.5,0,0,1,.7-1.4,2.7,2.7,0,0,1,1.9-.5h1v-.5a1.1,1.1,0,0,0-.3-.8,1.3,1.3,0,0,0-1-.3l-.8.2a.8.8,0,0,0-.4.7h-1a1.1,1.1,0,0,1,.3-.8,2.7,2.7,0,0,1,.8-.7l1.2-.2a2.1,2.1,0,0,1,1.6.5,1.7,1.7,0,0,1,.6,1.4v2.6a2.4,2.4,0,0,0,.2,1.3h-1.1Zm-1.6-.8a1.5,1.5,0,0,0,.9-.2l.6-.6v-1.2h-.8c-1.2,0-1.8.3-1.8,1a1,1,0,0,0,.3.8A1.1,1.1,0,0,0,371.1,439.8Z"/><path class="cls-4" d="M376.1,434.8v.6a2.1,2.1,0,0,1,1.7-.7,1.8,1.8,0,0,1,1.7.9,2.3,2.3,0,0,1,.7-.7l1.1-.2c1.3,0,1.9.7,2,2v3.9h-1v-3.8a1.1,1.1,0,0,0-1.3-1.3,1.2,1.2,0,0,0-.9.4,1.2,1.2,0,0,0-.4.8v3.9h-1v-3.8c0-.9-.4-1.3-1.2-1.3a1.4,1.4,0,0,0-1.4.9v4.2h-1v-5.8Z"/><path class="cls-4" d="M388.2,439.1a.9.9,0,0,0-.3-.7l-1.1-.4-1.2-.3-.7-.6a1.4,1.4,0,0,1-.2-.7,1.4,1.4,0,0,1,.6-1.2,2.1,2.1,0,0,1,1.6-.5,2.8,2.8,0,0,1,1.6.5,1.6,1.6,0,0,1,.6,1.3h-1a.8.8,0,0,0-.4-.7,1.1,1.1,0,0,0-.8-.3l-.9.2a.9.9,0,0,0-.3.7.5.5,0,0,0,.3.5l1,.3,1.2.4a2.2,2.2,0,0,1,.7.6,1.1,1.1,0,0,1,.2.8,1.4,1.4,0,0,1-.6,1.2,2.5,2.5,0,0,1-1.6.5l-1.2-.2a2.2,2.2,0,0,1-.9-.7,1.7,1.7,0,0,1-.3-1h1a1.2,1.2,0,0,0,.4.8,1.7,1.7,0,0,0,1,.3l.9-.2C388,439.5,388.2,439.3,388.2,439.1Z"/><path class="cls-2" d="M169,118.8h0Z"/><path class="cls-2" d="M148.7,121.9a21.7,21.7,0,0,1,15.3-37v1a20.8,20.8,0,0,0-14.7,35.4Z"/><path class="cls-2" d="M179,122.1l-.3-.2c-.2-.2-.2-.5,0-.6a24.7,24.7,0,0,0,3.6-4.9.5.5,0,0,1,.6-.2.6.6,0,0,1,.2.7,22.8,22.8,0,0,1-3.8,5Z"/><path class="cls-2" d="M184.4,113h-.2c-.2-.1-.4-.4-.3-.6a22.5,22.5,0,0,0,.8-5.8.5.5,0,1,1,1,0,21,21,0,0,1-.9,6.1C184.8,112.9,184.6,113,184.4,113Z"/><path class="cls-2" d="M139.4,131.2A34.8,34.8,0,0,1,164,71.8v.9a33.8,33.8,0,0,0-23.9,57.8Z"/><path class="cls-2" d="M188.6,131.2l-.7-.7a33.6,33.6,0,0,0,9.9-23.9h1A34.5,34.5,0,0,1,188.6,131.2Z"/><path class="cls-2" d="M202.9,107.1H180.8a.5.5,0,0,1,0-1h21.6a34.5,34.5,0,0,0-.8-7.2,42.9,42.9,0,0,0-2.2-7.2,42.2,42.2,0,0,0-3.6-6.6,31,31,0,0,0-4.7-5.6,31,31,0,0,0-5.6-4.7,42.2,42.2,0,0,0-6.6-3.6,42.9,42.9,0,0,0-7.2-2.2,34.5,34.5,0,0,0-7.2-.8V89.8a.5.5,0,1,1-1,0V67.7a.5.5,0,0,1,.5-.4,34.7,34.7,0,0,1,7.9.8,39.6,39.6,0,0,1,7.4,2.3A36.1,36.1,0,0,1,186,74a40.1,40.1,0,0,1,10.6,10.6,36.1,36.1,0,0,1,3.6,6.7,37.4,37.4,0,0,1,2.3,7.4,34.7,34.7,0,0,1,.8,7.9A.5.5,0,0,1,202.9,107.1Z"/><path class="cls-2" d="M180.8,107.1a.5.5,0,0,1-.5-.5,15.1,15.1,0,0,0-1.3-6.3,16.3,16.3,0,0,0-8.7-8.7,15.1,15.1,0,0,0-6.3-1.3.5.5,0,0,1-.5-.5.5.5,0,0,1,.5-.5,17.2,17.2,0,0,1,17.2,17.3A.5.5,0,0,1,180.8,107.1Z"/><path class="cls-2" d="M164,145.9a34.7,34.7,0,0,1-7.9-.8,37.4,37.4,0,0,1-7.4-2.3,36.1,36.1,0,0,1-6.7-3.6,37.9,37.9,0,0,1-5.8-4.8.5.5,0,0,1,0-.7l15.6-15.6a.5.5,0,1,1,.7.7l-15.3,15.3a36.9,36.9,0,0,0,5.3,4.3,42.2,42.2,0,0,0,6.6,3.6,42.9,42.9,0,0,0,7.2,2.2,39.9,39.9,0,0,0,15.4,0,42.9,42.9,0,0,0,7.2-2.2,42.2,42.2,0,0,0,6.6-3.6,36.9,36.9,0,0,0,5.3-4.3l-15.3-15.3a.5.5,0,1,1,.7-.7l15.6,15.6a.6.6,0,0,1,.1.4.4.4,0,0,1-.1.3,37.9,37.9,0,0,1-5.8,4.8,36.1,36.1,0,0,1-6.7,3.6,39.6,39.6,0,0,1-7.4,2.3A34.7,34.7,0,0,1,164,145.9Z"/><path class="cls-2" d="M164,123.9a17.6,17.6,0,0,1-12.2-5.1.5.5,0,1,1,.7-.7,15.4,15.4,0,0,0,5.2,3.5,15.9,15.9,0,0,0,12.6,0,15.4,15.4,0,0,0,5.2-3.5.5.5,0,1,1,.7.7,17.6,17.6,0,0,1-12.2,5.1Z"/><path class="cls-2" d="M130.8,137.6H114a.5.5,0,0,1-.5-.5.5.5,0,0,1,.5-.4h16.6l5.9-5.9a.5.5,0,0,1,.7,0c.2.1.2.4,0,.6l-6.1,6.1Z"/><path class="cls-2" d="M121.6,135.5H114a.5.5,0,0,1-.5-.5.5.5,0,0,1,.5-.4h7.6a.5.5,0,0,1,.5.4A.5.5,0,0,1,121.6,135.5Z"/><path class="cls-2" d="M129.1,135.5h-5a.5.5,0,0,1-.5-.5.5.5,0,0,1,.5-.4h5a.4.4,0,0,1,.4.4A.5.5,0,0,1,129.1,135.5Z"/><path class="cls-2" d="M191.5,76.9h-.3a.5.5,0,0,1,0-.7l6.4-6.3.3-.2h26.9a.5.5,0,0,1,.5.5.5.5,0,0,1-.5.5H198.1l-6.2,6.2Z"/><path class="cls-2" d="M224.8,73.9H212.6a.5.5,0,0,1,0-1h12.2a.5.5,0,0,1,0,1Z"/><path class="cls-2" d="M208.7,73.9h-8a.5.5,0,0,1,0-1h8a.5.5,0,0,1,0,1Z"/><path class="cls-2" d="M182.8,104.9h-.5c0-.1.1-.3.1-.4h.7a.6.6,0,0,1,.1.4h-.4Z"/><path class="cls-2" d="M198.2,104.5a.5.5,0,0,1,.5-.5h0a.5.5,0,0,1,.4.5h0a.4.4,0,0,1-.4.4h0A.5.5,0,0,1,198.2,104.5Zm-2,0a.5.5,0,0,1,.5-.5h0a.5.5,0,0,1,.4.5h0a.4.4,0,0,1-.4.4h0A.5.5,0,0,1,196.2,104.5Zm-2,0a.5.5,0,0,1,.5-.5h0a.5.5,0,0,1,.5.5h0a.5.5,0,0,1-.5.4h0A.5.5,0,0,1,194.2,104.5Zm-2,0a.5.5,0,0,1,.5-.5h0a.5.5,0,0,1,.5.5h0a.5.5,0,0,1-.5.4h0A.5.5,0,0,1,192.2,104.5Zm-2,0a.5.5,0,0,1,.5-.5h0a.5.5,0,0,1,.5.5h0a.5.5,0,0,1-.5.4h0C190.5,104.9,190.2,104.7,190.2,104.5Zm-1.9,0a.5.5,0,0,1,.4-.5h0a.5.5,0,0,1,.5.5h0a.5.5,0,0,1-.5.4h0A.4.4,0,0,1,188.3,104.5Zm-2,0a.5.5,0,0,1,.4-.5h0a.5.5,0,0,1,.5.5h0a.5.5,0,0,1-.5.4h0A.4.4,0,0,1,186.3,104.5Zm-2,0a.5.5,0,0,1,.5-.5h0a.5.5,0,0,1,.4.5h0a.4.4,0,0,1-.4.4h0A.5.5,0,0,1,184.3,104.5Z"/><path class="cls-2" d="M200.6,104.9h-.4a.6.6,0,0,1,.1-.4h.7a.6.6,0,0,1,.1.4h-.5Z"/><path class="cls-2" d="M164.6,116.4a8.4,8.4,0,0,1-3.5-.7,9.7,9.7,0,0,1-5.4-12.6h0a9.6,9.6,0,1,1,8.9,13.3Zm-8-12.9a8.6,8.6,0,0,0,4.8,11.3,7.7,7.7,0,0,0,3.2.7,8.7,8.7,0,1,0-8-12Zm8,10.2a7.4,7.4,0,0,1-2.5-.5,6.9,6.9,0,1,1,9-3.9A7,7,0,0,1,164.6,113.7Zm.1-12.9a6,6,0,0,0-5.6,3.7,6.1,6.1,0,1,0,5.6-3.7Z"/><path class="cls-2" d="M186.7,118.6h-.2L175.3,114a.4.4,0,0,1-.3-.6l1.6-3.9a.4.4,0,0,1,.6-.3l11.2,4.5a.5.5,0,0,1,.3.7l-1.6,3.9C187.1,118.5,186.9,118.6,186.7,118.6ZM176,113.3l10.4,4.2,1.3-3.1-10.4-4.1Z"/><path class="cls-2" d="M175.9,113h-.2l-3.1-1.3a.4.4,0,0,1-.3-.6c.1-.2.4-.4.6-.3l2.7,1.1.4-1-2.6-1.1a.4.4,0,1,1,.4-.8l3,1.2.3.2v.4l-.8,1.9A.5.5,0,0,1,175.9,113Z"/><path class="cls-2" d="M188.4,118.1H188l-.8-.3a.6.6,0,0,1-.2-.7.4.4,0,0,1,.6-.2l.8.3h0c.1,0,.1,0,.1-.1l.3-.8c.1,0,0-.1,0-.1h0l-.8-.3a.5.5,0,0,1-.3-.6.6.6,0,0,1,.7-.2l.7.3a1,1,0,0,1,.6.5,1.4,1.4,0,0,1,0,.9l-.3.8a1.7,1.7,0,0,1-.6.6Z"/><path class="cls-2" d="M190.6,118h-.4c0-.1,0-.1-.1-.1h0a.1.1,0,0,0,.1-.1h.1c.1-.2.2-.2.4-.2h.3a.1.1,0,0,1,.1.1h-.5Z"/><path class="cls-2" d="M200.9,122a.4.4,0,0,1-.2-.6h0a.4.4,0,0,1,.6-.2h0a.4.4,0,0,1,.2.6h0c0,.2-.2.3-.4.3h-.2Zm-1.7-.7c-.3,0-.4-.3-.3-.6h0a.5.5,0,0,1,.6-.2h0a.4.4,0,0,1,.3.6h0a.5.5,0,0,1-.4.3h0C199.3,121.4,199.2,121.4,199.2,121.3Zm-1.8-.6a.5.5,0,0,1-.2-.6h0a.4.4,0,0,1,.6-.3h0a.5.5,0,0,1,.2.6h0c0,.2-.2.3-.4.3h-.2Zm-1.7-.7a.4.4,0,0,1-.3-.6h0a.4.4,0,0,1,.6-.3h0a.4.4,0,0,1,.3.6h0a.5.5,0,0,1-.4.3h-.2Zm-1.8-.7a.5.5,0,0,1-.2-.6h0a.4.4,0,0,1,.6-.3h0a.5.5,0,0,1,.2.6h0c0,.2-.2.3-.4.3h-.2Zm-1.7-.7a.4.4,0,0,1-.3-.6h0c.1-.2.4-.4.6-.3h0a.4.4,0,0,1,.3.6h0a.5.5,0,0,1-.4.3h-.2Z"/><path class="cls-2" d="M202.9,122.8a.5.5,0,0,1-.4-.2h.8a.4.4,0,0,1-.1.3h-.3Z"/><path class="cls-2" d="M175.4,121.7H175c0-.2,0-.3.1-.4h.5a.1.1,0,0,1,.1.1h.1c.1.1.1.2.1.4h-.2a.1.1,0,0,1-.1.1h-.2Z"/><path class="cls-2" d="M186.6,133.1a.5.5,0,0,1,0-.7h0a.5.5,0,0,1,.7,0h0a.9.9,0,0,1,0,.7h-.7Zm-1.3-1.3a.5.5,0,0,1,0-.7h0a.5.5,0,0,1,.7,0h0a.5.5,0,0,1,0,.7h-.7Zm-1.3-1.3a.6.6,0,0,1,0-.6h0a.5.5,0,0,1,.7,0h0c.2.1.2.4,0,.6h0l-.3.2h0Zm-1.2-1.3c-.2-.1-.2-.4,0-.6h0c.1-.2.4-.2.6,0h0c.2.2.2.5,0,.6h0l-.3.2h0C183,129.4,182.8,129.3,182.8,129.2Zm-1.3-1.2a.5.5,0,0,1,0-.7h0c.2-.2.5-.2.6,0h0a.5.5,0,0,1,0,.7h-.6Zm-1.3-1.3a.5.5,0,0,1,0-.7h0a.5.5,0,0,1,.7,0h0a.5.5,0,0,1,0,.7h-.7Zm-1.3-1.3a.5.5,0,0,1,0-.7h0a.9.9,0,0,1,.7,0h0a.5.5,0,0,1,0,.7h0l-.3.2h0Zm-1.3-1.3a.6.6,0,0,1,0-.6h0a.5.5,0,0,1,.7,0h0c.2.2.2.5,0,.6h0l-.3.2h0Zm-1.2-1.2a.5.5,0,0,1,0-.7h0c.2-.2.5-.2.6,0h0a.5.5,0,0,1,0,.7h-.6Z"/><path class="cls-2" d="M188.2,134.5h-.4c0-.1,0-.1.1-.1a.4.4,0,0,1,.6,0c.1,0,.1,0,.1.1h-.4Z"/><path class="cls-2" d="M194.4,86.5a.5.5,0,0,1-.4-.2,32.5,32.5,0,0,0-2.3-2.9,21.6,21.6,0,0,0-2.5-2.7l-2.8-2.5-3-2.1a33.7,33.7,0,0,0-3.2-1.9l-3.4-1.6c-1.2-.4-2.4-.9-3.6-1.2a.4.4,0,0,1-.3-.6c0-.2.3-.4.6-.3a26,26,0,0,1,3.6,1.3,22.1,22.1,0,0,1,3.5,1.6,17.7,17.7,0,0,1,3.3,1.9l3.1,2.2,2.8,2.5,2.6,2.7,2.3,3a.5.5,0,0,1-.1.7Z"/><path class="cls-2" d="M199.4,96.5a.5.5,0,0,1-.5-.3,20.9,20.9,0,0,0-1.3-3.5.5.5,0,0,1,.2-.6.6.6,0,0,1,.7.2c.5,1.2.9,2.4,1.3,3.6a.4.4,0,0,1-.3.6Z"/><path class="cls-2" d="M170.6,98.1l-.4-.2a.6.6,0,0,1,0-.6l2.8-2.8a.5.5,0,0,1,.7,0,.9.9,0,0,1,0,.7l-2.8,2.7Z"/><path class="cls-2" d="M149.2,119.2h-.3a.5.5,0,0,1,0-.7l6.2-6.2a.5.5,0,0,1,.7,0c.2.2.2.5,0,.6l-6.2,6.3Z"/><path class="cls-2" d="M119.3,133.4h-5.2c-.2,0-.5-.2-.5-.4v-6.4a.5.5,0,0,1,.5-.5h3.7a.5.5,0,0,1,.5.5c0,.2-.3.4-.5.4h-3.2v5.5h4.7a.5.5,0,0,1,.5.5A.5.5,0,0,1,119.3,133.4Z"/><path class="cls-2" d="M121.8,133.4h-4a.5.5,0,0,1-.5-.4V122a.5.5,0,0,1,.5-.4h4a.5.5,0,0,1,.5.4.5.5,0,0,1-.5.5h-3.5v10h3.5a.5.5,0,0,1,.5.5A.5.5,0,0,1,121.8,133.4Z"/><path class="cls-2" d="M127,133.4h-5.2a.4.4,0,0,1-.4-.4V117.3a.5.5,0,0,1,.4-.5H127a.5.5,0,0,1,.5.5V133A.5.5,0,0,1,127,133.4Zm-4.7-.9h4.2V117.7h-4.2Z"/><path class="cls-2" d="M200.2,88.9a.5.5,0,0,1-.4-.5V83.2a.4.4,0,0,1,.4-.4.5.5,0,0,1,.5.4V88h23.6V84.8a.5.5,0,0,1,.5-.5.5.5,0,0,1,.5.5v3.6a.5.5,0,0,1-.5.5Z"/><path class="cls-2" d="M224.8,85.2H200.2a.4.4,0,0,1-.4-.4V80.7a.5.5,0,0,1,.4-.5.5.5,0,0,1,.5.5v3.6h23.6V80.7a.5.5,0,0,1,.5-.5.5.5,0,0,1,.5.5v4.1A.5.5,0,0,1,224.8,85.2Z"/><path class="cls-2" d="M224.8,81.2H200.2a.5.5,0,0,1-.4-.5V76.5a.4.4,0,0,1,.4-.4h24.6a.5.5,0,0,1,.5.4v4.2A.5.5,0,0,1,224.8,81.2Zm-24.1-1h23.6V77H200.7Z"/><path class="cls-3" d="M429.3,308.7a11.8,11.8,0,0,1-11.7-12.2,11.8,11.8,0,0,1,11.1-11.3,12.2,12.2,0,0,1,8.5,3,4.2,4.2,0,0,0,2.9,1.1h35.8a.6.6,0,0,1,0,1.2H440.1a5.7,5.7,0,0,1-3.8-1.4,10.2,10.2,0,0,0-7.5-2.7,10.6,10.6,0,0,0-10,10.1,10.5,10.5,0,0,0,2.9,7.7,10.3,10.3,0,0,0,7.6,3.2,10.5,10.5,0,0,0,7-2.6,5.8,5.8,0,0,1,3.8-1.5h47.6a.6.6,0,0,0,.5-.2l6.4-5.6a.6.6,0,0,0,.3-.6.9.9,0,0,0-.3-.6l-6.4-5.6-.5-.2h-4.8a.6.6,0,0,1,0-1.2h4.8a2.4,2.4,0,0,1,1.3.5l6.4,5.6a2.1,2.1,0,0,1,.7,1.5,2.4,2.4,0,0,1-.7,1.6l-6.4,5.6a2.4,2.4,0,0,1-1.3.5H440.1a4.6,4.6,0,0,0-3,1.1A11.7,11.7,0,0,1,429.3,308.7Z"/><path class="cls-3" d="M428.4,311.9a.6.6,0,0,1,.6-.6h0a.6.6,0,0,1,.6.6h0a.6.6,0,0,1-.6.6h0A.6.6,0,0,1,428.4,311.9Zm2.4-.1c0-.4.2-.7.5-.7h0c.4-.1.7.1.7.4h0a.6.6,0,0,1-.4.8h-.2A.7.7,0,0,1,430.8,311.8Zm2.4-.6a.6.6,0,0,1,.4-.8h0a.5.5,0,0,1,.7.3h0a.5.5,0,0,1-.3.8h-.2A.7.7,0,0,1,433.2,311.2Zm2.2-1a.7.7,0,0,1,.2-.9h0a.8.8,0,0,1,.9.2h0a.8.8,0,0,1-.2.9h-.4A.5.5,0,0,1,435.4,310.2Zm2-1.5a.5.5,0,0,1,.1-.8h0a.6.6,0,0,1,.9.1h0a.5.5,0,0,1-.2.8h0l-.3.2h0A.5.5,0,0,1,437.4,308.7Zm2.1-1.2a.6.6,0,0,1,.4-.8h0a.9.9,0,0,1,.8.5h0a.8.8,0,0,1-.5.7h-.1C439.8,307.9,439.5,307.8,439.5,307.5Zm46.3-.3a.5.5,0,0,1,.6-.6h0a.6.6,0,0,1,.6.6h0a.6.6,0,0,1-.6.6h0A.6.6,0,0,1,485.8,307.2Zm-2.5,0a.6.6,0,0,1,.6-.6h0c.4,0,.7.2.7.6h0a.7.7,0,0,1-.7.6h0A.6.6,0,0,1,483.3,307.2Zm-2.4,0a.6.6,0,0,1,.6-.6h0a.6.6,0,0,1,.6.6h0a.6.6,0,0,1-.6.6h0A.6.6,0,0,1,480.9,307.2Zm-2.4,0a.5.5,0,0,1,.6-.6h0a.6.6,0,0,1,.6.6h0a.6.6,0,0,1-.6.6h0A.6.6,0,0,1,478.5,307.2Zm-2.5,0a.6.6,0,0,1,.6-.6h0a.5.5,0,0,1,.6.6h0a.6.6,0,0,1-.6.6h0A.6.6,0,0,1,476,307.2Zm-2.4,0a.6.6,0,0,1,.6-.6h0a.6.6,0,0,1,.6.6h0a.6.6,0,0,1-.6.6h0A.6.6,0,0,1,473.6,307.2Zm-2.5,0a.6.6,0,0,1,.6-.6h0c.4,0,.7.2.7.6h0a.7.7,0,0,1-.7.6h0A.6.6,0,0,1,471.1,307.2Zm-2.4,0a.6.6,0,0,1,.6-.6h0a.6.6,0,0,1,.6.6h0a.6.6,0,0,1-.6.6h0A.6.6,0,0,1,468.7,307.2Zm-2.4,0a.5.5,0,0,1,.6-.6h0a.6.6,0,0,1,.6.6h0a.6.6,0,0,1-.6.6h0A.6.6,0,0,1,466.3,307.2Zm-2.5,0a.6.6,0,0,1,.6-.6h0a.5.5,0,0,1,.6.6h0a.6.6,0,0,1-.6.6h0A.6.6,0,0,1,463.8,307.2Zm-2.4,0a.6.6,0,0,1,.6-.6h0a.6.6,0,0,1,.6.6h0a.6.6,0,0,1-.6.6h0A.6.6,0,0,1,461.4,307.2Zm-2.5,0c0-.4.3-.6.7-.6h0a.6.6,0,0,1,.6.6h0a.6.6,0,0,1-.6.6h0A.7.7,0,0,1,458.9,307.2Zm-2.4,0a.6.6,0,0,1,.6-.6h0a.5.5,0,0,1,.6.6h0a.6.6,0,0,1-.6.6h0A.6.6,0,0,1,456.5,307.2Zm-2.4,0a.5.5,0,0,1,.6-.6h0a.6.6,0,0,1,.6.6h0a.6.6,0,0,1-.6.6h0A.6.6,0,0,1,454.1,307.2Zm-2.5,0a.6.6,0,0,1,.6-.6h0c.4,0,.7.2.7.6h0a.7.7,0,0,1-.7.6h0A.6.6,0,0,1,451.6,307.2Zm-2.4,0a.6.6,0,0,1,.6-.6h0a.6.6,0,0,1,.6.6h0a.6.6,0,0,1-.6.6h0A.6.6,0,0,1,449.2,307.2Zm-2.4,0a.5.5,0,0,1,.6-.6h0a.6.6,0,0,1,.6.6h0a.6.6,0,0,1-.6.6h0A.6.6,0,0,1,446.8,307.2Zm-2.5,0a.6.6,0,0,1,.6-.6h0a.5.5,0,0,1,.6.6h0a.6.6,0,0,1-.6.6h0A.6.6,0,0,1,444.3,307.2Zm-2.4,0a.5.5,0,0,1,.6-.6h0a.6.6,0,0,1,.6.6h0a.6.6,0,0,1-.6.6h0A.6.6,0,0,1,441.9,307.2Z"/><path class="cls-3" d="M429.3,305.9a6.2,6.2,0,0,1-1.9-.2c-.3,0-.5-.4-.5-.7a.8.8,0,0,1,.8-.5,4.4,4.4,0,0,0,1.6.2.6.6,0,0,1,.6.6A.5.5,0,0,1,429.3,305.9Zm-4.9-1.5H424l-1.3-1.2a5.3,5.3,0,0,1-1.2-1.4,13,13,0,0,1-.8-1.7,12.1,12.1,0,0,1-.5-1.8,6.1,6.1,0,0,1-.1-1.9.6.6,0,0,1,.6-.6.6.6,0,0,1,.6.6,9.1,9.1,0,0,0,.1,1.7,9.4,9.4,0,0,0,.4,1.6c.2.5.5,1,.7,1.4l1,1.2,1.2,1.1a.5.5,0,0,1,.2.8A.5.5,0,0,1,424.4,304.4Z"/><path class="cls-3" d="M429.6,281.4l-1.9-.2c-.4-.1-.6-.4-.5-.7s.4-.6.7-.5l1.7.2a.6.6,0,1,1,0,1.2Zm-5-1.5-.3-.2-1.4-1.1-1.1-1.5a8.3,8.3,0,0,1-.9-1.6,8.7,8.7,0,0,1-.6-3.7.6.6,0,0,1,1.2,0,9.7,9.7,0,0,0,.1,1.7,14.2,14.2,0,0,0,.5,1.6c.2.4.4.9.7,1.4l1,1.2a4,4,0,0,0,1.2,1,.6.6,0,0,1,.1.9A.5.5,0,0,1,424.6,279.9Z"/><path class="cls-3" d="M429.6,256.5l-1.9-.2a.6.6,0,0,1-.5-.8.6.6,0,0,1,.7-.4h1.7a.6.6,0,0,1,.6.6A.7.7,0,0,1,429.6,256.5Zm-5-1.6h-.3a8.1,8.1,0,0,1-1.4-1.2,7.6,7.6,0,0,1-1.1-1.4,9.1,9.1,0,0,1-.9-1.7,7.8,7.8,0,0,1-.5-1.8,11.5,11.5,0,0,1-.1-1.9.6.6,0,0,1,.6-.6c.4,0,.6.3.6.7a8.6,8.6,0,0,0,.1,1.6,7.5,7.5,0,0,0,.5,1.6,6.1,6.1,0,0,0,.7,1.4,6.4,6.4,0,0,0,1,1.3,6.3,6.3,0,0,0,1.2,1,.5.5,0,0,1,.1.8A.5.5,0,0,1,424.6,254.9Z"/><path class="cls-3" d="M429.3,283.9a11.2,11.2,0,0,1-8.4-3.6,11.4,11.4,0,0,1-3.3-8.6,11.8,11.8,0,0,1,11.1-11.2,12.2,12.2,0,0,1,8.5,3,4.2,4.2,0,0,0,2.9,1.1h28.8a2.1,2.1,0,0,1,1.3.5l6.4,5.6a1.8,1.8,0,0,1,.7,1.5,2,2,0,0,1-.7,1.6l-6.4,5.6a2.1,2.1,0,0,1-1.3.5H440.1a4.1,4.1,0,0,0-3,1.1A11.6,11.6,0,0,1,429.3,283.9Zm0-22.2h-.5a10.6,10.6,0,0,0-10,10.1,10.5,10.5,0,0,0,2.9,7.7,10.3,10.3,0,0,0,7.6,3.2,10.5,10.5,0,0,0,7-2.6,5.4,5.4,0,0,1,3.8-1.5h28.8c.2,0,.4,0,.5-.2l6.4-5.6a.6.6,0,0,0,.3-.6.9.9,0,0,0-.3-.6l-6.4-5.6-.5-.2H440.1a5.7,5.7,0,0,1-3.8-1.4A10.6,10.6,0,0,0,429.3,261.7Z"/><path class="cls-3" d="M429.3,259.2a11.2,11.2,0,0,1-8.4-3.6,11.4,11.4,0,0,1-3.3-8.6,11.9,11.9,0,0,1,2.3-6.5.6.6,0,0,1,.8-.1.7.7,0,0,1,.2.9,10.3,10.3,0,0,0-2.1,5.8,10.5,10.5,0,0,0,2.9,7.7,10.3,10.3,0,0,0,7.6,3.2,10.1,10.1,0,0,0,7-2.7,5.7,5.7,0,0,1,3.8-1.4h11.5l.5-.2,6.4-5.6a.7.7,0,0,0,0-1.2l-6.4-5.6-.5-.2H440.1a5.7,5.7,0,0,1-3.8-1.4,10.2,10.2,0,0,0-7.5-2.7,11.3,11.3,0,0,0-5.1,1.6.5.5,0,0,1-.8-.2.6.6,0,0,1,.2-.8,10.9,10.9,0,0,1,5.6-1.8,11.7,11.7,0,0,1,8.5,3,4.2,4.2,0,0,0,2.9,1.1h11.5a2.4,2.4,0,0,1,1.3.5l6.4,5.6a1.8,1.8,0,0,1,.7,1.5,1.7,1.7,0,0,1-.7,1.5l-6.4,5.6a1.8,1.8,0,0,1-1.3.5H440.1a4.2,4.2,0,0,0-3,1.2A11.6,11.6,0,0,1,429.3,259.2Z"/><path class="cls-3" d="M411.4,290a4.9,4.9,0,0,1,0-9.8,4.9,4.9,0,0,1,0,9.8Zm0-8.5a3.6,3.6,0,1,0,0,7.2,3.6,3.6,0,1,0,0-7.2Z"/><path class="cls-3" d="M410.8,278.2a.5.5,0,0,1,.6-.6h0a.6.6,0,0,1,.6.6h0a.6.6,0,0,1-.6.6h0A.6.6,0,0,1,410.8,278.2Zm0-2.5a.6.6,0,0,1,.6-.6h0a.6.6,0,0,1,.6.6h0a.6.6,0,0,1-.6.6h0A.5.5,0,0,1,410.8,275.7Z"/><path class="cls-3" d="M410.8,272.8a.6.6,0,0,1,.6-.6h0a.6.6,0,0,1,.6.6h0a.6.6,0,0,1-.6.6h0A.6.6,0,0,1,410.8,272.8Zm0-2.4c0-.4.2-.7.6-.7h0a.7.7,0,0,1,.6.7h0a.6.6,0,0,1-.6.6h0A.6.6,0,0,1,410.8,270.4Zm0-2.5a.6.6,0,0,1,.6-.6h0a.6.6,0,0,1,.6.6h0a.6.6,0,0,1-.6.6h0A.5.5,0,0,1,410.8,267.9Zm0-2.4a.5.5,0,0,1,.6-.6h0a.6.6,0,0,1,.6.6h0a.6.6,0,0,1-.6.6h0A.6.6,0,0,1,410.8,265.5Z"/><path class="cls-3" d="M410.8,260.8a.6.6,0,0,1,.6-.6h0a.6.6,0,0,1,.6.6h0a.6.6,0,0,1-.6.6h0A.6.6,0,0,1,410.8,260.8Z"/><path class="cls-3" d="M479.1,251.4a3.7,3.7,0,0,1-3.7-3.6,3.8,3.8,0,0,1,3.7-3.7,3.7,3.7,0,0,1,3.6,3.7A3.6,3.6,0,0,1,479.1,251.4Zm0-6.1a2.5,2.5,0,1,0,2.4,2.5A2.5,2.5,0,0,0,479.1,245.3Z"/><path class="cls-3" d="M478.5,241.1a.6.6,0,0,1,.6-.6h0a.6.6,0,0,1,.6.6h0a.6.6,0,0,1-.6.6h0A.6.6,0,0,1,478.5,241.1Z"/><path class="cls-3" d="M478.5,238.6a.6.6,0,0,1,.6-.6h0a.6.6,0,0,1,.6.6h0a.6.6,0,0,1-.6.6h0A.6.6,0,0,1,478.5,238.6Zm0-2.4a.6.6,0,0,1,.6-.6h0a.6.6,0,0,1,.6.6h0a.6.6,0,0,1-.6.6h0A.6.6,0,0,1,478.5,236.2Zm0-2.4a.7.7,0,0,1,.6-.7h0a.7.7,0,0,1,.6.7h0a.6.6,0,0,1-.6.6h0A.6.6,0,0,1,478.5,233.8Z"/><path class="cls-3" d="M478.5,230.4a.6.6,0,0,1,.6-.6h0a.6.6,0,0,1,.6.6h0a.6.6,0,0,1-.6.6h0A.6.6,0,0,1,478.5,230.4Z"/><path class="cls-3" d="M428.7,244l-.5.6-.4.2a.6.6,0,0,1-.5-.6.7.7,0,0,1,.3-.6l1.5-1.4.4-.2c.3,0,.7.2.7.5V252c0,.3-.4.5-.8.5s-.7-.2-.7-.5Z"/><path class="cls-3" d="M429.2,266.7a2.9,2.9,0,0,1,3,2.9c0,3-4.6,4-4.6,5.7v.5h4.2a.7.7,0,0,1,.5.7c0,.3-.3.7-.5.7h-5.1c-.3,0-.7-.2-.7-.5v-1.4c0-2.3,4.7-3.5,4.7-5.7a1.5,1.5,0,0,0-1.5-1.5,1.3,1.3,0,0,0-1.5,1.4c0,.3-.3.6-.8.6s-.7-.2-.7-.9A2.7,2.7,0,0,1,429.2,266.7Z"/><path class="cls-3" d="M430.7,298.5v-.2c0-1.2-.7-1.6-1.7-1.6s-.5-.3-.5-.6.1-.6.5-.6,1.5-.3,1.5-1.6-.5-1.5-1.4-1.5-1.5.6-1.5,1.2-.2.6-.7.6-.8-.1-.8-.7.6-2.4,3-2.4,2.8.7,2.8,2.5a2.4,2.4,0,0,1-1.1,2.4,2.4,2.4,0,0,1,1.5,2.3v.2c0,2.3-1.5,3.1-3.3,3.1s-3.2-1.3-3.2-2.5.2-.6.7-.6.8.2.8.6.6,1.2,1.7,1.2S430.7,299.8,430.7,298.5Z"/><path class="cls-3" d="M468,243.7l-.4-.2h-.1c0-.1,0-.1.1-.1s.3-.2.5-.2h.3c.1,0,.1,0,.1.1H468Z"/><path class="cls-3" d="M467.4,249.7a.7.7,0,0,1,.6-.7h0a.7.7,0,0,1,.6.7h0a.6.6,0,0,1-.6.6h0A.6.6,0,0,1,467.4,249.7Zm0-2.2a.6.6,0,0,1,.6-.6h0a.6.6,0,0,1,.6.6h0a.6.6,0,0,1-.6.6h0A.6.6,0,0,1,467.4,247.5Zm0-2.2a.6.6,0,0,1,.6-.6h0a.6.6,0,0,1,.6.6h0a.6.6,0,0,1-.6.6h0A.6.6,0,0,1,467.4,245.3Z"/><path class="cls-3" d="M468,252.4h-.4a.8.8,0,0,1-.2-.5h.2l.5-.2a.1.1,0,0,1,.1.1h.4v.2H468Z"/><path class="cls-3" d="M472.4,248.1l-.5-.2a.6.6,0,0,1-.1-.4.6.6,0,0,1,1-.5.8.8,0,0,1,.2.5l-.2.4Z"/><path class="cls-3" d="M469.6,247.5a.5.5,0,0,1,.6-.6h0a.6.6,0,0,1,.6.6h0a.6.6,0,0,1-.6.6h0A.6.6,0,0,1,469.6,247.5Zm-2.2,0a.6.6,0,0,1,.6-.6h0a.6.6,0,0,1,.6.6h0a.6.6,0,0,1-.6.6h0A.6.6,0,0,1,467.4,247.5Zm-2.2,0a.6.6,0,0,1,.6-.6h0a.5.5,0,0,1,.6.6h0a.6.6,0,0,1-.6.6h0A.6.6,0,0,1,465.2,247.5Z"/><path class="cls-3" d="M463.6,248.1l-.4-.2-.2-.4a.8.8,0,0,1,.2-.5.7.7,0,0,1,.9,0h.1v.2h0a.1.1,0,0,1-.1.1h0Z"/><path class="cls-3" d="M411.4,300.4a.5.5,0,0,1-.4-.2c-.2-.1-.2-.2-.2-.4s0-.3.2-.4h.6a.1.1,0,0,1,.1.1h.1a.5.5,0,0,1,0,.8Z"/><path class="cls-3" d="M410.8,307.8a.6.6,0,0,1,.6-.6h0a.6.6,0,0,1,.6.6h0a.6.6,0,0,1-.6.6h0A.6.6,0,0,1,410.8,307.8Zm0-2.7a.6.6,0,0,1,.6-.6h0a.6.6,0,0,1,.6.6h0a.6.6,0,0,1-.6.6h0A.5.5,0,0,1,410.8,305.1Zm0-2.6a.5.5,0,0,1,.6-.6h0a.6.6,0,0,1,.6.6h0a.6.6,0,0,1-.6.6h0A.6.6,0,0,1,410.8,302.5Z"/><path class="cls-3" d="M411.4,311.1h-.1c-.1,0-.1,0-.1-.1H411a.4.4,0,0,1-.2-.4h0v-.2h.8c.1,0,.1,0,.1.1h.1a.1.1,0,0,0,.1.1h0v.2h0a.8.8,0,0,1-.2.4Z"/><path class="cls-3" d="M416.7,305.7h-.4a.1.1,0,0,0-.1-.1h-.1v-.2a.8.8,0,0,1,.2-.4h.3l.6.2a.6.6,0,0,1,.1.4v.2h-.6Z"/><path class="cls-3" d="M413.4,305.1a.7.7,0,0,1,.7-.6h0a.6.6,0,0,1,.6.6h0a.6.6,0,0,1-.6.6h0C413.7,305.7,413.4,305.5,413.4,305.1Zm-2.6,0a.6.6,0,0,1,.6-.6h0a.6.6,0,0,1,.6.6h0a.6.6,0,0,1-.6.6h0A.5.5,0,0,1,410.8,305.1Zm-2.7,0a.6.6,0,0,1,.6-.6h0a.6.6,0,0,1,.6.6h0a.5.5,0,0,1-.6.6h0A.6.6,0,0,1,408.1,305.1Z"/><path class="cls-3" d="M406,305.7h-.4c0-.1,0-.1-.1-.1h0v-.2h.1a.1.1,0,0,0,.1-.1h.2a.1.1,0,0,0,.1-.1h.3a.1.1,0,0,0,.1.1h.2a.1.1,0,0,0,.1.1h.1v.2h0c-.1,0-.1,0-.1.1Z"/><path class="cls-3" d="M487.9,263.5l-.5-.2h-.1v-.2h.1a.7.7,0,0,1,.6-.1h.3a.1.1,0,0,0,.1.1h.1v.2a.8.8,0,0,1-.2.4h-.4Z"/><path class="cls-3" d="M487.3,276a.5.5,0,0,1,.6-.6h0a.6.6,0,0,1,.6.6h0a.6.6,0,0,1-.6.6h0A.6.6,0,0,1,487.3,276Zm0-2.7a.6.6,0,0,1,.6-.6h0a.6.6,0,0,1,.6.6h0a.6.6,0,0,1-.6.6h0A.5.5,0,0,1,487.3,273.3Zm0-2.6a.6.6,0,0,1,.6-.6h0a.6.6,0,0,1,.6.6h0a.6.6,0,0,1-.6.6h0A.5.5,0,0,1,487.3,270.7Zm0-2.6a.6.6,0,0,1,.6-.6h0a.6.6,0,0,1,.6.6h0a.6.6,0,0,1-.6.6h0A.6.6,0,0,1,487.3,268.1Zm0-2.6a.5.5,0,0,1,.6-.6h0a.6.6,0,0,1,.6.6h0a.6.6,0,0,1-.6.6h0A.6.6,0,0,1,487.3,265.5Z"/><path class="cls-3" d="M487.9,279.2h-.4a.1.1,0,0,0-.1-.1.6.6,0,0,1-.1-.4.9.9,0,0,1,.1-.5.7.7,0,0,1,.6-.1h.4c0,.1.1.1.1.2h-.1a.1.1,0,0,1-.1.1h-.4Z"/><path class="cls-3" d="M495.7,271.3h-.2a.1.1,0,0,1-.1-.1h-.1c-.1-.2-.2-.3-.2-.5h0a.1.1,0,0,1,.1-.1h.4a.7.7,0,0,1,.6.2.6.6,0,0,1,.1.4.9.9,0,0,1-.1.5Z"/><path class="cls-3" d="M492.5,270.7a.6.6,0,0,1,.6-.6h0a.6.6,0,0,1,.6.6h0a.6.6,0,0,1-.6.6h0A.6.6,0,0,1,492.5,270.7Zm-2.6,0a.6.6,0,0,1,.6-.6h0a.6.6,0,0,1,.6.6h0a.6.6,0,0,1-.6.6h0A.5.5,0,0,1,489.9,270.7Zm-2.6,0a.6.6,0,0,1,.6-.6h0a.6.6,0,0,1,.6.6h0a.6.6,0,0,1-.6.6h0A.5.5,0,0,1,487.3,270.7Zm-2.7,0a.6.6,0,0,1,.6-.6h0a.7.7,0,0,1,.7.6h0c0,.4-.3.6-.7.6h0A.6.6,0,0,1,484.6,270.7Zm-2.6,0a.6.6,0,0,1,.6-.6h0a.6.6,0,0,1,.6.6h0a.5.5,0,0,1-.6.6h0A.6.6,0,0,1,482,270.7Z"/><path class="cls-3" d="M480,271.3h-.4c-.1-.2-.2-.3-.2-.5h0a.1.1,0,0,0,.1-.1h.1c.1-.2.3-.2.5-.2h.2a.1.1,0,0,1,.1.1h.2a.6.6,0,0,1-.2.5h-.1c0,.1,0,.1-.1.1H480Z"/><path class="cls-1" d="M157,441.9Z"/><path class="cls-1" d="M230.1,431.7a.5.5,0,0,1-.5-.3c-3.7-5.6-10.2-10.6-18.2-14.2-10-4.4-22-6.7-35.7-6.7-34,0-48.4,13.1-54,20.9a.7.7,0,0,1-.8.2.8.8,0,0,1-.2-.9c5.8-7.9,20.5-21.3,55-21.3,13.8,0,26,2.2,36.1,6.7,8.3,3.7,15,8.9,18.8,14.7a.6.6,0,0,1-.2.8Z"/><path class="cls-1" d="M238,428.8c-.2,0-.4,0-.5-.2-8.3-12.5-28.9-25.8-61.8-25.8-37.8,0-55,16.2-61.9,25.8a.5.5,0,0,1-.8.1.6.6,0,0,1-.1-.8c3.6-5.1,10.3-12.3,21.8-17.9s25.2-8.4,41-8.4c33.4,0,54.3,13.6,62.7,26.3a.6.6,0,0,1-.1.8Z"/><path class="cls-1" d="M173,450.5a18.1,18.1,0,0,1-6.5-1.1,20,20,0,0,1-11.8-10.3,20.4,20.4,0,1,1,27.4,9.3A20.9,20.9,0,0,1,173,450.5Zm0-39.7a19,19,0,0,0-8.6,2,19.3,19.3,0,0,0,2.4,35.5,19.1,19.1,0,0,0,14.8-1,19.3,19.3,0,0,0-8.6-36.5Z"/><path class="cls-1" d="M173,440.1a8.6,8.6,0,0,1-3.2-.5,10.1,10.1,0,0,1-5.8-5.1,10.3,10.3,0,0,1-.6-7.7,10.4,10.4,0,0,1,5.1-5.8,10.1,10.1,0,0,1,9,18.1h0A10.2,10.2,0,0,1,173,440.1Zm0-19a8.2,8.2,0,0,0-4,1,9,9,0,0,0-4.5,5.1,9,9,0,0,0,5.6,11.3,8.5,8.5,0,0,0,6.8-.5h0a8.4,8.4,0,0,0,4.5-5.1,8.9,8.9,0,0,0-.4-6.8A9.1,9.1,0,0,0,173,421.1Z"/><path class="cls-1" d="M157.3,442.5a.5.5,0,0,1-.5-.3.6.6,0,0,1,.2-.8l9.5-4.7a.5.5,0,0,1,.7.3.5.5,0,0,1-.2.8l-9.4,4.6Z"/><path class="cls-1" d="M154.1,436a.6.6,0,0,1-.3-1.2l9.4-4.6a.5.5,0,0,1,.8.2.6.6,0,0,1-.3.8l-9.4,4.7Z"/><path class="cls-1" d="M170.9,437.4h-.2a7.3,7.3,0,0,1-4.5-3.9,7.4,7.4,0,0,1-.4-6,.6.6,0,0,1,1.1.3,6.5,6.5,0,0,0,4.2,8.5.6.6,0,0,1,.3.8C171.4,437.2,171.1,437.4,170.9,437.4Z"/><path class="cls-1" d="M170.7,434h-.2a3.9,3.9,0,0,1-2.5-5.1.5.5,0,0,1,.7-.4.6.6,0,0,1,.4.7,2.9,2.9,0,0,0,1.8,3.7.6.6,0,0,1-.2,1.2Z"/><path class="cls-1" d="M125,407.6a.5.5,0,0,1-.5-.6h0a.5.5,0,0,1,.6-.5h0a.5.5,0,0,1,.5.6h0a.5.5,0,0,1-.5.5H125Zm.2-2.3c-.3,0-.5-.3-.5-.7h0a.7.7,0,0,1,.7-.5h0a.8.8,0,0,1,.5.7h0a.6.6,0,0,1-.6.5h-.1Zm.3-2.3c-.3-.1-.6-.4-.5-.7h0a.6.6,0,0,1,.6-.5h0a.5.5,0,0,1,.5.6h0a.6.6,0,0,1-.5.6h-.1Zm.2-2.4a.6.6,0,0,1-.5-.6h0c.1-.3.3-.6.7-.5h0a.6.6,0,0,1,.5.6h0a.6.6,0,0,1-.6.5h-.1Zm.3-2.3a.5.5,0,0,1-.5-.7h0a.6.6,0,0,1,.6-.5h0c.3.1.6.3.5.7h0a.5.5,0,0,1-.5.5H126Zm.2-2.3a.8.8,0,0,1-.5-.7h0a.7.7,0,0,1,.7-.5h0a.6.6,0,0,1,.5.6h0a.6.6,0,0,1-.6.6h-.1Zm.3-2.4a.5.5,0,0,1-.5-.6h0a.5.5,0,0,1,.6-.5h0a.5.5,0,0,1,.5.6h0a.5.5,0,0,1-.5.5h-.1Z"/><path class="cls-1" d="M119,409a.6.6,0,0,1,.1-.8h0a.6.6,0,0,1,.8.1h0a.5.5,0,0,1,0,.8h0l-.4.2h0C119.3,409.3,119.2,409.2,119,409Zm-1.4-1.8a.5.5,0,0,1,.1-.8h0a.5.5,0,0,1,.8.1h0a.6.6,0,0,1-.1.8H118C117.8,407.4,117.7,407.4,117.6,407.2Zm-1.5-1.8a.5.5,0,0,1,.1-.8h0a.5.5,0,0,1,.8.1h0a.5.5,0,0,1-.1.8h-.4Zm-1.5-1.8a.7.7,0,0,1,.1-.9h0a.6.6,0,0,1,.8.1h0a.6.6,0,0,1-.1.9h-.3Zm-1.5-1.9a.6.6,0,0,1,.1-.8h0a.6.6,0,0,1,.9.1h0a.6.6,0,0,1-.1.8h0l-.4.2h0C113.4,402,113.3,401.9,113.1,401.7Zm-1.4-1.8a.5.5,0,0,1,.1-.8h0a.5.5,0,0,1,.8.1h0a.6.6,0,0,1-.1.8h-.4Zm-1.5-1.8a.5.5,0,0,1,.1-.8h0a.5.5,0,0,1,.8,0h0a.6.6,0,0,1-.1.9h-.3Z"/><path class="cls-1" d="M116.7,414.4a.7.7,0,0,1-.6-.7h0c.1-.3.4-.6.7-.5h0a.6.6,0,0,1,.5.6h0a.6.6,0,0,1-.6.6Zm-2.4-.3a.6.6,0,0,1-.5-.6h0a.6.6,0,0,1,.6-.6h0a.7.7,0,0,1,.6.7h0a.6.6,0,0,1-.6.5h-.1Zm-2.3-.3a.5.5,0,0,1-.5-.6h0a.5.5,0,0,1,.6-.5h0a.5.5,0,0,1,.5.6h0a.6.6,0,0,1-.6.5Zm-2.4-.2a.6.6,0,0,1-.5-.6h0a.7.7,0,0,1,.7-.6h0a.8.8,0,0,1,.5.7h0a.6.6,0,0,1-.6.5h-.1Zm-2.3-.3a.6.6,0,0,1-.5-.6h0a.5.5,0,0,1,.6-.5h0a.6.6,0,0,1,.6.6h0a.6.6,0,0,1-.6.5h-.1Zm-2.3-.2a.5.5,0,0,1-.5-.6h0a.6.6,0,0,1,.6-.6h0c.3.1.6.4.5.7h0a.6.6,0,0,1-.6.5Zm-2.4-.3a.6.6,0,0,1-.5-.6h0c.1-.3.3-.6.7-.5h0a.6.6,0,0,1,.5.6h0a.6.6,0,0,1-.6.5h-.1Z"/><path class="cls-1" d="M106.9,428.5a.6.6,0,0,1,.1-.8h0a.5.5,0,0,1,.8.1h0a.5.5,0,0,1-.1.8h0l-.3.2h0A.5.5,0,0,1,106.9,428.5Zm1.9-1.4a.6.6,0,0,1,0-.9h0a.7.7,0,0,1,.9.1h0a.8.8,0,0,1-.1.9h-.4Zm1.8-1.5a.5.5,0,0,1,.1-.8h0a.5.5,0,0,1,.8.1h0a.5.5,0,0,1-.1.8H111Zm1.8-1.5a.5.5,0,0,1,.1-.8h0a.5.5,0,0,1,.8.1h0a.5.5,0,0,1-.1.8h-.3C112.7,424.3,112.5,424.3,112.4,424.1Zm1.8-1.5a.6.6,0,0,1,.1-.8h0a.6.6,0,0,1,.8.1h0a.5.5,0,0,1,0,.8h0l-.4.2h0C114.5,422.9,114.4,422.8,114.2,422.6Zm1.9-1.4a.6.6,0,0,1,.1-.9h0a.6.6,0,0,1,.8.1h0a.7.7,0,0,1-.1.9h-.4A.5.5,0,0,1,116.1,421.2Zm1.8-1.5a.5.5,0,0,1,.1-.8h0a.5.5,0,0,1,.8.1h0a.5.5,0,0,1-.1.8h-.3Z"/><path class="cls-1" d="M129.4,410.4a.6.6,0,0,1,.1-.8h0a.5.5,0,0,1,.8.1h0a.6.6,0,0,1,0,.8h-.4Zm1.9-1.5a.6.6,0,0,1,0-.8h0a.6.6,0,0,1,.9.1h0a.6.6,0,0,1-.1.8h-.4C131.5,409.1,131.4,409.1,131.3,408.9Zm1.8-1.4a.6.6,0,0,1,.1-.9h0a.6.6,0,0,1,.8.1h0a.5.5,0,0,1-.1.8h0l-.4.2h0Zm1.8-1.5a.5.5,0,0,1,.1-.8h0a.5.5,0,0,1,.8,0h0a.6.6,0,0,1-.1.9h-.3Zm1.8-1.5a.6.6,0,0,1,.1-.8h0a.6.6,0,0,1,.9.1h0a.6.6,0,0,1-.1.8h-.4Zm1.9-1.5a.5.5,0,0,1,.1-.8h0a.5.5,0,0,1,.8.1h0a.6.6,0,0,1-.1.8H139A.4.4,0,0,1,138.6,403Zm1.8-1.4a.6.6,0,0,1,.1-.9h0a.6.6,0,0,1,.8.1h0a.5.5,0,0,1-.1.8h0l-.3.2h0Z"/><path class="cls-1" d="M139.5,446.1h0a.6.6,0,0,1-.3-.8h0a.6.6,0,0,1,.8-.3h0c.2.2.4.5.2.8h0c0,.2-.3.4-.5.4h-.2Zm-2.2-1h0a.5.5,0,0,1-.2-.8h0a.4.4,0,0,1,.7-.2h0c.3.1.5.5.3.7h0a.5.5,0,0,1-.5.4h-.3Zm-2.1-1.1a.5.5,0,0,1-.2-.8h0a.5.5,0,0,1,.8-.2h0a.5.5,0,0,1,.2.8h0a.5.5,0,0,1-.5.3h-.3Zm-2-1.2a.5.5,0,0,1-.2-.8h0a.7.7,0,0,1,.8-.2h0a.8.8,0,0,1,.2.8h0a.5.5,0,0,1-.5.3h-.3Zm-2-1.2a.6.6,0,0,1-.2-.8h0a.5.5,0,0,1,.8-.2h0a.5.5,0,0,1,.2.8h0a.5.5,0,0,1-.5.3h-.3Zm-2-1.4h0a.6.6,0,0,1-.1-.8h0a.5.5,0,0,1,.8-.1h0c.3.1.3.5.1.8h0l-.4.2h-.4Zm-1.9-1.5a.6.6,0,0,1,0-.8h0a.5.5,0,0,1,.8-.1h0a.6.6,0,0,1,.1.8h0a.5.5,0,0,1-.5.3h0Zm-1.7-1.6h0a.5.5,0,0,1-.1-.8h0a.8.8,0,0,1,.9,0h0a.6.6,0,0,1,0,.8h0l-.4.2h0C125.8,437.3,125.7,437.3,125.6,437.1Zm-1.7-1.6a.7.7,0,0,1,0-.9h0a.5.5,0,0,1,.8.1h0a.5.5,0,0,1,0,.8h-.8Zm-1.6-1.8a.6.6,0,0,1,.1-.9h0a.6.6,0,0,1,.8.1h0a.5.5,0,0,1-.1.8h0l-.3.2h0Zm-1.4-2a.6.6,0,0,1,.1-.8h0a.7.7,0,0,1,.9.2h0a.7.7,0,0,1-.2.8h-.3A.5.5,0,0,1,120.9,431.7Z"/><path class="cls-1" d="M211.3,445.8a.7.7,0,0,1,.3-.8h0a.7.7,0,0,1,.8.3h0a.6.6,0,0,1-.3.8h-.3A.5.5,0,0,1,211.3,445.8Zm2.1-1a.7.7,0,0,1,.3-.8h0a.7.7,0,0,1,.8.3h0a.7.7,0,0,1-.3.8H214A.7.7,0,0,1,213.4,444.8Zm2.1-1.1a.8.8,0,0,1,.2-.8h0a.7.7,0,0,1,.8.2h0a.5.5,0,0,1-.2.8H216A.5.5,0,0,1,215.5,443.7Zm2.1-1.2a.6.6,0,0,1,.1-.8h0a1,1,0,0,1,.9.2h0a.7.7,0,0,1-.2.8h-.3A.5.5,0,0,1,217.6,442.5Zm1.9-1.2c-.1-.3-.1-.7.2-.8h0a.5.5,0,0,1,.8.1h0a.6.6,0,0,1-.1.8H220Zm2-1.4a.5.5,0,0,1,.1-.8h0a.5.5,0,0,1,.8.1h0a.6.6,0,0,1-.1.8h-.4C221.7,440.1,221.6,440.1,221.5,439.9Zm1.8-1.4a.6.6,0,0,1,.1-.9h0a.5.5,0,0,1,.8.1h0a.5.5,0,0,1-.1.8h0a.5.5,0,0,1-.4.2h0Zm1.8-1.6a.5.5,0,0,1,0-.8h0a.6.6,0,0,1,.8,0h0a.6.6,0,0,1,0,.8h0l-.4.2h0A.5.5,0,0,1,225.1,436.9Zm1.6-1.6a.7.7,0,0,1,0-.9h0a.6.6,0,0,1,.8,0h0a.5.5,0,0,1,0,.8h0a.5.5,0,0,1-.4.2h-.4Zm1.6-1.8a.5.5,0,0,1-.1-.8h0a.5.5,0,0,1,.8-.1h0a.5.5,0,0,1,.1.8h0a.4.4,0,0,1-.4.2h-.4Zm1.4-1.8a.7.7,0,0,1-.1-.9h0a.6.6,0,0,1,.8-.1h0a.7.7,0,0,1,.2.8h0c-.2.2-.3.3-.5.3h-.4Z"/></g><g id="Logo"><g id="Layer_2" data-name="Layer 2"><g id="Layer_1-2" data-name="Layer 1-2"><path class="cls-5" d="M305,259.3c0,1.3,0,2.4-.1,3.4l-.3,3.1a54.2,54.2,0,0,1-1.4,7,66.2,66.2,0,0,1-3.4,9.4.8.8,0,0,1-.2.4l-.3.2-.5-.3-8.1-5.3-.4-.3c0-.1-.1-.3-.1-.4l.3-.9a55.8,55.8,0,0,0,1.8-5.8,27.4,27.4,0,0,0,.8-5v-1.7c-.1-.2-.1-.4-.3-.5l-.8-.3a49.5,49.5,0,0,0-10.5-3.4,36.2,36.2,0,0,0-4.6-.6,38.6,38.6,0,0,0-9.6.2,42.8,42.8,0,0,0-9.2,2.3l-.4.2c-.5.2-1.1.2-1.4.7a2.5,2.5,0,0,0,1.2.8l11.8,6.8,15.6,8.8,11.8,6.7,1.3.7a.5.5,0,0,1,.2.6v.2l-.9,1.5a63.9,63.9,0,0,1-11.3,13.6,65.9,65.9,0,0,1-11.4,8.2,2,2,0,0,1-.8.4.4.4,0,0,1-.5,0l-.4-.2a86.2,86.2,0,0,1-12.8-9.7,59.7,59.7,0,0,1-8.4-9.8,48.1,48.1,0,0,1-7.4-16.5,12.9,12.9,0,0,1-.4-1.9.4.4,0,0,1,0-.5h.5l6.4,3.7,7.6,4.4.7.4a1.8,1.8,0,0,1,.7.8l1.7,3.1a38.7,38.7,0,0,0,4.3,5.5,36.4,36.4,0,0,0,6.9,6.1l.4.3a.8.8,0,0,0,1,.1,29.2,29.2,0,0,0,3.7-2.4,21.3,21.3,0,0,0,3.3-3.4,2.1,2.1,0,0,1,.4-.6.6.6,0,0,0-.1-.4l-.5-.3-11-6.3-16.2-9.3-9.4-5.4-.9-.5a.5.5,0,0,1-.3-.5h0l-.3-4.4c-.1-1.7-.3-3.4-.4-5.1a8.6,8.6,0,0,1-.1-1.6.5.5,0,0,1,.2-.4l.6-.4a73.1,73.1,0,0,1,14.3-6.3,71.6,71.6,0,0,1,8-1.9l3.1-.3a55.1,55.1,0,0,1,7-.2,43.8,43.8,0,0,1,5.2.4,51,51,0,0,1,9.4,2.1,66.8,66.8,0,0,1,12.3,5.2l2.2,1.3a.6.6,0,0,1,.4.6C304.9,257,305,258.3,305,259.3Z"/></g></g></g></svg>