<svg xmlns="http://www.w3.org/2000/svg" viewBox="0 0 372.05 324.97"><defs><style>.cls-1{fill:#4CAF50;}</style></defs><title>collaboration</title><g id="Layer_2" data-name="Layer 2"><g id="Layer_1-2" data-name="Layer 1"><path class="cls-1" d="M90.55,226.8H85.43V208.72c0-11.18-7.58-20.28-16.89-20.28H52c-9.31,0-16.89,9.1-16.89,20.28V226.8H30V208.72c0-14,9.87-25.39,22-25.39H68.55c12.13,0,22,11.39,22,25.39Z"/><path class="cls-1" d="M60.28,259.74C43.59,259.74,30,244,30,224.64h5.11c0,16.53,11.28,30,25.15,30s25.15-13.45,25.15-30h5.11C90.55,244,77,259.74,60.28,259.74Z"/><path class="cls-1" d="M32.58,220.22a2.56,2.56,0,0,1-1.43-4.68A35.62,35.62,0,0,0,45.68,194a2.56,2.56,0,0,1,5,1.19A40.71,40.71,0,0,1,34,219.79,2.55,2.55,0,0,1,32.58,220.22Z"/><path class="cls-1" d="M81,214a43.54,43.54,0,0,1-34.89-17.83,2.56,2.56,0,1,1,4.1-3.06c8.72,11.7,23.38,17.66,37.32,15.19a2.56,2.56,0,1,1,.89,5A42.58,42.58,0,0,1,81,214Z"/><path class="cls-1" d="M98.19,324.09a2.56,2.56,0,0,1-2.56-2.56v-21a2.56,2.56,0,1,1,5.11,0v21A2.56,2.56,0,0,1,98.19,324.09Z"/><path class="cls-1" d="M21.86,323.53A2.56,2.56,0,0,1,19.3,321V300a2.56,2.56,0,0,1,5.11,0v21A2.56,2.56,0,0,1,21.86,323.53Z"/><path class="cls-1" d="M120.57,324.09H0V298.15a34.43,34.43,0,0,1,34.39-34.39h1.76a2.56,2.56,0,0,1,0,5.11H34.39A29.31,29.31,0,0,0,5.11,298.15V319H115.45V298.15a29.31,29.31,0,0,0-29.27-29.27H84.42a2.56,2.56,0,1,1,0-5.11h1.76a34.43,34.43,0,0,1,34.39,34.39Z"/><path class="cls-1" d="M51.1,292.13A2.56,2.56,0,0,1,49,291l-15-22.5a2.56,2.56,0,0,1-.27-2.31l3.67-9.9a2.56,2.56,0,0,1,4-1.12l20.46,16.07a2.56,2.56,0,0,1,.65,3.26l-9.18,16.33a2.56,2.56,0,0,1-2.13,1.3ZM39,266.75l11.92,17.94L57,273.91,41,261.35Z"/><path class="cls-1" d="M69.47,292.13h-.08a2.56,2.56,0,0,1-2.15-1.3L58.05,274.5a2.56,2.56,0,0,1,.63-3.25l20-16.07a2.56,2.56,0,0,1,3.94,1l4.13,9.44a2.56,2.56,0,0,1-.2,2.42l-15,23A2.56,2.56,0,0,1,69.47,292.13Zm-5.89-18.25,6.05,10.76,11.89-18.26-2.24-5.11Z"/><path class="cls-1" d="M60.28,292.49c-4.62,0-7.72-5.2-7.72-10.06a2.56,2.56,0,0,1,5.11,0c0,2.73,1.58,4.95,2.61,4.95s2.71-2,2.71-4.77a2.56,2.56,0,0,1,5.11,0C68.11,288,64.52,292.49,60.28,292.49Z"/><path class="cls-1" d="M53.62,324.09l-.37,0a2.56,2.56,0,0,1-2.17-2.9l4.59-32a2.56,2.56,0,1,1,5.06.73l-4.59,32A2.56,2.56,0,0,1,53.62,324.09Z"/><path class="cls-1" d="M66.94,324.09a2.56,2.56,0,0,1-2.53-2.23l-4.13-31.59a2.56,2.56,0,1,1,5.07-.66l4.13,31.59a2.56,2.56,0,0,1-2.2,2.87Z"/><path class="cls-1" d="M43.08,261.47a2.7,2.7,0,0,1-2.7-2.7v-8.29a2.7,2.7,0,0,1,5.41,0v8.29A2.7,2.7,0,0,1,43.08,261.47Z"/><path class="cls-1" d="M76.6,262.22A2.56,2.56,0,0,1,74,259.67v-7.84a2.56,2.56,0,0,1,5.11,0v7.84A2.56,2.56,0,0,1,76.6,262.22Z"/><path class="cls-1" d="M216.29,43.47h-5.11V25.39c0-11.18-7.58-20.28-16.89-20.28H177.76c-9.31,0-16.89,9.1-16.89,20.28V43.47h-5.11V25.39c0-14,9.87-25.39,22-25.39h16.53c12.13,0,22,11.39,22,25.39Z"/><path class="cls-1" d="M186,76.4c-16.69,0-30.26-15.74-30.26-35.09h5.11c0,16.53,11.28,30,25.15,30s25.15-13.45,25.15-30h5.11C216.29,60.66,202.71,76.4,186,76.4Z"/><path class="cls-1" d="M158.32,36.89a2.56,2.56,0,0,1-1.43-4.68,35.62,35.62,0,0,0,14.53-21.5,2.56,2.56,0,0,1,5,1.19,40.71,40.71,0,0,1-16.65,24.56A2.55,2.55,0,0,1,158.32,36.89Z"/><path class="cls-1" d="M206.75,30.66a43.54,43.54,0,0,1-34.89-17.82A2.56,2.56,0,0,1,176,9.78c8.72,11.7,23.37,17.66,37.32,15.19a2.56,2.56,0,0,1,.89,5A42.58,42.58,0,0,1,206.75,30.66Z"/><path class="cls-1" d="M148.12,140.76a2.56,2.56,0,0,1-2.56-2.56v-21a2.56,2.56,0,0,1,5.11,0v21A2.56,2.56,0,0,1,148.12,140.76Z"/><path class="cls-1" d="M223.94,140.76a2.56,2.56,0,0,1-2.56-2.56v-21a2.56,2.56,0,0,1,5.11,0v21A2.56,2.56,0,0,1,223.94,140.76Z"/><path class="cls-1" d="M246.31,140.76H125.74V114.82a34.43,34.43,0,0,1,34.39-34.39h1.76a2.56,2.56,0,0,1,0,5.11h-1.76a29.31,29.31,0,0,0-29.27,29.27v20.83H241.2V114.82a29.31,29.31,0,0,0-29.27-29.27h-1.76a2.56,2.56,0,0,1,0-5.11h1.76a34.43,34.43,0,0,1,34.39,34.39Z"/><path class="cls-1" d="M176.84,108.8a2.56,2.56,0,0,1-2.13-1.14l-15-22.5a2.56,2.56,0,0,1-.27-2.31l3.67-9.9a2.56,2.56,0,0,1,4-1.12l20.46,16.07a2.56,2.56,0,0,1,.65,3.26l-9.18,16.33a2.56,2.56,0,0,1-2.13,1.3Zm-12.1-25.39,11.92,17.94,6.06-10.78L166.74,78Z"/><path class="cls-1" d="M195.21,108.8h-.08a2.56,2.56,0,0,1-2.15-1.3L183.8,91.17a2.56,2.56,0,0,1,.63-3.25l20-16.07a2.56,2.56,0,0,1,3.94,1l4.13,9.44a2.56,2.56,0,0,1-.2,2.42l-15,23A2.56,2.56,0,0,1,195.21,108.8Zm-5.89-18.25,6.05,10.76L207.26,83,205,77.93Z"/><path class="cls-1" d="M186,109.16c-4.62,0-7.72-5.2-7.72-10.06a2.56,2.56,0,1,1,5.11,0c0,2.73,1.58,4.95,2.61,4.95s2.71-2,2.71-4.76a2.56,2.56,0,1,1,5.11,0C193.85,104.64,190.27,109.16,186,109.16Z"/><path class="cls-1" d="M179.37,140.76l-.37,0a2.56,2.56,0,0,1-2.17-2.89l4.59-32a2.56,2.56,0,1,1,5.06.73l-4.59,32A2.56,2.56,0,0,1,179.37,140.76Z"/><path class="cls-1" d="M192.69,140.76a2.56,2.56,0,0,1-2.53-2.23L186,106.94a2.56,2.56,0,0,1,5.07-.66l4.13,31.59a2.56,2.56,0,0,1-2.2,2.87Z"/><path class="cls-1" d="M169.24,78.89a2.56,2.56,0,0,1-2.56-2.56V68.5a2.56,2.56,0,0,1,5.11,0v7.84A2.56,2.56,0,0,1,169.24,78.89Z"/><path class="cls-1" d="M202.35,78.89a2.56,2.56,0,0,1-2.56-2.56V68.5a2.56,2.56,0,0,1,5.11,0v7.84A2.56,2.56,0,0,1,202.35,78.89Z"/><path class="cls-1" d="M342,224.43h-5.11V206.34c0-11.18-7.58-20.28-16.89-20.28H303.51c-9.31,0-16.89,9.1-16.89,20.28v18.08h-5.11V206.34c0-14,9.87-25.39,22-25.39H320c12.13,0,22,11.39,22,25.39Z"/><path class="cls-1" d="M311.77,257.36c-16.69,0-30.26-15.74-30.26-35.09h5.11c0,16.53,11.28,30,25.15,30s25.15-13.45,25.15-30H342C342,241.62,328.46,257.36,311.77,257.36Z"/><path class="cls-1" d="M284.07,217.85a2.56,2.56,0,0,1-1.43-4.68,35.62,35.62,0,0,0,14.53-21.5,2.56,2.56,0,1,1,5,1.19,40.71,40.71,0,0,1-16.65,24.56A2.55,2.55,0,0,1,284.07,217.85Z"/><path class="cls-1" d="M332.5,211.61a43.54,43.54,0,0,1-34.89-17.83,2.56,2.56,0,0,1,4.1-3.06c8.72,11.7,23.38,17.66,37.32,15.19a2.56,2.56,0,1,1,.89,5A42.62,42.62,0,0,1,332.5,211.61Z"/><path class="cls-1" d="M273.86,321.71a2.56,2.56,0,0,1-2.56-2.56v-21a2.56,2.56,0,1,1,5.11,0v21A2.56,2.56,0,0,1,273.86,321.71Z"/><path class="cls-1" d="M349.68,321.71a2.56,2.56,0,0,1-2.56-2.56v-21a2.56,2.56,0,1,1,5.11,0v21A2.56,2.56,0,0,1,349.68,321.71Z"/><path class="cls-1" d="M372.05,321.71H251.49V295.77a34.43,34.43,0,0,1,34.39-34.39h1.76a2.56,2.56,0,1,1,0,5.11h-1.76a29.31,29.31,0,0,0-29.27,29.27V316.6H366.94V295.77a29.31,29.31,0,0,0-29.27-29.27h-1.76a2.56,2.56,0,0,1,0-5.11h1.76a34.43,34.43,0,0,1,34.39,34.39Z"/><path class="cls-1" d="M302.59,289.76a2.56,2.56,0,0,1-2.13-1.14l-15-22.5a2.56,2.56,0,0,1-.27-2.31l3.67-9.9a2.56,2.56,0,0,1,4-1.12l20.46,16.07a2.56,2.56,0,0,1,.65,3.26l-9.18,16.33a2.56,2.56,0,0,1-2.13,1.3Zm-12.1-25.39,11.92,17.94,6.06-10.78-16-12.55Z"/><path class="cls-1" d="M321,289.76h-.08a2.56,2.56,0,0,1-2.15-1.3l-9.18-16.33a2.56,2.56,0,0,1,.63-3.25l20-16.07a2.56,2.56,0,0,1,3.94,1l4.13,9.44a2.56,2.56,0,0,1-.2,2.42l-15,23A2.56,2.56,0,0,1,321,289.76Zm-5.89-18.25,6.05,10.76L333,264l-2.24-5.11Z"/><path class="cls-1" d="M311.77,290.12c-4.62,0-7.72-5.2-7.72-10.06a2.56,2.56,0,1,1,5.11,0c0,2.73,1.58,4.95,2.61,4.95s2.71-2,2.71-4.77a2.56,2.56,0,0,1,5.11,0C319.6,285.59,316,290.12,311.77,290.12Z"/><path class="cls-1" d="M305.11,321.71l-.37,0a2.56,2.56,0,0,1-2.17-2.9l4.59-32a2.56,2.56,0,0,1,5.06.73l-4.59,32A2.56,2.56,0,0,1,305.11,321.71Z"/><path class="cls-1" d="M318.43,321.71a2.56,2.56,0,0,1-2.53-2.23l-4.13-31.59a2.56,2.56,0,1,1,5.07-.66L321,318.82a2.56,2.56,0,0,1-2.2,2.87Z"/><path class="cls-1" d="M295,259.85a2.56,2.56,0,0,1-2.56-2.56v-7.84a2.56,2.56,0,1,1,5.11,0v7.84A2.56,2.56,0,0,1,295,259.85Z"/><path class="cls-1" d="M328.09,259.85a2.56,2.56,0,0,1-2.56-2.56v-7.84a2.56,2.56,0,1,1,5.11,0v7.84A2.56,2.56,0,0,1,328.09,259.85Z"/><path class="cls-1" d="M233.47,315.51a2.79,2.79,0,0,1-.5,0,3.32,3.32,0,0,1-.48-.15,2.53,2.53,0,0,1-.44-.24,2.66,2.66,0,0,1-.39-.31,2.57,2.57,0,0,1,0-3.62,3.37,3.37,0,0,1,.39-.32,3.15,3.15,0,0,1,.44-.23,2.63,2.63,0,0,1,.48-.15,2.56,2.56,0,0,1,2.3,4.32,2.25,2.25,0,0,1-.39.31,2.53,2.53,0,0,1-.44.24,3.32,3.32,0,0,1-.48.15A2.79,2.79,0,0,1,233.47,315.51Z"/><path class="cls-1" d="M188.89,322.53a2.56,2.56,0,0,1,2.44-2.67h0A2.57,2.57,0,0,1,194,322.3h0a2.56,2.56,0,0,1-2.44,2.67h-.12A2.55,2.55,0,0,1,188.89,322.53ZM180.51,325h0a2.56,2.56,0,0,1-2.45-2.67h0a2.56,2.56,0,0,1,2.67-2.45h0a2.55,2.55,0,0,1,2.44,2.67h0a2.55,2.55,0,0,1-2.55,2.44h-.11Zm-11-1h0a2.56,2.56,0,0,1-2.2-2.87h0a2.56,2.56,0,0,1,2.87-2.19h0a2.55,2.55,0,0,1,2.2,2.86h0a2.56,2.56,0,0,1-2.53,2.22h0A1.75,1.75,0,0,1,169.5,324Zm30.19-2.2a2.56,2.56,0,0,1,2.2-2.87h0a2.57,2.57,0,0,1,2.87,2.2h0a2.56,2.56,0,0,1-2.2,2.87h0l-.34,0h0A2.55,2.55,0,0,1,199.69,321.8Zm-41.07.26a2.56,2.56,0,0,1-1.94-3.05h0a2.56,2.56,0,0,1,3.06-1.94h0a2.55,2.55,0,0,1,1.93,3.05h0a2.56,2.56,0,0,1-2.49,2h0A2.53,2.53,0,0,1,158.63,322.06Zm51.76-1.94a2.55,2.55,0,0,1,1.94-3.05h0a2.55,2.55,0,0,1,3.05,1.93h0a2.56,2.56,0,0,1-1.93,3.06h0a3,3,0,0,1-.57.06h0A2.56,2.56,0,0,1,210.38,320.12Zm-62.42-1h0a2.57,2.57,0,0,1-1.65-3.22h0a2.55,2.55,0,0,1,3.21-1.65h0a2.56,2.56,0,0,1,1.66,3.21h0a2.56,2.56,0,0,1-2.43,1.78h0A2.61,2.61,0,0,1,148,319.16Zm72.92-1.66a2.55,2.55,0,0,1,1.65-3.21h0a2.56,2.56,0,0,1,3.21,1.65h0a2.55,2.55,0,0,1-1.65,3.21h0a2.39,2.39,0,0,1-.78.12h0A2.56,2.56,0,0,1,220.89,317.5Z"/><path class="cls-1" d="M138.59,315.51a2.79,2.79,0,0,1-.5,0,3.34,3.34,0,0,1-.48-.15,2.51,2.51,0,0,1-.44-.24,2.61,2.61,0,0,1-.39-.31,2.57,2.57,0,0,1,0-3.62,2.79,2.79,0,0,1,.39-.32,3.13,3.13,0,0,1,.44-.23,2.64,2.64,0,0,1,.48-.15,2.56,2.56,0,0,1,3.05,2.51,2.37,2.37,0,0,1-.05.5,2.23,2.23,0,0,1-.15.48,2.59,2.59,0,0,1-.23.45,2.31,2.31,0,0,1-.32.39A2.57,2.57,0,0,1,138.59,315.51Z"/><path class="cls-1" d="M188,303.3a2.56,2.56,0,0,1,2.43-2.68h0A2.55,2.55,0,0,1,193.1,303h0a2.56,2.56,0,0,1-2.43,2.68h-.13A2.56,2.56,0,0,1,188,303.3Zm-8.58,2.31a2.55,2.55,0,0,1-2.37-2.73h0a2.55,2.55,0,0,1,2.73-2.37h0a2.55,2.55,0,0,1,2.37,2.72h0a2.56,2.56,0,0,1-2.55,2.38h-.18Zm19.5-3.21a2.55,2.55,0,0,1,2.08-3h0a2.56,2.56,0,0,1,3,2.08h0a2.55,2.55,0,0,1-2.08,3h0a2.94,2.94,0,0,1-.44,0h0A2.55,2.55,0,0,1,198.91,302.4Zm-30.67,1.72a2.57,2.57,0,0,1-2-3h0a2.56,2.56,0,0,1,3-2h0a2.56,2.56,0,0,1,2,3h0a2.56,2.56,0,0,1-2.51,2.07h0A2.85,2.85,0,0,1,168.24,304.13Zm41.39-4a2.55,2.55,0,0,1,1.7-3.19h0a2.55,2.55,0,0,1,3.19,1.7h0a2.56,2.56,0,0,1-1.7,3.19h0a2.41,2.41,0,0,1-.75.11h0A2.56,2.56,0,0,1,209.63,300.17Zm-52.29,1.1a2.55,2.55,0,0,1-1.64-3.22h0a2.56,2.56,0,0,1,3.23-1.64h0a2.56,2.56,0,0,1,1.63,3.23h0a2.56,2.56,0,0,1-2.43,1.76h0A2.53,2.53,0,0,1,157.34,301.28ZM220,296.64a2.56,2.56,0,0,1,1.3-3.38h0a2.56,2.56,0,0,1,3.38,1.3h0a2.57,2.57,0,0,1-1.29,3.38h0a2.6,2.6,0,0,1-1,.22h0A2.55,2.55,0,0,1,220,296.64Zm-73.13.47a2.56,2.56,0,0,1-1.22-3.4h0a2.56,2.56,0,0,1,3.4-1.22h0a2.55,2.55,0,0,1,1.22,3.4h0a2.57,2.57,0,0,1-2.32,1.47h0A2.54,2.54,0,0,1,146.86,297.11Zm83-5.25a2.56,2.56,0,0,1,.87-3.51h0a2.56,2.56,0,0,1,3.51.88h0a2.56,2.56,0,0,1-.88,3.51h0a2.56,2.56,0,0,1-1.32.37h0A2.54,2.54,0,0,1,229.86,291.87ZM137,291.7a2.56,2.56,0,0,1-.8-3.53h0a2.55,2.55,0,0,1,3.53-.8h0a2.56,2.56,0,0,1,.8,3.52h0a2.54,2.54,0,0,1-2.16,1.2h0A2.59,2.59,0,0,1,137,291.7Zm102.07-5.78a2.56,2.56,0,0,1,.44-3.59h0a2.56,2.56,0,0,1,3.59.44h0a2.56,2.56,0,0,1-.44,3.59h0a2.55,2.55,0,0,1-1.57.55h0A2.56,2.56,0,0,1,239.06,285.92Zm-111.21-.8a2.55,2.55,0,0,1-.36-3.6h0a2.55,2.55,0,0,1,3.59-.36h0a2.55,2.55,0,0,1,.37,3.59h0a2.55,2.55,0,0,1-2,.94h0A2.56,2.56,0,0,1,127.85,285.11Zm119.61-6.22a2.57,2.57,0,0,1,0-3.62h0a2.55,2.55,0,0,1,3.62,0h0a2.55,2.55,0,0,1,0,3.62h0a2.58,2.58,0,0,1-1.81.74h0A2.57,2.57,0,0,1,247.46,278.9Z"/><path class="cls-1" d="M243.75,151.06H128.87a2.5,2.5,0,0,1,0-5H243.75a2.5,2.5,0,0,1,0,5Z"/><path class="cls-1" d="M270.72,193.59H101.25a2.5,2.5,0,0,1,0-5H270.72a2.5,2.5,0,0,1,0,5Z"/><path class="cls-1" d="M187.05,193.59a2.5,2.5,0,0,1-2.5-2.5v-40.7a2.5,2.5,0,0,1,5,0v40.7A2.5,2.5,0,0,1,187.05,193.59Z"/><path class="cls-1" d="M100.47,215.33a2.5,2.5,0,0,1-2.5-2.5v-12a25.59,25.59,0,0,0-25.56-25.56,2.5,2.5,0,0,1,0-5A30.6,30.6,0,0,1,103,200.84v12A2.5,2.5,0,0,1,100.47,215.33Z"/><path class="cls-1" d="M271.5,215.85a2.5,2.5,0,0,1-2.5-2.5v-12a30.6,30.6,0,0,1,30.56-30.56,2.5,2.5,0,0,1,0,5A25.59,25.59,0,0,0,274,201.35v12A2.5,2.5,0,0,1,271.5,215.85Z"/></g></g></svg>