<svg xmlns="http://www.w3.org/2000/svg" viewBox="0 0 356.47 356.43"><defs><style>.cls-1{opacity:0.92;}.cls-2{fill:#e6ae47;}.cls-3{fill:#FF5722;}</style></defs><title>context</title><g id="Layer_2" data-name="Layer 2"><g id="Layer_1-2" data-name="Layer 1"><g class="cls-1"><path class="cls-2" d="M286,211.36h.13l-.12,0Z"/></g><g class="cls-1"><path class="cls-2" d="M286,211.35h0Z"/></g><path class="cls-3" d="M148.17,155.4l2.89-2.89-2.89,2.89Zm0,0"/><polygon class="cls-3" points="145.67 161.43 145.67 154.36 149.29 150.74 152.83 154.27 145.67 161.43"/><path class="cls-3" d="M230,245.78V238.7l8-8a79.35,79.35,0,0,0,19.44-80.38l-.47-1.45L296.79,109a34.91,34.91,0,1,0-49.37-49.37l-97.49,97.48a35,35,0,0,0-4.32,44.12,24.72,24.72,0,0,1-41,27.59A84.45,84.45,0,0,1,115,122.2l97.49-97.49A84.36,84.36,0,1,1,331.76,144ZM216,28.24,118.5,125.74a79.45,79.45,0,0,0-9.77,100.34,19.72,19.72,0,1,0,32.74-22,40,40,0,0,1,4.93-50.44l97.49-97.48a39.91,39.91,0,1,1,56.44,56.44l-37.71,37.71a84.6,84.6,0,0,1-4.34,60.13l69.94-69.94A79.36,79.36,0,1,0,216,28.24Z"/><path class="cls-3" d="M84.36,356.43a84.33,84.33,0,0,1-59.65-144L115,122.2h0l3.54,3.54A79.12,79.12,0,0,0,99.08,206.1l.46,1.45L59.68,247.43A34.91,34.91,0,0,0,109,296.8l97.49-97.49a34.87,34.87,0,0,0,4.14-44.37,24.72,24.72,0,0,1,6.41-34.37h0A24.76,24.76,0,0,1,251.46,127a84.34,84.34,0,0,1-10,107.29L144,331.76A83.78,83.78,0,0,1,84.36,356.43ZM98.21,146l-70,70A79.36,79.36,0,0,0,140.47,328.23L238,230.74a79.33,79.33,0,0,0,9.37-100.93,19.72,19.72,0,1,0-32.54,22.31,39.88,39.88,0,0,1-4.73,50.73l-97.49,97.49a39.91,39.91,0,1,1-56.44-56.44l37.72-37.72A84.18,84.18,0,0,1,98.21,146Z"/><path class="cls-3" d="M134.3,326.36a2.5,2.5,0,0,1-1.77-4.27l55.21-55.21a2.5,2.5,0,1,1,3.54,3.54l-55.21,55.21A2.49,2.49,0,0,1,134.3,326.36Z"/><path class="cls-3" d="M196.66,264a2.5,2.5,0,0,1-1.77-4.27l28.8-28.8a2.5,2.5,0,0,1,3.54,3.54l-28.8,28.8A2.49,2.49,0,0,1,196.66,264Z"/><path class="cls-3" d="M323,35.47a2.49,2.49,0,0,1-1.77-.73,69.86,69.86,0,0,0-98.68,0A2.5,2.5,0,1,1,219,31.2a74.86,74.86,0,0,1,105.75,0A2.5,2.5,0,0,1,323,35.47Z"/><path class="cls-3" d="M83.19,347.49a74.55,74.55,0,0,1-52.88-21.87,2.5,2.5,0,1,1,3.54-3.54,69.86,69.86,0,0,0,98.68,0,2.5,2.5,0,1,1,3.54,3.54A74.55,74.55,0,0,1,83.19,347.49Z"/><path class="cls-3" d="M29,198.94a2.5,2.5,0,0,1,0-3.54h0a2.49,2.49,0,0,1,3.53,0h0a2.5,2.5,0,0,1,0,3.54h0a2.53,2.53,0,0,1-1.76.73h0A2.53,2.53,0,0,1,29,198.94Zm7.07-7.08a2.49,2.49,0,0,1,0-3.53h0a2.49,2.49,0,0,1,3.53,0h0a2.49,2.49,0,0,1,0,3.53h0a2.47,2.47,0,0,1-1.76.73h0A2.49,2.49,0,0,1,36.12,191.86Zm7.07-7.07a2.49,2.49,0,0,1,0-3.53h0a2.5,2.5,0,0,1,3.54,0h0a2.5,2.5,0,0,1,0,3.53h0a2.49,2.49,0,0,1-1.77.73h0A2.49,2.49,0,0,1,43.19,184.79Zm7.07-7.07a2.49,2.49,0,0,1,0-3.53h0a2.5,2.5,0,0,1,3.54,0h0a2.51,2.51,0,0,1,0,3.53h0a2.49,2.49,0,0,1-1.77.73h0A2.49,2.49,0,0,1,50.26,177.72Zm7.07-7.07a2.5,2.5,0,0,1,0-3.54h0a2.52,2.52,0,0,1,3.54,0h0a2.52,2.52,0,0,1,0,3.54h0a2.49,2.49,0,0,1-1.77.73h0A2.49,2.49,0,0,1,57.33,170.65Zm7.07-7.07a2.52,2.52,0,0,1,0-3.54h0a2.52,2.52,0,0,1,3.54,0h0a2.52,2.52,0,0,1,0,3.54h0a2.49,2.49,0,0,1-1.77.73h0A2.49,2.49,0,0,1,64.4,163.58Zm7.07-7.07a2.52,2.52,0,0,1,0-3.54h0A2.52,2.52,0,0,1,75,153h0a2.52,2.52,0,0,1,0,3.54h0a2.49,2.49,0,0,1-1.77.73h0A2.49,2.49,0,0,1,71.47,156.51Zm7.07-7.07a2.52,2.52,0,0,1,0-3.54h0a2.5,2.5,0,0,1,3.54,0h0a2.52,2.52,0,0,1,0,3.54h0a2.53,2.53,0,0,1-1.77.73h0A2.53,2.53,0,0,1,78.54,149.44Zm7.08-7.07a2.5,2.5,0,0,1,0-3.54h0a2.49,2.49,0,0,1,3.53,0h0a2.5,2.5,0,0,1,0,3.54h0a2.53,2.53,0,0,1-1.77.73h0A2.49,2.49,0,0,1,85.62,142.37Zm7.07-7.08a2.49,2.49,0,0,1,0-3.53h0a2.49,2.49,0,0,1,3.53,0h0a2.49,2.49,0,0,1,0,3.53h0a2.5,2.5,0,0,1-1.77.74h0A2.46,2.46,0,0,1,92.69,135.29Zm7.07-7.07a2.49,2.49,0,0,1,0-3.53h0a2.49,2.49,0,0,1,3.53,0h0a2.49,2.49,0,0,1,0,3.53h0a2.48,2.48,0,0,1-1.76.73h0A2.49,2.49,0,0,1,99.76,128.22Zm7.07-7.07a2.49,2.49,0,0,1,0-3.53h0a2.49,2.49,0,0,1,3.53,0h0a2.49,2.49,0,0,1,0,3.53h0a2.47,2.47,0,0,1-1.76.73h0A2.49,2.49,0,0,1,106.83,121.15Zm7.07-7.07a2.5,2.5,0,0,1,0-3.54h0a2.52,2.52,0,0,1,3.54,0h0a2.52,2.52,0,0,1,0,3.54h0a2.49,2.49,0,0,1-1.77.73h0A2.49,2.49,0,0,1,113.9,114.08ZM121,107a2.5,2.5,0,0,1,0-3.54h0a2.52,2.52,0,0,1,3.54,0h0a2.52,2.52,0,0,1,0,3.54h0a2.49,2.49,0,0,1-1.77.73h0A2.49,2.49,0,0,1,121,107ZM128,99.94a2.52,2.52,0,0,1,0-3.54h0a2.52,2.52,0,0,1,3.54,0h0a2.52,2.52,0,0,1,0,3.54h0a2.49,2.49,0,0,1-1.77.73h0A2.49,2.49,0,0,1,128,99.94Zm7.07-7.07a2.52,2.52,0,0,1,0-3.54h0a2.52,2.52,0,0,1,3.54,0h0a2.52,2.52,0,0,1,0,3.54h0a2.49,2.49,0,0,1-1.77.73h0A2.49,2.49,0,0,1,135.11,92.87Zm7.07-7.07a2.52,2.52,0,0,1,0-3.54h0a2.5,2.5,0,0,1,3.54,0h0a2.52,2.52,0,0,1,0,3.54h0a2.54,2.54,0,0,1-1.77.73h0A2.53,2.53,0,0,1,142.18,85.8Zm7.08-7.07a2.5,2.5,0,0,1,0-3.54h0a2.49,2.49,0,0,1,3.53,0h0a2.5,2.5,0,0,1,0,3.54h0a2.53,2.53,0,0,1-1.77.73h0A2.49,2.49,0,0,1,149.26,78.73Zm7.07-7.08a2.49,2.49,0,0,1,0-3.53h0a2.49,2.49,0,0,1,3.53,0h0a2.49,2.49,0,0,1,0,3.53h0a2.5,2.5,0,0,1-1.77.74h0A2.46,2.46,0,0,1,156.33,71.65Zm7.07-7.07a2.49,2.49,0,0,1,0-3.53h0a2.49,2.49,0,0,1,3.53,0h0a2.49,2.49,0,0,1,0,3.53h0a2.5,2.5,0,0,1-1.77.74h0A2.46,2.46,0,0,1,163.4,64.58Zm7.07-7.07a2.49,2.49,0,0,1,0-3.53h0A2.49,2.49,0,0,1,174,54h0a2.49,2.49,0,0,1,0,3.53h0a2.45,2.45,0,0,1-1.76.73h0A2.49,2.49,0,0,1,170.47,57.51Zm7.07-7.07a2.5,2.5,0,0,1,0-3.54h0a2.51,2.51,0,0,1,3.53,0h0a2.5,2.5,0,0,1,0,3.54h0a2.45,2.45,0,0,1-1.76.73h0A2.49,2.49,0,0,1,177.54,50.44Zm7.07-7.07a2.5,2.5,0,0,1,0-3.54h0a2.52,2.52,0,0,1,3.54,0h0a2.52,2.52,0,0,1,0,3.54h0a2.49,2.49,0,0,1-1.77.73h0A2.49,2.49,0,0,1,184.61,43.37Zm7.07-7.07a2.52,2.52,0,0,1,0-3.54h0a2.52,2.52,0,0,1,3.54,0h0a2.52,2.52,0,0,1,0,3.54h0a2.49,2.49,0,0,1-1.77.73h0A2.49,2.49,0,0,1,191.68,36.3Z"/><path class="cls-3" d="M157.91,327.8a2.52,2.52,0,0,1,0-3.54h0a2.52,2.52,0,0,1,3.54,0h0a2.52,2.52,0,0,1,0,3.54h0a2.49,2.49,0,0,1-1.77.73h0A2.49,2.49,0,0,1,157.91,327.8Zm7.07-7.07a2.52,2.52,0,0,1,0-3.54h0a2.52,2.52,0,0,1,3.54,0h0a2.5,2.5,0,0,1,0,3.54h0a2.49,2.49,0,0,1-1.77.73h0A2.49,2.49,0,0,1,165,320.73Zm7.08-7.07a2.5,2.5,0,0,1,0-3.54h0a2.51,2.51,0,0,1,3.53,0h0a2.5,2.5,0,0,1,0,3.54h0a2.49,2.49,0,0,1-1.77.73h0A2.45,2.45,0,0,1,172.06,313.66Zm7.07-7.07a2.5,2.5,0,0,1,0-3.54h0a2.49,2.49,0,0,1,3.53,0h0a2.5,2.5,0,0,1,0,3.54h0a2.53,2.53,0,0,1-1.77.73h0A2.49,2.49,0,0,1,179.13,306.59Zm7.07-7.07a2.5,2.5,0,0,1,0-3.54h0a2.49,2.49,0,0,1,3.53,0h0a2.5,2.5,0,0,1,0,3.54h0a2.52,2.52,0,0,1-1.76.73h0A2.53,2.53,0,0,1,186.2,299.52Zm7.07-7.07a2.5,2.5,0,0,1,0-3.54h0a2.49,2.49,0,0,1,3.53,0h0a2.5,2.5,0,0,1,0,3.54h0a2.49,2.49,0,0,1-1.76.73h0A2.53,2.53,0,0,1,193.27,292.45Zm7.07-7.08a2.49,2.49,0,0,1,0-3.53h0a2.49,2.49,0,0,1,3.53,0h0a2.49,2.49,0,0,1,0,3.53h0a2.46,2.46,0,0,1-1.76.74h0A2.5,2.5,0,0,1,200.34,285.37Zm7.07-7.07a2.49,2.49,0,0,1,0-3.53h0a2.5,2.5,0,0,1,3.54,0h0a2.51,2.51,0,0,1,0,3.53h0a2.49,2.49,0,0,1-1.77.73h0A2.49,2.49,0,0,1,207.41,278.3Zm7.07-7.07a2.51,2.51,0,0,1,0-3.53h0a2.5,2.5,0,0,1,3.54,0h0a2.5,2.5,0,0,1,0,3.53h0a2.49,2.49,0,0,1-1.77.73h0A2.49,2.49,0,0,1,214.48,271.23Zm7.07-7.07a2.5,2.5,0,0,1,0-3.53h0a2.5,2.5,0,0,1,3.54,0h0a2.49,2.49,0,0,1,0,3.53h0a2.49,2.49,0,0,1-1.77.73h0A2.49,2.49,0,0,1,221.55,264.16Zm7.07-7.07a2.52,2.52,0,0,1,0-3.54h0a2.52,2.52,0,0,1,3.54,0h0a2.5,2.5,0,0,1,0,3.54h0a2.49,2.49,0,0,1-1.77.73h0A2.49,2.49,0,0,1,228.62,257.09ZM235.7,250a2.5,2.5,0,0,1,0-3.54h0a2.51,2.51,0,0,1,3.53,0h0a2.5,2.5,0,0,1,0,3.54h0a2.49,2.49,0,0,1-1.77.73h0A2.45,2.45,0,0,1,235.7,250Zm7.07-7.07a2.5,2.5,0,0,1,0-3.54h0a2.51,2.51,0,0,1,3.53,0h0a2.5,2.5,0,0,1,0,3.54h0a2.49,2.49,0,0,1-1.77.73h0A2.45,2.45,0,0,1,242.77,242.95Zm7.07-7.07a2.5,2.5,0,0,1,0-3.54h0a2.49,2.49,0,0,1,3.53,0h0a2.5,2.5,0,0,1,0,3.54h0a2.53,2.53,0,0,1-1.77.73h0A2.49,2.49,0,0,1,249.84,235.88Zm7.07-7.07a2.5,2.5,0,0,1,0-3.54h0a2.49,2.49,0,0,1,3.53,0h0a2.5,2.5,0,0,1,0,3.54h0a2.51,2.51,0,0,1-1.76.73h0A2.53,2.53,0,0,1,256.91,228.81Zm7.07-7.08a2.49,2.49,0,0,1,0-3.53h0a2.49,2.49,0,0,1,3.53,0h0a2.49,2.49,0,0,1,0,3.53h0a2.46,2.46,0,0,1-1.76.74h0A2.5,2.5,0,0,1,264,221.73Zm7.07-7.07a2.49,2.49,0,0,1,0-3.53h0a2.5,2.5,0,0,1,3.54,0h0a2.5,2.5,0,0,1,0,3.53h0a2.5,2.5,0,0,1-1.77.74h0A2.5,2.5,0,0,1,271,214.66Zm7.07-7.07a2.49,2.49,0,0,1,0-3.53h0a2.5,2.5,0,0,1,3.54,0h0a2.51,2.51,0,0,1,0,3.53h0a2.49,2.49,0,0,1-1.77.73h0A2.49,2.49,0,0,1,278.12,207.59Zm7.07-7.07a2.51,2.51,0,0,1,0-3.53h0a2.5,2.5,0,0,1,3.54,0h0a2.5,2.5,0,0,1,0,3.53h0a2.49,2.49,0,0,1-1.77.73h0A2.49,2.49,0,0,1,285.19,200.52Zm7.07-7.07a2.52,2.52,0,0,1,0-3.54h0a2.52,2.52,0,0,1,3.54,0h0a2.52,2.52,0,0,1,0,3.54h0a2.49,2.49,0,0,1-1.77.73h0A2.49,2.49,0,0,1,292.26,193.45Zm7.07-7.07a2.52,2.52,0,0,1,0-3.54h0a2.52,2.52,0,0,1,3.54,0h0a2.52,2.52,0,0,1,0,3.54h0a2.49,2.49,0,0,1-1.77.73h0A2.49,2.49,0,0,1,299.33,186.38Zm7.08-7.07a2.5,2.5,0,0,1,0-3.54h0a2.51,2.51,0,0,1,3.53,0h0a2.5,2.5,0,0,1,0,3.54h0a2.49,2.49,0,0,1-1.77.73h0A2.45,2.45,0,0,1,306.41,179.31Zm7.07-7.07a2.5,2.5,0,0,1,0-3.54h0a2.51,2.51,0,0,1,3.53,0h0a2.5,2.5,0,0,1,0,3.54h0a2.49,2.49,0,0,1-1.77.73h0A2.47,2.47,0,0,1,313.48,172.24Zm7.07-7.07a2.5,2.5,0,0,1,0-3.54h0a2.49,2.49,0,0,1,3.53,0h0a2.5,2.5,0,0,1,0,3.54h0a2.53,2.53,0,0,1-1.77.73h0A2.53,2.53,0,0,1,320.55,165.17Z"/><path class="cls-3" d="M196,303.15a2.52,2.52,0,0,1,0-3.54h0a2.5,2.5,0,0,1,3.54,0h0a2.5,2.5,0,0,1,0,3.54h0a2.53,2.53,0,0,1-1.77.73h0A2.53,2.53,0,0,1,196,303.15Zm7.08-7.08a2.49,2.49,0,0,1,0-3.53h0a2.49,2.49,0,0,1,3.53,0h0a2.49,2.49,0,0,1,0,3.53h0a2.5,2.5,0,0,1-1.77.74h0A2.46,2.46,0,0,1,203.11,296.07Zm7.07-7.07a2.49,2.49,0,0,1,0-3.53h0a2.49,2.49,0,0,1,3.53,0h0a2.49,2.49,0,0,1,0,3.53h0a2.49,2.49,0,0,1-1.77.73h0A2.45,2.45,0,0,1,210.18,289Zm7.07-7.07a2.49,2.49,0,0,1,0-3.53h0a2.49,2.49,0,0,1,3.53,0h0a2.49,2.49,0,0,1,0,3.53h0a2.45,2.45,0,0,1-1.76.73h0A2.49,2.49,0,0,1,217.25,281.93Zm7.07-7.07a2.5,2.5,0,0,1,0-3.54h0a2.51,2.51,0,0,1,3.53,0h0a2.5,2.5,0,0,1,0,3.54h0a2.45,2.45,0,0,1-1.76.73h0A2.49,2.49,0,0,1,224.32,274.86Zm7.07-7.07a2.5,2.5,0,0,1,0-3.54h0a2.52,2.52,0,0,1,3.54,0h0a2.52,2.52,0,0,1,0,3.54h0a2.49,2.49,0,0,1-1.77.73h0A2.49,2.49,0,0,1,231.39,267.79Zm7.07-7.07a2.5,2.5,0,0,1,0-3.54h0a2.52,2.52,0,0,1,3.54,0h0a2.52,2.52,0,0,1,0,3.54h0a2.49,2.49,0,0,1-1.77.73h0A2.49,2.49,0,0,1,238.46,260.72Zm7.07-7.07a2.52,2.52,0,0,1,0-3.54h0a2.52,2.52,0,0,1,3.54,0h0a2.52,2.52,0,0,1,0,3.54h0a2.49,2.49,0,0,1-1.77.73h0A2.49,2.49,0,0,1,245.53,253.65Zm7.07-7.07a2.52,2.52,0,0,1,0-3.54h0a2.5,2.5,0,0,1,3.54,0h0a2.5,2.5,0,0,1,0,3.54h0a2.53,2.53,0,0,1-1.77.73h0A2.53,2.53,0,0,1,252.6,246.58Zm7.08-7.08a2.49,2.49,0,0,1,0-3.53h0a2.49,2.49,0,0,1,3.53,0h0a2.49,2.49,0,0,1,0,3.53h0a2.5,2.5,0,0,1-1.77.74h0A2.46,2.46,0,0,1,259.68,239.5Zm7.06-7.07a2.5,2.5,0,0,1,0-3.53h0a2.5,2.5,0,0,1,3.54,0h0a2.49,2.49,0,0,1,0,3.53h0a2.5,2.5,0,0,1-1.77.74h0A2.5,2.5,0,0,1,266.74,232.43Zm7.08-7.07a2.49,2.49,0,0,1,0-3.53h0a2.49,2.49,0,0,1,3.53,0h0a2.49,2.49,0,0,1,0,3.53h0a2.5,2.5,0,0,1-1.77.74h0A2.46,2.46,0,0,1,273.82,225.36Zm7.07-7.07a2.49,2.49,0,0,1,0-3.53h0a2.49,2.49,0,0,1,3.53,0h0a2.49,2.49,0,0,1,0,3.53h0a2.49,2.49,0,0,1-1.77.73h0A2.45,2.45,0,0,1,280.89,218.29Zm7.07-7.07a2.49,2.49,0,0,1,0-3.53h0a2.49,2.49,0,0,1,3.53,0h0a2.49,2.49,0,0,1,0,3.53h0a2.45,2.45,0,0,1-1.76.73h0A2.49,2.49,0,0,1,288,211.22Zm7.07-7.07a2.5,2.5,0,0,1,0-3.54h0a2.5,2.5,0,0,1,3.53,0h0a2.5,2.5,0,0,1,0,3.54h0a2.45,2.45,0,0,1-1.76.73h0A2.49,2.49,0,0,1,295,204.15Z"/><path class="cls-3" d="M53.57,160.68a2.51,2.51,0,0,1,0-3.53h0a2.5,2.5,0,0,1,3.54,0h0a2.5,2.5,0,0,1,0,3.53h0a2.49,2.49,0,0,1-1.77.73h0A2.49,2.49,0,0,1,53.57,160.68Zm7.07-7.07a2.5,2.5,0,0,1,0-3.53h0a2.5,2.5,0,0,1,3.54,0h0a2.49,2.49,0,0,1,0,3.53h0a2.49,2.49,0,0,1-1.77.73h0A2.49,2.49,0,0,1,60.64,153.61Zm7.08-7.07a2.5,2.5,0,0,1,0-3.54h0a2.5,2.5,0,0,1,3.53,0h0a2.5,2.5,0,0,1,0,3.54h0a2.49,2.49,0,0,1-1.77.73h0A2.45,2.45,0,0,1,67.72,146.54Zm7.07-7.07a2.5,2.5,0,0,1,0-3.54h0a2.51,2.51,0,0,1,3.53,0h0a2.5,2.5,0,0,1,0,3.54h0a2.49,2.49,0,0,1-1.77.73h0A2.45,2.45,0,0,1,74.79,139.47Zm7.07-7.07a2.5,2.5,0,0,1,0-3.54h0a2.51,2.51,0,0,1,3.53,0h0a2.5,2.5,0,0,1,0,3.54h0a2.53,2.53,0,0,1-1.77.73h0A2.53,2.53,0,0,1,81.86,132.4Zm7.07-7.07a2.5,2.5,0,0,1,0-3.54h0a2.5,2.5,0,0,1,3.53,0h0a2.5,2.5,0,0,1,0,3.54h0a2.47,2.47,0,0,1-1.76.73h0A2.49,2.49,0,0,1,88.93,125.33ZM96,118.26a2.5,2.5,0,0,1,0-3.54h0a2.5,2.5,0,0,1,3.54,0h0a2.52,2.52,0,0,1,0,3.54h0a2.53,2.53,0,0,1-1.77.73h0A2.53,2.53,0,0,1,96,118.26Zm7.07-7.08a2.49,2.49,0,0,1,0-3.53h0a2.5,2.5,0,0,1,3.54,0h0a2.5,2.5,0,0,1,0,3.53h0a2.5,2.5,0,0,1-1.77.74h0A2.5,2.5,0,0,1,103.07,111.18Zm7.07-7.07a2.5,2.5,0,0,1,0-3.53h0a2.5,2.5,0,0,1,3.54,0h0a2.5,2.5,0,0,1,0,3.53h0a2.5,2.5,0,0,1-1.77.74h0A2.5,2.5,0,0,1,110.14,104.11ZM117.21,97a2.51,2.51,0,0,1,0-3.53h0a2.5,2.5,0,0,1,3.54,0h0a2.5,2.5,0,0,1,0,3.53h0a2.5,2.5,0,0,1-1.77.74h0A2.5,2.5,0,0,1,117.21,97ZM124.28,90a2.5,2.5,0,0,1,0-3.53h0a2.5,2.5,0,0,1,3.54,0h0a2.49,2.49,0,0,1,0,3.53h0a2.49,2.49,0,0,1-1.77.73h0A2.49,2.49,0,0,1,124.28,90Zm7.07-7.07a2.52,2.52,0,0,1,0-3.54h0a2.52,2.52,0,0,1,3.54,0h0a2.5,2.5,0,0,1,0,3.54h0a2.49,2.49,0,0,1-1.77.73h0A2.49,2.49,0,0,1,131.35,82.9Zm7.07-7.07a2.52,2.52,0,0,1,0-3.54h0a2.52,2.52,0,0,1,3.54,0h0a2.5,2.5,0,0,1,0,3.54h0a2.49,2.49,0,0,1-1.77.73h0A2.49,2.49,0,0,1,138.42,75.83Zm7.08-7.07a2.5,2.5,0,0,1,0-3.54h0a2.51,2.51,0,0,1,3.53,0h0a2.5,2.5,0,0,1,0,3.54h0a2.49,2.49,0,0,1-1.77.73h0A2.47,2.47,0,0,1,145.5,68.76Zm7.07-7.07a2.5,2.5,0,0,1,0-3.54h0a2.51,2.51,0,0,1,3.53,0h0a2.5,2.5,0,0,1,0,3.54h0a2.45,2.45,0,0,1-1.76.73h0A2.49,2.49,0,0,1,152.57,61.69Z"/></g></g></svg>