<svg xmlns="http://www.w3.org/2000/svg" viewBox="0 0 406.05 406.06"><defs><style>.cls-1{fill:#888;}</style></defs><title>conversion</title><g id="Layer_2" data-name="Layer 2"><g id="Layer_1-2" data-name="Layer 1"><path class="cls-1" d="M303.6,235.8,299,234.24l.39-1.14.74-2.62c.1-.36.21-.74.32-1.11.15-.52.3-1,.39-1.42l.86-3.75c.2-.85.39-1.92.58-3.06.13-.74.26-1.51.41-2.28.17-1.17.32-2.34.45-3.41.09-.71.17-1.38.25-2l.28-3.72c.07-.8.14-1.71.14-2.61L304,203l4.81.13-.11,4.06c0,1-.08,2.05-.16,2.93l-.3,3.92c-.08.59-.17,1.26-.26,2-.14,1.12-.29,2.35-.47,3.57l0,.1c-.15.75-.28,1.51-.4,2.24-.21,1.21-.41,2.36-.64,3.34l-.85,3.68c-.11.52-.28,1.11-.47,1.74-.1.34-.2.68-.3,1l-.8,2.83Z"/><path class="cls-1" d="M332.11,245l-4.56-1.53.43-1.28c.15-.45.31-1.05.5-1.69l1.11-3.91c.08-.29.15-.54.2-.73L324,233.55l-8.14-3.14.51-2.06s.22-.88.48-2.17l.89-5c.17-1.11.32-2.29.45-3.34.07-.58.14-1.13.21-1.62.18-1.26.23-2.1.23-2.11l.11-2.15,8.78-.5,6.19-.44.06-.84c0-.5.05-1.1.06-1.74,0-.37,0-.75,0-1.13l.1-4.29,4.81.12-.1,4.31c0,.38,0,.75,0,1.1,0,.73,0,1.42-.08,2l-.1,1.34a4.33,4.33,0,0,1-1.48,3,3.87,3.87,0,0,1-2.68,1l-6.49.47-4.61.26,0,.36c-.06.46-.13,1-.2,1.55-.14,1.1-.29,2.32-.48,3.54l-.91,5.08-.07.35,4.26,1.64,6.08,2.46a4.18,4.18,0,0,1,2.77,5h0s-.13.58-.38,1.44l-1.1,3.89c-.2.7-.38,1.35-.55,1.88Zm-2.21-9.6h0Z"/><path class="cls-1" d="M288.6,265.18l-3.92-2.78.73-1,.54-.75c.32-.44.68-.93,1-1.44l2.25-3.5s.11-.16.24-.39l2.21-3.85c.26-.46.52-1,.78-1.51l.54-1.05c.83-1.54,1.55-3.15,2.13-4.44l1.17-2.67,1.47-3.72,1.29-3.78,4.55,1.56-1.35,3.94-2,5-.76,1.68c-.61,1.36-1.37,3.06-2.27,4.73l-.49,1c-.3.59-.59,1.17-.89,1.71l-2.22,3.87c-.22.38-.38.63-.46.73L291,261.77c-.38.59-.79,1.15-1.15,1.65l-.5.7Z"/><path class="cls-1" d="M312.83,282.81,308.91,280l2.5-3.52c.8-1.2,1.59-2.45,2-3.08-.75-.64-2.73-2.33-4.74-4l-6.74-5.49,2.18-3.78.4-.69c.24-.41.49-.85.74-1.31l2.44-4.77,2.75-6.09,8.41,2.24c2.5.65,5,1.26,6,1.49l.3-.77c.09-.24.21-.53.33-.85.22-.56.47-1.18.69-1.82l1.39-4.1L332.1,245l-1.39,4.09c-.24.72-.53,1.43-.78,2.06-.11.29-.22.56-.31.8l-.51,1.29a4.31,4.31,0,0,1-2.3,2.39,3.93,3.93,0,0,1-2.84.1c-.67-.16-3.51-.85-6.34-1.58L313.15,253,312,255.53l-2.49,4.85c-.3.56-.58,1-.84,1.5l-.37.65-.15.26,3.58,2.92c2.27,1.87,4.5,3.78,5,4.23a3.93,3.93,0,0,1,1.59,2.36,4.3,4.3,0,0,1-.58,3.26h0s-1.16,1.85-2.37,3.66Zm.85-9.82h0Z"/><path class="cls-1" d="M265.16,288.61l-2.78-3.93,1-.7,2.15-1.69c1.56-1.18,3-2.46,3-2.48l2-1.69c.63-.55,1.4-1.29,2.21-2.08.56-.53,1.13-1.09,1.72-1.64s1.09-1.15,1.62-1.7c.79-.82,1.54-1.6,2.11-2.25l1.65-1.9s1.33-1.49,2.47-3l1.72-2.19.7-1,3.93,2.78-.8,1.13-1.73,2.2c-1.23,1.64-2.61,3.19-2.67,3.25l-1.63,1.89c-.65.74-1.43,1.56-2.26,2.42-.53.55-1.08,1.13-1.63,1.71l-.12.12c-.59.55-1.17,1.11-1.73,1.64-.85.82-1.66,1.6-2.38,2.23l-1.93,1.67s-1.58,1.41-3.26,2.68l-2.25,1.77Z"/><path class="cls-1" d="M282.8,312.84,280,308.92l1.1-.78c.4-.29.88-.67,1.39-1.07l.88-.69,2.32-1.82.59-.47L283,298.77l-4.72-7.3,2.06-1.79.33-.29c.23-.2.51-.43.81-.73l3.69-3.52,3.48-3.66c.32-.33.56-.61.76-.84l.32-.37,1.76-2,7.33,4.74,5.28,3.3.45-.57,1.85-2.35.67-.86c.4-.51.79-1,1.08-1.4l.78-1.1,3.91,2.8-.78,1.1c-.33.47-.76,1-1.22,1.58l-2.51,3.19c-.54.7-.95,1.16-.95,1.16a4.16,4.16,0,0,1-5.64.67l-5.53-3.45-3.87-2.5-.27.28-3.57,3.75-3.7,3.52-.25.24,2.48,3.84,3.47,5.56a4.17,4.17,0,0,1-.7,5.66h0s-.45.4-1.15.94l-2.31,1.82-.86.68c-.57.45-1.11.88-1.57,1.2Zm3.84-9h0Zm17.13-17.12h0Z"/><path class="cls-1" d="M235.78,303.61l-1.55-4.55,3.78-1.29,5-2,1.38-.62c1.28-.57,2.88-1.29,4.38-2.1l1.08-.55c.53-.27,1-.53,1.54-.8l3.82-2.2.41-.25.09-.06,3.41-2.19c.5-.32,1-.68,1.43-1l.79-.56,1-.71,2.79,3.92-1,.74-.73.52c-.5.36-1.06.76-1.64,1.14l-3.38,2.17c-.11.07-.36.24-.73.46l-3.84,2.21c-.57.32-1.15.61-1.74.91l-1,.5c-1.63.88-3.32,1.64-4.67,2.25l-2.91,1.28-3.87,1.52Z"/><path class="cls-1" d="M245,332.12l-1.54-4.56,4.09-1.39c.64-.22,1.26-.47,1.82-.69l.88-.35.74-.29c-.23-1-.84-3.48-1.49-6l-2.23-8.39,6.6-3,4.29-2.2c.44-.24.89-.5,1.3-.73l.68-.39,3.77-2.17,5.5,6.75c1.66,2,3.34,4,4,4.73.65-.41,1.9-1.21,3.14-2l3.46-2.46,2.78,3.92-3.52,2.5c-1.88,1.26-3.74,2.42-3.74,2.42a4.29,4.29,0,0,1-3.25.57,3.93,3.93,0,0,1-2.36-1.58c-.45-.52-2.34-2.74-4.22-5l-2.93-3.59-.89.51c-.46.27-1,.56-1.49.84L255,312.25l-2,.91,1.19,4.47c.73,2.85,1.42,5.69,1.58,6.36a3.93,3.93,0,0,1-.1,2.84,4.31,4.31,0,0,1-2.39,2.3l-1.26.5-.83.33c-.63.25-1.34.53-2.06.78ZM273,313.71h0Z"/><path class="cls-1" d="M203.15,308.79,203,304l4.06-.11c.93,0,1.81-.07,2.64-.14l3.75-.29,2-.26c1.06-.13,2.23-.28,3.39-.45l2.29-.41c1.13-.2,2.2-.38,3-.58l3.73-.86c.45-.1.94-.24,1.47-.4l1.12-.32,2.59-.73,1.14-.39,1.55,4.55-1.32.45-2.68.76-1.05.3c-.63.19-1.23.36-1.78.48l-3.66.84c-1,.23-2.1.43-3.31.64-.73.13-1.49.26-2.25.4l-.1,0c-1.22.18-2.44.33-3.55.47l-2,.26-.15,0-3.79.29c-.91.08-1.92.16-3,.16Z"/><path class="cls-1" d="M203.15,338.76,203,334l4.31-.11,1.12,0c.64,0,1.23,0,1.72-.06l.85-.06.45-6.23.49-8.74,2.15-.11s.86,0,2.1-.22l1.64-.21c1.05-.13,2.23-.28,3.4-.46l5-.89c1.23-.25,2.08-.47,2.11-.47l2.06-.51,3.16,8.18,2.33,5.78.71-.2,3.9-1.11c.65-.18,1.26-.36,1.76-.52l1.26-.42,1.53,4.56-1.28.43c-.57.18-1.24.37-2,.58l-3.87,1.1c-.84.25-1.43.38-1.43.38a4.17,4.17,0,0,1-5-2.77l-2.44-6-1.66-4.3-.28.06-5.09.91c-1.27.2-2.5.35-3.6.49l-1.57.2-.35,0-.26,4.57-.47,6.53a4,4,0,0,1-1,2.68,4.33,4.33,0,0,1-3,1.48l-1.35.1c-.56,0-1.25.06-2,.08l-1.08,0Zm32.27-8.85h0Z"/><path class="cls-1" d="M203,308.79l-4.07-.11c-1,0-2-.08-2.93-.16l-3.92-.3-2-.26c-1.11-.14-2.34-.29-3.55-.47l-.1,0c-.76-.15-1.52-.28-2.25-.4-1.21-.21-2.35-.41-3.33-.64l-3.68-.85c-.52-.11-1.12-.29-1.75-.47l-1-.29-2.83-.8-1.2-.41,1.55-4.55,1.14.39,2.62.74,1.1.31c.53.15,1,.3,1.43.39l3.74.86c.85.2,1.92.39,3,.58l2.29.41c1.16.17,2.33.32,3.4.45l2,.25,3.72.28c.58,0,1.62.14,2.61.14l4.12.11Z"/><path class="cls-1" d="M203,338.76l-4.31-.11-1.11,0c-.73,0-1.42,0-2-.08l-1.34-.1a4.33,4.33,0,0,1-3-1.48,4,4,0,0,1-1-2.68l-.47-6.49-.26-4.61-.36,0-1.55-.2c-1.1-.14-2.32-.29-3.54-.48l-5.08-.91-.35-.07-1.65,4.26-2.45,6.08a4.17,4.17,0,0,1-5,2.77h0s-.58-.13-1.44-.38l-3.85-1.09c-.71-.2-1.38-.39-1.93-.57l-1.31-.44,1.53-4.56L164,328c.47.15,1.08.32,1.73.51l3.87,1.1.73.2,2.35-5.81,3.14-8.14,2.06.51s.88.22,2.17.48l5,.89c1.12.17,2.29.32,3.34.45l1.62.21c1.26.18,2.1.23,2.11.23l2.15.12.5,8.77.45,6.2.84.06c.5,0,1.09,0,1.73.06l1.14,0,4.29.11Zm-32.29-8.85h0Z"/><path class="cls-1" d="M170.39,303.61l-3.94-1.35-5.08-2-1.59-.72c-1.35-.61-3-1.36-4.7-2.26l-1-.49c-.59-.3-1.17-.59-1.71-.89l-3.87-2.22c-.38-.22-.63-.38-.73-.46L144.42,291c-.59-.38-1.15-.78-1.65-1.14l-.7-.5-1.06-.76,2.79-3.92,1,.73.76.54c.44.32.93.67,1.44,1l3.5,2.25.39.24,3.85,2.21c.46.26,1,.52,1.51.78l1.05.54c1.53.83,3.13,1.54,4.41,2.12l2.7,1.18,3.73,1.47,3.78,1.29Z"/><path class="cls-1" d="M161.14,332.12l-4.1-1.39c-.72-.24-1.42-.52-2.05-.77l-.8-.32-1.29-.51a4.31,4.31,0,0,1-2.39-2.3,3.93,3.93,0,0,1-.1-2.84c.16-.67.85-3.51,1.58-6.34l1.19-4.49L150.65,312l-4.86-2.49c-.56-.3-1.06-.59-1.52-.86l-.89-.51-2.92,3.58c-1.89,2.28-3.78,4.5-4.23,5a3.93,3.93,0,0,1-2.36,1.58,4.29,4.29,0,0,1-3.26-.58h0s-1.85-1.16-3.66-2.37l-3.58-2.54,2.78-3.92,3.52,2.5c1.2.8,2.44,1.59,3.08,2,.64-.75,2.32-2.72,4-4.74l5.49-6.74,3.78,2.18.66.38c.41.24.86.5,1.34.75l4.77,2.44,6.09,2.75-2.24,8.41c-.65,2.5-1.26,5-1.49,6l.77.3.86.34c.55.22,1.17.47,1.81.68l4.1,1.39Z"/><path class="cls-1" d="M141,288.61l-1.13-.8-2.19-1.72c-1.65-1.24-3.19-2.62-3.25-2.67l-1.89-1.63c-.74-.65-1.55-1.42-2.4-2.25-.56-.54-1.14-1.09-1.73-1.64l-.12-.12c-.54-.58-1.1-1.16-1.63-1.71-.83-.86-1.61-1.68-2.25-2.4l-1.67-1.93s-1.41-1.58-2.68-3.26l-1.76-2.25-.73-1,3.93-2.78.7,1,1.69,2.15c1.18,1.56,2.46,3,2.48,3L128,270.5c.56.63,1.3,1.41,2.09,2.23.53.55,1.08,1.12,1.62,1.7s1.16,1.1,1.72,1.64c.82.78,1.59,1.52,2.23,2.09l1.9,1.65s1.49,1.33,3,2.47L142.8,284l1,.7Z"/><path class="cls-1" d="M123.37,312.84l-1.1-.79c-.46-.33-1-.75-1.56-1.2l-.86-.67-2.35-1.85c-.7-.54-1.15-.94-1.15-.94a4.16,4.16,0,0,1-.67-5.64l3.45-5.53,2.5-3.87-.28-.27-3.74-3.57-3.53-3.7-.24-.25L110,287l-5.56,3.47a4.17,4.17,0,0,1-5.67-.7h0s-.4-.45-.94-1.15l-2.49-3.17c-.45-.58-.88-1.12-1.21-1.58l-.79-1.1,3.91-2.8.79,1.1c.29.41.67.89,1.08,1.4l.68.87,1.82,2.32.47.59,5.32-3.32,7.31-4.72,1.78,2.07.29.33c.2.23.43.51.73.8l3.52,3.69,3.66,3.48c.33.33.61.56.84.76l.36.31,2,1.76-4.74,7.33-3.3,5.28.57.45,2.35,1.85.88.69c.5.4,1,.77,1.38,1.06l1.09.78Zm-3.86-9.07h0Zm-17.13-17.13h0Z"/><path class="cls-1" d="M117.57,265.18l-.73-1-.52-.72c-.36-.5-.77-1.06-1.14-1.64L113,258.39c-.07-.1-.24-.35-.45-.73l-2.21-3.84c-.32-.57-.61-1.15-.91-1.74l-.51-1c-.89-1.65-1.65-3.34-2.26-4.7l-1.26-2.89-1.52-3.87-1.31-3.83,4.55-1.55,1.29,3.78,1.83,4.59.82,1.81c.58,1.29,1.3,2.89,2.12,4.41l.55,1.08c.27.53.53,1,.8,1.54l2.2,3.83c.13.23.22.37.25.4l.06.09,2.19,3.42c.32.5.68,1,1,1.43l.56.78.72,1Z"/><path class="cls-1" d="M93.34,282.81l-2.5-3.52c-1.25-1.88-2.42-3.74-2.42-3.74a4.29,4.29,0,0,1-.58-3.25,3.93,3.93,0,0,1,1.59-2.36c.52-.45,2.75-2.35,5-4.22L98,262.8l-.14-.24-.38-.67c-.26-.46-.55-.95-.83-1.47l-2.92-5.79L93,253l-4.47,1.19c-2.85.74-5.69,1.42-6.36,1.58a3.93,3.93,0,0,1-2.84-.1,4.31,4.31,0,0,1-2.3-2.38l-.5-1.26-.32-.83c-.25-.63-.53-1.34-.78-2.06L74.07,245l4.56-1.54L80,247.6c.22.64.47,1.27.69,1.82l.34.88.29.74c1-.23,3.48-.84,6-1.49l8.4-2.24,2.84,6.26,2.37,4.63c.23.43.49.87.72,1.28l.41.71,2.17,3.76-6.75,5.5c-2,1.65-4,3.33-4.73,4,.41.65,1.22,1.9,2,3.14L97.26,280ZM92.48,273h0Z"/><path class="cls-1" d="M102.58,235.8l-.45-1.33-.76-2.68c-.1-.37-.2-.72-.3-1.06-.19-.63-.36-1.23-.48-1.78l-.84-3.66c-.23-1-.43-2.1-.63-3.3-.13-.74-.26-1.5-.41-2.26l0-.1c-.18-1.22-.34-2.45-.47-3.57-.09-.72-.17-1.39-.26-2l0-.15-.29-3.79c-.07-.86-.15-1.88-.16-3l-.11-4,4.81-.13.11,4.06c0,1,.07,1.87.14,2.65l.28,3.75c.08.59.16,1.26.25,2,.13,1.07.28,2.24.45,3.41.15.78.28,1.55.41,2.3.19,1.13.38,2.19.58,3l.86,3.72c.1.45.24.95.4,1.47.11.37.22.74.32,1.12l.73,2.59.39,1.13Z"/><path class="cls-1" d="M74.07,245l-.43-1.28c-.18-.56-.37-1.22-.56-1.91L72,237.93c-.25-.84-.38-1.43-.38-1.43a4.17,4.17,0,0,1,2.77-5l6-2.44,4.3-1.66-.06-.28-.91-5.09c-.2-1.29-.35-2.52-.49-3.62-.07-.56-.13-1.08-.2-1.54l0-.34-4.57-.26-6.53-.47a3.85,3.85,0,0,1-2.68-1,4.34,4.34,0,0,1-1.48-3l-.1-1.35c0-.56-.06-1.25-.08-2,0-.35,0-.71,0-1.07l-.1-4.33,4.81-.12.1,4.31c0,.36,0,.74,0,1.1,0,.64,0,1.24.06,1.73l.06.85,6.23.45,8.74.49.11,2.16s0,.85.22,2.09c.07.5.13,1,.2,1.61.13,1.06.28,2.24.46,3.42l.89,5c.26,1.23.47,2.09.47,2.11l.51,2.06-8.18,3.16-5.78,2.33c0,.19.12.43.2.71l1.12,3.94c.18.64.35,1.23.5,1.72l.42,1.25Zm2.21-9.61h0Z"/><path class="cls-1" d="M102.21,203.16,97.4,203,97.5,199c0-1,.08-2.05.16-2.93l.3-3.92c.08-.59.17-1.26.26-2,.14-1.12.29-2.35.47-3.57l0-.1c.15-.76.28-1.53.41-2.26.21-1.21.4-2.35.64-3.32l.85-3.68c.11-.52.28-1.11.47-1.75.1-.33.2-.68.29-1l.8-2.83.41-1.2,4.55,1.56-.39,1.13-.74,2.62c-.1.36-.21.73-.31,1.1-.15.52-.3,1-.39,1.43l-.86,3.75c-.2.84-.39,1.91-.58,3-.13.75-.26,1.53-.41,2.3-.17,1.17-.32,2.34-.45,3.41-.09.71-.17,1.38-.25,2l-.28,3.72c-.07.8-.14,1.71-.14,2.61Z"/><path class="cls-1" d="M72.23,203.16,67.43,203l.1-4.31c0-.39,0-.75,0-1.1,0-.73,0-1.42.08-2l.1-1.34a4.34,4.34,0,0,1,1.48-3,3.87,3.87,0,0,1,2.68-1l6.49-.47,4.61-.26,0-.36c.06-.45.12-1,.19-1.52.14-1.1.29-2.34.48-3.57l.91-5.08.07-.35-4.26-1.64-6.08-2.46a4.18,4.18,0,0,1-2.77-5h0s.13-.58.38-1.44l1.1-3.89c.2-.7.38-1.35.55-1.88l.44-1.31,4.56,1.53L78.2,164c-.15.45-.31,1.05-.5,1.69l-1.11,3.91c-.08.29-.15.54-.2.73l5.81,2.35,8.14,3.14-.51,2.06s-.22.88-.49,2.18l-.89,5c-.17,1.12-.32,2.31-.45,3.37-.07.57-.14,1.11-.2,1.59-.18,1.26-.23,2.1-.23,2.11l-.11,2.15-8.78.5-6.2.44-.06.84c0,.5-.05,1.1-.06,1.74,0,.37,0,.75,0,1.13Zm4-32.41h0Z"/><path class="cls-1" d="M107.13,172l-4.55-1.55,1.35-3.94,1.94-4.86.81-1.78c.61-1.36,1.37-3.06,2.27-4.73l.49-1c.3-.59.59-1.17.9-1.72l2.22-3.87c.22-.38.39-.63.46-.74l2.16-3.38c.38-.59.79-1.15,1.15-1.65l.5-.7.75-1.06,3.93,2.78-.74,1-.54.76c-.32.44-.68.93-1,1.44l-2.25,3.5s-.11.16-.24.39l-2.21,3.85c-.26.46-.52,1-.79,1.51l-.54,1c-.84,1.55-1.55,3.15-2.13,4.44l-1.17,2.67-1.47,3.72Z"/><path class="cls-1" d="M78.62,162.69l-4.56-1.54,1.39-4.1c.24-.72.53-1.43.78-2.06l.31-.79.51-1.29a4.32,4.32,0,0,1,2.31-2.39,3.93,3.93,0,0,1,2.84-.1c.67.16,3.51.85,6.34,1.58L93,153.2l1.26-2.75,2.37-4.63c.3-.56.58-1,.84-1.5l.37-.65.15-.26-3.58-2.92c-2.27-1.87-4.5-3.78-5-4.23a3.93,3.93,0,0,1-1.59-2.36,4.31,4.31,0,0,1,.58-3.26h0s1.16-1.85,2.37-3.66l2.54-3.58,3.92,2.79-2.5,3.52c-.8,1.2-1.59,2.44-2,3.08.75.64,2.73,2.33,4.74,4l6.74,5.49L102.06,146l-.39.69c-.24.41-.49.85-.74,1.31l-2.78,5.52-2.42,5.34-8.41-2.24c-2.5-.65-5-1.26-6-1.49l-.3.77-.33.84c-.22.56-.47,1.18-.69,1.82ZM92.49,133.2h0Z"/><path class="cls-1" d="M121.5,143.8,117.57,141l.8-1.13,1.73-2.19c1.24-1.64,2.61-3.19,2.67-3.25l1.63-1.89c.65-.74,1.44-1.56,2.27-2.42.53-.55,1.08-1.13,1.62-1.71l.12-.12c.59-.55,1.17-1.1,1.72-1.64.86-.82,1.67-1.6,2.39-2.24l1.94-1.67s1.58-1.41,3.26-2.68l2.25-1.77,1-.73,2.78,3.93-1,.7-2.15,1.69c-1.56,1.17-3,2.46-3,2.48l-1.95,1.69c-.63.55-1.4,1.3-2.22,2.08l-1.71,1.63c-.54.58-1.09,1.15-1.62,1.7-.79.82-1.54,1.6-2.11,2.25l-1.65,1.9s-1.33,1.49-2.47,3l-1.72,2.19Z"/><path class="cls-1" d="M114.72,127.94l-7.34-4.74-5.28-3.3-.45.57-1.85,2.35-.67.85c-.41.51-.79,1-1.08,1.41l-.78,1.1-3.91-2.8.78-1.1c.33-.47.76-1,1.22-1.59l2.5-3.18c.54-.7.95-1.16.95-1.16a4.16,4.16,0,0,1,5.64-.67l5.53,3.45,3.87,2.5.27-.28,3.57-3.74,3.7-3.53.25-.24L119.14,110l-3.47-5.56a4.17,4.17,0,0,1,.7-5.66h0s.45-.4,1.15-.94L119.83,96l.87-.69c.57-.45,1.11-.87,1.56-1.2l1.1-.79,2.79,3.92-1.1.78c-.4.29-.88.66-1.38,1.06l-.89.7-2.32,1.82-.59.47,3.32,5.32,4.72,7.3-2.06,1.79-.33.29c-.23.2-.51.43-.81.73L121,121l-3.49,3.66c-.32.33-.56.61-.76.84l-.32.36Zm-12.31-8.42h0Zm17.12-17.12h0Z"/><path class="cls-1" d="M143.79,121.51,141,117.59l1-.74.72-.51c.5-.36,1.06-.77,1.64-1.14l3.39-2.17c.11-.07.36-.24.73-.46l3.84-2.21c.57-.32,1.15-.61,1.74-.91l1-.5c1.64-.89,3.34-1.65,4.7-2.26l2.89-1.26,3.87-1.52,3.84-1.31,1.55,4.55-3.78,1.29-6.4,2.64c-1.29.58-2.89,1.29-4.41,2.11l-1.08.55c-.53.27-1,.53-1.54.8l-3.82,2.2-.4.25-.09.06L147,119.24c-.5.32-1,.68-1.43,1l-.78.56Z"/><path class="cls-1" d="M142.24,104.25l-5.5-6.75c-1.66-2-3.34-4-4-4.73-.65.41-1.9,1.22-3.14,2l-3.46,2.46-2.78-3.92,3.52-2.5c1.88-1.25,3.74-2.42,3.74-2.42a4.29,4.29,0,0,1,3.25-.58,3.92,3.92,0,0,1,2.36,1.59c.45.52,2.34,2.74,4.22,5L143.38,98l.89-.51c.46-.27,1-.56,1.49-.84l5-2.55,2.43-1.1L152,88.57c-.74-2.85-1.42-5.69-1.58-6.36a3.93,3.93,0,0,1,.1-2.84,4.31,4.31,0,0,1,2.38-2.3l1.26-.5.84-.33c.63-.25,1.33-.53,2-.77l4.1-1.39,1.54,4.56L158.58,80c-.63.21-1.25.46-1.81.68l-.89.35-.74.29c.23,1,.84,3.48,1.5,6l2.23,8.4-6.09,2.75L148,101c-.44.24-.89.5-1.3.74l-.69.39Zm-9-11.76h0Z"/><path class="cls-1" d="M171.94,107.14l-1.55-4.55,1.32-.45,2.68-.76,1-.3c.64-.19,1.24-.36,1.79-.48l3.66-.84c1-.23,2.1-.43,3.31-.64.73-.13,1.49-.26,2.25-.4l.1,0c1.22-.18,2.45-.33,3.56-.47l2-.26.15,0,3.79-.29c.92-.08,1.93-.15,3-.16l4-.11.13,4.81-4.06.11c-1,0-2.09.09-2.65.14l-3.75.29-2,.25c-1.07.13-2.24.28-3.41.45l-2.29.41c-1.13.2-2.2.38-3,.58l-3.73.86c-.46.1-1,.24-1.48.4l-1.11.32-2.6.73Z"/><path class="cls-1" d="M175.78,90.36l-3.16-8.18-2.33-5.78-.71.2-3.93,1.11c-.64.18-1.24.35-1.73.51l-1.25.42-1.54-4.56,1.28-.43c.57-.18,1.23-.37,1.93-.57l3.9-1.11c.85-.25,1.43-.38,1.43-.38a4.17,4.17,0,0,1,5,2.77l2.44,6,1.66,4.3.28-.06,5.09-.91c1.28-.2,2.52-.35,3.62-.49l1.55-.2.34,0,.26-4.57.47-6.53a4,4,0,0,1,1-2.68,4.33,4.33,0,0,1,3-1.48l1.35-.1c.56,0,1.25-.06,2-.08l1.08,0,4.34-.11.12,4.81-4.31.1-1.11,0c-.64,0-1.24,0-1.73.06l-.85.06-.45,6.23-.49,8.74-2.16.11s-.85,0-2.09.22l-1.62.21c-1.06.13-2.24.28-3.41.46l-5,.89c-1.23.26-2.09.47-2.11.47Zm-5-14.07h0Z"/><path class="cls-1" d="M234.23,107.14l-2-.63-1.77-.5-1.09-.31c-.53-.15-1-.3-1.44-.39l-3.75-.86c-.85-.2-1.91-.39-3-.58l-2.29-.41c-1.17-.17-2.34-.32-3.4-.45l-2-.25-3.72-.28c-.58,0-1.62-.14-2.61-.14l-4.12-.11.13-4.81,4.06.11c1,0,2,.08,2.93.16l3.92.3,2,.26c1.12.14,2.34.29,3.56.47l.1,0c.76.15,1.52.28,2.25.4,1.21.21,2.35.41,3.33.64l3.68.85c.52.11,1.12.29,1.75.47l1,.29,2.83.8,1.2.41Z"/><path class="cls-1" d="M230.39,90.36l-2.06-.51s-.88-.22-2.17-.49l-5-.89c-1.12-.17-2.3-.32-3.36-.45l-1.6-.2c-1.26-.18-2.11-.23-2.11-.23L212,87.48l-.5-8.78L211,72.51l-.84-.06c-.5,0-1.1-.05-1.73-.06l-1.13,0-4.29-.1.12-4.81,4.31.1,1.1,0c.73,0,1.42,0,2,.08l1.34.1a4.33,4.33,0,0,1,3,1.48,4,4,0,0,1,1,2.68l.47,6.49.26,4.61.36,0,1.53.19c1.1.14,2.33.29,3.56.48l5.08.91.35.07,1.65-4.26,2.45-6.08a4.18,4.18,0,0,1,5-2.77h0s.58.13,1.44.38l3.88,1.1c.7.2,1.36.39,1.9.56l1.31.44-1.53,4.56-1.28-.43c-.46-.15-1.06-.32-1.7-.5l-3.9-1.11-.73-.2-2.35,5.81Zm5-14.07h0Z"/><path class="cls-1" d="M262.38,121.51l-1-.73-.76-.54c-.44-.32-.93-.68-1.44-1l-3.5-2.25-.39-.24-3.85-2.21c-.46-.26-1-.52-1.51-.79l-1-.53c-1.54-.84-3.15-1.55-4.44-2.13l-2.68-1.18L238,108.43l-3.78-1.29,1.55-4.55,3.94,1.35,4.53,1.79,2.12,1c1.36.61,3.06,1.37,4.73,2.27l1,.49c.59.3,1.17.59,1.72.9l3.87,2.22c.38.22.63.38.73.46l3.37,2.16c.59.38,1.15.79,1.65,1.15l.7.5,1.06.75Z"/><path class="cls-1" d="M263.94,104.25l-3.78-2.18-.67-.39c-.41-.24-.86-.5-1.33-.75l-5.4-2.72-5.46-2.47,2.24-8.41c.65-2.5,1.26-5,1.49-6l-.77-.3-.85-.34c-.55-.22-1.18-.47-1.81-.68l-4.1-1.39L245,74.08l4.09,1.39c.72.24,1.42.52,2.05.77l.8.32,1.29.51a4.31,4.31,0,0,1,2.39,2.3,3.93,3.93,0,0,1,.1,2.84c-.16.67-.85,3.51-1.58,6.34L253,93l2.53,1.15,4.86,2.49c.56.3,1.06.59,1.52.85l.89.51,2.92-3.58c1.87-2.27,3.78-4.5,4.23-5a3.92,3.92,0,0,1,2.36-1.59,4.3,4.3,0,0,1,3.26.58h0s1.85,1.16,3.66,2.37l3.58,2.54L280,97.27l-3.52-2.5c-1.2-.8-2.44-1.59-3.08-2-.64.75-2.32,2.72-4,4.74Zm9-11.75h0Z"/><path class="cls-1" d="M284.68,143.8l-.7-1-1.69-2.15c-1.17-1.56-2.46-3-2.48-3l-1.69-1.95c-.56-.63-1.31-1.41-2.1-2.24-.53-.55-1.07-1.12-1.62-1.7l-1.71-1.63c-.82-.79-1.59-1.53-2.24-2.1l-1.9-1.65s-1.49-1.33-3-2.47l-2.19-1.72-1-.7,2.78-3.93,1.13.81,2.19,1.72c1.64,1.24,3.19,2.61,3.25,2.67l1.89,1.63c.74.65,1.55,1.43,2.41,2.25.56.53,1.14,1.09,1.72,1.64l.12.12c.54.58,1.09,1.16,1.62,1.71.83.86,1.61,1.68,2.25,2.41l1.67,1.93s1.41,1.58,2.68,3.26l1.76,2.25.73,1Z"/><path class="cls-1" d="M291.46,127.93l-1.79-2.06-.29-.33c-.2-.23-.44-.51-.73-.81L285.14,121l-3.66-3.48c-.33-.32-.61-.56-.84-.76l-.36-.31-2-1.76L283,107.4l3.3-5.29-.57-.45-2.35-1.85-.87-.68c-.51-.4-1-.78-1.39-1.07L280,97.27l2.79-3.92,1.1.78c.46.33,1,.76,1.58,1.21l.85.67,2.35,1.85c.7.54,1.16.95,1.16.95a4.16,4.16,0,0,1,.67,5.64L287.05,110l-2.5,3.87.28.27,3.75,3.57,3.52,3.7.24.25,3.83-2.48,5.56-3.47a4.17,4.17,0,0,1,5.66.7h0s.4.45.94,1.15l2.48,3.16c.46.58.89,1.12,1.22,1.59l.79,1.1-3.91,2.8-.78-1.1c-.29-.41-.68-.89-1.08-1.41l-.68-.87-1.82-2.32-.47-.59-5.32,3.32Zm12.33-8.39h0Zm-17.12-17.13h0Z"/><path class="cls-1" d="M299,172l-1.29-3.78-1.87-4.69-.77-1.7c-.58-1.29-1.3-2.89-2.12-4.41l-.55-1.08c-.27-.53-.53-1-.8-1.54l-2.2-3.82c-.13-.23-.22-.37-.25-.4l-.06-.09L287,147c-.32-.5-.68-1-1-1.43l-.56-.78-.72-1L288.6,141l.73,1,.52.73c.36.5.77,1.06,1.14,1.64l2.17,3.38c.07.1.24.35.45.73l2.21,3.84c.32.57.61,1.15.91,1.74l.5,1c.89,1.64,1.65,3.34,2.26,4.7l1.26,2.89,1.52,3.87,1.31,3.83Z"/><path class="cls-1" d="M327.55,162.69l-1.39-4.1c-.22-.64-.47-1.26-.69-1.82-.13-.32-.25-.61-.35-.88l-.29-.74c-1,.23-3.48.84-6,1.49l-8.4,2.24-2.75-6.09-2.46-4.8c-.23-.43-.49-.87-.72-1.28l-.41-.71-2.16-3.76,6.75-5.5c2-1.65,4-3.33,4.73-4-.41-.65-1.22-1.9-2-3.14l-2.46-3.46,3.92-2.79,2.5,3.52c1.25,1.88,2.42,3.74,2.42,3.74a4.3,4.3,0,0,1,.58,3.25,3.93,3.93,0,0,1-1.59,2.36c-.52.45-2.75,2.35-5,4.22l-3.59,2.93.14.24.39.67c.26.45.55.95.83,1.47l2.56,5,1.1,2.43,4.47-1.19c2.85-.74,5.69-1.42,6.36-1.58a3.93,3.93,0,0,1,2.84.1,4.31,4.31,0,0,1,2.3,2.39l.5,1.26c.1.27.21.54.33.83.25.63.53,1.34.78,2.06l1.39,4.09Zm-13.86-29.48h0Z"/><path class="cls-1" d="M304,203.16l-.11-4.07c0-1-.07-1.87-.14-2.65l-.28-3.74c-.08-.59-.16-1.26-.25-2-.13-1.07-.28-2.24-.45-3.41-.15-.77-.28-1.54-.41-2.28-.2-1.13-.38-2.21-.58-3l-.86-3.73c-.1-.45-.24-.94-.4-1.46-.11-.37-.22-.75-.32-1.13l-.73-2.59L299,172l4.55-1.55.45,1.32.76,2.68c.1.38.2.72.3,1.06.18.63.36,1.23.48,1.78l.84,3.66c.23,1,.43,2.11.64,3.32.13.73.26,1.49.4,2.24l0,.1c.18,1.22.34,2.45.47,3.57.09.72.17,1.39.26,2l0,.15.29,3.79c.07.86.15,1.88.16,3l.11,4Z"/><path class="cls-1" d="M333.94,203.16l-.1-4.31c0-.36,0-.74,0-1.1,0-.64,0-1.24-.06-1.73l-.06-.85-6.23-.45-8.74-.49-.11-2.16s0-.85-.22-2.09c-.07-.51-.14-1.05-.21-1.64-.13-1.05-.28-2.23-.46-3.4l-.89-5c-.25-1.23-.47-2.09-.47-2.11l-.51-2.06,8.18-3.16,5.78-2.33c0-.19-.12-.43-.2-.71l-1.12-3.94c-.18-.64-.35-1.23-.5-1.72l-.42-1.25,4.56-1.53.43,1.28c.18.56.37,1.22.56,1.91l1.11,3.91c.25.84.38,1.43.38,1.43a4.17,4.17,0,0,1-2.77,5l-6,2.44-4.3,1.66.06.28.91,5.09c.2,1.28.35,2.5.49,3.6.07.56.14,1.09.2,1.57l0,.34,4.57.26,6.53.47a3.88,3.88,0,0,1,2.68,1,4.33,4.33,0,0,1,1.48,3l.1,1.35c0,.56.06,1.25.08,2,0,.35,0,.71,0,1.07l.1,4.34Zm-4-32.39h0Z"/><path class="cls-1" d="M62.71,262.4h0A2.49,2.49,0,0,1,64,259.13h0a2.5,2.5,0,0,1,3.28,1.32h0A2.51,2.51,0,0,1,66,263.73h0a2.6,2.6,0,0,1-1,.2h0A2.52,2.52,0,0,1,62.71,262.4Zm-3.64-9.49h0a2.5,2.5,0,0,1,1.55-3.18h0a2.49,2.49,0,0,1,3.17,1.54h0a2.5,2.5,0,0,1-1.54,3.18h0a2.57,2.57,0,0,1-.82.13h0A2.51,2.51,0,0,1,59.07,252.91Zm-3-9.71a2.49,2.49,0,0,1,1.76-3.07h0a2.5,2.5,0,0,1,3.07,1.75h0A2.5,2.5,0,0,1,59.14,245h0a2.48,2.48,0,0,1-.66.09h0A2.5,2.5,0,0,1,56.07,243.2Zm-2.34-9.89a2.51,2.51,0,0,1,2-3h0a2.5,2.5,0,0,1,2.94,2h0a2.5,2.5,0,0,1-2,2.94h0a2.12,2.12,0,0,1-.5,0h0A2.51,2.51,0,0,1,53.73,233.31Zm-1.67-10a2.5,2.5,0,0,1,2.16-2.81h0a2.5,2.5,0,0,1,2.8,2.15h0a2.5,2.5,0,0,1-2.15,2.81h0l-.33,0h0A2.5,2.5,0,0,1,52.06,223.28Zm-1-10.11a2.5,2.5,0,0,1,2.33-2.66h0a2.5,2.5,0,0,1,2.66,2.33h0a2.51,2.51,0,0,1-2.34,2.66h-.16A2.49,2.49,0,0,1,51.07,213.17ZM50.74,203a2.5,2.5,0,0,1,2.5-2.5h0a2.5,2.5,0,0,1,2.5,2.5h0a2.5,2.5,0,0,1-2.5,2.5h0A2.5,2.5,0,0,1,50.74,203Zm2.67-7.5a2.5,2.5,0,0,1-2.33-2.66h0a2.5,2.5,0,0,1,2.66-2.33h0a2.5,2.5,0,0,1,2.33,2.66h0a2.5,2.5,0,0,1-2.5,2.34h-.16Zm.83-10a2.5,2.5,0,0,1-2.15-2.81h0a2.5,2.5,0,0,1,2.81-2.15h0A2.49,2.49,0,0,1,57,183.4h0a2.52,2.52,0,0,1-2.48,2.17h0A1.8,1.8,0,0,1,54.24,185.54Zm1.48-9.89a2.5,2.5,0,0,1-2-2.94h0a2.51,2.51,0,0,1,3-2h0a2.5,2.5,0,0,1,1.95,3h0a2.49,2.49,0,0,1-2.45,2h0A2.17,2.17,0,0,1,55.72,175.65Zm2.15-9.76a2.51,2.51,0,0,1-1.75-3.07h0a2.5,2.5,0,0,1,3.07-1.76h0A2.52,2.52,0,0,1,61,164.14h0A2.51,2.51,0,0,1,58.54,166h0A2.59,2.59,0,0,1,57.87,165.89Zm2.8-9.6a2.51,2.51,0,0,1-1.54-3.19h0a2.5,2.5,0,0,1,3.18-1.55h0a2.51,2.51,0,0,1,1.55,3.19h0a2.51,2.51,0,0,1-2.37,1.68h0A2.65,2.65,0,0,1,60.67,156.29Zm3.44-9.39a2.5,2.5,0,0,1-1.32-3.28h0a2.5,2.5,0,0,1,3.28-1.33h0a2.5,2.5,0,0,1,1.32,3.28h0a2.51,2.51,0,0,1-2.31,1.52h0A2.58,2.58,0,0,1,64.11,146.9Zm4.06-9.14a2.51,2.51,0,0,1-1.1-3.36h0a2.5,2.5,0,0,1,3.36-1.1h0a2.49,2.49,0,0,1,1.1,3.36h0A2.5,2.5,0,0,1,69.3,138h0A2.57,2.57,0,0,1,68.17,137.76Zm4.67-8.85a2.5,2.5,0,0,1-.88-3.42h0a2.51,2.51,0,0,1,3.43-.88h0a2.5,2.5,0,0,1,.87,3.43h0a2.49,2.49,0,0,1-2.15,1.22h0A2.46,2.46,0,0,1,72.84,128.91Zm5.24-8.51a2.49,2.49,0,0,1-.64-3.48h0a2.5,2.5,0,0,1,3.47-.64h0a2.5,2.5,0,0,1,.65,3.48h0a2.52,2.52,0,0,1-2.06,1.08h0A2.5,2.5,0,0,1,78.08,120.4Zm5.8-8.15a2.5,2.5,0,0,1-.41-3.51h0a2.5,2.5,0,0,1,3.51-.41h0a2.5,2.5,0,0,1,.41,3.51h0a2.5,2.5,0,0,1-2,.95h0A2.5,2.5,0,0,1,83.88,112.25Zm6.33-7.74A2.49,2.49,0,0,1,90,101h0a2.49,2.49,0,0,1,3.53-.18h0a2.5,2.5,0,0,1,.18,3.53h0a2.47,2.47,0,0,1-1.86.82h0A2.5,2.5,0,0,1,90.21,104.51ZM97,97.2a2.5,2.5,0,0,1,.06-3.53h0a2.51,2.51,0,0,1,3.54.05h0a2.51,2.51,0,0,1-.06,3.54h0a2.49,2.49,0,0,1-1.74.7h0A2.51,2.51,0,0,1,97,97.2Zm7.3-6.83a2.51,2.51,0,0,1,.29-3.53h0a2.51,2.51,0,0,1,3.53.29h0a2.5,2.5,0,0,1-.3,3.53h0a2.54,2.54,0,0,1-1.62.59h0A2.51,2.51,0,0,1,104.33,90.37ZM112.07,84a2.5,2.5,0,0,1,.52-3.5h0a2.51,2.51,0,0,1,3.5.52h0a2.52,2.52,0,0,1-.53,3.5h0a2.5,2.5,0,0,1-1.48.49h0A2.49,2.49,0,0,1,112.07,84Zm8.13-5.81a2.5,2.5,0,0,1,.76-3.46h0a2.5,2.5,0,0,1,3.45.76h0a2.49,2.49,0,0,1-.75,3.45h0a2.5,2.5,0,0,1-1.35.4h0A2.52,2.52,0,0,1,120.2,78.22ZM128.71,73a2.5,2.5,0,0,1,1-3.4h0a2.5,2.5,0,0,1,3.4,1h0a2.49,2.49,0,0,1-1,3.39h0a2.47,2.47,0,0,1-1.2.31h0A2.48,2.48,0,0,1,128.71,73Zm8.83-4.68A2.5,2.5,0,0,1,138.75,65h0a2.52,2.52,0,0,1,3.33,1.21h0a2.5,2.5,0,0,1-1.21,3.32h0a2.48,2.48,0,0,1-1.06.24h0A2.52,2.52,0,0,1,137.54,68.28Zm9.14-4.07A2.49,2.49,0,0,1,148.1,61h0a2.51,2.51,0,0,1,3.24,1.42h0a2.5,2.5,0,0,1-1.43,3.24h0a2.62,2.62,0,0,1-.9.17h0A2.5,2.5,0,0,1,146.68,64.21Zm109,1.2a2.5,2.5,0,0,1-1.44-3.23h0a2.5,2.5,0,0,1,3.23-1.44h0A2.5,2.5,0,0,1,258.9,64h0a2.51,2.51,0,0,1-2.33,1.61h0A2.6,2.6,0,0,1,255.67,65.41Zm-99.61-4.65a2.5,2.5,0,0,1,1.64-3.13h0a2.5,2.5,0,0,1,3.13,1.65h0a2.49,2.49,0,0,1-1.64,3.13h0a2.42,2.42,0,0,1-.74.11h0A2.49,2.49,0,0,1,156.06,60.76Zm90.32,1.45h0a2.5,2.5,0,0,1-1.66-3.12h0a2.5,2.5,0,0,1,3.12-1.66h0a2.51,2.51,0,0,1,1.66,3.13h0a2.5,2.5,0,0,1-2.39,1.76h0A2.3,2.3,0,0,1,246.38,62.21Zm-80.73-4.27a2.5,2.5,0,0,1,1.85-3h0a2.51,2.51,0,0,1,3,1.85h0a2.5,2.5,0,0,1-1.85,3h0a2.34,2.34,0,0,1-.59.07h0A2.5,2.5,0,0,1,165.65,57.94Zm71.24,1.7a2.48,2.48,0,0,1-1.86-3h0a2.49,2.49,0,0,1,3-1.86h0a2.5,2.5,0,0,1,1.86,3h0a2.5,2.5,0,0,1-2.43,1.93h0A2.23,2.23,0,0,1,236.89,59.64Zm-61.48-3.86a2.5,2.5,0,0,1,2-2.88h0a2.49,2.49,0,0,1,2.88,2h0a2.51,2.51,0,0,1-2,2.89h0a2.9,2.9,0,0,1-.42,0h0A2.51,2.51,0,0,1,175.41,55.78Zm51.84,1.94h0a2.49,2.49,0,0,1-2-2.87h0a2.49,2.49,0,0,1,2.87-2.06h0a2.5,2.5,0,0,1,2.06,2.87h0a2.48,2.48,0,0,1-2.47,2.09h0ZM185.3,54.27a2.49,2.49,0,0,1,2.23-2.73h0a2.5,2.5,0,0,1,2.74,2.23h0A2.5,2.5,0,0,1,188,56.51h-.26A2.5,2.5,0,0,1,185.3,54.27Zm32.19,2.18a2.51,2.51,0,0,1-2.24-2.73h0A2.5,2.5,0,0,1,218,51.47h0a2.49,2.49,0,0,1,2.24,2.73h0a2.5,2.5,0,0,1-2.48,2.26h-.25Zm-22.23-3a2.49,2.49,0,0,1,2.41-2.58h0a2.5,2.5,0,0,1,2.59,2.4h0a2.51,2.51,0,0,1-2.42,2.59h-.08A2.5,2.5,0,0,1,195.26,53.43Zm12.42,2.39a2.49,2.49,0,0,1-2.42-2.57h0a2.49,2.49,0,0,1,2.57-2.42h0a2.49,2.49,0,0,1,2.42,2.57h0a2.5,2.5,0,0,1-2.49,2.42h-.08Z"/><path class="cls-1" d="M198.34,355.37h0a2.49,2.49,0,0,1-2.42-2.57h0a2.5,2.5,0,0,1,2.57-2.43h0a2.5,2.5,0,0,1,2.42,2.58h0a2.5,2.5,0,0,1-2.5,2.42h-.07Zm10.16,0a2.5,2.5,0,0,1-2.59-2.41h0a2.51,2.51,0,0,1,2.42-2.59h0a2.5,2.5,0,0,1,2.59,2.41h0a2.5,2.5,0,0,1-2.41,2.59Zm-20.31-.62a2.51,2.51,0,0,1-2.25-2.74h0a2.51,2.51,0,0,1,2.74-2.24h0a2.5,2.5,0,0,1,2.25,2.73h0a2.5,2.5,0,0,1-2.49,2.26h-.24Zm27.71-2.3a2.49,2.49,0,0,1,2.23-2.74h0a2.5,2.5,0,0,1,2.74,2.23h0a2.5,2.5,0,0,1-2.23,2.74h-.26A2.49,2.49,0,0,1,215.9,352.43Zm-37.79,1a2.5,2.5,0,0,1-2.06-2.88h0a2.51,2.51,0,0,1,2.88-2.06h0a2.51,2.51,0,0,1,2.07,2.88h0a2.52,2.52,0,0,1-2.47,2.09h0A2.86,2.86,0,0,1,178.11,353.41Zm47.72-2.16a2.5,2.5,0,0,1,2-2.88h0a2.5,2.5,0,0,1,2.87,2h0a2.49,2.49,0,0,1-2,2.88h0l-.42,0h0A2.49,2.49,0,0,1,225.83,351.25Zm-57.69.17h0a2.5,2.5,0,0,1-1.86-3h0a2.49,2.49,0,0,1,3-1.86h0a2.5,2.5,0,0,1,1.87,3h0a2.5,2.5,0,0,1-2.44,1.93h0A2.76,2.76,0,0,1,168.14,351.42Zm67.51-2a2.51,2.51,0,0,1,1.85-3h0a2.51,2.51,0,0,1,3,1.85h0a2.52,2.52,0,0,1-1.85,3h0a3,3,0,0,1-.59.07h0A2.52,2.52,0,0,1,235.65,349.42Zm-77.32-.66h0a2.49,2.49,0,0,1-1.66-3.12h0a2.5,2.5,0,0,1,3.12-1.66h0a2.51,2.51,0,0,1,1.66,3.13h0a2.5,2.5,0,0,1-2.39,1.76h0A2.31,2.31,0,0,1,158.33,348.76Zm87-1.83A2.49,2.49,0,0,1,247,343.8h0a2.5,2.5,0,0,1,3.13,1.64h0a2.5,2.5,0,0,1-1.64,3.13h0a2.43,2.43,0,0,1-.75.11h0A2.49,2.49,0,0,1,245.34,346.93Zm-96.63-1.48h0a2.49,2.49,0,0,1-1.44-3.22h0a2.51,2.51,0,0,1,3.23-1.45h0a2.51,2.51,0,0,1,1.44,3.23h0a2.49,2.49,0,0,1-2.33,1.61h0A2.4,2.4,0,0,1,148.71,345.45Zm106.12-1.66a2.49,2.49,0,0,1,1.43-3.23h0a2.49,2.49,0,0,1,3.23,1.43h0a2.49,2.49,0,0,1-1.43,3.23h0a2.36,2.36,0,0,1-.9.17h0A2.5,2.5,0,0,1,254.83,343.79Zm9.26-3.76a2.52,2.52,0,0,1,1.21-3.33h0a2.52,2.52,0,0,1,3.33,1.21h0a2.5,2.5,0,0,1-1.21,3.32h0a2.47,2.47,0,0,1-1,.24h0A2.52,2.52,0,0,1,264.09,340Zm9-4.38a2.51,2.51,0,0,1,1-3.4h0a2.49,2.49,0,0,1,3.39,1h0a2.49,2.49,0,0,1-1,3.39h0a2.5,2.5,0,0,1-1.21.31h0A2.49,2.49,0,0,1,273.08,335.65Zm8.68-5a2.5,2.5,0,0,1,.75-3.46h0A2.51,2.51,0,0,1,286,328h0a2.5,2.5,0,0,1-.76,3.45h0a2.44,2.44,0,0,1-1.34.4h0A2.51,2.51,0,0,1,281.76,330.68Zm8.32-5.54a2.49,2.49,0,0,1,.53-3.49h0a2.5,2.5,0,0,1,3.5.52h0a2.51,2.51,0,0,1-.53,3.5h0a2.44,2.44,0,0,1-1.48.48h0A2.52,2.52,0,0,1,290.08,325.14Zm8-6.08a2.48,2.48,0,0,1,.29-3.52h0a2.49,2.49,0,0,1,3.52.29h0a2.5,2.5,0,0,1-.29,3.52h0a2.51,2.51,0,0,1-1.62.6h0A2.46,2.46,0,0,1,298,319.06Zm7.52-6.59a2.5,2.5,0,0,1,0-3.54h0a2.5,2.5,0,0,1,3.53.06h0a2.5,2.5,0,0,1-.05,3.54h0a2.49,2.49,0,0,1-1.74.7h0A2.47,2.47,0,0,1,305.55,312.47Zm7.06-7.08a2.5,2.5,0,0,1-.18-3.53h0a2.49,2.49,0,0,1,3.53-.18h0a2.5,2.5,0,0,1,.18,3.53h0a2.5,2.5,0,0,1-1.86.82h0A2.46,2.46,0,0,1,312.61,305.39Zm6.58-7.52a2.5,2.5,0,0,1-.41-3.51h0a2.5,2.5,0,0,1,3.51-.42h0a2.5,2.5,0,0,1,.41,3.51h0a2.47,2.47,0,0,1-2,1h0A2.49,2.49,0,0,1,319.19,297.87Zm6.07-8a2.5,2.5,0,0,1-.65-3.48h0a2.49,2.49,0,0,1,3.48-.64h0a2.49,2.49,0,0,1,.64,3.47h0a2.48,2.48,0,0,1-2.06,1.09h0A2.52,2.52,0,0,1,325.26,289.92Zm5.52-8.34a2.49,2.49,0,0,1-.87-3.42h0a2.5,2.5,0,0,1,3.42-.88h0a2.51,2.51,0,0,1,.88,3.43h0a2.5,2.5,0,0,1-2.16,1.22h0A2.46,2.46,0,0,1,330.78,281.58Zm5-8.68a2.5,2.5,0,0,1-1.1-3.36h0a2.49,2.49,0,0,1,3.36-1.1h0a2.5,2.5,0,0,1,1.1,3.36h0a2.5,2.5,0,0,1-2.24,1.37h0A2.53,2.53,0,0,1,335.74,272.9Zm4.37-9a2.5,2.5,0,0,1-1.33-3.28h0a2.5,2.5,0,0,1,3.28-1.32h0a2.5,2.5,0,0,1,1.32,3.28h0a2.5,2.5,0,0,1-2.3,1.52h0A2.35,2.35,0,0,1,340.11,263.9Zm3.75-9.27a2.49,2.49,0,0,1-1.54-3.18h0a2.49,2.49,0,0,1,3.18-1.54h0a2.5,2.5,0,0,1,1.54,3.18h0a2.51,2.51,0,0,1-2.37,1.68h0A2.31,2.31,0,0,1,343.86,254.63Zm3.12-9.5a2.49,2.49,0,0,1-1.75-3.07h0a2.49,2.49,0,0,1,3.07-1.75h0a2.5,2.5,0,0,1,1.75,3.07h0a2.51,2.51,0,0,1-2.41,1.84h0A2.51,2.51,0,0,1,347,245.13Zm2.47-9.69a2.5,2.5,0,0,1-2-2.94h0a2.5,2.5,0,0,1,3-2h0a2.51,2.51,0,0,1,2,3h0a2.5,2.5,0,0,1-2.45,2h0A2.89,2.89,0,0,1,349.45,235.44Zm1.82-9.83a2.49,2.49,0,0,1-2.14-2.81h0a2.51,2.51,0,0,1,2.81-2.15h0a2.51,2.51,0,0,1,2.15,2.81h0a2.5,2.5,0,0,1-2.47,2.17h0Zm1.16-9.93A2.51,2.51,0,0,1,350.1,213h0a2.5,2.5,0,0,1,2.66-2.32h0a2.5,2.5,0,0,1,2.33,2.65h0a2.5,2.5,0,0,1-2.49,2.34h-.17Zm.5-10a2.5,2.5,0,0,1-2.5-2.5h0a2.49,2.49,0,0,1,2.5-2.49h0a2.5,2.5,0,0,1,2.5,2.49h0a2.49,2.49,0,0,1-2.5,2.49Zm-2.5-2.5Zm-.31-9.83a2.49,2.49,0,0,1,2.33-2.65h0A2.5,2.5,0,0,1,355.1,193h0a2.51,2.51,0,0,1-2.34,2.66h-.16A2.49,2.49,0,0,1,350.12,193.35Zm-1-9.78a2.49,2.49,0,0,1,2.15-2.8h0a2.51,2.51,0,0,1,2.81,2.15h0a2.51,2.51,0,0,1-2.15,2.8h0l-.34,0h0A2.51,2.51,0,0,1,349.15,183.57Zm-1.61-9.69a2.5,2.5,0,0,1,2-3h0a2.51,2.51,0,0,1,3,2h0a2.51,2.51,0,0,1-2,3h0a2.88,2.88,0,0,1-.49,0h0A2.49,2.49,0,0,1,347.54,173.88Zm-2.26-9.57h0a2.51,2.51,0,0,1,1.76-3.07h0A2.51,2.51,0,0,1,350.1,163h0a2.51,2.51,0,0,1-1.76,3.07h0a2.48,2.48,0,0,1-.66.09h0A2.49,2.49,0,0,1,345.28,164.31Zm-2.9-9.39a2.49,2.49,0,0,1,1.54-3.18h0a2.5,2.5,0,0,1,3.18,1.55h0a2.51,2.51,0,0,1-1.54,3.18h0a2.61,2.61,0,0,1-.82.13h0A2.49,2.49,0,0,1,342.38,154.92Zm-3.53-9.18h0a2.51,2.51,0,0,1,1.33-3.28h0a2.5,2.5,0,0,1,3.28,1.33h0a2.49,2.49,0,0,1-1.33,3.27h0a2.42,2.42,0,0,1-1,.2h0A2.5,2.5,0,0,1,338.85,145.74Z"/><path class="cls-1" d="M207.56,389.37a2.5,2.5,0,0,1-2.56-2.44h0a2.49,2.49,0,0,1,2.44-2.55h0a2.49,2.49,0,0,1,2.56,2.44h0a2.51,2.51,0,0,1-2.44,2.56h0Zm-10.14,0h0a2.49,2.49,0,0,1-2.42-2.57h0a2.49,2.49,0,0,1,2.57-2.42h0a2.5,2.5,0,0,1,2.43,2.57h0a2.5,2.5,0,0,1-2.5,2.42h-.08ZM215,386.57a2.5,2.5,0,0,1,2.3-2.69h0a2.51,2.51,0,0,1,2.69,2.3h0a2.52,2.52,0,0,1-2.3,2.69h-.2A2.5,2.5,0,0,1,215,386.57Zm-27.68,2.2a2.51,2.51,0,0,1-2.29-2.7h0a2.5,2.5,0,0,1,2.7-2.28h0a2.5,2.5,0,0,1,2.29,2.7h0a2.51,2.51,0,0,1-2.49,2.29h-.21ZM225,385.66a2.49,2.49,0,0,1,2.15-2.81h0a2.51,2.51,0,0,1,2.81,2.15h0a2.52,2.52,0,0,1-2.16,2.81h0l-.33,0h0A2.5,2.5,0,0,1,225,385.66Zm-47.72,2a2.5,2.5,0,0,1-2.13-2.82h0a2.49,2.49,0,0,1,2.82-2.13h0a2.49,2.49,0,0,1,2.13,2.81h0a2.49,2.49,0,0,1-2.47,2.16h0A2.1,2.1,0,0,1,177.23,387.65Zm57.61-3.44a2.51,2.51,0,0,1,2-2.92h0a2.5,2.5,0,0,1,2.92,2h0a2.5,2.5,0,0,1-2,2.92h0a2.47,2.47,0,0,1-.47,0h0A2.51,2.51,0,0,1,234.84,384.21ZM167.23,386a2.49,2.49,0,0,1-2-2.93h0a2.5,2.5,0,0,1,2.93-2h0a2.51,2.51,0,0,1,2,2.94h0a2.51,2.51,0,0,1-2.46,2h0A2.77,2.77,0,0,1,167.23,386Zm77.41-3.75a2.5,2.5,0,0,1,1.83-3h0a2.49,2.49,0,0,1,3,1.83h0a2.49,2.49,0,0,1-1.83,3h0a2.44,2.44,0,0,1-.59.07h0A2.5,2.5,0,0,1,244.64,382.23Zm-87.3,1.54h0a2.5,2.5,0,0,1-1.81-3h0a2.51,2.51,0,0,1,3-1.82h0a2.51,2.51,0,0,1,1.81,3h0a2.51,2.51,0,0,1-2.42,1.89h0A2.64,2.64,0,0,1,157.34,383.77Zm97-4.06a2.5,2.5,0,0,1,1.66-3.12h0a2.5,2.5,0,0,1,3.12,1.67h0a2.5,2.5,0,0,1-1.67,3.12h0a2.59,2.59,0,0,1-.72.11h0A2.5,2.5,0,0,1,254.32,379.71ZM147.58,381a2.5,2.5,0,0,1-1.64-3.13h0a2.5,2.5,0,0,1,3.13-1.64h0a2.51,2.51,0,0,1,1.65,3.13h0a2.52,2.52,0,0,1-2.39,1.76h0A2.45,2.45,0,0,1,147.58,381Zm116.26-4.35a2.51,2.51,0,0,1,1.49-3.21h0a2.51,2.51,0,0,1,3.21,1.49h0a2.51,2.51,0,0,1-1.49,3.21h0a2.63,2.63,0,0,1-.86.15h0A2.5,2.5,0,0,1,263.84,376.67ZM138,377.74h0a2.5,2.5,0,0,1-1.47-3.21h0a2.5,2.5,0,0,1,3.22-1.47h0a2.5,2.5,0,0,1,1.47,3.21h0a2.5,2.5,0,0,1-2.34,1.63h0A2.47,2.47,0,0,1,138,377.74Zm135.19-4.63a2.52,2.52,0,0,1,1.32-3.29h0a2.51,2.51,0,0,1,3.28,1.32h0a2.49,2.49,0,0,1-1.31,3.28h0a2.45,2.45,0,0,1-1,.2h0A2.5,2.5,0,0,1,273.18,373.11Zm-144.58.83h0a2.48,2.48,0,0,1-1.29-3.29h0a2.49,2.49,0,0,1,3.29-1.29h0a2.51,2.51,0,0,1,1.29,3.29h0a2.5,2.5,0,0,1-2.29,1.5h0A2.5,2.5,0,0,1,128.6,373.94ZM282.32,369a2.5,2.5,0,0,1,1.13-3.35h0a2.51,2.51,0,0,1,3.35,1.13h0a2.5,2.5,0,0,1-1.13,3.35h0a2.46,2.46,0,0,1-1.11.26h0A2.49,2.49,0,0,1,282.32,369Zm-162.9.59a2.5,2.5,0,0,1-1.11-3.35h0a2.5,2.5,0,0,1,3.36-1.11h0a2.5,2.5,0,0,1,1.11,3.35h0a2.49,2.49,0,0,1-2.24,1.38h0A2.38,2.38,0,0,1,119.42,369.63Zm171.8-5.15a2.49,2.49,0,0,1,.94-3.4h0a2.5,2.5,0,0,1,3.41.94h0a2.5,2.5,0,0,1-1,3.41h0a2.47,2.47,0,0,1-1.22.32h0A2.48,2.48,0,0,1,291.22,364.48Zm-180.72.35a2.5,2.5,0,0,1-.93-3.41h0a2.51,2.51,0,0,1,3.41-.93h0a2.51,2.51,0,0,1,.93,3.42h0a2.51,2.51,0,0,1-2.17,1.25h0A2.43,2.43,0,0,1,110.5,364.83Zm189.35-5.39a2.5,2.5,0,0,1,.77-3.45h0a2.51,2.51,0,0,1,3.45.76h0a2.5,2.5,0,0,1-.76,3.45h0a2.49,2.49,0,0,1-1.35.4h0A2.51,2.51,0,0,1,299.85,359.44Zm-198,.11a2.51,2.51,0,0,1-.73-3.46h0a2.49,2.49,0,0,1,3.46-.73h0a2.5,2.5,0,0,1,.73,3.46h0a2.51,2.51,0,0,1-2.1,1.13h0A2.55,2.55,0,0,1,101.84,359.55ZM308.21,354a2.5,2.5,0,0,1,.57-3.49h0a2.5,2.5,0,0,1,3.49.57h0a2.51,2.51,0,0,1-.57,3.49h0a2.51,2.51,0,0,1-1.46.47h0A2.49,2.49,0,0,1,308.21,354Zm-214.72-.14a2.5,2.5,0,0,1-.54-3.49h0a2.49,2.49,0,0,1,3.49-.55h0a2.5,2.5,0,0,1,.55,3.49h0a2.52,2.52,0,0,1-2,1h0A2.53,2.53,0,0,1,93.49,353.81ZM316.25,348a2.49,2.49,0,0,1,.38-3.51h0a2.49,2.49,0,0,1,3.51.38h0a2.49,2.49,0,0,1-.38,3.51h0a2.37,2.37,0,0,1-1.56.55h0A2.47,2.47,0,0,1,316.25,348Zm-230.78-.38h0a2.49,2.49,0,0,1-.36-3.51h0a2.48,2.48,0,0,1,3.51-.36h0a2.49,2.49,0,0,1,.36,3.51h0a2.47,2.47,0,0,1-1.94.92h0A2.46,2.46,0,0,1,85.47,347.62Zm238.49-6a2.5,2.5,0,0,1,.18-3.53h0a2.49,2.49,0,0,1,3.52.19h0a2.49,2.49,0,0,1-.19,3.53h0a2.46,2.46,0,0,1-1.66.64h0A2.48,2.48,0,0,1,324,341.63ZM77.79,341a2.5,2.5,0,0,1-.17-3.53h0a2.5,2.5,0,0,1,3.53-.17h0a2.5,2.5,0,0,1,.17,3.53h0a2.48,2.48,0,0,1-1.85.82h0A2.47,2.47,0,0,1,77.79,341Zm253.52-6.16a2.49,2.49,0,0,1,0-3.53h0a2.49,2.49,0,0,1,3.53,0h0a2.49,2.49,0,0,1,0,3.53h0a2.5,2.5,0,0,1-1.77.74h0A2.46,2.46,0,0,1,331.31,334.85ZM70.47,334a2.5,2.5,0,0,1,0-3.53h0a2.51,2.51,0,0,1,3.54,0h0A2.5,2.5,0,0,1,74,334h0a2.5,2.5,0,0,1-1.76.72h0A2.49,2.49,0,0,1,70.47,334Zm-6.92-7.4h0a2.5,2.5,0,0,1,.22-3.53h0a2.5,2.5,0,0,1,3.53.22h0a2.51,2.51,0,0,1-.22,3.54h0a2.48,2.48,0,0,1-1.66.62h0A2.49,2.49,0,0,1,63.55,326.59ZM57,318.83h0a2.49,2.49,0,0,1,.41-3.51h0a2.5,2.5,0,0,1,3.51.4h0a2.5,2.5,0,0,1-.4,3.51h0a2.47,2.47,0,0,1-1.56.54h0A2.52,2.52,0,0,1,57,318.83ZM51,310.72h0a2.5,2.5,0,0,1,.59-3.48h0a2.5,2.5,0,0,1,3.49.59h0a2.5,2.5,0,0,1-.59,3.48h0a2.44,2.44,0,0,1-1.45.46h0A2.49,2.49,0,0,1,51,310.72Zm-5.63-8.42a2.5,2.5,0,0,1,.78-3.45h0a2.5,2.5,0,0,1,3.45.78h0a2.51,2.51,0,0,1-.78,3.45h0a2.51,2.51,0,0,1-1.33.38h0A2.49,2.49,0,0,1,45.33,302.3Zm-5.17-8.72a2.5,2.5,0,0,1,1-3.4h0a2.5,2.5,0,0,1,3.4,1h0a2.5,2.5,0,0,1-1,3.4h0a2.5,2.5,0,0,1-1.21.31h0A2.5,2.5,0,0,1,40.16,293.58Zm-4.69-9h0a2.5,2.5,0,0,1,1.15-3.34h0A2.5,2.5,0,0,1,40,282.4h0a2.51,2.51,0,0,1-1.15,3.35h0a2.56,2.56,0,0,1-1.1.25h0A2.52,2.52,0,0,1,35.47,284.59Z"/><path class="cls-1" d="M372.87,273.75a2.5,2.5,0,0,1-1.4-3.25h0a2.51,2.51,0,0,1,3.26-1.39h0a2.5,2.5,0,0,1,1.39,3.25h0a2.5,2.5,0,0,1-2.32,1.57h0A2.32,2.32,0,0,1,372.87,273.75Zm3.59-9.33a2.5,2.5,0,0,1-1.57-3.17h0a2.5,2.5,0,0,1,3.17-1.57h0a2.51,2.51,0,0,1,1.57,3.17h0a2.52,2.52,0,0,1-2.37,1.7h0A2.42,2.42,0,0,1,376.46,264.42Zm3.07-9.52a2.5,2.5,0,0,1-1.74-3.08h0a2.5,2.5,0,0,1,3.08-1.73h0a2.49,2.49,0,0,1,1.74,3.08h0A2.5,2.5,0,0,1,380.2,255h0A2.66,2.66,0,0,1,379.53,254.9Zm2.55-9.67a2.49,2.49,0,0,1-1.9-3h0a2.5,2.5,0,0,1,3-1.9h0a2.5,2.5,0,0,1,1.9,3h0a2.49,2.49,0,0,1-2.44,2h0A2.48,2.48,0,0,1,382.08,245.23Zm2-9.79a2.51,2.51,0,0,1-2.07-2.87h0a2.51,2.51,0,0,1,2.87-2.07h0a2.5,2.5,0,0,1,2.07,2.87h0a2.5,2.5,0,0,1-2.47,2.1h0Zm1.48-9.89a2.5,2.5,0,0,1-2.22-2.76h0a2.49,2.49,0,0,1,2.75-2.21h0a2.49,2.49,0,0,1,2.22,2.75h0a2.5,2.5,0,0,1-2.49,2.23h-.26Zm.93-10a2.5,2.5,0,0,1-2.36-2.63h0a2.5,2.5,0,0,1,2.63-2.36h0a2.49,2.49,0,0,1,2.36,2.63h0a2.49,2.49,0,0,1-2.49,2.36h-.14Zm-2.09-12.49a2.5,2.5,0,0,1,2.5-2.5h0a2.49,2.49,0,0,1,2.49,2.5h0a2.49,2.49,0,0,1-2.49,2.5h0A2.5,2.5,0,0,1,384.42,203.1Z"/><path class="cls-1" d="M325.69,69.49a2.5,2.5,0,0,1-.16-3.53h0a2.5,2.5,0,0,1,3.54-.15h0a2.51,2.51,0,0,1,.15,3.53h0a2.49,2.49,0,0,1-1.85.81h0A2.46,2.46,0,0,1,325.69,69.49ZM318.24,63a2.51,2.51,0,0,1-.34-3.52h0a2.5,2.5,0,0,1,3.52-.34h0a2.5,2.5,0,0,1,.34,3.52h0a2.49,2.49,0,0,1-1.93.91h0A2.52,2.52,0,0,1,318.24,63ZM310.46,57a2.49,2.49,0,0,1-.53-3.49h0a2.49,2.49,0,0,1,3.49-.54h0a2.51,2.51,0,0,1,.54,3.5h0a2.49,2.49,0,0,1-2,1h0A2.48,2.48,0,0,1,310.46,57Zm-8.1-5.63a2.5,2.5,0,0,1-.72-3.46h0a2.5,2.5,0,0,1,3.46-.72h0a2.5,2.5,0,0,1,.72,3.46h0a2.5,2.5,0,0,1-2.09,1.13h0A2.46,2.46,0,0,1,302.36,51.33ZM294,46.15h0a2.49,2.49,0,0,1-.91-3.41h0a2.49,2.49,0,0,1,3.42-.91h0a2.5,2.5,0,0,1,.91,3.41h0a2.52,2.52,0,0,1-2.17,1.25h0A2.44,2.44,0,0,1,294,46.15Zm-8.66-4.72a2.5,2.5,0,0,1-1.1-3.36h0A2.5,2.5,0,0,1,287.58,37h0a2.49,2.49,0,0,1,1.09,3.36h0a2.5,2.5,0,0,1-2.23,1.37h0A2.43,2.43,0,0,1,285.31,41.43ZM276.4,37.2h0a2.5,2.5,0,0,1-1.27-3.3h0a2.49,2.49,0,0,1,3.29-1.27h0a2.49,2.49,0,0,1,1.28,3.29h0a2.5,2.5,0,0,1-2.29,1.49h0A2.56,2.56,0,0,1,276.4,37.2ZM129.23,34.69a2.5,2.5,0,0,1,1.33-3.28h0a2.49,2.49,0,0,1,3.27,1.33h0A2.5,2.5,0,0,1,132.5,36h0a2.61,2.61,0,0,1-1,.2h0A2.51,2.51,0,0,1,129.23,34.69Zm138-1.23a2.5,2.5,0,0,1-1.46-3.23h0A2.5,2.5,0,0,1,269,28.78h0A2.49,2.49,0,0,1,270.5,32h0a2.51,2.51,0,0,1-2.34,1.62h0A2.47,2.47,0,0,1,267.28,33.46ZM138.49,30.92a2.5,2.5,0,0,1,1.5-3.2h0a2.5,2.5,0,0,1,3.2,1.5h0a2.5,2.5,0,0,1-1.5,3.21h0a2.54,2.54,0,0,1-.85.14h0A2.5,2.5,0,0,1,138.49,30.92ZM258,30.22a2.5,2.5,0,0,1-1.63-3.14h0a2.5,2.5,0,0,1,3.14-1.63h0a2.51,2.51,0,0,1,1.63,3.14h0a2.52,2.52,0,0,1-2.39,1.75h0A2.45,2.45,0,0,1,258,30.22Zm-110-2.56a2.51,2.51,0,0,1,1.68-3.11h0a2.5,2.5,0,0,1,3.11,1.68h0a2.49,2.49,0,0,1-1.68,3.11h0a2.53,2.53,0,0,1-.71.11h0A2.51,2.51,0,0,1,147.94,27.66Zm100.54-.16a2.51,2.51,0,0,1-1.8-3h0a2.5,2.5,0,0,1,3-1.79h0a2.49,2.49,0,0,1,1.79,3h0a2.5,2.5,0,0,1-2.42,1.88h0A2.66,2.66,0,0,1,248.48,27.5Zm-90.92-2.57a2.51,2.51,0,0,1,1.85-3h0a2.5,2.5,0,0,1,3,1.85h0a2.5,2.5,0,0,1-1.85,3h0a2.86,2.86,0,0,1-.58.07h0A2.5,2.5,0,0,1,157.56,24.93Zm81.31.37h0a2.51,2.51,0,0,1-2-2.94h0a2.51,2.51,0,0,1,3-2h0a2.51,2.51,0,0,1,2,2.94h0a2.48,2.48,0,0,1-2.45,2h0A2.77,2.77,0,0,1,238.87,25.3Zm-71.56-2.57a2.5,2.5,0,0,1,2-2.91h0a2.5,2.5,0,0,1,2.91,2h0a2.5,2.5,0,0,1-2,2.91h0a2.27,2.27,0,0,1-.45,0h0A2.5,2.5,0,0,1,167.31,22.73Zm61.83.89A2.49,2.49,0,0,1,227,20.8h0a2.49,2.49,0,0,1,2.83-2.12h0A2.5,2.5,0,0,1,232,21.51h0a2.51,2.51,0,0,1-2.48,2.14h0Zm-52-2.56a2.5,2.5,0,0,1,2.16-2.79h0a2.5,2.5,0,0,1,2.8,2.16h0a2.51,2.51,0,0,1-2.16,2.8h0l-.32,0h0A2.5,2.5,0,0,1,177.17,21.06Zm42.18,1.43a2.5,2.5,0,0,1-2.27-2.72h0a2.49,2.49,0,0,1,2.71-2.26h0a2.5,2.5,0,0,1,2.27,2.71h0a2.51,2.51,0,0,1-2.49,2.28h-.22ZM187.1,19.94a2.51,2.51,0,0,1,2.32-2.68h0a2.5,2.5,0,0,1,2.67,2.31h0a2.5,2.5,0,0,1-2.31,2.68h-.18A2.51,2.51,0,0,1,187.1,19.94Zm22.4,1.94a2.5,2.5,0,0,1-2.41-2.59h0a2.49,2.49,0,0,1,2.58-2.41h0a2.52,2.52,0,0,1,2.42,2.59h0a2.5,2.5,0,0,1-2.5,2.41h-.09Zm-12.42-2.53a2.52,2.52,0,0,1,2.46-2.55h0a2.49,2.49,0,0,1,2.54,2.45h0a2.5,2.5,0,0,1-2.45,2.55h-.05A2.51,2.51,0,0,1,197.08,19.35Z"/><path class="cls-1" d="M16.76,203.1a2.49,2.49,0,0,1,2.49-2.5h0a2.5,2.5,0,0,1,2.51,2.5h0a2.5,2.5,0,0,1-2.51,2.5h0A2.49,2.49,0,0,1,16.76,203.1Zm2.63-7.5A2.5,2.5,0,0,1,17,193h0a2.49,2.49,0,0,1,2.63-2.36h0A2.5,2.5,0,0,1,22,193.23h0a2.5,2.5,0,0,1-2.5,2.37h-.13Zm.67-10a2.49,2.49,0,0,1-2.22-2.75h0a2.5,2.5,0,0,1,2.76-2.22h0a2.49,2.49,0,0,1,2.21,2.75h0a2.51,2.51,0,0,1-2.48,2.24h0Zm1.21-9.93a2.5,2.5,0,0,1-2.07-2.87h0a2.49,2.49,0,0,1,2.87-2.06h0a2.5,2.5,0,0,1,2.07,2.87h0a2.5,2.5,0,0,1-2.46,2.1h0A1.79,1.79,0,0,1,21.27,175.69ZM23,165.85a2.51,2.51,0,0,1-1.91-3h0a2.5,2.5,0,0,1,3-1.91h0a2.5,2.5,0,0,1,1.9,3h0a2.5,2.5,0,0,1-2.44,2h0A2.46,2.46,0,0,1,23,165.85Zm2.28-9.74A2.5,2.5,0,0,1,23.56,153h0a2.5,2.5,0,0,1,3.08-1.74h0a2.51,2.51,0,0,1,1.74,3.08h0A2.51,2.51,0,0,1,26,156.2h0A2.58,2.58,0,0,1,25.3,156.11Zm2.81-9.6a2.5,2.5,0,0,1-1.57-3.17h0a2.5,2.5,0,0,1,3.17-1.56h0A2.5,2.5,0,0,1,31.28,145h0a2.5,2.5,0,0,1-2.37,1.69h0A2.48,2.48,0,0,1,28.11,146.51Zm3.33-9.42a2.51,2.51,0,0,1-1.39-3.26h0a2.51,2.51,0,0,1,3.25-1.39h0a2.5,2.5,0,0,1,1.4,3.25h0a2.5,2.5,0,0,1-2.32,1.58h0A2.8,2.8,0,0,1,31.44,137.09Zm3.85-9.24a2.5,2.5,0,0,1-1.21-3.32h0a2.5,2.5,0,0,1,3.32-1.21h0a2.49,2.49,0,0,1,1.21,3.32h0a2.5,2.5,0,0,1-2.27,1.45h0A2.48,2.48,0,0,1,35.29,127.85Zm4.35-9a2.51,2.51,0,0,1-1-3.39h0a2.5,2.5,0,0,1,3.38-1h0a2.51,2.51,0,0,1,1,3.39h0a2.51,2.51,0,0,1-2.21,1.32h0A2.57,2.57,0,0,1,39.64,118.85Zm4.83-8.76a2.51,2.51,0,0,1-.85-3.43h0a2.51,2.51,0,0,1,3.44-.85h0a2.5,2.5,0,0,1,.84,3.44h0a2.51,2.51,0,0,1-2.14,1.2h0A2.52,2.52,0,0,1,44.47,110.09Zm5.29-8.48a2.49,2.49,0,0,1-.65-3.47h0a2.49,2.49,0,0,1,3.47-.66h0a2.49,2.49,0,0,1,.66,3.47h0A2.51,2.51,0,0,1,51.17,102h0A2.55,2.55,0,0,1,49.76,101.61Zm5.76-8.18a2.5,2.5,0,0,1-.47-3.51h0a2.51,2.51,0,0,1,3.51-.46h0A2.5,2.5,0,0,1,59,93h0a2.51,2.51,0,0,1-2,1h0A2.44,2.44,0,0,1,55.52,93.43Zm6.18-7.86a2.49,2.49,0,0,1-.27-3.52h0A2.49,2.49,0,0,1,65,81.77h0a2.51,2.51,0,0,1,.28,3.53h0a2.53,2.53,0,0,1-1.9.87h0A2.51,2.51,0,0,1,61.7,85.57Zm6.6-7.51a2.5,2.5,0,0,1-.08-3.53h0a2.5,2.5,0,0,1,3.53-.09h0A2.51,2.51,0,0,1,71.84,78h0a2.51,2.51,0,0,1-1.81.77h0A2.52,2.52,0,0,1,68.3,78.06Z"/><path class="cls-1" d="M59.47,346.71a2.5,2.5,0,0,1,0-3.53h0a2.5,2.5,0,0,1,3.54,0h0a2.49,2.49,0,0,1,0,3.53h0a2.5,2.5,0,0,1-1.77.74h0A2.5,2.5,0,0,1,59.47,346.71Zm-7-7.33a2.5,2.5,0,0,1,.18-3.53h0a2.5,2.5,0,0,1,3.53.17h0a2.49,2.49,0,0,1-.18,3.53h0a2.45,2.45,0,0,1-1.67.65h0A2.54,2.54,0,0,1,52.49,339.38Zm-6.61-7.67h0a2.49,2.49,0,0,1,.35-3.52h0a2.51,2.51,0,0,1,3.52.35h0a2.51,2.51,0,0,1-.35,3.52h0a2.52,2.52,0,0,1-1.59.57h0A2.53,2.53,0,0,1,45.88,331.71Zm-6.21-8h0a2.49,2.49,0,0,1,.52-3.49h0a2.5,2.5,0,0,1,3.5.52h0a2.49,2.49,0,0,1-.53,3.49h0a2.39,2.39,0,0,1-1.48.49h0A2.49,2.49,0,0,1,39.67,323.72Zm-5.82-8.29a2.5,2.5,0,0,1,.7-3.46h0a2.49,2.49,0,0,1,3.47.7h0a2.5,2.5,0,0,1-.7,3.46h0a2.54,2.54,0,0,1-1.38.42h0A2.5,2.5,0,0,1,33.85,315.43Zm-5.39-8.56a2.5,2.5,0,0,1,.87-3.43h0a2.5,2.5,0,0,1,3.43.87h0a2.52,2.52,0,0,1-.87,3.43h0a2.5,2.5,0,0,1-1.28.35h0A2.52,2.52,0,0,1,28.46,306.87Zm-5-8.83h0a2.5,2.5,0,0,1,1-3.38h0a2.51,2.51,0,0,1,3.38,1h0a2.5,2.5,0,0,1-1,3.38h0a2.5,2.5,0,0,1-1.17.29h0A2.49,2.49,0,0,1,23.5,298ZM19,289a2.5,2.5,0,0,1,1.21-3.32h0a2.49,2.49,0,0,1,3.32,1.2h0a2.5,2.5,0,0,1-1.2,3.33h0a2.47,2.47,0,0,1-1.06.23h0A2.51,2.51,0,0,1,19,289Zm-4-9.27h0a2.5,2.5,0,0,1,1.37-3.26h0a2.5,2.5,0,0,1,3.26,1.37h0a2.5,2.5,0,0,1-1.37,3.26h0a2.61,2.61,0,0,1-.94.18h0A2.5,2.5,0,0,1,14.93,279.71Zm-3.59-9.47a2.52,2.52,0,0,1,1.54-3.19h0a2.49,2.49,0,0,1,3.18,1.54h0a2.51,2.51,0,0,1-1.54,3.18h0a2.36,2.36,0,0,1-.82.14h0A2.51,2.51,0,0,1,11.34,270.24Zm-3.1-9.64a2.5,2.5,0,0,1,1.69-3.1h0A2.5,2.5,0,0,1,13,259.19h0a2.5,2.5,0,0,1-1.7,3.1h0a2.43,2.43,0,0,1-.7.11h0A2.51,2.51,0,0,1,8.24,260.6Zm-2.62-9.78a2.5,2.5,0,0,1,1.85-3h0a2.5,2.5,0,0,1,3,1.84h0a2.51,2.51,0,0,1-1.85,3h0a3,3,0,0,1-.59.07h0A2.5,2.5,0,0,1,5.62,250.82Zm-2.12-9.9a2.51,2.51,0,0,1,2-2.92h0a2.51,2.51,0,0,1,2.92,2h0a2.51,2.51,0,0,1-2,2.92h0A2.35,2.35,0,0,1,6,243H6A2.51,2.51,0,0,1,3.5,240.92Zm-1.62-10h0A2.5,2.5,0,0,1,4,228.11H4a2.51,2.51,0,0,1,2.81,2.14h0a2.5,2.5,0,0,1-2.14,2.82h0l-.34,0h0A2.5,2.5,0,0,1,1.88,230.93ZM.75,220.87h0A2.5,2.5,0,0,1,3,218.16H3a2.5,2.5,0,0,1,2.7,2.28h0a2.5,2.5,0,0,1-2.27,2.7H3.24A2.51,2.51,0,0,1,.75,220.87Zm-.62-10.1a2.49,2.49,0,0,1,2.4-2.59h0a2.49,2.49,0,0,1,2.59,2.4h0a2.49,2.49,0,0,1-2.4,2.59h-.1A2.5,2.5,0,0,1,.13,210.77Zm2.34-7.6A2.5,2.5,0,0,1,0,200.64H0a2.51,2.51,0,0,1,2.53-2.47h0A2.5,2.5,0,0,1,5,200.7H5a2.49,2.49,0,0,1-2.5,2.47h0Zm.24-10a2.5,2.5,0,0,1-2.34-2.65h0A2.49,2.49,0,0,1,3,188.19H3a2.5,2.5,0,0,1,2.35,2.65h0a2.5,2.5,0,0,1-2.49,2.34H2.71Zm.73-10a2.49,2.49,0,0,1-2.2-2.76h0A2.49,2.49,0,0,1,4,178.23H4A2.51,2.51,0,0,1,6.21,181h0a2.5,2.5,0,0,1-2.48,2.22h0Zm1.23-9.92a2.51,2.51,0,0,1-2.07-2.87h0a2.51,2.51,0,0,1,2.87-2.07h0a2.51,2.51,0,0,1,2.07,2.87h0a2.5,2.5,0,0,1-2.47,2.1h0A2.63,2.63,0,0,1,4.67,173.28Zm1.72-9.85a2.5,2.5,0,0,1-1.92-3h0a2.49,2.49,0,0,1,3-1.92h0a2.5,2.5,0,0,1,1.93,3h0a2.51,2.51,0,0,1-2.45,2h0A2.36,2.36,0,0,1,6.39,163.43Zm2.21-9.75a2.51,2.51,0,0,1-1.77-3.06h0a2.51,2.51,0,0,1,3.06-1.78h0a2.5,2.5,0,0,1,1.77,3.06h0a2.5,2.5,0,0,1-2.41,1.86h0A2.9,2.9,0,0,1,8.6,153.68Zm2.7-9.63a2.5,2.5,0,0,1-1.61-3.15h0a2.49,2.49,0,0,1,3.14-1.61h0a2.49,2.49,0,0,1,1.61,3.14h0a2.5,2.5,0,0,1-2.38,1.74h0A2.51,2.51,0,0,1,11.3,144.05Zm3.18-9.48A2.52,2.52,0,0,1,13,131.34h0a2.5,2.5,0,0,1,3.23-1.45h0a2.5,2.5,0,0,1,1.45,3.22h0a2.51,2.51,0,0,1-2.34,1.62h0A2.48,2.48,0,0,1,14.48,134.57Z"/><path class="cls-1" d="M208.16,403.65a2.5,2.5,0,0,1,2.41-2.59h0a2.5,2.5,0,0,1,2.59,2.41h0a2.5,2.5,0,0,1-2.4,2.58h-.1A2.5,2.5,0,0,1,208.16,403.65Zm10-.49a2.5,2.5,0,0,1,2.27-2.71h0a2.5,2.5,0,0,1,2.71,2.27h0a2.5,2.5,0,0,1-2.27,2.71h-.22A2.49,2.49,0,0,1,218.15,403.16Zm10-1a2.5,2.5,0,0,1,2.14-2.82h0a2.49,2.49,0,0,1,2.81,2.14h0a2.48,2.48,0,0,1-2.13,2.81h0l-.34,0h0A2.5,2.5,0,0,1,228.1,402.17Zm9.89-1.48a2.5,2.5,0,0,1,2-2.92h0a2.5,2.5,0,0,1,2.93,2h0a2.5,2.5,0,0,1-2,2.92h0a2.51,2.51,0,0,1-.46,0h0A2.49,2.49,0,0,1,238,400.69Zm9.8-2a2.5,2.5,0,0,1,1.85-3h0a2.49,2.49,0,0,1,3,1.84h0a2.5,2.5,0,0,1-1.84,3h0a2.39,2.39,0,0,1-.59.07h0A2.51,2.51,0,0,1,247.79,398.71Zm9.69-2.46a2.51,2.51,0,0,1,1.69-3.11h0a2.5,2.5,0,0,1,3.11,1.7h0a2.5,2.5,0,0,1-1.69,3.1h0a2.49,2.49,0,0,1-.71.11h0A2.51,2.51,0,0,1,257.48,396.25ZM267,393.3a2.49,2.49,0,0,1,1.53-3.18h0a2.51,2.51,0,0,1,3.19,1.53h0a2.5,2.5,0,0,1-1.54,3.19h0a2.63,2.63,0,0,1-.82.14h0A2.51,2.51,0,0,1,267,393.3Zm9.4-3.42a2.49,2.49,0,0,1,1.37-3.26h0a2.51,2.51,0,0,1,3.26,1.37h0a2.51,2.51,0,0,1-1.38,3.26h0a2.38,2.38,0,0,1-.94.19h0A2.5,2.5,0,0,1,276.44,389.88Zm9.21-3.89a2.49,2.49,0,0,1,1.2-3.32h0a2.5,2.5,0,0,1,3.33,1.21h0A2.51,2.51,0,0,1,289,387.2h0a2.47,2.47,0,0,1-1.06.23h0A2.48,2.48,0,0,1,285.65,386Zm9-4.34a2.5,2.5,0,0,1,1-3.38h0a2.49,2.49,0,0,1,3.38,1h0a2.52,2.52,0,0,1-1,3.39h0a2.55,2.55,0,0,1-1.17.28h0A2.51,2.51,0,0,1,294.65,381.65Zm8.78-4.8a2.49,2.49,0,0,1,.87-3.42h0a2.49,2.49,0,0,1,3.42.87h0a2.49,2.49,0,0,1-.87,3.42h0a2.47,2.47,0,0,1-1.27.35h0A2.49,2.49,0,0,1,303.43,376.85Zm8.52-5.22a2.5,2.5,0,0,1,.7-3.46h0a2.5,2.5,0,0,1,3.47.69h0a2.51,2.51,0,0,1-.7,3.47h0a2.5,2.5,0,0,1-1.38.42h0A2.51,2.51,0,0,1,312,371.63Zm8.26-5.64a2.5,2.5,0,0,1,.53-3.5h0a2.49,2.49,0,0,1,3.49.53h0a2.51,2.51,0,0,1-.52,3.5h0a2.5,2.5,0,0,1-1.49.49h0A2.5,2.5,0,0,1,320.21,366Zm8-6a2.49,2.49,0,0,1,.35-3.52h0a2.5,2.5,0,0,1,3.52.35h0a2.52,2.52,0,0,1-.35,3.52h0a2.51,2.51,0,0,1-1.59.56h0A2.48,2.48,0,0,1,328.18,360Zm7.65-6.44A2.5,2.5,0,0,1,336,350h0a2.5,2.5,0,0,1,3.53.18h0a2.5,2.5,0,0,1-.17,3.53h0a2.52,2.52,0,0,1-1.68.65h0A2.49,2.49,0,0,1,335.83,353.51Zm7.33-6.8a2.49,2.49,0,0,1,0-3.53h0a2.5,2.5,0,0,1,3.54,0h0a2.5,2.5,0,0,1,0,3.53h0a2.5,2.5,0,0,1-1.77.74h0A2.5,2.5,0,0,1,343.16,346.71Z"/><path class="cls-1" d="M401.05,195.61a2.49,2.49,0,0,1,2.4-2.59h0a2.5,2.5,0,0,1,2.59,2.41h0a2.5,2.5,0,0,1-2.41,2.59h-.09A2.5,2.5,0,0,1,401.05,195.61Zm-.61-9.85a2.5,2.5,0,0,1,2.27-2.71h0a2.5,2.5,0,0,1,2.71,2.27h0a2.5,2.5,0,0,1-2.27,2.71h-.22A2.49,2.49,0,0,1,400.44,185.76Zm-1.1-9.82h0a2.49,2.49,0,0,1,2.14-2.81h0a2.49,2.49,0,0,1,2.81,2.14h0a2.5,2.5,0,0,1-2.13,2.82h0a2,2,0,0,1-.35,0h0A2.49,2.49,0,0,1,399.34,175.94Zm-1.58-9.74a2.49,2.49,0,0,1,2-2.92h0a2.49,2.49,0,0,1,2.92,2h0a2.51,2.51,0,0,1-2,2.92h0a2.35,2.35,0,0,1-.46,0h0A2.48,2.48,0,0,1,397.76,166.2Zm-2.08-9.66a2.5,2.5,0,0,1,1.85-3h0a2.51,2.51,0,0,1,3,1.84h0a2.52,2.52,0,0,1-1.85,3h0a2.39,2.39,0,0,1-.59.07h0A2.5,2.5,0,0,1,395.68,156.54ZM393.13,147h0a2.5,2.5,0,0,1,1.69-3.11h0a2.51,2.51,0,0,1,3.11,1.69h0a2.51,2.51,0,0,1-1.69,3.11h0a2.52,2.52,0,0,1-.71.1h0A2.51,2.51,0,0,1,393.13,147Zm-3-9.4a2.49,2.49,0,0,1,1.53-3.19h0a2.5,2.5,0,0,1,3.18,1.54h0a2.49,2.49,0,0,1-1.53,3.18h0a2.38,2.38,0,0,1-.83.14h0A2.49,2.49,0,0,1,390.11,137.61Zm-3.5-9.23a2.5,2.5,0,0,1,1.37-3.26h0a2.5,2.5,0,0,1,3.26,1.37h0a2.5,2.5,0,0,1-1.37,3.26h0a2.62,2.62,0,0,1-1,.18h0A2.5,2.5,0,0,1,386.61,128.38Zm-4-9.05a2.49,2.49,0,0,1,1.2-3.32h0a2.5,2.5,0,0,1,3.33,1.2h0a2.51,2.51,0,0,1-1.21,3.32h0a2.53,2.53,0,0,1-1.06.23h0A2.48,2.48,0,0,1,382.66,119.33Zm-4.41-8.84h0a2.51,2.51,0,0,1,1-3.38h0a2.51,2.51,0,0,1,3.38,1h0a2.5,2.5,0,0,1-1,3.38h0a2.44,2.44,0,0,1-1.17.29h0A2.5,2.5,0,0,1,378.25,110.49Zm-4.84-8.61a2.5,2.5,0,0,1,.87-3.42h0a2.5,2.5,0,0,1,3.43.87h0a2.49,2.49,0,0,1-.87,3.42h0a2.48,2.48,0,0,1-1.28.36h0A2.5,2.5,0,0,1,373.41,101.88Zm-5.26-8.35h0a2.51,2.51,0,0,1,.7-3.47h0a2.5,2.5,0,0,1,3.46.7h0a2.5,2.5,0,0,1-.69,3.47h0a2.52,2.52,0,0,1-1.38.41h0A2.51,2.51,0,0,1,368.15,93.53Zm-5.67-8.08A2.51,2.51,0,0,1,363,82h0a2.49,2.49,0,0,1,3.49.52h0A2.5,2.5,0,0,1,366,86h0a2.51,2.51,0,0,1-1.49.49h0A2.5,2.5,0,0,1,362.48,85.45Zm-6.06-7.8h0a2.5,2.5,0,0,1,.35-3.51h0a2.49,2.49,0,0,1,3.52.35h0a2.48,2.48,0,0,1-.35,3.51h0a2.47,2.47,0,0,1-1.58.57h0A2.47,2.47,0,0,1,356.42,77.65ZM350,70.17a2.49,2.49,0,0,1,.18-3.53h0a2.49,2.49,0,0,1,3.53.18h0a2.5,2.5,0,0,1-.18,3.53h0a2.52,2.52,0,0,1-1.68.65h0A2.47,2.47,0,0,1,350,70.17ZM343.16,63a2.52,2.52,0,0,1,0-3.54h0a2.52,2.52,0,0,1,3.54,0h0a2.5,2.5,0,0,1,0,3.54h0a2.49,2.49,0,0,1-1.77.73h0A2.49,2.49,0,0,1,343.16,63Z"/><path class="cls-1" d="M122.7,19.24A2.5,2.5,0,0,1,124,16h0a2.49,2.49,0,0,1,3.27,1.33h0A2.49,2.49,0,0,1,126,20.56h0a2.43,2.43,0,0,1-1,.2h0A2.5,2.5,0,0,1,122.7,19.24Zm157.14,1.17a2.5,2.5,0,0,1-1.34-3.27h0a2.5,2.5,0,0,1,3.28-1.33h0a2.49,2.49,0,0,1,1.33,3.27h0a2.49,2.49,0,0,1-2.3,1.53h0A2.36,2.36,0,0,1,279.84,20.41ZM132,15.46a2.49,2.49,0,0,1,1.49-3.21h0a2.49,2.49,0,0,1,3.2,1.49h0A2.5,2.5,0,0,1,135.16,17h0a2.52,2.52,0,0,1-.85.15h0A2.51,2.51,0,0,1,132,15.46Zm138.68,1.35a2.49,2.49,0,0,1-1.49-3.2h0a2.48,2.48,0,0,1,3.2-1.49h0a2.48,2.48,0,0,1,1.49,3.2h0A2.48,2.48,0,0,1,271.5,17h0A2.33,2.33,0,0,1,270.64,16.81ZM141.39,12.15A2.5,2.5,0,0,1,143,9h0a2.5,2.5,0,0,1,3.13,1.65h0a2.5,2.5,0,0,1-1.65,3.13h0a2.73,2.73,0,0,1-.74.11h0A2.51,2.51,0,0,1,141.39,12.15Zm119.89,1.53a2.49,2.49,0,0,1-1.65-3.12h0a2.5,2.5,0,0,1,3.12-1.66h0A2.51,2.51,0,0,1,264.41,12h0a2.52,2.52,0,0,1-2.4,1.76h0A2.35,2.35,0,0,1,261.28,13.68ZM151,9.31a2.49,2.49,0,0,1,1.81-3h0a2.49,2.49,0,0,1,3,1.8h0a2.5,2.5,0,0,1-1.81,3h0a2.58,2.58,0,0,1-.62.08h0A2.5,2.5,0,0,1,151,9.31ZM251.77,11A2.49,2.49,0,0,1,250,8h0a2.5,2.5,0,0,1,3-1.81h0a2.49,2.49,0,0,1,1.81,3h0a2.5,2.5,0,0,1-2.42,1.89h0A2.22,2.22,0,0,1,251.77,11ZM160.7,7a2.5,2.5,0,0,1,2-2.94h0a2.51,2.51,0,0,1,3,2h0a2.5,2.5,0,0,1-2,2.94h0a2.8,2.8,0,0,1-.5.05h0A2.51,2.51,0,0,1,160.7,7Zm81.44,1.89a2.51,2.51,0,0,1-2-3h0a2.5,2.5,0,0,1,2.94-2h0a2.48,2.48,0,0,1,2,2.93h0a2.5,2.5,0,0,1-2.45,2h0A2.79,2.79,0,0,1,242.14,8.85ZM170.53,5.11a2.49,2.49,0,0,1,2.1-2.84h0a2.49,2.49,0,0,1,2.84,2.1h0a2.49,2.49,0,0,1-2.1,2.84h0a2.25,2.25,0,0,1-.37,0h0A2.5,2.5,0,0,1,170.53,5.11Zm61.88,2a2.5,2.5,0,0,1-2.1-2.84h0a2.49,2.49,0,0,1,2.84-2.1h0a2.49,2.49,0,0,1,2.1,2.84h0a2.49,2.49,0,0,1-2.46,2.13h0A2.49,2.49,0,0,1,232.41,7.15Zm-52-3.4A2.51,2.51,0,0,1,182.67,1h0a2.49,2.49,0,0,1,2.74,2.24h0A2.51,2.51,0,0,1,183.17,6h0l-.25,0h0A2.51,2.51,0,0,1,180.43,3.75ZM222.61,6a2.51,2.51,0,0,1-2.24-2.73h0A2.5,2.5,0,0,1,223.1,1h0a2.51,2.51,0,0,1,2.25,2.73h0A2.5,2.5,0,0,1,222.86,6h-.25ZM190.4,2.88A2.5,2.5,0,0,1,192.77.25h0a2.51,2.51,0,0,1,2.62,2.38h0A2.5,2.5,0,0,1,193,5.25h-.13A2.49,2.49,0,0,1,190.4,2.88Zm22.36,2.35a2.5,2.5,0,0,1-2.37-2.62h0A2.5,2.5,0,0,1,213,.23h0a2.5,2.5,0,0,1,2.37,2.62h0a2.5,2.5,0,0,1-2.5,2.38h-.12ZM200.39,2.5A2.49,2.49,0,0,1,202.88,0h0a2.5,2.5,0,0,1,2.51,2.49h0A2.51,2.51,0,0,1,202.89,5h0A2.5,2.5,0,0,1,200.39,2.5Z"/></g></g></svg>