<svg xmlns="http://www.w3.org/2000/svg" viewBox="0 0 355.75 411.96"><defs><style>.cls-1{fill:#4CAF50;}</style></defs><title>discussion</title><g id="Layer_2" data-name="Layer 2"><g id="Layer_1-2" data-name="Layer 1"><path class="cls-1" d="M254,115.69H245.8a2.5,2.5,0,0,1,0-5H254a9.51,9.51,0,0,0,9.5-9.5V65.5A9.51,9.51,0,0,0,254,56H162.76a9.51,9.51,0,0,0-9.5,9.5v35.69a9.51,9.51,0,0,0,9.5,9.5H219a2.5,2.5,0,0,1,0,5H162.76a14.52,14.52,0,0,1-14.5-14.5V65.5A14.52,14.52,0,0,1,162.76,51H254a14.52,14.52,0,0,1,14.5,14.5v35.69A14.52,14.52,0,0,1,254,115.69Z"/><path class="cls-1" d="M185.06,212.81H127.78a14.52,14.52,0,0,1-14.5-14.5v-1.37a2.5,2.5,0,0,1,5,0v1.37a9.51,9.51,0,0,0,9.5,9.5h57.27a9.51,9.51,0,0,0,9.5-9.5V180.23a9.51,9.51,0,0,0-9.5-9.5H127.78a9.49,9.49,0,0,0-9.44,8.47,4,4,0,0,1-.07.46,2.53,2.53,0,0,1-2.48,2.24,2.47,2.47,0,0,1-2.5-2.46,3.27,3.27,0,0,1,.1-.91,14.49,14.49,0,0,1,14.4-12.79h57.27a14.52,14.52,0,0,1,14.5,14.5v18.08A14.52,14.52,0,0,1,185.06,212.81Zm-71.33-35h0Z"/><path class="cls-1" d="M115.78,199.44a2.49,2.49,0,0,1-1.77-.73L96.51,181.2a2.5,2.5,0,0,1,1.77-4.27h17.51a2.5,2.5,0,0,1,0,5H104.31l13.24,13.24a2.5,2.5,0,0,1-1.77,4.27Z"/><path class="cls-1" d="M245.8,142.53a2.5,2.5,0,0,1-1.77-.73L217.2,115a2.5,2.5,0,1,1,3.54-3.54L243.3,134v-20.8a2.5,2.5,0,1,1,5,0V140a2.5,2.5,0,0,1-2.5,2.5Z"/><path class="cls-1" d="M176.12,93.31a10,10,0,1,1,10-10A10,10,0,0,1,176.12,93.31Zm0-14.93a5,5,0,1,0,5,5A5,5,0,0,0,176.12,78.38Z"/><path class="cls-1" d="M208.4,93.31a10,10,0,1,1,10-10A10,10,0,0,1,208.4,93.31Zm0-14.93a5,5,0,1,0,5,5A5,5,0,0,0,208.4,78.38Z"/><path class="cls-1" d="M241.24,93.31a10,10,0,1,1,10-10A10,10,0,0,1,241.24,93.31Zm0-14.93a5,5,0,1,0,5,5A5,5,0,0,0,241.24,78.38Z"/><path class="cls-1" d="M172.66,181.43H127.9a2.5,2.5,0,0,1,0-5h44.76a2.5,2.5,0,0,1,0,5Z"/><path class="cls-1" d="M150.28,192.25H127.9a2.5,2.5,0,0,1,0-5h22.38a2.5,2.5,0,0,1,0,5Z"/><path class="cls-1" d="M160.34,203.06H127.9a2.5,2.5,0,0,1,0-5h32.44a2.5,2.5,0,0,1,0,5Z"/><path class="cls-1" d="M53.37,186.48a36.69,36.69,0,1,1,36.69-36.69A36.73,36.73,0,0,1,53.37,186.48Zm0-68.37a31.69,31.69,0,1,0,31.69,31.69A31.72,31.72,0,0,0,53.37,118.1Z"/><path class="cls-1" d="M88.71,296a2.5,2.5,0,0,1-2.5-2.5V259.77a2.5,2.5,0,0,1,5,0v33.76A2.5,2.5,0,0,1,88.71,296Z"/><path class="cls-1" d="M126.38,378.5a2.5,2.5,0,0,1-2.5-2.5V305.53a9.51,9.51,0,0,0-9.5-9.5H88.71a2.5,2.5,0,0,1,0-5h25.68a14.52,14.52,0,0,1,14.5,14.5V376A2.5,2.5,0,0,1,126.38,378.5Z"/><path class="cls-1" d="M125,401.78H96.8a2.5,2.5,0,0,1,0-5H125a2.5,2.5,0,0,1,0,5Z"/><path class="cls-1" d="M16.15,310.22a2.5,2.5,0,0,1-2.5-2.48c0-3.37,0-8.62.11-14.19.06-4.85.12-9.86.12-13.55V200.7H5v15.61a2.5,2.5,0,0,1-5,0V198.2a2.5,2.5,0,0,1,2.5-2.5H16.38a2.5,2.5,0,0,1,2.5,2.5V280c0,3.72-.06,8.75-.12,13.61-.07,5.54-.13,10.77-.11,14.09a2.5,2.5,0,0,1-2.48,2.52Z"/><path class="cls-1" d="M96.8,401.78a2.5,2.5,0,0,1-2.5-2.5V326H34.87a49.25,49.25,0,0,1-9.42-.82,2.5,2.5,0,1,1,1.18-4.86,45.43,45.43,0,0,0,8.24.68H96.8a2.5,2.5,0,0,1,2.5,2.5v75.78A2.5,2.5,0,0,1,96.8,401.78Z"/><path class="cls-1" d="M162.42,261.66h-109a2.5,2.5,0,0,1-2.5-2.5V228.44a2.5,2.5,0,0,1,5,0v28.22H162.42a2.5,2.5,0,1,1,0,5Z"/><path class="cls-1" d="M139.45,260.58a2.5,2.5,0,0,1-2.5-2.5V244c0-5.15-3.19-9.5-7-9.5H88.71a2.5,2.5,0,0,1,0-5H130c6.6,0,12,6.5,12,14.5v14A2.5,2.5,0,0,1,139.45,260.58Z"/><path class="cls-1" d="M26,314.68a2.5,2.5,0,0,1-2.5-2.5V230.42c0-20.44,12.63-34.72,30.72-34.72h2.22a34.76,34.76,0,0,1,34.72,34.72V232a2.5,2.5,0,0,1-5,0v-1.62A29.75,29.75,0,0,0,56.49,200.7H54.26c-15.14,0-25.72,12.22-25.72,29.72v81.76A2.5,2.5,0,0,1,26,314.68Z"/><path class="cls-1" d="M140.09,401.78h-15.6a2.5,2.5,0,1,1,0-5h15.6a9.14,9.14,0,1,0,0-18.28H126.38a2.5,2.5,0,0,1,0-5h13.71a14.14,14.14,0,1,1,0,28.28Z"/><path class="cls-1" d="M255.26,271.44H99a2.5,2.5,0,0,1,0-5H255.26a2.5,2.5,0,1,1,0,5Z"/><path class="cls-1" d="M137.66,369.87h0a2.5,2.5,0,0,1-2.49-2.51l.24-62a20.74,20.74,0,0,0-20.72-20.71h-26a2.5,2.5,0,0,1,0-5h26A25.75,25.75,0,0,1,140.4,305.4l-.24,62A2.5,2.5,0,0,1,137.66,369.87Z"/><path class="cls-1" d="M152,393.15a2.5,2.5,0,0,1,0-5,9.14,9.14,0,1,0,0-18.28H137.66a2.5,2.5,0,0,1,0-5H152a14.14,14.14,0,1,1,0,28.28Z"/><path class="cls-1" d="M301.35,186.48A36.69,36.69,0,1,1,338,149.79,36.73,36.73,0,0,1,301.35,186.48Zm0-68.37A31.69,31.69,0,1,0,333,149.79,31.72,31.72,0,0,0,301.35,118.1Z"/><path class="cls-1" d="M266,296a2.5,2.5,0,0,1-2.5-2.5V259.77a2.5,2.5,0,0,1,5,0v33.76A2.5,2.5,0,0,1,266,296Z"/><path class="cls-1" d="M228.34,378.5a2.5,2.5,0,0,1-2.5-2.5V305.53a14.52,14.52,0,0,1,14.5-14.5H266a2.5,2.5,0,0,1,0,5H240.34a9.51,9.51,0,0,0-9.5,9.5V376A2.5,2.5,0,0,1,228.34,378.5Z"/><path class="cls-1" d="M257.93,401.78H229.69a2.5,2.5,0,1,1,0-5h28.24a2.5,2.5,0,0,1,0,5Z"/><path class="cls-1" d="M339.69,300.41a2.5,2.5,0,0,1-2.5-2.49c0-2.5-.08-5.13-.16-7.9-.09-3.22-.18-6.56-.18-10V198.2a2.5,2.5,0,0,1,2.5-2.5h13.9a2.5,2.5,0,0,1,2.5,2.5v16.5a2.5,2.5,0,1,1-5,0v-14h-8.9V280c0,3.39.09,6.68.18,9.87.08,2.81.15,5.46.16,8a2.5,2.5,0,0,1-2.49,2.51Z"/><path class="cls-1" d="M257.93,401.78a2.5,2.5,0,0,1-2.5-2.5V323.5a2.5,2.5,0,0,1,2.5-2.5h61.92a25.69,25.69,0,0,0,8.26-1.16,2.5,2.5,0,0,1,1.63,4.73,30.18,30.18,0,0,1-9.89,1.43H260.43v73.28A2.5,2.5,0,0,1,257.93,401.78Z"/><path class="cls-1" d="M301.35,261.66H162.42a2.5,2.5,0,0,1,0-5H298.85V228.44a2.5,2.5,0,0,1,5,0v30.72A2.5,2.5,0,0,1,301.35,261.66Z"/><path class="cls-1" d="M215.28,260.58a2.5,2.5,0,0,1-2.5-2.5V244c0-8,5.37-14.5,12-14.5H266a2.5,2.5,0,0,1,0,5H224.74c-3.77,0-7,4.35-7,9.5v14A2.5,2.5,0,0,1,215.28,260.58Z"/><path class="cls-1" d="M329.69,313.36a2.5,2.5,0,0,1-2.5-2.5V230.42c0-17.5-10.58-29.72-25.72-29.72h-3.22a29.75,29.75,0,0,0-29.72,29.72V232a2.5,2.5,0,0,1-5,0v-1.62a34.76,34.76,0,0,1,34.72-34.72h3.22c18.09,0,30.72,14.28,30.72,34.72v80.44A2.5,2.5,0,0,1,329.69,313.36Z"/><path class="cls-1" d="M230.24,401.78h-15.6a14.14,14.14,0,1,1,0-28.28h13.71a2.5,2.5,0,0,1,0,5H214.64a9.14,9.14,0,1,0,0,18.28h15.6a2.5,2.5,0,1,1,0,5Z"/><path class="cls-1" d="M217.07,369.87a2.5,2.5,0,0,1-2.5-2.49l-.24-62A25.75,25.75,0,0,1,240,279.68h26a2.5,2.5,0,0,1,0,5H240a20.74,20.74,0,0,0-20.72,20.72l.24,62a2.5,2.5,0,0,1-2.49,2.51Z"/><path class="cls-1" d="M202.77,393.15a14.14,14.14,0,1,1,0-28.28h14.29a2.5,2.5,0,0,1,0,5H202.77a9.14,9.14,0,1,0,0,18.28,2.5,2.5,0,0,1,0,5Z"/><path class="cls-1" d="M321.1,235.36a2.5,2.5,0,0,1-2.5-2.5c0-22.8-11.89-22.8-15.8-22.8a2.5,2.5,0,0,1,0-5c9.49,0,20.8,4.82,20.8,27.8A2.5,2.5,0,0,1,321.1,235.36Z"/><path class="cls-1" d="M36.07,235.36a2.5,2.5,0,0,1-2.5-2.5c0-17.67,7.22-27.8,19.8-27.8a2.5,2.5,0,0,1,0,5c-12.88,0-14.8,14.29-14.8,22.8A2.5,2.5,0,0,1,36.07,235.36Z"/><path class="cls-1" d="M26,401.78H16.15a2.5,2.5,0,0,1-2.5-2.5V307.72a2.5,2.5,0,0,1,5,0v89.06h4.89v-74a2.5,2.5,0,0,1,5,0v76.53A2.5,2.5,0,0,1,26,401.78Z"/><path class="cls-1" d="M339.58,401.78h-9.89a2.5,2.5,0,0,1-2.5-2.5V321.93a2.5,2.5,0,0,1,5,0v74.85h4.9l.11-98.88a2.5,2.5,0,0,1,2.5-2.5h0a2.5,2.5,0,0,1,2.5,2.5l-.11,101.37A2.5,2.5,0,0,1,339.58,401.78Z"/><path class="cls-1" d="M88.71,314.68H26a2.5,2.5,0,0,1,0-5H88.71a2.5,2.5,0,1,1,0,5Z"/><path class="cls-1" d="M329.19,314.68H266.52a2.5,2.5,0,0,1,0-5h62.67a2.5,2.5,0,0,1,0,5Z"/><path class="cls-1" d="M16.37,412a2.49,2.49,0,0,1-1.76-4.26,1.9,1.9,0,0,1,.38-.31,1.78,1.78,0,0,1,.43-.23,2,2,0,0,1,.47-.15,2.53,2.53,0,0,1,2.25.69,1.94,1.94,0,0,1,.31.38,2.24,2.24,0,0,1,.23.43,2,2,0,0,1,.14.46,2.08,2.08,0,0,1,.05.49,2.49,2.49,0,0,1-2.5,2.5Z"/><path class="cls-1" d="M326.75,409.46a2.5,2.5,0,0,1,2.51-2.5h0a2.49,2.49,0,0,1,2.49,2.5h0a2.49,2.49,0,0,1-2.49,2.5h0A2.5,2.5,0,0,1,326.75,409.46Zm-10.09,0a2.5,2.5,0,0,1,2.5-2.5h0a2.5,2.5,0,0,1,2.5,2.5h0a2.5,2.5,0,0,1-2.5,2.5h0A2.5,2.5,0,0,1,316.66,409.46Zm-10.09,0a2.5,2.5,0,0,1,2.5-2.5h0a2.5,2.5,0,0,1,2.5,2.5h0a2.5,2.5,0,0,1-2.5,2.5h0A2.5,2.5,0,0,1,306.57,409.46Zm-10.09,0A2.5,2.5,0,0,1,299,407h0a2.5,2.5,0,0,1,2.5,2.5h0A2.5,2.5,0,0,1,299,412h0A2.5,2.5,0,0,1,296.48,409.46Zm-10.1,0a2.5,2.5,0,0,1,2.5-2.5h0a2.5,2.5,0,0,1,2.5,2.5h0a2.5,2.5,0,0,1-2.5,2.5h0A2.5,2.5,0,0,1,286.38,409.46Zm-10.09,0a2.5,2.5,0,0,1,2.5-2.5h0a2.5,2.5,0,0,1,2.5,2.5h0a2.5,2.5,0,0,1-2.5,2.5h0A2.5,2.5,0,0,1,276.29,409.46Zm-10.09,0a2.5,2.5,0,0,1,2.5-2.5h0a2.5,2.5,0,0,1,2.5,2.5h0a2.5,2.5,0,0,1-2.5,2.5h0A2.5,2.5,0,0,1,266.2,409.46Zm-10.09,0a2.49,2.49,0,0,1,2.5-2.5h0a2.5,2.5,0,0,1,2.49,2.5h0a2.5,2.5,0,0,1-2.49,2.5h0A2.49,2.49,0,0,1,256.11,409.46Zm-10.1,0a2.5,2.5,0,0,1,2.5-2.5h0a2.5,2.5,0,0,1,2.5,2.5h0a2.5,2.5,0,0,1-2.5,2.5h0A2.5,2.5,0,0,1,246,409.46Zm-10.09,0a2.5,2.5,0,0,1,2.5-2.5h0a2.5,2.5,0,0,1,2.5,2.5h0a2.5,2.5,0,0,1-2.5,2.5h0A2.5,2.5,0,0,1,235.92,409.46Zm-10.1,0a2.51,2.51,0,0,1,2.51-2.5h0a2.5,2.5,0,0,1,2.5,2.5h0a2.5,2.5,0,0,1-2.5,2.5h0A2.51,2.51,0,0,1,225.82,409.46Zm-10.09,0a2.5,2.5,0,0,1,2.5-2.5h0a2.5,2.5,0,0,1,2.5,2.5h0a2.5,2.5,0,0,1-2.5,2.5h0A2.5,2.5,0,0,1,215.73,409.46Zm-10.09,0a2.5,2.5,0,0,1,2.5-2.5h0a2.5,2.5,0,0,1,2.5,2.5h0a2.5,2.5,0,0,1-2.5,2.5h0A2.5,2.5,0,0,1,205.64,409.46Zm-10.09,0a2.5,2.5,0,0,1,2.5-2.5h0a2.5,2.5,0,0,1,2.5,2.5h0a2.5,2.5,0,0,1-2.5,2.5h0A2.5,2.5,0,0,1,195.55,409.46Zm-10.1,0A2.5,2.5,0,0,1,188,407h0a2.5,2.5,0,0,1,2.5,2.5h0A2.5,2.5,0,0,1,188,412h0A2.5,2.5,0,0,1,185.45,409.46Zm-10.09,0a2.5,2.5,0,0,1,2.5-2.5h0a2.5,2.5,0,0,1,2.5,2.5h0a2.5,2.5,0,0,1-2.5,2.5h0A2.5,2.5,0,0,1,175.36,409.46Zm-10.09,0a2.5,2.5,0,0,1,2.5-2.5h0a2.5,2.5,0,0,1,2.5,2.5h0a2.5,2.5,0,0,1-2.5,2.5h0A2.5,2.5,0,0,1,165.27,409.46Zm-10.09,0a2.49,2.49,0,0,1,2.5-2.5h0a2.49,2.49,0,0,1,2.49,2.5h0a2.49,2.49,0,0,1-2.49,2.5h0A2.49,2.49,0,0,1,155.18,409.46Zm-10.1,0a2.5,2.5,0,0,1,2.5-2.5h0a2.5,2.5,0,0,1,2.5,2.5h0a2.5,2.5,0,0,1-2.5,2.5h0A2.5,2.5,0,0,1,145.08,409.46Zm-10.09,0a2.5,2.5,0,0,1,2.5-2.5h0a2.5,2.5,0,0,1,2.5,2.5h0a2.5,2.5,0,0,1-2.5,2.5h0A2.5,2.5,0,0,1,135,409.46Zm-10.09,0a2.5,2.5,0,0,1,2.5-2.5h0a2.5,2.5,0,0,1,2.5,2.5h0a2.5,2.5,0,0,1-2.5,2.5h0A2.5,2.5,0,0,1,124.9,409.46Zm-10.1,0a2.5,2.5,0,0,1,2.5-2.5h0a2.5,2.5,0,0,1,2.5,2.5h0a2.5,2.5,0,0,1-2.5,2.5h0A2.5,2.5,0,0,1,114.8,409.46Zm-10.09,0a2.5,2.5,0,0,1,2.5-2.5h0a2.5,2.5,0,0,1,2.5,2.5h0a2.5,2.5,0,0,1-2.5,2.5h0A2.5,2.5,0,0,1,104.71,409.46Zm-10.09,0a2.5,2.5,0,0,1,2.5-2.5h0a2.5,2.5,0,0,1,2.5,2.5h0a2.5,2.5,0,0,1-2.5,2.5h0A2.5,2.5,0,0,1,94.62,409.46Zm-10.09,0A2.49,2.49,0,0,1,87,407h0a2.5,2.5,0,0,1,2.5,2.5h0A2.5,2.5,0,0,1,87,412h0A2.49,2.49,0,0,1,84.53,409.46Zm-10.1,0a2.5,2.5,0,0,1,2.5-2.5h0a2.5,2.5,0,0,1,2.5,2.5h0a2.5,2.5,0,0,1-2.5,2.5h0A2.5,2.5,0,0,1,74.43,409.46Zm-10.09,0a2.5,2.5,0,0,1,2.5-2.5h0a2.5,2.5,0,0,1,2.5,2.5h0a2.5,2.5,0,0,1-2.5,2.5h0A2.5,2.5,0,0,1,64.34,409.46Zm-10.09,0a2.49,2.49,0,0,1,2.5-2.5h0a2.5,2.5,0,0,1,2.5,2.5h0a2.5,2.5,0,0,1-2.5,2.5h0A2.49,2.49,0,0,1,54.25,409.46Zm-10.1,0a2.5,2.5,0,0,1,2.5-2.5h0a2.5,2.5,0,0,1,2.5,2.5h0a2.5,2.5,0,0,1-2.5,2.5h0A2.5,2.5,0,0,1,44.15,409.46Zm-10.09,0a2.5,2.5,0,0,1,2.5-2.5h0a2.5,2.5,0,0,1,2.5,2.5h0a2.5,2.5,0,0,1-2.5,2.5h0A2.5,2.5,0,0,1,34.06,409.46Zm-10.09,0a2.5,2.5,0,0,1,2.5-2.5h0a2.5,2.5,0,0,1,2.5,2.5h0a2.5,2.5,0,0,1-2.5,2.5h0A2.5,2.5,0,0,1,24,409.46Z"/><path class="cls-1" d="M339.35,412a2.68,2.68,0,0,1-.49,0,2.6,2.6,0,0,1-.47-.15,2.57,2.57,0,0,1-.43-.23,2.21,2.21,0,0,1-.38-.31,2.5,2.5,0,0,1,0-3.53,2.92,2.92,0,0,1,.38-.32,2.51,2.51,0,0,1,.43-.22,2,2,0,0,1,.47-.15,2.5,2.5,0,0,1,2.26,4.22,2.64,2.64,0,0,1-.38.31,2.32,2.32,0,0,1-.44.23,2.53,2.53,0,0,1-.46.15A2.67,2.67,0,0,1,339.35,412Z"/><path class="cls-1" d="M140.89,32.49a2.49,2.49,0,0,1,2.5-2.5h0a2.5,2.5,0,0,1,2.5,2.5h0a2.5,2.5,0,0,1-2.5,2.51h0A2.5,2.5,0,0,1,140.89,32.49Zm0-10a2.49,2.49,0,0,1,2.5-2.5h0a2.49,2.49,0,0,1,2.5,2.5h0a2.5,2.5,0,0,1-2.5,2.5h0A2.49,2.49,0,0,1,140.89,22.5Zm0-10a2.5,2.5,0,0,1,2.5-2.51h0a2.5,2.5,0,0,1,2.5,2.51h0a2.5,2.5,0,0,1-2.5,2.5h0A2.49,2.49,0,0,1,140.89,12.5Zm0-10a2.49,2.49,0,0,1,2.5-2.5h0a2.49,2.49,0,0,1,2.5,2.5h0a2.5,2.5,0,0,1-2.5,2.5h0A2.49,2.49,0,0,1,140.89,2.5Z"/><path class="cls-1" d="M140.89,83.37a2.49,2.49,0,0,1,2.5-2.5h0a2.5,2.5,0,0,1,2.5,2.5h0a2.5,2.5,0,0,1-2.5,2.5h0A2.49,2.49,0,0,1,140.89,83.37Zm0-10a2.49,2.49,0,0,1,2.5-2.5h0a2.49,2.49,0,0,1,2.5,2.5h0a2.5,2.5,0,0,1-2.5,2.5h0A2.49,2.49,0,0,1,140.89,73.37Zm0-10a2.49,2.49,0,0,1,2.5-2.5h0a2.5,2.5,0,0,1,2.5,2.5h0a2.5,2.5,0,0,1-2.5,2.5h0A2.49,2.49,0,0,1,140.89,63.37Zm0-10a2.49,2.49,0,0,1,2.5-2.5h0a2.49,2.49,0,0,1,2.5,2.5h0a2.5,2.5,0,0,1-2.5,2.5h0A2.49,2.49,0,0,1,140.89,53.37Z"/><path class="cls-1" d="M133.32,37.7a2.5,2.5,0,0,1,0-3.54h0a2.52,2.52,0,0,1,3.54,0h0a2.52,2.52,0,0,1,0,3.54h0a2.49,2.49,0,0,1-1.77.73h0A2.49,2.49,0,0,1,133.32,37.7Zm-7.07-7.07a2.5,2.5,0,0,1,0-3.54h0a2.52,2.52,0,0,1,3.54,0h0a2.52,2.52,0,0,1,0,3.54h0a2.49,2.49,0,0,1-1.77.73h0A2.49,2.49,0,0,1,126.25,30.63Zm-7.07-7.07a2.5,2.5,0,0,1,0-3.54h0a2.5,2.5,0,0,1,3.53,0h0a2.5,2.5,0,0,1,0,3.54h0a2.45,2.45,0,0,1-1.76.73h0A2.49,2.49,0,0,1,119.18,23.56Zm-7.07-7.07a2.5,2.5,0,0,1,0-3.54h0a2.49,2.49,0,0,1,3.53,0h0a2.5,2.5,0,0,1,0,3.54h0a2.47,2.47,0,0,1-1.76.73h0A2.49,2.49,0,0,1,112.11,16.49Z"/><path class="cls-1" d="M129.15,44.23a2.5,2.5,0,0,1,2.5-2.5h0a2.5,2.5,0,0,1,2.5,2.5h0a2.5,2.5,0,0,1-2.5,2.5h0A2.5,2.5,0,0,1,129.15,44.23Zm-10,0a2.5,2.5,0,0,1,2.5-2.5h0a2.5,2.5,0,0,1,2.5,2.5h0a2.5,2.5,0,0,1-2.5,2.5h0A2.5,2.5,0,0,1,119.15,44.23Zm-10,0a2.5,2.5,0,0,1,2.5-2.5h0a2.5,2.5,0,0,1,2.5,2.5h0a2.5,2.5,0,0,1-2.5,2.5h0A2.5,2.5,0,0,1,109.15,44.23Zm-10,0a2.5,2.5,0,0,1,2.5-2.5h0a2.5,2.5,0,0,1,2.5,2.5h0a2.5,2.5,0,0,1-2.5,2.5h0A2.5,2.5,0,0,1,99.15,44.23Z"/><path class="cls-1" d="M180,44.23a2.5,2.5,0,0,1,2.5-2.5h0a2.5,2.5,0,0,1,2.5,2.5h0a2.5,2.5,0,0,1-2.5,2.5h0A2.5,2.5,0,0,1,180,44.23Zm-10,0a2.5,2.5,0,0,1,2.5-2.5h0a2.5,2.5,0,0,1,2.5,2.5h0a2.5,2.5,0,0,1-2.5,2.5h0A2.5,2.5,0,0,1,170,44.23Zm-10,0a2.5,2.5,0,0,1,2.5-2.5h0a2.5,2.5,0,0,1,2.5,2.5h0a2.5,2.5,0,0,1-2.5,2.5h0A2.5,2.5,0,0,1,160,44.23Zm-10,0a2.5,2.5,0,0,1,2.5-2.5h0a2.5,2.5,0,0,1,2.5,2.5h0a2.5,2.5,0,0,1-2.5,2.5h0A2.5,2.5,0,0,1,150,44.23Z"/><path class="cls-1" d="M112.11,75.51a2.5,2.5,0,0,1,0-3.54h0a2.51,2.51,0,0,1,3.53,0h0a2.5,2.5,0,0,1,0,3.54h0a2.47,2.47,0,0,1-1.76.73h0A2.49,2.49,0,0,1,112.11,75.51Zm7.07-7.07a2.5,2.5,0,0,1,0-3.54h0a2.49,2.49,0,0,1,3.53,0h0a2.5,2.5,0,0,1,0,3.54h0a2.49,2.49,0,0,1-1.76.73h0A2.53,2.53,0,0,1,119.18,68.44Zm7.07-7.07a2.5,2.5,0,0,1,0-3.54h0a2.5,2.5,0,0,1,3.54,0h0a2.52,2.52,0,0,1,0,3.54h0a2.53,2.53,0,0,1-1.77.73h0A2.53,2.53,0,0,1,126.25,61.37Zm7.07-7.07a2.5,2.5,0,0,1,0-3.54h0a2.5,2.5,0,0,1,3.54,0h0a2.52,2.52,0,0,1,0,3.54h0a2.53,2.53,0,0,1-1.77.73h0A2.53,2.53,0,0,1,133.32,54.3Z"/><path class="cls-1" d="M148.08,39.54a2.5,2.5,0,0,1,0-3.54h0a2.5,2.5,0,0,1,3.53,0h0a2.5,2.5,0,0,1,0,3.54h0a2.45,2.45,0,0,1-1.76.73h0A2.49,2.49,0,0,1,148.08,39.54Zm7.07-7.07a2.5,2.5,0,0,1,0-3.54h0a2.49,2.49,0,0,1,3.53,0h0a2.5,2.5,0,0,1,0,3.54h0a2.49,2.49,0,0,1-1.76.73h0A2.53,2.53,0,0,1,155.15,32.47Zm7.07-7.07a2.5,2.5,0,0,1,0-3.54h0a2.5,2.5,0,0,1,3.54,0h0a2.52,2.52,0,0,1,0,3.54h0a2.53,2.53,0,0,1-1.77.73h0A2.53,2.53,0,0,1,162.22,25.4Zm7.07-7.08a2.5,2.5,0,0,1,0-3.53h0a2.5,2.5,0,0,1,3.54,0h0a2.51,2.51,0,0,1,0,3.53h0a2.49,2.49,0,0,1-1.77.73h0A2.49,2.49,0,0,1,169.29,18.32Z"/></g></g></svg>