<svg xmlns="http://www.w3.org/2000/svg" viewBox="0 0 100 100" preserveAspectRatio="none">
<style type="text/css">
	.st0{fill:#455A64;}
</style>
<path class="st0" d="M108.6,26"/>
<path class="st0" d="M20.1,58.2c6.8,13.9,13.6,27.8,20.3,41.8c-13.5,0-27,0-40.4,0C6.7,86.1,13.4,72.2,20.1,58.2z"/>
<path class="st0" d="M44,41.3c8.1,19.6,16.2,39.2,24.3,58.7c-16.1,0-32.2,0-48.3,0C28,80.4,36,60.8,44,41.3z"/>
<path class="st0" d="M70,17.7c9.1,27.4,18.1,54.9,27.2,82.3c-18,0-36,0-54,0C52.1,72.6,61.1,45.1,70,17.7z"/>
<path class="st0" d="M99.8,0c12.6,33.5,25.2,67,37.8,100.5c-25.1,0-50.1,0-75.2,0C74.9,67,87.4,33.5,99.8,0z"/>
</svg>
