<svg xmlns="http://www.w3.org/2000/svg" viewBox="0 0 336.52 413.54"><defs><style>.cls-1{fill:#FF9800;}</style></defs><title>employees</title><g id="Layer_2" data-name="Layer 2"><g id="Layer_1-2" data-name="Layer 1"><path class="cls-1" d="M68,265.47a2.5,2.5,0,0,1-2.5-2.5V195.63a2.5,2.5,0,0,1,5,0V263A2.5,2.5,0,0,1,68,265.47Z"/><path class="cls-1" d="M112.21,285.73H70.3a4.83,4.83,0,0,1-4.82-4.82v-7.39a2.5,2.5,0,0,1,5,0v7.21H112L111.85,238l.19-42.36a2.5,2.5,0,0,1,2.5-2.49h0a2.5,2.5,0,0,1,2.49,2.51L116.85,238l.18,42.92a4.82,4.82,0,0,1-4.82,4.84Z"/><path class="cls-1" d="M47.39,189.82a2.5,2.5,0,0,1-2.5-2.5V126a24.46,24.46,0,0,1,24.44-24.43h43.87a24.38,24.38,0,0,1,24.08,20.24,2.5,2.5,0,1,1-4.93.86,19.39,19.39,0,0,0-19.15-16.1H69.33A19.46,19.46,0,0,0,49.89,126v61.32A2.5,2.5,0,0,1,47.39,189.82Z"/><path class="cls-1" d="M68,198.13a2.5,2.5,0,0,1-2.5-2.5V135.4a2.5,2.5,0,0,1,5,0v60.23A2.5,2.5,0,0,1,68,198.13Z"/><path class="cls-1" d="M114.54,198.13a2.5,2.5,0,0,1-2.5-2.5V135.4a2.5,2.5,0,0,1,5,0v60.23A2.5,2.5,0,0,1,114.54,198.13Z"/><path class="cls-1" d="M57.68,200.11a12.81,12.81,0,0,1-12.79-12.79,2.5,2.5,0,0,1,5,0,7.79,7.79,0,1,0,15.58,0,2.5,2.5,0,0,1,5,0A12.81,12.81,0,0,1,57.68,200.11Z"/><path class="cls-1" d="M91.26,96.36a21.57,21.57,0,1,1,21.57-21.57A21.59,21.59,0,0,1,91.26,96.36Zm0-38.14a16.57,16.57,0,1,0,16.57,16.57A16.59,16.59,0,0,0,91.26,58.22Z"/><path class="cls-1" d="M91.26,284a2.5,2.5,0,0,1-2.5-2.5V195a2.5,2.5,0,0,1,5,0v86.42A2.5,2.5,0,0,1,91.26,284Z"/><path class="cls-1" d="M178.93,315.53"/><path class="cls-1" d="M146.95,328.27a2.5,2.5,0,0,1-2.5-2.5V240.7a2.5,2.5,0,0,1,5,0v85.07A2.5,2.5,0,0,1,146.95,328.27Z"/><path class="cls-1" d="M208,286.57l.25-45.88a2.5,2.5,0,0,1,2.5-2.49h0a2.5,2.5,0,0,1,2.49,2.51L213,282Z"/><path class="cls-1" d="M144.45,348.43v-9.33a2.5,2.5,0,0,1,5,0v9.33Z"/><path class="cls-1" d="M231.78,232.7a2.5,2.5,0,0,1-2.5-2.5V152.74A22.73,22.73,0,0,0,206.57,130H151.15a22.73,22.73,0,0,0-22.71,22.71V230.2a2.5,2.5,0,0,1-5,0V152.74A27.74,27.74,0,0,1,151.15,125h55.42a27.74,27.74,0,0,1,27.71,27.71V230.2A2.5,2.5,0,0,1,231.78,232.7Z"/><path class="cls-1" d="M178.86,317.2c-1.38,0-2.5-.75-2.5-1.67V239.87c0-.92,1.12-1.67,2.5-1.67s2.5.75,2.5,1.67v75.66C181.36,316.45,180.24,317.2,178.86,317.2Z"/><path class="cls-1" d="M146.95,243.2a2.5,2.5,0,0,1-2.5-2.5V164.62a2.5,2.5,0,0,1,5,0V240.7A2.5,2.5,0,0,1,146.95,243.2Z"/><path class="cls-1" d="M210.78,243.2a2.5,2.5,0,0,1-2.5-2.5V164.62a2.5,2.5,0,1,1,5,0V240.7A2.5,2.5,0,0,1,210.78,243.2Z"/><path class="cls-1" d="M136.45,243.2a13,13,0,0,1-13-13,2.5,2.5,0,0,1,5,0,8,8,0,1,0,16,0,2.5,2.5,0,0,1,5,0A13,13,0,0,1,136.45,243.2Z"/><path class="cls-1" d="M221.28,243.2a13,13,0,0,1-13-13,2.5,2.5,0,1,1,5,0,8,8,0,0,0,16,0,2.5,2.5,0,0,1,5,0A13,13,0,0,1,221.28,243.2Z"/><path class="cls-1" d="M178.86,121.54a29.09,29.09,0,1,1,29.09-29.09A29.12,29.12,0,0,1,178.86,121.54Zm0-53.17a24.09,24.09,0,1,0,24.09,24.09A24.11,24.11,0,0,0,178.86,68.36Z"/><path class="cls-1" d="M241,212.74a2.5,2.5,0,0,1-2.5-2.5v-58a2.5,2.5,0,0,1,5,0v58A2.5,2.5,0,0,1,241,212.74Z"/><path class="cls-1" d="M279.12,230.2H243a4.51,4.51,0,0,1-4.5-4.5v-6.37a2.5,2.5,0,0,1,5,0v5.87h35.1l-.15-36.49.17-36.5a2.5,2.5,0,0,1,2.5-2.49h0a2.5,2.5,0,0,1,2.49,2.51l-.17,36.48.15,37a4.5,4.5,0,0,1-4.5,4.52Z"/><path class="cls-1" d="M298.87,147.56a2.5,2.5,0,0,1-2.5-2.5V92.23A16.42,16.42,0,0,0,280,75.84h-37.8a16.42,16.42,0,0,0-16.4,16.4v30.5a2.5,2.5,0,1,1-5,0V92.23a21.42,21.42,0,0,1,21.4-21.4H280a21.42,21.42,0,0,1,21.4,21.4v52.83A2.5,2.5,0,0,1,298.87,147.56Z"/><path class="cls-1" d="M241,154.72a2.5,2.5,0,0,1-2.5-2.5V100.33a2.5,2.5,0,0,1,5,0v51.89A2.5,2.5,0,0,1,241,154.72Z"/><path class="cls-1" d="M281.13,154.72a2.5,2.5,0,0,1-2.5-2.5V100.33a2.5,2.5,0,1,1,5,0v51.89A2.5,2.5,0,0,1,281.13,154.72Z"/><path class="cls-1" d="M290,156.43a11.38,11.38,0,0,1-11.37-11.37,2.5,2.5,0,0,1,5,0,6.37,6.37,0,0,0,12.73,0,2.5,2.5,0,0,1,5,0A11.38,11.38,0,0,1,290,156.43Z"/><path class="cls-1" d="M261.07,67A18.93,18.93,0,1,1,280,48.11,18.95,18.95,0,0,1,261.07,67Zm0-32.86A13.93,13.93,0,1,0,275,48.11,13.94,13.94,0,0,0,261.07,34.19Z"/><path class="cls-1" d="M261.07,228.67a2.5,2.5,0,0,1-2.5-2.5V151.72a2.5,2.5,0,0,1,5,0v74.45A2.5,2.5,0,0,1,261.07,228.67Z"/><path class="cls-1" d="M144.69,413.54a2.49,2.49,0,0,1-1.77-.73l-78.1-78.1a2.5,2.5,0,0,1,0-3.54l30.56-30.56a2.57,2.57,0,0,1,3.54,0l45.76,45.76L247.33,243.73a2.5,2.5,0,0,1,3.54,0l30.56,30.56a2.5,2.5,0,0,1,0,3.54l-135,135A2.49,2.49,0,0,1,144.69,413.54Zm-74.56-80.6,74.56,74.56L276.13,276.06l-27-27L146.46,351.68a2.5,2.5,0,0,1-3.54,0L97.16,305.92Z"/><path class="cls-1" d="M264.2,274a2.5,2.5,0,0,1,3.54,3.54l-28.29,28.29a2.5,2.5,0,0,1-3.54-3.54Z"/><path class="cls-1" d="M231.41,310.32a2.5,2.5,0,0,1,0,3.54l-8.83,8.83a2.5,2.5,0,1,1-3.54-3.54S230.43,309.34,231.41,310.32Z"/><path class="cls-1" d="M222.28,163.8a2.5,2.5,0,0,1-2.5-2.5V156A15.76,15.76,0,0,0,204,140.23a2.5,2.5,0,0,1,0-5A20.77,20.77,0,0,1,224.78,156S223.66,163.8,222.28,163.8Z"/><path class="cls-1" d="M222.28,180.73a2.5,2.5,0,0,1-2.5-2.5v-6.82a2.5,2.5,0,0,1,5,0S223.66,180.73,222.28,180.73Z"/><path class="cls-1" d="M176.36,58.22a2.74,2.74,0,0,1-.49,0,2.46,2.46,0,0,1-.46-.14,2.29,2.29,0,0,1-.44-.23,3.6,3.6,0,0,1-.38-.31,3.65,3.65,0,0,1-.31-.38,2.46,2.46,0,0,1-.37-.9,2.54,2.54,0,0,1,.14-1.45,2.53,2.53,0,0,1,.23-.43,2.44,2.44,0,0,1,.69-.69,2.29,2.29,0,0,1,.44-.23,2.42,2.42,0,0,1,.46-.14,2.5,2.5,0,1,1,.49,4.95Z"/><path class="cls-1" d="M173.86,45.08a2.5,2.5,0,0,1,2.5-2.5h0a2.5,2.5,0,0,1,2.5,2.5h0a2.5,2.5,0,0,1-2.5,2.5h0A2.5,2.5,0,0,1,173.86,45.08Zm0-10.65a2.5,2.5,0,0,1,2.5-2.5h0a2.5,2.5,0,0,1,2.5,2.5h0a2.5,2.5,0,0,1-2.5,2.5h0A2.5,2.5,0,0,1,173.86,34.43Zm0-10.64a2.5,2.5,0,0,1,2.5-2.5h0a2.5,2.5,0,0,1,2.5,2.5h0a2.5,2.5,0,0,1-2.5,2.5h0A2.5,2.5,0,0,1,173.86,23.79Zm0-10.64a2.49,2.49,0,0,1,2.5-2.5h0a2.49,2.49,0,0,1,2.5,2.5h0a2.5,2.5,0,0,1-2.5,2.5h0A2.5,2.5,0,0,1,173.86,13.15Z"/><path class="cls-1" d="M176.36,5a2,2,0,0,1-.49-.05,2.43,2.43,0,0,1-.46-.14,2.24,2.24,0,0,1-.44-.23,2.68,2.68,0,0,1-.38-.31,2.82,2.82,0,0,1-.31-.38,2.45,2.45,0,0,1-.37-.9,2.69,2.69,0,0,1,0-.49,2.78,2.78,0,0,1,0-.49,2.41,2.41,0,0,1,.14-.46,2.62,2.62,0,0,1,.23-.44,3.59,3.59,0,0,1,.31-.38A3.54,3.54,0,0,1,175,.42a3,3,0,0,1,.44-.23,2.43,2.43,0,0,1,.46-.14,2.49,2.49,0,0,1,3,2.45,2.55,2.55,0,0,1-.73,1.77A2.51,2.51,0,0,1,176.36,5Z"/><path class="cls-1" d="M321.66,2.5a2.5,2.5,0,0,1,2.5-2.5h0a2.5,2.5,0,0,1,2.5,2.5h0a2.5,2.5,0,0,1-2.5,2.5h0A2.5,2.5,0,0,1,321.66,2.5Zm-9.85,0a2.5,2.5,0,0,1,2.5-2.5h0a2.5,2.5,0,0,1,2.5,2.5h0a2.5,2.5,0,0,1-2.5,2.5h0A2.5,2.5,0,0,1,311.81,2.5ZM302,2.5a2.5,2.5,0,0,1,2.5-2.5h0A2.5,2.5,0,0,1,307,2.5h0a2.5,2.5,0,0,1-2.5,2.5h0A2.5,2.5,0,0,1,302,2.5Zm-9.86,0A2.5,2.5,0,0,1,294.6,0h0a2.5,2.5,0,0,1,2.5,2.5h0A2.5,2.5,0,0,1,294.6,5h0A2.5,2.5,0,0,1,292.1,2.5Zm-9.85,0a2.5,2.5,0,0,1,2.5-2.5h0a2.5,2.5,0,0,1,2.5,2.5h0a2.5,2.5,0,0,1-2.5,2.5h0A2.5,2.5,0,0,1,282.25,2.5Zm-9.85,0A2.49,2.49,0,0,1,274.9,0h0a2.51,2.51,0,0,1,2.5,2.5h0A2.51,2.51,0,0,1,274.9,5h0A2.49,2.49,0,0,1,272.4,2.5Zm-9.86,0A2.5,2.5,0,0,1,265,0h0a2.5,2.5,0,0,1,2.5,2.5h0A2.5,2.5,0,0,1,265,5h0A2.5,2.5,0,0,1,262.54,2.5Zm-9.85,0a2.5,2.5,0,0,1,2.5-2.5h0a2.5,2.5,0,0,1,2.5,2.5h0a2.5,2.5,0,0,1-2.5,2.5h0A2.5,2.5,0,0,1,252.69,2.5Zm-9.86,0a2.51,2.51,0,0,1,2.5-2.5h0a2.5,2.5,0,0,1,2.51,2.5h0A2.5,2.5,0,0,1,245.33,5h0A2.51,2.51,0,0,1,242.83,2.5ZM233,2.5a2.5,2.5,0,0,1,2.5-2.5h0A2.5,2.5,0,0,1,238,2.5h0a2.5,2.5,0,0,1-2.5,2.5h0A2.5,2.5,0,0,1,233,2.5Zm-9.85,0a2.5,2.5,0,0,1,2.5-2.5h0a2.5,2.5,0,0,1,2.5,2.5h0a2.5,2.5,0,0,1-2.5,2.5h0A2.5,2.5,0,0,1,223.13,2.5Zm-9.85,0a2.49,2.49,0,0,1,2.5-2.5h0a2.51,2.51,0,0,1,2.5,2.5h0a2.51,2.51,0,0,1-2.5,2.5h0A2.49,2.49,0,0,1,213.28,2.5Zm-9.86,0a2.5,2.5,0,0,1,2.5-2.5h0a2.5,2.5,0,0,1,2.5,2.5h0a2.5,2.5,0,0,1-2.5,2.5h0A2.5,2.5,0,0,1,203.42,2.5Zm-9.85,0a2.5,2.5,0,0,1,2.5-2.5h0a2.5,2.5,0,0,1,2.5,2.5h0a2.5,2.5,0,0,1-2.5,2.5h0A2.5,2.5,0,0,1,193.57,2.5Zm-9.86,0A2.5,2.5,0,0,1,186.22,0h0a2.5,2.5,0,0,1,2.5,2.5h0a2.5,2.5,0,0,1-2.5,2.5h0A2.5,2.5,0,0,1,183.71,2.5Z"/><path class="cls-1" d="M334,5a2.53,2.53,0,0,1-1.77-.73,2.28,2.28,0,0,1-.31-.38,2.59,2.59,0,0,1-.23-.43,2.61,2.61,0,0,1-.14-.47,2,2,0,0,1,0-.49,2,2,0,0,1,0-.49,2.49,2.49,0,0,1,.14-.46,2.7,2.7,0,0,1,.23-.44,2.75,2.75,0,0,1,.31-.38A2.56,2.56,0,0,1,334.51,0a2.69,2.69,0,0,1,.46.14,3.62,3.62,0,0,1,.44.23c.13.1.26.2.38.31a2.55,2.55,0,0,1,.73,1.77,2.78,2.78,0,0,1,0,.49,2.54,2.54,0,0,1-.14.47,3.47,3.47,0,0,1-.23.43,4,4,0,0,1-.31.38A2.55,2.55,0,0,1,334,5Z"/><path class="cls-1" d="M331.52,381.88a2.49,2.49,0,0,1,2.5-2.5h0a2.5,2.5,0,0,1,2.5,2.5h0a2.5,2.5,0,0,1-2.5,2.5h0A2.49,2.49,0,0,1,331.52,381.88Zm0-10a2.49,2.49,0,0,1,2.5-2.5h0a2.5,2.5,0,0,1,2.5,2.5h0a2.5,2.5,0,0,1-2.5,2.5h0A2.49,2.49,0,0,1,331.52,371.9Zm0-10a2.49,2.49,0,0,1,2.5-2.5h0a2.5,2.5,0,0,1,2.5,2.5h0a2.5,2.5,0,0,1-2.5,2.5h0A2.49,2.49,0,0,1,331.52,361.91Zm0-10a2.49,2.49,0,0,1,2.5-2.5h0a2.5,2.5,0,0,1,2.5,2.5h0a2.5,2.5,0,0,1-2.5,2.5h0A2.49,2.49,0,0,1,331.52,351.93Zm0-10a2.49,2.49,0,0,1,2.5-2.5h0a2.49,2.49,0,0,1,2.5,2.5h0a2.5,2.5,0,0,1-2.5,2.5h0A2.49,2.49,0,0,1,331.52,341.95Zm0-10a2.49,2.49,0,0,1,2.5-2.5h0a2.5,2.5,0,0,1,2.5,2.5h0a2.5,2.5,0,0,1-2.5,2.5h0A2.49,2.49,0,0,1,331.52,332Zm0-10a2.49,2.49,0,0,1,2.5-2.5h0a2.5,2.5,0,0,1,2.5,2.5h0a2.5,2.5,0,0,1-2.5,2.5h0A2.49,2.49,0,0,1,331.52,322Zm0-10a2.49,2.49,0,0,1,2.5-2.5h0a2.5,2.5,0,0,1,2.5,2.5h0a2.51,2.51,0,0,1-2.5,2.51h0A2.5,2.5,0,0,1,331.52,312Zm0-10a2.49,2.49,0,0,1,2.5-2.5h0a2.5,2.5,0,0,1,2.5,2.5h0a2.5,2.5,0,0,1-2.5,2.5h0A2.49,2.49,0,0,1,331.52,302Zm0-10a2.49,2.49,0,0,1,2.5-2.5h0a2.49,2.49,0,0,1,2.5,2.5h0a2.5,2.5,0,0,1-2.5,2.5h0A2.49,2.49,0,0,1,331.52,292Zm0-10a2.49,2.49,0,0,1,2.5-2.5h0a2.5,2.5,0,0,1,2.5,2.5h0a2.5,2.5,0,0,1-2.5,2.5h0A2.49,2.49,0,0,1,331.52,282Zm0-10a2.49,2.49,0,0,1,2.5-2.5h0a2.5,2.5,0,0,1,2.5,2.5h0a2.5,2.5,0,0,1-2.5,2.5h0A2.49,2.49,0,0,1,331.52,272.06Zm0-10a2.5,2.5,0,0,1,2.5-2.51h0a2.5,2.5,0,0,1,2.5,2.51h0a2.5,2.5,0,0,1-2.5,2.5h0A2.49,2.49,0,0,1,331.52,262.08Zm0-10a2.49,2.49,0,0,1,2.5-2.5h0a2.5,2.5,0,0,1,2.5,2.5h0a2.5,2.5,0,0,1-2.5,2.5h0A2.49,2.49,0,0,1,331.52,252.09Zm0-10a2.49,2.49,0,0,1,2.5-2.5h0a2.5,2.5,0,0,1,2.5,2.5h0a2.5,2.5,0,0,1-2.5,2.5h0A2.49,2.49,0,0,1,331.52,242.11Zm0-10a2.49,2.49,0,0,1,2.5-2.5h0a2.5,2.5,0,0,1,2.5,2.5h0a2.5,2.5,0,0,1-2.5,2.5h0A2.49,2.49,0,0,1,331.52,232.12Zm0-10a2.49,2.49,0,0,1,2.5-2.5h0a2.5,2.5,0,0,1,2.5,2.5h0a2.5,2.5,0,0,1-2.5,2.5h0A2.49,2.49,0,0,1,331.52,222.14Zm0-10a2.49,2.49,0,0,1,2.5-2.5h0a2.5,2.5,0,0,1,2.5,2.5h0a2.5,2.5,0,0,1-2.5,2.5h0A2.49,2.49,0,0,1,331.52,212.16Zm0-10a2.49,2.49,0,0,1,2.5-2.5h0a2.5,2.5,0,0,1,2.5,2.5h0a2.5,2.5,0,0,1-2.5,2.5h0A2.49,2.49,0,0,1,331.52,202.17Zm0-10a2.49,2.49,0,0,1,2.5-2.5h0a2.5,2.5,0,0,1,2.5,2.5h0a2.5,2.5,0,0,1-2.5,2.5h0A2.49,2.49,0,0,1,331.52,192.19Zm0-10a2.49,2.49,0,0,1,2.5-2.5h0a2.5,2.5,0,0,1,2.5,2.5h0a2.5,2.5,0,0,1-2.5,2.5h0A2.49,2.49,0,0,1,331.52,182.21Zm0-10a2.49,2.49,0,0,1,2.5-2.5h0a2.5,2.5,0,0,1,2.5,2.5h0a2.5,2.5,0,0,1-2.5,2.5h0A2.49,2.49,0,0,1,331.52,172.22Zm0-10a2.49,2.49,0,0,1,2.5-2.5h0a2.5,2.5,0,0,1,2.5,2.5h0a2.5,2.5,0,0,1-2.5,2.5h0A2.49,2.49,0,0,1,331.52,162.24Zm0-10a2.49,2.49,0,0,1,2.5-2.5h0a2.5,2.5,0,0,1,2.5,2.5h0a2.5,2.5,0,0,1-2.5,2.5h0A2.49,2.49,0,0,1,331.52,152.26Zm0-10a2.49,2.49,0,0,1,2.5-2.5h0a2.5,2.5,0,0,1,2.5,2.5h0a2.5,2.5,0,0,1-2.5,2.5h0A2.49,2.49,0,0,1,331.52,142.27Zm0-10a2.49,2.49,0,0,1,2.5-2.5h0a2.5,2.5,0,0,1,2.5,2.5h0a2.5,2.5,0,0,1-2.5,2.5h0A2.49,2.49,0,0,1,331.52,132.29Zm0-10a2.49,2.49,0,0,1,2.5-2.5h0a2.5,2.5,0,0,1,2.5,2.5h0a2.5,2.5,0,0,1-2.5,2.5h0A2.49,2.49,0,0,1,331.52,122.31Zm0-10a2.49,2.49,0,0,1,2.5-2.5h0a2.5,2.5,0,0,1,2.5,2.5h0a2.5,2.5,0,0,1-2.5,2.5h0A2.49,2.49,0,0,1,331.52,112.32Zm0-10a2.49,2.49,0,0,1,2.5-2.5h0a2.5,2.5,0,0,1,2.5,2.5h0a2.5,2.5,0,0,1-2.5,2.5h0A2.49,2.49,0,0,1,331.52,102.34Zm0-10a2.49,2.49,0,0,1,2.5-2.49h0a2.49,2.49,0,0,1,2.5,2.49h0a2.49,2.49,0,0,1-2.5,2.5h0A2.49,2.49,0,0,1,331.52,92.35Zm0-10a2.49,2.49,0,0,1,2.5-2.5h0a2.5,2.5,0,0,1,2.5,2.5h0a2.5,2.5,0,0,1-2.5,2.5h0A2.49,2.49,0,0,1,331.52,82.37Zm0-10a2.49,2.49,0,0,1,2.5-2.5h0a2.5,2.5,0,0,1,2.5,2.5h0a2.5,2.5,0,0,1-2.5,2.5h0A2.49,2.49,0,0,1,331.52,72.39Zm0-10a2.49,2.49,0,0,1,2.5-2.5h0a2.5,2.5,0,0,1,2.5,2.5h0a2.49,2.49,0,0,1-2.5,2.5h0A2.49,2.49,0,0,1,331.52,62.4Zm0-10a2.49,2.49,0,0,1,2.5-2.5h0a2.5,2.5,0,0,1,2.5,2.5h0a2.5,2.5,0,0,1-2.5,2.5h0A2.49,2.49,0,0,1,331.52,52.42Zm0-10a2.49,2.49,0,0,1,2.5-2.5h0a2.5,2.5,0,0,1,2.5,2.5h0a2.5,2.5,0,0,1-2.5,2.5h0A2.49,2.49,0,0,1,331.52,42.44Zm0-10a2.49,2.49,0,0,1,2.5-2.5h0a2.5,2.5,0,0,1,2.5,2.5h0a2.5,2.5,0,0,1-2.5,2.5h0A2.49,2.49,0,0,1,331.52,32.45Zm0-10A2.49,2.49,0,0,1,334,20h0a2.5,2.5,0,0,1,2.5,2.5h0A2.5,2.5,0,0,1,334,25h0A2.49,2.49,0,0,1,331.52,22.47Zm0-10A2.49,2.49,0,0,1,334,10h0a2.5,2.5,0,0,1,2.5,2.5h0A2.5,2.5,0,0,1,334,15h0A2.49,2.49,0,0,1,331.52,12.49Z"/><path class="cls-1" d="M334,394.36a2.49,2.49,0,0,1-1.77-.73,1.94,1.94,0,0,1-.31-.38,2.27,2.27,0,0,1-.23-.43,2.59,2.59,0,0,1-.14-.47,2,2,0,0,1,0-.49,2.1,2.1,0,0,1,0-.49,2.5,2.5,0,0,1,.14-.46,2.25,2.25,0,0,1,.23-.43,1.94,1.94,0,0,1,.31-.38,2.54,2.54,0,0,1,2.26-.69,2.1,2.1,0,0,1,.46.15,2.62,2.62,0,0,1,.44.23,2.74,2.74,0,0,1,.38.31,3.05,3.05,0,0,1,.31.38,2.89,2.89,0,0,1,.23.43,2.44,2.44,0,0,1,.14.46,2.88,2.88,0,0,1,0,.49,2.68,2.68,0,0,1,0,.49,2.52,2.52,0,0,1-.14.47,2.92,2.92,0,0,1-.23.43,3,3,0,0,1-.31.38,2.75,2.75,0,0,1-.38.31,2.66,2.66,0,0,1-.44.23,2.69,2.69,0,0,1-.46.14A2.09,2.09,0,0,1,334,394.36Z"/><path class="cls-1" d="M321.34,391.86a2.5,2.5,0,0,1,2.5-2.5h0a2.5,2.5,0,0,1,2.5,2.5h0a2.5,2.5,0,0,1-2.5,2.5h0A2.5,2.5,0,0,1,321.34,391.86Zm-10.18,0a2.5,2.5,0,0,1,2.5-2.5h0a2.5,2.5,0,0,1,2.5,2.5h0a2.5,2.5,0,0,1-2.5,2.5h0A2.5,2.5,0,0,1,311.16,391.86Zm-10.17,0a2.49,2.49,0,0,1,2.5-2.5h0a2.49,2.49,0,0,1,2.49,2.5h0a2.49,2.49,0,0,1-2.49,2.5h0A2.49,2.49,0,0,1,301,391.86Zm-10.18,0a2.5,2.5,0,0,1,2.5-2.5h0a2.5,2.5,0,0,1,2.5,2.5h0a2.5,2.5,0,0,1-2.5,2.5h0A2.5,2.5,0,0,1,290.81,391.86Zm-10.18,0a2.5,2.5,0,0,1,2.5-2.5h0a2.5,2.5,0,0,1,2.5,2.5h0a2.5,2.5,0,0,1-2.5,2.5h0A2.5,2.5,0,0,1,280.63,391.86Zm-10.18,0a2.51,2.51,0,0,1,2.5-2.5h0a2.51,2.51,0,0,1,2.51,2.5h0a2.51,2.51,0,0,1-2.51,2.5h0A2.51,2.51,0,0,1,270.45,391.86Zm-10.17,0a2.5,2.5,0,0,1,2.5-2.5h0a2.5,2.5,0,0,1,2.5,2.5h0a2.5,2.5,0,0,1-2.5,2.5h0A2.5,2.5,0,0,1,260.28,391.86Zm-10.18,0a2.5,2.5,0,0,1,2.5-2.5h0a2.5,2.5,0,0,1,2.5,2.5h0a2.5,2.5,0,0,1-2.5,2.5h0A2.5,2.5,0,0,1,250.1,391.86Zm-10.18,0a2.5,2.5,0,0,1,2.5-2.5h0a2.5,2.5,0,0,1,2.5,2.5h0a2.5,2.5,0,0,1-2.5,2.5h0A2.5,2.5,0,0,1,239.92,391.86Zm-10.17,0a2.5,2.5,0,0,1,2.5-2.5h0a2.51,2.51,0,0,1,2.5,2.5h0a2.51,2.51,0,0,1-2.5,2.5h0A2.5,2.5,0,0,1,229.75,391.86Zm-10.18,0a2.5,2.5,0,0,1,2.5-2.5h0a2.5,2.5,0,0,1,2.5,2.5h0a2.5,2.5,0,0,1-2.5,2.5h0A2.5,2.5,0,0,1,219.57,391.86Zm-10.18,0a2.5,2.5,0,0,1,2.5-2.5h0a2.5,2.5,0,0,1,2.5,2.5h0a2.5,2.5,0,0,1-2.5,2.5h0A2.5,2.5,0,0,1,209.39,391.86Zm-10.18,0a2.5,2.5,0,0,1,2.5-2.5h0a2.5,2.5,0,0,1,2.5,2.5h0a2.5,2.5,0,0,1-2.5,2.5h0A2.5,2.5,0,0,1,199.21,391.86Zm-10.17,0a2.5,2.5,0,0,1,2.5-2.5h0a2.5,2.5,0,0,1,2.5,2.5h0a2.5,2.5,0,0,1-2.5,2.5h0A2.5,2.5,0,0,1,189,391.86Z"/><path class="cls-1" d="M181.36,394.36a2.5,2.5,0,0,1-1.77-.73,2.51,2.51,0,0,1,2.73-4.08,3.49,3.49,0,0,1,.43.23,2.94,2.94,0,0,1,.38.32,2.5,2.5,0,0,1-1.77,4.26Z"/><path class="cls-1" d="M56,315.53a2.5,2.5,0,0,1,2.5-2.5h0a2.51,2.51,0,0,1,2.51,2.5h0a2.51,2.51,0,0,1-2.51,2.5h0A2.5,2.5,0,0,1,56,315.53Zm-10,0a2.5,2.5,0,0,1,2.5-2.5h0a2.5,2.5,0,0,1,2.5,2.5h0a2.5,2.5,0,0,1-2.5,2.5h0A2.5,2.5,0,0,1,46,315.53Zm-10,0a2.5,2.5,0,0,1,2.5-2.5h0a2.5,2.5,0,0,1,2.5,2.5h0a2.5,2.5,0,0,1-2.5,2.5h0A2.5,2.5,0,0,1,36,315.53Zm-10,0a2.5,2.5,0,0,1,2.5-2.5h0a2.5,2.5,0,0,1,2.5,2.5h0a2.5,2.5,0,0,1-2.5,2.5h0A2.5,2.5,0,0,1,26,315.53Zm-10,0a2.5,2.5,0,0,1,2.5-2.5h0a2.5,2.5,0,0,1,2.5,2.5h0a2.5,2.5,0,0,1-2.5,2.5h0A2.5,2.5,0,0,1,16,315.53Zm-10,0A2.49,2.49,0,0,1,8.52,313h0a2.49,2.49,0,0,1,2.5,2.5h0a2.49,2.49,0,0,1-2.5,2.5h0A2.49,2.49,0,0,1,6,315.53Zm-6-4A2.5,2.5,0,0,1,2.5,309h0a2.5,2.5,0,0,1,2.5,2.5H5A2.5,2.5,0,0,1,2.5,314h0A2.5,2.5,0,0,1,0,311.55Zm0-10A2.5,2.5,0,0,1,2.5,299h0a2.5,2.5,0,0,1,2.5,2.5H5A2.5,2.5,0,0,1,2.5,304h0A2.5,2.5,0,0,1,0,301.55Zm0-10A2.5,2.5,0,0,1,2.5,289h0a2.5,2.5,0,0,1,2.5,2.5H5A2.5,2.5,0,0,1,2.5,294h0A2.5,2.5,0,0,1,0,291.55Zm0-10A2.5,2.5,0,0,1,2.5,279h0a2.5,2.5,0,0,1,2.5,2.5H5A2.5,2.5,0,0,1,2.5,284h0A2.5,2.5,0,0,1,0,281.55Zm0-10A2.5,2.5,0,0,1,2.5,269h0a2.5,2.5,0,0,1,2.5,2.5H5A2.5,2.5,0,0,1,2.5,274h0A2.5,2.5,0,0,1,0,271.55Zm0-10A2.5,2.5,0,0,1,2.5,259h0a2.5,2.5,0,0,1,2.5,2.5H5A2.5,2.5,0,0,1,2.5,264h0A2.5,2.5,0,0,1,0,261.55Zm0-10A2.5,2.5,0,0,1,2.5,249h0a2.5,2.5,0,0,1,2.5,2.5H5A2.5,2.5,0,0,1,2.5,254h0A2.5,2.5,0,0,1,0,251.55Zm0-10A2.5,2.5,0,0,1,2.5,239h0a2.5,2.5,0,0,1,2.5,2.5H5A2.5,2.5,0,0,1,2.5,244h0A2.5,2.5,0,0,1,0,241.55Zm0-10A2.5,2.5,0,0,1,2.5,229h0a2.5,2.5,0,0,1,2.5,2.5H5A2.5,2.5,0,0,1,2.5,234h0A2.5,2.5,0,0,1,0,231.55Zm0-10A2.5,2.5,0,0,1,2.5,219h0a2.5,2.5,0,0,1,2.5,2.5H5A2.5,2.5,0,0,1,2.5,224h0A2.5,2.5,0,0,1,0,221.55Zm0-10A2.5,2.5,0,0,1,2.5,209h0a2.5,2.5,0,0,1,2.5,2.5H5A2.5,2.5,0,0,1,2.5,214h0A2.5,2.5,0,0,1,0,211.55Zm0-10A2.5,2.5,0,0,1,2.5,199h0a2.5,2.5,0,0,1,2.5,2.5H5A2.5,2.5,0,0,1,2.5,204h0A2.5,2.5,0,0,1,0,201.55Zm0-10A2.5,2.5,0,0,1,2.5,189h0a2.5,2.5,0,0,1,2.5,2.5H5A2.5,2.5,0,0,1,2.5,194h0A2.5,2.5,0,0,1,0,191.55Zm0-10A2.5,2.5,0,0,1,2.5,179h0a2.5,2.5,0,0,1,2.5,2.5H5A2.5,2.5,0,0,1,2.5,184h0A2.5,2.5,0,0,1,0,181.55Zm0-10A2.5,2.5,0,0,1,2.5,169h0a2.5,2.5,0,0,1,2.5,2.5H5A2.5,2.5,0,0,1,2.5,174h0A2.5,2.5,0,0,1,0,171.55Zm0-10A2.5,2.5,0,0,1,2.5,159h0a2.5,2.5,0,0,1,2.5,2.5H5A2.5,2.5,0,0,1,2.5,164h0A2.5,2.5,0,0,1,0,161.55Zm0-10A2.5,2.5,0,0,1,2.5,149h0a2.5,2.5,0,0,1,2.5,2.5H5A2.5,2.5,0,0,1,2.5,154h0A2.5,2.5,0,0,1,0,151.55Zm0-10A2.5,2.5,0,0,1,2.5,139h0a2.5,2.5,0,0,1,2.5,2.5H5A2.5,2.5,0,0,1,2.5,144h0A2.5,2.5,0,0,1,0,141.55Zm0-10A2.5,2.5,0,0,1,2.5,129h0a2.5,2.5,0,0,1,2.5,2.5H5A2.5,2.5,0,0,1,2.5,134h0A2.5,2.5,0,0,1,0,131.55Zm0-10A2.5,2.5,0,0,1,2.5,119h0a2.5,2.5,0,0,1,2.5,2.5H5A2.5,2.5,0,0,1,2.5,124h0A2.5,2.5,0,0,1,0,121.55Zm0-10A2.5,2.5,0,0,1,2.5,109h0a2.5,2.5,0,0,1,2.5,2.5H5A2.5,2.5,0,0,1,2.5,114h0A2.5,2.5,0,0,1,0,111.55Zm0-10A2.5,2.5,0,0,1,2.5,99h0a2.5,2.5,0,0,1,2.5,2.5H5A2.5,2.5,0,0,1,2.5,104h0A2.5,2.5,0,0,1,0,101.55Zm0-10A2.5,2.5,0,0,1,2.5,89h0A2.5,2.5,0,0,1,5,91.55H5A2.5,2.5,0,0,1,2.5,94h0A2.5,2.5,0,0,1,0,91.55Zm0-10A2.5,2.5,0,0,1,2.5,79h0A2.5,2.5,0,0,1,5,81.55H5A2.5,2.5,0,0,1,2.5,84h0A2.5,2.5,0,0,1,0,81.55Zm51.79-8.21a2.5,2.5,0,0,1,2.5-2.5h0a2.5,2.5,0,0,1,2.5,2.5h0a2.5,2.5,0,0,1-2.5,2.5h0A2.5,2.5,0,0,1,51.79,73.34Zm-10,0a2.5,2.5,0,0,1,2.5-2.5h0a2.5,2.5,0,0,1,2.5,2.5h0a2.5,2.5,0,0,1-2.5,2.5h0A2.5,2.5,0,0,1,41.79,73.34Zm-10,0a2.5,2.5,0,0,1,2.5-2.5h0a2.5,2.5,0,0,1,2.5,2.5h0a2.5,2.5,0,0,1-2.5,2.5h0A2.5,2.5,0,0,1,31.79,73.34Zm-10,0a2.5,2.5,0,0,1,2.5-2.5h0a2.5,2.5,0,0,1,2.5,2.5h0a2.5,2.5,0,0,1-2.5,2.5h0A2.5,2.5,0,0,1,21.79,73.34Zm-10,0a2.5,2.5,0,0,1,2.5-2.5h0a2.5,2.5,0,0,1,2.5,2.5h0a2.5,2.5,0,0,1-2.5,2.5h0A2.5,2.5,0,0,1,11.79,73.34Zm-10,0a2.5,2.5,0,0,1,2.5-2.5h0a2.5,2.5,0,0,1,2.5,2.5h0a2.5,2.5,0,0,1-2.5,2.5h0A2.5,2.5,0,0,1,1.79,73.34Z"/><path class="cls-1" d="M118.93,407a2.49,2.49,0,0,1,0-3.53h0a2.5,2.5,0,0,1,3.54,0h0a2.51,2.51,0,0,1,0,3.53h0a2.5,2.5,0,0,1-1.77.74h0A2.5,2.5,0,0,1,118.93,407Zm-7.07-7.07a2.49,2.49,0,0,1,0-3.53h0a2.5,2.5,0,0,1,3.54,0h0a2.51,2.51,0,0,1,0,3.53h0a2.5,2.5,0,0,1-1.77.74h0A2.5,2.5,0,0,1,111.86,399.93Zm-7.07-7.07a2.49,2.49,0,0,1,0-3.53h0a2.49,2.49,0,0,1,3.53,0h0a2.49,2.49,0,0,1,0,3.53h0a2.48,2.48,0,0,1-1.77.74h0A2.48,2.48,0,0,1,104.79,392.86Zm-7.07-7.07a2.49,2.49,0,0,1,0-3.53h0a2.49,2.49,0,0,1,3.53,0h0a2.49,2.49,0,0,1,0,3.53h0a2.49,2.49,0,0,1-1.77.73h0A2.47,2.47,0,0,1,97.72,385.79Zm-7.07-7.07a2.49,2.49,0,0,1,0-3.53h0a2.49,2.49,0,0,1,3.53,0h0a2.49,2.49,0,0,1,0,3.53h0a2.49,2.49,0,0,1-1.77.73h0A2.45,2.45,0,0,1,90.65,378.72Zm-7.07-7.07a2.5,2.5,0,0,1,0-3.54h0a2.5,2.5,0,0,1,3.53,0h0a2.5,2.5,0,0,1,0,3.54h0a2.49,2.49,0,0,1-1.77.73h0A2.45,2.45,0,0,1,83.58,371.65Zm-7.08-7.07a2.52,2.52,0,0,1,0-3.54h0A2.52,2.52,0,0,1,80,361h0a2.5,2.5,0,0,1,0,3.54h0a2.49,2.49,0,0,1-1.77.73h0A2.49,2.49,0,0,1,76.5,364.58Zm-7.07-7.07a2.52,2.52,0,0,1,0-3.54h0A2.52,2.52,0,0,1,73,354h0a2.52,2.52,0,0,1,0,3.54h0a2.49,2.49,0,0,1-1.77.73h0A2.49,2.49,0,0,1,69.43,357.51Zm-7.07-7.07a2.52,2.52,0,0,1,0-3.54h0a2.52,2.52,0,0,1,3.54,0h0a2.52,2.52,0,0,1,0,3.54h0a2.53,2.53,0,0,1-1.77.73h0A2.53,2.53,0,0,1,62.36,350.44Z"/></g></g></svg>