<svg xmlns="http://www.w3.org/2000/svg" viewBox="0 0 378.1 306.9"><defs><style>.cls-1{fill:#FF9800;}</style></defs><title>Asset 110</title><g id="Layer_2" data-name="Layer 2"><g id="Layer_1-2" data-name="Layer 1"><path class="cls-1" d="M199,112.5a2.7,2.7,0,0,1-2.4-1.7,80,80,0,0,1-3.3-14.3,82.8,82.8,0,0,1-.5-14.9,79.3,79.3,0,0,1,2.6-15.2,2.5,2.5,0,0,1,3.1-1.7,2.4,2.4,0,0,1,1.7,3,69.1,69.1,0,0,0-2.4,14.2c-.3,4.6-.9,9.3-.2,13.9a84.2,84.2,0,0,0,3,14.1c.5,1.3.5,2-.8,2.4Z"/><path class="cls-1" d="M75.1,190.5a2.4,2.4,0,0,1-2.1-1.2,2.4,2.4,0,0,1,.9-3.4l110.3-62.8a2.6,2.6,0,0,1,3.4,1,2.5,2.5,0,0,1-.9,3.4L76.4,190.2A2.8,2.8,0,0,1,75.1,190.5Z"/><path class="cls-1" d="M64.6,257.6H64L12,243.2,1.9,240.5a2.8,2.8,0,0,1-1.6-1.2,2.5,2.5,0,0,1-.2-1.9l2.8-10.3h0L8.2,208a2.6,2.6,0,0,1,1.2-1.5l172-97.8a5.1,5.1,0,0,0,2.4-5.3A86.5,86.5,0,0,1,291.7,3.1a2.5,2.5,0,0,1,1.7,3.1c-.4,1.3,1,1.1-.4.8-21-5.8-45.7-2.1-64.6,8.7a81.4,81.4,0,0,0-39.7,86.7,10.1,10.1,0,0,1-4.9,10.7l-171,97.2-7.2,26,7.7,2.1,49.6,13.7,7.6-27.7a10.1,10.1,0,0,1,4.7-6,9.6,9.6,0,0,1,7.6-.9l12.6,3.4a2.6,2.6,0,0,1,1.8,3.1,2.7,2.7,0,0,1-3.1,1.8l-12.7-3.5a4.8,4.8,0,0,0-3.7.4,5.3,5.3,0,0,0-2.4,3.1l-8.2,30a2.6,2.6,0,0,1-1.2,1.5A2.8,2.8,0,0,1,64.6,257.6Zm53.9-50.2h-.6a2.5,2.5,0,0,1-1.8-3.1l1.9-6.8a9.8,9.8,0,0,1,4.7-6,10.1,10.1,0,0,1,7.6-1l2.6.8a2.4,2.4,0,0,1,1.7,3,2.5,2.5,0,0,1-3.1,1.8l-2.5-.7a5,5,0,0,0-3.8.4,5.4,5.4,0,0,0-2.4,3l-1.8,6.9A2.7,2.7,0,0,1,118.5,207.4Z"/><path class="cls-1" d="M20.8,221.3a2.6,2.6,0,0,1-2.2-1.3,2.5,2.5,0,0,1,1-3.4l44.5-25.4a2.6,2.6,0,0,1,3.4,1,2.5,2.5,0,0,1-.9,3.4L22,220.9A2.8,2.8,0,0,1,20.8,221.3Z"/><path class="cls-1" d="M119.8,239.4a2.4,2.4,0,0,1-1.8-.7,2.5,2.5,0,0,1,0-3.6l89.7-89.7a2.5,2.5,0,0,1,3.6,0,2.4,2.4,0,0,1,0,3.5l-89.8,89.8A2.2,2.2,0,0,1,119.8,239.4Z"/><path class="cls-1" d="M127.5,306.9H63a2.5,2.5,0,0,1-1.8-.8,2.6,2.6,0,0,1-.7-1.7V293.7h0V273.9a2.5,2.5,0,0,1,.8-1.8L201.2,132.2a4.9,4.9,0,0,0,.9-5.7,86.6,86.6,0,1,1,164-38.8,86.7,86.7,0,0,1-125.3,77.5,5,5,0,0,0-5.8.9l-26.3,26.3a5.1,5.1,0,0,0-1.5,3.5v31.2a2.5,2.5,0,0,1-2.5,2.5H173.6a5,5,0,0,0-5,5v31.1a2.5,2.5,0,0,1-2.5,2.5H134.9a5,5,0,0,0-4.9,5v31.2a2.8,2.8,0,0,1-2.5,2.5Zm-54-5.1H125V273.2a9.9,9.9,0,0,1,9.9-10h28.7V234.6a10,10,0,0,1,10-10h28.6V195.9a9.8,9.8,0,0,1,3-7l26.3-26.3a9.9,9.9,0,0,1,11.5-1.9,81.6,81.6,0,1,0-36.4-36.5,10,10,0,0,1-1.9,11.6L65.5,274.9v27Z"/><path class="cls-1" d="M299.7,90.2a22.7,22.7,0,0,1-16-38.7,22.1,22.1,0,0,1,16-6.6h0a22.5,22.5,0,0,1,16.1,6.6,22.8,22.8,0,0,1,0,32.1h0A23,23,0,0,1,299.7,90.2Zm0-40.3A17.6,17.6,0,0,0,287.2,55a17.7,17.7,0,1,0,25,0A17.6,17.6,0,0,0,299.7,49.9ZM314,81.8Z"/><path class="cls-1" d="M75.5,283.4a2.3,2.3,0,0,1-1.7-.7,2.4,2.4,0,0,1,0-3.5L110,242.9a2.5,2.5,0,0,1,3.6,0,2.6,2.6,0,0,1,0,3.5L77.3,282.7A2.4,2.4,0,0,1,75.5,283.4Z"/><path class="cls-1" d="M218.5,131.3a2.6,2.6,0,0,1-2.1-1.1,80.5,80.5,0,0,1-7-12.9A78.9,78.9,0,0,1,205,103a77.8,77.8,0,0,1-1.5-15.3,2.5,2.5,0,1,1,5,0,75.4,75.4,0,0,0,1.4,14.3,66.2,66.2,0,0,0,4.1,13.3,71,71,0,0,0,6.6,12.1,2.4,2.4,0,0,1-.7,3.4A2.4,2.4,0,0,1,218.5,131.3Z"/><path class="cls-1" d="M279.4,163.6a77.8,77.8,0,0,1-15.3-1.5,78.9,78.9,0,0,1-14.3-4.4,80.5,80.5,0,0,1-12.9-7,2.5,2.5,0,0,1,2.8-4.2,71,71,0,0,0,12.1,6.6,68.3,68.3,0,0,0,13.3,4.1,72.5,72.5,0,0,0,28.6,0A67.9,67.9,0,0,0,319,146.5a66.8,66.8,0,0,0,10.5-8.6,79.5,79.5,0,0,0,8.7-10.5,78.2,78.2,0,0,0,6.5-12.1,66.2,66.2,0,0,0,4.1-13.3,68.1,68.1,0,0,0,1.5-14.3,2.5,2.5,0,1,1,5,0,71,71,0,0,1-1.6,15.3,71.7,71.7,0,0,1-4.4,14.3,73.3,73.3,0,0,1-7,12.9,76.1,76.1,0,0,1-9.2,11.2,83.3,83.3,0,0,1-11.3,9.3,76.4,76.4,0,0,1-12.9,7,77.8,77.8,0,0,1-14.2,4.4A78.6,78.6,0,0,1,279.4,163.6Z"/><path class="cls-1" d="M375.6,89.2a2.4,2.4,0,0,1-1.8-.7l-.3-.4a.8.8,0,0,1-.2-.4l-.2-.5v-.5a2.6,2.6,0,0,1,.7-1.7c.1-.2.3-.3.4-.4l.4-.2h1.9l.5.2.4.4a2.6,2.6,0,0,1,.7,1.7.7.7,0,0,1-.1.5.9.9,0,0,1-.1.5c-.1.1-.1.3-.2.4l-.3.4-.4.3-.5.2-.4.2Z"/><path class="cls-1" d="M286.1,183.7a2.5,2.5,0,0,1,2.2-2.8h0a2.6,2.6,0,0,1,2.8,2.3h0a2.5,2.5,0,0,1-2.3,2.7h-.2A2.4,2.4,0,0,1,286.1,183.7Zm10.1-1.4a2.5,2.5,0,0,1,1.9-2.9h0a2.5,2.5,0,0,1,3,1.9h0a2.5,2.5,0,0,1-2,3h-.5A2.5,2.5,0,0,1,296.2,182.3Zm9.9-2.3a2.5,2.5,0,0,1,1.6-3.2h0a2.5,2.5,0,0,1,3.1,1.6h0a2.5,2.5,0,0,1-1.6,3.2h-.7A2.5,2.5,0,0,1,306.1,180Zm9.6-3.4a2.5,2.5,0,0,1,1.2-3.3h0a2.5,2.5,0,0,1,3.3,1.2h0a2.5,2.5,0,0,1-1.2,3.3h0a2.2,2.2,0,0,1-1.1.2h0A2.4,2.4,0,0,1,315.7,176.6Zm9.1-4.4a2.5,2.5,0,0,1,1-3.4h0a2.5,2.5,0,0,1,3.4.9h0a2.5,2.5,0,0,1-.9,3.4h0a3.1,3.1,0,0,1-1.3.3h0A2.5,2.5,0,0,1,324.8,172.2Zm8.7-5.4a2.3,2.3,0,0,1,.6-3.4h0a2.3,2.3,0,0,1,3.4.5h0a2.4,2.4,0,0,1-.5,3.5h0a2.7,2.7,0,0,1-1.5.5h0A2.6,2.6,0,0,1,333.5,166.8Zm8.1-6.2a2.3,2.3,0,0,1,.2-3.5h0a2.5,2.5,0,0,1,3.5.2h0a2.5,2.5,0,0,1-.2,3.5h0a2.3,2.3,0,0,1-1.7.7h0A2.3,2.3,0,0,1,341.6,160.6Zm7.3-7a2.4,2.4,0,0,1-.1-3.5h0a2.5,2.5,0,0,1,3.5-.2h0a2.5,2.5,0,0,1,.2,3.5h0a2.5,2.5,0,0,1-1.9.9h0A2.3,2.3,0,0,1,348.9,153.6Zm6.7-7.7a2.5,2.5,0,0,1-.6-3.5h0a2.5,2.5,0,0,1,3.5-.6h0a2.6,2.6,0,0,1,.6,3.5h0a2.6,2.6,0,0,1-2.1,1.1h0A2.4,2.4,0,0,1,355.6,145.9Zm5.7-8.4a2.5,2.5,0,0,1-.9-3.4h0a2.5,2.5,0,0,1,3.4-.9h0a2.5,2.5,0,0,1,.9,3.4h0a2.4,2.4,0,0,1-2.1,1.2h0A3.1,3.1,0,0,1,361.3,137.5Zm4.9-8.9a2.6,2.6,0,0,1-1.3-3.3h0a2.5,2.5,0,0,1,3.3-1.3h0a2.5,2.5,0,0,1,1.3,3.3h0a2.5,2.5,0,0,1-2.3,1.5h0Zm3.9-9.4a2.6,2.6,0,0,1-1.6-3.2h0a2.5,2.5,0,0,1,3.1-1.6h0a2.4,2.4,0,0,1,1.6,3.1h0a2.4,2.4,0,0,1-2.3,1.8h-.8Zm2.9-9.8a2.6,2.6,0,0,1-2-3h0a2.6,2.6,0,0,1,3-1.9h0a2.5,2.5,0,0,1,1.9,3h0a2.5,2.5,0,0,1-2.4,1.9H373Zm1.8-10a2.5,2.5,0,0,1-2.2-2.8h0a2.5,2.5,0,0,1,2.7-2.2h0a2.6,2.6,0,0,1,2.3,2.8h0a2.7,2.7,0,0,1-2.5,2.2h-.3Z"/><path class="cls-1" d="M278.4,186.4a2.4,2.4,0,0,1-2.5-2.5,2.2,2.2,0,0,1,.7-1.7l.4-.3.4-.3h.5a2.2,2.2,0,0,1,2.2.7,2.3,2.3,0,0,1,.8,1.7.7.7,0,0,1-.1.5.9.9,0,0,1-.1.5.8.8,0,0,0-.2.4l-.4.4A2.2,2.2,0,0,1,278.4,186.4Z"/></g></g></svg>