<svg xmlns="http://www.w3.org/2000/svg" viewBox="0 0 382.2 382"><defs><style>.cls-1{fill:#4CAF50;}</style></defs><title>Asset 111</title><g id="Layer_2" data-name="Layer 2"><g id="Layer_1-2" data-name="Layer 1"><path class="cls-1" d="M195.4,382a2.5,2.5,0,0,1-2.5-2.5V330.7a2.5,2.5,0,0,1,2.5-2.5,132.2,132.2,0,0,0,90.4-35.5,2.5,2.5,0,0,1,3.5.1l34.5,34.5a2.4,2.4,0,0,1,.7,1.8,2.9,2.9,0,0,1-.7,1.8A186.4,186.4,0,0,1,195.4,382Zm2.5-48.8V377a180.8,180.8,0,0,0,120.5-48l-31-31A137.7,137.7,0,0,1,197.9,333.2Z"/><path class="cls-1" d="M328.2,325.5a2.9,2.9,0,0,1-1.8-.7l-34.5-34.5a2.5,2.5,0,0,1-.1-3.5,132.1,132.1,0,0,0,36.5-91.5,2.5,2.5,0,0,1,2.5-2.5h48.9a2.5,2.5,0,0,1,2.5,2.5A185.8,185.8,0,0,1,330,324.7a2.5,2.5,0,0,1-1.8.8Zm-31.1-37.1,31,31a180.6,180.6,0,0,0,49-121.6H333.3A137.3,137.3,0,0,1,297.1,288.4Z"/><path class="cls-1" d="M379.7,189.2H330.8a2.5,2.5,0,0,1-2.5-2.5,132.5,132.5,0,0,0-35.4-90.3,2.6,2.6,0,0,1,0-3.5l34.6-34.5a2.4,2.4,0,0,1,3.6,0,186.2,186.2,0,0,1,51.1,128.3A2.5,2.5,0,0,1,379.7,189.2Zm-46.4-5h43.8A180.7,180.7,0,0,0,329.2,63.7l-31,31A137.6,137.6,0,0,1,333.3,184.2Z"/><path class="cls-1" d="M288.7,91a2.4,2.4,0,0,1-1.8-.7,132.6,132.6,0,0,0-91.5-36.5,2.5,2.5,0,0,1-2.5-2.5V2.5A2.5,2.5,0,0,1,195.4,0,185.6,185.6,0,0,1,324.9,52.2a2.5,2.5,0,0,1,.8,1.8,2.7,2.7,0,0,1-.8,1.8L290.4,90.3A2.3,2.3,0,0,1,288.7,91ZM197.9,48.8A137.4,137.4,0,0,1,288.6,85l31-31A181.1,181.1,0,0,0,197.9,5Z"/><path class="cls-1" d="M94.7,89.9a2.4,2.4,0,0,1-1.8-.7L58.4,54.7a2.7,2.7,0,0,1-.8-1.8,2.5,2.5,0,0,1,.8-1.8A185.7,185.7,0,0,1,186.7,0a2.5,2.5,0,0,1,2.5,2.5V51.3a2.5,2.5,0,0,1-2.5,2.5A132.2,132.2,0,0,0,96.4,89.3,2.7,2.7,0,0,1,94.7,89.9ZM63.7,53l31,31a137.2,137.2,0,0,1,89.5-35.2V5A180.8,180.8,0,0,0,63.7,53Z"/><path class="cls-1" d="M51.3,189.2H2.5A2.5,2.5,0,0,1,0,186.7,185.8,185.8,0,0,1,52.2,57.2a2.9,2.9,0,0,1,1.8-.7h0a2.4,2.4,0,0,1,1.8.7L90.3,91.7a2.5,2.5,0,0,1,0,3.5,132.6,132.6,0,0,0-36.5,91.5A2.5,2.5,0,0,1,51.3,189.2ZM5,184.2H48.8A137.1,137.1,0,0,1,85,93.6l-31-31A180.9,180.9,0,0,0,5,184.2Z"/><path class="cls-1" d="M52.9,324.4h0a2.5,2.5,0,0,1-1.8-.8A185.7,185.7,0,0,1,0,195.3a2.5,2.5,0,0,1,2.5-2.5H51.3a2.5,2.5,0,0,1,2.5,2.5,132.2,132.2,0,0,0,35.5,90.3,2.5,2.5,0,0,1-.1,3.5L54.7,323.6A2.5,2.5,0,0,1,52.9,324.4ZM5,197.8A181.2,181.2,0,0,0,53,318.3l31-31a137.6,137.6,0,0,1-35.2-89.5Z"/><path class="cls-1" d="M186.7,382A186.2,186.2,0,0,1,57.2,329.8a2.9,2.9,0,0,1-.7-1.8,2.4,2.4,0,0,1,.7-1.8l34.5-34.5a2.4,2.4,0,0,1,3.5,0,132.6,132.6,0,0,0,91.5,36.5,2.5,2.5,0,0,1,2.5,2.5v48.8A2.5,2.5,0,0,1,186.7,382ZM62.6,327.9A180.5,180.5,0,0,0,184.2,377V333.2a136.8,136.8,0,0,1-90.6-36.3Z"/><path class="cls-1" d="M166.2,183.5a2.5,2.5,0,0,1-2.5-2.5v-9.7a2.5,2.5,0,0,1,2.5-2.5,2.6,2.6,0,0,1,2.5,2.5V181A2.5,2.5,0,0,1,166.2,183.5Z"/><path class="cls-1" d="M216,183.3a2.5,2.5,0,0,1-2.5-2.5v-9.5a2.5,2.5,0,0,1,5,0v9.5A2.5,2.5,0,0,1,216,183.3Z"/><path class="cls-1" d="M257.5,236.8H222.7a2.5,2.5,0,0,1-2.5-2.5,2.5,2.5,0,0,1,2.5-2.5h34.8a3,3,0,0,0,3.1-3V207.1a8.5,8.5,0,0,0-6.6-8.3l-31.1-7.3a2.6,2.6,0,0,1-1.8-3,2.5,2.5,0,0,1,3-1.9l31,7.3a13.5,13.5,0,0,1,10.5,13.2v21.7A8,8,0,0,1,257.5,236.8Z"/><path class="cls-1" d="M159.4,236.8H124.6a8,8,0,0,1-8-8V207.1A13.5,13.5,0,0,1,127,193.9l31.1-7.3a2.5,2.5,0,0,1,3,1.9,2.5,2.5,0,0,1-1.9,3l-31,7.3a8.5,8.5,0,0,0-6.6,8.3v21.7a2.9,2.9,0,0,0,3,3h34.8a2.5,2.5,0,0,1,2.5,2.5A2.5,2.5,0,0,1,159.4,236.8Z"/><path class="cls-1" d="M196.6,184.2H185.5a18.8,18.8,0,0,1-11.4-3.8l-11.5-8.6a18.7,18.7,0,0,1-7.6-14.4,2.4,2.4,0,0,1,2.4-2.6,2.5,2.5,0,0,1,2.6,2.4,13.9,13.9,0,0,0,5.6,10.6l11.5,8.6a14.1,14.1,0,0,0,8.4,2.8h11.1a14.4,14.4,0,0,0,8.5-2.8l11.4-8.6a14,14,0,0,0,5.7-10.6l1-23.8a2.6,2.6,0,0,1,2.6-2.4,2.5,2.5,0,0,1,2.4,2.6l-1,23.8a19.1,19.1,0,0,1-7.7,14.4l-11.4,8.6A19.1,19.1,0,0,1,196.6,184.2Z"/><path class="cls-1" d="M191.1,184.2h-5.6a18.8,18.8,0,0,1-11.4-3.8l-11.5-8.6a18.7,18.7,0,0,1-7.6-14.4l-1-23.2a2.5,2.5,0,0,1,2.4-2.6A2.4,2.4,0,0,1,159,134l1,23.2a13.9,13.9,0,0,0,5.6,10.6l11.5,8.6a14.1,14.1,0,0,0,8.4,2.8h5.6a2.5,2.5,0,0,1,0,5Z"/><path class="cls-1" d="M197,224.2H185.1a2.5,2.5,0,0,1-1.8-.8,2.6,2.6,0,0,1-.7-1.9l.8-9.5a2.5,2.5,0,0,1,2.5-2.3h10.4a2.5,2.5,0,0,1,2.5,2.3l.7,9.5a2.6,2.6,0,0,1-.7,1.9A2.5,2.5,0,0,1,197,224.2Zm-9.2-5h6.5l-.4-4.5h-5.7Z"/><path class="cls-1" d="M194.9,214.7h-7.7a5.6,5.6,0,0,1-5.5-5.6,2.5,2.5,0,0,1,2.5-2.5,2.5,2.5,0,0,1,2.5,2.5.6.6,0,0,0,.5.6h7.7a.6.6,0,0,0,.6-.6,2.5,2.5,0,0,1,5,0A5.6,5.6,0,0,1,194.9,214.7Z"/><path class="cls-1" d="M173,218l-1.4-.2a5.6,5.6,0,0,1-4.1-3.3l-11.1-24.4a2.8,2.8,0,0,1-.1-2l3-7.4c0-.2.1-.3.2-.5a5.6,5.6,0,0,1,3.8-2.3,5.1,5.1,0,0,1,4.1,1.3L192.7,202a2.5,2.5,0,0,1,.9,2.2,3,3,0,0,1-1.4,1.9,92.1,92.1,0,0,0-15.4,10.5A5.9,5.9,0,0,1,173,218Zm-11.6-29L172,212.4a1.3,1.3,0,0,0,.7.6,1.2,1.2,0,0,0,.9-.3,134.6,134.6,0,0,1,13.2-9.3L164.1,183h-.3Z"/><path class="cls-1" d="M209.2,218a6.2,6.2,0,0,1-3.9-1.4,92.1,92.1,0,0,0-15.4-10.5,2.6,2.6,0,0,1-1.3-1.9,2.7,2.7,0,0,1,.8-2.2l25.3-22.8a5.3,5.3,0,0,1,7.9,1l.3.5,2.9,7.4a2.3,2.3,0,0,1,0,2l-11.1,24.4a5.9,5.9,0,0,1-4.1,3.3Zm-13.9-14.6a114.1,114.1,0,0,1,13.2,9.3,1.3,1.3,0,0,0,.9.3c.2-.1.6-.2.7-.6L220.8,189l-2.4-6.1h-.3Zm21.1-22.3Z"/><path class="cls-1" d="M225.7,136a3,3,0,0,1-2.6-1.4,7.7,7.7,0,0,1-1.3-4.2c-.2-4.1-1.5-18.1-8.8-22.6a2.5,2.5,0,0,1-.8-3.4,2.6,2.6,0,0,1,3.5-.8c8,4.9,10.2,17.1,10.9,24.1a60.9,60.9,0,0,1,6.1-7.9c.1-4.8,0-30.9-14.3-33a2.6,2.6,0,0,1-2.1-2.9,2.5,2.5,0,0,1,2.9-2.1c19.4,2.9,18.7,35.2,18.5,38.9a2.7,2.7,0,0,1-.8,1.9,64.6,64.6,0,0,0-8.6,11.8,2.9,2.9,0,0,1-2.5,1.6Zm7.5-16.7Z"/><path class="cls-1" d="M156.5,136.6a2.6,2.6,0,0,1-2.2-1.3,65.4,65.4,0,0,0-8.1-11.5,7.8,7.8,0,0,1-2.1-5c-.4-7,.3-24.2,14.7-36l-.4-1.1a2.6,2.6,0,0,1,1.2-3.1c9-4.6,22.6-7.2,31.4-7.4,23.4-.4,32.4,12.5,33,18.9s-.7,10.3-4,13.9c-4.9,5.5-14,8.2-27,8.2-2.3,0-4.6-.2-6.8-.4-6.3-.5-12.2-1-18.8,2.8-9,5.3-8.4,19.2-8.4,19.3a2.6,2.6,0,0,1-1.8,2.6Zm7.4-54.5.3.7a2.6,2.6,0,0,1-.9,2.9c-13.9,10.3-14.6,26.4-14.2,32.8a2.7,2.7,0,0,0,.8,1.9,63.9,63.9,0,0,1,4.8,6.1c1-5.4,3.6-12.3,10.2-16.2s15.3-4,21.8-3.5c2.1.2,4.2.4,6.3.4,11.5,0,19.4-2.2,23.3-6.5,2.3-2.6,3.2-5.9,2.8-10.1s-8.3-14.7-28-14.4C183.7,76.3,172.1,78.4,163.9,82.1Z"/><path class="cls-1" d="M156.5,136.6a2.6,2.6,0,0,1-2.5-2.4c0-.7-.7-17,10.9-23.9,7.9-4.6,15.3-4,21.8-3.5,2.1.2,4.2.4,6.3.4a71.6,71.6,0,0,0,9.6-.6,2.4,2.4,0,0,1,2.8,2.1,2.5,2.5,0,0,1-2.1,2.8,66.7,66.7,0,0,1-10.3.7c-2.3,0-4.6-.2-6.8-.4-6.3-.5-12.2-1-18.8,2.8-9,5.4-8.4,19.2-8.4,19.3a2.6,2.6,0,0,1-2.3,2.7Z"/><path class="cls-1" d="M191.3,316.2a48.4,48.4,0,1,1,48.4-48.4A48.4,48.4,0,0,1,191.3,316.2Zm0-91.8a43.4,43.4,0,1,0,43.4,43.4A43.5,43.5,0,0,0,191.3,224.4Z"/><path class="cls-1" d="M183.5,295.5a2.4,2.4,0,0,1-1.8-.7l-26.2-26.2a2.5,2.5,0,0,1,0-3.6l8.4-8.5a2.7,2.7,0,0,1,3.6,0l17.7,17.8a2.5,2.5,0,0,1-3.5,3.5l-16-16-4.9,5,24.4,24.5a2.4,2.4,0,0,1,0,3.5A2.2,2.2,0,0,1,183.5,295.5Z"/><path class="cls-1" d="M183.8,295.2A2.5,2.5,0,0,1,182,291l39.9-39.9-4.9-5-31.8,31.7a2.5,2.5,0,0,1-3.5-3.5l33.5-33.5a2.6,2.6,0,0,1,3.5,0l8.5,8.5a2.4,2.4,0,0,1,0,3.5l-41.6,41.7A2.6,2.6,0,0,1,183.8,295.2Z"/><path class="cls-1" d="M360.9,131.9a2.5,2.5,0,0,1-2.3-1.6,169.5,169.5,0,0,0-31.5-54,2.5,2.5,0,1,1,3.7-3.3,174.1,174.1,0,0,1,32.5,55.6,2.5,2.5,0,0,1-1.5,3.2Z"/><path class="cls-1" d="M368.3,159.5a2.5,2.5,0,0,1-2.4-2.1c-1-5.1-2.1-10.2-3.5-15.2a2.4,2.4,0,0,1,1.7-3.1,2.5,2.5,0,0,1,3.1,1.7c1.4,5.2,2.6,10.5,3.6,15.7a2.5,2.5,0,0,1-2,2.9Z"/></g></g></svg>