<svg id="svg2" xmlns="http://www.w3.org/2000/svg" viewBox="0 0 807 320"><defs><style>.cls-1{fill:#888;}</style></defs><title>ibm-logo-grey</title><g id="layer1"><path id="path1242" class="cls-1" d="M0,20.43H156.94V0H0Z" transform="translate(0)"/><path id="path1244" class="cls-1" d="M0,63.25H156.94V42.91H0Z" transform="translate(0)"/><path id="path1246" class="cls-1" d="M44.81,85.66h67.31v20.43H44.81Z" transform="translate(0)"/><path id="path1248" class="cls-1" d="M44.81,128.49h67.31v20.34H44.81Z" transform="translate(0)"/><path id="path1250" class="cls-1" d="M44.81,171.21h67.31v20.44H44.81Z" transform="translate(0)"/><path id="path1252" class="cls-1" d="M44.81,214h67.31v20.5H44.81Z" transform="translate(0)"/><path id="path1254" class="cls-1" d="M0,277.26H156.94V256.83H0Z" transform="translate(0)"/><path id="path1256" class="cls-1" d="M0,320H156.94V299.65H0Z" transform="translate(0)"/><path id="path1266" class="cls-1" d="M179.27,42.91H421.16c2.07,3.68,6,15.47,7,20.33H179.27V42.91" transform="translate(0)"/><path id="path1268" class="cls-1" d="M224.2,85.66h67.17v20.43H224.2Z" transform="translate(0)"/><path id="path1272" class="cls-1" d="M358.61,85.66h71.71c.24,4.72-1.73,15.82-3.06,20.43H358.61V85.66" transform="translate(0)"/><path id="path1276" class="cls-1" d="M224.21,171.22H397c5.38,3.73,14.26,14.42,18.63,20.44H224.21V171.22" transform="translate(0)"/><path id="path1278" class="cls-1" d="M224.2,214h67.17v20.5H224.2Z" transform="translate(0)"/><path id="path1282" class="cls-1" d="M358.61,214h68.25c1.48,3.17,3.67,16,3.89,20.49H358.61V214" transform="translate(0)"/><path id="path1286" class="cls-1" d="M179.27,256.83H427.92c-.35,5.13-4.2,16.56-6.28,20.42H179.27V256.83" transform="translate(0)"/><path id="path1290" class="cls-1" d="M179.27,299.66H404.09C384.16,316.36,366.57,320,335.71,320H179.27V299.66" transform="translate(0)"/><path id="path1294" class="cls-1" d="M448.33,0H576.49l6.77,20.42H448.33Z" transform="translate(0)"/><path id="path1298" class="cls-1" d="M448.33,42.91H590.68l6.72,20.33H448.33Z" transform="translate(0)"/><path id="path1302" class="cls-1" d="M493.13,85.66H604.9l6.76,20.43H493.13Z" transform="translate(0)"/><path id="path1306" class="cls-1" d="M636.26,128.5H762.13v20.33H694.91v-18l-6.19,18H629.54Z" transform="translate(0)"/><path id="path1310" class="cls-1" d="M625.83,148.83H566.56l-6.17-18v18H493.12V128.49h126Z" transform="translate(0)"/><path id="path1312" class="cls-1" d="M493.13,171.21h67.26v20.44H493.13Z" transform="translate(0)"/><path id="path1314" class="cls-1" d="M493.13,214h67.26v20.5H493.13Z" transform="translate(0)"/><path id="path1316" class="cls-1" d="M448.33,256.83H560.39v20.43H448.33Z" transform="translate(0)"/><path id="path1318" class="cls-1" d="M448.33,299.66H560.39V320H448.33Z" transform="translate(0)"/><path id="path1322" class="cls-1" d="M678.95,0H807V20.43H672.1Z" transform="translate(0)"/><path id="path1326" class="cls-1" d="M664.71,42.91H807V63.24h-149Z" transform="translate(0)"/><path id="path1330" class="cls-1" d="M650.47,85.66H762.13v20.43H643.71Z" transform="translate(0)"/><path id="path1332" class="cls-1" d="M694.91,171.21h67.22v20.44H694.91Z" transform="translate(0)"/><path id="path1334" class="cls-1" d="M694.91,214h67.22v20.5H694.91Z" transform="translate(0)"/><path id="path1336" class="cls-1" d="M694.91,256.83H807v20.43H694.91Z" transform="translate(0)"/><path id="path1338" class="cls-1" d="M694.91,299.66H807V320H694.91Z" transform="translate(0)"/><path id="path1342" class="cls-1" d="M574.14,171.22H681.23l-6.92,20.44H581.1Z" transform="translate(0)"/><path id="path1346" class="cls-1" d="M588.64,214h78.07l-6.94,20.49h-64.2Z" transform="translate(0)"/><path id="path1350" class="cls-1" d="M603.12,256.83H652.2l-6.92,20.42H610.09Z" transform="translate(0)"/><path id="path1354" class="cls-1" d="M617.65,299.66h20.12l-7,20.34h-6.22Z" transform="translate(0)"/><path id="path1358" class="cls-1" d="M224.21,148.86H397c5.61-3.88,15.94-14.65,20.1-20.37H224.21v20.37" transform="translate(0)"/><path id="path1362" class="cls-1" d="M179.27,20.43H404.09C384.16,3.73,366.57.09,335.71.09H179.27V20.43" transform="translate(0)"/></g></svg>