<svg id="Layer_1" data-name="Layer 1" xmlns="http://www.w3.org/2000/svg" viewBox="0 0 453.5 405.2"><defs><style>.cls-1{fill:#708a95;}.cls-2{fill:#69ba6d;}.cls-3{fill:#fda639;}.cls-4{fill:#fd704b;}.cls-5{fill:#546e7a;}.cls-6{fill:none;stroke:#808184;stroke-miterlimit:10;stroke-width:0.75px;}</style></defs><title>iceberg</title><g id="Layer_2" data-name="Layer 2"><g id="Layer_1-2" data-name="Layer 1-2"><path id="_Path_" data-name="&lt;Path&gt;" class="cls-1" d="M250.6,133.1a17.7,17.7,0,0,1-.1,2.4,16.4,16.4,0,0,1-.2,2.2,42.6,42.6,0,0,1-1,4.9,57.5,57.5,0,0,1-2.3,6.6l-.2.3h-.2l-.3-.2-5.7-3.7-.3-.3c-.1,0-.1-.1-.1-.2a1.4,1.4,0,0,0,.2-.7,26.4,26.4,0,0,0,1.2-4,21.4,21.4,0,0,0,.6-3.5,5.7,5.7,0,0,0,0-1.3l-.2-.3-.5-.2a33.6,33.6,0,0,0-7.4-2.4l-3.3-.4a18.2,18.2,0,0,0-3.3-.1l-3.4.2a35.5,35.5,0,0,0-6.4,1.7h-.4a1.6,1.6,0,0,0-.9.5l.8.6,8.3,4.7,11,6.2,8.2,4.7.9.5a.4.4,0,0,1,.2.5h0a4.1,4.1,0,0,1-.7,1.1,44.9,44.9,0,0,1-7.9,9.5,43.9,43.9,0,0,1-8,5.8l-.6.3a.2.2,0,0,1-.3,0H228a59.7,59.7,0,0,1-9-6.9,44.4,44.4,0,0,1-6-6.9,34.9,34.9,0,0,1-5.1-11.5l-.3-1.4a.2.2,0,0,1,0-.3h.3l4.5,2.6,5.4,3.1.5.2.5.6,1.2,2.2a18.5,18.5,0,0,0,3,3.9,24.1,24.1,0,0,0,4.8,4.2l.3.2a.5.5,0,0,0,.7.1l2.6-1.7a13.1,13.1,0,0,0,2.3-2.4l.3-.4V154l-.4-.2-7.8-4.4-11.3-6.5-6.6-3.8-.6-.4-.3-.3h0a30.3,30.3,0,0,0-.2-3.1l-.3-3.6v-1.1a.4.4,0,0,1,.1-.3l.4-.2a47.9,47.9,0,0,1,10.1-4.5,50.7,50.7,0,0,1,5.6-1.3l2.2-.3a40.1,40.1,0,0,1,4.9-.1,23.1,23.1,0,0,1,3.7.3,39.2,39.2,0,0,1,6.6,1.5,49,49,0,0,1,8.6,3.6l1.6,1c.1,0,.2.2.2.4S250.6,132.4,250.6,133.1Z"/></g></g><path id="_Compound_Path_" data-name="&lt;Compound Path&gt;" class="cls-2" d="M423.2,399.3H40.5l1.6-2.9,185-355.3,1.8,3.3Zm-378-2.9H418.6L227.2,46.9Z"/><path id="_Compound_Path_2" data-name="&lt;Compound Path&gt;" class="cls-3" d="M78.5,129.9H75.9v-2.6h2.5Zm2.7,0v-2.6h2.5l.2,2.6Zm-7.9-.1-2.6-.2.2-2.6,2.5.2Zm13.1-.2-.2-2.6,2.5-.3.3,2.6ZM68,129.3l-2.6-.4.4-2.5,2.5.3Zm23.7-.4-.4-2.5,2.5-.5.4,2.6Zm-28.9-.4-2.6-.5.6-2.6,2.5.6Zm34-.6-.5-2.5,2.4-.6.7,2.5Zm-39.1-.6-2.6-.7.8-2.5,2.4.7Zm44.2-.7-.7-2.5,2.4-.8.8,2.4Zm-49.3-.8-2.5-1,1-2.4,2.4.9Zm54.3-1-.9-2.4,2.3-1,1.1,2.4Zm-59.2-1-2.4-1.2,1.2-2.3,2.3,1.1Zm64-1.2-1.2-2.3,2.2-1.3,1.4,2.2ZM43,121.3l-2.2-1.5,1.5-2.1a19.1,19.1,0,0,0,2.1,1.4Zm73.3-1.5-1.5-2.1,2-1.6,1.6,2A19.3,19.3,0,0,1,116.3,119.8Zm-77.7-1.7c-.7-.5-1.3-1.2-2-1.8l1.9-1.8a14.9,14.9,0,0,0,1.8,1.7Zm81.8-1.8-1.8-1.8c.6-.6,1.1-1.3,1.6-1.9l2,1.6A16.8,16.8,0,0,1,120.4,116.3Zm-85.6-2a22.2,22.2,0,0,1-1.5-2.3l2.2-1.3a18.6,18.6,0,0,0,1.4,2Zm89-2.4-2.2-1.3a20,20,0,0,0,1-2.1l2.4.9A11.5,11.5,0,0,1,123.8,111.9ZM32,109.5a27.6,27.6,0,0,1-.8-2.7l2.6-.5a18,18,0,0,0,.6,2.2Zm93.8-2.8-2.6-.5a8.5,8.5,0,0,0,.3-2.3H126A13.2,13.2,0,0,1,125.8,106.7ZM31,104h0c0-.9.1-1.8.2-2.8l2.6.5a9.1,9.1,0,0,0-.3,2.3Zm92.2-2.5a8.8,8.8,0,0,0-.7-2.3l2.4-1a14.3,14.3,0,0,1,.9,2.7ZM34.4,99.4l-2.4-1a14.2,14.2,0,0,1,1.2-2.5l2.2,1.3A14.7,14.7,0,0,0,34.4,99.4Zm87.1-2.3a14.3,14.3,0,0,0-1.4-2l2-1.6a15.3,15.3,0,0,1,1.6,2.2ZM36.8,95.2l-2.1-1.6,1.8-2,1.9,1.8Zm81.7-2-1.8-1.6,1.6-2,2,1.8ZM40.2,91.7l-1.7-2,2.2-1.6,1.5,2.1Zm74.5-1.6-2.1-1.4,1.4-2.2c.7.5,1.5.9,2.2,1.5ZM44.2,88.8l-1.3-2.2a17.1,17.1,0,0,1,2.3-1.3l1.2,2.2Zm66.2-1.4-2.2-1.1,1-2.3,2.4,1.2Zm-61.7-1-1.1-2.3L50,83l1,2.4Zm57.1-1.1-2.3-.9.8-2.4,2.5.9Zm-52.4-.8-.9-2.4,2.5-.9.8,2.5Zm47.7-.9-2.5-.7.7-2.5,2.5.8ZM58.2,83l-.6-2.5,2.5-.6.6,2.5Zm37.9-.7-2.5-.5.5-2.5,2.6.5Zm-32.9-.4-.5-2.6,2.6-.4.4,2.5Zm27.9-.5L88.6,81l.3-2.5,2.6.3Zm-22.9-.3-.3-2.6,2.6-.3.3,2.6Zm17.9-.3-2.6-.2.2-2.6,2.6.2Zm-12.8-.2V78h2.6v2.6Zm7.7-.1H78.5V77.9H81Z"/><rect id="_Path_2" data-name="&lt;Path&gt;" class="cls-4" x="23.3" y="144.6" width="150" height="1.94"/><rect id="_Path_3" data-name="&lt;Path&gt;" class="cls-4" x="283.8" y="144.7" width="150" height="1.94"/><g id="_Group_" data-name="&lt;Group&gt;"><path class="cls-5" d="M264,74.7v-10h2.8a4.4,4.4,0,0,1,3.9,2.2,6.6,6.6,0,0,1,.5,2.5V70a6.2,6.2,0,0,1-.5,2.5,4.4,4.4,0,0,1-3.9,2.2Zm1.3-8.9v7.8h1.4a3.2,3.2,0,0,0,2.4-.9,4.6,4.6,0,0,0,.8-2.7v-.6a3.5,3.5,0,0,0-.8-2.6,2.6,2.6,0,0,0-2.2-1Z"/><path class="cls-5" d="M273,65.3c0-.2.1-.3.2-.5l.6-.2.5.2c.1.2.2.3.2.5a.8.8,0,0,1-.2.5c-.1.2-.3.2-.5.2s-.5,0-.6-.2A.8.8,0,0,1,273,65.3Zm1.4,9.4h-1.3V67.3h1.3Z"/><path class="cls-5" d="M280.7,72.7a.9.9,0,0,0-.4-.8,4.4,4.4,0,0,0-1.3-.5,5,5,0,0,1-1.6-.5,2.4,2.4,0,0,1-.8-.6,1.7,1.7,0,0,1-.3-1,1.9,1.9,0,0,1,.8-1.5,3.6,3.6,0,0,1,4,0,2.1,2.1,0,0,1,.8,1.7h-1.3a1,1,0,0,0-.4-.9,1.5,1.5,0,0,0-1.1-.4,1.8,1.8,0,0,0-1.1.3.9.9,0,0,0-.4.8.8.8,0,0,0,.4.7,3.9,3.9,0,0,0,1.3.4l1.5.5a3.5,3.5,0,0,1,.9.7,1.7,1.7,0,0,1,.3,1,1.9,1.9,0,0,1-.8,1.6,3.5,3.5,0,0,1-2.1.6,4.1,4.1,0,0,1-1.6-.3,2.2,2.2,0,0,1-1-.9,1.7,1.7,0,0,1-.4-1.2h1.3a1,1,0,0,0,.5,1,1.6,1.6,0,0,0,1.2.4,2.1,2.1,0,0,0,1.2-.3A.9.9,0,0,0,280.7,72.7Z"/><path class="cls-5" d="M286.6,73.8a1.9,1.9,0,0,0,1.2-.4,1.4,1.4,0,0,0,.5-1h1.2a1.9,1.9,0,0,1-.4,1.2,3.3,3.3,0,0,1-1.1.9,3.2,3.2,0,0,1-1.4.3,3,3,0,0,1-2.4-1,4,4,0,0,1-.9-2.7v-.3a4.1,4.1,0,0,1,.4-1.9,3.5,3.5,0,0,1,1.1-1.3,3.4,3.4,0,0,1,1.8-.4,2.7,2.7,0,0,1,2,.7,2.3,2.3,0,0,1,.9,1.9h-1.2a1.6,1.6,0,0,0-.5-1.1,1.3,1.3,0,0,0-1.2-.5,1.6,1.6,0,0,0-1.5.7,3,3,0,0,0-.5,2v.2a3,3,0,0,0,.5,2A1.6,1.6,0,0,0,286.6,73.8Z"/><path class="cls-5" d="M290.6,70.9A5.3,5.3,0,0,1,291,69a3.3,3.3,0,0,1,1.2-1.4,3.4,3.4,0,0,1,1.8-.4,3,3,0,0,1,2.4,1,4.1,4.1,0,0,1,.9,2.8h0a4.1,4.1,0,0,1-.4,1.9,2.2,2.2,0,0,1-1.2,1.3,2.6,2.6,0,0,1-1.7.5,3.3,3.3,0,0,1-2.5-1,4.1,4.1,0,0,1-.9-2.8Zm1.3.2a2.7,2.7,0,0,0,.6,1.9,1.6,1.6,0,0,0,1.5.8,1.9,1.9,0,0,0,1.5-.8,3.3,3.3,0,0,0,.6-2.1,3.4,3.4,0,0,0-.6-2,1.8,1.8,0,0,0-1.5-.7,1.6,1.6,0,0,0-1.5.7A3.4,3.4,0,0,0,291.9,71.1Z"/><path class="cls-5" d="M301.3,73l1.8-5.7h1.3l-2.7,7.4h-.9l-2.7-7.4h1.3Z"/><path class="cls-5" d="M308.6,74.8a3.3,3.3,0,0,1-2.5-1,3.6,3.6,0,0,1-.9-2.6V71a4.2,4.2,0,0,1,.4-2,4.1,4.1,0,0,1,1.2-1.4,2.9,2.9,0,0,1,1.6-.4,3,3,0,0,1,2.3.9,4.1,4.1,0,0,1,.8,2.7v.6h-5a2.4,2.4,0,0,0,.6,1.7,1.9,1.9,0,0,0,1.6.7,2,2,0,0,0,1.1-.3,2.7,2.7,0,0,0,.8-.7l.8.6A3.2,3.2,0,0,1,308.6,74.8Zm-.2-6.6a1.8,1.8,0,0,0-1.3.6,2.6,2.6,0,0,0-.6,1.5h3.7a2.5,2.5,0,0,0-.5-1.5A1.7,1.7,0,0,0,308.4,68.2Z"/><path class="cls-5" d="M316.5,68.4h-.6a1.7,1.7,0,0,0-1.7,1v5.3h-1.3V67.3h1.3v.8a2,2,0,0,1,1.8-.9h.5Z"/><path class="cls-5" d="M320.2,72.8l1.7-5.5h1.4l-3,8.5a2.3,2.3,0,0,1-2.2,1.9h-.7V76.5h.4a1.7,1.7,0,0,0,1-.3,1.9,1.9,0,0,0,.5-.9l.3-.8L317,67.3h1.4Z"/><path class="cls-5" d="M327.6,72a2.8,2.8,0,0,1,.4-1.3,6.9,6.9,0,0,1,1.5-1.4,5.1,5.1,0,0,1-.8-1.3,1.9,1.9,0,0,1-.3-1,2.9,2.9,0,0,1,.7-1.8,2.8,2.8,0,0,1,1.8-.6,2.4,2.4,0,0,1,1.7.6,1.8,1.8,0,0,1,.7,1.5,2,2,0,0,1-.3,1.1,3.8,3.8,0,0,1-1.1,1.1l-.7.5,2.2,2.7a4.6,4.6,0,0,0,.5-2H335a5.2,5.2,0,0,1-.8,2.9l1.4,1.7h-1.5l-.7-.8a3.5,3.5,0,0,1-1.2.7l-1.4.2a3.5,3.5,0,0,1-2.3-.7A2.7,2.7,0,0,1,327.6,72Zm3.2,1.8a2.9,2.9,0,0,0,1.9-.8l-2.4-2.9-.3.2a2.2,2.2,0,0,0-1.1,1.7,1.7,1.7,0,0,0,.5,1.3A2.2,2.2,0,0,0,330.8,73.8ZM329.7,67a3,3,0,0,0,.8,1.6l.8-.5.6-.7a.8.8,0,0,0,.2-.7,1.1,1.1,0,0,0-.3-.8,1.4,1.4,0,0,0-.9-.3,1.3,1.3,0,0,0-.9.4A1.7,1.7,0,0,0,329.7,67Z"/><path class="cls-5" d="M341.6,73.6h4.7v1.1h-6v-10h1.3Z"/><path class="cls-5" d="M347.6,65.3c0-.2.1-.3.2-.5l.5-.2a.8.8,0,0,1,.6.2c.1.2.2.3.2.5a.8.8,0,0,1-.2.5c-.1.2-.3.2-.6.2s-.4,0-.5-.2A.8.8,0,0,1,347.6,65.3Zm1.4,9.4h-1.3V67.3H349Z"/><path class="cls-5" d="M354,73.8a1.5,1.5,0,0,0,1.1-.4,1.2,1.2,0,0,0,.6-1h1.2a2.8,2.8,0,0,1-.4,1.2,4.8,4.8,0,0,1-1.1.9,3.5,3.5,0,0,1-1.4.3,2.7,2.7,0,0,1-2.4-1,4,4,0,0,1-.9-2.7v-.3a4.1,4.1,0,0,1,.4-1.9,2.8,2.8,0,0,1,1.1-1.3,3.3,3.3,0,0,1,1.7-.4,2.8,2.8,0,0,1,2.1.7,2.3,2.3,0,0,1,.9,1.9h-1.2a1.6,1.6,0,0,0-.5-1.1,1.7,1.7,0,0,0-1.3-.5,1.5,1.5,0,0,0-1.4.7,3,3,0,0,0-.6,2v.2a3.7,3.7,0,0,0,.5,2A1.9,1.9,0,0,0,354,73.8Z"/><path class="cls-5" d="M361.4,74.8a3.3,3.3,0,0,1-2.5-1,3.6,3.6,0,0,1-.9-2.6V71a4.2,4.2,0,0,1,.4-2,4.1,4.1,0,0,1,1.2-1.4,2.9,2.9,0,0,1,1.6-.4,3,3,0,0,1,2.3.9,4.1,4.1,0,0,1,.8,2.7v.6h-5a2.4,2.4,0,0,0,.6,1.7,1.9,1.9,0,0,0,1.6.7,2,2,0,0,0,1.1-.3,2.7,2.7,0,0,0,.8-.7l.8.6A3.2,3.2,0,0,1,361.4,74.8Zm-.2-6.6a1.8,1.8,0,0,0-1.3.6,2.6,2.6,0,0,0-.6,1.5H363a2.5,2.5,0,0,0-.5-1.5A1.7,1.7,0,0,0,361.2,68.2Z"/><path class="cls-5" d="M366.9,67.3v.9a2.6,2.6,0,0,1,2.2-1c1.5,0,2.3.8,2.3,2.6v4.9h-1.2V69.8a1.4,1.4,0,0,0-1.5-1.6,1.5,1.5,0,0,0-1.1.4,2.7,2.7,0,0,0-.7.8v5.3h-1.3V67.3Z"/><path class="cls-5" d="M376.4,73.8a1.6,1.6,0,0,0,1.2-.4,2.1,2.1,0,0,0,.6-1h1.2a3.1,3.1,0,0,1-.5,1.2,2.5,2.5,0,0,1-1.1.9,3.2,3.2,0,0,1-1.4.3,3,3,0,0,1-2.4-1,4,4,0,0,1-.9-2.7v-.3a5.8,5.8,0,0,1,.4-1.9,3.7,3.7,0,0,1,1.2-1.3,3.1,3.1,0,0,1,1.7-.4,3.1,3.1,0,0,1,2.1.7,3.1,3.1,0,0,1,.9,1.9h-1.2a2.4,2.4,0,0,0-.6-1.1,1.3,1.3,0,0,0-1.2-.5,1.8,1.8,0,0,0-1.5.7,3.7,3.7,0,0,0-.5,2v.2a3.7,3.7,0,0,0,.5,2A1.8,1.8,0,0,0,376.4,73.8Z"/><path class="cls-5" d="M383.9,74.8a3.2,3.2,0,0,1-2.5-1,3.6,3.6,0,0,1-.9-2.6V71a4.2,4.2,0,0,1,.4-2,4.1,4.1,0,0,1,1.2-1.4,2.9,2.9,0,0,1,1.6-.4,2.7,2.7,0,0,1,2.2.9,3.6,3.6,0,0,1,.8,2.7v.6h-5a2.4,2.4,0,0,0,.7,1.7,1.8,1.8,0,0,0,1.5.7,2.4,2.4,0,0,0,1.2-.3l.8-.7.7.6A3.1,3.1,0,0,1,383.9,74.8Zm-.2-6.6a1.8,1.8,0,0,0-1.3.6,2.6,2.6,0,0,0-.6,1.5h3.7a3.3,3.3,0,0,0-.5-1.5A2.1,2.1,0,0,0,383.7,68.2Z"/><path class="cls-5" d="M395.5,70.7h-2.3v4h-1.3v-10h3.3a3.7,3.7,0,0,1,2.5.8,2.8,2.8,0,0,1,.9,2.2,2.2,2.2,0,0,1-.5,1.6,2.6,2.6,0,0,1-1.4,1.1l2.4,4.2h-1.4Zm-2.3-1.1h2a2.3,2.3,0,0,0,1.5-.5,1.8,1.8,0,0,0,.6-1.4,2,2,0,0,0-.5-1.4,2.5,2.5,0,0,0-1.6-.5h-2Z"/><path class="cls-5" d="M403.4,74.8a3.2,3.2,0,0,1-2.5-1,3.6,3.6,0,0,1-.9-2.6V71a4.2,4.2,0,0,1,.4-2,4.1,4.1,0,0,1,1.2-1.4,2.9,2.9,0,0,1,1.6-.4,2.7,2.7,0,0,1,2.2.9,3.6,3.6,0,0,1,.8,2.7v.6h-5a2.4,2.4,0,0,0,.7,1.7,1.8,1.8,0,0,0,1.5.7,2.1,2.1,0,0,0,1.2-.3l.8-.7.7.6A3.1,3.1,0,0,1,403.4,74.8Zm-.2-6.6a1.8,1.8,0,0,0-1.3.6,2.6,2.6,0,0,0-.6,1.5H405a3.3,3.3,0,0,0-.5-1.5A2.1,2.1,0,0,0,403.2,68.2Z"/><path class="cls-5" d="M414,71.1a4.6,4.6,0,0,1-.8,2.7,2.4,2.4,0,0,1-2.1,1A2.9,2.9,0,0,1,409,74v3.5h-1.3V67.3h1.2v.8a2.8,2.8,0,0,1,2.2-.9,2.4,2.4,0,0,1,2.1,1A4.4,4.4,0,0,1,414,71Zm-1.3-.2a3.3,3.3,0,0,0-.5-1.9,1.9,1.9,0,0,0-1.5-.8,1.9,1.9,0,0,0-1.7,1v3.6a1.7,1.7,0,0,0,1.7,1,1.8,1.8,0,0,0,1.5-.7A4.2,4.2,0,0,0,412.7,70.9Z"/><path class="cls-5" d="M415.2,70.9a3.8,3.8,0,0,1,.5-1.9,2.6,2.6,0,0,1,1.1-1.4,3.4,3.4,0,0,1,1.8-.4,3,3,0,0,1,2.4,1,4.1,4.1,0,0,1,1,2.8h0a4.1,4.1,0,0,1-.5,1.9,2.4,2.4,0,0,1-1.1,1.3,2.9,2.9,0,0,1-1.8.5,3,3,0,0,1-2.4-1,3.7,3.7,0,0,1-1-2.8Zm1.3.2a2.7,2.7,0,0,0,.6,1.9,1.8,1.8,0,0,0,1.5.8,1.9,1.9,0,0,0,1.5-.8,3.3,3.3,0,0,0,.6-2.1,3.4,3.4,0,0,0-.6-2,2,2,0,0,0-3,0A3.4,3.4,0,0,0,416.5,71.1Z"/><path class="cls-5" d="M427.1,68.4h-.6a1.7,1.7,0,0,0-1.7,1v5.3h-1.3V67.3h1.3v.8a2,2,0,0,1,1.8-.9h.5Z"/><path class="cls-5" d="M430.3,65.5v1.8h1.4v1h-1.4v4.6a.8.8,0,0,0,.2.6.8.8,0,0,0,.7.3h.6v1h-1a1.4,1.4,0,0,1-1.3-.5,2,2,0,0,1-.4-1.4V68.3h-1.4v-1h1.4V65.5Z"/><path class="cls-5" d="M437.5,72.7a.9.9,0,0,0-.4-.8,4.4,4.4,0,0,0-1.3-.5,5,5,0,0,1-1.6-.5,2.4,2.4,0,0,1-.8-.6,1.7,1.7,0,0,1-.3-1,1.9,1.9,0,0,1,.8-1.5,3.6,3.6,0,0,1,4,0,2.1,2.1,0,0,1,.8,1.7h-1.3a1,1,0,0,0-.4-.9,1.5,1.5,0,0,0-1.1-.4,1.8,1.8,0,0,0-1.1.3.9.9,0,0,0-.4.8.8.8,0,0,0,.4.7,3.9,3.9,0,0,0,1.3.4l1.5.5a3.5,3.5,0,0,1,.9.7,1.7,1.7,0,0,1,.3,1,1.9,1.9,0,0,1-.8,1.6,3.5,3.5,0,0,1-2.1.6,4.1,4.1,0,0,1-1.6-.3,2.2,2.2,0,0,1-1-.9,1.7,1.7,0,0,1-.4-1.2h1.3a1,1,0,0,0,.5,1,1.6,1.6,0,0,0,1.2.4,2.1,2.1,0,0,0,1.2-.3A.9.9,0,0,0,437.5,72.7Z"/></g><g id="_Group_2" data-name="&lt;Group&gt;"><path class="cls-5" d="M67.2,103.6H62.9v3.5h5v1.1H61.6v-10h6.2v1.1H62.9v3.2h4.3Z"/><path class="cls-5" d="M69.8,108.2v-6.4H68.7v-1h1.1V100a2.5,2.5,0,0,1,.7-1.8,2.4,2.4,0,0,1,1.8-.6h.9v1h-.7a1.3,1.3,0,0,0-1,.4,1.5,1.5,0,0,0-.3,1v.8h1.6v1H71.1v6.4Z"/><path class="cls-5" d="M74.7,108.2v-6.4H73.5v-1h1.2V100a2.4,2.4,0,0,1,.6-1.8,2.8,2.8,0,0,1,1.8-.6H78v1h-.6a1.1,1.1,0,0,0-1,.4,1.5,1.5,0,0,0-.3,1v.8h1.6v1H76v6.4Z"/><path class="cls-5" d="M81.9,108.3a3.2,3.2,0,0,1-2.5-1,3.6,3.6,0,0,1-.9-2.6v-.2a4.2,4.2,0,0,1,.4-2,3,3,0,0,1,1.2-1.3,2.4,2.4,0,0,1,1.6-.5,2.7,2.7,0,0,1,2.2.9,3.8,3.8,0,0,1,.8,2.7v.6h-5a2.4,2.4,0,0,0,.7,1.7,1.8,1.8,0,0,0,1.5.7,2.4,2.4,0,0,0,1.2-.3l.8-.7.7.6A2.9,2.9,0,0,1,81.9,108.3Zm-.2-6.6a1.8,1.8,0,0,0-1.3.6,3,3,0,0,0-.6,1.5h3.7a3.3,3.3,0,0,0-.5-1.5A2.1,2.1,0,0,0,81.7,101.7Z"/><path class="cls-5" d="M89.2,107.3a1.9,1.9,0,0,0,1.2-.4,1.4,1.4,0,0,0,.5-1h1.2a2.8,2.8,0,0,1-.4,1.2,3.1,3.1,0,0,1-1.1.9,3.5,3.5,0,0,1-1.4.3,3,3,0,0,1-2.4-1,3.8,3.8,0,0,1-.9-2.7v-.2a4.2,4.2,0,0,1,.4-2,2.8,2.8,0,0,1,1.1-1.3,3.4,3.4,0,0,1,1.8-.4,2.7,2.7,0,0,1,2,.7,2.3,2.3,0,0,1,.9,1.9H90.9a1.6,1.6,0,0,0-.5-1.1,2.1,2.1,0,0,0-1.2-.5,1.6,1.6,0,0,0-1.5.7,3,3,0,0,0-.6,2v.2a3,3,0,0,0,.6,2A1.6,1.6,0,0,0,89.2,107.3Z"/><path class="cls-5" d="M95.2,99v1.8h1.4v1H95.2v4.6a.8.8,0,0,0,.2.6.9.9,0,0,0,.7.3h.6v1h-1a1.4,1.4,0,0,1-1.3-.5,2,2,0,0,1-.4-1.4v-4.6H92.6v-1H94V99Z"/></g><path id="_Compound_Path_3" data-name="&lt;Compound Path&gt;" class="cls-3" d="M78.4,214.7H75.8v-2.5h2.5Zm2.7-.1v-2.5l2.5-.2.2,2.6Zm-7.9-.1-2.6-.2.2-2.5,2.5.2Zm13.1-.2-.2-2.5,2.5-.3.3,2.5A20.6,20.6,0,0,1,86.3,214.3Zm-18.4-.2-2.6-.4.4-2.6,2.6.4Zm23.7-.4-.4-2.6,2.5-.4.5,2.5Zm-28.9-.5-2.6-.5.6-2.5,2.5.5Zm34-.5-.5-2.5,2.4-.6.7,2.5Zm-39.1-.6-2.6-.7.8-2.5,2.4.7Zm44.2-.8-.7-2.4,2.4-.8.9,2.4Zm-49.3-.8-2.4-.9.9-2.4,2.4.9Zm54.3-.9-.9-2.4,2.3-1,1.1,2.3Zm-59.2-1.1-2.4-1.1,1.2-2.3,2.3,1.1Zm64.1-1.2-1.3-2.3,2.2-1.2L114,206ZM42.9,206a16.4,16.4,0,0,1-2.2-1.4l1.5-2.2a11,11,0,0,0,2.1,1.4Zm73.3-1.5-1.5-2.1,2-1.5,1.6,2A19.2,19.2,0,0,1,116.2,204.5Zm-77.7-1.6-2-1.8,1.9-1.8,1.8,1.6Zm81.8-1.9-1.8-1.8,1.6-1.8,2,1.6A11.2,11.2,0,0,1,120.3,201Zm-85.6-2a18.2,18.2,0,0,1-1.5-2.3l2.2-1.3a14.3,14.3,0,0,0,1.4,2Zm89-2.3-2.2-1.3a14.7,14.7,0,0,0,1-2.2l2.4,1A14.2,14.2,0,0,1,123.7,196.7Zm-91.8-2.5a13.4,13.4,0,0,1-.7-2.7l2.5-.5a10.1,10.1,0,0,0,.7,2.3Zm93.8-2.7-2.5-.5a19.5,19.5,0,0,0,.2-2.3l2.6-.2v.2A14.1,14.1,0,0,1,125.7,191.5Zm-94.8-2.8h0a24.6,24.6,0,0,1,.2-2.8l2.6.5a8.6,8.6,0,0,0-.2,2.3Zm92.2-2.5a18,18,0,0,0-.6-2.2l2.4-1a27.6,27.6,0,0,1,.8,2.7Zm-88.8-2.1-2.4-.9a14.2,14.2,0,0,1,1.2-2.5l2.2,1.3A20,20,0,0,0,34.3,184.1Zm87.1-2.3-1.4-2,2.1-1.6c.5.8,1.1,1.5,1.5,2.3ZM36.7,180l-2-1.6,1.7-2.1,1.9,1.8C37.7,178.7,37.2,179.4,36.7,180Zm81.7-2-1.8-1.7,1.6-1.9,2,1.8Zm-78.3-1.5-1.7-2,2.2-1.7,1.5,2.1A15.6,15.6,0,0,0,40.1,176.5Zm74.5-1.7-2.1-1.4,1.4-2.2,2.2,1.5Zm-70.4-1.3-1.4-2.2,2.3-1.3,1.2,2.3Zm66.1-1.3-2.2-1.1,1.1-2.4,2.3,1.2Zm-61.7-1-1.1-2.4,2.4-1,1,2.4Zm57.1-1.1-2.3-.9.8-2.4,2.5.9Zm-52.4-.8-.9-2.5,2.5-.8.8,2.5Zm47.7-.9-2.5-.7.7-2.5,2.5.7Zm-42.9-.7-.6-2.4,2.5-.7.6,2.5Zm37.9-.6-2.4-.5L94,164l2.6.6Zm-32.9-.5-.5-2.5,2.6-.5.4,2.6Zm27.9-.4-2.5-.4.3-2.6,2.6.4Zm-22.9-.4-.3-2.5,2.6-.3.3,2.6Zm17.9-.3-2.6-.2.2-2.5,2.6.2Zm-12.8-.1v-2.6h2.6v2.5Zm7.7-.2H78.4v-2.6h2.6Z"/><g id="_Group_3" data-name="&lt;Group&gt;"><path class="cls-5" d="M69.8,189.4a3.5,3.5,0,0,1-1.2,2.4,3.7,3.7,0,0,1-2.6.9,3.3,3.3,0,0,1-2.8-1.3,4.9,4.9,0,0,1-1.1-3.3v-1a6,6,0,0,1,.5-2.4A3.9,3.9,0,0,1,64,183a4.6,4.6,0,0,1,2.1-.5,3.3,3.3,0,0,1,2.5.9,3.3,3.3,0,0,1,1.2,2.4H68.4a2.5,2.5,0,0,0-.7-1.7,2.1,2.1,0,0,0-1.6-.6,2.6,2.6,0,0,0-2,1,4.7,4.7,0,0,0-.7,2.6v1a4.2,4.2,0,0,0,.7,2.6,2.2,2.2,0,0,0,1.9.9,2.3,2.3,0,0,0,1.7-.5,2.5,2.5,0,0,0,.7-1.7Z"/><path class="cls-5" d="M75.9,192.6a4.5,4.5,0,0,1-.2-.8,2.6,2.6,0,0,1-2.1.9,2.8,2.8,0,0,1-1.8-.6,2.4,2.4,0,0,1-.7-1.6,2,2,0,0,1,.9-1.8,4.4,4.4,0,0,1,2.5-.6h1.2v-.6a1.5,1.5,0,0,0-.4-1.1,1.6,1.6,0,0,0-1.1-.4,2.1,2.1,0,0,0-1.2.4.9.9,0,0,0-.4.8H71.3a1.7,1.7,0,0,1,.4-1.1,2.4,2.4,0,0,1,1.1-.8,3.2,3.2,0,0,1,1.4-.3,2.4,2.4,0,0,1,2,.7,2.1,2.1,0,0,1,.8,1.7v3.4a7.2,7.2,0,0,0,.2,1.7H75.9Zm-2.1-1,1.2-.3a1.8,1.8,0,0,0,.7-.8V189h-1c-1.5,0-2.3.4-2.3,1.3a1.3,1.3,0,0,0,.4,1A1.7,1.7,0,0,0,73.8,191.6Z"/><path class="cls-5" d="M83.5,191.8a2.6,2.6,0,0,1-2.1.9,2.1,2.1,0,0,1-1.8-.7,2.8,2.8,0,0,1-.7-2v-4.8h1.3v4.7c0,1.2.5,1.7,1.4,1.7a1.8,1.8,0,0,0,1.9-1.1v-5.3h1.3v7.4H83.6Z"/><path class="cls-5" d="M91,190.6a.9.9,0,0,0-.4-.8,4.4,4.4,0,0,0-1.3-.5,5,5,0,0,1-1.6-.5,2.7,2.7,0,0,1-.8-.7,1.2,1.2,0,0,1-.3-.9,1.9,1.9,0,0,1,.8-1.5,3.2,3.2,0,0,1,4,0,2.1,2.1,0,0,1,.8,1.6H90.9a1.2,1.2,0,0,0-.4-.9,2,2,0,0,0-1.1-.3,1.6,1.6,0,0,0-1.1.3.8.8,0,0,0-.4.8.5.5,0,0,0,.4.6,3.4,3.4,0,0,0,1.3.5l1.5.5a2.2,2.2,0,0,1,.9.7,1.7,1.7,0,0,1,.3,1,1.9,1.9,0,0,1-.8,1.6,3.5,3.5,0,0,1-2.1.6,4.1,4.1,0,0,1-1.6-.3,2.2,2.2,0,0,1-1-.9,1.9,1.9,0,0,1-.4-1.2h1.2a1.5,1.5,0,0,0,.6,1,2.2,2.2,0,0,0,2.4.1A.9.9,0,0,0,91,190.6Z"/><path class="cls-5" d="M97,192.7a3.3,3.3,0,0,1-2.5-1,3.6,3.6,0,0,1-.9-2.6v-.3a3.8,3.8,0,0,1,.4-1.9,3.3,3.3,0,0,1,1.2-1.4,3,3,0,0,1,1.6-.5,2.8,2.8,0,0,1,2.3,1,4.1,4.1,0,0,1,.8,2.7v.5h-5a2.6,2.6,0,0,0,.6,1.8,2.2,2.2,0,0,0,2.7.4,2.7,2.7,0,0,0,.8-.7l.8.6A3.4,3.4,0,0,1,97,192.7Zm-.2-6.6a2.1,2.1,0,0,0-1.3.5,3.4,3.4,0,0,0-.6,1.6h3.7a2.3,2.3,0,0,0-.5-1.5A1.5,1.5,0,0,0,96.8,186.1Z"/></g><g id="_Group_4" data-name="&lt;Group&gt;"><g id="_Group_5" data-name="&lt;Group&gt;"><path class="cls-5" d="M203,196a4,4,0,0,1-1.6-.7,1.7,1.7,0,0,1-.5-1.2,1.4,1.4,0,0,1,.6-1.2,2.8,2.8,0,0,1,1.6-.5l1.2.2a2.7,2.7,0,0,1,.8.7,1.9,1.9,0,0,1,.3,1h-.9a1,1,0,0,0-.4-.9,1.5,1.5,0,0,0-1-.3,1.7,1.7,0,0,0-1,.3.8.8,0,0,0-.3.7.9.9,0,0,0,.3.7,3.8,3.8,0,0,0,1.1.5,3.2,3.2,0,0,1,1.3.5c.3.1.5.4.7.6a1.9,1.9,0,0,1,.2.8,1.5,1.5,0,0,1-.6,1.3,2.9,2.9,0,0,1-1.7.5,2.7,2.7,0,0,1-1.2-.3,2.2,2.2,0,0,1-.9-.7,1.7,1.7,0,0,1-.3-1h.9a1,1,0,0,0,.4.9,1.5,1.5,0,0,0,1.1.4,1.8,1.8,0,0,0,1.1-.3.9.9,0,0,0,.3-.7,1,1,0,0,0-.3-.8Z"/><path class="cls-5" d="M209.3,198.9c-.1-.1-.1-.3-.2-.5a1.6,1.6,0,0,1-1.3.6,2.1,2.1,0,0,1-1.2-.4,1.3,1.3,0,0,1-.4-1,1.4,1.4,0,0,1,.6-1.2,2.2,2.2,0,0,1,1.5-.4h.8v-.4a1.4,1.4,0,0,0-.2-.7,1.5,1.5,0,0,0-.8-.2l-.7.2c-.2.2-.3.3-.3.5h-.8a2.5,2.5,0,0,1,.2-.7l.7-.5,1-.2a2.5,2.5,0,0,1,1.3.4,1.6,1.6,0,0,1,.4,1.2v2.2a3,3,0,0,0,.2,1h-.8Zm-1.4-.6.7-.2a1,1,0,0,0,.5-.6v-.9h-.6c-1,0-1.5.3-1.5.8a1.1,1.1,0,0,0,.9.9Z"/><path class="cls-5" d="M214.2,198.9c-.1-.1-.1-.3-.2-.5a1.6,1.6,0,0,1-1.3.6,2.1,2.1,0,0,1-1.2-.4,1.3,1.3,0,0,1-.4-1,1.7,1.7,0,0,1,.5-1.2,2.7,2.7,0,0,1,1.6-.4h.8v-.4a1.4,1.4,0,0,0-.2-.7,1.5,1.5,0,0,0-.8-.2l-.7.2c-.2.2-.3.3-.3.5h-.8a2.5,2.5,0,0,1,.2-.7l.7-.5,1-.2a2.8,2.8,0,0,1,1.3.4,1.6,1.6,0,0,1,.4,1.2v2.2a3,3,0,0,0,.2,1h-.8Zm-1.4-.6.7-.2a1,1,0,0,0,.5-.6v-.9h-.6c-1,0-1.5.3-1.5.8a1.1,1.1,0,0,0,.9.9Z"/><path class="cls-5" d="M218.1,196a4.8,4.8,0,0,1-1.6-.7,1.6,1.6,0,0,1-.4-1.2,1.4,1.4,0,0,1,.6-1.2,2.5,2.5,0,0,1,1.5-.5l1.2.2a2.7,2.7,0,0,1,.8.7,1.9,1.9,0,0,1,.3,1h-.9a1.2,1.2,0,0,0-.3-.9,1.8,1.8,0,0,0-1.1-.3,1.2,1.2,0,0,0-.9.3.7.7,0,0,0-.4.7.9.9,0,0,0,.3.7l1.2.5a3.3,3.3,0,0,1,1.2.5c.3.1.5.4.7.6a1.9,1.9,0,0,1,.2.8,1.5,1.5,0,0,1-.6,1.3,2.9,2.9,0,0,1-2.9.2,2.7,2.7,0,0,1-.8-.7,1.7,1.7,0,0,1-.3-1h.8a1,1,0,0,0,.4.9,1.6,1.6,0,0,0,1.2.4,1.5,1.5,0,0,0,1-.3,1,1,0,0,0,.4-.7,1,1,0,0,0-.4-.8Z"/><path class="cls-5" d="M227.7,196.5a3,3,0,0,1-.5,1.8,1.7,1.7,0,0,1-1.3.7,1.7,1.7,0,0,1-1.4-.6v2.3h-.8v-6.6h.7v.5a1.6,1.6,0,0,1,1.3-.6,1.5,1.5,0,0,1,1.4.7,3,3,0,0,1,.5,1.8Zm-.8,0a1.7,1.7,0,0,0-.4-1.3,1.1,1.1,0,0,0-.9-.5,1.1,1.1,0,0,0-1.1.7v2.2a1.1,1.1,0,0,0,1.1.7,1.1,1.1,0,0,0,.9-.5A1.7,1.7,0,0,0,226.9,196.5Z"/><path class="cls-5" d="M231.7,198.4a1.8,1.8,0,0,1-1.4.6,1.7,1.7,0,0,1-1.2-.5,1.7,1.7,0,0,1-.4-1.3v-3.1h.8v3.1c0,.7.3,1.1.9,1.1a1.3,1.3,0,0,0,1.2-.7v-3.5h.9v4.8h-.8Z"/><path class="cls-5" d="M236,194.8h-.4a1.1,1.1,0,0,0-1.1.7v3.4h-.8v-4.8h.8v.6a1.2,1.2,0,0,1,1.1-.7h.4Z"/><path class="cls-5" d="M238.6,198.3a.9.9,0,0,0,.7-.3.8.8,0,0,0,.4-.6h.8l-.3.8a1.8,1.8,0,0,1-.7.5,1.6,1.6,0,0,1-.9.3,2.2,2.2,0,0,1-1.6-.7,2.4,2.4,0,0,1-.6-1.8h0a2.1,2.1,0,0,1,.3-1.2,2.2,2.2,0,0,1,.7-.9,2.1,2.1,0,0,1,1.2-.3,2.1,2.1,0,0,1,1.3.5,2.3,2.3,0,0,1,.6,1.3h-.8a1,1,0,0,0-.4-.8.9.9,0,0,0-.7-.3,1.1,1.1,0,0,0-1,.4,2.5,2.5,0,0,0-.3,1.3v.2a2.5,2.5,0,0,0,.3,1.3A1.3,1.3,0,0,0,238.6,198.3Z"/><path class="cls-5" d="M242.2,194.7a1.7,1.7,0,0,1,1.4-.7c1,0,1.5.6,1.5,1.7v3.2h-.8v-3.2a1.2,1.2,0,0,0-.2-.7,1,1,0,0,0-.8-.3l-.7.2-.4.6v3.4h-.8v-6.8h.8Z"/><path class="cls-5" d="M249.3,198.9c-.1-.1-.1-.3-.2-.5a1.6,1.6,0,0,1-1.3.6,2.1,2.1,0,0,1-1.2-.4,1.3,1.3,0,0,1-.4-1,1.4,1.4,0,0,1,.6-1.2,2.2,2.2,0,0,1,1.5-.4h.8v-.4a1.4,1.4,0,0,0-.2-.7,1.5,1.5,0,0,0-.8-.2l-.7.2c-.2.2-.3.3-.3.5h-.8a2.5,2.5,0,0,1,.2-.7l.7-.5,1-.2a2.8,2.8,0,0,1,1.3.4,1.6,1.6,0,0,1,.4,1.2v2.2a3,3,0,0,0,.2,1h-.8Zm-1.4-.6.7-.2a1,1,0,0,0,.5-.6v-.9h-.6c-1,0-1.5.3-1.5.8a1.1,1.1,0,0,0,.9.9Z"/><path class="cls-5" d="M254,197.6a.5.5,0,0,0-.3-.5l-.8-.3-1-.3-.5-.5c-.2-.1-.2-.3-.2-.6a1.1,1.1,0,0,1,.5-1,2.1,2.1,0,0,1,1.2-.4,2.9,2.9,0,0,1,1.4.4,1.6,1.6,0,0,1,.5,1.1h-.9a1.4,1.4,0,0,0-.2-.6l-.8-.2-.7.2a.8.8,0,0,0-.2.5.5.5,0,0,0,.2.4l.9.3,1,.4a1,1,0,0,1,.5.4,1.4,1.4,0,0,1,.2.7,1.4,1.4,0,0,1-.5,1,2.8,2.8,0,0,1-1.3.4l-1-.2a2.2,2.2,0,0,1-.7-.6,1.1,1.1,0,0,1-.3-.8h.8a1,1,0,0,0,.4.7,1.5,1.5,0,0,0,.8.2l.7-.2A.5.5,0,0,0,254,197.6Z"/><path class="cls-5" d="M257.8,199a2.1,2.1,0,0,1-1.5-.7,2.4,2.4,0,0,1-.6-1.7h0a2.7,2.7,0,0,1,.2-1.3,3.4,3.4,0,0,1,.8-.9,1.9,1.9,0,0,1,1-.3,2,2,0,0,1,1.5.6,3,3,0,0,1,.5,1.8v.3h-3.2a1.6,1.6,0,0,0,.4,1.2,1.2,1.2,0,0,0,1,.4l.7-.2.5-.4.5.3A1.9,1.9,0,0,1,257.8,199Zm-.1-4.3a.9.9,0,0,0-.8.4,1.3,1.3,0,0,0-.4,1h2.4a3,3,0,0,0-.4-1A1,1,0,0,0,257.7,194.7Z"/></g><g id="_Group_6" data-name="&lt;Group&gt;"><path class="cls-5" d="M202,210.1v2.5h-.9v-6.4h2.4a2.1,2.1,0,0,1,1.6.6,1.9,1.9,0,0,1,0,2.8,2.1,2.1,0,0,1-1.6.5Zm0-.7h1.5a1.5,1.5,0,0,0,1-.3,1.2,1.2,0,0,0,0-1.8,1.5,1.5,0,0,0-1-.4H202Z"/><path class="cls-5" d="M209,208.6h-.4a1,1,0,0,0-1.1.7v3.3h-.8v-4.7h.8v.5a1.1,1.1,0,0,1,1.1-.6h.4Z"/><path class="cls-5" d="M209.4,210.2a2.4,2.4,0,0,1,.3-1.2,2.2,2.2,0,0,1,.7-.9,2.4,2.4,0,0,1,1.2-.3,1.8,1.8,0,0,1,1.5.7,2.4,2.4,0,0,1,.6,1.8h0a5.1,5.1,0,0,1-.2,1.3,3,3,0,0,1-.8.8,2,2,0,0,1-1.1.3,2.1,2.1,0,0,1-1.6-.6,2.8,2.8,0,0,1-.6-1.8Zm.8.1a1.8,1.8,0,0,0,.4,1.3,1.2,1.2,0,0,0,1,.5,1.4,1.4,0,0,0,1-.5,2.6,2.6,0,0,0,.3-1.4,1.6,1.6,0,0,0-.4-1.2.9.9,0,0,0-.9-.5,1.2,1.2,0,0,0-1,.4A2.1,2.1,0,0,0,210.2,210.3Z"/><path class="cls-5" d="M216.7,212.1a1.1,1.1,0,0,0,.7-.3,1,1,0,0,0,.4-.7h.7a1.9,1.9,0,0,1-.2.8,1.3,1.3,0,0,1-.7.6,1.5,1.5,0,0,1-.9.2,2.1,2.1,0,0,1-1.6-.6,2.6,2.6,0,0,1-.6-1.8h0a2.8,2.8,0,0,1,.3-1.3,2.7,2.7,0,0,1,.7-.8,2.1,2.1,0,0,1,1.2-.3,2.1,2.1,0,0,1,1.3.5,1.7,1.7,0,0,1,.5,1.2h-.7a1,1,0,0,0-.4-.7.9.9,0,0,0-.7-.3,1.1,1.1,0,0,0-1,.4,2.3,2.3,0,0,0-.3,1.3v.2a2.1,2.1,0,0,0,.3,1.2A1.1,1.1,0,0,0,216.7,212.1Z"/><path class="cls-5" d="M222.4,212.2a2,2,0,0,1-1.4.5,1.6,1.6,0,0,1-1.2-.4,2.2,2.2,0,0,1-.4-1.3v-3.1h.9V211c0,.7.3,1,.8,1s1.1-.2,1.3-.7v-3.4h.8v4.7h-.8Z"/><path class="cls-5" d="M226.7,208.6h-.4a1.1,1.1,0,0,0-1.1.7v3.3h-.8v-4.7h.8v.5a1.4,1.4,0,0,1,1.2-.6h.3Z"/><path class="cls-5" d="M229.4,212.7a2.1,2.1,0,0,1-1.6-.6,2.4,2.4,0,0,1-.6-1.7v-.2a5,5,0,0,1,.2-1.2,2.4,2.4,0,0,1,.8-.9,2,2,0,0,1,1.1-.3,1.7,1.7,0,0,1,1.4.6,3,3,0,0,1,.5,1.8v.3H228a1.4,1.4,0,0,0,.4,1.1,1.4,1.4,0,0,0,1,.5l.7-.2.6-.5.5.4A2,2,0,0,1,229.4,212.7Zm-.1-4.2a1.4,1.4,0,0,0-.9.3,3,3,0,0,0-.4,1h2.4a1.5,1.5,0,0,0-.3-1A1.1,1.1,0,0,0,229.3,208.5Z"/><path class="cls-5" d="M232.9,207.9v.5a2,2,0,0,1,1.5-.6,1.3,1.3,0,0,1,1.3.8,1.7,1.7,0,0,1,.6-.6l.9-.2c1.1,0,1.6.6,1.6,1.7v3.1H238v-3.1a1.9,1.9,0,0,0-.2-.8l-.8-.2a1.1,1.1,0,0,0-.8.3.8.8,0,0,0-.3.7v3.1h-.8v-3.1a.9.9,0,0,0-1-1,1,1,0,0,0-1.1.7v3.4h-.9v-4.7Z"/><path class="cls-5" d="M242,212.7a2.3,2.3,0,0,1-1.6-.6,2.4,2.4,0,0,1-.6-1.7v-.2a2.7,2.7,0,0,1,.3-1.2,1.8,1.8,0,0,1,.8-.9,1.7,1.7,0,0,1,1-.3,2,2,0,0,1,1.5.6,3,3,0,0,1,.5,1.8v.3h-3.3a1.9,1.9,0,0,0,.5,1.1,1.2,1.2,0,0,0,1,.5l.7-.2.5-.5.5.4A2,2,0,0,1,242,212.7Zm-.1-4.2a1.1,1.1,0,0,0-.8.3,1.8,1.8,0,0,0-.4,1h2.4a2.3,2.3,0,0,0-.4-1A1,1,0,0,0,241.9,208.5Z"/><path class="cls-5" d="M245.6,207.9v.6a1.6,1.6,0,0,1,1.4-.7c1,0,1.5.6,1.5,1.7v3.1h-.8v-3.1a1.1,1.1,0,0,0-.2-.8l-.7-.2-.7.2a1,1,0,0,0-.5.6v3.3h-.8v-4.7Z"/><path class="cls-5" d="M250.9,206.7v1.2h.9v.6h-.9v3c0,.2,0,.3.1.4h.8v.6h-.6a1.2,1.2,0,0,1-.9-.3,2,2,0,0,1-.2-.9v-3h-.9v-.6h.9v-1.2Z"/></g><g id="_Group_7" data-name="&lt;Group&gt;"><path class="cls-5" d="M205.8,224.4a2.1,2.1,0,0,1-.7,1.5,2.5,2.5,0,0,1-1.7.6,2.2,2.2,0,0,1-1.8-.8,3.2,3.2,0,0,1-.7-2.2v-.6a4.1,4.1,0,0,1,.3-1.6,2.2,2.2,0,0,1,.9-1,2.3,2.3,0,0,1,1.4-.4,2.3,2.3,0,0,1,1.6.6,2.2,2.2,0,0,1,.7,1.6H205a2.3,2.3,0,0,0-.5-1.1,1.3,1.3,0,0,0-1-.4,1.5,1.5,0,0,0-1.3.6,2.9,2.9,0,0,0-.5,1.7v.6a2.9,2.9,0,0,0,.5,1.7,1.4,1.4,0,0,0,1.2.6,1.8,1.8,0,0,0,1.1-.3,2.3,2.3,0,0,0,.5-1.1Z"/><path class="cls-5" d="M207.7,226.4h-.8v-6.7h.8Z"/><path class="cls-5" d="M208.8,224a2.8,2.8,0,0,1,.3-1.3,2.7,2.7,0,0,1,.7-.8,2.4,2.4,0,0,1,1.2-.3,2,2,0,0,1,1.5.6,2.8,2.8,0,0,1,.6,1.8h0a4.3,4.3,0,0,1-.2,1.2,2.4,2.4,0,0,1-.8.9,2,2,0,0,1-1.1.3,1.9,1.9,0,0,1-1.6-.7,2.4,2.4,0,0,1-.6-1.8Zm.8.1a2,2,0,0,0,.4,1.3,1.2,1.2,0,0,0,1,.4,1.1,1.1,0,0,0,1-.5,2.3,2.3,0,0,0,.3-1.3,2.5,2.5,0,0,0-.3-1.3,1.4,1.4,0,0,0-1-.5,1.2,1.2,0,0,0-1,.5A2.6,2.6,0,0,0,209.6,224.1Z"/><path class="cls-5" d="M217.1,225.9a1.7,1.7,0,0,1-1.4.6,2.1,2.1,0,0,1-1.2-.4,2.6,2.6,0,0,1-.4-1.4v-3h.9v3c0,.7.2,1.1.8,1.1s1.1-.2,1.3-.7v-3.4h.8v4.7h-.8Z"/><path class="cls-5" d="M218.9,224a3.5,3.5,0,0,1,.5-1.8,1.8,1.8,0,0,1,1.4-.6,1.7,1.7,0,0,1,1.3.5v-2.4h.8v6.7h-.7v-.5a1.5,1.5,0,0,1-1.3.6,1.6,1.6,0,0,1-1.4-.7,2.9,2.9,0,0,1-.5-1.7Zm.8.1a1.6,1.6,0,0,0,.4,1.2.9.9,0,0,0,.9.5,1.1,1.1,0,0,0,1.1-.7v-2.2a1.1,1.1,0,0,0-1.1-.6,1,1,0,0,0-.9.4A2,2,0,0,0,219.7,224.1Z"/><path class="cls-5" d="M230.4,224.1a2.3,2.3,0,0,1-.5,1.7,1.4,1.4,0,0,1-1.3.7,1.8,1.8,0,0,1-1.4-.6v2.3h-.8v-6.5h.8v.5a1.7,1.7,0,0,1,1.4-.6,1.5,1.5,0,0,1,1.3.6,2.4,2.4,0,0,1,.5,1.8Zm-.8-.1a2.5,2.5,0,0,0-.3-1.3,1.2,1.2,0,0,0-1-.4,1.4,1.4,0,0,0-1.1.6v2.3a1.4,1.4,0,0,0,1.2.6,1.1,1.1,0,0,0,.9-.4A2.6,2.6,0,0,0,229.6,224Z"/><path class="cls-5" d="M233.8,222.4h-.4a1.1,1.1,0,0,0-1.1.6v3.4h-.8v-4.7h.8v.5a1.1,1.1,0,0,1,1.1-.6h.4Z"/><path class="cls-5" d="M234.2,224a2.8,2.8,0,0,1,.3-1.3,2,2,0,0,1,.8-.8,2.2,2.2,0,0,1,2.6.3,2.8,2.8,0,0,1,.6,1.8h0a2.2,2.2,0,0,1-1,2.1,2,2,0,0,1-1.1.3,1.9,1.9,0,0,1-1.6-.7,2.4,2.4,0,0,1-.6-1.8Zm.8.1a2.8,2.8,0,0,0,.4,1.3,1.2,1.2,0,0,0,1,.4,1.1,1.1,0,0,0,1-.5,2.3,2.3,0,0,0,.3-1.3,2.5,2.5,0,0,0-.3-1.3,1.4,1.4,0,0,0-1-.5,1.2,1.2,0,0,0-1,.5A2.6,2.6,0,0,0,235,224.1Z"/><path class="cls-5" d="M240.4,226.4h-.8v-6.7h.8Z"/><path class="cls-5" d="M241.8,220.4c0-.1,0-.3.1-.3l.3-.2.4.2c.1,0,.1.2.1.3a.4.4,0,0,1-.1.3.5.5,0,0,1-.4.2l-.3-.2A.4.4,0,0,1,241.8,220.4Zm.8,6h-.8v-4.7h.8Z"/><path class="cls-5" d="M244.3,226.4v-4.1h-.7v-.6h.7v-.5a2.1,2.1,0,0,1,.4-1.2,1.6,1.6,0,0,1,1.2-.4h.6v.7H246c-.3,0-.5,0-.6.2a.8.8,0,0,0-.3.7v.5h1.1v.6h-1.1v4.1Z"/><path class="cls-5" d="M248.9,226.5a2,2,0,0,1-1.5-.6,2.2,2.2,0,0,1-.7-1.7V224a2.1,2.1,0,0,1,.3-1.2,1.8,1.8,0,0,1,.8-.9,1.7,1.7,0,0,1,1-.3,2,2,0,0,1,1.5.6,2.9,2.9,0,0,1,.5,1.7v.4h-3.2a1.5,1.5,0,0,0,.4,1.1,1.2,1.2,0,0,0,1,.4h.7c.2-.2.4-.3.5-.5l.5.4A2,2,0,0,1,248.9,226.5Zm-.1-4.3a1.2,1.2,0,0,0-.8.4,1.5,1.5,0,0,0-.4,1H250a1.9,1.9,0,0,0-.4-.9A.8.8,0,0,0,248.8,222.2Z"/><path class="cls-5" d="M254,222.4h-.4a1.1,1.1,0,0,0-1.1.6v3.4h-.8v-4.7h.8v.5a1.4,1.4,0,0,1,1.2-.6h.3Z"/><path class="cls-5" d="M257.5,226.4a4.3,4.3,0,0,1-.1-.5,1.8,1.8,0,0,1-1.3.6,1.6,1.6,0,0,1-1.2-.4,1.3,1.3,0,0,1-.4-1,1.3,1.3,0,0,1,.5-1.2,3.4,3.4,0,0,1,1.6-.4h.8v-.3a1,1,0,0,0-1-1l-.7.2a.9.9,0,0,0-.3.6h-.9a.9.9,0,0,1,.3-.7,1.8,1.8,0,0,1,.7-.5,1.5,1.5,0,0,1,.9-.2,1.7,1.7,0,0,1,1.3.4,1.4,1.4,0,0,1,.5,1.1v2.2a2.5,2.5,0,0,0,.2,1h-.9Zm-1.3-.6.7-.2a1.2,1.2,0,0,0,.5-.5v-1h-.6q-1.5,0-1.5.9a.7.7,0,0,0,.2.6Z"/><path class="cls-5" d="M260.6,220.5v1.2h.9v.6h-.9v2.9a.7.7,0,0,0,.1.5h.8v.6h-.6c-.4,0-.7-.1-.8-.3a1.7,1.7,0,0,1-.3-1v-2.9h-.9v-.6h.9v-1.2Z"/><path class="cls-5" d="M262.4,220.4v-.3l.4-.2.4.2v.6a.5.5,0,0,1-.4.2l-.4-.2Zm.9,6h-.8v-4.7h.8Z"/><path class="cls-5" d="M264.4,224a2.8,2.8,0,0,1,.3-1.3,1.8,1.8,0,0,1,.7-.8,2.3,2.3,0,0,1,1.1-.3,2.1,2.1,0,0,1,1.6.6,2.8,2.8,0,0,1,.6,1.8h0a4.3,4.3,0,0,1-.2,1.2,2.4,2.4,0,0,1-.8.9,2,2,0,0,1-1.1.3,1.9,1.9,0,0,1-1.6-.7,2.4,2.4,0,0,1-.6-1.8Zm.8.1a2,2,0,0,0,.4,1.3,1.1,1.1,0,0,0,1,.4.9.9,0,0,0,.9-.5,1.7,1.7,0,0,0,.4-1.3,1.8,1.8,0,0,0-.4-1.3,1.1,1.1,0,0,0-1-.5,1.1,1.1,0,0,0-.9.5A2,2,0,0,0,265.2,224.1Z"/><path class="cls-5" d="M270.5,221.7v.6a1.8,1.8,0,0,1,1.5-.7c1,0,1.5.5,1.5,1.7v3.1h-.8v-3.1a1,1,0,0,0-.3-.8c-.1-.2-.4-.2-.7-.2a.8.8,0,0,0-.7.2,1,1,0,0,0-.4.5v3.4h-.9v-4.7Z"/></g><g id="_Group_8" data-name="&lt;Group&gt;"><path class="cls-5" d="M200.9,240.2v-6.4h1.8a3.2,3.2,0,0,1,1.4.3,2.1,2.1,0,0,1,1,1.1,2.9,2.9,0,0,1,.4,1.6v.4a2.9,2.9,0,0,1-.4,1.6,1.9,1.9,0,0,1-1,1,3.3,3.3,0,0,1-1.5.4Zm.8-5.7v5h.9a2,2,0,0,0,1.5-.6,2.4,2.4,0,0,0,.6-1.7v-.4a2.2,2.2,0,0,0-.6-1.7,1.7,1.7,0,0,0-1.4-.6Z"/><path class="cls-5" d="M206.6,234.2a.5.5,0,0,1,.2-.4c0-.1.2-.1.3-.1h.4c.1.1.1.2.1.4a.4.4,0,0,1-.1.3h-.7C206.7,234.4,206.6,234.3,206.6,234.2Zm.9,6h-.8v-4.8h.8Z"/><path class="cls-5" d="M208.6,237.8a3,3,0,0,1,.5-1.8,1.9,1.9,0,0,1,1.4-.7,1.8,1.8,0,0,1,1.4.6v-.5h.7v4.7a1.6,1.6,0,0,1-.5,1.4,2,2,0,0,1-1.5.5,1.8,1.8,0,0,1-1-.2,1.1,1.1,0,0,1-.7-.6l.4-.5a1.5,1.5,0,0,0,1.3.7,1.2,1.2,0,0,0,.9-.3,1.7,1.7,0,0,0,.3-1v-.4a1.5,1.5,0,0,1-1.3.6,1.9,1.9,0,0,1-1.4-.7A3.5,3.5,0,0,1,208.6,237.8Zm.8.1a2.1,2.1,0,0,0,.4,1.2,1.1,1.1,0,0,0,.9.5,1.2,1.2,0,0,0,1.1-.7v-2.2a1.2,1.2,0,0,0-1.1-.7,1.1,1.1,0,0,0-.9.5A2.3,2.3,0,0,0,209.4,237.9Z"/><path class="cls-5" d="M213.9,234.2c0-.2,0-.3.1-.4h.7c.1.1.1.2.1.4a.4.4,0,0,1-.1.3H214A.4.4,0,0,1,213.9,234.2Zm.9,6h-.9v-4.8h.9Z"/><path class="cls-5" d="M217.2,234.3v1.1h.8v.6h-.8v3c0,.2,0,.3.1.4l.4.2h.4v.7h-.7a.9.9,0,0,1-.8-.4,1.2,1.2,0,0,1-.3-.9v-3h-.8v-.6h.8v-1.1Z"/><path class="cls-5" d="M221.9,240.2a4.3,4.3,0,0,1-.1-.5,1.8,1.8,0,0,1-1.3.6,2.1,2.1,0,0,1-1.2-.4,1.3,1.3,0,0,1-.4-1,1.3,1.3,0,0,1,.5-1.2,2.5,2.5,0,0,1,1.6-.4h.8v-.4a.9.9,0,0,0-.3-.7l-.7-.2-.7.2c-.2.2-.3.3-.3.5H219a.7.7,0,0,1,.2-.6,2,2,0,0,1,.7-.6l.9-.2a2.2,2.2,0,0,1,1.3.4,1.7,1.7,0,0,1,.5,1.2v2.2a3,3,0,0,0,.2,1h-.9Zm-1.3-.6.7-.2c.2-.2.4-.3.5-.6v-.9h-.6c-1,0-1.5.3-1.5.8a.8.8,0,0,0,.2.6A.9.9,0,0,0,220.6,239.6Z"/><path class="cls-5" d="M224.8,240.2H224v-6.8h.8Z"/><path class="cls-5" d="M230.3,237.3a4.8,4.8,0,0,1-1.6-.7,1.7,1.7,0,0,1-.5-1.2,1.4,1.4,0,0,1,.6-1.2,2.8,2.8,0,0,1,1.6-.5l1.2.2a2.7,2.7,0,0,1,.8.7,1.9,1.9,0,0,1,.3,1h-.9a1.2,1.2,0,0,0-.3-.9,1.8,1.8,0,0,0-1.1-.3,1.7,1.7,0,0,0-1,.3.8.8,0,0,0-.3.7.9.9,0,0,0,.3.7,3.5,3.5,0,0,0,1.2.5,3.3,3.3,0,0,1,1.2.5l.7.6a2,2,0,0,1,.2.9,1.4,1.4,0,0,1-.6,1.2,2.9,2.9,0,0,1-2.9.2,3.1,3.1,0,0,1-.9-.7,1.7,1.7,0,0,1-.3-1h.9a1,1,0,0,0,.4.9,1.6,1.6,0,0,0,1.2.4,1.7,1.7,0,0,0,1-.3.9.9,0,0,0,.3-.7,1,1,0,0,0-.3-.8Z"/><path class="cls-5" d="M234.7,234.3v1.1h.9v.6h-.9v3a.5.5,0,0,0,.2.4l.4.2h.4v.7H235a.9.9,0,0,1-.8-.4,1.2,1.2,0,0,1-.3-.9v-3h-.8v-.6h.8v-1.1Z"/><path class="cls-5" d="M238.9,236.2h-.4a1,1,0,0,0-1.1.7v3.4h-.8v-4.8h.8v.6a1.2,1.2,0,0,1,1.1-.7h.4Z"/><path class="cls-5" d="M242.4,240.2a.7.7,0,0,1-.1-.5,2,2,0,0,1-1.4.6,1.8,1.8,0,0,1-1.1-.4,1.4,1.4,0,0,1-.5-1,1.4,1.4,0,0,1,.6-1.2,2.5,2.5,0,0,1,1.6-.4h.8v-.4a.9.9,0,0,0-.3-.7l-.7-.2-.8.2c-.2.2-.3.3-.3.5h-.8a.9.9,0,0,1,.3-.6c.1-.3.4-.4.6-.6l1-.2a2.5,2.5,0,0,1,1.3.4,1.7,1.7,0,0,1,.5,1.2v2.2a3.1,3.1,0,0,0,.1,1h-.8Zm-1.4-.6.8-.2c.2-.2.4-.3.5-.6v-.9h-.7c-1,0-1.5.3-1.5.8a.6.6,0,0,0,.3.6Z"/><path class="cls-5" d="M245.4,234.3v1.1h.9v.6h-.9v3a.5.5,0,0,0,.2.4l.4.2h.4v.7h-.7a.9.9,0,0,1-.8-.4,1.2,1.2,0,0,1-.3-.9v-3h-.8v-.6h.8v-1.1Z"/><path class="cls-5" d="M249.3,240.3a1.9,1.9,0,0,1-1.6-.7,2.4,2.4,0,0,1-.6-1.7h0a5.1,5.1,0,0,1,.2-1.3,3.4,3.4,0,0,1,.8-.9,2,2,0,0,1,1.1-.3,1.7,1.7,0,0,1,1.4.6,3.2,3.2,0,0,1,.5,1.8v.3h-3.2a1.6,1.6,0,0,0,.4,1.2,1.3,1.3,0,0,0,1,.4l.7-.2.6-.4.5.3A1.9,1.9,0,0,1,249.3,240.3Zm-.1-4.3a1.1,1.1,0,0,0-.9.4,1.9,1.9,0,0,0-.4,1h2.4a1.7,1.7,0,0,0-.3-1A1.1,1.1,0,0,0,249.2,236Z"/><path class="cls-5" d="M251.9,237.8a2.4,2.4,0,0,1,.5-1.8,1.7,1.7,0,0,1,1.3-.7,1.7,1.7,0,0,1,1.4.6v-.5h.8v4.7a1.7,1.7,0,0,1-.6,1.4,1.6,1.6,0,0,1-1.4.5,1.6,1.6,0,0,1-1-.2,1.2,1.2,0,0,1-.8-.6l.4-.5a1.6,1.6,0,0,0,1.3.7,1.2,1.2,0,0,0,.9-.3,1.8,1.8,0,0,0,.4-1v-.4a1.8,1.8,0,0,1-1.4.6,1.7,1.7,0,0,1-1.3-.7A2.7,2.7,0,0,1,251.9,237.8Zm.8.1a2.1,2.1,0,0,0,.3,1.2,1.1,1.1,0,0,0,.9.5,1.5,1.5,0,0,0,1.2-.7v-2.2a1.5,1.5,0,0,0-1.2-.7,1.1,1.1,0,0,0-.9.5A2.4,2.4,0,0,0,252.7,237.9Z"/><path class="cls-5" d="M258.7,239l1.1-3.6h.8l-1.9,5.5c-.3.8-.7,1.2-1.4,1.2h-.4v-.6h.2l.6-.2a.9.9,0,0,0,.4-.6l.2-.5-1.7-4.7h.9Z"/></g><g id="_Group_9" data-name="&lt;Group&gt;"><path class="cls-5" d="M202,253.3h3v.6h-3.9v-6.4h.9Z"/><path class="cls-5" d="M205.8,247.9l.2-.3h.7a.4.4,0,0,1,.1.3c0,.2,0,.3-.1.4H206A.5.5,0,0,1,205.8,247.9Zm.9,6h-.8v-4.7h.8Z"/><path class="cls-5" d="M209.9,253.4a1.1,1.1,0,0,0,.8-.3.9.9,0,0,0,.3-.7h.8a1.1,1.1,0,0,1-.3.8,1.1,1.1,0,0,1-.7.6,1.5,1.5,0,0,1-.9.2,2,2,0,0,1-1.5-.6,2.4,2.4,0,0,1-.6-1.8h0a2.8,2.8,0,0,1,.3-1.3,1.8,1.8,0,0,1,.7-.8,2,2,0,0,1,1.1-.3,1.9,1.9,0,0,1,1.3.5,1.4,1.4,0,0,1,.6,1.2H211a.9.9,0,0,0-.3-.7,1.1,1.1,0,0,0-.8-.3,1,1,0,0,0-.9.4,1.7,1.7,0,0,0-.4,1.3v.2a1.6,1.6,0,0,0,.4,1.2A1.1,1.1,0,0,0,209.9,253.4Z"/><path class="cls-5" d="M214.7,254a2.1,2.1,0,0,1-1.6-.6,2.4,2.4,0,0,1-.6-1.7v-.2a2.7,2.7,0,0,1,.3-1.2,2.2,2.2,0,0,1,.7-.9,2.3,2.3,0,0,1,1.1-.3,1.7,1.7,0,0,1,1.4.6,2.4,2.4,0,0,1,.5,1.8v.3h-3.2a1.8,1.8,0,0,0,.4,1.1,1.4,1.4,0,0,0,1,.5l.8-.2.5-.5.5.4A2,2,0,0,1,214.7,254Zm-.1-4.2a1.1,1.1,0,0,0-.8.3,1.3,1.3,0,0,0-.4,1h2.3a1.5,1.5,0,0,0-.3-1A1.1,1.1,0,0,0,214.6,249.8Z"/><path class="cls-5" d="M218.3,249.2v.6a1.5,1.5,0,0,1,1.4-.7c1,0,1.5.6,1.5,1.7v3.1h-.8v-3.1a1.9,1.9,0,0,0-.2-.8l-.7-.2-.7.2a1,1,0,0,0-.5.6v3.3h-.8v-4.7Z"/><path class="cls-5" d="M224.4,253.4a.9.9,0,0,0,.7-.3,1,1,0,0,0,.4-.7h.8l-.3.8a1.3,1.3,0,0,1-.7.6,1.5,1.5,0,0,1-.9.2,2.1,2.1,0,0,1-1.6-.6,2.4,2.4,0,0,1-.6-1.8h0a2.8,2.8,0,0,1,.3-1.3,2.7,2.7,0,0,1,.7-.8,2.1,2.1,0,0,1,1.2-.3,2.1,2.1,0,0,1,1.3.5,2.3,2.3,0,0,1,.6,1.2h-.8a1,1,0,0,0-.4-.7.9.9,0,0,0-.7-.3,1.1,1.1,0,0,0-1,.4,2.3,2.3,0,0,0-.3,1.3v.2a2.1,2.1,0,0,0,.3,1.2A1.1,1.1,0,0,0,224.4,253.4Z"/><path class="cls-5" d="M229.1,254a2,2,0,0,1-1.5-.6,2.4,2.4,0,0,1-.6-1.7v-.2a2.5,2.5,0,0,1,.2-1.2,2.4,2.4,0,0,1,.8-.9,1.9,1.9,0,0,1,1-.3,1.9,1.9,0,0,1,1.5.6,3,3,0,0,1,.5,1.8v.3h-3.2a1.4,1.4,0,0,0,.4,1.1,1.2,1.2,0,0,0,1,.5l.7-.2a1.2,1.2,0,0,0,.5-.5l.5.4A2,2,0,0,1,229.1,254Zm-.1-4.2a1.1,1.1,0,0,0-.8.3,3,3,0,0,0-.4,1h2.4a1.5,1.5,0,0,0-.4-1A1,1,0,0,0,229,249.8Z"/><path class="cls-5" d="M236.5,249.9h-.4a1,1,0,0,0-1.1.7v3.3h-.8v-4.7h.8v.5a1.1,1.1,0,0,1,1.1-.6h.4Z"/><path class="cls-5" d="M237.2,247.9v-.3h.8v.3c0,.2-.1.3-.1.4h-.8C237.3,248.2,237.2,248.1,237.2,247.9Zm.9,6h-.8v-4.7h.8Z"/><path class="cls-5" d="M239.2,251.5a2.9,2.9,0,0,1,.5-1.7,1.6,1.6,0,0,1,1.4-.7,1.5,1.5,0,0,1,1.3.6v-.5h.7v4.6a1.8,1.8,0,0,1-2,2l-1-.2a2.4,2.4,0,0,1-.8-.6l.5-.5a1.5,1.5,0,0,0,1.2.7,1.8,1.8,0,0,0,1-.4,1.2,1.2,0,0,0,.3-.9v-.4a1.9,1.9,0,0,1-1.3.5,1.8,1.8,0,0,1-1.4-.6A3.6,3.6,0,0,1,239.2,251.5Zm.8.1a2.3,2.3,0,0,0,.3,1.3,1.3,1.3,0,0,0,1,.4,1.1,1.1,0,0,0,1.1-.7v-2.1a1.2,1.2,0,0,0-1.1-.7,1.1,1.1,0,0,0-1,.5A2.3,2.3,0,0,0,240,251.6Z"/><path class="cls-5" d="M245.3,249.8a1.5,1.5,0,0,1,1.4-.7c1,0,1.5.6,1.5,1.7v3.1h-.8v-3.1a1.1,1.1,0,0,0-.3-.8l-.7-.2-.7.2a.9.9,0,0,0-.4.6v3.3h-.9v-6.7h.9Z"/><path class="cls-5" d="M250.5,248v1.2h.9v.6h-.9v3c0,.2,0,.3.1.4h.8v.6h-.6c-.4,0-.7-.1-.8-.3a1.2,1.2,0,0,1-.3-.9v-3h-.9v-.6h.9V248Z"/><path class="cls-5" d="M255.1,252.7a.8.8,0,0,0-.2-.5,1.2,1.2,0,0,0-.9-.3l-1-.4a1,1,0,0,1-.5-.4,1.4,1.4,0,0,1-.2-.6,1.4,1.4,0,0,1,.5-1,1.7,1.7,0,0,1,1.3-.4,2,2,0,0,1,1.3.4,1.6,1.6,0,0,1,.5,1.1h-.8a.9.9,0,0,0-.3-.6l-.7-.2c-.3,0-.6,0-.7.2a.5.5,0,0,0-.3.5.5.5,0,0,0,.2.4l.9.3,1,.3a1.2,1.2,0,0,1,.5.5.7.7,0,0,1,.2.6,1.1,1.1,0,0,1-.5,1,1.8,1.8,0,0,1-1.3.4,1.6,1.6,0,0,1-1-.2,1.8,1.8,0,0,1-.7-.5,1.3,1.3,0,0,1-.3-.8h.9a.6.6,0,0,0,.3.6,1.1,1.1,0,0,0,.8.3l.7-.2A.5.5,0,0,0,255.1,252.7Z"/></g><g id="_Group_10" data-name="&lt;Group&gt;"><path class="cls-5" d="M203.2,266.6l1.9-5.3h.9l-2.4,6.4h-.7l-2.4-6.4h.9Z"/><path class="cls-5" d="M206.7,261.7c0-.1.1-.2.1-.3l.4-.2a.5.5,0,0,1,.4.2c0,.1.1.2.1.3s-.1.2-.1.3a.5.5,0,0,1-.4.2l-.4-.2C206.8,261.9,206.7,261.8,206.7,261.7Zm.9,6h-.8V263h.8Z"/><path class="cls-5" d="M211.2,263.7h-.4a1.1,1.1,0,0,0-1.1.6v3.4h-.8V263h.8v.5a1.3,1.3,0,0,1,1.1-.6h.4Z"/><path class="cls-5" d="M213.3,261.8V263h.8v.6h-.8v2.9a.7.7,0,0,0,.1.5h.8v.6h-.7a1.1,1.1,0,0,1-.8-.3,1.5,1.5,0,0,1-.3-1v-2.9h-.8V263h.8v-1.2Z"/><path class="cls-5" d="M218,267.2a1.6,1.6,0,0,1-1.4.6,1.2,1.2,0,0,1-1.1-.4,1.8,1.8,0,0,1-.4-1.3V263h.8v3c0,.8.3,1.1.9,1.1a1.1,1.1,0,0,0,1.2-.7V263h.8v4.7h-.7Z"/><path class="cls-5" d="M223,267.7c-.1-.1-.1-.2-.1-.5a1.8,1.8,0,0,1-1.4.6,1.5,1.5,0,0,1-1.1-.4,1.4,1.4,0,0,1-.5-1,1.4,1.4,0,0,1,.6-1.2,3.4,3.4,0,0,1,1.6-.4h.8v-.3a.8.8,0,0,0-.3-.7.9.9,0,0,0-.7-.3l-.8.2a.9.9,0,0,0-.3.6H220a.9.9,0,0,1,.3-.7,1.3,1.3,0,0,1,.7-.5,1.3,1.3,0,0,1,.9-.2,1.7,1.7,0,0,1,1.3.4,1.4,1.4,0,0,1,.5,1.1v2.2a2.8,2.8,0,0,0,.1,1H223Zm-1.4-.6.8-.2a1.2,1.2,0,0,0,.5-.5v-1h-.7q-1.5,0-1.5.9a.9.9,0,0,0,.3.6Z"/><path class="cls-5" d="M225.8,267.7H225V261h.8Z"/><path class="cls-5" d="M227.1,261.7l.2-.3.3-.2a.5.5,0,0,1,.4.2.5.5,0,0,1,0,.6.5.5,0,0,1-.4.2c-.1,0-.3-.1-.3-.2S227.1,261.8,227.1,261.7Zm.9,6h-.8V263h.8Z"/><path class="cls-5" d="M232.1,266.5a.7.7,0,0,0-.3-.6l-.8-.3-1-.3-.5-.4a.7.7,0,0,1-.2-.6,1.2,1.2,0,0,1,.5-1,1.6,1.6,0,0,1,1.2-.4,2.1,2.1,0,0,1,1.4.4,1.4,1.4,0,0,1,.5,1.1H232a.8.8,0,0,0-.2-.6,1.1,1.1,0,0,0-.8-.3l-.6.2c-.2.2-.3.3-.3.5a.8.8,0,0,0,.2.5l.9.3,1,.3.5.4a1.4,1.4,0,0,1,.2.7,1.2,1.2,0,0,1-.5,1,1.8,1.8,0,0,1-1.3.4l-1-.2a1.1,1.1,0,0,1-.7-.6,1.1,1.1,0,0,1-.3-.7h.8a2.1,2.1,0,0,0,.4.6c.2.2.4.2.8.2h.7C232,266.8,232.1,266.7,232.1,266.5Z"/><path class="cls-5" d="M236.9,267.7a2,2,0,0,1-.1-.5,1.8,1.8,0,0,1-1.4.6,1.5,1.5,0,0,1-1.1-.4,1.4,1.4,0,0,1-.5-1,1.4,1.4,0,0,1,.6-1.2,3.4,3.4,0,0,1,1.6-.4h.8v-.3a.8.8,0,0,0-.3-.7.9.9,0,0,0-.7-.3l-.8.2a.9.9,0,0,0-.3.6h-.8a.9.9,0,0,1,.3-.7,1.3,1.3,0,0,1,.7-.5,1.5,1.5,0,0,1,.9-.2,1.7,1.7,0,0,1,1.3.4,1.4,1.4,0,0,1,.5,1.1v2.2a1.5,1.5,0,0,0,.2,1h-.9Zm-1.3-.6.7-.2a1.2,1.2,0,0,0,.5-.5v-1h-.7q-1.5,0-1.5.9a.9.9,0,0,0,.3.6Z"/><path class="cls-5" d="M240,261.8V263h.9v.6H240v2.9a.7.7,0,0,0,.1.5h.8v.6h-.7a1.1,1.1,0,0,1-.8-.3,1.5,1.5,0,0,1-.2-1v-2.9h-.9V263h.9v-1.2Z"/><path class="cls-5" d="M241.8,261.7a.4.4,0,0,1,.1-.3.5.5,0,0,1,.4-.2l.3.2.2.3c0,.1-.1.2-.2.3s-.2.2-.3.2a.5.5,0,0,1-.4-.2A.4.4,0,0,1,241.8,261.7Zm.9,6h-.8V263h.8Z"/><path class="cls-5" d="M243.8,265.3a5.1,5.1,0,0,1,.2-1.3,3,3,0,0,1,.8-.8,2,2,0,0,1,1.1-.3,2.1,2.1,0,0,1,1.6.6,2.8,2.8,0,0,1,.6,1.8h0a2.1,2.1,0,0,1-.3,1.2,1.6,1.6,0,0,1-.7.9,2.4,2.4,0,0,1-1.2.3,1.8,1.8,0,0,1-1.5-.7,2.4,2.4,0,0,1-.6-1.8Zm.8.1a2,2,0,0,0,.4,1.3,1,1,0,0,0,.9.4,1.2,1.2,0,0,0,1-.4,2.1,2.1,0,0,0,.4-1.4,1.8,1.8,0,0,0-.4-1.3,1.2,1.2,0,0,0-1-.5,1.1,1.1,0,0,0-.9.5A2,2,0,0,0,244.6,265.4Z"/><path class="cls-5" d="M249.9,263v.6a1.7,1.7,0,0,1,1.4-.7c1,0,1.5.5,1.6,1.7v3.1H252v-3.1c0-.4,0-.6-.2-.8s-.4-.2-.7-.2a.8.8,0,0,0-.7.2,1.2,1.2,0,0,0-.5.5v3.4h-.8V263Z"/></g><g id="_Group_11" data-name="&lt;Group&gt;"><path class="cls-5" d="M202,281.5h-.8v-6.4h.8Z"/><path class="cls-5" d="M207.9,275.8h-2.1v5.7H205v-5.7h-2.1v-.7h5Z"/><path class="cls-5" d="M210.6,278.6a4.8,4.8,0,0,1-1.6-.7,1.7,1.7,0,0,1-.5-1.2,1.4,1.4,0,0,1,.6-1.2,2.8,2.8,0,0,1,1.6-.5l1.2.2a3,3,0,0,1,.8.8,1.6,1.6,0,0,1,.3.9h-.9a1.2,1.2,0,0,0-.3-.9,1.8,1.8,0,0,0-1.1-.3,1.7,1.7,0,0,0-1,.3.8.8,0,0,0-.3.7.9.9,0,0,0,.3.7,3.5,3.5,0,0,0,1.2.5,3.3,3.3,0,0,1,1.2.5l.7.6a2,2,0,0,1,.2.9,1.4,1.4,0,0,1-.6,1.2,2.9,2.9,0,0,1-2.9.2l-.9-.7a1.7,1.7,0,0,1-.3-1h.9a1,1,0,0,0,.4.9,1.6,1.6,0,0,0,1.2.4,1.7,1.7,0,0,0,1-.3.9.9,0,0,0,.3-.7,1,1,0,0,0-.3-.8Z"/><path class="cls-5" d="M215.2,275.1l2.1,5.2,2-5.2h1.1v6.4h-.8v-5.2l-2.1,5.2h-.7l-2.1-5.2v5.2h-.8v-6.4Z"/></g><g id="_Group_12" data-name="&lt;Group&gt;"><path class="cls-5" d="M201.7,294.6h3v.6h-3.8v-6.4h.8Z"/><path class="cls-5" d="M205.6,289.2a.4.4,0,0,1,.1-.3h.7a.4.4,0,0,1,.1.3c0,.2,0,.3-.1.4h-.7C205.6,289.5,205.6,289.4,205.6,289.2Zm.9,6h-.9v-4.7h.9Z"/><path class="cls-5" d="M209.7,294.7a.9.9,0,0,0,.7-.3c.2-.2.4-.4.4-.6h.8l-.3.7a1.3,1.3,0,0,1-.7.6,1.5,1.5,0,0,1-.9.2,2.1,2.1,0,0,1-1.6-.6,2.4,2.4,0,0,1-.6-1.8h0a2.8,2.8,0,0,1,.3-1.3,2.7,2.7,0,0,1,.7-.8,2.4,2.4,0,0,1,1.2-.3,2.1,2.1,0,0,1,1.3.5,2.3,2.3,0,0,1,.6,1.2h-.8a1,1,0,0,0-.4-.7.9.9,0,0,0-.7-.3,1.2,1.2,0,0,0-1,.4,2.3,2.3,0,0,0-.3,1.3v.2a2.1,2.1,0,0,0,.3,1.2A1.1,1.1,0,0,0,209.7,294.7Z"/><path class="cls-5" d="M214.4,295.3a2,2,0,0,1-1.5-.6,2.4,2.4,0,0,1-.6-1.7h0a5.1,5.1,0,0,1,.2-1.3,2.4,2.4,0,0,1,.8-.9,1.9,1.9,0,0,1,1-.3,1.9,1.9,0,0,1,1.5.6,3,3,0,0,1,.5,1.8v.3h-3.2a1.2,1.2,0,0,0,.4,1.1,1.4,1.4,0,0,0,1,.5l.7-.2a1.2,1.2,0,0,0,.5-.5l.5.4A2,2,0,0,1,214.4,295.3Zm-.1-4.2a1.1,1.1,0,0,0-.8.3,3,3,0,0,0-.4,1h2.4a1.5,1.5,0,0,0-.3-1A1.2,1.2,0,0,0,214.3,291.1Z"/><path class="cls-5" d="M218,290.5v.6a1.8,1.8,0,0,1,1.5-.7c1,0,1.5.6,1.5,1.7v3.1h-.8v-3.1a1.1,1.1,0,0,0-.3-.8l-.7-.2-.7.2a.9.9,0,0,0-.4.6v3.3h-.9v-4.7Z"/><path class="cls-5" d="M224.1,294.7a1.1,1.1,0,0,0,.8-.3.9.9,0,0,0,.3-.6h.8a1.1,1.1,0,0,1-.3.7,1.3,1.3,0,0,1-.7.6,1.5,1.5,0,0,1-.9.2,2,2,0,0,1-1.5-.6,2.4,2.4,0,0,1-.6-1.8h0a5.1,5.1,0,0,1,.2-1.3,3,3,0,0,1,.8-.8,2,2,0,0,1,1.1-.3,1.9,1.9,0,0,1,1.3.5,1.4,1.4,0,0,1,.6,1.2h-.8a.9.9,0,0,0-.3-.7,1.1,1.1,0,0,0-.8-.3,1.3,1.3,0,0,0-1,.4,2.3,2.3,0,0,0-.3,1.3v.2a2.1,2.1,0,0,0,.3,1.2A1.4,1.4,0,0,0,224.1,294.7Z"/><path class="cls-5" d="M228.9,295.3a2.1,2.1,0,0,1-1.6-.6,2.4,2.4,0,0,1-.6-1.7h0a2.8,2.8,0,0,1,.3-1.3,2.2,2.2,0,0,1,.7-.9,2.3,2.3,0,0,1,1.1-.3,1.7,1.7,0,0,1,1.4.6,2.4,2.4,0,0,1,.5,1.8v.3h-3.2a1.6,1.6,0,0,0,.4,1.1,1.4,1.4,0,0,0,1,.5l.8-.2c.2-.1.3-.3.5-.5l.5.4A2,2,0,0,1,228.9,295.3Zm-.1-4.2a1.1,1.1,0,0,0-.8.3,1.9,1.9,0,0,0-.5,1h2.4a1.5,1.5,0,0,0-.3-1A1.1,1.1,0,0,0,228.8,291.1Z"/><path class="cls-5" d="M235.8,294.7a1.1,1.1,0,0,0,.8-.3.9.9,0,0,0,.3-.6h.8a1.1,1.1,0,0,1-.3.7,1.1,1.1,0,0,1-.7.6,1.5,1.5,0,0,1-.9.2,2,2,0,0,1-1.5-.6,2.4,2.4,0,0,1-.6-1.8h0a2.8,2.8,0,0,1,.3-1.3,1.8,1.8,0,0,1,.7-.8,2,2,0,0,1,1.1-.3,1.9,1.9,0,0,1,1.3.5,1.4,1.4,0,0,1,.6,1.2h-.8a.9.9,0,0,0-.3-.7,1.1,1.1,0,0,0-.8-.3,1,1,0,0,0-.9.4,1.7,1.7,0,0,0-.4,1.3v.2a1.6,1.6,0,0,0,.4,1.2A1.1,1.1,0,0,0,235.8,294.7Z"/><path class="cls-5" d="M238.4,292.8a2.4,2.4,0,0,1,.3-1.2,2.2,2.2,0,0,1,.7-.9,2.4,2.4,0,0,1,1.2-.3,1.8,1.8,0,0,1,1.5.7,2.4,2.4,0,0,1,.6,1.8h0a5.1,5.1,0,0,1-.2,1.3,3,3,0,0,1-.8.8,2,2,0,0,1-1.1.3,2.1,2.1,0,0,1-1.6-.6,2.8,2.8,0,0,1-.6-1.8Zm.8.1a1.7,1.7,0,0,0,.4,1.3,1.2,1.2,0,0,0,1,.5,1.4,1.4,0,0,0,1-.5,2.6,2.6,0,0,0,.3-1.4,2.1,2.1,0,0,0-.3-1.2,1.1,1.1,0,0,0-1-.5,1,1,0,0,0-1,.5A1.7,1.7,0,0,0,239.2,292.9Z"/><path class="cls-5" d="M244.5,290.5v.5a2,2,0,0,1,1.5-.6,1.3,1.3,0,0,1,1.3.8,3.4,3.4,0,0,1,.6-.6l.9-.2c1.1,0,1.6.6,1.6,1.7v3.1h-.8v-3.1a1.9,1.9,0,0,0-.2-.8,1.5,1.5,0,0,0-.8-.2,1.1,1.1,0,0,0-.8.3.8.8,0,0,0-.3.7v3.1h-.8v-3.1a.9.9,0,0,0-1-1,1,1,0,0,0-1.1.7v3.4h-.8v-4.7Z"/><path class="cls-5" d="M255.7,292.9a3.5,3.5,0,0,1-.5,1.8,1.8,1.8,0,0,1-1.4.6,1.4,1.4,0,0,1-1.3-.5v2.3h-.9v-6.6h.8v.5a1.8,1.8,0,0,1,1.4-.6,1.6,1.6,0,0,1,1.4.7,2.9,2.9,0,0,1,.5,1.7Zm-.9-.1a2.1,2.1,0,0,0-.3-1.2,1.1,1.1,0,0,0-.9-.5,1.1,1.1,0,0,0-1.1.7V294a1.1,1.1,0,0,0,1.1.7,1.1,1.1,0,0,0,.9-.5A2.6,2.6,0,0,0,254.8,292.8Z"/><path class="cls-5" d="M257.6,295.2h-.8v-6.7h.8Z"/><path class="cls-5" d="M260.9,295.3a2.1,2.1,0,0,1-1.6-.6,2.4,2.4,0,0,1-.6-1.7h0a5.1,5.1,0,0,1,.2-1.3,2.4,2.4,0,0,1,.8-.9,1.9,1.9,0,0,1,1-.3,1.9,1.9,0,0,1,1.5.6,3,3,0,0,1,.5,1.8v.3h-3.2a1.2,1.2,0,0,0,.4,1.1,1.4,1.4,0,0,0,1,.5l.7-.2.5-.5.5.4A2,2,0,0,1,260.9,295.3Zm-.2-4.2a1.1,1.1,0,0,0-.8.3,3,3,0,0,0-.4,1h2.4a1.5,1.5,0,0,0-.3-1A1.2,1.2,0,0,0,260.7,291.1Z"/><path class="cls-5" d="M265.2,292.2l1.1-1.7h.9l-1.5,2.3,1.6,2.4h-.9l-1.1-1.7-1.1,1.7h-1l1.6-2.4-1.5-2.3h.9Z"/><path class="cls-5" d="M268.1,289.2c0-.1.1-.2.1-.3h.7l.2.3a.5.5,0,0,1-.2.4h-.7C268.2,289.5,268.1,289.4,268.1,289.2Zm.9,6h-.8v-4.7h.8Z"/><path class="cls-5" d="M271.4,289.3v1.2h.9v.6h-.9v3c0,.2,0,.3.1.4h.8v.6h-.6c-.4,0-.7-.1-.8-.3a1.2,1.2,0,0,1-.3-.9v-3h-.9v-.6h.9v-1.2Z"/><path class="cls-5" d="M274.8,294.1l1.1-3.6h.9l-1.9,5.5a1.6,1.6,0,0,1-1.5,1.2H273v-.7h.2l.6-.2a.9.9,0,0,0,.4-.6l.2-.5-1.7-4.7h.9Z"/></g><g id="_Group_13" data-name="&lt;Group&gt;"><path class="cls-5" d="M202,306.5V309h-.9v-6.4h2.4a2.1,2.1,0,0,1,1.6.6,1.9,1.9,0,0,1,0,2.8,2.5,2.5,0,0,1-1.6.5Zm0-.7h1.5a1.5,1.5,0,0,0,1-.3,1.2,1.2,0,0,0,0-1.8,1.2,1.2,0,0,0-1-.4H202Z"/><path class="cls-5" d="M207.5,309h-.8v-6.7h.8Z"/><path class="cls-5" d="M211.8,309c-.1-.1-.1-.2-.1-.5a2,2,0,0,1-1.4.6,1.4,1.4,0,0,1-1.1-.4,1.4,1.4,0,0,1-.5-1,1.4,1.4,0,0,1,.6-1.2,3.4,3.4,0,0,1,1.6-.4h.8v-.3a.9.9,0,0,0-.3-.7,1,1,0,0,0-.8-.3l-.7.2a.9.9,0,0,0-.3.6h-.8a.9.9,0,0,1,.3-.7,1.5,1.5,0,0,1,.6-.5,1.6,1.6,0,0,1,1-.2,1.8,1.8,0,0,1,1.3.4,1.4,1.4,0,0,1,.5,1.1v2.2a2.8,2.8,0,0,0,.1,1h-.8Zm-1.4-.6.8-.2a1.2,1.2,0,0,0,.5-.5v-1H211q-1.5,0-1.5.9a.9.9,0,0,0,.3.6Z"/><path class="cls-5" d="M214.8,303.1v1.2h.9v.6h-.9v2.9a.8.8,0,0,0,.2.5h.8v.6h-.7a1.1,1.1,0,0,1-.8-.3,1.5,1.5,0,0,1-.3-1v-2.9h-.8v-.6h.8v-1.2Z"/><path class="cls-5" d="M217.1,309v-4.1h-.8v-.6h.8v-.5a1.6,1.6,0,0,1,.4-1.2,1.4,1.4,0,0,1,1.1-.4h.6v.7h-.5a.7.7,0,0,0-.6.2,1.4,1.4,0,0,0-.2.7v.5h1v.6h-1V309Z"/><path class="cls-5" d="M219.6,306.6a2.8,2.8,0,0,1,.3-1.3,1.8,1.8,0,0,1,.7-.8,2.3,2.3,0,0,1,1.1-.3,2.1,2.1,0,0,1,1.6.6,2.8,2.8,0,0,1,.6,1.8h0a3.7,3.7,0,0,1-.2,1.2,2.4,2.4,0,0,1-.8.9,2,2,0,0,1-1.1.3,1.9,1.9,0,0,1-1.6-.7,2.4,2.4,0,0,1-.6-1.7Zm.8.1a2,2,0,0,0,.4,1.3,1.1,1.1,0,0,0,1,.4,1,1,0,0,0,.9-.4,2.1,2.1,0,0,0,.4-1.4,2,2,0,0,0-.4-1.3,1.1,1.1,0,0,0-1-.5,1.1,1.1,0,0,0-.9.5A2,2,0,0,0,220.4,306.7Z"/><path class="cls-5" d="M227.2,305h-.4a.9.9,0,0,0-1,.6V309h-.9v-4.7h.8v.5a1.4,1.4,0,0,1,1.2-.6h.3Z"/><path class="cls-5" d="M228.7,304.3v.5a1.7,1.7,0,0,1,1.4-.6,1.3,1.3,0,0,1,1.3.7,1.8,1.8,0,0,1,.7-.5c.2-.2.5-.2.9-.2s1.5.5,1.5,1.6V309h-.8v-3.1c0-.4,0-.6-.2-.8s-.4-.2-.8-.2l-.7.2a2,2,0,0,0-.4.8V309h-.8v-3.1c0-.7-.3-1-1-1a1.1,1.1,0,0,0-1.1.6V309H228v-4.7Z"/><path class="cls-5" d="M239.7,307.9l1.1-3.6h.9L240,309h-.6l-1.8-4.7h.9Z"/><path class="cls-5" d="M245.3,309a2,2,0,0,1-.1-.5,1.8,1.8,0,0,1-1.3.6,1.6,1.6,0,0,1-1.2-.4,1.3,1.3,0,0,1-.4-1,1.3,1.3,0,0,1,.5-1.2,3.4,3.4,0,0,1,1.6-.4h.8v-.3a.9.9,0,0,0-.3-.7.8.8,0,0,0-.7-.3l-.7.2a.9.9,0,0,0-.3.6h-.8a.8.8,0,0,1,.2-.7,1.8,1.8,0,0,1,.7-.5,1.5,1.5,0,0,1,.9-.2,1.7,1.7,0,0,1,1.3.4,1.4,1.4,0,0,1,.5,1.1v2.2a2.5,2.5,0,0,0,.2,1h-.9Zm-1.3-.6.7-.2a1.2,1.2,0,0,0,.5-.5v-1h-.6q-1.5,0-1.5.9a1.4,1.4,0,0,0,.2.6Z"/><path class="cls-5" d="M249.6,305h-.4a1.1,1.1,0,0,0-1.1.6V309h-.8v-4.7h.8v.5a1.3,1.3,0,0,1,1.1-.6h.4Z"/><path class="cls-5" d="M250.3,303c0-.1.1-.2.2-.3l.3-.2a.5.5,0,0,1,.4.2.5.5,0,0,1,0,.6.5.5,0,0,1-.4.2l-.3-.2C250.4,303.2,250.3,303.1,250.3,303Zm.9,6h-.8v-4.7h.8Z"/><path class="cls-5" d="M255.5,309c-.1-.1-.1-.2-.2-.5a1.6,1.6,0,0,1-1.3.6,1.6,1.6,0,0,1-1.2-.4,1.3,1.3,0,0,1-.4-1,1.7,1.7,0,0,1,.5-1.2,3.8,3.8,0,0,1,1.6-.4h.8v-.3a1.4,1.4,0,0,0-.2-.7,1,1,0,0,0-.8-.3l-.7.2a.9.9,0,0,0-.3.6h-.8a1.4,1.4,0,0,1,.2-.7,1.8,1.8,0,0,1,.7-.5,1.6,1.6,0,0,1,1-.2,2,2,0,0,1,1.3.4,1.4,1.4,0,0,1,.4,1.1v2.2a2.5,2.5,0,0,0,.2,1h-.8Zm-1.4-.6.7-.2a.8.8,0,0,0,.5-.5v-1h-.6q-1.5,0-1.5.9a1.4,1.4,0,0,0,.2.6Z"/><path class="cls-5" d="M258.2,304.3v.6a1.6,1.6,0,0,1,1.4-.7c1,0,1.5.5,1.6,1.7V309h-.9v-3.1c0-.4,0-.6-.2-.8s-.4-.2-.7-.2a.8.8,0,0,0-.7.2,1.2,1.2,0,0,0-.5.5V309h-.8v-4.7Z"/><path class="cls-5" d="M263.5,303.1v1.2h.9v.6h-.9v2.9a.7.7,0,0,0,.1.5h.8v.6h-.6a1.2,1.2,0,0,1-.9-.3,2.5,2.5,0,0,1-.2-1v-2.9h-.9v-.6h.9v-1.2Z"/><path class="cls-5" d="M268.1,307.8a.7.7,0,0,0-.3-.6l-.8-.3-1-.3-.5-.4a.7.7,0,0,1-.2-.6,1,1,0,0,1,.5-1,1.6,1.6,0,0,1,1.2-.4,2.1,2.1,0,0,1,1.4.4,1.4,1.4,0,0,1,.5,1.1H268a.8.8,0,0,0-.2-.6,1.1,1.1,0,0,0-.8-.3l-.7.2c-.1.2-.2.3-.2.5a.8.8,0,0,0,.2.5l.9.3,1,.3.5.4a1.4,1.4,0,0,1,.2.7,1.2,1.2,0,0,1-.5,1,1.8,1.8,0,0,1-1.3.4l-1-.2a1.1,1.1,0,0,1-.7-.6,1.1,1.1,0,0,1-.3-.7h.8c0,.2.2.4.4.6s.4.2.8.2h.7C268,308.1,268.1,308,268.1,307.8Z"/></g><g id="_Group_14" data-name="&lt;Group&gt;"><path class="cls-5" d="M205.8,320.8a2.4,2.4,0,0,1-.7,1.5,2.5,2.5,0,0,1-1.7.6,2.2,2.2,0,0,1-1.8-.8,3.2,3.2,0,0,1-.7-2.2v-.6a4.1,4.1,0,0,1,.3-1.6,1.8,1.8,0,0,1,.9-1,2.3,2.3,0,0,1,1.4-.4,2.3,2.3,0,0,1,1.6.6,2,2,0,0,1,.7,1.5H205a2.8,2.8,0,0,0-.5-1.1,1.7,1.7,0,0,0-1-.3,1.5,1.5,0,0,0-1.3.6,2.9,2.9,0,0,0-.5,1.7v.6a2.9,2.9,0,0,0,.5,1.7,1.4,1.4,0,0,0,1.2.6,1.8,1.8,0,0,0,1.1-.3,2.3,2.3,0,0,0,.5-1.1Z"/><path class="cls-5" d="M206.6,320.4a2.8,2.8,0,0,1,.3-1.3,1.8,1.8,0,0,1,.8-.9,2,2,0,0,1,1.1-.3,2.4,2.4,0,0,1,1.6.7,2.8,2.8,0,0,1,.6,1.8h0a2.7,2.7,0,0,1-.3,1.2,1.8,1.8,0,0,1-.8.9,2,2,0,0,1-1.1.3,2.2,2.2,0,0,1-1.6-.7,2.4,2.4,0,0,1-.6-1.8Zm.8.1a2.1,2.1,0,0,0,.4,1.2,1.3,1.3,0,0,0,2,0,2.5,2.5,0,0,0,.3-1.3,2.3,2.3,0,0,0-.3-1.3,1.3,1.3,0,0,0-2,0A2.6,2.6,0,0,0,207.4,320.5Z"/><path class="cls-5" d="M214.7,321.5c0-.2,0-.4-.2-.5l-.9-.3-1-.3a1.2,1.2,0,0,1-.5-.5.8.8,0,0,1-.2-.6,1.4,1.4,0,0,1,.5-1,2.8,2.8,0,0,1,1.3-.4,1.9,1.9,0,0,1,1.3.5,1.2,1.2,0,0,1,.5,1h-.8a.5.5,0,0,0-.3-.5.9.9,0,0,0-.7-.3l-.7.2c-.2.1-.2.3-.2.5s0,.4.2.5l.8.2a2.3,2.3,0,0,1,1,.4.9.9,0,0,1,.6.4,1.4,1.4,0,0,1,.2.7,1.2,1.2,0,0,1-.6,1,2.2,2.2,0,0,1-1.3.4l-1-.2-.7-.6a1.9,1.9,0,0,1-.2-.8h.8a.9.9,0,0,0,.3.7l.8.2.8-.2A.8.8,0,0,0,214.7,321.5Z"/><path class="cls-5" d="M217.7,316.9V318h.9v.7h-.9v2.9c0,.2.1.3.1.4l.4.2h.4v.7H218a.8.8,0,0,1-.8-.4,1.2,1.2,0,0,1-.3-.9v-2.9H216V318h.9v-1.1Z"/><path class="cls-5" d="M223.7,322.2a1.3,1.3,0,0,0,.8-.3.7.7,0,0,0,.3-.6h.8a1.3,1.3,0,0,1-.3.8l-.7.6-.9.2a1.9,1.9,0,0,1-1.6-.7,2.9,2.9,0,0,1-.5-1.7v-.2a4.3,4.3,0,0,1,.2-1.2,1.8,1.8,0,0,1,.8-.9,2,2,0,0,1,1.1-.3,1.9,1.9,0,0,1,1.3.5,1.6,1.6,0,0,1,.6,1.3h-.8a1,1,0,0,0-1.1-1.1,1.4,1.4,0,0,0-1,.5,2.1,2.1,0,0,0-.3,1.2v.2a2.5,2.5,0,0,0,.3,1.3A1.2,1.2,0,0,0,223.7,322.2Z"/><path class="cls-5" d="M228.5,322.9a1.9,1.9,0,0,1-1.6-.7,2.4,2.4,0,0,1-.6-1.7h0a2.8,2.8,0,0,1,.3-1.3,1.8,1.8,0,0,1,.7-.8,1.7,1.7,0,0,1,2.5.3,2.2,2.2,0,0,1,.5,1.7v.3h-3.2a1.6,1.6,0,0,0,.4,1.2,1.3,1.3,0,0,0,1,.4.8.8,0,0,0,.7-.2l.6-.4.5.4A2,2,0,0,1,228.5,322.9Zm-.1-4.3a1.1,1.1,0,0,0-.9.4,1.9,1.9,0,0,0-.4,1h2.4a1.2,1.2,0,0,0-.3-.9A.9.9,0,0,0,228.4,318.6Z"/><path class="cls-5" d="M232,318v.6a1.7,1.7,0,0,1,1.4-.7c1,0,1.5.6,1.5,1.7v3.2h-.8v-3.2a1.2,1.2,0,0,0-.2-.7,1,1,0,0,0-.8-.3l-.7.2-.4.6v3.4h-.8V318Z"/><path class="cls-5" d="M237.3,316.9V318h.9v.7h-.9v2.9c0,.2.1.3.1.4l.5.2h.3v.7h-.6a.9.9,0,0,1-.8-.4,1.2,1.2,0,0,1-.3-.9v-2.9h-.8V318h.8v-1.1Z"/><path class="cls-5" d="M241.5,318.8h-.4a1.1,1.1,0,0,0-1.1.7v3.4h-.8V318h.8v.6a1.2,1.2,0,0,1,1.1-.7h.4Z"/><path class="cls-5" d="M244.1,322.9a2,2,0,0,1-1.6-.7,2.4,2.4,0,0,1-.6-1.7h0a2.8,2.8,0,0,1,.3-1.3,2.7,2.7,0,0,1,.7-.8,1.7,1.7,0,0,1,1.1-.4,1.5,1.5,0,0,1,1.4.7,2.2,2.2,0,0,1,.6,1.7v.3h-3.3a2.1,2.1,0,0,0,.4,1.2,1.3,1.3,0,0,0,1,.4,1.1,1.1,0,0,0,.8-.2l.5-.4.5.4A2,2,0,0,1,244.1,322.9Zm-.1-4.3a.9.9,0,0,0-.8.4,1.3,1.3,0,0,0-.4,1h2.3a1.2,1.2,0,0,0-.3-.9A.9.9,0,0,0,244,318.6Z"/><path class="cls-5" d="M249.7,321.5a.5.5,0,0,0-.3-.5l-.8-.3-1-.3c-.3-.1-.4-.3-.6-.5s-.1-.3-.1-.6a1.1,1.1,0,0,1,.5-1,2.1,2.1,0,0,1,1.2-.4,1.7,1.7,0,0,1,1.3.5,1,1,0,0,1,.5,1h-.8a.5.5,0,0,0-.3-.5.9.9,0,0,0-.7-.3l-.7.2a.7.7,0,0,0,0,1l.9.2a1.9,1.9,0,0,1,.9.4.9.9,0,0,1,.6.4,1.4,1.4,0,0,1,.2.7,1.4,1.4,0,0,1-.5,1,2.9,2.9,0,0,1-1.4.4l-1-.2-.7-.6a1.9,1.9,0,0,1-.2-.8h.8a.9.9,0,0,0,.3.7l.8.2.8-.2A.5.5,0,0,0,249.7,321.5Z"/></g><g id="_Group_15" data-name="&lt;Group&gt;"><path class="cls-5" d="M203.5,334H202v2.6h-.9v-6.4h2.1a2.9,2.9,0,0,1,1.7.4,2,2,0,0,1,.6,1.5,1.3,1.3,0,0,1-.4,1,2.2,2.2,0,0,1-.9.7l1.6,2.7h-1Zm-1.5-.7h1.3a1.3,1.3,0,0,0,1-.4,1.1,1.1,0,0,0,.3-.8,1.2,1.2,0,0,0-.3-.9,1.8,1.8,0,0,0-1.1-.4H202Z"/><path class="cls-5" d="M208.5,336.6a2.3,2.3,0,0,1-1.6-.6,2.4,2.4,0,0,1-.6-1.7h0a2.8,2.8,0,0,1,.3-1.3,2.2,2.2,0,0,1,.7-.9,2.3,2.3,0,0,1,1.1-.3,1.7,1.7,0,0,1,1.4.6,2.4,2.4,0,0,1,.6,1.8v.3h-3.3a1.6,1.6,0,0,0,.4,1.1,1.4,1.4,0,0,0,1,.5l.8-.2.5-.5.5.4A2,2,0,0,1,208.5,336.6Zm-.1-4.2a1.1,1.1,0,0,0-.8.3,1.3,1.3,0,0,0-.4,1h2.3a1.5,1.5,0,0,0-.3-1A1.1,1.1,0,0,0,208.4,332.4Z"/><path class="cls-5" d="M212.4,330.6v1.2h.9v.6h-.9v3c0,.2,0,.3.1.4a.5.5,0,0,0,.4.2h.4v.7h-.6c-.4,0-.7-.1-.8-.3a1.2,1.2,0,0,1-.3-.9v-3h-.9v-.6h.9v-1.2Z"/><path class="cls-5" d="M214.2,330.5c0-.1.1-.2.2-.3h.7a.4.4,0,0,1,.1.3c0,.2,0,.3-.1.4h-.4c-.1,0-.3,0-.3-.1A.5.5,0,0,1,214.2,330.5Zm.9,6.1h-.8v-4.8h.8Z"/><path class="cls-5" d="M218.7,332.5h-.4a1.1,1.1,0,0,0-1.1.7v3.4h-.8v-4.8h.8v.5a1.4,1.4,0,0,1,1.2-.6h.3Z"/><path class="cls-5" d="M221.4,336.6a2.1,2.1,0,0,1-1.6-.6,2.4,2.4,0,0,1-.6-1.7h0a5.1,5.1,0,0,1,.2-1.3,2.4,2.4,0,0,1,.8-.9,2,2,0,0,1,1.1-.3,1.8,1.8,0,0,1,1.4.6,3,3,0,0,1,.5,1.8v.3H220a1.2,1.2,0,0,0,.4,1.1,1.4,1.4,0,0,0,1,.5l.7-.2a1.2,1.2,0,0,0,.5-.5l.5.4A2,2,0,0,1,221.4,336.6Zm-.1-4.2a1.2,1.2,0,0,0-.9.3,3,3,0,0,0-.4,1h2.4a1.5,1.5,0,0,0-.3-1A1.1,1.1,0,0,0,221.3,332.4Z"/><path class="cls-5" d="M224.9,331.8v.5a2,2,0,0,1,1.4-.6,1.4,1.4,0,0,1,1.4.8l.6-.6.9-.2c1.1,0,1.6.6,1.6,1.7v3.2H230v-3.2a1.2,1.2,0,0,0-.2-.7,1.2,1.2,0,0,0-1.6,0,.8.8,0,0,0-.3.7v3.2h-.8v-3.2c0-.7-.4-1-1.1-1a1,1,0,0,0-1,.7v3.5h-.9v-4.8Z"/><path class="cls-5" d="M234,336.6a2.3,2.3,0,0,1-1.6-.6,2.4,2.4,0,0,1-.6-1.7h0a2.8,2.8,0,0,1,.3-1.3,1.8,1.8,0,0,1,.8-.9,1.9,1.9,0,0,1,2.4.3,2.4,2.4,0,0,1,.6,1.8v.3h-3.3a1.6,1.6,0,0,0,.5,1.1,1.1,1.1,0,0,0,1,.5l.7-.2.5-.5.5.4A2,2,0,0,1,234,336.6Zm-.1-4.2a1.1,1.1,0,0,0-.8.3,1.8,1.8,0,0,0-.4,1H235a1.5,1.5,0,0,0-.3-1A1.1,1.1,0,0,0,233.9,332.4Z"/><path class="cls-5" d="M237.6,331.8v.6a1.6,1.6,0,0,1,1.4-.7c1,0,1.5.6,1.5,1.7v3.2h-.8v-3.2a1.9,1.9,0,0,0-.2-.8l-.7-.2-.7.2c-.2.2-.4.3-.5.6v3.4h-.8v-4.8Z"/><path class="cls-5" d="M242.9,330.6v1.2h.9v.6h-.9v3c0,.2,0,.3.1.4a.5.5,0,0,0,.4.2h.4v.7h-.6a1.2,1.2,0,0,1-.9-.3,2,2,0,0,1-.2-.9v-3h-.9v-.6h.9v-1.2Z"/></g><g id="_Group_16" data-name="&lt;Group&gt;"><path class="cls-5" d="M200.9,350.3v-6.4h1.8a2.3,2.3,0,0,1,1.4.4,1.9,1.9,0,0,1,1,1,2.9,2.9,0,0,1,.4,1.6v.4a2.9,2.9,0,0,1-.4,1.6,1.7,1.7,0,0,1-1,1,2.4,2.4,0,0,1-1.5.4Zm.8-5.7v5h.9a2,2,0,0,0,1.5-.6,2.4,2.4,0,0,0,.6-1.7v-.4a2.4,2.4,0,0,0-.6-1.7,1.7,1.7,0,0,0-1.4-.6Z"/><path class="cls-5" d="M208.6,350.4a2.3,2.3,0,0,1-1.6-.6,2.5,2.5,0,0,1-.6-1.7v-.2a2.4,2.4,0,0,1,.3-1.2,1.8,1.8,0,0,1,.8-.9,1.9,1.9,0,0,1,2.4.3,2.4,2.4,0,0,1,.6,1.7v.4h-3.3a2.2,2.2,0,0,0,.5,1.1,1.1,1.1,0,0,0,1,.4h.7l.5-.5.5.4A2,2,0,0,1,208.6,350.4Zm-.1-4.3a1.2,1.2,0,0,0-.8.4,1.5,1.5,0,0,0-.4,1h2.4a1.9,1.9,0,0,0-.4-.9A1.2,1.2,0,0,0,208.5,346.1Z"/><path class="cls-5" d="M212.9,349.2l1.2-3.6h.8l-1.7,4.7h-.6l-1.7-4.7h.8Z"/><path class="cls-5" d="M217.6,350.4a2.5,2.5,0,0,1-1.6-.6,2.5,2.5,0,0,1-.6-1.7v-.2a2.4,2.4,0,0,1,.3-1.2,1.8,1.8,0,0,1,.8-.9,1.7,1.7,0,0,1,1-.3,2,2,0,0,1,1.5.6,2.9,2.9,0,0,1,.5,1.7v.4h-3.2a1.5,1.5,0,0,0,.4,1.1,1.2,1.2,0,0,0,1,.4h.7l.5-.5.5.4A2,2,0,0,1,217.6,350.4Zm-.1-4.3a1.2,1.2,0,0,0-.8.4,1.5,1.5,0,0,0-.4,1h2.4a1.9,1.9,0,0,0-.4-.9A1,1,0,0,0,217.5,346.1Z"/><path class="cls-5" d="M221.3,350.3h-.8v-6.7h.8Z"/><path class="cls-5" d="M222.4,347.9a2.8,2.8,0,0,1,.3-1.3,1.8,1.8,0,0,1,.7-.8,2.3,2.3,0,0,1,1.1-.3,1.9,1.9,0,0,1,1.6.7,2.4,2.4,0,0,1,.6,1.7h0a2.1,2.1,0,0,1-.3,1.2,1.6,1.6,0,0,1-.7.9,2,2,0,0,1-1.1.3,1.9,1.9,0,0,1-1.6-.7,2.4,2.4,0,0,1-.6-1.7Zm.8.1a2,2,0,0,0,.4,1.3,1.1,1.1,0,0,0,1,.4,1,1,0,0,0,.9-.4,2.1,2.1,0,0,0,.4-1.4,2,2,0,0,0-.4-1.3,1.1,1.1,0,0,0-1-.5,1.1,1.1,0,0,0-.9.5A2,2,0,0,0,223.2,348Z"/><path class="cls-5" d="M231.8,348a2.9,2.9,0,0,1-.5,1.7,1.6,1.6,0,0,1-1.4.7,2.2,2.2,0,0,1-1.4-.5v2.2h-.8v-6.5h.8v.5a1.7,1.7,0,0,1,1.4-.6,1.8,1.8,0,0,1,1.4.6,3.5,3.5,0,0,1,.5,1.8Zm-.9-.1a2.5,2.5,0,0,0-.3-1.3,1,1,0,0,0-.9-.4,1.4,1.4,0,0,0-1.2.6v2.3a1.4,1.4,0,0,0,1.2.6,1,1,0,0,0,.9-.4A2.6,2.6,0,0,0,230.9,347.9Z"/><path class="cls-5" d="M233.5,345.6v.5a1.7,1.7,0,0,1,1.4-.6,1.3,1.3,0,0,1,1.3.7,1.8,1.8,0,0,1,.7-.5c.2-.2.5-.2.9-.2s1.5.5,1.5,1.6v3.2h-.8v-3.1c0-.4,0-.6-.2-.8l-.8-.2-.7.2a2,2,0,0,0-.4.8v3.1h-.8v-3.1c0-.7-.3-1-1-1a1.1,1.1,0,0,0-1.1.6v3.5h-.8v-4.7Z"/><path class="cls-5" d="M242.6,350.4a2,2,0,0,1-1.5-.6,2.5,2.5,0,0,1-.6-1.7v-.2a4.3,4.3,0,0,1,.2-1.2,2.4,2.4,0,0,1,.8-.9,1.9,1.9,0,0,1,1-.3,1.9,1.9,0,0,1,1.5.6,2.9,2.9,0,0,1,.5,1.7v.4h-3.2a1.5,1.5,0,0,0,.4,1.1,1.3,1.3,0,0,0,1,.4h.7l.5-.5.5.4A2,2,0,0,1,242.6,350.4Zm-.1-4.3a1.2,1.2,0,0,0-.8.4,2.3,2.3,0,0,0-.4,1h2.4a1.2,1.2,0,0,0-.3-.9A1.3,1.3,0,0,0,242.5,346.1Z"/><path class="cls-5" d="M246.2,345.6v.6a1.8,1.8,0,0,1,1.5-.7c1,0,1.5.5,1.5,1.7v3.1h-.8v-3.1a1,1,0,0,0-.3-.8l-.7-.2a.8.8,0,0,0-.7.2,1,1,0,0,0-.4.5v3.4h-.9v-4.7Z"/><path class="cls-5" d="M251.5,344.4v1.2h.9v.6h-.9v2.9a.7.7,0,0,0,.1.5h.8v.6h-.6a1,1,0,0,1-.8-.3,1.5,1.5,0,0,1-.3-1v-2.9h-.9v-.6h.9v-1.2Z"/></g><g id="_Group_17" data-name="&lt;Group&gt;"><path class="cls-5" d="M205.8,362.1a2.4,2.4,0,0,1-.7,1.5,2.5,2.5,0,0,1-1.7.6,2.2,2.2,0,0,1-1.8-.8,3.2,3.2,0,0,1-.7-2.2v-.6a4.1,4.1,0,0,1,.3-1.6,2.2,2.2,0,0,1,.9-1,2.3,2.3,0,0,1,1.4-.4,2.3,2.3,0,0,1,1.6.6,2,2,0,0,1,.7,1.5H205a2.8,2.8,0,0,0-.5-1.1,1.7,1.7,0,0,0-1-.3,1.5,1.5,0,0,0-1.3.6,2.9,2.9,0,0,0-.5,1.7v.6a2.9,2.9,0,0,0,.5,1.7,1.4,1.4,0,0,0,1.2.6,1.8,1.8,0,0,0,1.1-.3,2.3,2.3,0,0,0,.5-1.1Z"/><path class="cls-5" d="M208.4,362.9l1.1-3.6h.9l-1.9,5.5c-.3.8-.8,1.2-1.4,1.2h-.5v-.6h.2l.7-.2.3-.6.2-.5-1.7-4.7h.9Z"/><path class="cls-5" d="M215.1,361.8a2.3,2.3,0,0,1-.5,1.7,1.5,1.5,0,0,1-1.3.7,1.5,1.5,0,0,1-1.4-.7v.6h-.7v-6.8h.8v2.6a1.5,1.5,0,0,1,1.4-.7,1.7,1.7,0,0,1,1.3.7,2.4,2.4,0,0,1,.5,1.8Zm-.8-.1a2.3,2.3,0,0,0-.3-1.3,1.1,1.1,0,0,0-.9-.5,1.2,1.2,0,0,0-1.2.8v2a1.3,1.3,0,0,0,1.2.8,1.1,1.1,0,0,0,.9-.5A2.3,2.3,0,0,0,214.3,361.7Z"/><path class="cls-5" d="M218.1,364.2a2.1,2.1,0,0,1-1.6-.7,2.2,2.2,0,0,1-.6-1.7h0a2.8,2.8,0,0,1,.3-1.3,2,2,0,0,1,.8-.8,1.3,1.3,0,0,1,1-.4,1.8,1.8,0,0,1,1.5.7,2.6,2.6,0,0,1,.5,1.7v.3h-3.2a1.6,1.6,0,0,0,.4,1.2,1.2,1.2,0,0,0,1,.4.8.8,0,0,0,.7-.2,1,1,0,0,0,.5-.4l.5.4A2,2,0,0,1,218.1,364.2Zm-.1-4.3a.9.9,0,0,0-.8.4,1.3,1.3,0,0,0-.4,1h2.4a1.9,1.9,0,0,0-.4-.9A.8.8,0,0,0,218,359.9Z"/><path class="cls-5" d="M223.2,360.1h-.4a1.2,1.2,0,0,0-1.1.7v3.4h-.8v-4.8h.8v.6a1.5,1.5,0,0,1,1.2-.7h.3Z"/><path class="cls-5" d="M229,362.8a.5.5,0,0,0-.3-.5l-.9-.3-.9-.3a1,1,0,0,1-.6-.5c-.1-.1-.1-.3-.1-.6a1.3,1.3,0,0,1,.4-1,2.8,2.8,0,0,1,1.3-.4,1.7,1.7,0,0,1,1.3.5,1,1,0,0,1,.5,1h-.8a.5.5,0,0,0-.3-.5.9.9,0,0,0-.7-.3l-.7.2a.8.8,0,0,0-.2.5c0,.2,0,.4.2.5l.8.2a2.3,2.3,0,0,1,1,.4.9.9,0,0,1,.6.4,1.4,1.4,0,0,1,.2.7,1.4,1.4,0,0,1-.5,1,2.9,2.9,0,0,1-1.4.4l-1-.2a2,2,0,0,1-.7-.6,1.9,1.9,0,0,1-.2-.8h.8a.9.9,0,0,0,.3.7l.8.2a1.1,1.1,0,0,0,.8-.2A.5.5,0,0,0,229,362.8Z"/><path class="cls-5" d="M232.8,364.2a2,2,0,0,1-1.6-.7,2.2,2.2,0,0,1-.6-1.7h0a2.8,2.8,0,0,1,.3-1.3,2,2,0,0,1,.8-.8,1.3,1.3,0,0,1,1-.4,1.5,1.5,0,0,1,1.4.7,2.2,2.2,0,0,1,.6,1.7v.3h-3.3a2.1,2.1,0,0,0,.4,1.2,1.3,1.3,0,0,0,1,.4,1.1,1.1,0,0,0,.8-.2,1,1,0,0,0,.5-.4l.5.4A2,2,0,0,1,232.8,364.2Zm-.1-4.3a.9.9,0,0,0-.8.4,1.3,1.3,0,0,0-.4,1h2.3a1.2,1.2,0,0,0-.3-.9A.9.9,0,0,0,232.7,359.9Z"/><path class="cls-5" d="M237.5,363.5a1.3,1.3,0,0,0,.8-.3.6.6,0,0,0,.3-.6h.8a1.3,1.3,0,0,1-.3.8l-.7.6-.9.2a1.7,1.7,0,0,1-1.5-.7,2.4,2.4,0,0,1-.6-1.7v-.2a4.3,4.3,0,0,1,.2-1.2,2.4,2.4,0,0,1,.8-.9,2,2,0,0,1,1.1-.3,1.9,1.9,0,0,1,1.3.5,1.6,1.6,0,0,1,.6,1.3h-.8a1,1,0,0,0-1.1-1.1,1.4,1.4,0,0,0-1,.5,2.1,2.1,0,0,0-.3,1.2v.2a2.3,2.3,0,0,0,.3,1.3A1.3,1.3,0,0,0,237.5,363.5Z"/><path class="cls-5" d="M243.2,363.6a1.7,1.7,0,0,1-2.5.1,1.7,1.7,0,0,1-.4-1.3v-3.1h.8v3.1c0,.7.3,1.1.9,1.1a1.1,1.1,0,0,0,1.2-.7v-3.5h.8v4.8h-.7Z"/><path class="cls-5" d="M247.6,360.1h-.4a1.1,1.1,0,0,0-1.1.7v3.4h-.8v-4.8h.8v.6a1.2,1.2,0,0,1,1.1-.7h.4Z"/><path class="cls-5" d="M248.3,358.1c0-.2.1-.3.1-.4h.8c0,.1.1.2.1.4v.3h-.8Zm.9,6h-.8v-4.8h.8Z"/><path class="cls-5" d="M251.6,358.2v1.1h.9v.7h-.9v2.9c0,.2,0,.3.1.4l.4.2h.4v.7h-.6a.8.8,0,0,1-.8-.4,1.2,1.2,0,0,1-.3-.9V360h-.9v-.7h.9v-1.1Z"/><path class="cls-5" d="M255,362.9l1.1-3.6h.9l-1.9,5.5c-.3.8-.8,1.2-1.4,1.2h-.5v-.6h.2l.7-.2a1.6,1.6,0,0,0,.3-.6l.2-.5-1.7-4.7h.9Z"/></g></g><g id="_Group_18" data-name="&lt;Group&gt;"><circle id="_Path_4" data-name="&lt;Path&gt;" class="cls-6" cx="190.9" cy="195.9" r="1.7"/><circle id="_Path_5" data-name="&lt;Path&gt;" class="cls-6" cx="190.9" cy="209.6" r="1.7"/><circle id="_Path_6" data-name="&lt;Path&gt;" class="cls-6" cx="190.9" cy="223.3" r="1.7"/><circle id="_Path_7" data-name="&lt;Path&gt;" class="cls-6" cx="190.9" cy="237" r="1.7"/><circle id="_Path_8" data-name="&lt;Path&gt;" class="cls-6" cx="190.9" cy="250.7" r="1.7"/><circle id="_Path_9" data-name="&lt;Path&gt;" class="cls-6" cx="190.9" cy="264.4" r="1.7"/><circle id="_Path_10" data-name="&lt;Path&gt;" class="cls-6" cx="190.9" cy="278.2" r="1.7"/><circle id="_Path_11" data-name="&lt;Path&gt;" class="cls-6" cx="190.9" cy="291.9" r="1.7"/><circle id="_Path_12" data-name="&lt;Path&gt;" class="cls-6" cx="190.9" cy="305.6" r="1.7"/><circle id="_Path_13" data-name="&lt;Path&gt;" class="cls-6" cx="190.9" cy="319.3" r="1.7"/><circle id="_Path_14" data-name="&lt;Path&gt;" class="cls-6" cx="190.9" cy="333" r="1.7"/><circle id="_Path_15" data-name="&lt;Path&gt;" class="cls-6" cx="190.9" cy="346.7" r="1.7"/><circle id="_Path_16" data-name="&lt;Path&gt;" class="cls-6" cx="190.9" cy="360.4" r="1.7"/></g><g id="_Group_19" data-name="&lt;Group&gt;"><path class="cls-5" d="M110.6,17.3a5.4,5.4,0,0,1-2.4-1.2,2.3,2.3,0,0,1-.8-1.7,2.5,2.5,0,0,1,.9-2,4.1,4.1,0,0,1,2.5-.8,4.8,4.8,0,0,1,1.8.4,3.6,3.6,0,0,1,1.3,1.1,2.9,2.9,0,0,1,.4,1.6H113a2,2,0,0,0-.6-1.5,2.5,2.5,0,0,0-1.6-.5,2.7,2.7,0,0,0-1.5.4,1.4,1.4,0,0,0-.6,1.2,1.6,1.6,0,0,0,.5,1.1,8.4,8.4,0,0,0,1.8.7,9,9,0,0,1,1.9.8,2.7,2.7,0,0,1,1.1,1,2.8,2.8,0,0,1,.3,1.3,2.2,2.2,0,0,1-.9,1.9,4.1,4.1,0,0,1-2.5.8,6.5,6.5,0,0,1-2-.4,2.8,2.8,0,0,1-1.3-1.1,2.3,2.3,0,0,1-.5-1.5h1.3a1.6,1.6,0,0,0,.7,1.4,3,3,0,0,0,1.8.5,2.2,2.2,0,0,0,1.5-.4,1.5,1.5,0,0,0,.1-2.3A7.1,7.1,0,0,0,110.6,17.3Z"/><path class="cls-5" d="M115.5,18a4.2,4.2,0,0,1,.4-2,3,3,0,0,1,1.2-1.3,3.4,3.4,0,0,1,1.7-.5,3.4,3.4,0,0,1,2.5,1.1,3.8,3.8,0,0,1,.9,2.7h0a4.5,4.5,0,0,1-.4,2,3.7,3.7,0,0,1-1.2,1.3,3.5,3.5,0,0,1-1.8.5,3,3,0,0,1-2.4-1.1,4,4,0,0,1-.9-2.7Zm1.2.1a3.2,3.2,0,0,0,.6,2,1.8,1.8,0,0,0,1.5.7,1.9,1.9,0,0,0,1.6-.7,4.1,4.1,0,0,0,.5-2.1,3.9,3.9,0,0,0-.5-2,1.9,1.9,0,0,0-1.6-.8,1.9,1.9,0,0,0-1.5.8A3.3,3.3,0,0,0,116.7,18.1Z"/><path class="cls-5" d="M124.4,21.7V15.3h-1.2v-1h1.2v-.7a2.9,2.9,0,0,1,.6-1.9,2.8,2.8,0,0,1,1.8-.6h.9v1H127a1.3,1.3,0,0,0-1,.3,1.8,1.8,0,0,0-.3,1.1v.7h1.6v1h-1.6v6.4Z"/><path class="cls-5" d="M130.4,12.5v1.8h1.3v1h-1.3v4.6a1.5,1.5,0,0,0,.1.7l.7.2h.6v1l-1,.2a1.7,1.7,0,0,1-1.3-.5,2.4,2.4,0,0,1-.4-1.5V15.3h-1.3v-1h1.3V12.5Z"/><path class="cls-5" d="M139.8,20l1.4-5.7h1.3l-2.2,7.4h-1l-1.8-5.6-1.8,5.6h-1l-2.1-7.4h1.2l1.5,5.6,1.7-5.6h1Z"/><path class="cls-5" d="M148.3,21.7c-.1-.1-.1-.4-.2-.7a2.9,2.9,0,0,1-2.1.9,2.8,2.8,0,0,1-1.8-.6,2.6,2.6,0,0,1-.7-1.6,2,2,0,0,1,.9-1.8,4.4,4.4,0,0,1,2.5-.6h1.2v-.6a1.4,1.4,0,0,0-.4-1.1,1.9,1.9,0,0,0-1.2-.4,1.5,1.5,0,0,0-1.1.4.9.9,0,0,0-.4.8h-1.3a1.7,1.7,0,0,1,.4-1.1,2.7,2.7,0,0,1,1-.8l1.5-.3a3,3,0,0,1,2,.6,2.5,2.5,0,0,1,.8,1.8V20a6.3,6.3,0,0,0,.2,1.6h-1.3Zm-2.1-.9a2,2,0,0,0,1.1-.3,1.5,1.5,0,0,0,.8-.8V18.1h-1c-1.5,0-2.3.5-2.3,1.4a1,1,0,0,0,.4.9A1.3,1.3,0,0,0,146.2,20.8Z"/><path class="cls-5" d="M154.9,15.5h-.6a1.8,1.8,0,0,0-1.7,1.1v5.2h-1.2V14.3h1.2v.9a1.9,1.9,0,0,1,1.8-1h.5Z"/><path class="cls-5" d="M159,21.9a3.3,3.3,0,0,1-2.4-1,4.1,4.1,0,0,1-1-2.7V18a4.6,4.6,0,0,1,.5-2,2.8,2.8,0,0,1,1.1-1.3,3.4,3.4,0,0,1,1.7-.5,2.6,2.6,0,0,1,2.2,1,3.6,3.6,0,0,1,.8,2.7v.5h-5a2.8,2.8,0,0,0,.6,1.8,2.5,2.5,0,0,0,1.6.6,2,2,0,0,0,1.1-.2l.9-.8.7.6A3,3,0,0,1,159,21.9Zm-.1-6.7a1.6,1.6,0,0,0-1.3.6,2.6,2.6,0,0,0-.7,1.6h3.8a2.6,2.6,0,0,0-.6-1.5A1.4,1.4,0,0,0,158.9,15.2Z"/><path class="cls-5" d="M168.7,11.8l3.3,8.1,3.2-8.1H177v9.9h-1.4V17.9l.2-4.2-3.3,8h-1l-3.3-8,.2,4.2v3.8H167V11.8Z"/><path class="cls-5" d="M183.6,21.7a5.6,5.6,0,0,1-.1-.7,2.9,2.9,0,0,1-2.1.9,2.4,2.4,0,0,1-1.8-.6,2.1,2.1,0,0,1-.7-1.6,2.2,2.2,0,0,1,.8-1.8,4.4,4.4,0,0,1,2.5-.6h1.2v-.6a1.4,1.4,0,0,0-.4-1.1,1.9,1.9,0,0,0-2.3,0,.9.9,0,0,0-.4.8H179a1.7,1.7,0,0,1,.4-1.1,3.1,3.1,0,0,1,1.1-.8,3.2,3.2,0,0,1,1.4-.3,3.3,3.3,0,0,1,2.1.6,2.9,2.9,0,0,1,.7,1.8V20a3.5,3.5,0,0,0,.3,1.6h-1.4Zm-2.1-.9a2.7,2.7,0,0,0,1.2-.3,1.8,1.8,0,0,0,.7-.8V18.1h-1c-1.5,0-2.3.5-2.3,1.4a1.3,1.3,0,0,0,.4.9A1.3,1.3,0,0,0,181.5,20.8Z"/><path class="cls-5" d="M187.9,14.3v1a2.8,2.8,0,0,1,2.2-1.1c1.6,0,2.4.9,2.4,2.6v4.9h-1.3V16.8a1.6,1.6,0,0,0-.3-1.1,1.4,1.4,0,0,0-1.1-.4,1.8,1.8,0,0,0-1.1.3,1.6,1.6,0,0,0-.7.9v5.2h-1.3V14.3Z"/><path class="cls-5" d="M199,21.7a1.2,1.2,0,0,1-.2-.7,2.9,2.9,0,0,1-2.1.9,2.8,2.8,0,0,1-1.8-.6,2.1,2.1,0,0,1-.7-1.6,2,2,0,0,1,.9-1.8,4.3,4.3,0,0,1,2.4-.6h1.3v-.6a1.8,1.8,0,0,0-.4-1.1,2.1,2.1,0,0,0-1.2-.4,1.5,1.5,0,0,0-1.1.4,1,1,0,0,0-.5.8h-1.3a2.5,2.5,0,0,1,.4-1.1l1.1-.8,1.5-.3a3.2,3.2,0,0,1,2,.6,2.4,2.4,0,0,1,.7,1.8V20a3.5,3.5,0,0,0,.3,1.6H199Zm-2.1-.9a2,2,0,0,0,1.1-.3,2,2,0,0,0,.8-.8V18.1h-1c-1.6,0-2.3.5-2.3,1.4a1,1,0,0,0,.4.9A1.2,1.2,0,0,0,196.9,20.8Z"/><path class="cls-5" d="M201.7,18a4.7,4.7,0,0,1,.8-2.8,2.6,2.6,0,0,1,2.1-1,2.6,2.6,0,0,1,2.2,1v-.9H208v7.3a2.8,2.8,0,0,1-.9,2.2,2.8,2.8,0,0,1-2.3.8,4,4,0,0,1-1.5-.3,2.7,2.7,0,0,1-1.2-.9l.7-.8a2.3,2.3,0,0,0,1.9,1,2.3,2.3,0,0,0,1.5-.5,2.1,2.1,0,0,0,.5-1.5V21a2.6,2.6,0,0,1-2.1.9,2.8,2.8,0,0,1-2.1-1.1A4.7,4.7,0,0,1,201.7,18Zm1.3.1a3.7,3.7,0,0,0,.5,2,1.6,1.6,0,0,0,1.4.7,2,2,0,0,0,1.8-1.1V16.3a1.9,1.9,0,0,0-1.7-1,1.7,1.7,0,0,0-1.5.7A4.1,4.1,0,0,0,203,18.1Z"/><path class="cls-5" d="M212.9,21.9a3.3,3.3,0,0,1-2.4-1,4,4,0,0,1-.9-2.7V18a4.5,4.5,0,0,1,.4-2,3.7,3.7,0,0,1,1.2-1.3,3,3,0,0,1,1.6-.5,2.5,2.5,0,0,1,2.2,1,3.6,3.6,0,0,1,.8,2.7v.5h-5a2.9,2.9,0,0,0,.7,1.8,2,2,0,0,0,1.5.6,2.3,2.3,0,0,0,1.2-.2,6,6,0,0,0,.8-.8l.7.6A3,3,0,0,1,212.9,21.9Zm-.1-6.7a1.8,1.8,0,0,0-1.3.6,2.6,2.6,0,0,0-.6,1.6h3.7c-.1-.7-.2-1.2-.6-1.5A1.4,1.4,0,0,0,212.8,15.2Z"/><path class="cls-5" d="M218.5,14.3v.9a2.7,2.7,0,0,1,2.2-1,2.1,2.1,0,0,1,2.1,1.2,4.3,4.3,0,0,1,1-.9,2.9,2.9,0,0,1,1.4-.3c1.6,0,2.4.9,2.5,2.6v4.9h-1.3V16.9c0-.6-.1-1-.4-1.2s-.6-.4-1.2-.4a1.7,1.7,0,0,0-1.2.4,2.2,2.2,0,0,0-.5,1.1v4.9h-1.3V16.9c0-1.1-.5-1.6-1.5-1.6a1.6,1.6,0,0,0-1.7,1v5.4h-1.3V14.3Z"/><path class="cls-5" d="M232.6,21.9a3.3,3.3,0,0,1-2.4-1,4.1,4.1,0,0,1-1-2.7V18a4.6,4.6,0,0,1,.5-2,2.8,2.8,0,0,1,1.1-1.3,3.4,3.4,0,0,1,1.7-.5,2.6,2.6,0,0,1,2.2,1,3.6,3.6,0,0,1,.8,2.7v.5h-5a2.4,2.4,0,0,0,.7,1.8,2,2,0,0,0,1.5.6,1.8,1.8,0,0,0,1.1-.2,3.4,3.4,0,0,0,.9-.8l.7.6A3,3,0,0,1,232.6,21.9Zm-.1-6.7a1.6,1.6,0,0,0-1.3.6,2.1,2.1,0,0,0-.6,1.6h3.7a2.6,2.6,0,0,0-.6-1.5A1.4,1.4,0,0,0,232.5,15.2Z"/><path class="cls-5" d="M238.2,14.3v1a2.8,2.8,0,0,1,2.2-1.1c1.6,0,2.4.9,2.4,2.6v4.9h-1.3V16.8a1.6,1.6,0,0,0-.3-1.1,1.4,1.4,0,0,0-1.1-.4,1.8,1.8,0,0,0-1.1.3,2.4,2.4,0,0,0-.8.9v5.2H237V14.3Z"/><path class="cls-5" d="M246.4,12.5v1.8h1.4v1h-1.4v4.6a1.4,1.4,0,0,0,.2.7l.6.2h.6v1l-.9.2a1.7,1.7,0,0,1-1.3-.5,2.4,2.4,0,0,1-.4-1.5V15.3h-1.4v-1h1.4V12.5Z"/><path class="cls-5" d="M255.4,18H252V17h3.4Z"/><path class="cls-5" d="M267.6,18.6a3.5,3.5,0,0,1-1.2,2.4,3.6,3.6,0,0,1-2.6.9,3.3,3.3,0,0,1-2.8-1.3,5.1,5.1,0,0,1-1.1-3.4v-.9a6.2,6.2,0,0,1,.5-2.5,4.4,4.4,0,0,1,1.4-1.6,3.7,3.7,0,0,1,2.1-.6,3.7,3.7,0,0,1,2.6.9,3.9,3.9,0,0,1,1.1,2.5h-1.3a2.5,2.5,0,0,0-.8-1.7,2,2,0,0,0-1.6-.6,2.1,2.1,0,0,0-1.9,1,4,4,0,0,0-.7,2.6v1a4.6,4.6,0,0,0,.6,2.5,2.2,2.2,0,0,0,1.9,1,2.6,2.6,0,0,0,1.7-.5,3,3,0,0,0,.8-1.7Z"/><path class="cls-5" d="M273.8,21.7a1.2,1.2,0,0,1-.2-.7,2.9,2.9,0,0,1-2.1.9,2.4,2.4,0,0,1-1.8-.6,2.1,2.1,0,0,1-.7-1.6,2,2,0,0,1,.9-1.8,4,4,0,0,1,2.4-.6h1.3v-.6a1.8,1.8,0,0,0-.4-1.1,2.1,2.1,0,0,0-1.2-.4,1.4,1.4,0,0,0-1.1.4,1,1,0,0,0-.5.8h-1.3a2.5,2.5,0,0,1,.4-1.1,3.1,3.1,0,0,1,1.1-.8,3.3,3.3,0,0,1,1.5-.3,3.2,3.2,0,0,1,2,.6,2.4,2.4,0,0,1,.7,1.8V20a3.5,3.5,0,0,0,.3,1.6h-1.3Zm-2.1-.9a2.3,2.3,0,0,0,1.1-.3,3,3,0,0,0,.8-.8V18.1h-1c-1.6,0-2.4.5-2.4,1.4a1.3,1.3,0,0,0,.4.9A1.4,1.4,0,0,0,271.7,20.8Z"/><path class="cls-5" d="M281.4,21a2.7,2.7,0,0,1-2.2.9,2.5,2.5,0,0,1-1.8-.7,3,3,0,0,1-.6-2V14.3H278v4.8c0,1.1.5,1.7,1.4,1.7a1.8,1.8,0,0,0,1.9-1.1V14.3h1.3v7.4h-1.2Z"/><path class="cls-5" d="M288.8,19.8a.8.8,0,0,0-.4-.8,2.7,2.7,0,0,0-1.3-.5,4.4,4.4,0,0,1-1.5-.5,2.2,2.2,0,0,1-.9-.7,2.4,2.4,0,0,1-.2-.9,2.1,2.1,0,0,1,.7-1.6,3.2,3.2,0,0,1,2-.6,2.7,2.7,0,0,1,2,.7,1.7,1.7,0,0,1,.8,1.6h-1.2a1.4,1.4,0,0,0-.5-.9,2.1,2.1,0,0,0-1.1-.4,1.8,1.8,0,0,0-1.1.3,1.2,1.2,0,0,0-.4.8.8.8,0,0,0,.4.7,4.4,4.4,0,0,0,1.3.5,5.3,5.3,0,0,1,1.5.5,2.2,2.2,0,0,1,.9.7,1.7,1.7,0,0,1,.3,1,2.1,2.1,0,0,1-.8,1.6,3.3,3.3,0,0,1-2.1.6,3.7,3.7,0,0,1-1.5-.3,2.4,2.4,0,0,1-1.1-.9,1.9,1.9,0,0,1-.4-1.2h1.3a1.4,1.4,0,0,0,.5,1,2.1,2.1,0,0,0,1.2.3l1.2-.2A.9.9,0,0,0,288.8,19.8Z"/><path class="cls-5" d="M294.8,21.9a3.3,3.3,0,0,1-2.4-1,3.6,3.6,0,0,1-1-2.7V18a6.5,6.5,0,0,1,.4-2,3.7,3.7,0,0,1,1.2-1.3,3.4,3.4,0,0,1,1.7-.5,2.6,2.6,0,0,1,2.2,1,4.1,4.1,0,0,1,.8,2.7v.5h-5a2.8,2.8,0,0,0,.6,1.8,2.1,2.1,0,0,0,1.6.6,2,2,0,0,0,1.1-.2,3,3,0,0,0,.8-.8l.8.6A3.1,3.1,0,0,1,294.8,21.9Zm-.1-6.7a1.5,1.5,0,0,0-1.3.6,2.6,2.6,0,0,0-.7,1.6h3.7a2.1,2.1,0,0,0-.5-1.5A1.4,1.4,0,0,0,294.7,15.2Z"/><path class="cls-5" d="M302.4,19.1a2.3,2.3,0,0,1,.4-1.4,5.2,5.2,0,0,1,1.5-1.4,3.1,3.1,0,0,1-.9-1.3,1.5,1.5,0,0,1-.2-.9,2.4,2.4,0,0,1,.6-1.8,2.9,2.9,0,0,1,1.9-.7,2.7,2.7,0,0,1,1.7.6,2.1,2.1,0,0,1,.6,1.6,2.3,2.3,0,0,1-.3,1.1,3.1,3.1,0,0,1-1,1l-.8.6,2.2,2.6a4.2,4.2,0,0,0,.5-2h1.1a4.3,4.3,0,0,1-.8,2.9l1.4,1.7h-1.5l-.7-.7a2.4,2.4,0,0,1-1.1.6l-1.4.3a3.6,3.6,0,0,1-2.4-.8A2.8,2.8,0,0,1,302.4,19.1Zm3.2,1.7a2.6,2.6,0,0,0,1.8-.7L305,17.2h-.2a2.4,2.4,0,0,0-1.2,1.8,2.1,2.1,0,0,0,.5,1.3A2.4,2.4,0,0,0,305.6,20.8ZM304.4,14a3.2,3.2,0,0,0,.8,1.7l.8-.6a1.4,1.4,0,0,0,.7-.6,1.9,1.9,0,0,0,.2-.7,1,1,0,0,0-.4-.8,1.1,1.1,0,0,0-.8-.3,1,1,0,0,0-.9.4A1,1,0,0,0,304.4,14Z"/><path class="cls-5" d="M320.6,17.1h-4.3v3.6h5v1H315V11.8h6.2v1.1h-4.9v3.2h4.3Z"/><path class="cls-5" d="M323.2,21.7V15.3h-1.1v-1h1.1v-.7a2.9,2.9,0,0,1,.7-1.9,2.4,2.4,0,0,1,1.8-.6h.8v1h-.7a1.7,1.7,0,0,0-1,.3,1.8,1.8,0,0,0-.3,1.1v.7h1.6v1h-1.6v6.4Z"/><path class="cls-5" d="M328.1,21.7V15.3h-1.2v-1h1.2v-.7a2.9,2.9,0,0,1,.6-1.9,2.8,2.8,0,0,1,1.8-.6h.9v1h-.6a1.3,1.3,0,0,0-1,.3,1.8,1.8,0,0,0-.3,1.1v.7H331v1h-1.6v6.4Z"/><path class="cls-5" d="M335.3,21.9a3.4,3.4,0,0,1-2.5-1,4,4,0,0,1-.9-2.7V18a4.5,4.5,0,0,1,.4-2,3.7,3.7,0,0,1,1.2-1.3,3,3,0,0,1,1.6-.5,2.5,2.5,0,0,1,2.2,1,3.6,3.6,0,0,1,.8,2.7v.5h-5a2.9,2.9,0,0,0,.7,1.8,2,2,0,0,0,1.5.6,2.3,2.3,0,0,0,1.2-.2,6,6,0,0,0,.8-.8l.7.6A2.9,2.9,0,0,1,335.3,21.9Zm-.2-6.7a1.8,1.8,0,0,0-1.3.6,2.6,2.6,0,0,0-.6,1.6h3.7a2.6,2.6,0,0,0-.5-1.5A1.8,1.8,0,0,0,335.1,15.2Z"/><path class="cls-5" d="M342.6,20.8a1.5,1.5,0,0,0,1.1-.4,1.1,1.1,0,0,0,.6-1h1.2a2.8,2.8,0,0,1-.4,1.2,3.1,3.1,0,0,1-1.1.9,2.5,2.5,0,0,1-1.4.4,3.3,3.3,0,0,1-2.4-1,4.1,4.1,0,0,1-.9-2.8v-.2a3.8,3.8,0,0,1,.4-1.9,2.4,2.4,0,0,1,1.1-1.3,3.5,3.5,0,0,1,1.8-.5,3.2,3.2,0,0,1,2,.7,2.5,2.5,0,0,1,.9,2h-1.2a1.7,1.7,0,0,0-.5-1.2,2.1,2.1,0,0,0-1.2-.5,1.8,1.8,0,0,0-1.5.7,3.2,3.2,0,0,0-.6,2v.3a3.2,3.2,0,0,0,.6,2A1.8,1.8,0,0,0,342.6,20.8Z"/><path class="cls-5" d="M348.6,12.5v1.8H350v1h-1.4v4.6a1.4,1.4,0,0,0,.2.7l.7.2h.6v1l-1,.2a1.7,1.7,0,0,1-1.3-.5,2.4,2.4,0,0,1-.4-1.5V15.3H346v-1h1.4V12.5Z"/></g></svg>