<svg xmlns="http://www.w3.org/2000/svg" viewBox="0 0 414.6 424.2"><defs><style>.cls-1{fill:#4CAF50;}</style></defs><title>Asset 98</title><g id="Layer_2" data-name="Layer 2"><g id="Layer_1-2" data-name="Layer 1"><path class="cls-1" d="M5,186.5H54.6a2.4,2.4,0,0,1,1.5.4l73,52.2-9.9-49.7a2.4,2.4,0,0,1,.5-2,2.5,2.5,0,0,1,2-.9H223.4V42.5H5v144Zm127.8,60.8a1.9,1.9,0,0,1-1.4-.5L53.8,191.5H2.5A2.5,2.5,0,0,1,0,189V40a2.5,2.5,0,0,1,2.5-2.5H225.9a2.5,2.5,0,0,1,2.5,2.5V189a2.5,2.5,0,0,1-2.5,2.5H124.7l10.6,52.8a2.6,2.6,0,0,1-1.1,2.6,2.3,2.3,0,0,1-1.4.4Z"/><path class="cls-1" d="M132.8,247.3a1.9,1.9,0,0,1-1.4-.5l-18.6-13.3a2.3,2.3,0,0,1-.6-3.4,2.4,2.4,0,0,1,3.5-.6l13.4,9.6-9.9-49.7a2.4,2.4,0,0,1,.5-2,2.5,2.5,0,0,1,2-.9H223.4V42.5H114.2a2.5,2.5,0,1,1,0-5H225.9a2.5,2.5,0,0,1,2.5,2.5V189a2.5,2.5,0,0,1-2.5,2.5H124.7l10.6,52.8a2.6,2.6,0,0,1-1.1,2.6,2.3,2.3,0,0,1-1.4.4Z"/><path class="cls-1" d="M191.2,363.3h36.6a2.8,2.8,0,0,1,1.9.9,2.3,2.3,0,0,1,.5,2.1L220.3,416l73.1-52.2a2.4,2.4,0,0,1,1.4-.5H409.6V219.4H191.2V363.3Zm25.4,60.9a2,2,0,0,1-1.3-.4,2.5,2.5,0,0,1-1.1-2.6l10.5-52.9h-36a2.5,2.5,0,0,1-2.5-2.5V216.9a2.5,2.5,0,0,1,2.5-2.5H412.1a2.5,2.5,0,0,1,2.5,2.5V365.8a2.5,2.5,0,0,1-2.5,2.5H295.6l-77.5,55.4a3,3,0,0,1-1.5.5Z"/><path class="cls-1" d="M228.1,307.5h32.2V275.2H228.1v32.3Zm34.7,5H225.6a2.5,2.5,0,0,1-2.5-2.5V272.7a2.5,2.5,0,0,1,2.5-2.5h37.2a2.5,2.5,0,0,1,2.5,2.5V310a2.5,2.5,0,0,1-2.5,2.5Z"/><path class="cls-1" d="M286.4,307.5h32.2V275.2H286.4v32.3Zm34.7,5H283.9a2.5,2.5,0,0,1-2.5-2.5V272.7a2.5,2.5,0,0,1,2.5-2.5h37.2a2.5,2.5,0,0,1,2.5,2.5V310a2.5,2.5,0,0,1-2.5,2.5Z"/><path class="cls-1" d="M344.6,307.5h32.2V275.2H344.6v32.3Zm34.7,5H342.1a2.5,2.5,0,0,1-2.5-2.5V272.7a2.5,2.5,0,0,1,2.5-2.5h37.2a2.5,2.5,0,0,1,2.5,2.5V310a2.5,2.5,0,0,1-2.5,2.5Z"/><path class="cls-1" d="M300.4,312.5a2.5,2.5,0,0,0,1.8-.8,2.6,2.6,0,0,0,.7-1.7,2.9,2.9,0,0,0-.7-1.8,2.7,2.7,0,0,0-3.6,0,2.9,2.9,0,0,0-.7,1.8,2.6,2.6,0,0,0,.7,1.7,2.5,2.5,0,0,0,1.8.8Z"/><path class="cls-1" d="M114.5,167.8a3,3,0,1,0,0,5.9,3,3,0,1,0,0-5.9Zm0,10.9a8,8,0,1,1,8-8,8,8,0,0,1-8,8Z"/><path class="cls-1" d="M114.4,70.3a27.1,27.1,0,0,1,0,54.2,3,3,0,0,0-3.1,3v25.2a3.1,3.1,0,0,0,6.1,0v-18a5.1,5.1,0,0,1,4-5A33.1,33.1,0,1,0,81.3,97.4a3,3,0,0,0,3,3,3.1,3.1,0,0,0,3-3,27.1,27.1,0,0,1,27.1-27.1Zm0,90.4a8,8,0,0,1-8.1-8V127.5a8,8,0,0,1,8.1-8A22.1,22.1,0,1,0,92.3,97.4a8,8,0,0,1-16,0,38.1,38.1,0,1,1,46.2,37.2h-.1v18a8,8,0,0,1-8,8Z"/><path class="cls-1" d="M76.4,236.3a2.5,2.5,0,1,1,2.5,2.5,2.5,2.5,0,0,1-2.5-2.5Zm0,10.2a2.5,2.5,0,1,1,2.5,2.5,2.5,2.5,0,0,1-2.5-2.5Zm0,10.3a2.5,2.5,0,0,1,5,0,2.5,2.5,0,0,1-5,0Zm0,10.2a2.5,2.5,0,0,1,5,0,2.5,2.5,0,0,1-5,0Zm0,10.2a2.5,2.5,0,1,1,2.5,2.5,2.5,2.5,0,0,1-2.5-2.5Zm0,10.2a2.5,2.5,0,1,1,2.5,2.5,2.5,2.5,0,0,1-2.5-2.5Zm0,10.2a2.5,2.5,0,0,1,5,0,2.5,2.5,0,0,1-5,0Zm0,10.2a2.5,2.5,0,0,1,5,0,2.5,2.5,0,0,1-5,0Zm0,10.3a2.5,2.5,0,0,1,5,0,2.5,2.5,0,0,1-5,0Zm0,10.2a2.5,2.5,0,1,1,2.5,2.5,2.5,2.5,0,0,1-2.5-2.5Zm0,10.2a2.5,2.5,0,1,1,2.5,2.5,2.5,2.5,0,0,1-2.5-2.5Zm0,10.2a2.5,2.5,0,1,1,2.5,2.5,2.5,2.5,0,0,1-2.5-2.5Zm0,10.2a2.5,2.5,0,0,1,5,0,2.5,2.5,0,0,1-5,0Zm0,10.3a2.5,2.5,0,0,1,5,0,2.5,2.5,0,0,1-5,0Zm0,10.2a2.5,2.5,0,1,1,2.5,2.5,2.5,2.5,0,0,1-2.5-2.5Zm0,10.2a2.5,2.5,0,1,1,2.5,2.5,2.5,2.5,0,0,1-2.5-2.5Z"/><path class="cls-1" d="M78.9,228.6h-1l-.4-.2-.4-.3-.3-.4-.2-.5a.6.6,0,0,1-.1-.4.9.9,0,0,1-.1-.5,2.9,2.9,0,0,1,.7-1.8,2.7,2.7,0,0,1,3.6,0l.3.4c.1.1.1.3.2.4l.2.5v1c-.1.1-.1.3-.2.4l-.2.5-.3.4a2.9,2.9,0,0,1-1.8.7Z"/><path class="cls-1" d="M78.9,30.3h-1l-.4-.2-.4-.4a2.6,2.6,0,0,1-.7-1.7,2.9,2.9,0,0,1,.7-1.8l.4-.3.4-.2.5-.2h1l.5.2.4.2.4.3a2.9,2.9,0,0,1,.7,1.8,2.6,2.6,0,0,1-.7,1.7l-.4.4-.4.2h-1Z"/><path class="cls-1" d="M76.4,10.9a2.5,2.5,0,1,1,2.5,2.5,2.5,2.5,0,0,1-2.5-2.5Zm0,8.5a2.5,2.5,0,1,1,2.5,2.4,2.5,2.5,0,0,1-2.5-2.4Z"/><path class="cls-1" d="M78.9,5a2.9,2.9,0,0,1-1.8-.7l-.3-.4c-.1-.1-.1-.3-.2-.4a1.1,1.1,0,0,1-.1-.5.9.9,0,0,1-.1-.5A2.9,2.9,0,0,1,77.1.7a2.7,2.7,0,0,1,3.6,0,2.9,2.9,0,0,1,.7,1.8V3c-.1.1-.1.3-.2.5s-.1.3-.2.4l-.3.4a2.9,2.9,0,0,1-1.8.7Z"/><path class="cls-1" d="M86.6,2.5A2.5,2.5,0,0,1,89.1,0a2.5,2.5,0,0,1,2.5,2.5A2.5,2.5,0,0,1,89.1,5a2.5,2.5,0,0,1-2.5-2.5Zm10.1,0a2.5,2.5,0,0,1,5,0,2.5,2.5,0,0,1-5,0Zm10.2,0a2.5,2.5,0,0,1,5,0,2.5,2.5,0,0,1-5,0Zm10.1,0A2.5,2.5,0,0,1,119.5,0,2.5,2.5,0,0,1,122,2.5,2.5,2.5,0,0,1,119.5,5,2.5,2.5,0,0,1,117,2.5Zm10.2,0a2.5,2.5,0,0,1,5,0,2.5,2.5,0,0,1-5,0Zm10.2,0A2.5,2.5,0,0,1,139.9,0a2.5,2.5,0,0,1,2.5,2.5A2.5,2.5,0,0,1,139.9,5a2.5,2.5,0,0,1-2.5-2.5Zm10.1,0a2.5,2.5,0,0,1,5,0,2.5,2.5,0,0,1-5,0Zm10.2,0a2.5,2.5,0,0,1,5,0,2.5,2.5,0,0,1-5,0Zm10.2,0A2.5,2.5,0,0,1,170.4,0a2.5,2.5,0,0,1,2.5,2.5A2.5,2.5,0,0,1,170.4,5a2.5,2.5,0,0,1-2.5-2.5Zm10.1,0a2.5,2.5,0,0,1,5,0,2.5,2.5,0,0,1-5,0Zm10.2,0a2.5,2.5,0,0,1,5,0,2.5,2.5,0,0,1-5,0Zm10.1,0A2.5,2.5,0,0,1,200.8,0a2.5,2.5,0,0,1,2.5,2.5A2.5,2.5,0,0,1,200.8,5a2.5,2.5,0,0,1-2.5-2.5Zm10.2,0a2.5,2.5,0,0,1,5,0,2.5,2.5,0,0,1-5,0Zm10.2,0A2.5,2.5,0,0,1,221.2,0a2.5,2.5,0,0,1,2.5,2.5A2.5,2.5,0,0,1,221.2,5a2.5,2.5,0,0,1-2.5-2.5Zm10.1,0a2.5,2.5,0,0,1,5,0,2.5,2.5,0,0,1-5,0Zm10.2,0a2.5,2.5,0,0,1,5,0,2.5,2.5,0,0,1-5,0Zm10.1,0A2.5,2.5,0,0,1,251.6,0a2.5,2.5,0,0,1,2.5,2.5A2.5,2.5,0,0,1,251.6,5a2.5,2.5,0,0,1-2.5-2.5Zm10.2,0a2.5,2.5,0,0,1,5,0,2.5,2.5,0,0,1-5,0Zm10.2,0A2.5,2.5,0,0,1,272,0a2.5,2.5,0,0,1,2.5,2.5A2.5,2.5,0,0,1,272,5a2.5,2.5,0,0,1-2.5-2.5Zm10.1,0a2.5,2.5,0,0,1,5,0,2.5,2.5,0,0,1-5,0Zm10.2,0a2.5,2.5,0,0,1,5,0,2.5,2.5,0,0,1-5,0Zm10.1,0A2.5,2.5,0,0,1,302.4,0a2.5,2.5,0,0,1,2.5,2.5A2.5,2.5,0,0,1,302.4,5a2.5,2.5,0,0,1-2.5-2.5Zm10.2,0a2.5,2.5,0,0,1,5,0,2.5,2.5,0,0,1-5,0Zm10.2,0A2.5,2.5,0,0,1,322.8,0a2.5,2.5,0,0,1,2.5,2.5A2.5,2.5,0,0,1,322.8,5a2.5,2.5,0,0,1-2.5-2.5Z"/><path class="cls-1" d="M332.9,5a2.6,2.6,0,0,1-1.7-.7c-.2-.1-.3-.3-.4-.4a.8.8,0,0,0-.2-.4,4.3,4.3,0,0,0-.1-.5.9.9,0,0,1-.1-.5.9.9,0,0,1,.1-.5,4.3,4.3,0,0,0,.1-.5l.2-.4.4-.4a2.6,2.6,0,0,1,3.5,0,2.4,2.4,0,0,1,.7,1.8V3c-.1.1-.1.3-.2.5a.8.8,0,0,1-.2.4l-.3.4a2.9,2.9,0,0,1-1.8.7Z"/><path class="cls-1" d="M330.4,12.5a2.5,2.5,0,0,1,5,0,2.5,2.5,0,0,1-5,0Zm0,10.1a2.5,2.5,0,1,1,2.5,2.5,2.5,2.5,0,0,1-2.5-2.5Zm0,10a2.5,2.5,0,0,1,5,0,2.5,2.5,0,1,1-5,0Zm0,10.1a2.5,2.5,0,1,1,2.5,2.5,2.5,2.5,0,0,1-2.5-2.5Zm0,10a2.5,2.5,0,1,1,2.5,2.5,2.5,2.5,0,0,1-2.5-2.5Zm0,10.1a2.5,2.5,0,1,1,2.5,2.5,2.5,2.5,0,0,1-2.5-2.5Zm0,10a2.5,2.5,0,1,1,2.5,2.5,2.5,2.5,0,0,1-2.5-2.5Zm0,10.1a2.5,2.5,0,1,1,2.5,2.5,2.5,2.5,0,0,1-2.5-2.5Zm0,10a2.5,2.5,0,1,1,2.5,2.5,2.5,2.5,0,0,1-2.5-2.5Zm0,10.1a2.5,2.5,0,0,1,5,0,2.5,2.5,0,0,1-5,0Zm0,10a2.5,2.5,0,1,1,2.5,2.5,2.5,2.5,0,0,1-2.5-2.5Zm0,10.1a2.5,2.5,0,1,1,5,0,2.5,2.5,0,0,1-5,0Zm0,10a2.5,2.5,0,1,1,2.5,2.5,2.5,2.5,0,0,1-2.5-2.5Zm0,10a2.5,2.5,0,0,1,5,0,2.5,2.5,0,1,1-5,0Zm0,10.1a2.5,2.5,0,1,1,2.5,2.5,2.5,2.5,0,0,1-2.5-2.5Zm0,10a2.5,2.5,0,0,1,5,0,2.5,2.5,0,0,1-5,0Zm0,10.1a2.5,2.5,0,1,1,2.5,2.5,2.5,2.5,0,0,1-2.5-2.5Zm0,10a2.5,2.5,0,1,1,2.5,2.5,2.5,2.5,0,0,1-2.5-2.5Zm0,10.1a2.5,2.5,0,1,1,2.5,2.5,2.5,2.5,0,0,1-2.5-2.5Z"/><path class="cls-1" d="M332.9,205.9a2.2,2.2,0,0,1-1.7-.7,2.5,2.5,0,0,1-.8-1.8,1.1,1.1,0,0,1,.1-.5v-.4c.1-.2.2-.3.2-.5l.4-.4a2.6,2.6,0,0,1,3.5,0l.3.4c.1.2.2.3.2.5s.1.3.2.4v.5a2.4,2.4,0,0,1-2.5,2.5Z"/></g></g></svg>