<svg xmlns="http://www.w3.org/2000/svg" viewBox="0 0 412.8 392.2"><defs><style>.cls-1{fill:#FF5722;}</style></defs><title>Asset 112</title><g id="Layer_2" data-name="Layer 2"><g id="Layer_1-2" data-name="Layer 1"><path class="cls-1" d="M297.8,392.2a63.5,63.5,0,0,1-44.4-18,62.5,62.5,0,0,1-19.2-42.8c-3.8-5.5-8.3-8.4-12.8-8.4s-9,2.9-12.8,8.4a63.2,63.2,0,0,1-19,42.8,62.2,62.2,0,0,1-43.8,18,63.8,63.8,0,0,1-43.2-16.8,62.9,62.9,0,0,1-20-38.9H74.4a7.6,7.6,0,0,1-7.5-7.6,7.5,7.5,0,0,1,7.5-7.5h8.2a63.3,63.3,0,0,1,123.9-9,26.4,26.4,0,0,1,29.8,0,63.9,63.9,0,0,1,61.5-46.8,62.8,62.8,0,0,1,61.6,50.7h9a7.6,7.6,0,0,1,0,15.1h-7.7a63.3,63.3,0,0,1-28.2,50.3,2.4,2.4,0,0,1-3.4-.7,2.5,2.5,0,0,1,.7-3.5,58.3,58.3,0,0,0,25.9-48.6,2.5,2.5,0,0,1,2.5-2.5h10.2a2.6,2.6,0,0,0,0-5.1H357.3a2.5,2.5,0,0,1-2.4-2.1,57.9,57.9,0,0,0-57.1-48.6,58.9,58.9,0,0,0-57.5,46.6,2.6,2.6,0,0,1-1.6,1.8,2.8,2.8,0,0,1-2.5-.4,22.7,22.7,0,0,0-14.8-5.8c-5.3,0-10.3,2-14.9,5.8a2.6,2.6,0,0,1-2.4.4,2.6,2.6,0,0,1-1.6-1.9,58.3,58.3,0,0,0-56.7-46.5c-30.3,0-56,23.5-58.5,53.5a2.5,2.5,0,0,1-2.5,2.3H74.4a2.5,2.5,0,0,0-2.5,2.5,2.6,2.6,0,0,0,2.5,2.6H84.8a2.5,2.5,0,0,1,2.5,2.3c2.5,29.9,28.2,53.4,58.5,53.4s57-25.4,57.8-56.7a2.8,2.8,0,0,1,.4-1.3c4.8-7.2,11-11.2,17.4-11.2s12.5,4,17.4,11.2a2.8,2.8,0,0,1,.4,1.3c.8,31.3,27.1,56.7,58.6,56.7a55.2,55.2,0,0,0,13.4-1.6,2.5,2.5,0,0,1,1.2,4.9A65.4,65.4,0,0,1,297.8,392.2Zm0-10.1c-29.5,0-53.6-23.9-53.6-53.2s24.1-53.2,53.6-53.2,52.8,23.4,52.8,53.2S327.4,382.1,297.8,382.1Zm0-101.4c-26.8,0-48.6,21.7-48.6,48.2s21.8,48.2,48.6,48.2,47.8-21.2,47.8-48.2S324.6,280.7,297.8,280.7Zm-152,101.4c-29.6,0-53.6-23.9-53.6-53.2s24-53.2,53.6-53.2,52.8,23.4,52.8,53.2S175.4,382.1,145.8,382.1Zm0-101.4c-26.8,0-48.6,21.7-48.6,48.2s21.8,48.2,48.6,48.2,47.8-21.2,47.8-48.2S172.6,280.7,145.8,280.7Z"/><path class="cls-1" d="M33.6,335.1a2.5,2.5,0,0,1-2.5-2.5V145.8a2.5,2.5,0,0,1,2.5-2.5,2.5,2.5,0,0,1,2.5,2.5V332.6A2.5,2.5,0,0,1,33.6,335.1Z"/><path class="cls-1" d="M28.4,392.2A28.4,28.4,0,0,1,0,363.8V125.1a8.1,8.1,0,0,1,.8-3.4L26.1,58.6h0a2,2,0,0,1,.6-.7,1.6,1.6,0,0,1,.8-.6l.9-.2h.9a.1.1,0,0,0,.1.1l.8.5a2.2,2.2,0,0,1,.5.8h0a.1.1,0,0,1,.1.1l25.3,63a7.6,7.6,0,0,1,.8,3.3V332.6a2.5,2.5,0,0,1-5,0V125a2.7,2.7,0,0,0-.3-1.2c-.1-.1-.1-.1-.1-.2L28.4,66.2l-23,57.5c-.1,0-.1.1-.1.2a2.1,2.1,0,0,0-.3,1.2V363.8a23.5,23.5,0,0,0,46.9,0V353.4a2.7,2.7,0,0,0-2.7-2.7H28.4a2.5,2.5,0,1,1,0-5H49.2a7.8,7.8,0,0,1,7.7,7.7v10.4A28.5,28.5,0,0,1,28.4,392.2Zm2.1-8.3c-13.3,0-22.2-8.9-22.2-22.2a2.5,2.5,0,0,1,5,0c0,10.5,6.8,17.2,17.2,17.2a2.5,2.5,0,0,1,0,5Z"/><path class="cls-1" d="M54.2,126.2H2.5a2.5,2.5,0,0,1,0-5H54.2a2.5,2.5,0,0,1,0,5Z"/><path class="cls-1" d="M171.7,241.7a20.9,20.9,0,0,1-8.8-2,22.2,22.2,0,0,1-5.7-3.9l-6.1,2.2a25.7,25.7,0,0,1-8.7,1.5,26,26,0,0,1-24.4-17l-8.1-22.4a25.9,25.9,0,0,1,.9-19.7,27.5,27.5,0,0,1,2.4-4.1,114.5,114.5,0,0,1-4.4-31.4A112.5,112.5,0,0,1,275.5,46.2a2.3,2.3,0,0,1,1,3.3,2.4,2.4,0,0,1-3.4,1,108,108,0,0,0-51.7-13.2A107.7,107.7,0,0,0,113.8,144.9a105,105,0,0,0,4.6,31.1,2.7,2.7,0,0,1-.5,2.3,17.9,17.9,0,0,0-2.5,4.2,20.4,20.4,0,0,0-.8,15.9l8.1,22.4a21,21,0,0,0,19.7,13.7,20.6,20.6,0,0,0,7-1.2l5.3-1.9-23.9-63.6a.4.4,0,0,0-.1-.3,94.5,94.5,0,0,1-2.7-22.6,93.4,93.4,0,0,1,186.8,0,94.5,94.5,0,0,1-2.7,22.6.4.4,0,0,0-.1.3l-23.9,63.6,5.2,1.9a21.6,21.6,0,0,0,7.1,1.2,21,21,0,0,0,19.7-13.7l8.1-22.4a20.4,20.4,0,0,0-.8-15.9,22.2,22.2,0,0,0-2.5-4.2,2.7,2.7,0,0,1-.5-2.3,105,105,0,0,0,4.6-31.1,106.6,106.6,0,0,0-31.5-76,2.5,2.5,0,0,1,0-3.6,2.4,2.4,0,0,1,3.5,0,112.2,112.2,0,0,1,33,79.6,114.5,114.5,0,0,1-4.4,31.4,27.5,27.5,0,0,1,2.4,4.1,25.9,25.9,0,0,1,.9,19.7l-8.1,22.4a26,26,0,0,1-24.4,17,26.7,26.7,0,0,1-8.8-1.5l-6-2.2a19.9,19.9,0,0,1-5.7,3.9,20.9,20.9,0,0,1-15.9.8A20.9,20.9,0,0,1,251.6,214a2.5,2.5,0,0,1,3.2-1.5,2.4,2.4,0,0,1,1.5,3.2,15.8,15.8,0,0,0,9.5,20.1,15.4,15.4,0,0,0,11.9-.6,16.4,16.4,0,0,0,5-3.6l24.5-65.5a88.4,88.4,0,1,0-171.7,0l24.6,65.5a17.2,17.2,0,0,0,4.9,3.6,15.7,15.7,0,0,0,20.9-7.5,15.2,15.2,0,0,0,.5-12l-19.6-54.1a15.4,15.4,0,0,0-8.1-8.9,14.9,14.9,0,0,0-11.9-.5,14.4,14.4,0,0,0-4.1,2.1,2.3,2.3,0,0,1-2.5.3,2.6,2.6,0,0,1-1.5-2c-.2-2.6-.3-5.1-.3-7.7A82.5,82.5,0,0,1,153.7,97a2,2,0,0,1,1.6-1,2.2,2.2,0,0,1,1.9.4l9.1,6.6a9.3,9.3,0,0,0,12.3-1,60.5,60.5,0,0,1,85.6.1,9.6,9.6,0,0,0,12.3.9l9.1-6.6a2.7,2.7,0,0,1,1.9-.4,2.3,2.3,0,0,1,1.6,1,82.5,82.5,0,0,1,15.3,47.9c0,2.6-.1,5.1-.3,7.7a2.6,2.6,0,0,1-1.5,2,2.3,2.3,0,0,1-2.5-.3,14.4,14.4,0,0,0-4.1-2.1,15.2,15.2,0,0,0-12,.5,15.6,15.6,0,0,0-8,8.9l-10.3,28.2a2.4,2.4,0,0,1-3.2,1.5,2.6,2.6,0,0,1-1.5-3.2l10.3-28.2a20.5,20.5,0,0,1,26.4-12.4l1.7.6v-3.2A76.7,76.7,0,0,0,286.5,102l-7,5.1a14.9,14.9,0,0,1-8.6,2.7,14.5,14.5,0,0,1-10.2-4.2,55.5,55.5,0,0,0-78.6,0,14.3,14.3,0,0,1-18.7,1.4l-7.1-5a76.7,76.7,0,0,0-12.9,42.9v3.2l1.6-.6a20.4,20.4,0,0,1,15.9.7,20,20,0,0,1,10.6,11.7L191.1,214a20.2,20.2,0,0,1-.7,15.8,20.5,20.5,0,0,1-18.7,11.9ZM280.6,92.9a2.7,2.7,0,0,1-1.9-.8,77.7,77.7,0,0,0-114.6,0,2.5,2.5,0,0,1-3.5.1,2.4,2.4,0,0,1-.2-3.5,82.8,82.8,0,0,1,122,0,2.5,2.5,0,0,1-.1,3.5A2.3,2.3,0,0,1,280.6,92.9Z"/><path class="cls-1" d="M221.4,144.7a7.7,7.7,0,1,1,7.7-7.7A7.7,7.7,0,0,1,221.4,144.7Zm0-10.4a2.7,2.7,0,1,0,2.7,2.7A2.7,2.7,0,0,0,221.4,134.3Z"/><path class="cls-1" d="M197.9,144.7a7.7,7.7,0,0,1,0-15.4,7.7,7.7,0,0,1,0,15.4Zm0-10.4a2.7,2.7,0,1,0,2.7,2.7A2.7,2.7,0,0,0,197.9,134.3Z"/><path class="cls-1" d="M244.9,144.7a7.7,7.7,0,1,1,7.7-7.7A7.7,7.7,0,0,1,244.9,144.7Zm0-10.4a2.7,2.7,0,1,0,2.7,2.7A2.7,2.7,0,0,0,244.9,134.3Z"/><path class="cls-1" d="M326.8,179.3l-.9-.2-18.3-6.8a2.5,2.5,0,1,1,1.8-4.7l18.3,6.8a2.6,2.6,0,0,1,1.5,3.2A2.7,2.7,0,0,1,326.8,179.3Z"/><path class="cls-1" d="M116,179.3a2.5,2.5,0,0,1-1-4.8l17-6.9a2.4,2.4,0,0,1,3.2,1.4,2.5,2.5,0,0,1-1.3,3.3l-17,6.8Z"/><path class="cls-1" d="M28.4,40.8h-.5l-.5-.2-.4-.2-.4-.3-.3-.4a.8.8,0,0,1-.2-.4c-.1-.2-.2-.3-.2-.5v-1l.2-.4c0-.2.1-.3.2-.5l.3-.3a.8.8,0,0,1,.4-.4l.4-.2h.5a2.3,2.3,0,0,1,2.2.7l.3.3.3.5c0,.1.1.3.1.4a4.3,4.3,0,0,0,.1.5c0,.2-.1.3-.1.5s-.1.3-.1.5l-.3.4-.3.4A2.2,2.2,0,0,1,28.4,40.8Z"/><path class="cls-1" d="M25.9,29.4a2.5,2.5,0,0,1,2.5-2.5h0a2.5,2.5,0,0,1,2.5,2.5h0a2.6,2.6,0,0,1-2.5,2.5h0A2.5,2.5,0,0,1,25.9,29.4Zm0-9a2.5,2.5,0,0,1,2.5-2.5h0a2.5,2.5,0,0,1,2.5,2.5h0a2.5,2.5,0,0,1-2.5,2.5h0A2.5,2.5,0,0,1,25.9,20.4Zm0-8.9A2.5,2.5,0,0,1,28.4,9h0a2.5,2.5,0,0,1,2.5,2.5h0A2.6,2.6,0,0,1,28.4,14h0A2.5,2.5,0,0,1,25.9,11.5Z"/><path class="cls-1" d="M28.4,5a2.9,2.9,0,0,1-1.8-.7,2.4,2.4,0,0,1-.7-1.8V2a1.7,1.7,0,0,1,.2-.5c0-.1.1-.2.2-.4l.3-.4L27,.4l.4-.2h1.9l.4.2.4.3.3.4.3.4a4.3,4.3,0,0,0,.1.5c0,.2.1.3.1.5a2.5,2.5,0,0,1-.8,1.8A2.6,2.6,0,0,1,28.4,5Z"/><path class="cls-1" d="M397.8,2.5A2.5,2.5,0,0,1,400.3,0h0a2.5,2.5,0,0,1,2.5,2.5h0A2.5,2.5,0,0,1,400.3,5h0A2.5,2.5,0,0,1,397.8,2.5Zm-10.1,0A2.5,2.5,0,0,1,390.2,0h0a2.5,2.5,0,0,1,2.5,2.5h0A2.5,2.5,0,0,1,390.2,5h0A2.5,2.5,0,0,1,387.7,2.5Zm-10,0A2.5,2.5,0,0,1,380.2,0h0a2.5,2.5,0,0,1,2.5,2.5h0A2.5,2.5,0,0,1,380.2,5h0A2.5,2.5,0,0,1,377.7,2.5Zm-10.1,0A2.5,2.5,0,0,1,370.1,0h0a2.5,2.5,0,0,1,2.5,2.5h0A2.5,2.5,0,0,1,370.1,5h0A2.5,2.5,0,0,1,367.6,2.5Zm-10,0A2.5,2.5,0,0,1,360.1,0h0a2.5,2.5,0,0,1,2.5,2.5h0A2.5,2.5,0,0,1,360.1,5h0A2.5,2.5,0,0,1,357.6,2.5Zm-10.1,0A2.5,2.5,0,0,1,350,0h0a2.5,2.5,0,0,1,2.5,2.5h0A2.5,2.5,0,0,1,350,5h0A2.5,2.5,0,0,1,347.5,2.5Zm-10,0A2.5,2.5,0,0,1,340,0h0a2.5,2.5,0,0,1,2.5,2.5h0A2.5,2.5,0,0,1,340,5h0A2.5,2.5,0,0,1,337.5,2.5Zm-10.1,0A2.5,2.5,0,0,1,329.9,0h0a2.5,2.5,0,0,1,2.5,2.5h0A2.5,2.5,0,0,1,329.9,5h0A2.5,2.5,0,0,1,327.4,2.5Zm-10,0A2.5,2.5,0,0,1,319.9,0h0a2.5,2.5,0,0,1,2.5,2.5h0A2.5,2.5,0,0,1,319.9,5h0A2.5,2.5,0,0,1,317.4,2.5Zm-10.1,0A2.5,2.5,0,0,1,309.8,0h0a2.5,2.5,0,0,1,2.5,2.5h0A2.5,2.5,0,0,1,309.8,5h0A2.5,2.5,0,0,1,307.3,2.5Zm-10,0A2.5,2.5,0,0,1,299.8,0h0a2.5,2.5,0,0,1,2.5,2.5h0A2.5,2.5,0,0,1,299.8,5h0A2.5,2.5,0,0,1,297.3,2.5Zm-10.1,0A2.5,2.5,0,0,1,289.7,0h0a2.5,2.5,0,0,1,2.5,2.5h0A2.5,2.5,0,0,1,289.7,5h0A2.5,2.5,0,0,1,287.2,2.5Zm-10,0A2.5,2.5,0,0,1,279.7,0h0a2.5,2.5,0,0,1,2.5,2.5h0A2.5,2.5,0,0,1,279.7,5h0A2.5,2.5,0,0,1,277.2,2.5Zm-10.1,0A2.5,2.5,0,0,1,269.6,0h0a2.5,2.5,0,0,1,2.5,2.5h0A2.5,2.5,0,0,1,269.6,5h0A2.5,2.5,0,0,1,267.1,2.5Zm-10,0A2.5,2.5,0,0,1,259.6,0h0A2.5,2.5,0,0,1,262,2.5h0A2.5,2.5,0,0,1,259.6,5h0A2.5,2.5,0,0,1,257.1,2.5ZM247,2.5A2.5,2.5,0,0,1,249.5,0h0A2.5,2.5,0,0,1,252,2.5h0A2.5,2.5,0,0,1,249.5,5h0A2.5,2.5,0,0,1,247,2.5Zm-10.1,0A2.5,2.5,0,0,1,239.4,0h0a2.5,2.5,0,0,1,2.5,2.5h0A2.5,2.5,0,0,1,239.4,5h0A2.5,2.5,0,0,1,236.9,2.5Zm-10,0A2.5,2.5,0,0,1,229.4,0h0a2.5,2.5,0,0,1,2.5,2.5h0A2.5,2.5,0,0,1,229.4,5h0A2.5,2.5,0,0,1,226.9,2.5Zm-10.1,0A2.5,2.5,0,0,1,219.3,0h0a2.5,2.5,0,0,1,2.5,2.5h0A2.5,2.5,0,0,1,219.3,5h0A2.5,2.5,0,0,1,216.8,2.5Zm-10,0A2.5,2.5,0,0,1,209.3,0h0a2.5,2.5,0,0,1,2.5,2.5h0A2.5,2.5,0,0,1,209.3,5h0A2.5,2.5,0,0,1,206.8,2.5Zm-10.1,0A2.5,2.5,0,0,1,199.2,0h0a2.5,2.5,0,0,1,2.5,2.5h0A2.5,2.5,0,0,1,199.2,5h0A2.5,2.5,0,0,1,196.7,2.5Zm-10,0A2.5,2.5,0,0,1,189.2,0h0a2.5,2.5,0,0,1,2.5,2.5h0A2.5,2.5,0,0,1,189.2,5h0A2.5,2.5,0,0,1,186.7,2.5Zm-10.1,0A2.5,2.5,0,0,1,179.1,0h0a2.5,2.5,0,0,1,2.5,2.5h0A2.5,2.5,0,0,1,179.1,5h0A2.5,2.5,0,0,1,176.6,2.5Zm-10,0A2.5,2.5,0,0,1,169.1,0h0a2.5,2.5,0,0,1,2.5,2.5h0A2.5,2.5,0,0,1,169.1,5h0A2.5,2.5,0,0,1,166.6,2.5Zm-10.1,0A2.5,2.5,0,0,1,159,0h0a2.5,2.5,0,0,1,2.5,2.5h0A2.5,2.5,0,0,1,159,5h0A2.5,2.5,0,0,1,156.5,2.5Zm-10,0A2.5,2.5,0,0,1,149,0h0a2.5,2.5,0,0,1,2.5,2.5h0A2.5,2.5,0,0,1,149,5h0A2.5,2.5,0,0,1,146.5,2.5Zm-10.1,0A2.5,2.5,0,0,1,138.9,0h0a2.5,2.5,0,0,1,2.5,2.5h0A2.5,2.5,0,0,1,138.9,5h0A2.5,2.5,0,0,1,136.4,2.5Zm-10,0A2.5,2.5,0,0,1,128.9,0h0a2.5,2.5,0,0,1,2.5,2.5h0A2.5,2.5,0,0,1,128.9,5h0A2.5,2.5,0,0,1,126.4,2.5Zm-10.1,0A2.5,2.5,0,0,1,118.8,0h0a2.5,2.5,0,0,1,2.5,2.5h0A2.5,2.5,0,0,1,118.8,5h0A2.5,2.5,0,0,1,116.3,2.5Zm-10,0A2.5,2.5,0,0,1,108.8,0h0a2.5,2.5,0,0,1,2.5,2.5h0A2.5,2.5,0,0,1,108.8,5h0A2.5,2.5,0,0,1,106.3,2.5Zm-10.1,0A2.5,2.5,0,0,1,98.7,0h0a2.5,2.5,0,0,1,2.5,2.5h0A2.5,2.5,0,0,1,98.7,5h0A2.5,2.5,0,0,1,96.2,2.5Zm-10,0A2.5,2.5,0,0,1,88.7,0h0a2.5,2.5,0,0,1,2.5,2.5h0A2.5,2.5,0,0,1,88.7,5h0A2.5,2.5,0,0,1,86.2,2.5Zm-10.1,0A2.5,2.5,0,0,1,78.6,0h0a2.5,2.5,0,0,1,2.5,2.5h0A2.5,2.5,0,0,1,78.6,5h0A2.5,2.5,0,0,1,76.1,2.5Zm-10,0A2.5,2.5,0,0,1,68.6,0h0a2.5,2.5,0,0,1,2.5,2.5h0A2.5,2.5,0,0,1,68.6,5h0A2.5,2.5,0,0,1,66.1,2.5ZM56,2.5A2.5,2.5,0,0,1,58.5,0h0A2.5,2.5,0,0,1,61,2.5h0A2.5,2.5,0,0,1,58.5,5h0A2.5,2.5,0,0,1,56,2.5Zm-10,0A2.5,2.5,0,0,1,48.5,0h0A2.5,2.5,0,0,1,51,2.5h0A2.5,2.5,0,0,1,48.5,5h0A2.5,2.5,0,0,1,46,2.5Zm-10.1,0A2.5,2.5,0,0,1,38.4,0h0a2.5,2.5,0,0,1,2.5,2.5h0A2.5,2.5,0,0,1,38.4,5h0A2.5,2.5,0,0,1,35.9,2.5Z"/><path class="cls-1" d="M410.3,5h-.5l-.4-.2-.5-.2-.3-.3a2.5,2.5,0,0,1-.8-1.8,2.5,2.5,0,0,1,.8-1.8l.3-.3.5-.2h.4a2.7,2.7,0,0,1,2.3.6,2.4,2.4,0,0,1,.7,1.8,2.4,2.4,0,0,1-.7,1.8A2.9,2.9,0,0,1,410.3,5Z"/><path class="cls-1" d="M407.8,313.4a2.5,2.5,0,0,1,2.5-2.5h0a2.5,2.5,0,0,1,2.5,2.5h0a2.5,2.5,0,0,1-2.5,2.5h0A2.5,2.5,0,0,1,407.8,313.4Zm0-10.1a2.5,2.5,0,0,1,2.5-2.5h0a2.5,2.5,0,0,1,2.5,2.5h0a2.5,2.5,0,0,1-2.5,2.5h0A2.5,2.5,0,0,1,407.8,303.3Zm0-10a2.5,2.5,0,0,1,2.5-2.5h0a2.5,2.5,0,0,1,2.5,2.5h0a2.5,2.5,0,0,1-2.5,2.5h0A2.5,2.5,0,0,1,407.8,293.3Zm0-10a2.5,2.5,0,0,1,2.5-2.5h0a2.5,2.5,0,0,1,2.5,2.5h0a2.5,2.5,0,0,1-2.5,2.5h0A2.5,2.5,0,0,1,407.8,283.3Zm0-10a2.5,2.5,0,0,1,2.5-2.5h0a2.5,2.5,0,0,1,2.5,2.5h0a2.5,2.5,0,0,1-2.5,2.5h0A2.5,2.5,0,0,1,407.8,273.3Zm0-10.1a2.5,2.5,0,0,1,2.5-2.5h0a2.5,2.5,0,0,1,2.5,2.5h0a2.5,2.5,0,0,1-2.5,2.5h0A2.5,2.5,0,0,1,407.8,263.2Zm0-10a2.5,2.5,0,0,1,2.5-2.5h0a2.5,2.5,0,0,1,2.5,2.5h0a2.5,2.5,0,0,1-2.5,2.5h0A2.5,2.5,0,0,1,407.8,253.2Zm0-10a2.5,2.5,0,0,1,2.5-2.5h0a2.5,2.5,0,0,1,2.5,2.5h0a2.5,2.5,0,0,1-2.5,2.5h0A2.5,2.5,0,0,1,407.8,243.2Zm0-10.1a2.5,2.5,0,0,1,2.5-2.5h0a2.5,2.5,0,0,1,2.5,2.5h0a2.5,2.5,0,0,1-2.5,2.5h0A2.5,2.5,0,0,1,407.8,233.1Zm0-10a2.5,2.5,0,0,1,2.5-2.5h0a2.5,2.5,0,0,1,2.5,2.5h0a2.5,2.5,0,0,1-2.5,2.5h0A2.5,2.5,0,0,1,407.8,223.1Zm0-10a2.5,2.5,0,0,1,2.5-2.5h0a2.5,2.5,0,0,1,2.5,2.5h0a2.5,2.5,0,0,1-2.5,2.5h0A2.5,2.5,0,0,1,407.8,213.1Zm0-10a2.5,2.5,0,0,1,2.5-2.5h0a2.5,2.5,0,0,1,2.5,2.5h0a2.5,2.5,0,0,1-2.5,2.5h0A2.5,2.5,0,0,1,407.8,203.1Zm0-10.1a2.5,2.5,0,0,1,2.5-2.5h0a2.5,2.5,0,0,1,2.5,2.5h0a2.5,2.5,0,0,1-2.5,2.5h0A2.5,2.5,0,0,1,407.8,193Zm0-10a2.5,2.5,0,0,1,2.5-2.5h0a2.5,2.5,0,0,1,2.5,2.5h0a2.5,2.5,0,0,1-2.5,2.5h0A2.5,2.5,0,0,1,407.8,183Zm0-10a2.5,2.5,0,0,1,2.5-2.5h0a2.5,2.5,0,0,1,2.5,2.5h0a2.5,2.5,0,0,1-2.5,2.5h0A2.5,2.5,0,0,1,407.8,173Zm0-10a2.5,2.5,0,0,1,2.5-2.5h0a2.5,2.5,0,0,1,2.5,2.5h0a2.5,2.5,0,0,1-2.5,2.5h0A2.5,2.5,0,0,1,407.8,163Zm0-10.1a2.5,2.5,0,0,1,2.5-2.5h0a2.5,2.5,0,0,1,2.5,2.5h0a2.5,2.5,0,0,1-2.5,2.5h0A2.5,2.5,0,0,1,407.8,152.9Zm0-10a2.5,2.5,0,0,1,2.5-2.5h0a2.5,2.5,0,0,1,2.5,2.5h0a2.5,2.5,0,0,1-2.5,2.5h0A2.5,2.5,0,0,1,407.8,142.9Zm0-10a2.5,2.5,0,0,1,2.5-2.5h0a2.5,2.5,0,0,1,2.5,2.5h0a2.5,2.5,0,0,1-2.5,2.5h0A2.5,2.5,0,0,1,407.8,132.9Zm0-10.1a2.5,2.5,0,0,1,2.5-2.5h0a2.5,2.5,0,0,1,2.5,2.5h0a2.5,2.5,0,0,1-2.5,2.5h0A2.5,2.5,0,0,1,407.8,122.8Zm0-10a2.5,2.5,0,0,1,2.5-2.5h0a2.5,2.5,0,0,1,2.5,2.5h0a2.5,2.5,0,0,1-2.5,2.5h0A2.5,2.5,0,0,1,407.8,112.8Zm0-10a2.5,2.5,0,0,1,2.5-2.5h0a2.5,2.5,0,0,1,2.5,2.5h0a2.5,2.5,0,0,1-2.5,2.5h0A2.5,2.5,0,0,1,407.8,102.8Zm0-10a2.5,2.5,0,0,1,2.5-2.5h0a2.5,2.5,0,0,1,2.5,2.5h0a2.5,2.5,0,0,1-2.5,2.5h0A2.5,2.5,0,0,1,407.8,92.8Zm0-10.1a2.5,2.5,0,0,1,2.5-2.5h0a2.5,2.5,0,0,1,2.5,2.5h0a2.5,2.5,0,0,1-2.5,2.5h0A2.5,2.5,0,0,1,407.8,82.7Zm0-10a2.5,2.5,0,0,1,2.5-2.5h0a2.5,2.5,0,0,1,2.5,2.5h0a2.5,2.5,0,0,1-2.5,2.5h0A2.5,2.5,0,0,1,407.8,72.7Zm0-10a2.5,2.5,0,0,1,2.5-2.5h0a2.5,2.5,0,0,1,2.5,2.5h0a2.5,2.5,0,0,1-2.5,2.5h0A2.5,2.5,0,0,1,407.8,62.7Zm0-10.1a2.5,2.5,0,0,1,2.5-2.5h0a2.5,2.5,0,0,1,2.5,2.5h0a2.5,2.5,0,0,1-2.5,2.5h0A2.5,2.5,0,0,1,407.8,52.6Zm0-10a2.5,2.5,0,0,1,2.5-2.5h0a2.5,2.5,0,0,1,2.5,2.5h0a2.5,2.5,0,0,1-2.5,2.5h0A2.5,2.5,0,0,1,407.8,42.6Zm0-10a2.5,2.5,0,0,1,2.5-2.5h0a2.5,2.5,0,0,1,2.5,2.5h0a2.5,2.5,0,0,1-2.5,2.5h0A2.5,2.5,0,0,1,407.8,32.6Zm0-10a2.5,2.5,0,0,1,2.5-2.5h0a2.5,2.5,0,0,1,2.5,2.5h0a2.5,2.5,0,0,1-2.5,2.5h0A2.5,2.5,0,0,1,407.8,22.6Zm0-10.1a2.5,2.5,0,0,1,2.5-2.5h0a2.5,2.5,0,0,1,2.5,2.5h0a2.5,2.5,0,0,1-2.5,2.5h0A2.5,2.5,0,0,1,407.8,12.5Z"/><path class="cls-1" d="M410.3,325.9a2.6,2.6,0,0,1-1.7-.7,2.5,2.5,0,0,1-.8-1.8.9.9,0,0,1,.1-.5,4.3,4.3,0,0,0,.1-.5.8.8,0,0,0,.2-.4c.1-.1.2-.3.4-.4a2.6,2.6,0,0,1,3.5,0,2.7,2.7,0,0,1,0,3.6A2.9,2.9,0,0,1,410.3,325.9Z"/><path class="cls-1" d="M399.4,323.4a2.5,2.5,0,0,1,2.5-2.5h0a2.5,2.5,0,0,1,2.5,2.5h0a2.5,2.5,0,0,1-2.5,2.5h0A2.5,2.5,0,0,1,399.4,323.4Zm-8.4,0a2.5,2.5,0,0,1,2.5-2.5h0a2.5,2.5,0,0,1,2.5,2.5h0a2.5,2.5,0,0,1-2.5,2.5h0A2.5,2.5,0,0,1,391,323.4Z"/><path class="cls-1" d="M385.1,325.9a2.6,2.6,0,0,1-1.7-.7,2.5,2.5,0,0,1-.8-1.8c0-.2.1-.3.1-.5a4.3,4.3,0,0,0,.1-.5l.3-.4.3-.4.4-.3.4-.2.5-.2h.9l.5.2.4.2.4.3.3.4.3.4a4.3,4.3,0,0,0,.1.5v.5a2.4,2.4,0,0,1-.7,1.8l-.4.3-.4.2h-1Z"/><path class="cls-1" d="M141,239.3a2.5,2.5,0,0,1-1-4.8l17-6.9a2.4,2.4,0,0,1,3.2,1.4,2.5,2.5,0,0,1-1.3,3.3l-17,6.8Z"/></g></g></svg>