<svg xmlns="http://www.w3.org/2000/svg" viewBox="0 0 431.07 132.44"><defs><style>.cls-1{fill:#4d4d4d;}</style></defs><title>logo-grey</title><g id="Layer_2" data-name="Layer 2"><g id="Layer_1-2" data-name="Layer 1"><path class="cls-1" d="M248.14,36.41h-.77c-3.28,11.22-6.84,22.37-9.69,33.71-1.06,4.22-2.86,5.6-6.85,5a29.09,29.09,0,0,0-4,0l-11.5-38.78c-2.7,7.9-5.1,14.88-7.48,21.87-1.66,4.86-3.18,9.78-5,14.56a4.41,4.41,0,0,1-3,2.25,37.23,37.23,0,0,1-7.9,0c-1-.09-1.94-1-2.49-1.37-5.77.74-11.55,2-17.34,2.18-10,.27-15.54-7.46-12-16.85,3.4-8.93,10.23-14.09,19.07-16.25,6.15-1.5,12.59-1.94,18.94-2.39,2.65-.19,3.36-1.16,3.78-3.48.65-3.54-.4-5.8-6.8-6.26A14.18,14.18,0,0,0,182.31,37a4.45,4.45,0,0,1-4.55,2.21c-3-.18-6,0-9.59,0,4.09-10,10.76-16.58,20.86-18.25,6.3-1,12.92-.11,19.39-.09,2.06,0,4.12-.07,6.17-.09s4.22,0,6.44,0l9.69,41.17.84,0,11.9-40.72a3.71,3.71,0,0,1,1-.39c7.3-.47,7.31-.47,9.36,6.46q4.89,16.58,9.76,33.17A2.3,2.3,0,0,0,264.79,62l9.68-41h10.25l-16,54h-9.31ZM197,50.63c-3.37,0-6.78-.37-10.08.09-5.06.7-10.24,1.63-12.88,7-1.68,3.41-.79,5.35,2.86,6.44C186,66.84,195.38,60.61,197,50.63Z"/><path class="cls-1" d="M60.34,22.3c5.66-.94,10.83-2.41,16-2.52,8.64-.18,13.35,5.74,11.07,14.08C84.66,44,81.1,54,77.82,64.06c-1.12,3.43-2.38,6.82-3.6,9.94H61.35c.42-1,.74-2.15,1.12-3.27,3.41-10,6.91-20,10.21-30,.94-2.85,2.78-6.33-.2-8.68s-6.42-1.05-9.57.44c-4.77,2.25-8.16,5.26-9.76,10.84-3,10.5-7,20.74-10.5,31.72H29.8c2-6.61,3.86-12.26,5.77-17.89C39.33,46,43.15,35,46.83,23.86c.69-2.08,1.6-3.16,4-3s4.76-.11,7.11.12A6.48,6.48,0,0,1,60.34,22.3Z"/><path class="cls-1" d="M420.85,59h8.64c-.26,6.61-4.79,12.31-12.05,14.77-14.67,5-33.24-.26-35.43-21.5-.87-8.47.19-16.41,5.44-23.28,6-7.79,16.21-10.59,26.61-7.64,8.6,2.44,15,10.26,16.16,19.9.34,2.77.55,5.56.86,8.76H391.51c.42,10.36,5.84,17.39,13.89,18.39C413,69.33,418.9,65.82,420.85,59Zm-29.7-17h30.21c-.26-8.81-6.09-15.2-14.06-15.53C398.23,26.1,392.18,31.85,391.15,42Z"/><path class="cls-1" d="M335.41,74h-8.92l-.3-5.32c-6.55,5.39-13.76,7-21.62,6.37-8.34-.7-13.9-5.4-15.46-13.24A14.93,14.93,0,0,1,298.64,45c5.23-2.07,11-3,16.6-3.87,3.4-.55,7-.1,10.36-.1,2.64-9-1.34-14.7-10.25-14.91a30.55,30.55,0,0,0-6.35.29c-5.59,1.06-7.3,2.75-9.24,8.62h-8.46a13.66,13.66,0,0,1,8.35-13.42c8.61-3.7,17.55-3.65,26.34-.91,6.23,1.94,9.1,7.24,9.28,13.26C335.68,47.16,335.41,60.41,335.41,74Zm-9.11-25.66c-4.56,0-8.6-.41-12.51.12a35.4,35.4,0,0,0-10.6,3.13c-3.89,1.89-5,5.74-4.42,9.88.54,3.84,3.27,5.75,6.82,6.51,7.39,1.58,13.79-.49,19.18-5.68a4.78,4.78,0,0,0,1.47-2.86C326.4,55.86,326.29,52.26,326.29,48.34Z"/><path class="cls-1" d="M90.89,74.39,105.25,32h-7.2c1.21-3.56,2.14-6.7,3.41-9.69.28-.65,1.87-1.2,2.73-1.05,3.86.65,5.31-1.24,6.53-4.63a30.63,30.63,0,0,1,5.19-8.9c5.35-6.49,15.91-8.75,23.73-5.25a93,93,0,0,1-3.25,9.27c-.36.79-2.35,1.35-3.47,1.18-6.74-1-9.11.63-10.68,8.07h8.83c-1.33,3.89-2.13,7.22-3.69,10.14-.46.86-3.14.91-4.73.7-3.44-.45-4.92.9-6,4.17-3.76,11.77-7.95,23.4-11.76,35.15-.85,2.61-2.1,3.49-4.74,3.29C97.24,74.22,94.27,74.39,90.89,74.39Z"/><path class="cls-1" d="M25.12,0H38.62L13.48,74H0Z"/><path class="cls-1" d="M152.87,22.79c4.56-2.78,10-4.34,16.24-2.26l-4.33,12.76c-2-.33-3.82-.65-5.63-.92-5.47-.81-12.16,3.23-13.9,8.38-3.38,10-6.85,20-10.08,30.08-.91,2.83-2.21,4.07-5.3,3.73a84.51,84.51,0,0,0-9-.07c3.86-11.42,7.62-22.61,11.41-33.79,2-5.78,4-11.53,5.89-17.33.59-1.82,1.49-2.6,3.46-2.48,2.61.16,5.25-.08,7.86.11C150.45,21.08,151.29,21.92,152.87,22.79Z"/><path class="cls-1" d="M359.6,21v7c4.91-6.56,10.37-9.8,18-8.13v9.62c-5.91-1.44-11.33-.57-15.35,4.06a10.61,10.61,0,0,0-2.53,6.17c-.25,10.47-.12,21-.12,31.43,0,1.22,0,2.44,0,3.88h-9V21Z"/><path class="cls-1" d="M13.49,96.27a12.6,12.6,0,0,1,9.6,4q3.73,4,3.73,10.47t-3.73,10.47a12.6,12.6,0,0,1-9.6,4,12.67,12.67,0,0,1-9.64-4Q.1,117.2.1,110.71t3.75-10.47A12.68,12.68,0,0,1,13.49,96.27Zm0,25.71a8.82,8.82,0,0,0,6.86-3q2.68-3,2.68-8.3t-2.67-8.3a8.73,8.73,0,0,0-6.8-3,8.9,8.9,0,0,0-6.9,3q-2.7,3-2.69,8.3T6.61,119A8.8,8.8,0,0,0,13.45,122Z"/><path class="cls-1" d="M34.85,106.88a7.65,7.65,0,0,1,11.9-.07,12.1,12.1,0,0,1,2.17,7.59,11.82,11.82,0,0,1-2.43,7.86,7.66,7.66,0,0,1-6.12,2.88,7.92,7.92,0,0,1-5.52-2v9.33h-3.6v-28h3.6Zm0,13a7.07,7.07,0,0,0,5.29,2.46,4.27,4.27,0,0,0,3.69-2,10.49,10.49,0,0,0,1.37-5.93,10.21,10.21,0,0,0-1.29-5.67,4.12,4.12,0,0,0-3.62-1.93q-3,0-5.45,3.47Z"/><path class="cls-1" d="M60.79,124.71a13.54,13.54,0,0,1-2.57.23,5.32,5.32,0,0,1-3.24-.79,3.3,3.3,0,0,1-1.28-2,18,18,0,0,1-.25-3.37V107.28H51v-2.82h2.49v-5H57v5h3.28v2.82H57v11.65a4.29,4.29,0,0,0,.52,2.64,1.87,1.87,0,0,0,1.44.56,10.21,10.21,0,0,0,1.79-.15Z"/><path class="cls-1" d="M67.38,100.63h-3.6V96.75h3.6Zm0,24h-3.6v-20.2h3.6Z"/><path class="cls-1" d="M100,124.67h-3.6V111.6a6.63,6.63,0,0,0-.72-3.58A2.71,2.71,0,0,0,93.24,107q-2.61,0-5.12,3.24v14.47H84.54V111.6a6.63,6.63,0,0,0-.72-3.58A2.73,2.73,0,0,0,81.37,107q-2.61,0-5.1,3.24v14.47h-3.6v-20.2h3.6V107a7.36,7.36,0,0,1,5.66-3q4.44,0,5.66,3.66a11.29,11.29,0,0,1,3.43-3,6.67,6.67,0,0,1,2.76-.64q6.21,0,6.21,7.45Z"/><path class="cls-1" d="M108.76,100.63h-3.6V96.75h3.6Zm0,24h-3.6v-20.2h3.6Z"/><path class="cls-1" d="M121.27,125.14q-8.28,0-8.66-6.51h3.6q0,3.69,5,3.69a5.39,5.39,0,0,0,3.4-.92,2.83,2.83,0,0,0,1.17-2.31,2,2,0,0,0-1.14-1.93,28.7,28.7,0,0,0-4.71-1.46,17.35,17.35,0,0,1-5.22-2q-1.65-1.1-1.65-3.88a5.12,5.12,0,0,1,2-4.16A8.48,8.48,0,0,1,120.6,104q7.94,0,8.11,5.66h-3.58q-.19-2.86-4.28-2.86a5.94,5.94,0,0,0-3,.69,2.18,2.18,0,0,0-1.19,2,1.81,1.81,0,0,0,.91,1.7,22.86,22.86,0,0,0,4.58,1.41,17.72,17.72,0,0,1,5.45,2.07q1.78,1.18,1.78,4.08a5.7,5.7,0,0,1-2.2,4.58A9,9,0,0,1,121.27,125.14Z"/><path class="cls-1" d="M142.14,125.14a9.52,9.52,0,0,1-7.16-2.79q-2.7-2.79-2.7-7.78t2.62-7.76a9.88,9.88,0,0,1,13.75,0q2.58,2.76,2.58,7.81v.86H136a7.81,7.81,0,0,0,1.93,5.2,5.72,5.72,0,0,0,4.2,1.7,6.21,6.21,0,0,0,3.4-1,3.24,3.24,0,0,0,1.59-2.73h3.71a6.7,6.7,0,0,1-2.83,4.82A10,10,0,0,1,142.14,125.14Zm5.29-12.53a7.32,7.32,0,0,0-2-4.36,5.5,5.5,0,0,0-7.43,0,7.16,7.16,0,0,0-2,4.37Z"/><path class="cls-1" d="M189,124.67h-4.17l-3.24-8.49H169.91l-3.08,8.49h-3.9l10.72-27.92h4Zm-8.49-11.43-4.91-12.95-4.68,12.95Z"/><path class="cls-1" d="M198.83,125.14q-8.28,0-8.66-6.51h3.6q0,3.69,5,3.69a5.39,5.39,0,0,0,3.4-.92,2.83,2.83,0,0,0,1.17-2.31,2,2,0,0,0-1.14-1.93,28.7,28.7,0,0,0-4.71-1.46,17.35,17.35,0,0,1-5.22-2q-1.65-1.1-1.65-3.88a5.12,5.12,0,0,1,2-4.16,8.48,8.48,0,0,1,5.48-1.65q7.94,0,8.11,5.66H202.7q-.19-2.86-4.28-2.86a5.94,5.94,0,0,0-3,.69,2.18,2.18,0,0,0-1.19,2,1.81,1.81,0,0,0,.91,1.7,22.86,22.86,0,0,0,4.58,1.41,17.72,17.72,0,0,1,5.45,2.07q1.78,1.18,1.78,4.08a5.7,5.7,0,0,1-2.2,4.58A9,9,0,0,1,198.83,125.14Z"/><path class="cls-1" d="M218.33,125.14q-8.28,0-8.66-6.51h3.6q0,3.69,5,3.69a5.39,5.39,0,0,0,3.4-.92,2.83,2.83,0,0,0,1.17-2.31,2,2,0,0,0-1.14-1.93A28.7,28.7,0,0,0,217,115.7a17.35,17.35,0,0,1-5.22-2q-1.65-1.1-1.65-3.88a5.12,5.12,0,0,1,2-4.16,8.48,8.48,0,0,1,5.48-1.65q7.94,0,8.11,5.66H222.2q-.19-2.86-4.28-2.86a5.94,5.94,0,0,0-3,.69,2.18,2.18,0,0,0-1.19,2,1.81,1.81,0,0,0,.91,1.7,22.86,22.86,0,0,0,4.58,1.41,17.71,17.71,0,0,1,5.45,2.07q1.78,1.18,1.78,4.08a5.7,5.7,0,0,1-2.2,4.58A9,9,0,0,1,218.33,125.14Z"/><path class="cls-1" d="M239.2,125.14a9.52,9.52,0,0,1-7.16-2.79q-2.7-2.79-2.7-7.78t2.62-7.76a9.88,9.88,0,0,1,13.75,0q2.58,2.76,2.58,7.81v.86H233.07a7.81,7.81,0,0,0,1.93,5.2,5.72,5.72,0,0,0,4.2,1.7,6.21,6.21,0,0,0,3.4-1,3.24,3.24,0,0,0,1.59-2.73h3.71a6.7,6.7,0,0,1-2.83,4.82A10,10,0,0,1,239.2,125.14Zm5.29-12.53a7.33,7.33,0,0,0-2-4.36,5.5,5.5,0,0,0-7.43,0,7.16,7.16,0,0,0-2,4.37Z"/><path class="cls-1" d="M260.15,124.71a13.54,13.54,0,0,1-2.57.23,5.32,5.32,0,0,1-3.24-.79,3.31,3.31,0,0,1-1.28-2,18,18,0,0,1-.25-3.37V107.28h-2.5v-2.82h2.5v-5h3.58v5h3.28v2.82H256.4v11.65a4.3,4.3,0,0,0,.52,2.64,1.87,1.87,0,0,0,1.44.56,10.2,10.2,0,0,0,1.79-.15Z"/><path class="cls-1" d="M270.36,125.14q-8.28,0-8.67-6.51h3.6q0,3.69,5,3.69a5.39,5.39,0,0,0,3.4-.92,2.83,2.83,0,0,0,1.17-2.31,2,2,0,0,0-1.14-1.93A28.7,28.7,0,0,0,269,115.7a17.35,17.35,0,0,1-5.22-2q-1.65-1.1-1.65-3.88a5.12,5.12,0,0,1,2-4.16,8.48,8.48,0,0,1,5.47-1.65q7.94,0,8.11,5.66h-3.58q-.19-2.86-4.29-2.86a5.94,5.94,0,0,0-3,.69,2.18,2.18,0,0,0-1.19,2,1.81,1.81,0,0,0,.91,1.7,22.86,22.86,0,0,0,4.58,1.41,17.72,17.72,0,0,1,5.45,2.07q1.78,1.18,1.78,4.08a5.7,5.7,0,0,1-2.2,4.58A9,9,0,0,1,270.36,125.14Z"/><path class="cls-1" d="M314.38,122.8l-2.78,2.34-2.42-3a11.8,11.8,0,0,1-8.3,3,8.85,8.85,0,0,1-6.35-2.38A7.67,7.67,0,0,1,292,117a6.91,6.91,0,0,1,1.6-4.53,17.23,17.23,0,0,1,4.88-3.79q-3-3.81-3-6.15a5.77,5.77,0,0,1,2-4.46,7.13,7.13,0,0,1,5-1.79A6.47,6.47,0,0,1,307.12,98a5.6,5.6,0,0,1,1.84,4.22,5.75,5.75,0,0,1-1.35,3.82,15.5,15.5,0,0,1-4.11,3.21l5.62,7a14.69,14.69,0,0,0,.93-4.72h3.71a16.63,16.63,0,0,1-2.23,7.71Zm-7.22-3.28-6.8-8.51a14.52,14.52,0,0,0-3.52,2.69,4.46,4.46,0,0,0-1.11,3,5.36,5.36,0,0,0,1.48,3.74,4.81,4.81,0,0,0,3.7,1.61A8.15,8.15,0,0,0,307.17,119.53ZM301.66,107a10.34,10.34,0,0,0,2.88-2.12,3.78,3.78,0,0,0,.91-2.56,3.05,3.05,0,0,0-.94-2.33,3.14,3.14,0,0,0-2.22-.89,3.3,3.3,0,0,0-2.3.85,2.86,2.86,0,0,0-.93,2.22,6.48,6.48,0,0,0,1.71,3.71Z"/><path class="cls-1" d="M341.54,125.14a12.14,12.14,0,0,1-9.46-3.89q-3.53-3.89-3.53-10.54t3.53-10.54a12.14,12.14,0,0,1,9.46-3.89,12.35,12.35,0,0,1,7.75,2.46,9,9,0,0,1,3.6,6.47h-3.81a5.65,5.65,0,0,0-2.29-4.21,9.3,9.3,0,0,0-11.93,1.36q-2.48,2.92-2.47,8.35t2.46,8.34a9.25,9.25,0,0,0,12,1.33,6.25,6.25,0,0,0,2.29-4.57h3.81a9.4,9.4,0,0,1-3.5,6.89A12.32,12.32,0,0,1,341.54,125.14Z"/><path class="cls-1" d="M361.13,124.67h-3.6V96.75h3.6Z"/><path class="cls-1" d="M374.62,104a9,9,0,0,1,6.9,2.76q2.58,2.76,2.58,7.81t-2.58,7.8a10,10,0,0,1-13.79,0q-2.58-2.77-2.58-7.8t2.58-7.81A9,9,0,0,1,374.62,104Zm0,18.32a5.14,5.14,0,0,0,4.17-2q1.6-2,1.6-5.8t-1.6-5.82a5.43,5.43,0,0,0-8.34,0q-1.6,2-1.6,5.82t1.6,5.8A5.14,5.14,0,0,0,374.62,122.32Z"/><path class="cls-1" d="M400.91,122.1a7.92,7.92,0,0,1-6,3q-6.84,0-6.84-7.46V104.46h3.6v13.06a5.7,5.7,0,0,0,.88,3.56,3.51,3.51,0,0,0,2.89,1.09q3,0,5.5-3.24V104.46h3.58v20.2h-3.58Z"/><path class="cls-1" d="M422.6,122.25a7.62,7.62,0,0,1-11.9.08,12.14,12.14,0,0,1-2.17-7.6,11.79,11.79,0,0,1,2.43-7.84,7.65,7.65,0,0,1,6.1-2.89,8,8,0,0,1,5.54,2V96.75h3.58v27.92H422.6Zm0-3.39v-9.6a7.13,7.13,0,0,0-5.31-2.46,4.28,4.28,0,0,0-3.68,2,10.43,10.43,0,0,0-1.38,5.93,10.13,10.13,0,0,0,1.3,5.66,4.12,4.12,0,0,0,3.61,1.93Q420.15,122.32,422.6,118.86Z"/></g></g></svg>