<svg xmlns="http://www.w3.org/2000/svg" viewBox="0 0 394.59 479.79"><defs><style>.cls-1{fill:#888;}</style></defs><title>money</title><g id="Layer_2" data-name="Layer 2"><g id="Layer_1-2" data-name="Layer 1"><path class="cls-1" d="M110.24,273.42a68.13,68.13,0,1,1,68.13-68.12A68.2,68.2,0,0,1,110.24,273.42Zm0-136a67.88,67.88,0,1,0,67.88,67.88A68,68,0,0,0,110.24,137.42Zm8.63,127.5H101.61v-17a25.65,25.65,0,0,1-25.5-25.62v-.12H93.36v.13a8.38,8.38,0,0,0,8.38,8.38h17a8.38,8.38,0,0,0,0-16.75h-17a25.63,25.63,0,0,1-.12-51.25v-17h17.25v17a25.65,25.65,0,0,1,25.5,25.63v.13H127.11v-.12a8.38,8.38,0,0,0-8.37-8.37h-17a8.38,8.38,0,1,0,0,16.75h17a25.63,25.63,0,0,1,.13,51.25Zm-17-.25h16.75v-17h.13a25.38,25.38,0,1,0,0-50.75h-17a8.63,8.63,0,1,1,0-17.25h17a8.64,8.64,0,0,1,8.62,8.5h16.75a25.4,25.4,0,0,0-25.38-25.25h-.12v-17H101.86v17h-.12a25.38,25.38,0,1,0,0,50.75h17a8.63,8.63,0,0,1,0,17.25h-17a8.64,8.64,0,0,1-8.62-8.5H76.36a25.4,25.4,0,0,0,25.38,25.25h.13Z"/><path class="cls-1" d="M357.48,346.25H162a2.5,2.5,0,0,1,0-5H357.48A12.25,12.25,0,0,0,369.72,329V274.36h-109a30.56,30.56,0,0,1-30.51-30.55V169.69a30.54,30.54,0,0,1,30.51-30.5h109V84.54A12.25,12.25,0,0,0,357.52,72.3H17.24A12.23,12.23,0,0,0,5,84.54V329a12.25,12.25,0,0,0,12.24,12.24H58.87a2.5,2.5,0,1,1,0,5H17.24A17.26,17.26,0,0,1,0,329V84.54A17.23,17.23,0,0,1,17.24,67.3H357.52a17.26,17.26,0,0,1,17.24,17.24v57.15a2.5,2.5,0,0,1-2.5,2.5H260.74a25.53,25.53,0,0,0-25.51,25.5v74.12a25.56,25.56,0,0,0,25.51,25.55H372.22a2.5,2.5,0,0,1,2.5,2.5V329A17.26,17.26,0,0,1,357.48,346.25Z"/><path class="cls-1" d="M88.54,59.71a2.5,2.5,0,0,1-.61-4.92L301.82.54A16,16,0,0,1,306.06,0a17.19,17.19,0,0,1,16.7,13l11,43.54a2.51,2.51,0,0,1,.08.61,2.54,2.54,0,0,1-2.5,2.54H254.93a2.5,2.5,0,0,1,0-5h73.24L317.91,14.23A12.2,12.2,0,0,0,306.06,5a11,11,0,0,0-3,.37l-214,54.26A2.48,2.48,0,0,1,88.54,59.71Z"/><path class="cls-1" d="M377.36,261.1H260.74a17.26,17.26,0,0,1-17.24-17.24V169.74a17.26,17.26,0,0,1,17.24-17.24H377.36a14.06,14.06,0,0,1,1.47.05,17.26,17.26,0,0,1,7.35,2.36h0a17.36,17.36,0,0,1,8.41,14.82v74.12a17.36,17.36,0,0,1-8.42,14.82,16.65,16.65,0,0,1-7.42,2.37l-.66,0ZM260.74,157.5a12.25,12.25,0,0,0-12.24,12.24v74.12a12.25,12.25,0,0,0,12.24,12.24H377.36l.48,0,.64,0a11.72,11.72,0,0,0,5.13-1.66,12.34,12.34,0,0,0,6-10.53V169.73a12.33,12.33,0,0,0-6-10.53h0a12.31,12.31,0,0,0-5.26-1.67,8.77,8.77,0,0,0-1,0Zm36.77,75.68a26.42,26.42,0,1,1,26.42-26.42A26.45,26.45,0,0,1,297.51,233.17Zm0-47.84a21.42,21.42,0,1,0,21.42,21.42A21.44,21.44,0,0,0,297.51,185.33Z"/><path class="cls-1" d="M107.74,273.29a2.5,2.5,0,0,1,2.5-2.5h0a2.5,2.5,0,0,1,2.5,2.5h0a2.5,2.5,0,0,1-2.5,2.5h0A2.5,2.5,0,0,1,107.74,273.29Zm7.32-.12a2.5,2.5,0,0,1,2.22-2.76h0a2.51,2.51,0,0,1,2.75,2.22h0a2.51,2.51,0,0,1-2.22,2.76h-.27A2.49,2.49,0,0,1,115.06,273.17ZM99.92,275a2.49,2.49,0,0,1-2.11-2.83h0a2.5,2.5,0,0,1,2.84-2.11h0a2.51,2.51,0,0,1,2.11,2.84h0a2.51,2.51,0,0,1-2.47,2.13h0A2.25,2.25,0,0,1,99.92,275Zm25-3.3a2.48,2.48,0,0,1,1.79-3h0a2.5,2.5,0,0,1,3,1.79h0a2.49,2.49,0,0,1-1.79,3h0a2.26,2.26,0,0,1-.63.09h0A2.5,2.5,0,0,1,124.95,271.73Zm-35.14,1a2.51,2.51,0,0,1-1.67-3.12h0A2.49,2.49,0,0,1,91.26,268h0a2.5,2.5,0,0,1,1.67,3.11h0a2.51,2.51,0,0,1-2.39,1.78h0A2.63,2.63,0,0,1,89.81,272.77Zm44.71-3.91a2.5,2.5,0,0,1,1.32-3.28h0a2.5,2.5,0,0,1,3.28,1.32h0a2.5,2.5,0,0,1-1.32,3.28h0a2.6,2.6,0,0,1-1,.2h0A2.51,2.51,0,0,1,134.52,268.86ZM80.14,269h0a2.5,2.5,0,0,1-1.19-3.33h0a2.5,2.5,0,0,1,3.33-1.19h0a2.5,2.5,0,0,1,1.19,3.33h0a2.5,2.5,0,0,1-2.26,1.43h0A2.58,2.58,0,0,1,80.14,269Zm63.42-4.43a2.5,2.5,0,0,1,.82-3.44h0a2.48,2.48,0,0,1,3.43.82h0a2.51,2.51,0,0,1-.82,3.44h0a2.51,2.51,0,0,1-1.31.37h0A2.51,2.51,0,0,1,143.56,264.61Zm-72.43-.69a2.49,2.49,0,0,1-.68-3.46h0a2.49,2.49,0,0,1,3.46-.69h0a2.5,2.5,0,0,1,.69,3.47h0a2.49,2.49,0,0,1-2.08,1.11h0A2.47,2.47,0,0,1,71.13,263.92Zm80.75-4.85a2.5,2.5,0,0,1,.31-3.52h0a2.51,2.51,0,0,1,3.53.31h0a2.52,2.52,0,0,1-.32,3.53h0a2.49,2.49,0,0,1-1.6.58h0A2.5,2.5,0,0,1,151.88,259.07ZM63,257.55h0A2.5,2.5,0,0,1,62.8,254h0a2.5,2.5,0,0,1,3.52-.18h0a2.51,2.51,0,0,1,.17,3.54h0a2.5,2.5,0,0,1-1.85.82h0A2.52,2.52,0,0,1,63,257.55Zm96.34-5.17a2.49,2.49,0,0,1-.2-3.52h0a2.49,2.49,0,0,1,3.53-.21h0a2.51,2.51,0,0,1,.2,3.54h0A2.47,2.47,0,0,1,161,253h0A2.48,2.48,0,0,1,159.31,252.38ZM55.82,250.06a2.5,2.5,0,0,1,.34-3.52h0a2.5,2.5,0,0,1,3.52.34h0a2.49,2.49,0,0,1-.34,3.52h0a2.44,2.44,0,0,1-1.59.57h0A2.48,2.48,0,0,1,55.82,250.06Zm109.87-5.37a2.5,2.5,0,0,1-.71-3.46h0a2.49,2.49,0,0,1,3.46-.72h0a2.51,2.51,0,0,1,.71,3.47h0a2.51,2.51,0,0,1-2.09,1.12h0A2.47,2.47,0,0,1,165.69,244.69ZM49.84,241.62a2.51,2.51,0,0,1,.85-3.44h0a2.5,2.5,0,0,1,3.43.85h0a2.5,2.5,0,0,1-.85,3.43h0a2.42,2.42,0,0,1-1.29.36h0A2.51,2.51,0,0,1,49.84,241.62Zm121-5.48a2.5,2.5,0,0,1-1.21-3.32h0a2.5,2.5,0,0,1,3.32-1.21h0a2.49,2.49,0,0,1,1.21,3.32h0a2.5,2.5,0,0,1-2.27,1.45h0A2.47,2.47,0,0,1,170.88,236.14ZM45.16,232.38h0a2.5,2.5,0,0,1,1.34-3.27h0a2.5,2.5,0,0,1,3.27,1.35h0a2.5,2.5,0,0,1-1.34,3.27h0a2.53,2.53,0,0,1-1,.19h0A2.5,2.5,0,0,1,45.16,232.38Zm129.6-5.45a2.51,2.51,0,0,1-1.69-3.11h0a2.5,2.5,0,0,1,3.11-1.69h0a2.51,2.51,0,0,1,1.69,3.11h0a2.51,2.51,0,0,1-2.4,1.79h0A3,3,0,0,1,174.76,226.93ZM41.88,222.56a2.51,2.51,0,0,1,1.81-3h0a2.51,2.51,0,0,1,3,1.81h0a2.5,2.5,0,0,1-1.81,3h0a2.63,2.63,0,0,1-.61.08h0A2.53,2.53,0,0,1,41.88,222.56Zm135.36-5.32a2.49,2.49,0,0,1-2.13-2.82h0a2.49,2.49,0,0,1,2.82-2.13h0a2.5,2.5,0,0,1,2.13,2.82h0a2.51,2.51,0,0,1-2.47,2.16h0A2,2,0,0,1,177.24,217.24ZM40.09,212.36a2.51,2.51,0,0,1,2.24-2.74h0a2.5,2.5,0,0,1,2.74,2.24h0a2.51,2.51,0,0,1-2.24,2.74h-.25A2.5,2.5,0,0,1,40.09,212.36Zm135.65-7.54a2.5,2.5,0,0,1,2.48-2.52h0a2.5,2.5,0,0,1,2.52,2.48h0a2.5,2.5,0,0,1-2.48,2.52h0A2.5,2.5,0,0,1,175.74,204.82Zm-133.54-.2A2.5,2.5,0,0,1,39.82,202h0a2.49,2.49,0,0,1,2.61-2.38h0a2.49,2.49,0,0,1,2.38,2.61h0a2.5,2.5,0,0,1-2.5,2.38H42.2ZM175,195.23a2.5,2.5,0,0,1,2.09-2.86h0a2.5,2.5,0,0,1,2.85,2.09h0a2.51,2.51,0,0,1-2.09,2.86h0a2.39,2.39,0,0,1-.38,0h0A2.52,2.52,0,0,1,175,195.23Zm-132-.57a2.5,2.5,0,0,1-2-2.93h0a2.49,2.49,0,0,1,2.93-2h0a2.5,2.5,0,0,1,2,2.93h0a2.51,2.51,0,0,1-2.45,2h0A2.88,2.88,0,0,1,43,194.66Zm129.78-8.8a2.5,2.5,0,0,1,1.64-3.13h0a2.5,2.5,0,0,1,3.13,1.64h0a2.5,2.5,0,0,1-1.64,3.13h0a2.43,2.43,0,0,1-.74.12h0A2.5,2.5,0,0,1,172.8,185.86Zm-127.49-.94a2.5,2.5,0,0,1-1.52-3.19h0A2.5,2.5,0,0,1,47,180.21h0a2.5,2.5,0,0,1,1.52,3.19h0a2.5,2.5,0,0,1-2.36,1.67h0A2.48,2.48,0,0,1,45.31,184.92Zm124-8a2.51,2.51,0,0,1,1.16-3.34h0a2.5,2.5,0,0,1,3.34,1.17h0a2.51,2.51,0,0,1-1.16,3.34h0a2.63,2.63,0,0,1-1.09.24h0A2.5,2.5,0,0,1,169.27,176.91ZM49,175.63a2.5,2.5,0,0,1-1-3.38h0a2.5,2.5,0,0,1,3.38-1h0a2.51,2.51,0,0,1,1,3.38h0a2.52,2.52,0,0,1-2.21,1.33h0A2.52,2.52,0,0,1,49,175.63Zm115.46-7a2.5,2.5,0,0,1,.66-3.47h0a2.51,2.51,0,0,1,3.48.66h0a2.49,2.49,0,0,1-.67,3.47h0a2.41,2.41,0,0,1-1.4.44h0A2.51,2.51,0,0,1,164.46,168.58ZM54,167a2.49,2.49,0,0,1-.52-3.49h0A2.51,2.51,0,0,1,57,163h0a2.5,2.5,0,0,1,.52,3.5h0a2.51,2.51,0,0,1-2,1h0A2.52,2.52,0,0,1,54,167ZM158.49,161a2.5,2.5,0,0,1,.15-3.53h0a2.49,2.49,0,0,1,3.53.15h0a2.49,2.49,0,0,1-.15,3.53h0a2.48,2.48,0,0,1-1.69.66h0A2.52,2.52,0,0,1,158.49,161Zm-98.23-1.88a2.49,2.49,0,0,1,0-3.53h0a2.51,2.51,0,0,1,3.54,0h0a2.5,2.5,0,0,1,0,3.53h0a2.46,2.46,0,0,1-1.77.74h0A2.45,2.45,0,0,1,60.26,159.16Zm91.22-4.72h0a2.51,2.51,0,0,1-.36-3.52h0a2.5,2.5,0,0,1,3.52-.36h0a2.5,2.5,0,0,1,.37,3.52h0a2.53,2.53,0,0,1-1.94.92h0A2.49,2.49,0,0,1,151.48,154.44Zm-83.93-2.1a2.5,2.5,0,0,1,.5-3.5h0a2.5,2.5,0,0,1,3.5.51h0a2.49,2.49,0,0,1-.5,3.5h0a2.55,2.55,0,0,1-1.5.5h0A2.51,2.51,0,0,1,67.55,152.34Zm76-3.41h0a2.5,2.5,0,0,1-.87-3.43h0a2.5,2.5,0,0,1,3.42-.87h0a2.51,2.51,0,0,1,.88,3.43h0a2.5,2.5,0,0,1-2.16,1.22h0A2.46,2.46,0,0,1,143.59,148.93Zm-67.83-2.29a2.5,2.5,0,0,1,1-3.39h0a2.51,2.51,0,0,1,3.39,1h0a2.51,2.51,0,0,1-1,3.39h0A2.45,2.45,0,0,1,78,148h0A2.49,2.49,0,0,1,75.76,146.64Zm59.22-2a2.51,2.51,0,0,1-1.37-3.26h0a2.5,2.5,0,0,1,3.26-1.37h0a2.5,2.5,0,0,1,1.37,3.26h0a2.5,2.5,0,0,1-2.32,1.55h0A2.57,2.57,0,0,1,135,144.64Zm-50.27-2.43a2.5,2.5,0,0,1,1.5-3.2h0a2.49,2.49,0,0,1,3.2,1.49h0a2.51,2.51,0,0,1-1.5,3.21h0a2.51,2.51,0,0,1-.85.15h0A2.5,2.5,0,0,1,84.71,142.21Zm41.11-.55a2.5,2.5,0,0,1-1.83-3h0a2.5,2.5,0,0,1,3-1.84h0a2.52,2.52,0,0,1,1.84,3h0a2.5,2.5,0,0,1-2.43,1.9h0A2.46,2.46,0,0,1,125.82,141.66Zm-31.59-2.51a2.49,2.49,0,0,1,2-3h0a2.49,2.49,0,0,1,2.94,2h0a2.5,2.5,0,0,1-2,3h0a2.71,2.71,0,0,1-.5,0h0A2.5,2.5,0,0,1,94.23,139.15Zm22.11.92h0a2.5,2.5,0,0,1-2.26-2.72h0a2.49,2.49,0,0,1,2.72-2.26h0a2.51,2.51,0,0,1,2.26,2.72h0a2.5,2.5,0,0,1-2.49,2.27h-.23Zm-12.25-2.55a2.49,2.49,0,0,1,2.36-2.63h0a2.49,2.49,0,0,1,2.63,2.36h0a2.5,2.5,0,0,1-2.37,2.63h-.13A2.5,2.5,0,0,1,104.09,137.52Z"/><path class="cls-1" d="M118.74,267.29h-17a2.5,2.5,0,0,1-2.5-2.5V250.18a28,28,0,0,1-25.5-27.89,2.5,2.5,0,0,1,2.5-2.5h17a2.5,2.5,0,0,1,2.5,2.5,6,6,0,0,0,6,6h17a6,6,0,0,0,0-12h-17a28,28,0,0,1-2.5-55.89V145.79a2.5,2.5,0,0,1,2.5-2.5h17a2.5,2.5,0,0,1,2.5,2.5V160.4a28,28,0,0,1,25.5,27.89,2.5,2.5,0,0,1-2.5,2.5h-17a2.5,2.5,0,0,1-2.5-2.5,6,6,0,0,0-6-6h-17a6,6,0,1,0,0,12h17a28,28,0,0,1,2.5,55.89v14.61A2.5,2.5,0,0,1,118.74,267.29Zm-14.5-5h12v-14.5a2.5,2.5,0,0,1,2.5-2.5,23,23,0,1,0,0-46h-17a11,11,0,1,1,0-22h17a11,11,0,0,1,10.71,8.5H141.6a23,23,0,0,0-22.87-20.5,2.5,2.5,0,0,1-2.5-2.5v-14.5h-12v14.5a2.5,2.5,0,0,1-2.5,2.5,23,23,0,1,0,0,46h17a11,11,0,1,1,0,22h-17A11,11,0,0,1,91,224.79H78.87a23,23,0,0,0,22.87,20.5,2.5,2.5,0,0,1,2.5,2.5Z"/><path class="cls-1" d="M110.24,445.79a2.5,2.5,0,0,1-2.5-2.5v-153a2.5,2.5,0,0,1,5,0v153A2.5,2.5,0,0,1,110.24,445.79Z"/><path class="cls-1" d="M110.24,479.79a2.5,2.5,0,0,1-2.5-2.5v-17a2.5,2.5,0,0,1,5,0v17A2.5,2.5,0,0,1,110.24,479.79Z"/><path class="cls-1" d="M76.24,386.29a2.5,2.5,0,0,1-2.5-2.5v-102a2.5,2.5,0,0,1,5,0v102A2.5,2.5,0,0,1,76.24,386.29Z"/><path class="cls-1" d="M76.24,427.07a2.5,2.5,0,0,1-2.5-2.5V400.79a2.5,2.5,0,0,1,5,0v23.78A2.5,2.5,0,0,1,76.24,427.07Z"/><path class="cls-1" d="M144.24,367.58a2.5,2.5,0,0,1-2.5-2.5V281.79a2.5,2.5,0,0,1,5,0v83.28A2.5,2.5,0,0,1,144.24,367.58Z"/><path class="cls-1" d="M144.24,420.29a2.5,2.5,0,0,1-2.5-2.5v-34a2.5,2.5,0,0,1,5,0v34A2.5,2.5,0,0,1,144.24,420.29Z"/></g></g></svg>