<svg id="svg115845" xmlns="http://www.w3.org/2000/svg" viewBox="0 0 615.21 79.98"><defs><style>.cls-1{fill:#888;}</style></defs><title>oracle-logo-grey</title><path id="path16197" class="cls-1" d="M265.59,52h40.65l-21.5-34.58L245.3,80h-18l48-75.11A11.34,11.34,0,0,1,284.75,0,11.13,11.13,0,0,1,294,4.74L342.15,80h-18l-8.47-14H274.57ZM452.1,66V.76H436.86V72.39a7.47,7.47,0,0,0,2.21,5.31A7.78,7.78,0,0,0,444.64,80h69.48l9-14ZM200,54.31A26.77,26.77,0,1,0,200,.76H133.37V80H148.6V14.73H199a12.83,12.83,0,0,1,0,25.67l-43-.06L201.55,80h22.13l-30.6-25.67ZM39.62,80a39.61,39.61,0,1,1,0-79.22h46a39.61,39.61,0,1,1,0,79.22Zm45-14a25.64,25.64,0,1,0,0-51.27h-44a25.64,25.64,0,1,0,0,51.27ZM374,80A39.61,39.61,0,1,1,374,.76h54.69l-8.91,14H375A25.64,25.64,0,1,0,375,66h54.94l-9,14ZM560.27,66a25.6,25.6,0,0,1-24.66-18.65h65.12l9-14h-74.1a25.68,25.68,0,0,1,24.66-18.65H605l9-14H559.26a39.61,39.61,0,1,0,0,79.22h47l9-14H560.27"/></svg>