<svg xmlns="http://www.w3.org/2000/svg" viewBox="0 0 418.77 296.79"><defs><style>.cls-1{fill:#FF9800;}</style></defs><title>play</title><g id="Layer_2" data-name="Layer 2"><g id="Layer_1-2" data-name="Layer 1"><path class="cls-1" d="M354.29,111.26a2.5,2.5,0,0,1-.45-5,35.53,35.53,0,1,0-41.57-40,2.5,2.5,0,1,1-4.95-.73A40.08,40.08,0,0,1,325.94,37a40.53,40.53,0,0,1,61,43.51,40.55,40.55,0,0,1-32.17,30.72A2.48,2.48,0,0,1,354.29,111.26Z"/><path class="cls-1" d="M368.17,296.79H19.46C6.55,296.79,0,287.66,0,269.66a2.5,2.5,0,0,1,2.5-2.5H39.57a25.54,25.54,0,0,1-8.4-19v-159A25.76,25.76,0,0,1,56.91,63.48H276.64l4.25-18.35a2.5,2.5,0,0,1,3-1.87L295,45.86a56.57,56.57,0,0,1,11.25-15.71l-6.09-9.74A2.5,2.5,0,0,1,301,17L318.91,5.75a2.5,2.5,0,0,1,3.45.8l6.06,9.75a57.46,57.46,0,0,1,18.81-3.2h.25L350,1.94a2.5,2.5,0,0,1,3-1.88l20.63,4.75a2.5,2.5,0,0,1,1.88,3L373,19A57.24,57.24,0,0,1,388.64,30.2l9.71-6.09a2.5,2.5,0,0,1,3.45.79l11.21,18a2.5,2.5,0,0,1-.8,3.44l-9.72,6.06a58.26,58.26,0,0,1,3.19,19l11.13,2.53a2.5,2.5,0,0,1,1.88,3L414,97.59a2.5,2.5,0,0,1-3,1.88L399.82,96.9a58.17,58.17,0,0,1-11.24,15.66l6.12,9.71a2.5,2.5,0,0,1-.79,3.45l-18,11.25a2.5,2.5,0,0,1-3.44-.79l-6.09-9.71a48.53,48.53,0,0,1-10,2.7v119a25.57,25.57,0,0,1-8.37,19h37.08a2.5,2.5,0,0,1,2.5,2.5C387.63,287.66,381.09,296.79,368.17,296.79ZM5,272.16c.64,17.32,8,19.62,14.42,19.62H368.17c6.43,0,13.78-2.3,14.41-19.62H339.44a2.5,2.5,0,0,1-.94-4.82,20.61,20.61,0,0,0,12.93-19.17v-159a20.73,20.73,0,0,0-20.71-20.71H56.91A20.75,20.75,0,0,0,36.17,89.19v159a20.62,20.62,0,0,0,13,19.17,2.5,2.5,0,0,1-.94,4.82ZM367.43,120.91a2.5,2.5,0,0,1,2.12,1.17l5.85,9.32,13.73-8.59-5.88-9.32a2.5,2.5,0,0,1,.42-3.17A53,53,0,0,0,396.12,93,2.51,2.51,0,0,1,399,91.57L409.65,94l3.63-15.78L402.6,75.82a2.5,2.5,0,0,1-1.94-2.52,53.39,53.39,0,0,0-3.54-21.07,2.5,2.5,0,0,1,1-3l9.32-5.81-8.56-13.73-9.31,5.84a2.5,2.5,0,0,1-3.16-.42,52.38,52.38,0,0,0-17.34-12.41,2.5,2.5,0,0,1-1.43-2.85l2.47-10.72L354.36,5.5,351.9,16.21a2.5,2.5,0,0,1-2.54,1.94,52.49,52.49,0,0,0-21.09,3.53,2.5,2.5,0,0,1-3-1l-5.81-9.34-13.69,8.56,5.85,9.35a2.5,2.5,0,0,1-.43,3.17,51.74,51.74,0,0,0-12.44,17.37,2.5,2.5,0,0,1-2.86,1.43l-10.67-2.5-3.42,14.78h49a25.74,25.74,0,0,1,25.71,25.71V124.1a49.74,49.74,0,0,0,10.11-3A2.48,2.48,0,0,1,367.43,120.91Zm-138.27,165H158.47A2.5,2.5,0,0,1,156,284l-3-12a2.5,2.5,0,1,1,4.85-1.21l2.53,10.1h66.79l2.53-10.1a2.5,2.5,0,1,1,4.85,1.21l-3,12A2.5,2.5,0,0,1,229.16,285.88Z"/><path class="cls-1" d="M339.44,272.16H48.2a2.5,2.5,0,0,1,0-5H339.44a2.5,2.5,0,0,1,0,5Z"/><path class="cls-1" d="M108.71,259.72a2.5,2.5,0,0,1-2.5-2.5V113.9s0-.08,0-.12,0-.09,0-.14V79.73a2.5,2.5,0,0,1,2.5-2.5h0a2.5,2.5,0,0,1,2.5,2.5v33.78c0,.09,0,.17,0,.26s0,.16,0,.25v143.2A2.5,2.5,0,0,1,108.71,259.72ZM270,258.3a2.5,2.5,0,0,1-2.5-2.5V244.91a2.5,2.5,0,1,1,5,0V255.8A2.5,2.5,0,0,1,270,258.3Zm0-26.11a2.5,2.5,0,0,1-2.5-2.5V114a3.08,3.08,0,0,1,0-.46V79.73a2.5,2.5,0,0,1,5,0v33.91s0,.07,0,.12,0,.09,0,.14V229.69A2.5,2.5,0,0,1,270,232.19ZM163.89,206.85a9.77,9.77,0,0,1-9.75-9.75V132.47A9.75,9.75,0,0,1,168.77,124l56,32.32a9.75,9.75,0,0,1,0,16.89l-56,32.31A9.7,9.7,0,0,1,163.89,206.85Zm0-79.14a4.75,4.75,0,0,0-4.75,4.75V197.1a4.76,4.76,0,0,0,2.38,4.11h0a4.78,4.78,0,0,0,4.74,0l56-32.32a4.75,4.75,0,0,0,0-8.23l-56-32.32A4.76,4.76,0,0,0,163.89,127.71Zm7.59-19.88a8.43,8.43,0,1,1,8.42-8.42A8.43,8.43,0,0,1,171.48,107.83Zm0-11.85a3.43,3.43,0,1,0,3.42,3.43A3.43,3.43,0,0,0,171.48,96Zm-21,11.85a8.42,8.42,0,1,1,8.42-8.42A8.43,8.43,0,0,1,150.43,107.83Zm0-11.85a3.43,3.43,0,1,0,2.42,1A3.43,3.43,0,0,0,150.43,96Zm-21,11.85a8.43,8.43,0,1,1,8.42-8.42A8.44,8.44,0,0,1,129.39,107.83Zm0-11.85a3.43,3.43,0,1,0,3.42,3.43A3.43,3.43,0,0,0,129.39,96Z"/><path class="cls-1" d="M261.5,242.19H163.88a2.5,2.5,0,1,1,0-5H261.5a2.5,2.5,0,0,1,0,5Z"/><path class="cls-1" d="M143.87,242.19h-26.7a2.5,2.5,0,0,1,0-5h26.7a2.5,2.5,0,0,1,0,5Z"/><path class="cls-1" d="M153.88,252.2a12.51,12.51,0,1,1,12.51-12.51A12.52,12.52,0,0,1,153.88,252.2Zm0-20a7.51,7.51,0,1,0,7.51,7.51A7.51,7.51,0,0,0,153.88,232.19Z"/><path class="cls-1" d="M258.2,101.9H182.83a2.5,2.5,0,0,1,0-5H258.2a2.5,2.5,0,0,1,0,5Z"/><path class="cls-1" d="M164.2,196.3a9.7,9.7,0,0,1-4.89-1.32c-3.29-1.89-5.18-4.86-5.18-8.12a2.5,2.5,0,0,1,5,0c0,2,1.88,3.33,2.69,3.8a4.77,4.77,0,0,0,4.75,0l56-32.32a2.5,2.5,0,0,1,2.5,4.33l-56,32.31A9.7,9.7,0,0,1,164.2,196.3Z"/><path class="cls-1" d="M331.29,259.72H60.2a14.52,14.52,0,0,1-14.5-14.5V91.73a14.52,14.52,0,0,1,14.5-14.5H331.29a14.52,14.52,0,0,1,14.5,14.5v153.5A14.52,14.52,0,0,1,331.29,259.72ZM60.2,82.23a9.51,9.51,0,0,0-9.5,9.5v153.5a9.51,9.51,0,0,0,9.5,9.5H331.29a9.51,9.51,0,0,0,9.5-9.5V91.73a9.51,9.51,0,0,0-9.5-9.5Z"/><path class="cls-1" d="M376.62,239.7a2.49,2.49,0,0,1,2.5-2.5h0a2.49,2.49,0,0,1,2.5,2.5h0a2.5,2.5,0,0,1-2.5,2.5h0A2.5,2.5,0,0,1,376.62,239.7Zm-10,0a2.49,2.49,0,0,1,2.5-2.5h0a2.49,2.49,0,0,1,2.5,2.5h0a2.5,2.5,0,0,1-2.5,2.5h0A2.5,2.5,0,0,1,366.62,239.7Zm16-4a2.5,2.5,0,0,1,2.5-2.5h0a2.5,2.5,0,0,1,2.5,2.5h0a2.5,2.5,0,0,1-2.5,2.5h0A2.5,2.5,0,0,1,382.64,235.71Zm0-10a2.5,2.5,0,0,1,2.5-2.5h0a2.5,2.5,0,0,1,2.5,2.5h0a2.5,2.5,0,0,1-2.5,2.5h0A2.5,2.5,0,0,1,382.64,225.71Zm0-10a2.5,2.5,0,0,1,2.5-2.5h0a2.5,2.5,0,0,1,2.5,2.5h0a2.5,2.5,0,0,1-2.5,2.5h0A2.5,2.5,0,0,1,382.64,215.71Zm0-10a2.5,2.5,0,0,1,2.5-2.5h0a2.5,2.5,0,0,1,2.5,2.5h0a2.5,2.5,0,0,1-2.5,2.5h0A2.5,2.5,0,0,1,382.64,205.71Zm0-10a2.5,2.5,0,0,1,2.5-2.5h0a2.5,2.5,0,0,1,2.5,2.5h0a2.5,2.5,0,0,1-2.5,2.5h0A2.5,2.5,0,0,1,382.64,195.71Zm0-10a2.5,2.5,0,0,1,2.5-2.5h0a2.5,2.5,0,0,1,2.5,2.5h0a2.5,2.5,0,0,1-2.5,2.5h0A2.5,2.5,0,0,1,382.64,185.71Zm0-10a2.5,2.5,0,0,1,2.5-2.5h0a2.5,2.5,0,0,1,2.5,2.5h0a2.5,2.5,0,0,1-2.5,2.5h0A2.5,2.5,0,0,1,382.64,175.71Zm0-10a2.5,2.5,0,0,1,2.5-2.5h0a2.5,2.5,0,0,1,2.5,2.5h0a2.5,2.5,0,0,1-2.5,2.5h0A2.5,2.5,0,0,1,382.64,165.71Zm0-10a2.5,2.5,0,0,1,2.5-2.5h0a2.5,2.5,0,0,1,2.5,2.5h0a2.5,2.5,0,0,1-2.5,2.5h0A2.5,2.5,0,0,1,382.64,155.71Zm0-10a2.5,2.5,0,0,1,2.5-2.5h0a2.5,2.5,0,0,1,2.5,2.5h0a2.5,2.5,0,0,1-2.5,2.5h0A2.5,2.5,0,0,1,382.64,145.71Z"/><path class="cls-1" d="M132.82,54.59a2.49,2.49,0,0,1,2.49-2.5h0a2.49,2.49,0,0,1,2.5,2.5h0a2.49,2.49,0,0,1-2.5,2.5h0A2.49,2.49,0,0,1,132.82,54.59Zm0-10a2.49,2.49,0,0,1,2.49-2.5h0a2.49,2.49,0,0,1,2.5,2.5h0a2.49,2.49,0,0,1-2.5,2.5h0A2.49,2.49,0,0,1,132.82,44.59Zm142-8a2.5,2.5,0,0,1,2.51-2.5h0a2.5,2.5,0,0,1,2.5,2.5h0a2.51,2.51,0,0,1-2.5,2.5h0A2.5,2.5,0,0,1,274.82,36.6Zm-10,0a2.49,2.49,0,0,1,2.5-2.5h0a2.49,2.49,0,0,1,2.5,2.5h0a2.5,2.5,0,0,1-2.5,2.5h0A2.5,2.5,0,0,1,264.82,36.6Zm-10,0a2.49,2.49,0,0,1,2.5-2.5h0a2.49,2.49,0,0,1,2.5,2.5h0a2.5,2.5,0,0,1-2.5,2.5h0A2.5,2.5,0,0,1,254.82,36.6Zm-10,0a2.49,2.49,0,0,1,2.49-2.5h0a2.49,2.49,0,0,1,2.5,2.5h0a2.49,2.49,0,0,1-2.5,2.5h0A2.49,2.49,0,0,1,244.83,36.6Zm-10,0a2.49,2.49,0,0,1,2.5-2.5h0a2.49,2.49,0,0,1,2.5,2.5h0a2.5,2.5,0,0,1-2.5,2.5h0A2.49,2.49,0,0,1,234.83,36.6Zm-10,0a2.49,2.49,0,0,1,2.5-2.5h0a2.49,2.49,0,0,1,2.5,2.5h0a2.5,2.5,0,0,1-2.5,2.5h0A2.49,2.49,0,0,1,224.83,36.6Zm-10,0a2.5,2.5,0,0,1,2.51-2.5h0a2.5,2.5,0,0,1,2.5,2.5h0a2.51,2.51,0,0,1-2.5,2.5h0A2.5,2.5,0,0,1,214.82,36.6Zm-10,0a2.49,2.49,0,0,1,2.5-2.5h0a2.49,2.49,0,0,1,2.5,2.5h0a2.5,2.5,0,0,1-2.5,2.5h0A2.5,2.5,0,0,1,204.82,36.6Zm-10,0a2.49,2.49,0,0,1,2.5-2.5h0a2.49,2.49,0,0,1,2.5,2.5h0a2.5,2.5,0,0,1-2.5,2.5h0A2.5,2.5,0,0,1,194.82,36.6Zm-10,0a2.49,2.49,0,0,1,2.5-2.5h0a2.49,2.49,0,0,1,2.5,2.5h0a2.49,2.49,0,0,1-2.5,2.5h0A2.5,2.5,0,0,1,184.82,36.6Zm-10,0a2.49,2.49,0,0,1,2.5-2.5h0a2.49,2.49,0,0,1,2.5,2.5h0a2.5,2.5,0,0,1-2.5,2.5h0A2.49,2.49,0,0,1,174.83,36.6Zm-10,0a2.49,2.49,0,0,1,2.5-2.5h0a2.49,2.49,0,0,1,2.5,2.5h0a2.5,2.5,0,0,1-2.5,2.5h0A2.49,2.49,0,0,1,164.83,36.6Zm-10,0a2.49,2.49,0,0,1,2.5-2.5h0a2.5,2.5,0,0,1,2.5,2.5h0a2.51,2.51,0,0,1-2.5,2.5h0A2.49,2.49,0,0,1,154.83,36.6Zm-10,0a2.49,2.49,0,0,1,2.5-2.5h0a2.49,2.49,0,0,1,2.5,2.5h0a2.5,2.5,0,0,1-2.5,2.5h0A2.5,2.5,0,0,1,144.82,36.6Zm-10,0a2.49,2.49,0,0,1,2.5-2.5h0a2.49,2.49,0,0,1,2.5,2.5h0a2.5,2.5,0,0,1-2.5,2.5h0A2.5,2.5,0,0,1,134.82,36.6Z"/></g></g></svg>