<svg xmlns="http://www.w3.org/2000/svg" viewBox="0 0 313.56 340.3"><defs><style>.cls-1{fill:#FF5722;}</style></defs><title>policies</title><g id="Layer_2" data-name="Layer 2"><g id="Layer_1-2" data-name="Layer 1"><path class="cls-1" d="M42.8,202.27a2.5,2.5,0,0,1-2.5-2.5V23.46a3.8,3.8,0,0,1,3.8-3.8H211.62a2.5,2.5,0,0,1,0,5H45.3v175.1A2.5,2.5,0,0,1,42.8,202.27Z"/><path class="cls-1" d="M250.2,312.87H44.1a3.8,3.8,0,0,1-3.8-3.8V260.2a2.5,2.5,0,0,1,5,0v47.67H249V167.8a2.5,2.5,0,0,1,5,0V309.07A3.8,3.8,0,0,1,250.2,312.87Z"/><path class="cls-1" d="M251.5,115.57a2.5,2.5,0,0,1-2.5-2.5V62a2.5,2.5,0,1,1,5,0v51A2.5,2.5,0,0,1,251.5,115.57Z"/><path class="cls-1" d="M251.5,64.54H211.62a2.5,2.5,0,0,1-2.5-2.5V22.16a2.5,2.5,0,0,1,4.27-1.77l39.88,39.88a2.5,2.5,0,0,1-1.77,4.27Zm-37.38-5h31.34L214.12,28.2Z"/><rect class="cls-1" x="272.64" y="277.07" width="28.62" height="4.28"/><rect class="cls-1" x="281.43" y="306.85" width="10.88" height="4.28"/><path class="cls-1" d="M286.82,329.06a2.1,2.1,0,0,0,2-1.5l14.45-47.16a2.17,2.17,0,0,0,.1-.64V130.45h-4.19v149l-12.33,40.26-12.1-40.25v-149h-4.19V279.76a2.17,2.17,0,0,0,.09.63l14.18,47.16a2.1,2.1,0,0,0,2,1.51Z"/><path class="cls-1" d="M273.22,163.67a5.63,5.63,0,0,0,3.09-1.48c1.06-.8,2.39-1.79,3.53-1.79h14.23c1.14,0,2.46,1,3.53,1.79,1.25.94,2.67,2,4.22,1.19s1.54-2.66,1.54-3.28V106.45A9.4,9.4,0,0,0,294.07,97H279.84a9.4,9.4,0,0,0-9.29,9.48V160.1c0,.61,0,2.48,1.54,3.28A2.44,2.44,0,0,0,273.22,163.67Zm20.85-62.42a5.16,5.16,0,0,1,5.1,5.21v51.62a9.07,9.07,0,0,0-5.1-2H279.84a9.08,9.08,0,0,0-5.1,1.95V106.45a5.16,5.16,0,0,1,5.1-5.21Z"/><rect class="cls-1" x="272.64" y="244.93" width="28.62" height="4.28"/><rect class="cls-1" x="272.64" y="269.34" width="28.62" height="4.28"/><path class="cls-1" d="M265.45,174.55a2.12,2.12,0,0,0,2.1-2.14V118.77a5.16,5.16,0,0,1,5.1-5.2,2.14,2.14,0,0,0,0-4.28,9.4,9.4,0,0,0-9.29,9.48v53.65A2.12,2.12,0,0,0,265.45,174.55Z"/><path class="cls-1" d="M293.43,154.57a2.12,2.12,0,0,0,2.1-2.14v-53a2.1,2.1,0,1,0-4.19,0v53A2.12,2.12,0,0,0,293.43,154.57Z"/><path class="cls-1" d="M293.43,242.46a2.12,2.12,0,0,0,2.1-2.14V221.71a2.1,2.1,0,1,0-4.19,0v18.61A2.12,2.12,0,0,0,293.43,242.46Z"/><path class="cls-1" d="M293.43,205.24a2.12,2.12,0,0,0,2.1-2.14V165.88a2.1,2.1,0,1,0-4.19,0V203.1A2.12,2.12,0,0,0,293.43,205.24Z"/><path class="cls-1" d="M313.56,2.5V147.83a2.5,2.5,0,0,1-5,0V2.5a2.5,2.5,0,0,1,5,0Z"/><path class="cls-1" d="M300.59,43.14V86.67a2.5,2.5,0,0,1-5,0V43.14a2.5,2.5,0,0,1,5,0Z"/><path class="cls-1" d="M287.62,60.55v17a2.5,2.5,0,0,1-5,0v-17a2.5,2.5,0,1,1,5,0Z"/><path class="cls-1" d="M30.95,92.63V238a2.5,2.5,0,0,1-5,0V92.63a2.5,2.5,0,0,1,5,0Z"/><path class="cls-1" d="M18,133.27v43.54a2.5,2.5,0,0,1-5,0V133.27a2.5,2.5,0,0,1,5,0Z"/><path class="cls-1" d="M5,150.69v17a2.5,2.5,0,0,1-5,0v-17a2.5,2.5,0,0,1,5,0Z"/><path class="cls-1" d="M128.23,51.78H55.39a2.5,2.5,0,0,1,0-5h72.84a2.5,2.5,0,0,1,0,5Z"/><path class="cls-1" d="M196.59,74.54H55.39a2.5,2.5,0,0,1,0-5h141.2a2.5,2.5,0,0,1,0,5Z"/><path class="cls-1" d="M196.59,97.11H55.39a2.5,2.5,0,0,1,0-5h141.2a2.5,2.5,0,0,1,0,5Z"/><path class="cls-1" d="M128.23,124H55.39a2.5,2.5,0,0,1,0-5h72.84a2.5,2.5,0,0,1,0,5Z"/><path class="cls-1" d="M196.59,146.73H55.39a2.5,2.5,0,0,1,0-5h141.2a2.5,2.5,0,0,1,0,5Z"/><path class="cls-1" d="M196.59,169.3H55.39a2.5,2.5,0,0,1,0-5h141.2a2.5,2.5,0,0,1,0,5Z"/><path class="cls-1" d="M196.59,193.48H55.39a2.5,2.5,0,0,1,0-5h141.2a2.5,2.5,0,0,1,0,5Z"/><path class="cls-1" d="M196.59,217.66H55.39a2.5,2.5,0,1,1,0-5h141.2a2.5,2.5,0,0,1,0,5Z"/><path class="cls-1" d="M196.59,245H55.39a2.5,2.5,0,0,1,0-5h141.2a2.5,2.5,0,0,1,0,5Z"/><path class="cls-1" d="M235.25,275.31H56.06c-1.75,0-3.17-1.12-3.17-2.5s1.42-2.5,3.17-2.5H235.25c1.75,0,3.17,1.12,3.17,2.5S237,275.31,235.25,275.31Z"/><rect class="cls-1" x="40.3" y="199.42" width="5" height="61.46"/><path class="cls-1" d="M280.3,337.8a2.5,2.5,0,0,1,2.5-2.5h0a2.5,2.5,0,0,1,2.5,2.5h0a2.5,2.5,0,0,1-2.5,2.5h0A2.5,2.5,0,0,1,280.3,337.8Zm-10,0a2.5,2.5,0,0,1,2.5-2.5h0a2.5,2.5,0,0,1,2.5,2.5h0a2.5,2.5,0,0,1-2.5,2.5h0A2.5,2.5,0,0,1,270.3,337.8Zm-10,0a2.5,2.5,0,0,1,2.5-2.5h0a2.5,2.5,0,0,1,2.5,2.5h0a2.5,2.5,0,0,1-2.5,2.5h0A2.5,2.5,0,0,1,260.3,337.8Zm-10,0a2.5,2.5,0,0,1,2.5-2.5h0a2.5,2.5,0,0,1,2.5,2.5h0a2.5,2.5,0,0,1-2.5,2.5h0A2.5,2.5,0,0,1,250.3,337.8Zm-10,0a2.5,2.5,0,0,1,2.5-2.5h0a2.5,2.5,0,0,1,2.5,2.5h0a2.5,2.5,0,0,1-2.5,2.5h0A2.5,2.5,0,0,1,240.3,337.8Zm-10,0a2.5,2.5,0,0,1,2.5-2.5h0a2.5,2.5,0,0,1,2.5,2.5h0a2.5,2.5,0,0,1-2.5,2.5h0A2.5,2.5,0,0,1,230.3,337.8Zm-10,0a2.5,2.5,0,0,1,2.5-2.5h0a2.5,2.5,0,0,1,2.5,2.5h0a2.5,2.5,0,0,1-2.5,2.5h0A2.5,2.5,0,0,1,220.3,337.8Zm-10,0a2.5,2.5,0,0,1,2.5-2.5h0a2.5,2.5,0,0,1,2.5,2.5h0a2.5,2.5,0,0,1-2.5,2.5h0A2.5,2.5,0,0,1,210.3,337.8Zm-10,0a2.5,2.5,0,0,1,2.5-2.5h0a2.5,2.5,0,0,1,2.5,2.5h0a2.5,2.5,0,0,1-2.5,2.5h0A2.5,2.5,0,0,1,200.3,337.8Zm-10,0a2.5,2.5,0,0,1,2.5-2.5h0a2.5,2.5,0,0,1,2.5,2.5h0a2.5,2.5,0,0,1-2.5,2.5h0A2.5,2.5,0,0,1,190.3,337.8Zm-10,0a2.5,2.5,0,0,1,2.5-2.5h0a2.5,2.5,0,0,1,2.5,2.5h0a2.5,2.5,0,0,1-2.5,2.5h0A2.5,2.5,0,0,1,180.3,337.8Zm-10,0a2.5,2.5,0,0,1,2.5-2.5h0a2.5,2.5,0,0,1,2.5,2.5h0a2.5,2.5,0,0,1-2.5,2.5h0A2.5,2.5,0,0,1,170.3,337.8Zm-10,0a2.5,2.5,0,0,1,2.5-2.5h0a2.5,2.5,0,0,1,2.5,2.5h0a2.5,2.5,0,0,1-2.5,2.5h0A2.5,2.5,0,0,1,160.3,337.8Zm-10,0a2.5,2.5,0,0,1,2.5-2.5h0a2.5,2.5,0,0,1,2.5,2.5h0a2.5,2.5,0,0,1-2.5,2.5h0A2.5,2.5,0,0,1,150.3,337.8Zm-10,0a2.5,2.5,0,0,1,2.5-2.5h0a2.5,2.5,0,0,1,2.5,2.5h0a2.5,2.5,0,0,1-2.5,2.5h0A2.5,2.5,0,0,1,140.3,337.8Zm-10,0a2.5,2.5,0,0,1,2.5-2.5h0a2.5,2.5,0,0,1,2.5,2.5h0a2.5,2.5,0,0,1-2.5,2.5h0A2.5,2.5,0,0,1,130.3,337.8Zm-10,0a2.5,2.5,0,0,1,2.5-2.5h0a2.5,2.5,0,0,1,2.5,2.5h0a2.5,2.5,0,0,1-2.5,2.5h0A2.5,2.5,0,0,1,120.3,337.8Zm-10,0a2.5,2.5,0,0,1,2.5-2.5h0a2.5,2.5,0,0,1,2.5,2.5h0a2.5,2.5,0,0,1-2.5,2.5h0A2.5,2.5,0,0,1,110.3,337.8Zm-10,0a2.5,2.5,0,0,1,2.5-2.5h0a2.5,2.5,0,0,1,2.5,2.5h0a2.5,2.5,0,0,1-2.5,2.5h0A2.5,2.5,0,0,1,100.3,337.8Zm-10,0a2.5,2.5,0,0,1,2.5-2.5h0a2.5,2.5,0,0,1,2.5,2.5h0a2.5,2.5,0,0,1-2.5,2.5h0A2.5,2.5,0,0,1,90.3,337.8Zm-10,0a2.5,2.5,0,0,1,2.5-2.5h0a2.5,2.5,0,0,1,2.5,2.5h0a2.5,2.5,0,0,1-2.5,2.5h0A2.5,2.5,0,0,1,80.3,337.8Zm-10,0a2.5,2.5,0,0,1,2.5-2.5h0a2.5,2.5,0,0,1,2.5,2.5h0a2.5,2.5,0,0,1-2.5,2.5h0A2.5,2.5,0,0,1,70.3,337.8Zm-10,0a2.5,2.5,0,0,1,2.5-2.5h0a2.5,2.5,0,0,1,2.5,2.5h0a2.5,2.5,0,0,1-2.5,2.5h0A2.5,2.5,0,0,1,60.3,337.8Zm-10,0a2.5,2.5,0,0,1,2.5-2.5h0a2.5,2.5,0,0,1,2.5,2.5h0a2.5,2.5,0,0,1-2.5,2.5h0A2.5,2.5,0,0,1,50.3,337.8Zm-10,0a2.5,2.5,0,0,1,2.5-2.5h0a2.5,2.5,0,0,1,2.5,2.5h0a2.5,2.5,0,0,1-2.5,2.5h0A2.5,2.5,0,0,1,40.3,337.8Z"/><path class="cls-1" d="M240.3,324.09a2.5,2.5,0,0,1,2.5-2.5h0a2.5,2.5,0,0,1,2.5,2.5h0a2.5,2.5,0,0,1-2.5,2.5h0A2.5,2.5,0,0,1,240.3,324.09Zm-10,0a2.5,2.5,0,0,1,2.5-2.5h0a2.5,2.5,0,0,1,2.5,2.5h0a2.5,2.5,0,0,1-2.5,2.5h0A2.5,2.5,0,0,1,230.3,324.09Zm-10,0a2.5,2.5,0,0,1,2.5-2.5h0a2.5,2.5,0,0,1,2.5,2.5h0a2.5,2.5,0,0,1-2.5,2.5h0A2.5,2.5,0,0,1,220.3,324.09Zm-10,0a2.5,2.5,0,0,1,2.5-2.5h0a2.5,2.5,0,0,1,2.5,2.5h0a2.5,2.5,0,0,1-2.5,2.5h0A2.5,2.5,0,0,1,210.3,324.09Zm-10,0a2.5,2.5,0,0,1,2.5-2.5h0a2.5,2.5,0,0,1,2.5,2.5h0a2.5,2.5,0,0,1-2.5,2.5h0A2.5,2.5,0,0,1,200.3,324.09Zm-10,0a2.5,2.5,0,0,1,2.5-2.5h0a2.5,2.5,0,0,1,2.5,2.5h0a2.5,2.5,0,0,1-2.5,2.5h0A2.5,2.5,0,0,1,190.3,324.09Zm-10,0a2.5,2.5,0,0,1,2.5-2.5h0a2.5,2.5,0,0,1,2.5,2.5h0a2.5,2.5,0,0,1-2.5,2.5h0A2.5,2.5,0,0,1,180.3,324.09Zm-10,0a2.5,2.5,0,0,1,2.5-2.5h0a2.5,2.5,0,0,1,2.5,2.5h0a2.5,2.5,0,0,1-2.5,2.5h0A2.5,2.5,0,0,1,170.3,324.09Zm-10,0a2.5,2.5,0,0,1,2.5-2.5h0a2.5,2.5,0,0,1,2.5,2.5h0a2.5,2.5,0,0,1-2.5,2.5h0A2.5,2.5,0,0,1,160.3,324.09Zm-10,0a2.5,2.5,0,0,1,2.5-2.5h0a2.5,2.5,0,0,1,2.5,2.5h0a2.5,2.5,0,0,1-2.5,2.5h0A2.5,2.5,0,0,1,150.3,324.09Zm-10,0a2.5,2.5,0,0,1,2.5-2.5h0a2.5,2.5,0,0,1,2.5,2.5h0a2.5,2.5,0,0,1-2.5,2.5h0A2.5,2.5,0,0,1,140.3,324.09Zm-10,0a2.5,2.5,0,0,1,2.5-2.5h0a2.5,2.5,0,0,1,2.5,2.5h0a2.5,2.5,0,0,1-2.5,2.5h0A2.5,2.5,0,0,1,130.3,324.09Zm-10,0a2.5,2.5,0,0,1,2.5-2.5h0a2.5,2.5,0,0,1,2.5,2.5h0a2.5,2.5,0,0,1-2.5,2.5h0A2.5,2.5,0,0,1,120.3,324.09Zm-10,0a2.5,2.5,0,0,1,2.5-2.5h0a2.5,2.5,0,0,1,2.5,2.5h0a2.5,2.5,0,0,1-2.5,2.5h0A2.5,2.5,0,0,1,110.3,324.09Zm-10,0a2.5,2.5,0,0,1,2.5-2.5h0a2.5,2.5,0,0,1,2.5,2.5h0a2.5,2.5,0,0,1-2.5,2.5h0A2.5,2.5,0,0,1,100.3,324.09Zm-10,0a2.5,2.5,0,0,1,2.5-2.5h0a2.5,2.5,0,0,1,2.5,2.5h0a2.5,2.5,0,0,1-2.5,2.5h0A2.5,2.5,0,0,1,90.3,324.09Zm-10,0a2.5,2.5,0,0,1,2.5-2.5h0a2.5,2.5,0,0,1,2.5,2.5h0a2.5,2.5,0,0,1-2.5,2.5h0A2.5,2.5,0,0,1,80.3,324.09Zm-10,0a2.5,2.5,0,0,1,2.5-2.5h0a2.5,2.5,0,0,1,2.5,2.5h0a2.5,2.5,0,0,1-2.5,2.5h0A2.5,2.5,0,0,1,70.3,324.09Zm-10,0a2.5,2.5,0,0,1,2.5-2.5h0a2.5,2.5,0,0,1,2.5,2.5h0a2.5,2.5,0,0,1-2.5,2.5h0A2.5,2.5,0,0,1,60.3,324.09Zm-10,0a2.5,2.5,0,0,1,2.5-2.5h0a2.5,2.5,0,0,1,2.5,2.5h0a2.5,2.5,0,0,1-2.5,2.5h0A2.5,2.5,0,0,1,50.3,324.09Zm-10,0a2.5,2.5,0,0,1,2.5-2.5h0a2.5,2.5,0,0,1,2.5,2.5h0a2.5,2.5,0,0,1-2.5,2.5h0A2.5,2.5,0,0,1,40.3,324.09Z"/><path class="cls-1" d="M25.95,245.53v0Z"/></g></g></svg>