<svg xmlns="http://www.w3.org/2000/svg" viewBox="0 0 430.61 358.67"><defs><style>.cls-1{fill:#FF9800;}</style></defs><title>review</title><g id="Layer_2" data-name="Layer 2"><g id="Layer_1-2" data-name="Layer 1"><path class="cls-1" d="M123.94,342.26H98.87a11.24,11.24,0,0,1-11.2-10.53L84.38,263l-3.29,68.69a11.25,11.25,0,0,1-11.2,10.57H44.82a11.22,11.22,0,0,1-11.2-11.92l7.81-153.65v-20.1l-5.88,21.95A11.47,11.47,0,0,1,24.49,187h-13A11.45,11.45,0,0,1,.4,172.61L23.86,85.06A21.87,21.87,0,0,1,45,68.87H61.1a2.5,2.5,0,0,1,1.37.41,40.58,40.58,0,0,0,44.52,0,2.5,2.5,0,0,1,1.37-.41H210.44a10.91,10.91,0,0,1,10.89,10.89V94.54a10.9,10.9,0,0,1-10.89,10.89H133.57a6.25,6.25,0,0,0-6.24,6.24v65l7.81,153.68a11.22,11.22,0,0,1-11.2,11.89Zm-39.56-134a2.5,2.5,0,0,1,2.5,2.38l5.79,120.85a6.22,6.22,0,0,0,6.21,5.81h25.07a6.22,6.22,0,0,0,6.21-6.61l-7.82-153.77s0-.08,0-.13V111.68a11.25,11.25,0,0,1,11.24-11.24h76.87a5.9,5.9,0,0,0,5.89-5.89V79.76a5.9,5.9,0,0,0-5.89-5.89H109.09a45.57,45.57,0,0,1-48.73,0H45A16.86,16.86,0,0,0,28.69,86.35L5.23,173.91A6.45,6.45,0,0,0,11.45,182h13a6.46,6.46,0,0,0,6.23-4.78L41.51,137a2.5,2.5,0,0,1,4.91.65v39.15s0,.08,0,.13L38.61,330.63a6.22,6.22,0,0,0,6.21,6.63H69.89a6.23,6.23,0,0,0,6.21-5.84L81.88,210.6A2.5,2.5,0,0,1,84.38,208.22Z"/><path class="cls-1" d="M84.72,70.45A35.23,35.23,0,1,1,120,35.23,35.27,35.27,0,0,1,84.72,70.45ZM84.72,5A30.23,30.23,0,1,0,115,35.23,30.26,30.26,0,0,0,84.72,5Z"/><path class="cls-1" d="M207.16,297.74h0L169,297.55A12.58,12.58,0,0,1,156.48,285V135.67A12.58,12.58,0,0,1,169,123.11H285.38a2.5,2.5,0,0,1,0,5H169a7.58,7.58,0,0,0-7.57,7.57V285a7.58,7.58,0,0,0,7.57,7.57l38.12.19a2.5,2.5,0,0,1,0,5Z"/><path class="cls-1" d="M347,297.74a2.5,2.5,0,0,1,0-5l38.11-.19a7.58,7.58,0,0,0,7.58-7.57V168.85a2.5,2.5,0,1,1,5,0V285a12.58,12.58,0,0,1-12.57,12.57l-38.1.19Z"/><path class="cls-1" d="M395.18,152.78a2.5,2.5,0,0,1-2.5-2.5V135.67a7.58,7.58,0,0,0-7.57-7.57H329.71a2.5,2.5,0,0,1,0-5h55.41a12.58,12.58,0,0,1,12.57,12.57v14.61A2.5,2.5,0,0,1,395.18,152.78Z"/><path class="cls-1" d="M356.53,260.33H197.63a2.5,2.5,0,0,1,0-5h158.9a2.5,2.5,0,0,1,0,5Z"/><path class="cls-1" d="M268.79,260.33a2.5,2.5,0,0,1-2.5-2.5V208.21c0-3.06-2.13-5.65-4.65-5.65h-30c-2.52,0-4.65,2.59-4.65,5.65v49.61a2.5,2.5,0,1,1-5,0V208.21c0-5.87,4.33-10.65,9.65-10.65h30c5.32,0,9.65,4.78,9.65,10.65v49.61A2.5,2.5,0,0,1,268.79,260.33Z"/><path class="cls-1" d="M299.38,260.33a2.5,2.5,0,0,1-2.5-2.5V165.34a5,5,0,0,0-4.65-5.19h-30a5,5,0,0,0-4.65,5.19v34.72a2.5,2.5,0,1,1-5,0V165.34a9.94,9.94,0,0,1,9.65-10.19h30a9.94,9.94,0,0,1,9.65,10.19v92.49A2.5,2.5,0,0,1,299.38,260.33Z"/><path class="cls-1" d="M329.71,260.33a2.5,2.5,0,0,1-2.5-2.5V119a4.85,4.85,0,0,0-4.65-5h-30a4.85,4.85,0,0,0-4.65,5v38.65a2.5,2.5,0,1,1-5,0V119a9.85,9.85,0,0,1,9.65-10h30a9.85,9.85,0,0,1,9.65,10V257.83A2.5,2.5,0,0,1,329.71,260.33Z"/><path class="cls-1" d="M385.55,260.33h-19.4a2.5,2.5,0,0,1,0-5h19.4a2.5,2.5,0,0,1,0,5Z"/><path class="cls-1" d="M187,260.33H169.11a2.5,2.5,0,0,1,0-5H187a2.5,2.5,0,0,1,0,5Z"/><path class="cls-1" d="M341.09,304.16h-128a8.42,8.42,0,0,1-8.41-8.41v-1a8.42,8.42,0,0,1,8.41-8.41h128a8.42,8.42,0,0,1,8.41,8.41v1A8.42,8.42,0,0,1,341.09,304.16Zm-128-12.84a3.42,3.42,0,0,0-3.41,3.41v1a3.42,3.42,0,0,0,3.41,3.41h128a3.42,3.42,0,0,0,3.41-3.41v-1a3.42,3.42,0,0,0-3.41-3.41Z"/><path class="cls-1" d="M252.59,342.48a2.5,2.5,0,0,1-2.5-2.5V301.66a2.5,2.5,0,1,1,5,0V340A2.5,2.5,0,0,1,252.59,342.48Z"/><path class="cls-1" d="M301.58,342.48a2.5,2.5,0,0,1-2.5-2.5V301.66a2.5,2.5,0,0,1,5,0V340A2.5,2.5,0,0,1,301.58,342.48Z"/><path class="cls-1" d="M356.53,343H197.63a2.5,2.5,0,1,1,0-5h158.9a2.5,2.5,0,0,1,0,5Z"/><path class="cls-1" d="M206.48,116.34a2.49,2.49,0,0,1,2.5-2.49h0a2.49,2.49,0,0,1,2.5,2.49h0a2.49,2.49,0,0,1-2.5,2.5h0A2.49,2.49,0,0,1,206.48,116.34Zm-10,0a2.49,2.49,0,0,1,2.5-2.49h0a2.49,2.49,0,0,1,2.5,2.49h0a2.49,2.49,0,0,1-2.5,2.5h0A2.49,2.49,0,0,1,196.48,116.34Zm-10,0a2.49,2.49,0,0,1,2.5-2.49h0a2.49,2.49,0,0,1,2.5,2.49h0a2.49,2.49,0,0,1-2.5,2.5h0A2.49,2.49,0,0,1,186.48,116.34Zm-10,0a2.49,2.49,0,0,1,2.5-2.49h0a2.49,2.49,0,0,1,2.5,2.49h0a2.49,2.49,0,0,1-2.5,2.5h0A2.49,2.49,0,0,1,176.48,116.34Zm-10,0a2.49,2.49,0,0,1,2.5-2.49h0a2.49,2.49,0,0,1,2.5,2.49h0a2.49,2.49,0,0,1-2.5,2.5h0A2.49,2.49,0,0,1,166.48,116.34Zm-10,0a2.49,2.49,0,0,1,2.5-2.49h0a2.49,2.49,0,0,1,2.5,2.49h0a2.49,2.49,0,0,1-2.5,2.5h0A2.49,2.49,0,0,1,156.48,116.34Z"/><path class="cls-1" d="M144.33,135.43a2.5,2.5,0,0,1,2.5-2.5h0a2.5,2.5,0,0,1,2.5,2.5h0a2.5,2.5,0,0,1-2.5,2.5h0A2.5,2.5,0,0,1,144.33,135.43Zm-10,0a2.5,2.5,0,0,1,2.5-2.5h0a2.5,2.5,0,0,1,2.5,2.5h0a2.5,2.5,0,0,1-2.5,2.5h0A2.5,2.5,0,0,1,134.33,135.43Z"/><path class="cls-1" d="M143.2,150.28a2.5,2.5,0,0,1,2.5-2.5h0a2.5,2.5,0,0,1,2.5,2.5h0a2.5,2.5,0,0,1-2.5,2.5h0A2.5,2.5,0,0,1,143.2,150.28Z"/><path class="cls-1" d="M317.38,98.38a2.5,2.5,0,0,1,2.5-2.5h0a2.5,2.5,0,0,1,2.5,2.5h0a2.5,2.5,0,0,1-2.5,2.5h0A2.5,2.5,0,0,1,317.38,98.38Zm-10,0a2.5,2.5,0,0,1,2.5-2.5h0a2.5,2.5,0,0,1,2.5,2.5h0a2.5,2.5,0,0,1-2.5,2.5h0A2.5,2.5,0,0,1,307.38,98.38Zm-10,0a2.5,2.5,0,0,1,2.5-2.5h0a2.5,2.5,0,0,1,2.5,2.5h0a2.5,2.5,0,0,1-2.5,2.5h0A2.5,2.5,0,0,1,297.38,98.38Zm-10,0a2.5,2.5,0,0,1,2.5-2.5h0a2.5,2.5,0,0,1,2.5,2.5h0a2.5,2.5,0,0,1-2.5,2.5h0A2.5,2.5,0,0,1,287.38,98.38Zm-10,0a2.5,2.5,0,0,1,2.5-2.5h0a2.5,2.5,0,0,1,2.5,2.5h0a2.5,2.5,0,0,1-2.5,2.5h0A2.5,2.5,0,0,1,277.38,98.38Z"/><path class="cls-1" d="M358.58,107.92a2.5,2.5,0,0,1,2.5-2.5h0a2.5,2.5,0,0,1,2.5,2.5h0a2.5,2.5,0,0,1-2.5,2.5h0A2.5,2.5,0,0,1,358.58,107.92Zm-10,0a2.5,2.5,0,0,1,2.5-2.5h0a2.5,2.5,0,0,1,2.5,2.5h0a2.5,2.5,0,0,1-2.5,2.5h0A2.5,2.5,0,0,1,348.58,107.92Zm-10,0a2.5,2.5,0,0,1,2.5-2.5h0a2.5,2.5,0,0,1,2.5,2.5h0a2.5,2.5,0,0,1-2.5,2.5h0A2.5,2.5,0,0,1,338.58,107.92Z"/><path class="cls-1" d="M408.36,122.52a2.5,2.5,0,0,1,2.5-2.5h0a2.5,2.5,0,0,1,2.5,2.5h0a2.5,2.5,0,0,1-2.5,2.5h0A2.5,2.5,0,0,1,408.36,122.52Zm-10,0a2.5,2.5,0,0,1,2.5-2.5h0a2.5,2.5,0,0,1,2.5,2.5h0a2.5,2.5,0,0,1-2.5,2.5h0A2.5,2.5,0,0,1,398.36,122.52Z"/><path class="cls-1" d="M422,157.64a2.5,2.5,0,0,1,2.5-2.5h0a2.5,2.5,0,0,1,2.5,2.5h0a2.5,2.5,0,0,1-2.5,2.5h0A2.5,2.5,0,0,1,422,157.64Zm-10,0a2.5,2.5,0,0,1,2.5-2.5h0a2.5,2.5,0,0,1,2.5,2.5h0a2.5,2.5,0,0,1-2.5,2.5h0A2.5,2.5,0,0,1,412,157.64Zm-10,0a2.5,2.5,0,0,1,2.5-2.5h0a2.5,2.5,0,0,1,2.5,2.5h0a2.5,2.5,0,0,1-2.5,2.5h0A2.5,2.5,0,0,1,402,157.64Z"/><path class="cls-1" d="M402,187.09a2.5,2.5,0,0,1,2.5-2.5h0a2.5,2.5,0,0,1,2.5,2.5h0a2.5,2.5,0,0,1-2.5,2.5h0A2.5,2.5,0,0,1,402,187.09Z"/><path class="cls-1" d="M428.11,358.67h0L2.48,355.2a2.5,2.5,0,0,1,0-5h0l425.6,3.47a2.5,2.5,0,0,1,0,5Z"/></g></g></svg>