<svg xmlns="http://www.w3.org/2000/svg" viewBox="0 0 363.01 363.01"><defs><style>.cls-1{fill:#FF5722;}</style></defs><title>select-tech</title><g id="Layer_2" data-name="Layer 2"><g id="Layer_1-2" data-name="Layer 1"><path class="cls-1" d="M164.86,275.46a2.5,2.5,0,0,1-.41-5l4.82-.84,2.16-.47,1.39-.3c1.24-.27,2.4-.52,3.27-.78l2.24-.6a2.48,2.48,0,0,0,1.12-.67,4.11,4.11,0,0,0,.81-1.47,8.07,8.07,0,0,0-.17-4.93,2.55,2.55,0,0,1-.09-.37l-1.12-6.72-1.21-6.53c-2.2-8.08,4.52-11.16,8.54-13l3.22-1.59c.72-.34,1.4-.72,1.94-1l1.8-1c2.35-1.24,4.57-2.42,7-2.59,3-.33,5.71.88,7.89,3.61l4.63,4.85,4.78,4.83a2.5,2.5,0,0,1-3.55,3.52l-4.81-4.86-4.74-5-.16-.18c-1.41-1.79-2.55-1.93-3.59-1.82-1.49.11-3.18,1-5.13,2l-1.67.92c-.59.33-1.39.79-2.24,1.18l-3.23,1.6c-5.63,2.59-6.77,4-5.85,7.26,0,.07,0,.15.05.22l1.24,6.68,1.1,6.58a12.91,12.91,0,0,1,.1,7.89,9,9,0,0,1-2,3.35,7.55,7.55,0,0,1-3.42,2l-2.18.59c-1,.29-2.25.56-3.57.85l-4,.87-.11,0-4.51.76A2.44,2.44,0,0,1,164.86,275.46Z"/><path class="cls-1" d="M150.88,276.91a7.9,7.9,0,0,1-5.58-2.34,12.13,12.13,0,0,1-3.35-8.64l-1-6.57-.91-6.8q0-.12,0-.24c-.09-2.29-1-3.09-1.82-3.57l-.1-.06c-1.2-.75-3.11-1-5.32-1.33l-1.68-.21c-.82-.09-1.74-.2-2.67-.38l-3.57-.6c-6.08-1.23-7.83-.75-9,2.43l-.09.21-2.91,6.14-3,6a12.92,12.92,0,0,1-4.54,6.46,7.85,7.85,0,0,1-7.52,1.2c-.1,0-3.49-1.27-6.84-2.79l-2.4-1.06-.09,0-4.11-2a2.5,2.5,0,1,1,2.22-4.48l4.05,2,2.38,1c3.19,1.46,6.5,2.65,6.53,2.67a3,3,0,0,0,2.84-.56,8,8,0,0,0,2.78-4.11,2.6,2.6,0,0,1,.14-.35l3-6.1,2.85-6c3-7.85,10.22-6.39,14.56-5.51l3.54.59c.82.16,1.61.25,2.36.33l1.81.23c2.64.37,5.13.73,7.22,2,2.7,1.54,4.15,4.09,4.31,7.59l.89,6.65,1,6.72a2.5,2.5,0,0,1,0,.4,7.3,7.3,0,0,0,1.85,5.23,2.75,2.75,0,0,0,2.09.92l2.08-.15,1.46-.1c1-.07,2.12-.14,3.21-.27l4.78-.58c1.16-.15,2-.3,2-.31a2.5,2.5,0,0,1,.94,4.91s-.95.18-2.3.36l-4.81.58c-1.22.15-2.42.23-3.48.3l-1.4.1-2.22.16Z"/><path class="cls-1" d="M85.49,262.9a2.49,2.49,0,0,1-1.11-.26l-.85-.42c-.35-.17-.77-.38-1.23-.65l-4.18-2.33c-1.08-.59-2.11-1.24-3-1.82l-1.18-.73L72,255.51a7.84,7.84,0,0,1-3.34-5.29,12.13,12.13,0,0,1,2.37-9c.36-.71,1.7-3.33,3.08-5.92l3.26-6,.13-.21c1.29-1.92,1.05-3.08.65-4A9,9,0,0,0,76.76,223c-.46-.54-1-1.07-1.6-1.62-.33-.32-.67-.64-1-1l-2.62-2.49-.09-.09-3.27-3.41c-.65-.66-1.25-1.28-1.84-1.8a8.05,8.05,0,0,0-2.11-1.38c-.94-.44-2.09-.67-4,.63l-.21.13-6,3.27-5.93,3.11a12.13,12.13,0,0,1-8.93,2.41,7.87,7.87,0,0,1-5.3-3.24l-.06-.09-1.2-1.92-.78-1.24c-.59-.93-1.25-2-1.88-3.09l-2.43-4.36c-.28-.48-.5-.94-.69-1.31l-.4-.81a2.5,2.5,0,1,1,4.48-2.23l.41.83c.14.29.32.65.55,1l2.44,4.37c.56,1,1.19,2,1.75,2.87l.8,1.28L38,214.69a2.87,2.87,0,0,0,2,1.11,7.29,7.29,0,0,0,5.3-1.6,2.61,2.61,0,0,1,.34-.21l6.06-3.18,5.85-3.2c3.68-2.45,6.77-1.89,8.73-1a12.9,12.9,0,0,1,3.39,2.21c.73.65,1.4,1.33,2.11,2.06l.74.75L75,214.29l2.62,2.49,1,.95c.64.62,1.31,1.25,1.9,1.94a13.87,13.87,0,0,1,2.2,3.35c.91,2,1.47,5.06-1,8.75l-3.2,5.9c-1.57,3-3.1,6-3.11,6a2.52,2.52,0,0,1-.22.36,7.3,7.3,0,0,0-1.58,5.34,2.79,2.79,0,0,0,1.14,1.94l1.78,1.12,1.23.77c.84.54,1.8,1.14,2.76,1.67l4.22,2.35c.39.22.71.38,1,.51l.87.43a2.5,2.5,0,0,1-1.11,4.74Z"/><path class="cls-1" d="M28.67,206.08a2.5,2.5,0,0,1-2.24-1.39l-1-2c-.55-1.09-1.38-2.77-2.1-4.51l-.67-1.54c-.47-1.07-.92-2.09-1.25-3l-.77-2A7.55,7.55,0,0,1,21,185.6a12.32,12.32,0,0,1,7.31-6l5.92-3,6.17-3,.22-.09c2.16-.79,2.68-1.9,2.89-2.88a16,16,0,0,0-.48-6h0s-.11-.51-.23-1.28l-.41-2.45c-.2-1.12-.33-2-.4-2.68L41.82,157c-.33-2.34-.62-4.37-1.41-5.65-.56-1-1.36-1.8-3.63-1.88l-.24,0-6.76-.88-6.62-1a12.14,12.14,0,0,1-8.65-3.3,7.88,7.88,0,0,1-2.37-5.74c0-.12.22-3.77.54-7.36l.6-5c.19-1.43.37-2.37.38-2.41a2.5,2.5,0,0,1,4.91,1s-.16.84-.32,2.07l-.59,4.91c-.31,3.44-.52,7-.52,7a2.84,2.84,0,0,0,.94,2,7.24,7.24,0,0,0,5.24,1.82,3,3,0,0,1,.4,0l6.76,1,6.6.86a8.67,8.67,0,0,1,7.62,4.3c1.31,2.12,1.68,4.75,2.07,7.52l.18,1.47c.06.59.17,1.36.35,2.34l.42,2.52c.09.59.17,1,.18,1a20.12,20.12,0,0,1,.5,8.1,8.77,8.77,0,0,1-6,6.52l-6,2.89-6.06,3a2.51,2.51,0,0,1-.37.15,7.43,7.43,0,0,0-4.49,3.47,2.57,2.57,0,0,0-.17,2.1l.79,2.08c.29.76.71,1.72,1.15,2.73l.7,1.6c.67,1.62,1.45,3.18,2,4.22l1,2a2.5,2.5,0,0,1-2.24,3.61Z"/><path class="cls-1" d="M16.12,126.71a2.5,2.5,0,0,1-2.47-2.91l.74-4.37,0-.11.54-2.51c.69-3.46,1.64-6.82,1.68-7a7.5,7.5,0,0,1,3.79-4.68,12.31,12.31,0,0,1,9.47-.6l6.54,1.07,6.73,1.22.23.05c2.25.64,3.33,0,4-.62a15.78,15.78,0,0,0,3.13-5.15l0-.09s.2-.43.52-1.07l1.12-2.25c.42-.9.88-1.76,1.26-2.4l.53-.94c3-5.45,3.06-7.18.44-9.25L54.28,85l-4.94-4.69-4.78-4.69a12.88,12.88,0,0,1-4.73-6.36A8.08,8.08,0,0,1,41,61.81h0s.58-.8,1.53-1.87l3.21-3.74c2.49-2.71,5-5.33,5.05-5.35a2.5,2.5,0,1,1,3.59,3.48s-2.52,2.6-4.9,5.2l-3.18,3.7c-.81.92-1.29,1.58-1.3,1.59a3.26,3.26,0,0,0-.38,3,8,8,0,0,0,3,3.88,2.5,2.5,0,0,1,.29.25l4.87,4.79,4.83,4.58c6.4,5.14,3,11.38.74,15.51l-.57,1c-.33.56-.71,1.3-1.09,2.09l-1.14,2.3-.47,1a20,20,0,0,1-4.32,6.8,8.78,8.78,0,0,1-8.66,1.79l-6.57-1.2-6.68-1.09a2.44,2.44,0,0,1-.39-.1,7.44,7.44,0,0,0-5.68.18,2.54,2.54,0,0,0-1.36,1.58c0,.1-1,3.39-1.62,6.68l-.7,3.45-.57,3.35A2.5,2.5,0,0,1,16.12,126.71Z"/><path class="cls-1" d="M87.92,61.53A8.73,8.73,0,0,1,81,57.86L76.36,53l-4.78-4.83a2.57,2.57,0,0,1-.26-.31,7.31,7.31,0,0,0-4.57-3.15,2.85,2.85,0,0,0-2.24.5s-.66.51-1.57,1.3l-3.62,3.11-5,4.76a2.5,2.5,0,0,1-3.44-3.63L55.94,46l.09-.08,3.64-3.13c1-.89,1.76-1.46,1.79-1.49a7.85,7.85,0,0,1,6-1.48,12.13,12.13,0,0,1,7.79,5l4.67,4.72,4.74,5,.16.18c1.4,1.79,2.55,1.93,3.59,1.82,1.49-.11,3.18-1,5.13-2l1.72-.94c.61-.34,1.37-.77,2.2-1.16l3.23-1.6c5.63-2.59,6.77-4,5.85-7.26,0-.07,0-.15-.05-.22l-1.24-6.68L104.16,30a12.91,12.91,0,0,1-.1-7.89,9,9,0,0,1,2-3.35,7.55,7.55,0,0,1,3.42-2l2.18-.59c1-.29,2.24-.56,3.56-.85l1.38-.3,2.61-.57.11,0,4.51-.77a2.5,2.5,0,1,1,.83,4.93l-4.45.75-2.54.55-1.4.31c-1.23.27-2.39.52-3.26.78l-2.24.6a2.45,2.45,0,0,0-1.12.67,4.08,4.08,0,0,0-.81,1.47,8.07,8.07,0,0,0,.17,4.93,2.57,2.57,0,0,1,.09.37l1.12,6.72,1.21,6.53c2.2,8.08-4.52,11.16-8.54,13l-3.22,1.59c-.71.33-1.37.7-1.91,1l-1.84,1c-2.35,1.24-4.57,2.42-7,2.59A8.79,8.79,0,0,1,87.92,61.53Z"/><path class="cls-1" d="M168.83,48.55a28.05,28.05,0,0,1-5.53-.71l-3.54-.59c-.83-.16-1.62-.25-2.36-.33l-1.81-.23c-2.64-.37-5.13-.73-7.22-2-2.7-1.54-4.14-4.09-4.31-7.59l-.89-6.65-1-6.72a2.48,2.48,0,0,1,0-.4,7.31,7.31,0,0,0-1.85-5.23,2.8,2.8,0,0,0-2.08-.92l-2.08.15-1.44.1c-1,.07-2.14.14-3.23.27l-4.78.57c-1.16.16-2,.31-2,.31a2.5,2.5,0,0,1-.94-4.91s.92-.18,2.3-.36l4.81-.58c1.23-.15,2.43-.23,3.5-.3l1.38-.1,2.22-.16a7.93,7.93,0,0,1,5.83,2.34,12.13,12.13,0,0,1,3.35,8.64l1,6.57.91,6.81c0,.08,0,.16,0,.24.09,2.3,1,3.09,1.82,3.57l.1.06c1.21.75,3.11,1,5.32,1.33l1.68.21c.78.09,1.73.2,2.68.38l3.56.6c6.08,1.23,7.83.75,9-2.43l.09-.21,2.92-6.14,3-6a12.93,12.93,0,0,1,4.55-6.46,7.85,7.85,0,0,1,7.52-1.2c.1,0,3.49,1.27,6.84,2.79l2.4,1.06.1,0,4.11,2a2.5,2.5,0,0,1-2.22,4.48l-5.06-2.44-1.37-.6c-3.19-1.46-6.5-2.65-6.53-2.66a3,3,0,0,0-2.84.56,8,8,0,0,0-2.78,4.12,2.4,2.4,0,0,1-.14.35l-3,6.1-2.85,6C176,47.33,172.34,48.55,168.83,48.55Z"/><path class="cls-1" d="M260.4,88a2.5,2.5,0,0,1-2.24-1.39l-.42-.84c-.14-.29-.32-.64-.54-1l-2.44-4.37c-.56-1-1.2-2-1.76-2.89l-.79-1.26-1.15-1.83a2.87,2.87,0,0,0-2-1.11,7.31,7.31,0,0,0-5.3,1.6,2.61,2.61,0,0,1-.34.21l-6.06,3.18-5.85,3.2c-3.68,2.45-6.78,1.89-8.73,1a12.92,12.92,0,0,1-3.39-2.2c-.73-.65-1.39-1.33-2.1-2l-.75-.76L214,74.78l-2.62-2.49-1-1c-.64-.61-1.31-1.25-1.9-1.94a13.81,13.81,0,0,1-2.2-3.35c-.91-2-1.46-5.06,1-8.74l3.2-5.9c1.57-3,3.1-6,3.11-6a2.45,2.45,0,0,1,.23-.36,7.3,7.3,0,0,0,1.58-5.34,2.79,2.79,0,0,0-1.14-1.95l-1.78-1.12-1.24-.77c-.84-.53-1.8-1.14-2.75-1.66l-4.22-2.35c-.39-.23-.72-.39-1-.52l-.86-.43a2.5,2.5,0,1,1,2.23-4.48l.83.41c.35.17.78.38,1.25.66l4.17,2.33c1.08.59,2.1,1.24,3,1.81l1.19.74L217,33.56a7.84,7.84,0,0,1,3.34,5.3,12.13,12.13,0,0,1-2.37,9c-.36.71-1.7,3.33-3.08,5.92l-3.26,6-.12.2c-1.29,1.92-1.05,3.08-.65,4a8.93,8.93,0,0,0,1.43,2.16c.46.54,1,1.06,1.59,1.62.33.32.67.65,1,1l2.62,2.48.09.09,3.28,3.41c.64.66,1.25,1.28,1.83,1.8a8,8,0,0,0,2.11,1.38c.94.44,2.09.67,4-.62l.2-.12,6-3.27L241,70.74a12.14,12.14,0,0,1,8.93-2.41,7.87,7.87,0,0,1,5.3,3.24l.06.09,1.2,1.91.77,1.23c.59.93,1.26,2,1.89,3.1l2.43,4.36c.27.47.5.93.68,1.29l.41.83A2.5,2.5,0,0,1,260.4,88Z"/><path class="cls-1" d="M273,167.37a2.5,2.5,0,0,1-2.46-3s.16-.84.32-2.07l.59-4.91c.31-3.44.52-7,.52-7a2.84,2.84,0,0,0-.94-2,7.22,7.22,0,0,0-5.24-1.82,2.62,2.62,0,0,1-.4,0l-6.76-1-6.6-.86a8.67,8.67,0,0,1-7.62-4.3c-1.3-2.12-1.67-4.74-2.07-7.52l-.18-1.48c-.06-.58-.17-1.35-.35-2.35l-.42-2.52c-.09-.59-.17-1-.18-1a20.39,20.39,0,0,1-.5-8.1,8.77,8.77,0,0,1,6-6.52l6-2.89,6.06-3a2.43,2.43,0,0,1,.37-.15,7.43,7.43,0,0,0,4.49-3.47,2.57,2.57,0,0,0,.17-2.1L263,97.14c-.29-.76-.7-1.7-1.14-2.71-.23-.53-.47-1.08-.71-1.63-.67-1.6-1.44-3.17-2-4.22l-1-2a2.5,2.5,0,0,1,4.48-2.21l1,2c.55,1.1,1.38,2.79,2.1,4.51l.68,1.56c.47,1.06.91,2.07,1.24,2.95l.77,2a7.55,7.55,0,0,1-.33,6.06,12.31,12.31,0,0,1-7.3,6l-5.92,3-6.17,3-.22.09c-2.16.79-2.67,1.9-2.89,2.88a16,16,0,0,0,.49,6h0s.11.51.23,1.28l.41,2.45c.2,1.12.33,2,.4,2.68l.16,1.3c.33,2.34.62,4.37,1.4,5.65.56,1,1.36,1.8,3.63,1.88l.24,0,6.76.88,6.62,1a12.15,12.15,0,0,1,8.65,3.3,7.88,7.88,0,0,1,2.38,5.74c0,.12-.22,3.77-.55,7.37l-.6,5c-.19,1.43-.37,2.37-.37,2.41A2.5,2.5,0,0,1,273,167.37Z"/><path class="cls-1" d="M242.66,218.09a2.49,2.49,0,0,1-1.78-.75s-2.56-2.6-5-5c-2.15-2-4-4.08-4.55-4.65-6.3-5.13-2.91-11.34-.67-15.45l.57-1c.33-.56.71-1.3,1.09-2.08l1.13-2.3c.3-.59.49-1,.49-1a19.86,19.86,0,0,1,4.3-6.76,8.77,8.77,0,0,1,8.66-1.79l6.57,1.2,6.68,1.09a2.45,2.45,0,0,1,.39.1,7.44,7.44,0,0,0,5.68-.18,2.54,2.54,0,0,0,1.36-1.58c0-.1,1-3.39,1.62-6.68l.54-2.49.73-4.31a2.5,2.5,0,1,1,4.93.83l-.74,4.37,0,.1-.54,2.51c-.69,3.46-1.64,6.82-1.68,7a7.5,7.5,0,0,1-3.79,4.68,12.33,12.33,0,0,1-9.47.6l-6.54-1.07-6.73-1.22-.23-.05c-2.25-.64-3.33,0-4,.62a15.82,15.82,0,0,0-3.14,5.15c0,.09-.25.52-.56,1.16l-1.11,2.25c-.42.89-.88,1.76-1.25,2.4l-.53.94c-3,5.45-3.06,7.18-.44,9.25a2.57,2.57,0,0,1,.31.29s2.08,2.31,4.45,4.55c2.48,2.44,5.07,5.07,5.07,5.07a2.5,2.5,0,0,1-1.78,4.25Z"/><path class="cls-1" d="M144.53,225.27a80.71,80.71,0,1,1,57.12-23.62h0A80.53,80.53,0,0,1,144.53,225.27Zm0-156.47A75.74,75.74,0,1,0,198.11,91,75.54,75.54,0,0,0,144.53,68.8Zm55.35,131.09h0Z"/><path class="cls-1" d="M79.69,159.65a2.5,2.5,0,0,1-2.45-2A68.73,68.73,0,0,1,81,118.74a68.22,68.22,0,0,1,6.27-11.93,69.06,69.06,0,0,1,8.78-10.75A2.5,2.5,0,0,1,99.6,99.6a64,64,0,0,0-8.14,10,63.25,63.25,0,0,0-9.3,22.83,63.93,63.93,0,0,0,0,24.28,2.5,2.5,0,0,1-2.46,3Z"/><path class="cls-1" d="M97.83,193.74a2.49,2.49,0,0,1-1.77-.73,69.05,69.05,0,0,1-8.78-10.75,2.5,2.5,0,1,1,4.17-2.75,64,64,0,0,0,8.14,10,2.5,2.5,0,0,1-1.77,4.27Z"/><path class="cls-1" d="M327.87,350.3a19.86,19.86,0,0,1-14-5.93l-100-100a2.5,2.5,0,0,1,3.54-3.54l100,100c5.49,5.49,13.93,6,18.81,1.12l5.78-5.78c4.88-4.88,4.37-13.31-1.12-18.81l-100-100a2.5,2.5,0,0,1,3.54-3.54l100,100c7.44,7.44,7.95,19.05,1.12,25.88l-5.78,5.78A16.67,16.67,0,0,1,327.87,350.3Z"/><path class="cls-1" d="M340.9,363a2.5,2.5,0,0,1-1.77-.73l-11.69-11.69A2.5,2.5,0,0,1,331,347L340.9,357,357,340.9l-10.71-10.71a2.5,2.5,0,0,1,3.54-3.54l12.48,12.48a2.5,2.5,0,0,1,0,3.54l-19.61,19.61A2.5,2.5,0,0,1,340.9,363Z"/><path class="cls-1" d="M237.46,240.29a2.5,2.5,0,0,1-1.68-4.35s.77-.7,1.83-1.79l4.12-4.32c2.81-3.11,5.6-6.42,5.62-6.45a2.5,2.5,0,0,1,3.82,3.23s-2.87,3.4-5.78,6.62l-4.18,4.38c-1.2,1.23-2,2-2.08,2A2.49,2.49,0,0,1,237.46,240.29Z"/><path class="cls-1" d="M224.74,251.39a2.5,2.5,0,0,1-1.52-4.49s3.32-2.54,6.36-5.25l2.32-2,3.83-3.64a2.5,2.5,0,1,1,3.45,3.62l-3.87,3.68-.08.07-2.34,2c-3.16,2.83-6.5,5.38-6.64,5.48A2.49,2.49,0,0,1,224.74,251.39Z"/><path class="cls-1" d="M297.58,308.77a2.49,2.49,0,0,1-1.77-.73L241,253.2a2.5,2.5,0,1,1,3.54-3.54l54.85,54.85a2.5,2.5,0,0,1-1.77,4.27Z"/><path class="cls-1" d="M322.64,333.84a2.49,2.49,0,0,1-1.77-.73l-15.36-15.36a2.5,2.5,0,1,1,3.54-3.54l15.36,15.36a2.5,2.5,0,0,1-1.77,4.27Z"/><path class="cls-1" d="M94.81,294.26a2.5,2.5,0,0,1,2.5-2.5h0a2.5,2.5,0,0,1,2.5,2.5h0a2.5,2.5,0,0,1-2.5,2.5h0A2.5,2.5,0,0,1,94.81,294.26Zm-10.05,0a2.49,2.49,0,0,1,2.5-2.5h0a2.5,2.5,0,0,1,2.5,2.5h0a2.5,2.5,0,0,1-2.5,2.5h0A2.49,2.49,0,0,1,84.76,294.26Zm-10,0a2.49,2.49,0,0,1,2.5-2.5h0a2.5,2.5,0,0,1,2.49,2.5h0a2.5,2.5,0,0,1-2.49,2.5h0A2.49,2.49,0,0,1,74.71,294.26Zm-10.06,0a2.5,2.5,0,0,1,2.5-2.5h0a2.5,2.5,0,0,1,2.5,2.5h0a2.5,2.5,0,0,1-2.5,2.5h0A2.5,2.5,0,0,1,64.65,294.26Zm-10,0a2.5,2.5,0,0,1,2.5-2.5h0a2.5,2.5,0,0,1,2.5,2.5h0a2.5,2.5,0,0,1-2.5,2.5h0A2.5,2.5,0,0,1,54.6,294.26Zm-10.05,0a2.5,2.5,0,0,1,2.5-2.5h0a2.5,2.5,0,0,1,2.5,2.5h0a2.5,2.5,0,0,1-2.5,2.5h0A2.5,2.5,0,0,1,44.55,294.26Zm-10,0a2.5,2.5,0,0,1,2.5-2.5h0a2.5,2.5,0,0,1,2.5,2.5h0a2.5,2.5,0,0,1-2.5,2.5h0A2.5,2.5,0,0,1,34.5,294.26Zm-10.06,0a2.5,2.5,0,0,1,2.5-2.5h0a2.5,2.5,0,0,1,2.51,2.5h0a2.5,2.5,0,0,1-2.51,2.5h0A2.5,2.5,0,0,1,24.44,294.26Zm-10.05,0a2.5,2.5,0,0,1,2.5-2.5h0a2.5,2.5,0,0,1,2.5,2.5h0a2.5,2.5,0,0,1-2.5,2.5h0A2.5,2.5,0,0,1,14.39,294.26Zm-10,0a2.5,2.5,0,0,1,2.5-2.5h0a2.5,2.5,0,0,1,2.5,2.5h0a2.5,2.5,0,0,1-2.5,2.5h0A2.5,2.5,0,0,1,4.34,294.26ZM0,288.55A2.5,2.5,0,0,1,2.5,286h0a2.5,2.5,0,0,1,2.5,2.5H5A2.5,2.5,0,0,1,2.5,291h0A2.5,2.5,0,0,1,0,288.55Zm0-10A2.5,2.5,0,0,1,2.5,276h0A2.5,2.5,0,0,1,5,278.5H5A2.5,2.5,0,0,1,2.5,281h0A2.5,2.5,0,0,1,0,278.5Zm0-10A2.5,2.5,0,0,1,2.5,266h0a2.5,2.5,0,0,1,2.5,2.5H5A2.5,2.5,0,0,1,2.5,271h0A2.5,2.5,0,0,1,0,268.45Zm0-10a2.5,2.5,0,0,1,2.5-2.5h0A2.5,2.5,0,0,1,5,258.4H5a2.5,2.5,0,0,1-2.5,2.5h0A2.5,2.5,0,0,1,0,258.4Zm0-10a2.5,2.5,0,0,1,2.5-2.5h0a2.5,2.5,0,0,1,2.5,2.5H5a2.5,2.5,0,0,1-2.5,2.5h0A2.5,2.5,0,0,1,0,248.35Zm0-10.06a2.5,2.5,0,0,1,2.5-2.5h0a2.5,2.5,0,0,1,2.5,2.5H5a2.5,2.5,0,0,1-2.5,2.5h0A2.5,2.5,0,0,1,0,238.29Zm0-10a2.5,2.5,0,0,1,2.5-2.5h0a2.5,2.5,0,0,1,2.5,2.5H5a2.5,2.5,0,0,1-2.5,2.5h0A2.5,2.5,0,0,1,0,228.24Zm0-10a2.5,2.5,0,0,1,2.5-2.5h0a2.5,2.5,0,0,1,2.5,2.5H5a2.5,2.5,0,0,1-2.5,2.5h0A2.5,2.5,0,0,1,0,218.19Zm0-10a2.5,2.5,0,0,1,2.5-2.5h0a2.5,2.5,0,0,1,2.5,2.5H5a2.5,2.5,0,0,1-2.5,2.5h0A2.5,2.5,0,0,1,0,208.14Z"/><path class="cls-1" d="M291.76,88.63a2.49,2.49,0,0,1,2.5-2.5h0a2.49,2.49,0,0,1,2.5,2.5h0a2.5,2.5,0,0,1-2.5,2.5h0A2.5,2.5,0,0,1,291.76,88.63Zm0-10.06a2.5,2.5,0,0,1,2.5-2.5h0a2.5,2.5,0,0,1,2.5,2.5h0a2.51,2.51,0,0,1-2.5,2.51h0A2.51,2.51,0,0,1,291.76,78.57Zm0-10a2.5,2.5,0,0,1,2.5-2.5h0a2.5,2.5,0,0,1,2.5,2.5h0a2.5,2.5,0,0,1-2.5,2.5h0A2.5,2.5,0,0,1,291.76,68.52Zm0-10a2.5,2.5,0,0,1,2.5-2.5h0a2.5,2.5,0,0,1,2.5,2.5h0a2.5,2.5,0,0,1-2.5,2.5h0A2.5,2.5,0,0,1,291.76,58.47Zm0-10.05a2.5,2.5,0,0,1,2.5-2.5h0a2.5,2.5,0,0,1,2.5,2.5h0a2.5,2.5,0,0,1-2.5,2.5h0A2.5,2.5,0,0,1,291.76,48.42Zm0-10a2.49,2.49,0,0,1,2.5-2.5h0a2.49,2.49,0,0,1,2.5,2.5h0a2.5,2.5,0,0,1-2.5,2.5h0A2.5,2.5,0,0,1,291.76,38.37Zm0-10.06a2.5,2.5,0,0,1,2.5-2.5h0a2.5,2.5,0,0,1,2.5,2.5h0a2.5,2.5,0,0,1-2.5,2.5h0A2.5,2.5,0,0,1,291.76,28.31Zm0-10.05a2.5,2.5,0,0,1,2.5-2.5h0a2.5,2.5,0,0,1,2.5,2.5h0a2.5,2.5,0,0,1-2.5,2.5h0A2.5,2.5,0,0,1,291.76,18.26Zm0-10a2.5,2.5,0,0,1,2.5-2.5h0a2.5,2.5,0,0,1,2.5,2.5h0a2.5,2.5,0,0,1-2.5,2.5h0A2.5,2.5,0,0,1,291.76,8.21ZM287.42,2.5a2.5,2.5,0,0,1,2.5-2.5h0a2.5,2.5,0,0,1,2.5,2.5h0a2.5,2.5,0,0,1-2.5,2.5h0A2.5,2.5,0,0,1,287.42,2.5Zm-10.06,0a2.5,2.5,0,0,1,2.5-2.5h0a2.5,2.5,0,0,1,2.5,2.5h0a2.5,2.5,0,0,1-2.5,2.5h0A2.5,2.5,0,0,1,277.36,2.5Zm-10,0a2.5,2.5,0,0,1,2.5-2.5h0a2.5,2.5,0,0,1,2.5,2.5h0a2.5,2.5,0,0,1-2.5,2.5h0A2.5,2.5,0,0,1,267.31,2.5Zm-10.05,0a2.5,2.5,0,0,1,2.5-2.5h0a2.5,2.5,0,0,1,2.5,2.5h0a2.5,2.5,0,0,1-2.5,2.5h0A2.5,2.5,0,0,1,257.26,2.5Zm-10,0a2.5,2.5,0,0,1,2.5-2.5h0a2.5,2.5,0,0,1,2.5,2.5h0a2.5,2.5,0,0,1-2.5,2.5h0A2.5,2.5,0,0,1,247.21,2.5Zm-10,0a2.49,2.49,0,0,1,2.5-2.5h0a2.5,2.5,0,0,1,2.5,2.5h0a2.5,2.5,0,0,1-2.5,2.5h0A2.49,2.49,0,0,1,237.16,2.5Zm-10.06,0A2.5,2.5,0,0,1,229.6,0h0a2.5,2.5,0,0,1,2.5,2.5h0A2.5,2.5,0,0,1,229.6,5h0A2.5,2.5,0,0,1,227.1,2.5ZM217,2.5a2.5,2.5,0,0,1,2.5-2.5h0A2.5,2.5,0,0,1,222,2.5h0a2.5,2.5,0,0,1-2.5,2.5h0A2.5,2.5,0,0,1,217,2.5Zm-10,0A2.5,2.5,0,0,1,209.5,0h0A2.5,2.5,0,0,1,212,2.5h0A2.5,2.5,0,0,1,209.5,5h0A2.5,2.5,0,0,1,207,2.5Zm-10,0a2.5,2.5,0,0,1,2.5-2.5h0A2.5,2.5,0,0,1,202,2.5h0a2.5,2.5,0,0,1-2.5,2.5h0A2.5,2.5,0,0,1,197,2.5Z"/></g></g></svg>