<svg xmlns="http://www.w3.org/2000/svg" viewBox="0 0 397.9 378.4"><defs><style>.cls-1{fill:#FF9800;}</style></defs><title>Asset 102</title><g id="Layer_2" data-name="Layer 2"><g id="Layer_1-2" data-name="Layer 1"><path class="cls-1" d="M99.2,170.8v32.3s-.2,5.1,3.1,5.1,6.7.3,6.1-3.5-.2-27.2-.2-27.2a38.5,38.5,0,0,0-9-6.7Z"/><path class="cls-1" d="M134.5,126.9l-6.4,1.4-2.6,2.6-22.8,22.9s-3.8,3.4-1.4,5.8,4.5,4.9,6.8,1.8,34.6-33.1,34.6-33.1A44.7,44.7,0,0,1,134.5,126.9Z"/><path class="cls-1" d="M58.5,128.3l10.1,11.1L81,151.9l22.8,22.8s3.5,3.8,5.8,1.4,5-4.5,1.9-6.8-39-39.1-39-39.1S65,126.4,58.5,128.3Z"/><path class="cls-1" d="M141.5,185.1a2,2,0,0,1-1.9-2v-4.8a2,2,0,0,1,1.9-1.9,2,2,0,0,1,2,1.9v4.8A2,2,0,0,1,141.5,185.1Z"/><path class="cls-1" d="M107.4,180.3a1.6,1.6,0,0,1-1.3-.6l-28-28a1.9,1.9,0,1,1,2.7-2.7l26.6,26.6,3.9-3.8L68.8,129.3a2,2,0,0,1,0-2.7,1.9,1.9,0,0,1,2.8,0l43.8,43.8a2.4,2.4,0,0,1,.5,1.4,1.9,1.9,0,0,1-.5,1.3l-6.6,6.6A2,2,0,0,1,107.4,180.3Z"/><path class="cls-1" d="M69.4,142.2a2.4,2.4,0,0,1-1.4-.5L55.7,129.3a2,2,0,0,1,0-2.7,1.8,1.8,0,0,1,2.7,0l12.4,12.3a2.1,2.1,0,0,1,0,2.8A2.4,2.4,0,0,1,69.4,142.2Z"/><path class="cls-1" d="M107.4,165.5a1.6,1.6,0,0,1-1.3-.6,1.8,1.8,0,0,1,0-2.7L141.3,127a1.9,1.9,0,0,1,2.7,2.7l-35.2,35.2A2,2,0,0,1,107.4,165.5Z"/><path class="cls-1" d="M107.4,208.4h-7.2a2,2,0,0,1-1.9-2V171.1a2,2,0,0,1,1.9-1.9,2,2,0,0,1,2,1.9v33.4h3.3V178.3a2,2,0,0,1,1.9-1.9,2,2,0,0,1,2,1.9v28.1A2,2,0,0,1,107.4,208.4Z"/><path class="cls-1" d="M100.2,158.3a1.6,1.6,0,0,1-1.3-.6,1.8,1.8,0,0,1,0-2.7l28.4-28.4a1.9,1.9,0,1,1,2.7,2.7l-28.4,28.4A2,2,0,0,1,100.2,158.3Z"/><path class="cls-1" d="M197.4,209.5H1.9a1.6,1.6,0,0,1-1.3-.6,2,2,0,0,1-.6-1.4l.2-40.9v-.4A51.1,51.1,0,0,1,49.9,126H70.2a1.9,1.9,0,0,1,1.9,2,1.9,1.9,0,0,1-1.9,1.9H49.9a47,47,0,0,0-45.8,37l-.2,38.7H195.5l.4-38.8a47.1,47.1,0,0,0-45.8-36.9H128.6a2,2,0,0,1-1.9-1.9,2,2,0,0,1,1.9-2h21.5a50.9,50.9,0,0,1,49.6,40.2c0,.2.1.3.1.5l-.5,40.8A1.9,1.9,0,0,1,197.4,209.5Z"/><path class="cls-1" d="M175.2,180.3H141.5a2,2,0,0,1-1.9-2,2,2,0,0,1,1.9-1.9h33.7a1.9,1.9,0,0,1,1.9,1.9A1.9,1.9,0,0,1,175.2,180.3Z"/><path class="cls-1" d="M175.2,185.1a1.9,1.9,0,0,1-1.9-2v-4.8a1.9,1.9,0,1,1,3.8,0v4.8A1.9,1.9,0,0,1,175.2,185.1Z"/><path class="cls-1" d="M175.2,195.5a1.9,1.9,0,0,1-1.9-1.9v-4.8a1.9,1.9,0,1,1,3.8,0v4.8A1.9,1.9,0,0,1,175.2,195.5Z"/><path class="cls-1" d="M98.7,122.6c-21.6,0-40.9-23.8-41.4-32.7L54.5,40.4A37.1,37.1,0,0,1,64.7,13.1,43,43,0,0,1,95.9,0h5.6a42.8,42.8,0,0,1,31.1,13.1,36.3,36.3,0,0,1,10.2,27.3L140,89.9C139.5,98.8,120.2,122.6,98.7,122.6ZM95.9,3.9A39,39,0,0,0,67.5,15.8a32.5,32.5,0,0,0-9.1,24.4l2.8,49.4c.4,7,18.2,29.1,37.5,29.1s37.1-22.1,37.4-29.1l2.8-49.4a32.1,32.1,0,0,0-9.1-24.4A38.8,38.8,0,0,0,101.5,3.9Z"/><path class="cls-1" d="M56.8,48.4a2,2,0,0,1-1.9-1.5,1.9,1.9,0,0,1,1.4-2.3A84.4,84.4,0,0,0,109.1,3.8a2.1,2.1,0,0,1,2.7-.7,1.9,1.9,0,0,1,.7,2.6A88.7,88.7,0,0,1,57.3,48.3Z"/><path class="cls-1" d="M140.8,44.2h-.5a88.8,88.8,0,0,1-40-23.1,1.8,1.8,0,0,1,0-2.7,2,2,0,0,1,2.7,0,84.6,84.6,0,0,0,38.3,22.1,1.9,1.9,0,0,1-.5,3.8Z"/><path class="cls-1" d="M56.6,75.9c-3.7,0-6.3-1.5-6.4-3.7l-1.3-21c-.1-2.4,2.7-4.2,6.9-4.5l.2,3.9a6.7,6.7,0,0,0-3.2.8L54,71.6a7.9,7.9,0,0,0,3.3.4l.2,3.9Z"/><path class="cls-1" d="M141,75.9h-.9l.2-3.9a7.9,7.9,0,0,0,3.3-.4l1.2-20.2a6.7,6.7,0,0,0-3.2-.8l.2-3.9c4.2.3,7.1,2.1,6.9,4.5l-1.3,21C147.3,74.5,144.7,75.9,141,75.9Z"/><path class="cls-1" d="M8.4,168.7H8a2,2,0,0,1-1.5-2.3,44.4,44.4,0,0,1,43.1-34.9,1.9,1.9,0,0,1,1.9,1.9,1.9,1.9,0,0,1-1.9,2,40.3,40.3,0,0,0-39.3,31.8A1.9,1.9,0,0,1,8.4,168.7Z"/><path class="cls-1" d="M8.5,173.5a2,2,0,0,1,2,2l-.2,25.6a2,2,0,0,1-2,1.9h0a2,2,0,0,1-1.9-1.9l.2-25.7Z"/><path class="cls-1" d="M295.5,305v32.2s-.2,5.1,3.1,5.1,6.7.4,6.1-3.5-.2-27.1-.2-27.1a35.5,35.5,0,0,0-9-6.7Z"/><path class="cls-1" d="M330.7,261l-6.3,1.5-2.6,2.6L299,287.9s-3.8,3.5-1.4,5.8,4.5,5,6.8,1.9S339,262.5,339,262.5,336.9,262.5,330.7,261Z"/><path class="cls-1" d="M254.8,262.5l10,11.1L277.3,286l22.8,22.8s3.5,3.8,5.8,1.5,5-4.6,1.9-6.9-39-39-39-39S261.3,260.6,254.8,262.5Z"/><path class="cls-1" d="M337.8,319.2a2,2,0,0,1-1.9-2v-4.8a2,2,0,0,1,1.9-1.9,2,2,0,0,1,2,1.9v4.8A2,2,0,0,1,337.8,319.2Z"/><path class="cls-1" d="M303.7,314.4a1.6,1.6,0,0,1-1.3-.6l-28-28a1.9,1.9,0,0,1,2.7-2.7l26.6,26.6,3.9-3.8-42.5-42.4a2,2,0,0,1,2.8-2.8l43.8,43.8a2.2,2.2,0,0,1,0,2.8l-6.6,6.5A2,2,0,0,1,303.7,314.4Z"/><path class="cls-1" d="M265.7,276.4a2,2,0,0,1-1.4-.6L252,263.5a1.9,1.9,0,0,1,0-2.8,2,2,0,0,1,2.7,0l12.4,12.4a2,2,0,0,1,0,2.7A2,2,0,0,1,265.7,276.4Z"/><path class="cls-1" d="M303.7,299.6a1.5,1.5,0,0,1-1.3-.5,1.9,1.9,0,0,1,0-2.8l35.2-35.2a1.9,1.9,0,0,1,2.7,2.7l-35.2,35.3A1.9,1.9,0,0,1,303.7,299.6Z"/><path class="cls-1" d="M303.7,342.5h-7.2a2,2,0,0,1-1.9-1.9V305.2a2,2,0,0,1,1.9-1.9,2,2,0,0,1,2,1.9v33.4h3.3V312.4a2,2,0,0,1,1.9-1.9,2,2,0,0,1,2,1.9v28.2A2,2,0,0,1,303.7,342.5Z"/><path class="cls-1" d="M296.5,292.4a1.9,1.9,0,0,1-1.3-.5,1.9,1.9,0,0,1,0-2.8l28.4-28.4a2,2,0,0,1,2.7,0,1.9,1.9,0,0,1,0,2.8l-28.4,28.4A2.4,2.4,0,0,1,296.5,292.4Z"/><path class="cls-1" d="M397.9,344.9H202.4c-4.7-1.3-5.2-1.5-5.5-1.9a1.7,1.7,0,0,1-.6-1.4l.2-40.8v-.4a51.1,51.1,0,0,1,49.7-40.2h20.3a1.9,1.9,0,0,1,0,3.8H246.2a47.3,47.3,0,0,0-45.9,37v38.7H391.8l.4-38.7a47.2,47.2,0,0,0-45.9-37H324.9a1.9,1.9,0,1,1,0-3.8h21.4A50.9,50.9,0,0,1,396,300.4v.4l-.4,40.9C395.6,342.7,394.8,343.6,397.9,344.9Z"/><path class="cls-1" d="M371.5,314.4H337.8a2,2,0,0,1-1.9-2,2,2,0,0,1,1.9-1.9h33.7a1.9,1.9,0,0,1,1.9,1.9A1.9,1.9,0,0,1,371.5,314.4Z"/><path class="cls-1" d="M371.5,319.2a1.9,1.9,0,0,1-1.9-2v-4.8a1.9,1.9,0,0,1,3.8,0v4.8A1.9,1.9,0,0,1,371.5,319.2Z"/><path class="cls-1" d="M371.5,329.6a1.8,1.8,0,0,1-1.9-1.9v-4.8a1.9,1.9,0,0,1,3.8,0v4.8A1.8,1.8,0,0,1,371.5,329.6Z"/><path class="cls-1" d="M295,256.7c-21.6,0-40.9-23.7-41.4-32.7l-2.8-49.4A36.7,36.7,0,0,1,261,147.2a43,43,0,0,1,31.2-13.1h5.6a43,43,0,0,1,31.1,13.1,36.4,36.4,0,0,1,10.2,27.4L336.3,224C335.8,233,316.5,256.7,295,256.7ZM292.2,138a39,39,0,0,0-28.4,11.9,32.7,32.7,0,0,0-9.1,24.4l2.8,49.5c.4,6.9,18.2,29,37.5,29s37-22.1,37.4-29l2.8-49.5a32.7,32.7,0,0,0-9.1-24.4A38.8,38.8,0,0,0,297.8,138Z"/><path class="cls-1" d="M253.1,182.5a1.9,1.9,0,0,1-.5-3.8A84.6,84.6,0,0,0,305.4,138a1.9,1.9,0,1,1,3.4,1.8,88.3,88.3,0,0,1-55.2,42.6Z"/><path class="cls-1" d="M337.1,178.3h-.5a88.8,88.8,0,0,1-40-23.1,1.9,1.9,0,0,1,0-2.8,2,2,0,0,1,2.7,0,84.8,84.8,0,0,0,38.2,22.1,1.9,1.9,0,0,1,1.4,2.4A1.8,1.8,0,0,1,337.1,178.3Z"/><path class="cls-1" d="M252.9,210c-3.7,0-6.3-1.4-6.4-3.6l-1.3-21.1c-.2-2.4,2.7-4.2,6.8-4.5l.3,3.9a8.2,8.2,0,0,0-3.2.8l1.2,20.2a7.9,7.9,0,0,0,3.3.4l.2,3.9Z"/><path class="cls-1" d="M337.3,210h-.9l.2-3.9a7.9,7.9,0,0,0,3.3-.4l1.2-20.2a8.2,8.2,0,0,0-3.2-.8l.2-3.9c4.2.3,7,2.1,6.9,4.5l-1.3,21.1C343.6,208.6,341,210,337.3,210Z"/><path class="cls-1" d="M204.7,302.8h-.4a2,2,0,0,1-1.5-2.3,44.3,44.3,0,0,1,43.1-34.9,1.9,1.9,0,0,1,1.9,2,1.9,1.9,0,0,1-1.9,1.9,40.4,40.4,0,0,0-39.3,31.8A1.9,1.9,0,0,1,204.7,302.8Z"/><path class="cls-1" d="M204.6,337.1h0a1.9,1.9,0,0,1-1.9-1.9l.2-25.6a2,2,0,0,1,1.9-2h0a2,2,0,0,1,2,2l-.2,25.6A1.9,1.9,0,0,1,204.6,337.1Z"/><path class="cls-1" d="M347,135.5a2.6,2.6,0,0,1-2.3-1.5A185.3,185.3,0,0,0,246,35.3a183.3,183.3,0,0,0-72.1-14.6,2.5,2.5,0,0,1-2.5-2.5,2.5,2.5,0,0,1,2.5-2.5A190.7,190.7,0,0,1,349.3,132a2.4,2.4,0,0,1-1.3,3.3Z"/><path class="cls-1" d="M176.6,5.3h-.5l-.5-.2-.4-.2-.4-.3a2.4,2.4,0,0,1-.7-1.8V2.4a.8.8,0,0,1,.2-.5.5.5,0,0,1,.2-.4l.3-.4.4-.3.4-.3h.5a1.7,1.7,0,0,1,1,0h.4l.4.3.4.3.3.4.3.4a4.3,4.3,0,0,1,.1.5c0,.1.1.3.1.4a2.5,2.5,0,0,1-.8,1.8l-.4.3-.4.2-.4.2Z"/><path class="cls-1" d="M309.6,56.6a2.5,2.5,0,0,1-.2-3.5h0a2.5,2.5,0,0,1,3.5-.2h0a2.5,2.5,0,0,1,.2,3.6h0a2.7,2.7,0,0,1-1.8.8h0A2.3,2.3,0,0,1,309.6,56.6Zm-7.4-6.3a2.5,2.5,0,0,1-.3-3.5h0a2.5,2.5,0,0,1,3.5-.4h0a2.5,2.5,0,0,1,.3,3.6h0a2.5,2.5,0,0,1-1.9.9h0A2.7,2.7,0,0,1,302.2,50.3Zm-7.6-6h0a2.5,2.5,0,0,1-.6-3.5h0a2.5,2.5,0,0,1,3.5-.5h0a2.5,2.5,0,0,1,.6,3.5h0a2.5,2.5,0,0,1-2,1h0A2.5,2.5,0,0,1,294.6,44.3Zm-8-5.6h0a2.6,2.6,0,0,1-.7-3.5h0a2.7,2.7,0,0,1,3.5-.7h0a2.6,2.6,0,0,1,.7,3.5h0a2.6,2.6,0,0,1-2.1,1.1h0A2.3,2.3,0,0,1,286.6,38.7Zm-8.2-5.2a2.4,2.4,0,0,1-.8-3.4h0a2.5,2.5,0,0,1,3.4-.9h0a2.5,2.5,0,0,1,.8,3.4h0a2.4,2.4,0,0,1-2.1,1.2h0A3.1,3.1,0,0,1,278.4,33.5ZM270,28.7h0a2.5,2.5,0,0,1-1.1-3.4h0a2.5,2.5,0,0,1,3.4-1h0a2.4,2.4,0,0,1,1,3.4h0a2.5,2.5,0,0,1-2.2,1.3h0A2,2,0,0,1,270,28.7Zm-8.7-4.4a2.4,2.4,0,0,1-1.2-3.3h0a2.4,2.4,0,0,1,3.3-1.2h0a2.4,2.4,0,0,1,1.2,3.3h0a2.5,2.5,0,0,1-2.3,1.5h0A1.9,1.9,0,0,1,261.3,24.3Zm-8.9-3.9a2.6,2.6,0,0,1-1.4-3.3h0a2.5,2.5,0,0,1,3.3-1.3h0a2.4,2.4,0,0,1,1.4,3.2h0a2.6,2.6,0,0,1-2.4,1.6h0Zm-9.1-3.5h0a2.5,2.5,0,0,1-1.5-3.2h0a2.5,2.5,0,0,1,3.2-1.5h0a2.4,2.4,0,0,1,1.5,3.2h0a2.5,2.5,0,0,1-2.3,1.6h-.9Zm-9.2-3.1a2.5,2.5,0,0,1-1.7-3.1h0A2.5,2.5,0,0,1,235.5,9h0a2.5,2.5,0,0,1,1.7,3.2h0a2.5,2.5,0,0,1-2.4,1.7h-.7Zm-9.4-2.6a2.5,2.5,0,0,1-1.8-3h0a2.4,2.4,0,0,1,3-1.8h0a2.4,2.4,0,0,1,1.8,3h0a2.5,2.5,0,0,1-2.4,1.9h-.6Zm-9.5-2.1h0a2.5,2.5,0,0,1-1.9-2.9h0a2.4,2.4,0,0,1,2.9-2h0a2.6,2.6,0,0,1,2,2.9h0a2.7,2.7,0,0,1-2.5,2.1h-.5Zm-9.6-1.6a2.6,2.6,0,0,1-2.1-2.9h0a2.6,2.6,0,0,1,2.9-2.1h0a2.5,2.5,0,0,1,2.1,2.8h0A2.6,2.6,0,0,1,206,7.5h-.4ZM196,6.3a2.6,2.6,0,0,1-2.3-2.7h0a2.6,2.6,0,0,1,2.8-2.3h0A2.5,2.5,0,0,1,198.7,4h0a2.5,2.5,0,0,1-2.5,2.3H196Zm-9.7-.7h0A2.5,2.5,0,0,1,183.9,3h0A2.5,2.5,0,0,1,186.5.6h0a2.4,2.4,0,0,1,2.4,2.6h0a2.6,2.6,0,0,1-2.5,2.4h-.1Z"/><path class="cls-1" d="M318.4,64.1a2.9,2.9,0,0,1-1.8-.7,3.1,3.1,0,0,1-.7-1.8,2.9,2.9,0,0,1,.7-1.8l.4-.3.4-.2.5-.2h1l.5.2.4.2.4.3a2.9,2.9,0,0,1,.7,1.8.9.9,0,0,1-.1.5.6.6,0,0,1-.1.4l-.2.5-.3.4A2.9,2.9,0,0,1,318.4,64.1Z"/><path class="cls-1" d="M356.6,157.8a2.3,2.3,0,0,1-1.7-.7l-20.3-19.3a2.5,2.5,0,0,1-.1-3.5,2.5,2.5,0,0,1,3.6-.1l16,15.3V129.1a2.5,2.5,0,0,1,2.5-2.5,2.5,2.5,0,0,1,2.5,2.5v26.2a2.5,2.5,0,0,1-1.5,2.3Z"/><path class="cls-1" d="M213,363A190.7,190.7,0,0,1,37.5,246.7a2.6,2.6,0,0,1,1.3-3.3,2.5,2.5,0,0,1,3.3,1.3,186.2,186.2,0,0,0,98.7,98.7A183.8,183.8,0,0,0,213,358a2.5,2.5,0,0,1,0,5Z"/><path class="cls-1" d="M210.3,378.4a2.5,2.5,0,0,1-1.8-.8l-.3-.3c-.1-.2-.2-.3-.2-.5s-.1-.3-.2-.4v-1l.2-.5.2-.4.3-.4a2.5,2.5,0,0,1,2.3-.7l.4.2.5.2.4.3a2.9,2.9,0,0,1,.7,1.8,1.1,1.1,0,0,1-.1.5.6.6,0,0,1-.1.4l-.2.5-.3.3-.4.3-.5.3h-.9Z"/><path class="cls-1" d="M200.3,378.1h0a2.5,2.5,0,0,1-2.4-2.6h0a2.6,2.6,0,0,1,2.7-2.4h0a2.5,2.5,0,0,1,2.3,2.6h0a2.4,2.4,0,0,1-2.5,2.4h-.1Zm-9.9-.7a2.5,2.5,0,0,1-2.3-2.7h0a2.6,2.6,0,0,1,2.8-2.3h0a2.6,2.6,0,0,1,2.2,2.8h0a2.5,2.5,0,0,1-2.5,2.2h-.2Zm-9.9-1.2a2.5,2.5,0,0,1-2.1-2.8h0a2.5,2.5,0,0,1,2.8-2.2h0a2.5,2.5,0,0,1,2.1,2.9h0a2.5,2.5,0,0,1-2.5,2.1h-.3Zm-9.8-1.7h0a2.5,2.5,0,0,1-2-2.9h0a2.5,2.5,0,0,1,2.9-2h0a2.5,2.5,0,0,1,2,2.9h0a2.5,2.5,0,0,1-2.5,2h-.4Zm-9.8-2.2a2.5,2.5,0,0,1-1.8-3h0a2.4,2.4,0,0,1,3-1.8h0a2.5,2.5,0,0,1,1.9,3h0a2.6,2.6,0,0,1-2.5,1.9h-.6Zm-9.6-2.6h0a2.5,2.5,0,0,1-1.7-3.1h0a2.5,2.5,0,0,1,3.2-1.7h0a2.5,2.5,0,0,1,1.6,3.1h0a2.5,2.5,0,0,1-2.4,1.8h-.7Zm-9.5-3.2a2.5,2.5,0,0,1-1.5-3.2h0a2.6,2.6,0,0,1,3.2-1.5h0A2.5,2.5,0,0,1,145,365h0a2.3,2.3,0,0,1-2.3,1.7h0Zm-9.3-3.5a2.6,2.6,0,0,1-1.3-3.3h0a2.5,2.5,0,0,1,3.3-1.4h0a2.6,2.6,0,0,1,1.3,3.3h0a2.4,2.4,0,0,1-2.3,1.5h-1Zm-9.1-4.1h0a2.6,2.6,0,0,1-1.2-3.3h0a2.5,2.5,0,0,1,3.4-1.2h0a2.5,2.5,0,0,1,1.2,3.3h0a2.7,2.7,0,0,1-2.3,1.4h0A2.2,2.2,0,0,1,123.4,358.9Zm-8.9-4.5h0a2.5,2.5,0,0,1-1-3.4h0a2.6,2.6,0,0,1,3.4-1h0a2.5,2.5,0,0,1,1,3.4h0a2.5,2.5,0,0,1-2.2,1.3h0A2.7,2.7,0,0,1,114.5,354.4Zm-8.6-4.9h0a2.5,2.5,0,0,1-.9-3.4h0a2.5,2.5,0,0,1,3.4-.9h0a2.5,2.5,0,0,1,.9,3.4h0a2.6,2.6,0,0,1-2.2,1.3h0A2.8,2.8,0,0,1,105.9,349.5Zm-8.5-5.3h0a2.5,2.5,0,0,1-.6-3.5h0a2.4,2.4,0,0,1,3.4-.7h0a2.5,2.5,0,0,1,.7,3.5h0a2.6,2.6,0,0,1-2.1,1.1h0A4.3,4.3,0,0,1,97.4,344.2Zm-8.1-5.8a2.5,2.5,0,0,1-.5-3.5h0a2.5,2.5,0,0,1,3.5-.5h0a2.5,2.5,0,0,1,.5,3.5h0a2.3,2.3,0,0,1-2,1h0A2.7,2.7,0,0,1,89.3,338.4Zm-7.9-6.1a2.5,2.5,0,0,1-.3-3.5h0a2.4,2.4,0,0,1,3.5-.4h0a2.5,2.5,0,0,1,.4,3.5h0a2.5,2.5,0,0,1-2,.9h0A2.5,2.5,0,0,1,81.4,332.3Zm-7.5-6.5a2.6,2.6,0,0,1-.2-3.6h0a2.5,2.5,0,0,1,3.6-.1h0a2.4,2.4,0,0,1,.1,3.5h0a2.5,2.5,0,0,1-1.8.8h0A2.7,2.7,0,0,1,73.9,325.8Z"/><path class="cls-1" d="M68.4,319.6a2.6,2.6,0,0,1-1.7-.7l-.3-.4-.3-.4c0-.2-.1-.3-.1-.5s-.1-.3-.1-.5a4.3,4.3,0,0,0,.1-.5c0-.1.1-.3.1-.4l.3-.5.3-.4a2.6,2.6,0,0,1,3.5,0,2.6,2.6,0,0,1,.7,1.8,2.4,2.4,0,0,1-.7,1.8A2.7,2.7,0,0,1,68.4,319.6Z"/><path class="cls-1" d="M30.2,252.1a2.5,2.5,0,0,1-2.5-2.5V223.4a2.5,2.5,0,0,1,1.5-2.3,2.5,2.5,0,0,1,2.7.5l20.3,19.3a2.5,2.5,0,0,1-3.4,3.6L32.7,229.2v20.4A2.5,2.5,0,0,1,30.2,252.1Z"/></g></g></svg>