<svg xmlns="http://www.w3.org/2000/svg" viewBox="0 0 150.8 153.76"><defs><style>.cls-1{fill:#607d8b;}</style></defs><title>ss-logo-mark_1</title><g id="Layer_2" data-name="Layer 2"><g id="Layer_1-2" data-name="Layer 1"><path class="cls-1" d="M150.8,31.88c-.1,3.14-.12,5.64-.29,8.13s-.4,5-.75,7.45a140,140,0,0,1-3.39,16.72,162,162,0,0,1-8,22.58c-.16.37-.36.71-.54,1.07a.81.81,0,0,1-.78.3,11.73,11.73,0,0,1-1.05-.57L116.49,74.73a4.21,4.21,0,0,1-.93-.75,1.07,1.07,0,0,1-.25-.8c.19-.77.47-1.52.73-2.28,1.57-4.53,3-9.1,4.16-13.76a78.1,78.1,0,0,0,2-12.11,28.16,28.16,0,0,0-.07-4.19,1.46,1.46,0,0,0-.62-1A12.84,12.84,0,0,0,119.6,39a120,120,0,0,0-25.34-8.11,109.92,109.92,0,0,0-11-1.56,111.43,111.43,0,0,0-11.38-.41,97.51,97.51,0,0,0-11.63,1,105.2,105.2,0,0,0-22,5.51,11.31,11.31,0,0,0-1.12.42c-1.14.55-2.54.58-3.38,1.71a8.33,8.33,0,0,0,3,2q14.18,8.11,28.39,16.18L102.6,77l28.14,16c1,.59,2.08,1.19,3.11,1.81a1.12,1.12,0,0,1,.4,1.77q-1,1.82-2.15,3.6a151.26,151.26,0,0,1-27.17,32.61,157.61,157.61,0,0,1-27.38,19.85c-.61.35-1.22.68-1.86,1a1.31,1.31,0,0,1-1.16-.05c-.36-.18-.71-.37-1-.58a194.11,194.11,0,0,1-30.78-23.31,142.3,142.3,0,0,1-20.32-23.57A119.52,119.52,0,0,1,4.77,66.67C4.4,65.12,4.06,63.55,3.71,62c-.09-.4-.16-.93.16-1.09S4.63,61,5,61.2Q12.64,65.59,20.29,70L38.73,80.65c.52.3,1,.62,1.56.9a4.42,4.42,0,0,1,1.8,1.93c1.33,2.46,2.65,4.93,4.1,7.32a84.07,84.07,0,0,0,10.1,13.38,101.93,101.93,0,0,0,16.65,14.61c.33.23.68.42,1,.68a1.94,1.94,0,0,0,2.46.21,68.3,68.3,0,0,0,8.74-5.79,41.58,41.58,0,0,0,7.93-8.13c.35-.48.65-1,1-1.52a.74.74,0,0,0-.12-.82c-.41-.28-.81-.57-1.24-.82L66.13,87.4,27.37,65.18l-22.64-13C4,51.83,3.35,51.44,2.67,51a1.63,1.63,0,0,1-.8-1.21c0-.1,0-.2,0-.3C1.6,46,1.38,42.53,1.12,39,.82,35,.47,30.88.17,26.8.07,25.5,0,24.2,0,22.9a1.2,1.2,0,0,1,.54-1c.41-.29.83-.56,1.26-.81A167.35,167.35,0,0,1,36.28,5.88,142.46,142.46,0,0,1,55.53,1.43C58,1,60.48.8,63,.53A138.62,138.62,0,0,1,79.73,0,109,109,0,0,1,92.26,1.12a131.1,131.1,0,0,1,22.49,5A161.36,161.36,0,0,1,144.2,18.64c1.84,1,3.66,2.06,5.47,3.11a1.67,1.67,0,0,1,.87,1.48C150.63,26.33,150.72,29.42,150.8,31.88Z"/></g></g></svg>