<svg xmlns="http://www.w3.org/2000/svg" viewBox="0 0 544.54 56.61"><defs><style>.cls-1{fill:#607d8b;}</style></defs><title>ss-logo-text</title><g id="Layer_2" data-name="Layer 2"><g id="Layer_1-2" data-name="Layer 1"><path class="cls-1" d="M44.7,1v9.56h-28q-3.73,0-5.43,1.82A6.55,6.55,0,0,0,9.56,17a8,8,0,0,0,.36,2.39,5.07,5.07,0,0,0,1.3,2.11A6.31,6.31,0,0,0,13.69,23a12.48,12.48,0,0,0,4,.53h12.8A25.09,25.09,0,0,1,39.6,24.9a14.94,14.94,0,0,1,5.63,3.68,12.25,12.25,0,0,1,2.83,5.18,22.79,22.79,0,0,1,.77,5.83,20.13,20.13,0,0,1-1,6.4,13,13,0,0,1-3.08,5.06,14.42,14.42,0,0,1-5.39,3.36,23.07,23.07,0,0,1-8,1.21H1V46.08H31.75q3.89,0,5.71-1.9a6.79,6.79,0,0,0,1.82-4.9,8.29,8.29,0,0,0-.4-2.55,5.21,5.21,0,0,0-1.38-2.19A7.06,7.06,0,0,0,34.86,33a13.13,13.13,0,0,0-4.17-.57H18A24.76,24.76,0,0,1,9,31.1a13.86,13.86,0,0,1-5.47-3.64,12.7,12.7,0,0,1-2.75-5.1A21.52,21.52,0,0,1,0,16.68a20.26,20.26,0,0,1,.93-6.28,12.52,12.52,0,0,1,3-5,14,14,0,0,1,5.3-3.28A22.89,22.89,0,0,1,17,1Z"/><path class="cls-1" d="M64.87,55.64H54.34L73.53,7a10.31,10.31,0,0,1,4.33-5.47A14.45,14.45,0,0,1,85,0a14.27,14.27,0,0,1,7.09,1.58A10,10,0,0,1,96.37,7l18.46,48.59H104.23l-16.6-44A2.66,2.66,0,0,0,85,9.8a2.81,2.81,0,0,0-2.75,1.86Z"/><path class="cls-1" d="M132.33,55.64h-9.48V12.23a12.24,12.24,0,0,1,3.24-8.87Q129.33,0,136,0q5.83,0,9.23,2.79a13.72,13.72,0,0,1,4.53,8l7.69,33.45q.73,3.08,3.64,3.08t3.64-3.08l7.69-33.45a14.26,14.26,0,0,1,4.33-8Q179.95,0,185.86,0q6.64,0,9.88,3.36A12.24,12.24,0,0,1,199,12.23V55.64H189.5V12.71a3.3,3.3,0,0,0-1-2.55,4.1,4.1,0,0,0-2.87-.93A3.86,3.86,0,0,0,183,10a3.92,3.92,0,0,0-1.21,2.15L174,45.59a16,16,0,0,1-4.29,8.22q-3,2.79-8.67,2.79t-8.87-2.83a15.27,15.27,0,0,1-4.33-8.18L140,12.15A3.82,3.82,0,0,0,138.77,10a3.89,3.89,0,0,0-2.55-.77,4.1,4.1,0,0,0-2.88.93,3.3,3.3,0,0,0-1,2.55Z"/><path class="cls-1" d="M254.37,1v9.56h-28q-3.73,0-5.43,1.82a6.56,6.56,0,0,0-1.7,4.66,8,8,0,0,0,.36,2.39,5.07,5.07,0,0,0,1.3,2.11A6.31,6.31,0,0,0,223.36,23a12.48,12.48,0,0,0,4,.53h12.8a25.09,25.09,0,0,1,9.15,1.42,14.94,14.94,0,0,1,5.63,3.68,12.25,12.25,0,0,1,2.83,5.18,22.79,22.79,0,0,1,.77,5.83,20.13,20.13,0,0,1-1,6.4,13,13,0,0,1-3.08,5.06,14.43,14.43,0,0,1-5.39,3.36,23.07,23.07,0,0,1-8,1.21H210.64V46.08h30.77q3.89,0,5.71-1.9a6.79,6.79,0,0,0,1.82-4.9,8.3,8.3,0,0,0-.4-2.55,5.21,5.21,0,0,0-1.38-2.19,7.06,7.06,0,0,0-2.63-1.5,13.13,13.13,0,0,0-4.17-.57H227.65a24.76,24.76,0,0,1-9-1.38,13.87,13.87,0,0,1-5.47-3.64,12.7,12.7,0,0,1-2.75-5.1,21.52,21.52,0,0,1-.77-5.67,20.26,20.26,0,0,1,.93-6.28,12.52,12.52,0,0,1,3-5,14,14,0,0,1,5.3-3.28A22.89,22.89,0,0,1,226.68,1Z"/><path class="cls-1" d="M312.76,1v9.56H285.39q-4.37,0-6.32,1.86a6.63,6.63,0,0,0-1.94,5q0,6.48,8.34,6.48h26.89v8.67H285.23q-8.34,0-8.34,6.64a6.46,6.46,0,0,0,2,5.06q2,1.82,6.24,1.82h27.7v9.56h-27.7a26.67,26.67,0,0,1-8.3-1.13,15.82,15.82,0,0,1-5.67-3.12,11.63,11.63,0,0,1-3.24-4.74,17,17,0,0,1-1-5.91,14.07,14.07,0,0,1,2-7.81,12.63,12.63,0,0,1,5.83-4.74q-7.69-3.16-7.69-12.31a16.64,16.64,0,0,1,1.05-6,12,12,0,0,1,3.28-4.74,15.41,15.41,0,0,1,5.67-3.08A27.64,27.64,0,0,1,285.39,1Z"/><path class="cls-1" d="M334.71,55.64h-9.56V11.91a12.09,12.09,0,0,1,3.08-8.63Q331.31,0,337.71,0q5.67,0,8.63,2.71A18.3,18.3,0,0,1,351,10.12l16,34.91a4.77,4.77,0,0,0,1.3,1.62,3.4,3.4,0,0,0,2.19.65,3.23,3.23,0,0,0,2.39-.85,3,3,0,0,0,.85-2.23V1h9.64V44.62a12.12,12.12,0,0,1-3.12,8.71q-3.12,3.28-9.43,3.28a16.33,16.33,0,0,1-5-.69,10.77,10.77,0,0,1-3.73-2,13,13,0,0,1-2.71-3.2,21.48,21.48,0,0,1-1.94-4.21l-16-34.91A3.53,3.53,0,0,0,338,9.23a3.34,3.34,0,0,0-2.47.85,3.12,3.12,0,0,0-.85,2.31Z"/><path class="cls-1" d="M433.67,1v9.56h-16V55.64h-9.64V10.53h-16V1Z"/><path class="cls-1" d="M472.14,1a21.23,21.23,0,0,1,7.94,1.34,15.51,15.51,0,0,1,5.47,3.56,13.82,13.82,0,0,1,3.16,5.22,19.36,19.36,0,0,1,1,6.24,20.81,20.81,0,0,1-.65,5.14,17,17,0,0,1-2,4.78,14.86,14.86,0,0,1-3.56,3.93,15.4,15.4,0,0,1-5.34,2.59l12.71,21.87H480.24L467.77,34.5H453.51a1.22,1.22,0,0,0-1.38,1.38V55.64h-9.56V34q0-4.62,2-6.64t6.56-2h21.3a8.52,8.52,0,0,0,3.48-.65A6.43,6.43,0,0,0,478.3,23a7.11,7.11,0,0,0,1.34-2.43,9.16,9.16,0,0,0,.45-2.83,7.57,7.57,0,0,0-1.82-5.06q-1.82-2.14-5.79-2.15h-30V1Z"/><path class="cls-1" d="M502.43,1l15.31,23.41L533.2,1h11.34l-22,31.1V55.64h-9.64V32.07L490.85,1Z"/></g></g></svg>