<svg xmlns="http://www.w3.org/2000/svg" viewBox="0 0 357 390.8"><defs><style>.cls-1{fill:#4CAF50;}</style></defs><title>Asset 105</title><g id="Layer_2" data-name="Layer 2"><g id="Layer_1-2" data-name="Layer 1"><path class="cls-1" d="M220.2,381.4H96a2.5,2.5,0,0,1-2.5-2.5V348.6a5.1,5.1,0,0,0-1.7-3.7,4.6,4.6,0,0,0-3.7-1.1l-36.9,5.6h-.4A22.5,22.5,0,0,1,29,327V279.2a4.8,4.8,0,0,0-4.9-4.8H11.8c-5.2,0-9.1-1.7-10.7-4.5s-1.4-7.2,1-11.6L28.4,208a4.3,4.3,0,0,0,.6-2.2V184.3A124.7,124.7,0,0,1,101,71.5a122.8,122.8,0,0,1,47.6-11.8,2.4,2.4,0,0,1,2.6,2.4,2.5,2.5,0,0,1-2.3,2.6A120.2,120.2,0,0,0,34,184.3v21.5a10.1,10.1,0,0,1-1.1,4.6L6.5,260.7c-1.8,3.3-1.8,5.6-1.1,6.7s2.8,2,6.4,2H24.1a9.9,9.9,0,0,1,9.9,9.8V327a17.5,17.5,0,0,0,16.7,17.4l36.6-5.6a9.7,9.7,0,0,1,7.8,2.3h.1a10.3,10.3,0,0,1,3.3,7.4v27.8H220.2a11.8,11.8,0,0,0,11.7-11.7V279.4a9.7,9.7,0,0,1,3.1-7.3,121.3,121.3,0,0,0,28.7-39.9,2.5,2.5,0,1,1,4.5,2.1,125.5,125.5,0,0,1-29.8,41.5,4.6,4.6,0,0,0-1.5,3.6v85.3A16.7,16.7,0,0,1,220.2,381.4Z"/><path class="cls-1" d="M164,263.3h0a2.5,2.5,0,0,1-2.4-2.6h0a2.6,2.6,0,0,1,2.6-2.4h0a2.5,2.5,0,0,1,2.4,2.6h0a2.4,2.4,0,0,1-2.5,2.4H164Zm7.6-2.4a2.5,2.5,0,0,1,2.4-2.6h0a2.5,2.5,0,0,1,2.6,2.3h0a2.6,2.6,0,0,1-2.4,2.7h-.1A2.6,2.6,0,0,1,171.6,260.9Zm-17.8,1.4a2.5,2.5,0,0,1-2.1-2.8h0a2.6,2.6,0,0,1,2.9-2.1h0a2.4,2.4,0,0,1,2.1,2.8h0a2.5,2.5,0,0,1-2.5,2.1h-.4Zm27.7-2.2a2.5,2.5,0,0,1,2.1-2.9h0a2.6,2.6,0,0,1,2.9,2.1h0a2.6,2.6,0,0,1-2.1,2.9H184A2.6,2.6,0,0,1,181.5,260.1Zm9.8-1.9a2.4,2.4,0,0,1,1.8-3h0a2.4,2.4,0,0,1,3,1.7h0a2.5,2.5,0,0,1-1.7,3.1h-.7A2.6,2.6,0,0,1,191.3,258.2Zm9.6-2.8a2.5,2.5,0,0,1,1.4-3.3h0a2.4,2.4,0,0,1,3.2,1.4h0a2.5,2.5,0,0,1-1.4,3.3h-.9A2.4,2.4,0,0,1,200.9,255.4Zm9.1-3.9a2.6,2.6,0,0,1,1.1-3.4h0a2.6,2.6,0,0,1,3.4,1.1h0a2.6,2.6,0,0,1-1.1,3.4h0l-1.1.2h0A2.8,2.8,0,0,1,210,251.5Zm8.8-4.8a2.5,2.5,0,0,1,.7-3.5h0a2.5,2.5,0,0,1,3.4.7h0a2.5,2.5,0,0,1-.7,3.5h0a2.2,2.2,0,0,1-1.3.4h0A2.4,2.4,0,0,1,218.8,246.7ZM87,219.4a2.5,2.5,0,0,1,.7-3.5h0a2.5,2.5,0,0,1,3.4.7h0a2.5,2.5,0,0,1-.7,3.5h0a2.2,2.2,0,0,1-1.3.4h0A2.4,2.4,0,0,1,87,219.4Zm-5.2-8.8a2.5,2.5,0,0,1,1.1-3.4h0a2.5,2.5,0,0,1,3.3,1.1h0a2.4,2.4,0,0,1-1,3.3h0a2.7,2.7,0,0,1-1.2.3h0A2.5,2.5,0,0,1,81.8,210.6Zm-4.2-9.3A2.5,2.5,0,0,1,79,198h0a2.5,2.5,0,0,1,3.2,1.4h0a2.5,2.5,0,0,1-1.4,3.3h0l-.9.2h0A2.5,2.5,0,0,1,77.6,201.3Zm-3.2-9.7h0a2.5,2.5,0,0,1,1.7-3.1h0a2.5,2.5,0,0,1,3.1,1.7h0a2.5,2.5,0,0,1-1.8,3.1h-.6A2.5,2.5,0,0,1,74.4,191.6Zm-2.2-10a2.5,2.5,0,0,1,2-2.9h0a2.5,2.5,0,0,1,2.9,2.1h0a2.5,2.5,0,0,1-2.1,2.8h-.4A2.5,2.5,0,0,1,72.2,181.6Zm-1.1-10.2a2.3,2.3,0,0,1,2.3-2.6h0a2.5,2.5,0,0,1,2.7,2.3h0a2.6,2.6,0,0,1-2.4,2.7h-.1A2.5,2.5,0,0,1,71.1,171.4Zm2.3-7.6a2.5,2.5,0,0,1-2.4-2.6h0a2.5,2.5,0,0,1,2.6-2.4h0a2.5,2.5,0,0,1,2.4,2.6h0a2.5,2.5,0,0,1-2.5,2.4h-.1Zm.7-9.9A2.5,2.5,0,0,1,72,151h0a2.5,2.5,0,0,1,2.9-2.1h0a2.6,2.6,0,0,1,2.1,2.9h0a2.6,2.6,0,0,1-2.5,2.1h-.4Zm1.8-9.9a2.4,2.4,0,0,1-1.8-3h0a2.5,2.5,0,0,1,3-1.8h0a2.5,2.5,0,0,1,1.8,3.1h0a2.5,2.5,0,0,1-2.4,1.8h-.6Zm2.7-9.5a2.5,2.5,0,0,1-1.4-3.3h0a2.5,2.5,0,0,1,3.2-1.4h0a2.4,2.4,0,0,1,1.4,3.2h0a2.4,2.4,0,0,1-2.3,1.6h-.9Zm3.8-9.3a2.5,2.5,0,0,1-1.1-3.3h0a2.3,2.3,0,0,1,3.3-1.1h0a2.3,2.3,0,0,1,1.1,3.3h0a2.4,2.4,0,0,1-2.2,1.4h0A2,2,0,0,1,82.4,125.2Zm4.7-8.7a2.6,2.6,0,0,1-.8-3.5h0a2.6,2.6,0,0,1,3.5-.8h0a2.5,2.5,0,0,1,.7,3.5h0a2.4,2.4,0,0,1-2.1,1.1h0A3.1,3.1,0,0,1,87.1,116.5Zm5.6-8.3a2.4,2.4,0,0,1-.4-3.5h0a2.4,2.4,0,0,1,3.5-.4h0a2.4,2.4,0,0,1,.4,3.5h0a2.6,2.6,0,0,1-1.9,1h0A2.5,2.5,0,0,1,92.7,108.2Z"/><path class="cls-1" d="M244,286.9a2.4,2.4,0,0,1-1.8-.7l-.3-.4a.8.8,0,0,1-.2-.4l-.2-.5v-1c.1-.1.1-.3.2-.4s.1-.3.2-.5l.3-.3c.1-.1.2-.3.4-.3l.4-.3h.5a2.2,2.2,0,0,1,2.2.7l.4.3.2.5a.6.6,0,0,1,.1.4,1.1,1.1,0,0,1,.1.5.7.7,0,0,1-.1.5.9.9,0,0,1-.1.5c-.1.1-.1.3-.2.4a.8.8,0,0,1-.4.4A2.2,2.2,0,0,1,244,286.9Z"/><path class="cls-1" d="M241.5,355.8a2.5,2.5,0,0,1,2.5-2.5h0a2.5,2.5,0,0,1,2.5,2.5h0a2.5,2.5,0,0,1-2.5,2.5h0A2.5,2.5,0,0,1,241.5,355.8Zm0-10.2a2.5,2.5,0,0,1,2.5-2.5h0a2.5,2.5,0,0,1,2.5,2.5h0a2.5,2.5,0,0,1-2.5,2.5h0A2.5,2.5,0,0,1,241.5,345.6Zm0-10.2a2.5,2.5,0,0,1,2.5-2.5h0a2.5,2.5,0,0,1,2.5,2.5h0a2.5,2.5,0,0,1-2.5,2.5h0A2.5,2.5,0,0,1,241.5,335.4Zm0-10.2a2.5,2.5,0,0,1,2.5-2.5h0a2.5,2.5,0,0,1,2.5,2.5h0a2.5,2.5,0,0,1-2.5,2.5h0A2.5,2.5,0,0,1,241.5,325.2Zm0-10.2a2.5,2.5,0,0,1,2.5-2.5h0a2.5,2.5,0,0,1,2.5,2.5h0a2.5,2.5,0,0,1-2.5,2.5h0A2.5,2.5,0,0,1,241.5,315Zm0-10.2a2.5,2.5,0,0,1,2.5-2.5h0a2.5,2.5,0,0,1,2.5,2.5h0a2.5,2.5,0,0,1-2.5,2.5h0A2.5,2.5,0,0,1,241.5,304.8Zm0-10.2a2.5,2.5,0,0,1,2.5-2.5h0a2.5,2.5,0,0,1,2.5,2.5h0a2.5,2.5,0,0,1-2.5,2.5h0A2.5,2.5,0,0,1,241.5,294.6Z"/><path class="cls-1" d="M244,368.5a2.5,2.5,0,0,1-1.8-.8l-.3-.4a.5.5,0,0,1-.2-.4c-.1-.1-.1-.3-.2-.5V366a2.3,2.3,0,0,1,.7-1.8l.4-.3.4-.3h.5a2.2,2.2,0,0,1,2.2.7,2.3,2.3,0,0,1,.8,1.8,2.3,2.3,0,0,1-.8,1.7l-.3.3-.5.3H244Z"/><path class="cls-1" d="M222,388.3a2.5,2.5,0,0,1,2.5-2.5h0a2.5,2.5,0,0,1,2.5,2.5h0a2.5,2.5,0,0,1-2.5,2.5h0A2.5,2.5,0,0,1,222,388.3Zm-10,0a2.5,2.5,0,0,1,2.5-2.5h0a2.5,2.5,0,0,1,2.5,2.5h0a2.5,2.5,0,0,1-2.5,2.5h0A2.5,2.5,0,0,1,212,388.3Zm-10,0a2.5,2.5,0,0,1,2.5-2.5h0a2.5,2.5,0,0,1,2.5,2.5h0a2.5,2.5,0,0,1-2.5,2.5h0A2.5,2.5,0,0,1,202,388.3Zm-10,0a2.5,2.5,0,0,1,2.5-2.5h0a2.5,2.5,0,0,1,2.5,2.5h0a2.5,2.5,0,0,1-2.5,2.5h0A2.5,2.5,0,0,1,192,388.3Zm-10,0a2.5,2.5,0,0,1,2.5-2.5h0a2.5,2.5,0,0,1,2.5,2.5h0a2.5,2.5,0,0,1-2.5,2.5h0A2.5,2.5,0,0,1,182,388.3Zm-10,0a2.5,2.5,0,0,1,2.5-2.5h0a2.5,2.5,0,0,1,2.5,2.5h0a2.5,2.5,0,0,1-2.5,2.5h0A2.5,2.5,0,0,1,172,388.3Zm-10,0a2.5,2.5,0,0,1,2.5-2.5h0a2.5,2.5,0,0,1,2.5,2.5h0a2.5,2.5,0,0,1-2.5,2.5h0A2.5,2.5,0,0,1,162,388.3Zm-10,0a2.5,2.5,0,0,1,2.5-2.5h0a2.5,2.5,0,0,1,2.5,2.5h0a2.5,2.5,0,0,1-2.5,2.5h0A2.5,2.5,0,0,1,152,388.3Zm-10,0a2.5,2.5,0,0,1,2.5-2.5h0a2.5,2.5,0,0,1,2.5,2.5h0a2.5,2.5,0,0,1-2.5,2.5h0A2.5,2.5,0,0,1,142,388.3Zm-10,0a2.5,2.5,0,0,1,2.5-2.5h0a2.5,2.5,0,0,1,2.5,2.5h0a2.5,2.5,0,0,1-2.5,2.5h0A2.5,2.5,0,0,1,132,388.3Zm-10,0a2.5,2.5,0,0,1,2.5-2.5h0a2.5,2.5,0,0,1,2.5,2.5h0a2.5,2.5,0,0,1-2.5,2.5h0A2.5,2.5,0,0,1,122,388.3Zm-10,0a2.5,2.5,0,0,1,2.5-2.5h0a2.5,2.5,0,0,1,2.5,2.5h0a2.5,2.5,0,0,1-2.5,2.5h0A2.5,2.5,0,0,1,112,388.3Zm-10,0a2.5,2.5,0,0,1,2.5-2.5h0a2.5,2.5,0,0,1,2.5,2.5h0a2.5,2.5,0,0,1-2.5,2.5h0A2.5,2.5,0,0,1,102,388.3Z"/><path class="cls-1" d="M228.9,388.5a2.6,2.6,0,0,1,2.1-2.9h0a2.5,2.5,0,0,1,2.9,2.1h0a2.5,2.5,0,0,1-2.1,2.9h-.4A2.6,2.6,0,0,1,228.9,388.5Zm9.4-3.3a2.5,2.5,0,0,1-.3-3.5h0a2.5,2.5,0,0,1,3.6-.3h0a2.5,2.5,0,0,1,.2,3.5h0a2.5,2.5,0,0,1-1.9.9h0A2.7,2.7,0,0,1,238.3,385.2Zm2.5-11.1h0a2.5,2.5,0,0,1,2.5-2.5h0a2.5,2.5,0,0,1,2.5,2.5h0a2.5,2.5,0,0,1-2.5,2.5h0A2.5,2.5,0,0,1,240.8,374.1Z"/><path class="cls-1" d="M198.2,230Z"/><path class="cls-1" d="M110.6,150.7Z"/><path class="cls-1" d="M334.9,102.6h-78a2.5,2.5,0,0,1-2.5-2.5v-78a2.6,2.6,0,0,1,4.3-1.8l24.9,24.9L328,.7a2.7,2.7,0,0,1,3.6,0l24.7,24.7a2.7,2.7,0,0,1,0,3.6L311.8,73.4l24.9,24.9a2.6,2.6,0,0,1-1.8,4.3Zm-75.5-5h69.5L306.5,75.2a2.4,2.4,0,0,1-.7-1.8,2.2,2.2,0,0,1,.7-1.7L351,27.2,329.8,6,285.3,50.5a2.4,2.4,0,0,1-3.5,0L259.4,28.1Z"/><path class="cls-1" d="M97,164.1a2.5,2.5,0,0,1-2.5-2.5,80,80,0,0,1,79.9-79.9,2.5,2.5,0,0,1,0,5,75,75,0,0,0-74.9,74.9A2.5,2.5,0,0,1,97,164.1Z"/><path class="cls-1" d="M122.4,164.1a2.5,2.5,0,0,1-2.5-2.5,54.6,54.6,0,0,1,54.5-54.5,2.5,2.5,0,0,1,0,5,49.5,49.5,0,0,0-49.5,49.5A2.5,2.5,0,0,1,122.4,164.1Z"/><path class="cls-1" d="M122.4,164.1H97a2.5,2.5,0,0,1,0-5h25.4a2.5,2.5,0,0,1,0,5Z"/><path class="cls-1" d="M174.4,112.1a2.5,2.5,0,0,1-2.5-2.5V84.2a2.5,2.5,0,0,1,5,0v25.4A2.5,2.5,0,0,1,174.4,112.1Z"/><path class="cls-1" d="M210.5,106a7.4,7.4,0,0,1-5.2-2.2,7.4,7.4,0,0,1-2.1-5.1,7.6,7.6,0,0,1,2.1-5.2,7.4,7.4,0,0,1,5.2-2.2,7.3,7.3,0,0,1,5.2,2.2h0a7.2,7.2,0,0,1,2.1,5.2,6.9,6.9,0,0,1-2.1,5.1A7.3,7.3,0,0,1,210.5,106Zm0-9.7a2.4,2.4,0,0,0-1.6.7,2.2,2.2,0,0,0-.7,1.7,2,2,0,0,0,.7,1.6,2.4,2.4,0,0,0,3.3,0,2.3,2.3,0,0,0,.6-1.6,2.5,2.5,0,0,0-.6-1.7h0A2.8,2.8,0,0,0,210.5,96.3Z"/><path class="cls-1" d="M111.4,205.1a7.4,7.4,0,0,1-5.2-2.2,6.9,6.9,0,0,1-2.1-5.1,7.2,7.2,0,0,1,2.1-5.2,7.4,7.4,0,0,1,5.2-2.2,7.3,7.3,0,0,1,5.2,2.2h0a7.2,7.2,0,0,1,2.1,5.2,6.9,6.9,0,0,1-2.1,5.1A7.3,7.3,0,0,1,111.4,205.1Zm0-9.7a2.4,2.4,0,0,0-1.6.7,2.2,2.2,0,0,0-.7,1.7,2,2,0,0,0,.7,1.6,2.4,2.4,0,0,0,3.3,0,2.3,2.3,0,0,0,.6-1.6,2.5,2.5,0,0,0-.6-1.7h0A2.8,2.8,0,0,0,111.4,195.4Z"/><path class="cls-1" d="M156.7,235.9a7.4,7.4,0,1,1,7.3-7.3A7.3,7.3,0,0,1,156.7,235.9Zm0-9.7a2.4,2.4,0,1,0,2.3,2.4A2.3,2.3,0,0,0,156.7,226.2Z"/><path class="cls-1" d="M210.5,225.6a7.3,7.3,0,0,1-5.2-2.1,7.5,7.5,0,0,1,0-10.4h0a7.5,7.5,0,0,1,10.4,0,7.3,7.3,0,0,1,0,10.4A7.2,7.2,0,0,1,210.5,225.6Zm-1.6-9a2.3,2.3,0,1,0,3.3,0A2.4,2.4,0,0,0,208.9,216.6Z"/><path class="cls-1" d="M241.3,180.3a7.3,7.3,0,1,1,7.3-7.3A7.3,7.3,0,0,1,241.3,180.3Zm0-9.6a2.3,2.3,0,1,0,2.3,2.3A2.3,2.3,0,0,0,241.3,170.7Z"/><path class="cls-1" d="M131.9,225.6a6.9,6.9,0,0,1-5.1-2.1h0a7.3,7.3,0,1,1,10.3,0A7.2,7.2,0,0,1,131.9,225.6Zm0-9.6a2.3,2.3,0,0,0-1.6.6,2.4,2.4,0,0,0,0,3.3h0a2.3,2.3,0,0,0,3.3-3.3A2.7,2.7,0,0,0,131.9,216Z"/><path class="cls-1" d="M231,126.5a7.3,7.3,0,0,1-5.1-2.1h0a7.4,7.4,0,0,1-2.2-5.2,7.3,7.3,0,0,1,2.2-5.2,7.2,7.2,0,0,1,10.3,0,7.3,7.3,0,0,1,2.2,5.2,7.4,7.4,0,0,1-2.2,5.2A7.3,7.3,0,0,1,231,126.5Zm-1.6-5.7a2.4,2.4,0,0,0,4-1.6,2.8,2.8,0,0,0-.7-1.7,2.4,2.4,0,0,0-3.3,0,2.8,2.8,0,0,0-.7,1.7A2.4,2.4,0,0,0,229.4,120.8Z"/><path class="cls-1" d="M185.7,235.9a7.4,7.4,0,1,1,7.4-7.3A7.3,7.3,0,0,1,185.7,235.9Zm0-9.7a2.4,2.4,0,1,0,2.4,2.4A2.4,2.4,0,0,0,185.7,226.2Z"/><path class="cls-1" d="M231,205.1a7.5,7.5,0,0,1-7.3-7.3,7.3,7.3,0,0,1,2.2-5.2,7.2,7.2,0,0,1,10.3,0,7.3,7.3,0,0,1,2.2,5.2,7.5,7.5,0,0,1-7.4,7.3Zm0-9.7a2.8,2.8,0,0,0-1.6.7,2.6,2.6,0,0,0-.7,1.7,2.4,2.4,0,0,0,4,1.6h0a2.4,2.4,0,0,0,.7-1.6,2.6,2.6,0,0,0-.7-1.7A2.8,2.8,0,0,0,231,195.4Z"/><path class="cls-1" d="M241.3,151.3a7.4,7.4,0,1,1,7.3-7.3A7.3,7.3,0,0,1,241.3,151.3Zm0-9.7a2.4,2.4,0,1,0,2.3,2.4A2.3,2.3,0,0,0,241.3,141.6Z"/><path class="cls-1" d="M210.5,106a7.4,7.4,0,0,1-5.2-2.2,7.4,7.4,0,0,1-2.1-5.1,7.6,7.6,0,0,1,2.1-5.2,7.4,7.4,0,0,1,5.2-2.2,7.3,7.3,0,0,1,5.2,2.2h0a7.2,7.2,0,0,1,2.1,5.2,6.9,6.9,0,0,1-2.1,5.1A7.3,7.3,0,0,1,210.5,106Zm0-9.7a2.4,2.4,0,0,0-1.6.7,2.2,2.2,0,0,0-.7,1.7,2,2,0,0,0,.7,1.6,2.4,2.4,0,0,0,3.3,0,2.3,2.3,0,0,0,.6-1.6,2.5,2.5,0,0,0-.6-1.7h0A2.8,2.8,0,0,0,210.5,96.3Z"/><path class="cls-1" d="M111.4,205.1a7.4,7.4,0,0,1-5.2-2.2,6.9,6.9,0,0,1-2.1-5.1,7.2,7.2,0,0,1,2.1-5.2,7.4,7.4,0,0,1,5.2-2.2,7.3,7.3,0,0,1,5.2,2.2h0a7.2,7.2,0,0,1,2.1,5.2,6.9,6.9,0,0,1-2.1,5.1A7.3,7.3,0,0,1,111.4,205.1Zm0-9.7a2.4,2.4,0,0,0-1.6.7,2.2,2.2,0,0,0-.7,1.7,2,2,0,0,0,.7,1.6,2.4,2.4,0,0,0,3.3,0,2.3,2.3,0,0,0,.6-1.6,2.5,2.5,0,0,0-.6-1.7h0A2.8,2.8,0,0,0,111.4,195.4Z"/><path class="cls-1" d="M173.1,176.4a9.9,9.9,0,1,1,9.9-9.9A9.9,9.9,0,0,1,173.1,176.4Zm0-14.8a4.9,4.9,0,1,0,4.9,4.9A4.9,4.9,0,0,0,173.1,161.6Z"/><path class="cls-1" d="M173.9,160.2a2.5,2.5,0,0,1-2.5-2.5V122.9a2.5,2.5,0,0,1,5,0v34.8A2.5,2.5,0,0,1,173.9,160.2Z"/></g></g></svg>