<svg xmlns="http://www.w3.org/2000/svg" viewBox="0 0 279.17 392.23"><defs><style>.cls-1{fill:#888;}</style></defs><title>support-alt</title><g id="Layer_2" data-name="Layer 2"><g id="Layer_1-2" data-name="Layer 1"><path class="cls-1" d="M123,392.23a2.5,2.5,0,0,1-2-.94c-.88-1.11-88.34-111.53-113.92-195.51a122.77,122.77,0,0,1-7-36.89C0,157.19,0,155.78,0,154.45a123,123,0,0,1,246,0c0,1.41,0,2.91-.11,4.47a122.4,122.4,0,0,1-7,36.86c-9.62,31.59-28.79,70.16-57,114.65a2.5,2.5,0,1,1-4.22-2.68c28-44.14,47-82.32,56.44-113.49l0-.11a117.47,117.47,0,0,0,6.75-35.45q.11-2.26.11-4.26a118,118,0,0,0-236,0c0,1.25,0,2.59.11,4.23a117.81,117.81,0,0,0,6.76,35.46l0,.11c23.15,76.11,98,174.57,111.11,191.41,5.7-7.33,23.14-30.13,42.74-59.57a2.5,2.5,0,1,1,4.16,2.77c-24,36-44.74,62.15-44.95,62.41A2.5,2.5,0,0,1,123,392.23Zm0-163.1a74.75,74.75,0,1,1,65.15-38.24,2.5,2.5,0,0,1-3.88.61l-13.15-12.21-.14-.14c-8.36-9.1-11.08-13.31-8.7-24.74,2-9.18,3.1-22.76-10.5-35-.68-.57-2-1.46-3.24-2.33a23.5,23.5,0,0,1-4.3-3.33c-18-10.27-37.22-2.56-40.82-.94l-.08.13c7.13,4.7,18.3,12,20,13a17,17,0,0,1,6.8,10.61c1.29,6.09-.36,12.61-4.92,19.37-4.3,6.61-9.35,10.45-15,11.4a16.62,16.62,0,0,1-12.42-3c-2.45-1.44-14.93-9.44-20-12.7l-.05.09c0,3.91.75,25.7,19.28,37.65,8.2,5.37,18.16,6.72,26.68,3.63l.1,0c9.41-3,16.18,1.24,25.38,10.09l11.71,12a2.5,2.5,0,0,1-.54,3.91A74.59,74.59,0,0,1,123,229.13Zm0-144.34a69.67,69.67,0,1,0,32,131.47l-9.36-9.6c-9.15-8.8-13.92-10.9-20.3-8.89-10,3.61-21.58,2.06-31.06-4.15C71.55,178.94,72.72,152,72.78,150.91a2.51,2.51,0,0,1,.38-1.19l1.76-2.82a2.5,2.5,0,0,1,3.47-.78c6.8,4.37,20.17,12.93,22.07,14a2.44,2.44,0,0,1,.29.2,11.68,11.68,0,0,0,8.67,2.09c4.2-.71,8.12-3.81,11.65-9.23,3.79-5.63,5.2-10.85,4.2-15.57a12.33,12.33,0,0,0-4.48-7.36c-2.42-1.38-21.43-13.93-22.24-14.47a2.5,2.5,0,0,1-.74-3.41l1.76-2.82a2.5,2.5,0,0,1,1-.91c1-.5,24.37-12.1,46.77,1.13a2.5,2.5,0,0,1,.92.94c.55.49,2.08,1.54,3.13,2.26,1.35.93,2.75,1.89,3.68,2.67,15.6,14,14.38,29.4,12.12,39.78-1.88,9-.39,11.74,7.42,20.24l10.69,9.93A69.62,69.62,0,0,0,123,84.79Zm25.55,27.15h0Z"/><path class="cls-1" d="M259.65,149.26a2.48,2.48,0,0,1-1.76-.73,2.48,2.48,0,0,1,0-3.53,1.9,1.9,0,0,1,.38-.31,2.22,2.22,0,0,1,.43-.23,2.59,2.59,0,0,1,.47-.15,2.63,2.63,0,0,1,1,0,2.58,2.58,0,0,1,.47.15,2.24,2.24,0,0,1,.43.23,1.9,1.9,0,0,1,.38.31,2.49,2.49,0,0,1-1.77,4.26Z"/><path class="cls-1" d="M256.77,136.84a2.49,2.49,0,0,1,2.3-2.68h0a2.5,2.5,0,0,1,2.69,2.3h0a2.5,2.5,0,0,1-2.3,2.68h-.2A2.5,2.5,0,0,1,256.77,136.84ZM255.62,127h0a2.49,2.49,0,0,1,2.08-2.86h0a2.5,2.5,0,0,1,2.86,2.08h0a2.51,2.51,0,0,1-2.09,2.86h0a2.56,2.56,0,0,1-.39,0h0A2.49,2.49,0,0,1,255.62,127Zm-1.93-9.73a2.5,2.5,0,0,1,1.85-3h0a2.49,2.49,0,0,1,3,1.85h0a2.49,2.49,0,0,1-1.85,3h0a2.87,2.87,0,0,1-.58.07h0A2.5,2.5,0,0,1,253.69,117.24ZM251,107.68a2.49,2.49,0,0,1,1.61-3.14h0a2.5,2.5,0,0,1,3.15,1.6h0a2.51,2.51,0,0,1-1.61,3.15h0a2.63,2.63,0,0,1-.77.12h0A2.49,2.49,0,0,1,251,107.68Zm-3.44-9.31a2.5,2.5,0,0,1,1.35-3.27h0a2.5,2.5,0,0,1,3.27,1.35h0a2.5,2.5,0,0,1-1.35,3.27h0a2.48,2.48,0,0,1-1,.19h0A2.5,2.5,0,0,1,247.56,98.38Zm-4.16-9A2.49,2.49,0,0,1,244.49,86h0a2.49,2.49,0,0,1,3.36,1.09h0a2.49,2.49,0,0,1-1.09,3.36h0a2.41,2.41,0,0,1-1.13.27h0A2.49,2.49,0,0,1,243.4,89.36Zm-4.86-8.66a2.51,2.51,0,0,1,.82-3.44h0a2.51,2.51,0,0,1,3.44.82h0a2.51,2.51,0,0,1-.82,3.44h0a2.5,2.5,0,0,1-1.31.37h0A2.49,2.49,0,0,1,238.54,80.69ZM233,72.44a2.49,2.49,0,0,1,.55-3.49h0a2.49,2.49,0,0,1,3.49.55h0a2.51,2.51,0,0,1-.55,3.49h0a2.53,2.53,0,0,1-1.47.48h0A2.5,2.5,0,0,1,233,72.44Zm-6.16-7.8h0a2.5,2.5,0,0,1,.28-3.52h0a2.5,2.5,0,0,1,3.52.27h0a2.5,2.5,0,0,1-.27,3.53h0a2.5,2.5,0,0,1-1.62.6h0A2.51,2.51,0,0,1,226.86,64.65Zm-6.74-7.29h0a2.5,2.5,0,0,1,0-3.53h0a2.5,2.5,0,0,1,3.54,0h0a2.5,2.5,0,0,1,0,3.53h0a2.49,2.49,0,0,1-1.77.73h0A2.49,2.49,0,0,1,220.12,57.36Zm-7.29-6.74h0a2.5,2.5,0,0,1-.27-3.53h0a2.5,2.5,0,0,1,3.52-.27h0a2.5,2.5,0,0,1,.28,3.52h0a2.51,2.51,0,0,1-1.91.88h0A2.5,2.5,0,0,1,212.83,50.61ZM205,44.46a2.5,2.5,0,0,1-.55-3.49h0a2.49,2.49,0,0,1,3.49-.55h0a2.49,2.49,0,0,1,.55,3.49h0a2.5,2.5,0,0,1-2,1h0A2.51,2.51,0,0,1,205,44.46Zm-8.25-5.53A2.49,2.49,0,0,1,196,35.5h0a2.5,2.5,0,0,1,3.44-.83h0a2.51,2.51,0,0,1,.82,3.44h0a2.5,2.5,0,0,1-2.13,1.2h0A2.42,2.42,0,0,1,196.79,38.93Zm-8.65-4.85A2.51,2.51,0,0,1,187,30.71h0a2.5,2.5,0,0,1,3.36-1.09h0A2.51,2.51,0,0,1,191.5,33h0a2.51,2.51,0,0,1-2.23,1.36h0A2.54,2.54,0,0,1,188.14,34.09Zm-9-4.16h0a2.51,2.51,0,0,1-1.35-3.27h0A2.5,2.5,0,0,1,181,25.3h0a2.5,2.5,0,0,1,1.35,3.26h0a2.5,2.5,0,0,1-2.31,1.55h0A2.69,2.69,0,0,1,179.13,29.92Zm-9.3-3.44a2.5,2.5,0,0,1-1.61-3.15h0a2.51,2.51,0,0,1,3.15-1.61h0A2.51,2.51,0,0,1,173,24.88h0a2.51,2.51,0,0,1-2.38,1.73h0A2.52,2.52,0,0,1,169.83,26.48Zm-9.56-2.69a2.52,2.52,0,0,1-1.85-3h0a2.51,2.51,0,0,1,3-1.85h0a2.51,2.51,0,0,1,1.85,3h0a2.51,2.51,0,0,1-2.43,1.91h0A3,3,0,0,1,160.27,23.8Zm-9.73-1.93A2.5,2.5,0,0,1,148.46,19h0a2.5,2.5,0,0,1,2.85-2.09h0a2.49,2.49,0,0,1,2.08,2.86h0a2.49,2.49,0,0,1-2.46,2.11h0A2.56,2.56,0,0,1,150.54,21.86Zm-9.86-1.16a2.5,2.5,0,0,1-2.3-2.69h0a2.5,2.5,0,0,1,2.69-2.3h0a2.51,2.51,0,0,1,2.3,2.69h0a2.5,2.5,0,0,1-2.49,2.3h-.2Z"/><path class="cls-1" d="M130.7,20.32a2.6,2.6,0,0,1-.49-.05,2.55,2.55,0,0,1-.47-.14,3,3,0,0,1-.43-.23,2.4,2.4,0,0,1-.38-.32,2.47,2.47,0,0,1-.73-1.76,2.51,2.51,0,0,1,.73-1.77,1.9,1.9,0,0,1,.38-.31,2.23,2.23,0,0,1,.43-.23,2.56,2.56,0,0,1,.47-.14,2.49,2.49,0,0,1,2.25.68,2.23,2.23,0,0,1,.31.38,2.7,2.7,0,0,1,.38.9,2.65,2.65,0,0,1,0,.49,2.83,2.83,0,0,1,0,.49,2.47,2.47,0,0,1-.15.46,2.63,2.63,0,0,1-.23.44,2.16,2.16,0,0,1-.31.37A2.49,2.49,0,0,1,130.7,20.32Z"/><path class="cls-1" d="M276.67,152a2.5,2.5,0,0,1-1.77-.74,2.5,2.5,0,0,1,0-3.53,2.58,2.58,0,0,1,3.53,0,2.51,2.51,0,0,1-1.76,4.27Z"/><path class="cls-1" d="M273.83,139.59a2.5,2.5,0,0,1,2.33-2.66h0a2.48,2.48,0,0,1,2.66,2.32h0a2.51,2.51,0,0,1-2.32,2.67h-.17A2.5,2.5,0,0,1,273.83,139.59Zm-1-9.81h0A2.52,2.52,0,0,1,275,127h0a2.51,2.51,0,0,1,2.81,2.14h0a2.5,2.5,0,0,1-2.14,2.82h0l-.34,0h0A2.5,2.5,0,0,1,272.84,129.78Zm-1.67-9.72h0a2.51,2.51,0,0,1,2-3h0a2.5,2.5,0,0,1,2.95,1.95h0a2.5,2.5,0,0,1-1.94,3h0a2.2,2.2,0,0,1-.51,0h0A2.51,2.51,0,0,1,271.17,120.07Zm-2.32-9.58a2.49,2.49,0,0,1,1.73-3.08h0a2.49,2.49,0,0,1,3.08,1.73h0a2.5,2.5,0,0,1-1.73,3.08h0a2.7,2.7,0,0,1-.68.09h0A2.49,2.49,0,0,1,268.85,110.48Zm-3-9.4a2.5,2.5,0,0,1,1.51-3.2h0a2.51,2.51,0,0,1,3.2,1.52h0a2.52,2.52,0,0,1-1.52,3.2h0a2.74,2.74,0,0,1-.84.14h0A2.49,2.49,0,0,1,265.87,101.09Zm-3.63-9.19a2.5,2.5,0,0,1,1.3-3.29h0a2.5,2.5,0,0,1,3.29,1.3h0a2.5,2.5,0,0,1-1.3,3.29h0a2.48,2.48,0,0,1-1,.21h0A2.51,2.51,0,0,1,262.24,91.9ZM258,83a2.5,2.5,0,0,1,1.06-3.37h0a2.5,2.5,0,0,1,3.37,1.07h0a2.5,2.5,0,0,1-1.06,3.37h0a2.5,2.5,0,0,1-1.15.28h0A2.49,2.49,0,0,1,258,83Zm-4.85-8.59A2.51,2.51,0,0,1,254,71h0a2.49,2.49,0,0,1,3.43.83h0a2.5,2.5,0,0,1-.83,3.44h0a2.48,2.48,0,0,1-1.3.36h0A2.5,2.5,0,0,1,253.15,74.4Zm-5.42-8.25h0a2.5,2.5,0,0,1,.6-3.48h0a2.5,2.5,0,0,1,3.48.59h0a2.51,2.51,0,0,1-.59,3.49h0a2.51,2.51,0,0,1-1.44.46h0A2.5,2.5,0,0,1,247.73,66.15Zm-6-7.86a2.48,2.48,0,0,1,.35-3.51h0a2.49,2.49,0,0,1,3.52.35h0a2.51,2.51,0,0,1-.36,3.52h0a2.47,2.47,0,0,1-1.58.56h0A2.46,2.46,0,0,1,241.77,58.28Zm-6.49-7.43h0a2.49,2.49,0,0,1,.12-3.53h0a2.49,2.49,0,0,1,3.53.12h0a2.51,2.51,0,0,1-.12,3.54h0a2.48,2.48,0,0,1-1.71.67h0A2.47,2.47,0,0,1,235.28,50.86Zm-7-7h0a2.51,2.51,0,0,1-.12-3.54h0a2.51,2.51,0,0,1,3.54-.12h0a2.51,2.51,0,0,1,.12,3.54h0a2.53,2.53,0,0,1-1.83.79h0A2.5,2.5,0,0,1,228.3,43.88Zm-7.43-6.49a2.51,2.51,0,0,1-.36-3.52h0a2.51,2.51,0,0,1,3.52-.36h0a2.51,2.51,0,0,1,.36,3.52h0a2.48,2.48,0,0,1-1.94.92h0A2.48,2.48,0,0,1,220.87,37.4Zm-7.85-6a2.5,2.5,0,0,1-.6-3.49h0a2.5,2.5,0,0,1,3.48-.6h0a2.51,2.51,0,0,1,.59,3.49h0a2.48,2.48,0,0,1-2,1h0A2.48,2.48,0,0,1,213,31.43ZM204.78,26a2.5,2.5,0,0,1-.83-3.44h0a2.5,2.5,0,0,1,3.43-.83h0a2.51,2.51,0,0,1,.84,3.44h0a2.51,2.51,0,0,1-2.14,1.2h0A2.5,2.5,0,0,1,204.78,26Zm-8.59-4.84h0a2.5,2.5,0,0,1-1.06-3.37h0a2.5,2.5,0,0,1,3.37-1.07h0a2.51,2.51,0,0,1,1.06,3.38h0a2.49,2.49,0,0,1-2.22,1.34h0A2.53,2.53,0,0,1,196.19,21.17Zm-8.89-4.24a2.5,2.5,0,0,1-1.3-3.29h0a2.5,2.5,0,0,1,3.29-1.29h0a2.5,2.5,0,0,1,1.3,3.29h0a2.5,2.5,0,0,1-2.29,1.5h0A2.49,2.49,0,0,1,187.3,16.93Zm-9.16-3.62h0a2.5,2.5,0,0,1-1.52-3.19h0a2.5,2.5,0,0,1,3.19-1.52h0a2.51,2.51,0,0,1,1.52,3.2h0A2.5,2.5,0,0,1,179,13.46h0A2.45,2.45,0,0,1,178.14,13.32Zm-9.4-3A2.49,2.49,0,0,1,167,7.25h0a2.5,2.5,0,0,1,3.08-1.74h0a2.5,2.5,0,0,1,1.73,3.08h0a2.5,2.5,0,0,1-2.41,1.83h0A2.57,2.57,0,0,1,168.74,10.34ZM159.16,8a2.51,2.51,0,0,1-1.94-3h0a2.5,2.5,0,0,1,3-1.94h0a2.5,2.5,0,0,1,1.94,3h0a2.49,2.49,0,0,1-2.44,2h0A3,3,0,0,1,159.16,8Zm-9.72-1.67a2.5,2.5,0,0,1-2.14-2.82h0a2.51,2.51,0,0,1,2.82-2.14h0a2.52,2.52,0,0,1,2.14,2.82h0a2.51,2.51,0,0,1-2.48,2.16h0A1.94,1.94,0,0,1,149.44,6.34Zm-9.81-1a2.5,2.5,0,0,1-2.32-2.67h0A2.49,2.49,0,0,1,140,.34h0A2.48,2.48,0,0,1,142.29,3h0a2.5,2.5,0,0,1-2.49,2.33h-.17Z"/><path class="cls-1" d="M129.7,5a2.53,2.53,0,0,1-1.77-.73,2.23,2.23,0,0,1-.31-.38,2.52,2.52,0,0,1-.23-.43,2.55,2.55,0,0,1-.14-.47,2,2,0,0,1-.05-.49,2,2,0,0,1,.05-.49,2.55,2.55,0,0,1,.14-.47,2.52,2.52,0,0,1,.23-.43,2.73,2.73,0,0,1,.31-.38,2.38,2.38,0,0,1,.38-.31,3,3,0,0,1,.43-.23,2.54,2.54,0,0,1,.47-.14,2.63,2.63,0,0,1,1,0,2.54,2.54,0,0,1,.47.14,3,3,0,0,1,.43.23,2.37,2.37,0,0,1,.38.31,2.72,2.72,0,0,1,.31.38,2.55,2.55,0,0,1,.23.43,2.58,2.58,0,0,1,.15.47,2.73,2.73,0,0,1,0,.49,2.74,2.74,0,0,1,0,.49,2.57,2.57,0,0,1-.15.47,2.55,2.55,0,0,1-.23.43,2.23,2.23,0,0,1-.31.38A2.53,2.53,0,0,1,129.7,5Z"/><path class="cls-1" d="M229.78,126a2.5,2.5,0,0,1-2.39-1.76c-1.09-3.51-2.37-7-3.8-10.38s-3-6.68-4.76-9.88-3.63-6.32-5.66-9.32S209,88.76,206.66,86s-4.75-5.48-7.29-8-5.25-5-8-7.3-5.71-4.49-8.7-6.51-6.14-3.93-9.32-5.66-6.52-3.34-9.88-4.76-6.87-2.71-10.38-3.8-7.19-2-10.83-2.78A113.26,113.26,0,0,0,131,45.42a2.5,2.5,0,1,1,.51-5,118.33,118.33,0,0,1,11.72,1.79c3.8.78,7.61,1.76,11.31,2.91s7.31,2.47,10.84,4,7,3.15,10.32,5,6.6,3.79,9.73,5.91,6.18,4.39,9.08,6.79,5.72,5,8.38,7.62,5.22,5.48,7.62,8.38,4.69,6,6.79,9.08,4.11,6.41,5.91,9.73,3.49,6.81,5,10.32,2.83,7.18,4,10.84a2.5,2.5,0,0,1-2.39,3.24Z"/><path class="cls-1" d="M235,160.35a2.5,2.5,0,0,1-2.5-2.5,114.92,114.92,0,0,0-.58-11.56,2.5,2.5,0,1,1,5-.5,120.05,120.05,0,0,1,.61,12.06A2.5,2.5,0,0,1,235,160.35Z"/></g></g></svg>