<svg xmlns="http://www.w3.org/2000/svg" viewBox="0 0 491.8 292.2"><defs><style>.cls-1{fill:#FF5722;}</style></defs><title>Asset 106</title><g id="Layer_2" data-name="Layer 2"><g id="Layer_1-2" data-name="Layer 1"><path class="cls-1" d="M369.7,246.9a2.6,2.6,0,0,1-2.4-1.6,2.6,2.6,0,0,1,1.5-3.2L431.5,219a2.5,2.5,0,1,1,1.8,4.6l-62.8,23.2Z"/><path class="cls-1" d="M349.8,254.3a2.5,2.5,0,0,1-.9-4.9l2.7-.9a2.4,2.4,0,0,1,3.2,1.4,2.6,2.6,0,0,1-1.5,3.3l-2.7.9Z"/><path class="cls-1" d="M382.8,217.5a2.5,2.5,0,0,1-.8-4.8l49.5-18.3a2.5,2.5,0,0,1,1.8,4.7l-49.6,18.3Z"/><path class="cls-1" d="M382.8,193.2a2.5,2.5,0,0,1-2.3-1.6,2.6,2.6,0,0,1,1.5-3.3l49.5-18.2a2.5,2.5,0,1,1,1.8,4.6L383.7,193Z"/><path class="cls-1" d="M315.1,292.2h-.4a1.8,1.8,0,0,1-1-.4,2,2,0,0,1-.8-.8,1.9,1.9,0,0,1-.2-.8.7.7,0,0,1-.1-.5V117.8a2.4,2.4,0,0,1,1.7-2.3L459.5,61.8h1.4l1,.4a2.7,2.7,0,0,1,.7.8,1.3,1.3,0,0,1,.3.8,1.1,1.1,0,0,1,.1.5V232.5a8.6,8.6,0,0,1-5.6,8L316,292l-.5.2Zm2.5-172.7V286.1l138.1-50.3a3.6,3.6,0,0,0,2.3-3.3V67.8ZM157.7,231.2h0a2.5,2.5,0,0,1-2.5-2.5V60a8.5,8.5,0,0,1,3.7-7,9.5,9.5,0,0,1,1.7-1h.2L301.2.2a2.4,2.4,0,0,1,3.2,1.4,2.4,2.4,0,0,1-1.5,3.2L162.6,56.6h-.1l-.8.4a3.5,3.5,0,0,0-1.5,2.9V228.7A2.5,2.5,0,0,1,157.7,231.2Zm101.5-62.7h-.9l-46.5-17.2a2.5,2.5,0,0,1-1.6-2.3V77.7h0a2,2,0,0,1,.3-1.1h0l.3-.4h0a2,2,0,0,1,.9-.6h.1l55.4-21.1a2.5,2.5,0,0,1,1.7,0L316.7,72a2.7,2.7,0,0,1,1.6,2.4,2.5,2.5,0,0,1-1.6,2.3l-55.1,21V166a2.6,2.6,0,0,1-1.1,2.1A2.3,2.3,0,0,1,259.2,168.5Zm-44-21.4,41.5,15.3V97.7L215.2,81.5Zm4.4-69.2,39.5,15.4,49.6-18.9-40.6-15Z"/><path class="cls-1" d="M315.1,120.3l-.9-.2-156.5-61a2.4,2.4,0,0,1-1.4-3.2,2.5,2.5,0,0,1,3.2-1.5L316,115.5a2.4,2.4,0,0,1,1.4,3.2A2.4,2.4,0,0,1,315.1,120.3Z"/><path class="cls-1" d="M314.2,292.2l-.9-.2L156.8,231a2.5,2.5,0,0,1-1.5-3.2,2.6,2.6,0,0,1,3.3-1.5l156.5,61.1a2.4,2.4,0,0,1,1.4,3.2A2.5,2.5,0,0,1,314.2,292.2Z"/><path class="cls-1" d="M460.5,66.7l-.9-.2L301.1,4.8a2.4,2.4,0,0,1-1.4-3.2A2.5,2.5,0,0,1,302.9.2L461.4,61.8a2.5,2.5,0,0,1,1.4,3.3A2.5,2.5,0,0,1,460.5,66.7Z"/><path class="cls-1" d="M73.6,200h-.9l-40.6-15a2.5,2.5,0,1,1,1.8-4.7l40.6,15a2.4,2.4,0,0,1,1.4,3.2A2.4,2.4,0,0,1,73.6,200Z"/><path class="cls-1" d="M85.5,204.8l-.8-.2L83,204a2.5,2.5,0,0,1,1.8-4.7l1.6.6a2.6,2.6,0,0,1,1.5,3.2A2.7,2.7,0,0,1,85.5,204.8Z"/><path class="cls-1" d="M65.1,181l-.9-.2L32.1,169a2.5,2.5,0,1,1,1.8-4.7l32,11.8a2.5,2.5,0,0,1,1.5,3.2A2.4,2.4,0,0,1,65.1,181Z"/><path class="cls-1" d="M65.1,165.2h-.9L32.1,153.2a2.5,2.5,0,1,1,1.8-4.6l32,11.8a2.5,2.5,0,0,1-.8,4.8Z"/><path class="cls-1" d="M119.1,231.9h-.9L32.8,200.6a6.2,6.2,0,0,1-4-5.8V92.7l.3-.8.7-.8a2.1,2.1,0,0,1,1.1-.4,1.1,1.1,0,0,1,.8,0h.5l87.7,32.4a2.6,2.6,0,0,1,1.7,2.3V229.3a.9.9,0,0,1-.1.5,1.1,1.1,0,0,1-.3.8,1.8,1.8,0,0,1-.7.8l-1,.4ZM33.8,96.7v98.1a1.2,1.2,0,0,0,.7,1.1l82.1,29.9V127.3Zm119.1,18.1H152l-34.2-13.1a2.5,2.5,0,0,1,0-4.6l28.8-10.7a2.8,2.8,0,0,1,1.8,0l10.2,3.9a2.6,2.6,0,0,1,1.4,3.2,2.5,2.5,0,0,1-3.2,1.5l-9.3-3.6-21.7,8,28,10.7a2.4,2.4,0,0,1,1.4,3.2A2.5,2.5,0,0,1,152.9,114.8Zm4.8-45.1h-.9L126.1,58.2a2.5,2.5,0,1,1,1.7-4.6l30.7,11.3a2.5,2.5,0,0,1-.8,4.8Z"/><path class="cls-1" d="M119.1,128a2.6,2.6,0,0,1-2.4-1.6,2.5,2.5,0,0,1,1.5-3.2l38.6-15a2.5,2.5,0,0,1,3.2,1.4,2.4,2.4,0,0,1-1.4,3.2L120,127.9Z"/><path class="cls-1" d="M119.6,231.9a2.5,2.5,0,0,1-.9-4.9l38.1-14.8a2.5,2.5,0,0,1,3.2,1.4,2.5,2.5,0,0,1-1.4,3.3l-38,14.8Z"/><path class="cls-1" d="M31.3,95.6A2.4,2.4,0,0,1,29,94.1a2.5,2.5,0,0,1,1.4-3.3l95.7-37.2a2.5,2.5,0,1,1,1.8,4.6L32.2,95.5Z"/><path class="cls-1" d="M14.2,180.5a2.5,2.5,0,0,1,2.5-2.5h0a2.5,2.5,0,0,1,2.5,2.5h0a2.5,2.5,0,0,1-2.5,2.5h0A2.5,2.5,0,0,1,14.2,180.5Zm0-10a2.5,2.5,0,0,1,2.5-2.5h0a2.5,2.5,0,0,1,2.5,2.5h0a2.5,2.5,0,0,1-2.5,2.5h0A2.5,2.5,0,0,1,14.2,170.5Zm0-10a2.5,2.5,0,0,1,2.5-2.5h0a2.5,2.5,0,0,1,2.5,2.5h0a2.5,2.5,0,0,1-2.5,2.5h0A2.5,2.5,0,0,1,14.2,160.5Zm0-10a2.5,2.5,0,0,1,2.5-2.5h0a2.5,2.5,0,0,1,2.5,2.5h0a2.5,2.5,0,0,1-2.5,2.5h0A2.5,2.5,0,0,1,14.2,150.5Zm0-10a2.5,2.5,0,0,1,2.5-2.5h0a2.5,2.5,0,0,1,2.5,2.5h0a2.5,2.5,0,0,1-2.5,2.5h0A2.5,2.5,0,0,1,14.2,140.5Zm0-10a2.5,2.5,0,0,1,2.5-2.5h0a2.5,2.5,0,0,1,2.5,2.5h0a2.5,2.5,0,0,1-2.5,2.5h0A2.5,2.5,0,0,1,14.2,130.5Zm0-10a2.5,2.5,0,0,1,2.5-2.5h0a2.5,2.5,0,0,1,2.5,2.5h0a2.5,2.5,0,0,1-2.5,2.5h0A2.5,2.5,0,0,1,14.2,120.5Zm0-10a2.5,2.5,0,0,1,2.5-2.5h0a2.5,2.5,0,0,1,2.5,2.5h0a2.5,2.5,0,0,1-2.5,2.5h0A2.5,2.5,0,0,1,14.2,110.5Zm0-10A2.5,2.5,0,0,1,16.7,98h0a2.5,2.5,0,0,1,2.5,2.5h0a2.5,2.5,0,0,1-2.5,2.5h0A2.5,2.5,0,0,1,14.2,100.5Z"/><path class="cls-1" d="M0,162a2.5,2.5,0,0,1,2.5-2.5h0A2.5,2.5,0,0,1,5,162H5a2.5,2.5,0,0,1-2.5,2.5h0A2.5,2.5,0,0,1,0,162Zm0-10a2.5,2.5,0,0,1,2.5-2.5h0A2.5,2.5,0,0,1,5,152H5a2.5,2.5,0,0,1-2.5,2.5h0A2.5,2.5,0,0,1,0,152Zm0-10a2.5,2.5,0,0,1,2.5-2.5h0A2.5,2.5,0,0,1,5,142H5a2.5,2.5,0,0,1-2.5,2.5h0A2.5,2.5,0,0,1,0,142Zm0-10a2.5,2.5,0,0,1,2.5-2.5h0A2.5,2.5,0,0,1,5,132H5a2.5,2.5,0,0,1-2.5,2.5h0A2.5,2.5,0,0,1,0,132Zm0-10a2.5,2.5,0,0,1,2.5-2.5h0A2.5,2.5,0,0,1,5,122H5a2.5,2.5,0,0,1-2.5,2.5h0A2.5,2.5,0,0,1,0,122Z"/><path class="cls-1" d="M471.6,221.6a2.5,2.5,0,0,1,2.5-2.5h0a2.5,2.5,0,0,1,2.5,2.5h0a2.5,2.5,0,0,1-2.5,2.5h0A2.5,2.5,0,0,1,471.6,221.6Zm0-10a2.5,2.5,0,0,1,2.5-2.5h0a2.5,2.5,0,0,1,2.5,2.5h0a2.5,2.5,0,0,1-2.5,2.5h0A2.5,2.5,0,0,1,471.6,211.6Zm0-10a2.5,2.5,0,0,1,2.5-2.5h0a2.5,2.5,0,0,1,2.5,2.5h0a2.5,2.5,0,0,1-2.5,2.5h0A2.5,2.5,0,0,1,471.6,201.6Zm0-10a2.5,2.5,0,0,1,2.5-2.5h0a2.5,2.5,0,0,1,2.5,2.5h0a2.5,2.5,0,0,1-2.5,2.5h0A2.5,2.5,0,0,1,471.6,191.6Zm0-10a2.5,2.5,0,0,1,2.5-2.5h0a2.5,2.5,0,0,1,2.5,2.5h0a2.5,2.5,0,0,1-2.5,2.5h0A2.5,2.5,0,0,1,471.6,181.6Zm0-10a2.5,2.5,0,0,1,2.5-2.5h0a2.5,2.5,0,0,1,2.5,2.5h0a2.5,2.5,0,0,1-2.5,2.5h0A2.5,2.5,0,0,1,471.6,171.6Zm0-10a2.5,2.5,0,0,1,2.5-2.5h0a2.5,2.5,0,0,1,2.5,2.5h0a2.5,2.5,0,0,1-2.5,2.5h0A2.5,2.5,0,0,1,471.6,161.6Zm0-10a2.5,2.5,0,0,1,2.5-2.5h0a2.5,2.5,0,0,1,2.5,2.5h0a2.5,2.5,0,0,1-2.5,2.5h0A2.5,2.5,0,0,1,471.6,151.6Zm0-10a2.5,2.5,0,0,1,2.5-2.5h0a2.5,2.5,0,0,1,2.5,2.5h0a2.5,2.5,0,0,1-2.5,2.5h0A2.5,2.5,0,0,1,471.6,141.6Zm0-10a2.5,2.5,0,0,1,2.5-2.5h0a2.5,2.5,0,0,1,2.5,2.5h0a2.5,2.5,0,0,1-2.5,2.5h0A2.5,2.5,0,0,1,471.6,131.6Zm0-10a2.5,2.5,0,0,1,2.5-2.5h0a2.5,2.5,0,0,1,2.5,2.5h0a2.5,2.5,0,0,1-2.5,2.5h0A2.5,2.5,0,0,1,471.6,121.6Zm0-10a2.5,2.5,0,0,1,2.5-2.5h0a2.5,2.5,0,0,1,2.5,2.5h0a2.5,2.5,0,0,1-2.5,2.5h0A2.5,2.5,0,0,1,471.6,111.6Zm0-10a2.5,2.5,0,0,1,2.5-2.5h0a2.5,2.5,0,0,1,2.5,2.5h0a2.5,2.5,0,0,1-2.5,2.5h0A2.5,2.5,0,0,1,471.6,101.6Zm0-10a2.5,2.5,0,0,1,2.5-2.5h0a2.5,2.5,0,0,1,2.5,2.5h0a2.5,2.5,0,0,1-2.5,2.5h0A2.5,2.5,0,0,1,471.6,91.6Zm0-10a2.5,2.5,0,0,1,2.5-2.5h0a2.5,2.5,0,0,1,2.5,2.5h0a2.5,2.5,0,0,1-2.5,2.5h0A2.5,2.5,0,0,1,471.6,81.6Zm0-10a2.5,2.5,0,0,1,2.5-2.5h0a2.5,2.5,0,0,1,2.5,2.5h0a2.5,2.5,0,0,1-2.5,2.5h0A2.5,2.5,0,0,1,471.6,71.6Zm0-10a2.5,2.5,0,0,1,2.5-2.5h0a2.5,2.5,0,0,1,2.5,2.5h0a2.5,2.5,0,0,1-2.5,2.5h0A2.5,2.5,0,0,1,471.6,61.6Z"/><path class="cls-1" d="M486.8,173.1a2.5,2.5,0,0,1,2.5-2.5h0a2.5,2.5,0,0,1,2.5,2.5h0a2.5,2.5,0,0,1-2.5,2.5h0A2.5,2.5,0,0,1,486.8,173.1Zm0-10a2.5,2.5,0,0,1,2.5-2.5h0a2.5,2.5,0,0,1,2.5,2.5h0a2.5,2.5,0,0,1-2.5,2.5h0A2.5,2.5,0,0,1,486.8,163.1Zm0-10a2.5,2.5,0,0,1,2.5-2.5h0a2.5,2.5,0,0,1,2.5,2.5h0a2.5,2.5,0,0,1-2.5,2.5h0A2.5,2.5,0,0,1,486.8,153.1Zm0-10a2.5,2.5,0,0,1,2.5-2.5h0a2.5,2.5,0,0,1,2.5,2.5h0a2.5,2.5,0,0,1-2.5,2.5h0A2.5,2.5,0,0,1,486.8,143.1Zm0-10a2.5,2.5,0,0,1,2.5-2.5h0a2.5,2.5,0,0,1,2.5,2.5h0a2.5,2.5,0,0,1-2.5,2.5h0A2.5,2.5,0,0,1,486.8,133.1Zm0-10a2.5,2.5,0,0,1,2.5-2.5h0a2.5,2.5,0,0,1,2.5,2.5h0a2.5,2.5,0,0,1-2.5,2.5h0A2.5,2.5,0,0,1,486.8,123.1Zm0-10a2.5,2.5,0,0,1,2.5-2.5h0a2.5,2.5,0,0,1,2.5,2.5h0a2.5,2.5,0,0,1-2.5,2.5h0A2.5,2.5,0,0,1,486.8,113.1Zm0-10a2.5,2.5,0,0,1,2.5-2.5h0a2.5,2.5,0,0,1,2.5,2.5h0a2.5,2.5,0,0,1-2.5,2.5h0A2.5,2.5,0,0,1,486.8,103.1Zm0-10a2.5,2.5,0,0,1,2.5-2.5h0a2.5,2.5,0,0,1,2.5,2.5h0a2.5,2.5,0,0,1-2.5,2.5h0A2.5,2.5,0,0,1,486.8,93.1Z"/></g></g></svg>