<svg xmlns="http://www.w3.org/2000/svg" viewBox="0 0 580.9 247.26"><defs><style>.cls-1{opacity:0.92;}.cls-2{fill:#e6ae47;}.cls-3{fill:#888;}</style></defs><title>vision-alt</title><g id="Layer_2" data-name="Layer 2"><g id="Layer_1-2" data-name="Layer 1"><g class="cls-1"><path class="cls-2" d="M408,152.38h.13l-.12,0Z"/></g><g class="cls-1"><path class="cls-2" d="M408,152.37h0Z"/></g><path class="cls-3" d="M233.81,210.64h0l-.12-.17Z"/><path class="cls-3" d="M544.9,167a2.5,2.5,0,0,1-2.08-1.12c-15.72-23.67-43.3-45.13-77.66-60.41C422.73,86.61,371.58,77,313.13,77c-144.61,0-206,55.71-229.74,88.92A2.5,2.5,0,1,1,79.32,163c24.29-34,87-91,233.81-91,59.16,0,111,9.71,154.06,28.87,35.22,15.66,63.56,37.76,79.8,62.21A2.5,2.5,0,0,1,544.9,167Z"/><path class="cls-3" d="M578.4,155a2.5,2.5,0,0,1-2.09-1.12C541.06,100.76,453.4,44,313.13,44,152.43,44,79.22,112.88,49.89,153.93A2.5,2.5,0,1,1,45.82,151c15.45-21.63,44.11-52.4,92.86-76.18S246.11,39,313.13,39c142.25,0,231.38,57.9,267.36,112.08A2.5,2.5,0,0,1,578.4,155Z"/><path class="cls-3" d="M301.86,247.26a87.17,87.17,0,1,1,38.62-9.12A87.24,87.24,0,0,1,301.86,247.26ZM301.65,78a82.08,82.08,0,1,0,73.67,45.6A81.59,81.59,0,0,0,301.65,78Z"/><path class="cls-3" d="M301.82,203.08a43,43,0,1,1,19-4.49h0A42.76,42.76,0,0,1,301.82,203.08Zm-.1-80.87a37.92,37.92,0,1,0,16.92,71.9h0a37.92,37.92,0,0,0-16.92-71.9Z"/><path class="cls-3" d="M235,213.14a2.5,2.5,0,0,1-1.11-4.74L274,188.5a2.5,2.5,0,1,1,2.22,4.48l-40.12,19.9A2.48,2.48,0,0,1,235,213.14Z"/><path class="cls-3" d="M221.15,185.26a2.5,2.5,0,0,1-1.11-4.74l40.12-19.9a2.5,2.5,0,1,1,2.22,4.48L222.26,185A2.49,2.49,0,0,1,221.15,185.26Z"/><path class="cls-3" d="M292.84,191.25a2.49,2.49,0,0,1-.8-.13,33.47,33.47,0,0,1-21-42.41,2.5,2.5,0,1,1,4.74,1.6,28.48,28.48,0,0,0,17.9,36.08,2.5,2.5,0,0,1-.8,4.87Z"/><path class="cls-3" d="M292.15,176.81a2.49,2.49,0,0,1-.8-.13,17.44,17.44,0,0,1-10.95-22.07,2.5,2.5,0,1,1,4.74,1.6,12.44,12.44,0,0,0,7.81,15.74,2.5,2.5,0,0,1-.8,4.87Z"/><path class="cls-3" d="M97.39,64.64a2.5,2.5,0,0,1-2.22-2.75h0a2.49,2.49,0,0,1,2.75-2.22h0a2.5,2.5,0,0,1,2.22,2.75h0a2.5,2.5,0,0,1-2.48,2.23h-.27Zm1.07-9.94a2.5,2.5,0,0,1-2.22-2.76h0A2.5,2.5,0,0,1,99,49.72h0a2.51,2.51,0,0,1,2.22,2.76h0a2.5,2.5,0,0,1-2.48,2.23h-.27Zm1.06-10A2.49,2.49,0,0,1,97.32,42h0a2.5,2.5,0,0,1,2.75-2.22h0a2.51,2.51,0,0,1,2.22,2.76h0a2.5,2.5,0,0,1-2.49,2.23h0Zm1.07-9.94a2.51,2.51,0,0,1-2.22-2.75h0a2.5,2.5,0,0,1,2.75-2.22h0a2.49,2.49,0,0,1,2.22,2.75h0a2.5,2.5,0,0,1-2.48,2.24h0Zm1.07-9.94a2.5,2.5,0,0,1-2.22-2.75h0a2.49,2.49,0,0,1,2.75-2.22h0a2.49,2.49,0,0,1,2.22,2.75h0a2.5,2.5,0,0,1-2.48,2.23h-.27Zm1.07-9.94a2.51,2.51,0,0,1-2.22-2.76h0A2.51,2.51,0,0,1,103.26,10h0a2.51,2.51,0,0,1,2.22,2.76h0A2.5,2.5,0,0,1,103,14.94h-.27Zm1.07-10a2.49,2.49,0,0,1-2.22-2.75h0A2.5,2.5,0,0,1,104.34,0h0a2.5,2.5,0,0,1,2.22,2.75h0A2.5,2.5,0,0,1,104.08,5h0Z"/><path class="cls-3" d="M72,70.68a2.5,2.5,0,0,1,.38-3.52h0a2.51,2.51,0,0,1,3.51.38h0a2.5,2.5,0,0,1-.38,3.52h0a2.48,2.48,0,0,1-1.56.55h0A2.5,2.5,0,0,1,72,70.68Zm-6.28-7.79a2.5,2.5,0,0,1,.38-3.51h0a2.51,2.51,0,0,1,3.52.37h0a2.52,2.52,0,0,1-.38,3.52h0a2.5,2.5,0,0,1-1.57.55h0A2.48,2.48,0,0,1,65.76,62.89Zm-6.27-7.78a2.5,2.5,0,0,1,.37-3.52h0a2.51,2.51,0,0,1,3.52.38h0A2.49,2.49,0,0,1,63,55.48h0a2.43,2.43,0,0,1-1.56.56h0A2.5,2.5,0,0,1,59.49,55.11ZM53.2,47.32a2.5,2.5,0,0,1,.38-3.51h0a2.49,2.49,0,0,1,3.51.37h0a2.51,2.51,0,0,1-.37,3.52h0a2.52,2.52,0,0,1-1.57.55h0A2.52,2.52,0,0,1,53.2,47.32Zm-6.27-7.79A2.49,2.49,0,0,1,47.31,36h0a2.5,2.5,0,0,1,3.52.38h0a2.49,2.49,0,0,1-.38,3.51h0a2.49,2.49,0,0,1-1.57.56h0A2.46,2.46,0,0,1,46.93,39.53Zm-6.28-7.78A2.5,2.5,0,0,1,41,28.23h0a2.5,2.5,0,0,1,3.51.38h0a2.51,2.51,0,0,1-.37,3.52h0a2.53,2.53,0,0,1-1.57.55h0A2.52,2.52,0,0,1,40.66,31.75ZM34.39,24a2.49,2.49,0,0,1,.37-3.51h0a2.5,2.5,0,0,1,3.52.38h0a2.49,2.49,0,0,1-.38,3.51h0a2.51,2.51,0,0,1-1.57.55h0A2.48,2.48,0,0,1,34.39,24Z"/><path class="cls-3" d="M61.89,93.26a2.51,2.51,0,0,1-2.22-2.76h0a2.49,2.49,0,0,1,2.75-2.21h0A2.5,2.5,0,0,1,64.64,91h0a2.51,2.51,0,0,1-2.49,2.23h-.27Zm-9.94-1.07a2.5,2.5,0,0,1-2.22-2.75h0a2.49,2.49,0,0,1,2.75-2.22h0A2.49,2.49,0,0,1,54.7,90h0a2.5,2.5,0,0,1-2.48,2.23h-.27ZM42,91.12a2.49,2.49,0,0,1-2.22-2.75h0a2.49,2.49,0,0,1,2.75-2.22h0a2.5,2.5,0,0,1,2.22,2.75h0a2.5,2.5,0,0,1-2.48,2.23H42Zm-10-1.07a2.51,2.51,0,0,1-2.22-2.75h0a2.51,2.51,0,0,1,2.76-2.22h0a2.51,2.51,0,0,1,2.22,2.75h0a2.5,2.5,0,0,1-2.49,2.24h0ZM22.12,89a2.5,2.5,0,0,1-2.22-2.75h0A2.51,2.51,0,0,1,22.64,84h0a2.5,2.5,0,0,1,2.22,2.76h0A2.49,2.49,0,0,1,22.39,89h0Zm-9.94-1.06A2.49,2.49,0,0,1,10,85.17h0A2.5,2.5,0,0,1,12.71,83h0a2.5,2.5,0,0,1,2.22,2.75h0a2.5,2.5,0,0,1-2.48,2.23h-.27ZM2.24,86.85A2.49,2.49,0,0,1,0,84.1H0a2.49,2.49,0,0,1,2.75-2.22h0A2.5,2.5,0,0,1,5,84.63H5a2.5,2.5,0,0,1-2.48,2.23H2.24Z"/><path class="cls-3" d="M20.45,153.67a2.5,2.5,0,0,1,.38-3.51h0a2.49,2.49,0,0,1,3.51.37h0a2.51,2.51,0,0,1-.37,3.52h0a2.51,2.51,0,0,1-1.57.55h0A2.48,2.48,0,0,1,20.45,153.67Zm7.79-6.27a2.5,2.5,0,0,1,.38-3.52h0a2.49,2.49,0,0,1,3.51.38h0a2.49,2.49,0,0,1-.38,3.51h0a2.43,2.43,0,0,1-1.56.56h0A2.5,2.5,0,0,1,28.24,147.4ZM36,141.12a2.5,2.5,0,0,1,.38-3.51h0a2.51,2.51,0,0,1,3.52.37h0a2.52,2.52,0,0,1-.38,3.52h0a2.5,2.5,0,0,1-1.57.55h0A2.52,2.52,0,0,1,36,141.12Zm7.79-6.27a2.5,2.5,0,0,1,.38-3.52h0a2.5,2.5,0,0,1,3.51.38h0a2.49,2.49,0,0,1-.38,3.51h0a2.43,2.43,0,0,1-1.56.56h0A2.5,2.5,0,0,1,43.81,134.85Zm7.79-6.28a2.51,2.51,0,0,1,.37-3.52h0a2.52,2.52,0,0,1,3.52.38h0a2.51,2.51,0,0,1-.38,3.52h0a2.51,2.51,0,0,1-1.57.55h0A2.48,2.48,0,0,1,51.6,128.57Zm7.78-6.28a2.49,2.49,0,0,1,.38-3.51h0a2.5,2.5,0,0,1,3.52.38h0a2.5,2.5,0,0,1-.38,3.51h0a2.51,2.51,0,0,1-1.57.56h0A2.5,2.5,0,0,1,59.37,122.29ZM67.16,116a2.49,2.49,0,0,1,.37-3.51h0a2.51,2.51,0,0,1,3.52.37h0a2.5,2.5,0,0,1-.38,3.52h0a2.48,2.48,0,0,1-1.56.55h0A2.5,2.5,0,0,1,67.16,116Z"/><path class="cls-3" d="M116.28,76.43a2.51,2.51,0,0,1,.38-3.51h0a2.5,2.5,0,0,1,3.52.38h0a2.51,2.51,0,0,1-.38,3.51h0a2.54,2.54,0,0,1-1.57.56h0A2.49,2.49,0,0,1,116.28,76.43Zm7.79-6.27a2.5,2.5,0,0,1,.38-3.52h0A2.51,2.51,0,0,1,128,67h0a2.5,2.5,0,0,1-.38,3.52h0a2.48,2.48,0,0,1-1.57.55h0A2.48,2.48,0,0,1,124.07,70.16Zm7.78-6.28a2.51,2.51,0,0,1,.38-3.51h0a2.5,2.5,0,0,1,3.52.38h0a2.51,2.51,0,0,1-.38,3.51h0a2.51,2.51,0,0,1-1.57.55h0A2.49,2.49,0,0,1,131.85,63.88Zm7.79-6.27A2.5,2.5,0,0,1,140,54.1h0a2.5,2.5,0,0,1,3.51.38h0a2.5,2.5,0,0,1-.38,3.52h0a2.48,2.48,0,0,1-1.56.55h0A2.5,2.5,0,0,1,139.64,57.61Zm7.79-6.28a2.49,2.49,0,0,1,.37-3.51h0a2.5,2.5,0,0,1,3.52.38h0a2.5,2.5,0,0,1-.38,3.51h0a2.5,2.5,0,0,1-1.57.55h0A2.45,2.45,0,0,1,147.43,51.33Zm7.78-6.27a2.5,2.5,0,0,1,.38-3.52h0a2.49,2.49,0,0,1,3.51.38h0a2.51,2.51,0,0,1-.37,3.52h0a2.52,2.52,0,0,1-1.57.55h0A2.5,2.5,0,0,1,155.2,45.06ZM163,38.78a2.49,2.49,0,0,1,.38-3.51h0a2.5,2.5,0,0,1,3.51.37h0a2.5,2.5,0,0,1-.38,3.52h0a2.48,2.48,0,0,1-1.56.55h0A2.5,2.5,0,0,1,163,38.78Z"/><path class="cls-3" d="M159.07,228.55h0a2.5,2.5,0,0,1-1.27-3.3h0a2.49,2.49,0,0,1,3.3-1.27h0a2.49,2.49,0,0,1,1.27,3.3h0a2.48,2.48,0,0,1-2.28,1.48h0A2.61,2.61,0,0,1,159.07,228.55Zm-9.14-4.29h0a2.5,2.5,0,0,1-1.14-3.35h0a2.5,2.5,0,0,1,3.35-1.14h0a2.51,2.51,0,0,1,1.13,3.35h0a2.49,2.49,0,0,1-2.24,1.39h0A2.39,2.39,0,0,1,149.93,224.26Zm-9-4.64a2.49,2.49,0,0,1-1-3.39h0a2.49,2.49,0,0,1,3.39-1h0a2.5,2.5,0,0,1,1,3.39h0a2.51,2.51,0,0,1-2.2,1.3h0A2.45,2.45,0,0,1,141,219.62Zm-8.77-5a2.5,2.5,0,0,1-.85-3.43h0a2.5,2.5,0,0,1,3.43-.85h0a2.5,2.5,0,0,1,.85,3.43h0a2.5,2.5,0,0,1-2.14,1.21h0A2.52,2.52,0,0,1,132.18,214.59Zm-8.54-5.42a2.51,2.51,0,0,1-.69-3.47h0a2.5,2.5,0,0,1,3.47-.69h0a2.5,2.5,0,0,1,.69,3.47h0A2.5,2.5,0,0,1,125,209.6h0A2.54,2.54,0,0,1,123.64,209.17Zm-8.27-5.85h0a2.49,2.49,0,0,1-.51-3.49h0a2.5,2.5,0,0,1,3.5-.51h0a2.51,2.51,0,0,1,.51,3.5h0a2.5,2.5,0,0,1-2,1h0A2.45,2.45,0,0,1,115.37,203.32Zm-8-6.27a2.5,2.5,0,0,1-.32-3.52h0a2.5,2.5,0,0,1,3.52-.32h0a2.5,2.5,0,0,1,.32,3.52h0a2.46,2.46,0,0,1-1.92.9h0A2.51,2.51,0,0,1,107.41,197.05Zm-7.6-6.72h0a2.5,2.5,0,0,1-.11-3.54h0a2.52,2.52,0,0,1,3.54-.11h0a2.51,2.51,0,0,1,.1,3.54h0a2.49,2.49,0,0,1-1.82.79h0A2.51,2.51,0,0,1,99.82,190.33Zm-7.18-7.2a2.5,2.5,0,0,1,.13-3.53h0a2.5,2.5,0,0,1,3.53.12h0a2.51,2.51,0,0,1-.12,3.54h0a2.5,2.5,0,0,1-1.71.67h0A2.5,2.5,0,0,1,92.64,183.13ZM86,175.45a2.49,2.49,0,0,1,.38-3.51h0a2.49,2.49,0,0,1,3.51.37h0a2.5,2.5,0,0,1-.38,3.52h0a2.48,2.48,0,0,1-1.56.55h0A2.5,2.5,0,0,1,86,175.45Zm-6.08-8.2a2.51,2.51,0,0,1,.67-3.47h0a2.5,2.5,0,0,1,3.47.67h0a2.49,2.49,0,0,1-.66,3.47h0a2.5,2.5,0,0,1-1.4.43h0A2.49,2.49,0,0,1,79.89,167.25Z"/><path class="cls-3" d="M465,227.17a2.49,2.49,0,0,1,1.24-3.31h0a2.5,2.5,0,0,1,3.31,1.24h0a2.51,2.51,0,0,1-1.24,3.31h0a2.54,2.54,0,0,1-1,.22h0A2.5,2.5,0,0,1,465,227.17Zm9-4.24a2.5,2.5,0,0,1,1.11-3.36h0a2.51,2.51,0,0,1,3.36,1.1h0a2.5,2.5,0,0,1-1.11,3.36h0a2.38,2.38,0,0,1-1.12.27h0A2.52,2.52,0,0,1,474,222.93Zm8.88-4.61a2.49,2.49,0,0,1,1-3.4h0a2.5,2.5,0,0,1,3.41,1h0a2.52,2.52,0,0,1-1,3.41h0a2.58,2.58,0,0,1-1.22.32h0A2.48,2.48,0,0,1,482.9,218.32Zm8.66-5a2.5,2.5,0,0,1,.8-3.44h0a2.5,2.5,0,0,1,3.44.8h0a2.5,2.5,0,0,1-.8,3.44h0a2.46,2.46,0,0,1-1.32.38h0A2.47,2.47,0,0,1,491.56,213.32Zm8.42-5.39a2.49,2.49,0,0,1,.63-3.47h0a2.49,2.49,0,0,1,3.48.63h0a2.49,2.49,0,0,1-.63,3.47h0A2.51,2.51,0,0,1,502,209h0A2.51,2.51,0,0,1,500,207.93Zm8.15-5.79a2.5,2.5,0,0,1,.45-3.51h0a2.51,2.51,0,0,1,3.51.45h0a2.5,2.5,0,0,1-.46,3.51h0a2.48,2.48,0,0,1-1.52.52h0A2.48,2.48,0,0,1,508.13,202.14Zm7.83-6.21a2.51,2.51,0,0,1,.27-3.53h0a2.5,2.5,0,0,1,3.53.27h0a2.5,2.5,0,0,1-.27,3.53h0a2.51,2.51,0,0,1-1.63.6h0A2.53,2.53,0,0,1,516,195.93Zm7.5-6.62a2.5,2.5,0,0,1,.07-3.54h0a2.52,2.52,0,0,1,3.54.07h0a2.5,2.5,0,0,1-.07,3.54h0a2.51,2.51,0,0,1-1.73.7h0A2.48,2.48,0,0,1,523.47,189.31Zm7.1-7a2.51,2.51,0,0,1-.14-3.53h0a2.51,2.51,0,0,1,3.54-.14h0a2.52,2.52,0,0,1,.14,3.54h0a2.53,2.53,0,0,1-1.84.8h0A2.49,2.49,0,0,1,530.56,182.27Zm6.68-7.44a2.5,2.5,0,0,1-.35-3.52h0a2.48,2.48,0,0,1,3.51-.35h0a2.49,2.49,0,0,1,.36,3.51h0a2.49,2.49,0,0,1-1.94.92h0A2.46,2.46,0,0,1,537.25,174.83Zm6.2-7.84a2.51,2.51,0,0,1-.58-3.49h0a2.51,2.51,0,0,1,3.49-.58h0a2.51,2.51,0,0,1,.58,3.49h0a2.51,2.51,0,0,1-2,1h0A2.52,2.52,0,0,1,543.44,167Z"/></g></g></svg>