<svg xmlns="http://www.w3.org/2000/svg" viewBox="0 0 500 62.56"><defs><style>.cls-1{fill:#bbb;}</style></defs><title>Asset 1</title><g id="Layer_2" data-name="Layer 2"><g id="svg2"><g id="g12"><path id="path406" class="cls-1" d="M413.12,11.48a1.73,1.73,0,0,1,1.81,1.14l3.44,7.32a2.16,2.16,0,0,0,2.26,1.43h.91A2.48,2.48,0,0,0,424,18.9V4.07a2.48,2.48,0,0,0-2.49-2.47h-47.3a2.48,2.48,0,0,0-2.49,2.47V18.9a2.48,2.48,0,0,0,2.49,2.47h.9a2.16,2.16,0,0,0,2.26-1.43l3.44-7.32a1.74,1.74,0,0,1,1.81-1.14h6.53V51.24A1.72,1.72,0,0,1,388,53l-4.88,2.26a2.15,2.15,0,0,0-1.44,2.24v.9a2.48,2.48,0,0,0,2.49,2.47h27.39a2.48,2.48,0,0,0,2.49-2.47v-.9a2.14,2.14,0,0,0-1.44-2.24L407.74,53a1.72,1.72,0,0,1-1.15-1.79V11.48h6.53ZM129.39,41.8a1.81,1.81,0,0,0-1.49-.66h-1.6a2.48,2.48,0,0,0-2.49,2.47V58.43a2.48,2.48,0,0,0,2.49,2.47h2.23a1.91,1.91,0,0,0,.52-.07l3.67-1a19,19,0,0,1,11.35.31c14.51,4.71,26-12.65,15.8-24L144.38,19a4.48,4.48,0,0,1,.37-6.35,4.56,4.56,0,0,1,6.4.37l6.93,7.72a1.8,1.8,0,0,0,1.48.66h1.6a2.48,2.48,0,0,0,2.49-2.47V4.07a2.48,2.48,0,0,0-2.49-2.47h-2.23a1.9,1.9,0,0,0-.52.07l-3.67,1a19,19,0,0,1-11.35-.31c-14.51-4.72-26,12.65-15.8,24l15.48,17.24a4.47,4.47,0,0,1-.36,6.35,4.56,4.56,0,0,1-6.4-.36ZM454.64,52.39V36.19h18.92v16.2a1.72,1.72,0,0,1-1.15,1.79L470,55.29a2.14,2.14,0,0,0-1.44,2.24v.9a2.48,2.48,0,0,0,2.49,2.47H496a2.48,2.48,0,0,0,2.49-2.47v-.9A2.15,2.15,0,0,0,497,55.29L492.13,53A1.72,1.72,0,0,1,491,51.24v-40a1.71,1.71,0,0,1,1.15-1.79L497,7.2A2.15,2.15,0,0,0,498.46,5v-.9A2.48,2.48,0,0,0,496,1.59h-24.9a2.48,2.48,0,0,0-2.49,2.47V5A2.15,2.15,0,0,0,470,7.2l2.4,1.11a1.71,1.71,0,0,1,1.15,1.79V26.3H454.64V10.1a1.71,1.71,0,0,1,1.15-1.79l2.39-1.11A2.14,2.14,0,0,0,459.61,5v-.9a2.48,2.48,0,0,0-2.49-2.47H432.23a2.48,2.48,0,0,0-2.49,2.47V5a2.14,2.14,0,0,0,1.44,2.24l4.88,2.26a1.71,1.71,0,0,1,1.15,1.79v40A1.72,1.72,0,0,1,436.06,53l-4.88,2.26a2.14,2.14,0,0,0-1.44,2.24v.9a2.48,2.48,0,0,0,2.49,2.47h24.89a2.48,2.48,0,0,0,2.49-2.47v-.9a2.14,2.14,0,0,0-1.44-2.24l-2.39-1.11a1.72,1.72,0,0,1-1.15-1.79M1.58,31.25c0,11.47,3.66,23,15.82,27.69,6,2.28,13.16,2.43,19.29,1.33a24.06,24.06,0,0,0,17.5-11.75,4.84,4.84,0,0,0,.49-1.15,4.64,4.64,0,0,0,0-2.48,4.35,4.35,0,0,0-3.29-3.51,4.39,4.39,0,0,0-4.75,1c-1.33,1.13-1.93,2.72-3,4a13.08,13.08,0,0,1-6.88,4.37C31.3,52,26.43,49.32,23.31,45.14c-3.74-5-4.93-11.84-4-17.83,2-13.22,13-20.7,24.46-11.89a53.81,53.81,0,0,1,5.62,5.35,2,2,0,0,0,1.61.6c1.2,0,2.31.27,3.29-.85s.6-2.18.6-3.35V6.64c0-2.48.37-5-3.05-5-3.27,0-6.34,1.22-9.66,1a47.56,47.56,0,0,1-4.81-.75A21.91,21.91,0,0,0,35,1.63,41.67,41.67,0,0,0,18,4.06C5.52,8.68,1.58,19.24,1.58,31.25m251.25-24A2.15,2.15,0,0,0,254.27,5v-.9a2.48,2.48,0,0,0-2.49-2.47H231.87a2.48,2.48,0,0,0-2.49,2.47V5a2.15,2.15,0,0,0,1.44,2.24l4,1.86a1.68,1.68,0,0,1,1.06,2.39l-6.34,19.79-9-27.93a2.14,2.14,0,0,0-2.37-1.72h-6.09a2.14,2.14,0,0,0-2.38,1.72l-9,27.93-6.54-20.39a1.68,1.68,0,0,1,1.06-2.39l2.73-1.26A2.15,2.15,0,0,0,199.5,5v-.9A2.48,2.48,0,0,0,197,1.6h-24.9a2.48,2.48,0,0,0-2.49,2.47V5a2.15,2.15,0,0,0,1.44,2.24l3.62,1.67a1.8,1.8,0,0,1,1.06,1.19l15.74,49.11a2.13,2.13,0,0,0,2.37,1.72h6.09a2.14,2.14,0,0,0,2.38-1.72l9-27.93,9,27.93a2.14,2.14,0,0,0,2.37,1.72h6.09A2.14,2.14,0,0,0,231,59.18l15.51-48.36a1.79,1.79,0,0,1,1.06-1.19l5.23-2.42m37.73,36.42a26.3,26.3,0,0,0,2.74-12.37,26.29,26.29,0,0,0-2.74-12.37c-1.82-3.6-5-7.4-9.71-7.4s-7.89,3.8-9.71,7.4a26.33,26.33,0,0,0-2.74,12.37,26.33,26.33,0,0,0,2.74,12.37c1.81,3.6,5,7.4,9.71,7.4s7.89-3.79,9.71-7.39m-9.71-42q29.87,0,29.88,29.65T280.86,60.9Q251,60.9,251,31.25T280.86,1.6M59.43,31.25q0,29.65,29.87,29.65t29.87-29.65Q119.18,1.6,89.3,1.6T59.43,31.25M89.3,51c-4.67,0-7.89-3.8-9.71-7.4a26.34,26.34,0,0,1-2.74-12.37A26.29,26.29,0,0,1,79.6,18.88c1.81-3.6,5-7.4,9.71-7.4s7.89,3.8,9.71,7.4a26.36,26.36,0,0,1,2.74,12.37A26.34,26.34,0,0,1,99,43.62C97.19,47.22,94,51,89.3,51m259-32.12a7.44,7.44,0,0,0-7.47-7.41h-5V26.31h5a7.44,7.44,0,0,0,7.47-7.41m17.16,34.63,3.81,1.77a2.14,2.14,0,0,1,1.44,2.24v.9a2.48,2.48,0,0,1-2.49,2.47H350.77a2.15,2.15,0,0,1-2.34-1.63L340,36.19h-4.08V52.4A1.71,1.71,0,0,0,337,54.19l2.39,1.11a2.14,2.14,0,0,1,1.44,2.24v.9a2.48,2.48,0,0,1-2.49,2.47h-24.9A2.48,2.48,0,0,1,311,58.43v-.9a2.14,2.14,0,0,1,1.44-2.24L317.31,53a1.72,1.72,0,0,0,1.15-1.79v-40a1.72,1.72,0,0,0-1.15-1.79l-4.88-2.26A2.15,2.15,0,0,1,311,5v-.9a2.48,2.48,0,0,1,2.49-2.47h27.39q24.9,0,24.9,17.29,0,10-8.37,14.24l7.07,19.27a1.81,1.81,0,0,0,1,1.11"/><path id="path410" class="cls-1" d="M149.32,62.55a16.88,16.88,0,0,1-5.74-.88,17.37,17.37,0,0,0-10.51-.29l-3.6,1a3.74,3.74,0,0,1-1,.1h-2.24a4,4,0,0,1-4-4V43.58a4,4,0,0,1,4-4h1.65a3.71,3.71,0,0,1,2.63,1.17l6.91,7.68a3.08,3.08,0,0,0,4.28.29,2.94,2.94,0,0,0,.19-4.18L126.46,27.33A16.17,16.17,0,0,1,124.9,7.39a16.33,16.33,0,0,1,19-6.52,17.37,17.37,0,0,0,10.51.29l3.6-1a3.94,3.94,0,0,1,1-.19h2.24a4.13,4.13,0,0,1,4.09,4.09V18.87A4.13,4.13,0,0,1,161.19,23h-1.65a3.69,3.69,0,0,1-2.63-1.17c-2.31-2.57-4.6-5.21-6.91-7.78a3,3,0,0,0-4.18-.19,2.83,2.83,0,0,0-.29,4.09L161,35.12a16.17,16.17,0,0,1,1.56,19.94,16.57,16.57,0,0,1-13.23,7.49Zm-122.47-.1a33.23,33.23,0,0,1-10-2A24.14,24.14,0,0,1,3.5,48.35C.92,43.14,0,37.13,0,31.23,0,25,1,19.14,3.7,14.11A24.67,24.67,0,0,1,17.41,2.63,43.46,43.46,0,0,1,35,.1a24,24,0,0,1,2.63.19c1.7.27,3.24.7,4.67.78C45.19,1.23,48.18,0,51.85,0a5,5,0,0,1,2.72.68,3.83,3.83,0,0,1,1.56,1.95,11.2,11.2,0,0,1,.39,4V17.12c0,.43,0,1.07,0,1.85a4.56,4.56,0,0,1-1.07,2.63A4.17,4.17,0,0,1,52.92,23,11.45,11.45,0,0,1,51,23a3.9,3.9,0,0,1-2.72-1.07,53.92,53.92,0,0,0-5.45-5.25c-5.38-4.13-10.13-4.26-14-2.14s-7,6.8-8,13a22.81,22.81,0,0,0,3.79,16.63c2.85,3.82,7,6.17,11.77,5a11.16,11.16,0,0,0,6-3.89c.87-1,1.51-2.63,3.21-4.09a6.51,6.51,0,0,1,6.32-1.26,6.19,6.19,0,0,1,4.28,4.57,6.47,6.47,0,0,1,0,3.31,6.84,6.84,0,0,1-.68,1.56A25.59,25.59,0,0,1,37,61.77a44.09,44.09,0,0,1-10.12.68Zm62.45,0c-10.22,0-18.19-2.57-23.54-7.88s-7.88-13.2-7.88-23.35,2.53-18,7.88-23.35S79.08,0,89.3,0s18.19,2.57,23.54,7.88,7.88,13.2,7.88,23.35-2.53,18-7.88,23.35S99.52,62.45,89.3,62.45Zm104.57,0a4,4,0,0,1-2.43-.68A4.2,4.2,0,0,1,190,59.63q-7.87-24.56-15.76-49.12c-.09-.29.08-.07-.19-.19l-3.6-1.65a4,4,0,0,1-1.75-1.46A4.14,4.14,0,0,1,168.09,5V4.09a4,4,0,0,1,4-4.09H197a4.13,4.13,0,0,1,4.09,4.09V5a4.14,4.14,0,0,1-.58,2.24,4.05,4.05,0,0,1-1.75,1.46L196,9.92c-.39.18-.33.19-.29.1s0,0,.1.39c1.68,5.23,3.28,10.43,5,15.66,2.49-7.76,5-15.49,7.49-23.25A4.2,4.2,0,0,1,209.73.68,4,4,0,0,1,212.16,0h6a4.32,4.32,0,0,1,2.53.68,4,4,0,0,1,1.36,2.14c2.48,7.76,5,15.49,7.49,23.25,1.61-5,3.25-10,4.86-15.08.13-.4.06-.38.1-.29s0,0-.39-.19l-4-1.85A4.06,4.06,0,0,1,228.4,7.2,4.14,4.14,0,0,1,227.82,5V4.09A4.13,4.13,0,0,1,231.91,0h19.84a4.13,4.13,0,0,1,4.09,4.09V5a4.13,4.13,0,0,1-.58,2.24,4.07,4.07,0,0,1-1.75,1.46l-5.25,2.43c-.28.13-.11-.08-.19.19q-7.75,24.18-15.47,48.35a4.19,4.19,0,0,1-1.46,2.14,4,4,0,0,1-2.43.68h-6.13a4,4,0,0,1-2.43-.68,4.22,4.22,0,0,1-1.46-2.14c-2.49-7.76-5-15.49-7.49-23.25-2.48,7.75-4.91,15.5-7.39,23.25a4.05,4.05,0,0,1-1.36,2.14,4.32,4.32,0,0,1-2.53.68h-6Zm87,0c-10.22,0-18.09-2.57-23.44-7.88s-8-13.2-8-23.35,2.63-18,8-23.35S270.62,0,280.84,0,299,2.57,304.38,7.88s8,13.2,8,23.35-2.63,18-8,23.35-13.32,7.88-23.54,7.88Zm32.68,0a4.05,4.05,0,0,1-4.09-4v-1a3.82,3.82,0,0,1,.58-2.14,4,4,0,0,1,1.75-1.46l4.86-2.24c.25-.12.22-.23.19-.19s.1.08.1-.19v-40c0-.27-.12-.33-.1-.29s.06,0-.19-.1l-4.86-2.24A4,4,0,0,1,310,7.2,4.14,4.14,0,0,1,309.44,5V4.09A4.13,4.13,0,0,1,313.52,0h27.33c8.48,0,15,1.51,19.55,4.67s6.91,8.06,6.91,14.2a16.36,16.36,0,0,1-8.17,14.59c2.25,6.14,4.56,12.25,6.81,18.39.09.25-.05.18.19.29l3.79,1.75a4,4,0,0,1,1.75,1.46,3.83,3.83,0,0,1,.58,2.14v1a4,4,0,0,1-4,4H350.78a4.2,4.2,0,0,1-2.43-.58,4,4,0,0,1-1.36-2c-2.7-7.36-5.37-14.72-8.07-22.08h-1.46V52.43c0,.27,0,.23,0,.19s-.06,0,.19.1h.1c.8.37,1.54.8,2.33,1.17a4,4,0,0,1,1.75,1.46,3.83,3.83,0,0,1,.58,2.14v1a4,4,0,0,1-4.09,4H313.52Zm70.62,0a4,4,0,0,1-4-4v-1a3.81,3.81,0,0,1,.58-2.14,4,4,0,0,1,1.75-1.46l4.86-2.24c.25-.12.22-.23.19-.19s0,.08,0-.19V13h-5c-.28,0-.22,0-.19,0a1,1,0,0,0-.19.29c-1.15,2.44-2.26,4.86-3.4,7.3a4,4,0,0,1-1.46,1.75,4.19,4.19,0,0,1-2.24.58h-.88a4.13,4.13,0,0,1-4.09-4.09V4.09A4.13,4.13,0,0,1,374.22,0H421.5a4.13,4.13,0,0,1,4.09,4.09V18.87A4.13,4.13,0,0,1,421.5,23h-.88a4.19,4.19,0,0,1-2.24-.58,4,4,0,0,1-1.46-1.75c-1.15-2.44-2.26-4.85-3.4-7.3-.12-.25-.13-.31-.1-.29s0,0-.29,0h-5V51.27c0,.28,0,.23,0,.19s-.06.08.19.19c1.63.75,3.33,1.48,5,2.24a4,4,0,0,1,1.75,1.46,3.82,3.82,0,0,1,.58,2.14v1a4.05,4.05,0,0,1-4.09,4H384.14Zm48.05,0a4,4,0,0,1-4-4v-1a3.82,3.82,0,0,1,.58-2.14,4,4,0,0,1,1.75-1.46c1.63-.75,3.24-1.58,4.86-2.33.25-.12.22-.13.19-.1s0,.08,0-.19v-40c0-.27,0-.33,0-.29s.06,0-.19-.1l-4.86-2.24a4,4,0,0,1-1.75-1.46A4.14,4.14,0,0,1,428.21,5V4.09a4,4,0,0,1,4-4.09h24.9a4.13,4.13,0,0,1,4.09,4.09V5a4.15,4.15,0,0,1-.58,2.24,4,4,0,0,1-1.75,1.46c-.8.37-1.63.7-2.43,1.07-.25.12-.22.13-.19.1s0,0,0,.29V24.71H472V10.12c0-.27,0-.33,0-.29s.06,0-.19-.1c-.8-.37-1.63-.7-2.43-1.07a4.05,4.05,0,0,1-1.75-1.46A4.14,4.14,0,0,1,467,5V4.09A4.13,4.13,0,0,1,471.11,0H496a4,4,0,0,1,4,4.09V5a4.12,4.12,0,0,1-.58,2.24,4.05,4.05,0,0,1-1.75,1.46L492.8,10.9c-.25.12-.22.13-.19.1s-.1,0-.1.29v40c0,.27.12.23.1.19s-.06,0,.19.1c1.63.75,3.24,1.58,4.86,2.33a4,4,0,0,1,1.75,1.46,3.81,3.81,0,0,1,.58,2.14v1a4,4,0,0,1-4,4h-24.9a4,4,0,0,1-4.09-4v-1a3.82,3.82,0,0,1,.58-2.14,4,4,0,0,1,1.75-1.46c.8-.37,1.63-.8,2.43-1.17.25-.11.22-.13.19-.1s0,.08,0-.19V37.74H456.23V52.43c0,.27,0,.23,0,.19s-.05,0,.19.1c.8.37,1.63.8,2.43,1.17a4,4,0,0,1,1.75,1.46,3.83,3.83,0,0,1,.58,2.14v1a4.05,4.05,0,0,1-4.09,4Zm-282.88-3a13.15,13.15,0,0,0,10.6-6.13,12.75,12.75,0,0,0-1.26-16.05L143.19,20a6.06,6.06,0,0,1,.49-8.56,6.21,6.21,0,0,1,8.66.49l6.91,7.68c.21.23,0,.1.29.1h1.65a.83.83,0,0,0,.88-.88V4.09a.83.83,0,0,0-.88-.88h-2.33l-3.7,1a20.86,20.86,0,0,1-12.26-.39,13.05,13.05,0,0,0-15.37,5.35,12.75,12.75,0,0,0,1.26,16.05c5.16,5.75,10.31,11.57,15.47,17.32a6.06,6.06,0,0,1-.49,8.56,6.2,6.2,0,0,1-8.66-.49l-6.91-7.78c-.21-.23,0-.1-.29-.1h-1.65a.83.83,0,0,0-.88.88V58.46a.83.83,0,0,0,.88.88h2.33l3.7-1a20.85,20.85,0,0,1,12.26.29,14.4,14.4,0,0,0,4.77.78ZM27,59.34a40.64,40.64,0,0,0,9.34-.58,22.66,22.66,0,0,0,12.35-5.93,22,22,0,0,0,4.09-5.06,3.11,3.11,0,0,0,.29-.78,3.18,3.18,0,0,0,.1-1.75c-.39-1.59-.67-1.83-2.24-2.33s-2.06-.49-3.31.58c-1,.82-1.46,2.35-2.82,3.89a14.93,14.93,0,0,1-7.68,4.86C31,53.79,25.47,50.66,22.08,46.11,18,40.67,16.82,33.42,17.8,27c1.07-7,4.47-12.65,9.44-15.37s11.4-2.15,17.51,2.53a53.32,53.32,0,0,1,5.74,5.45c.17.18,0,.1.49.1.72,0,1.27.13,1.56.1s.33-.1.58-.39a.86.86,0,0,0,.29-.68c0-.33-.1-.92-.1-1.65V6.62a14.38,14.38,0,0,0-.1-2.92c-.08-.23-.17-.22-.29-.29a2,2,0,0,0-1.07-.19c-2.89,0-6,1.18-9.73,1a44.88,44.88,0,0,1-5-.78,19.91,19.91,0,0,0-2.24-.19A40,40,0,0,0,18.58,5.55,21.46,21.46,0,0,0,6.52,15.66c-2.37,4.41-3.4,9.73-3.4,15.56A35.89,35.89,0,0,0,6.32,47,20.8,20.8,0,0,0,18,57.49a30.08,30.08,0,0,0,9,1.85Zm62.26,0c9.7,0,16.7-2.43,21.3-7s7-11.49,7-21.11-2.4-16.54-7-21.11S99,3.21,89.3,3.21,72.6,5.54,68,10.12s-7,11.49-7,21.11,2.4,16.54,7,21.11S79.6,59.34,89.3,59.34Zm104.57,0h6a1.51,1.51,0,0,0,.68-.1,3.84,3.84,0,0,0,.19-.58l8.95-27.92,1.56-4.67,1.46,4.67,8.95,27.92a1.28,1.28,0,0,0,.29.58s.11.1.58.1h6.13c.47,0,.56-.08.58-.1a1.27,1.27,0,0,0,.29-.58Q237.32,34.47,245,10.31A3.85,3.85,0,0,1,247,8.17c1.75-.81,3.42-1.62,5.16-2.43a1.39,1.39,0,0,0,.49-.29s.1-.1.1-.49V4.09a.92.92,0,0,0-1-.88H231.91a.92.92,0,0,0-1,.88V5c0,.39.07.45.1.49a1.4,1.4,0,0,0,.49.29c1.35.62,2.65,1.33,4,1.95a3.37,3.37,0,0,1,1.85,1.65,3.75,3.75,0,0,1,0,2.63c-2.11,6.6-4.21,13.15-6.32,19.75l-1.46,4.67L228,31.71,219.07,3.79c-.14-.44-.17-.47-.19-.49a1.52,1.52,0,0,0-.68-.1h-6c-.47,0-.56.08-.58.1s-.15,0-.29.49l-8.95,27.92-1.56,4.67-1.46-4.67L192.8,11.38a3.74,3.74,0,0,1,0-2.63A3.56,3.56,0,0,1,194.65,7l2.72-1.26a1.4,1.4,0,0,0,.49-.29s.1-.1.1-.49V4.09a.91.91,0,0,0-1-.88h-24.9a.83.83,0,0,0-.88.88V5c0,.39.07.45.1.49s0,.13.39.29c1.21.56,2.49,1.19,3.7,1.75a3.69,3.69,0,0,1,1.85,2.14c5.25,16.37,10.51,32.66,15.76,49a1.27,1.27,0,0,0,.29.58s.11.1.58.1Zm87,0c9.7,0,16.7-2.43,21.3-7s7-11.49,7-21.11-2.4-16.54-7-21.11-11.61-6.91-21.3-6.91-16.7,2.33-21.3,6.91-7,11.49-7,21.11,2.4,16.54,7,21.11S271.14,59.34,280.84,59.34Zm32.68,0h24.81a.92.92,0,0,0,1-.88v-1c0-.39-.07-.45-.1-.49s0-.13-.39-.29c-.8-.37-1.64-.7-2.43-1.07a3.17,3.17,0,0,1-2-3.21V34.63h6.71l.39,1c2.82,7.7,5.64,15.46,8.46,23.15.15.41.26.47.29.49s.14.1.58.1h17.51a.83.83,0,0,0,.88-.88v-1c0-.39-.07-.45-.1-.49s0-.13-.39-.29c-1.28-.59-2.62-1.16-3.89-1.75a3.83,3.83,0,0,1-1.85-2c-2.36-6.42-4.65-12.84-7-19.26l-.49-1.26,1.26-.68c5.13-2.58,7.49-6.59,7.49-12.84,0-5.39-1.8-9.07-5.54-11.67s-9.68-4-17.8-4H313.52a.92.92,0,0,0-1,.88V5c0,.39.07.45.1.49a1.4,1.4,0,0,0,.49.29c1.62.75,3.24,1.58,4.86,2.33a3.58,3.58,0,0,1,1.56,1.26,3.56,3.56,0,0,1,.49,1.95v40a3.17,3.17,0,0,1-2,3.21l-4.86,2.24a1.37,1.37,0,0,0-.49.29s-.1.1-.1.49v1a.92.92,0,0,0,1,.88Zm70.62,0h27.43a.84.84,0,0,0,.88-.88v-1c0-.39,0-.45,0-.49a1.39,1.39,0,0,0-.49-.29l-4.86-2.24a3.17,3.17,0,0,1-2-3.21V9.92h8.07a3.59,3.59,0,0,1,1.95.49A3.58,3.58,0,0,1,416.34,12c1.15,2.44,2.26,4.86,3.4,7.3a1.42,1.42,0,0,0,.29.49,3.62,3.62,0,0,0,.58,0h.88a.91.91,0,0,0,1-.88V4.09a.92.92,0,0,0-1-.88H374.22a.83.83,0,0,0-.88.88V18.87a.83.83,0,0,0,.88.88h.88a3.62,3.62,0,0,0,.58,0,1.41,1.41,0,0,0,.29-.49c1.15-2.44,2.26-4.85,3.4-7.3a3.6,3.6,0,0,1,1.26-1.56,3.6,3.6,0,0,1,1.95-.49h8.17V51.27a3.69,3.69,0,0,1-.58,1.95,3.32,3.32,0,0,1-1.46,1.26c-1.62.75-3.34,1.48-5,2.24-.36.16-.36.25-.39.29s-.1.1-.1.49v1a.84.84,0,0,0,.88.88Zm48.05,0h24.9a.91.91,0,0,0,1-.88v-1c0-.39-.07-.45-.1-.49a1.36,1.36,0,0,0-.49-.29l-2.33-1.07a3.56,3.56,0,0,1-1.56-1.26,3.68,3.68,0,0,1-.58-1.95V34.63H475.1v17.8a3.17,3.17,0,0,1-2,3.21l-2.33,1.07a1.39,1.39,0,0,0-.49.29s-.1.1-.1.49v1a.92.92,0,0,0,1,.88H496a.84.84,0,0,0,.88-.88v-1c0-.39-.07-.45-.1-.49s0-.13-.39-.29c-1.62-.75-3.33-1.48-5-2.24a3.59,3.59,0,0,1-1.56-1.26,3.55,3.55,0,0,1-.49-1.95v-40a3.55,3.55,0,0,1,.49-1.95,3.57,3.57,0,0,1,1.56-1.26c1.63-.76,3.34-1.58,5-2.33.36-.17.37-.25.39-.29s.1-.1.1-.49V4.09a.84.84,0,0,0-.88-.88h-24.9a.92.92,0,0,0-1,.88V5c0,.39.07.45.1.49a1.41,1.41,0,0,0,.49.29c.8.37,1.53.8,2.33,1.17a3.57,3.57,0,0,1,1.56,1.26,3.55,3.55,0,0,1,.49,1.95v17.8H453V10.12a3.67,3.67,0,0,1,.58-1.95,3.57,3.57,0,0,1,1.56-1.26c.8-.37,1.54-.8,2.33-1.17a1.39,1.39,0,0,0,.49-.29s.1-.09.1-.49V4.09a.91.91,0,0,0-1-.88H432.2a.83.83,0,0,0-.88.88V5c0,.39.07.45.1.49s0,.13.39.29c1.62.75,3.33,1.58,5,2.33a3.33,3.33,0,0,1,1.46,1.26,3.67,3.67,0,0,1,.58,1.95v40a3.67,3.67,0,0,1-.58,1.95,3.35,3.35,0,0,1-1.46,1.26h-.1l-4.86,2.24c-.36.16-.37.26-.39.29s-.1.1-.1.49v1a.83.83,0,0,0,.88.88ZM89.3,52.63a10.45,10.45,0,0,1-6.91-2.72,18.22,18.22,0,0,1-4.18-5.54,28.28,28.28,0,0,1-2.92-13.13,27.83,27.83,0,0,1,2.92-13,18.17,18.17,0,0,1,4.18-5.54A10.46,10.46,0,0,1,89.3,9.92a10.71,10.71,0,0,1,7,2.72,17.87,17.87,0,0,1,4.09,5.54,27.92,27.92,0,0,1,2.92,13,28.27,28.27,0,0,1-2.92,13.13A17.84,17.84,0,0,1,96.3,49.9,10.72,10.72,0,0,1,89.3,52.63Zm191.54,0a10.46,10.46,0,0,1-6.91-2.72,18.19,18.19,0,0,1-4.18-5.54,28.28,28.28,0,0,1-2.92-13.13,27.87,27.87,0,0,1,2.92-13,18.23,18.23,0,0,1,4.18-5.54,10.46,10.46,0,0,1,6.91-2.72,10.7,10.7,0,0,1,7,2.72,17.88,17.88,0,0,1,4.09,5.54,27.84,27.84,0,0,1,2.92,13,28.23,28.23,0,0,1-2.92,13.13,17.81,17.81,0,0,1-4.09,5.54A10.72,10.72,0,0,1,280.84,52.63ZM89.3,49.42a7.2,7.2,0,0,0,4.86-1.95,15.18,15.18,0,0,0,3.4-4.57,24.71,24.71,0,0,0,2.63-11.67,24.76,24.76,0,0,0-2.63-11.67A15.2,15.2,0,0,0,94.16,15a7.05,7.05,0,0,0-9.73,0A15.16,15.16,0,0,0,81,19.55,24.68,24.68,0,0,0,78.4,31.23,24.72,24.72,0,0,0,81,42.9a15.2,15.2,0,0,0,3.4,4.57A7.2,7.2,0,0,0,89.3,49.42Zm191.54,0a7.44,7.44,0,0,0,5-1.95,15.16,15.16,0,0,0,3.4-4.57,24.6,24.6,0,0,0,2.53-11.67,24.61,24.61,0,0,0-2.53-11.67A15.21,15.21,0,0,0,285.8,15a7.44,7.44,0,0,0-5-1.95A7.2,7.2,0,0,0,276,15a15.21,15.21,0,0,0-3.4,4.57,24.71,24.71,0,0,0-2.63,11.67,24.72,24.72,0,0,0,2.63,11.67,15.18,15.18,0,0,0,3.4,4.57A7.2,7.2,0,0,0,280.84,49.42Zm53.5-21.5v-18h6.52a9,9,0,1,1,0,18h-6.52Zm3.11-3.21h3.4a5.84,5.84,0,1,0,0-11.67h-3.4Z"/></g></g></g></svg>