<svg id="Layer_1" data-name="Layer 1" xmlns="http://www.w3.org/2000/svg" viewBox="0 0 569.64 335.18"><defs><style>.cls-1{fill:#bbb;}</style></defs><title>Department_for_Education</title><g id="svg_306" data-name="svg 306"><g id="svg_153" data-name="svg 153"><g id="svg_154" data-name="svg 154"><g id="svg_155" data-name="svg 155"><path id="svg_295" data-name="svg 295" class="cls-1" d="M4.4,5.95h8.2V340.06H4.4V5.95Z" transform="translate(-4.4 -5.17)"/><g id="svg_269" data-name="svg 269"><g id="svg_284" data-name="svg 284"><path id="svg_294" data-name="svg 294" class="cls-1" d="M76.86,180.68H61.13V232H76.86q10.1,0,15.27-6.56T97.29,206q0-12.3-5.26-18.83T76.86,180.68ZM52,240.24V172.91H77.64q14.08,0,21.55,8.41t7.47,24.27q0,16.41-7.75,25.53t-21.65,9.12Z" transform="translate(-4.4 -5.17)"/><path id="svg_293" data-name="svg 293" class="cls-1" d="M121.65,211.31h26.88q0-6.86-3.47-10.58T135.31,197q-6.08,0-9.58,3.66T121.65,211.31Zm26.7,13.12h8.14a20,20,0,0,1-7,12.75q-5.71,4.66-14.4,4.66-10.19,0-16.09-6.86t-5.9-18.7q0-12.53,5.85-19.57t16.14-7q10.56,0,16.34,6.49t5.78,18.33q0,1.51,0,2.24c0,.49-.05,1-.11,1.42H121.69q.14,7.73,3.84,12t10.29,4.23a13,13,0,0,0,8.3-2.58,12,12,0,0,0,4.23-7.34Z" transform="translate(-4.4 -5.17)"/><path id="svg_292" data-name="svg 292" class="cls-1" d="M172.24,216.11q0,9.14,3.63,13.74t10.9,4.59q6.95,0,10.72-5.05t3.77-14.33q0-8.37-3.91-13.17a13,13,0,0,0-10.67-4.8q-6.95,0-10.7,4.94T172.24,216.11Zm-7.77,42.56V191.28h8v6.9a20.26,20.26,0,0,1,6.88-6.45,18.86,18.86,0,0,1,9.07-2.06q9.78,0,15.61,7t5.83,18.88q0,12-5.9,19.06a19.33,19.33,0,0,1-15.63,7.09,21,21,0,0,1-9.07-1.85,18.37,18.37,0,0,1-6.79-5.65v24.41Z" transform="translate(-4.4 -5.17)"/><path id="svg_291" data-name="svg 291" class="cls-1" d="M247.37,233.71a27.27,27.27,0,0,1-8.16,6,21.45,21.45,0,0,1-9.17,2q-7.5,0-11.7-3.91T214.14,227q0-6.67,4.14-10.47t12.59-4.89l5.81-.64q6.26-.64,7.68-1.23a3.33,3.33,0,0,0,1.87-1.44,10.21,10.21,0,0,0,.46-3.86,6.36,6.36,0,0,0-2.74-5.62Q241.2,197,235.67,197q-5.71,0-8.62,2.29t-2.9,6.77h-7.77v-.37a14.36,14.36,0,0,1,5.21-11.7q5.21-4.3,14.35-4.3,9.83,0,14.47,3.68t4.64,11.5v24.5q0,3.15.69,4.07a2.91,2.91,0,0,0,2.47.91,7.18,7.18,0,0,0,.89-.07q.53-.07,1.26-.21v6.35a22.08,22.08,0,0,1-2.63.57,15,15,0,0,1-2.13.16q-4.11,0-6.17-1.78a6.76,6.76,0,0,1-2.06-5.39Zm-.78-18.38q-3.29,1.78-11.29,2.79-2.83.37-4.25.59-4.48.73-6.45,2.65a7.45,7.45,0,0,0-2,5.58,7,7,0,0,0,2.29,5.62q2.29,2,6.54,2a17.09,17.09,0,0,0,10.88-3.34,10.4,10.4,0,0,0,4.25-8.55Z" transform="translate(-4.4 -5.17)"/><path id="svg_290" data-name="svg 290" class="cls-1" d="M265.41,240.24v-49h8v8.78a16.26,16.26,0,0,1,5.33-7.38,13.64,13.64,0,0,1,8.25-2.45c.61,0,1.05,0,1.33,0a5.22,5.22,0,0,1,.82.11v8.69q-.32,0-.73-.07c-.27,0-.69,0-1.23,0q-6.58,0-10,3.59T273.64,213v27.25Z" transform="translate(-4.4 -5.17)"/><path id="svg_289" data-name="svg 289" class="cls-1" d="M311.67,227.9q0,3.29.94,4.39t3.45,1.1c.49,0,1.07,0,1.76,0s1.58-.09,2.67-.18v7q-2.06.37-3.68.55a26.25,26.25,0,0,1-2.9.18q-5.81,0-8.14-2.24t-2.33-8V197.82h-7.31v-6.54h7.31V177.62h8.23v13.67h8.82v6.54h-8.82Z" transform="translate(-4.4 -5.17)"/><path id="svg_288" data-name="svg 288" class="cls-1" d="M387.55,240.24V210.12q0-7.41-2-10.13t-7-2.72q-5.94,0-9.23,3.68T366,211.31v28.94h-8.37V210.12q0-7.41-2-10.13t-6.95-2.72q-5.9,0-9.23,3.73t-3.34,10.31v28.94h-8.23v-49h7.86v6.9A17.08,17.08,0,0,1,351,190a14.2,14.2,0,0,1,13.39,7.68,20.78,20.78,0,0,1,7-5.83,19.67,19.67,0,0,1,8.73-1.85,18.7,18.7,0,0,1,8.27,1.71,12.26,12.26,0,0,1,5.39,5,14.08,14.08,0,0,1,1.51,4.48,52.76,52.76,0,0,1,.46,8.23v30.81Z" transform="translate(-4.4 -5.17)"/><path id="svg_287" data-name="svg 287" class="cls-1" d="M412.13,211.31H439q0-6.86-3.47-10.58T425.79,197q-6.08,0-9.58,3.66T412.13,211.31Zm26.7,13.12H447a20,20,0,0,1-7,12.75q-5.71,4.66-14.4,4.66-10.19,0-16.09-6.86t-5.9-18.7q0-12.53,5.85-19.57t16.14-7q10.56,0,16.34,6.49t5.78,18.33q0,1.51,0,2.24c0,.49-.05,1-.11,1.42H412.17q.14,7.73,3.84,12t10.29,4.23a13,13,0,0,0,8.3-2.58,12,12,0,0,0,4.23-7.34Z" transform="translate(-4.4 -5.17)"/><path id="svg_286" data-name="svg 286" class="cls-1" d="M486.43,240.24V210.12q0-7.22-2.22-10t-7.61-2.77q-6.9,0-10.72,3.91t-3.82,11.09v27.89h-8.23v-49h7.86v7.13a18.58,18.58,0,0,1,6.72-6.31,19,19,0,0,1,9-2.06,23.15,23.15,0,0,1,9.33,1.67,12.67,12.67,0,0,1,5.85,5,12.39,12.39,0,0,1,1.65,4.18,41,41,0,0,1,.5,7.61v31.73Z" transform="translate(-4.4 -5.17)"/><path id="svg_285" data-name="svg 285" class="cls-1" d="M515.32,227.9q0,3.29.94,4.39t3.45,1.1c.49,0,1.07,0,1.76,0s1.58-.09,2.67-.18v7q-2.06.37-3.68.55a26.25,26.25,0,0,1-2.9.18q-5.81,0-8.14-2.24t-2.33-8V197.82h-7.31v-6.54h7.31V177.62h8.23v13.67h8.82v6.54h-8.82Z" transform="translate(-4.4 -5.17)"/></g><g id="svg_280" data-name="svg 280"><path id="svg_283" data-name="svg 283" class="cls-1" d="M54,338.84V296.41h-8v-6.54h8v-7.22q0-6.08,2.77-9.12t8.3-3q.87,0,2.19.14t3.89.5v7.41q-1.33-.23-2.22-.34a11.89,11.89,0,0,0-1.44-.11q-2.88,0-4,1.6t-1.14,6.08v4.11h8.82v6.54H62.31v42.42Z" transform="translate(-4.4 -5.17)"/><path id="svg_282" data-name="svg 282" class="cls-1" d="M81.32,314.29q0,9.1,3.91,13.92T96.41,333q7.22,0,11.06-4.82t3.84-13.92q0-9.05-3.84-13.87t-11.06-4.82q-7.31,0-11.2,4.8T81.32,314.29Zm-8.41,0q0-12.3,6.15-19.15t17.26-6.86q11.15,0,17.33,6.83t6.17,19.18q0,12.34-6.15,19.2t-17.26,6.86q-11.15,0-17.33-6.83T72.91,314.29Z" transform="translate(-4.4 -5.17)"/><path id="svg_281" data-name="svg 281" class="cls-1" d="M126.66,338.84v-49h8v8.78a16.26,16.26,0,0,1,5.33-7.38,13.64,13.64,0,0,1,8.25-2.45c.61,0,1.05,0,1.33,0a5.22,5.22,0,0,1,.82.11v8.69q-.32,0-.73-.07c-.27,0-.69,0-1.23,0q-6.58,0-10,3.59t-3.45,10.45v27.25Z" transform="translate(-4.4 -5.17)"/></g><g id="svg_270" data-name="svg 270"><path id="svg_279" data-name="svg 279" class="cls-1" d="M183.33,338.84V271.5h48v8.37H192.38V300h36v7.86h-36v22.58h39.73v8.41Z" transform="translate(-4.4 -5.17)"/><path id="svg_278" data-name="svg 278" class="cls-1" d="M271.58,314q0-9.1-3.68-13.71T257,295.68q-6.95,0-10.74,5.05t-3.79,14.33q0,8.37,3.91,13.17a13.08,13.08,0,0,0,10.72,4.8q6.9,0,10.7-4.94T271.58,314Zm7.68-42.51v67.34h-8v-6.17a21.13,21.13,0,0,1-7.13,5.76,19.92,19.92,0,0,1-8.78,1.92q-9.78,0-15.61-7T234,314.52q0-12,5.85-19.13a19.17,19.17,0,0,1,15.59-7.11,20.74,20.74,0,0,1,9.07,1.9,18.69,18.69,0,0,1,6.83,5.69V271.5Z" transform="translate(-4.4 -5.17)"/><path id="svg_277" data-name="svg 277" class="cls-1" d="M297.26,289.88v30q0,7.22,2.26,10t7.66,2.81q7.13,0,10.79-4.18t3.66-12.32V289.88h8.23v49H322v-7.31a16.89,16.89,0,0,1-6.63,6.4,20.18,20.18,0,0,1-9.55,2.15,21.24,21.24,0,0,1-8.91-1.74,13.07,13.07,0,0,1-5.81-4.94,12.39,12.39,0,0,1-1.65-4.18,41,41,0,0,1-.5-7.61V289.88Z" transform="translate(-4.4 -5.17)"/><path id="svg_276" data-name="svg 276" class="cls-1" d="M372.4,306.15a10.58,10.58,0,0,0-3.63-7.75q-3.27-2.72-8.94-2.72-6.67,0-10.31,4.8t-3.63,13.71q0,9,3.5,13.81a11.49,11.49,0,0,0,9.9,4.85q5.76,0,9.21-3t4.27-8.64h7.86q-.64,9-6.35,14.06t-15.36,5.05q-10.06,0-15.79-6.9t-5.74-18.93q0-12.3,6-19.27t16.46-7q9.23,0,14.79,4.82t5.92,13.05Z" transform="translate(-4.4 -5.17)"/><path id="svg_275" data-name="svg 275" class="cls-1" d="M418.86,332.3a27.27,27.27,0,0,1-8.16,6,21.45,21.45,0,0,1-9.17,2q-7.5,0-11.7-3.91t-4.21-10.81q0-6.67,4.14-10.47t12.59-4.89l5.81-.64q6.26-.64,7.68-1.23a3.33,3.33,0,0,0,1.87-1.44,10.21,10.21,0,0,0,.46-3.86,6.36,6.36,0,0,0-2.74-5.62q-2.74-1.87-8.27-1.87-5.71,0-8.62,2.29t-2.9,6.77h-7.77v-.37a14.36,14.36,0,0,1,5.21-11.7q5.21-4.3,14.35-4.3,9.83,0,14.47,3.68t4.64,11.5V328q0,3.15.69,4.07a2.91,2.91,0,0,0,2.47.91,7.18,7.18,0,0,0,.89-.07q.53-.07,1.26-.21V339a22.08,22.08,0,0,1-2.63.57,15,15,0,0,1-2.13.16q-4.11,0-6.17-1.78a6.76,6.76,0,0,1-2.06-5.39Zm-.78-18.38q-3.29,1.78-11.29,2.79-2.83.37-4.25.59-4.48.73-6.45,2.65a7.45,7.45,0,0,0-2,5.58,7,7,0,0,0,2.29,5.62q2.29,2,6.54,2a17.09,17.09,0,0,0,10.88-3.34,10.4,10.4,0,0,0,4.25-8.55Z" transform="translate(-4.4 -5.17)"/><path id="svg_274" data-name="svg 274" class="cls-1" d="M447.45,326.49q0,3.29.94,4.39t3.45,1.1c.49,0,1.07,0,1.76,0s1.58-.09,2.67-.18v7q-2.06.37-3.68.55a26.25,26.25,0,0,1-2.9.18q-5.81,0-8.14-2.24t-2.33-8V296.41h-7.31v-6.54h7.31V276.21h8.23v13.67h8.82v6.54h-8.82Z" transform="translate(-4.4 -5.17)"/><path id="svg_273" data-name="svg 273" class="cls-1" d="M463.32,280.87V271.5h8.23v9.37Zm0,58v-49h8.23v49Z" transform="translate(-4.4 -5.17)"/><path id="svg_272" data-name="svg 272" class="cls-1" d="M487.3,314.29q0,9.1,3.91,13.92T502.38,333q7.22,0,11.06-4.82t3.84-13.92q0-9.05-3.84-13.87t-11.06-4.82q-7.31,0-11.2,4.8T487.3,314.29Zm-8.41,0q0-12.3,6.15-19.15t17.26-6.86q11.15,0,17.33,6.83t6.17,19.18q0,12.34-6.15,19.2t-17.26,6.86q-11.15,0-17.33-6.83T478.89,314.29Z" transform="translate(-4.4 -5.17)"/><path id="svg_271" data-name="svg 271" class="cls-1" d="M565.72,338.84V308.71q0-7.22-2.22-10T555.89,296q-6.9,0-10.72,3.91t-3.82,11.09v27.89h-8.23v-49H541V297a18.58,18.58,0,0,1,6.72-6.31,19,19,0,0,1,9-2.06,23.15,23.15,0,0,1,9.33,1.67,12.67,12.67,0,0,1,5.85,5,12.39,12.39,0,0,1,1.65,4.18,41,41,0,0,1,.5,7.61v31.73Z" transform="translate(-4.4 -5.17)"/></g></g><g id="svg_156" data-name="svg 156"><g id="svg_267" data-name="svg 267"><path id="svg_268" data-name="svg 268" class="cls-1" d="M114.71,27.06c-.77,1.47-1.43,2.32-1.32,3.45s1.29,1.94,1.85,3.07c.51-1.32,1.36-2.32,1.26-3.36s-1.53-2.4-1.79-3.16" transform="translate(-4.4 -5.17)"/></g><g id="svg_265" data-name="svg 265"><path id="svg_266" data-name="svg 266" class="cls-1" d="M134.37,27.06c.77,1.47,1.43,2.32,1.32,3.45s-1.29,1.94-1.85,3.07c-.51-1.32-1.36-2.32-1.26-3.36s1.53-2.4,1.79-3.16" transform="translate(-4.4 -5.17)"/></g><g id="svg_263" data-name="svg 263"><path id="svg_264" data-name="svg 264" class="cls-1" d="M103.4,26.21a1.33,1.33,0,1,0-1.33-1.33,1.33,1.33,0,0,0,1.33,1.33" transform="translate(-4.4 -5.17)"/></g><g id="svg_261" data-name="svg 261"><path id="svg_262" data-name="svg 262" class="cls-1" d="M104.29,28.11A1.33,1.33,0,1,0,103,29.43a1.33,1.33,0,0,0,1.33-1.33" transform="translate(-4.4 -5.17)"/></g><g id="svg_259" data-name="svg 259"><path id="svg_260" data-name="svg 260" class="cls-1" d="M104.94,31.32a1.33,1.33,0,1,0-1.33,1.32,1.33,1.33,0,0,0,1.33-1.32" transform="translate(-4.4 -5.17)"/></g><g id="svg_257" data-name="svg 257"><path id="svg_258" data-name="svg 258" class="cls-1" d="M110.76,19.88a1.33,1.33,0,1,0-1.33-1.33,1.33,1.33,0,0,0,1.33,1.33" transform="translate(-4.4 -5.17)"/></g><g id="svg_255" data-name="svg 255"><path id="svg_256" data-name="svg 256" class="cls-1" d="M107.45,20.89a1.33,1.33,0,1,0-1.33-1.33,1.33,1.33,0,0,0,1.33,1.33" transform="translate(-4.4 -5.17)"/></g><g id="svg_253" data-name="svg 253"><path id="svg_254" data-name="svg 254" class="cls-1" d="M104.86,23.17a1.33,1.33,0,1,0-1.33-1.32,1.32,1.32,0,0,0,1.33,1.32" transform="translate(-4.4 -5.17)"/></g><g id="svg_251" data-name="svg 251"><path id="svg_252" data-name="svg 252" class="cls-1" d="M114.22,20.19a1.33,1.33,0,1,0-1.33-1.33,1.33,1.33,0,0,0,1.33,1.33" transform="translate(-4.4 -5.17)"/></g><g id="svg_249" data-name="svg 249"><path id="svg_250" data-name="svg 250" class="cls-1" d="M117.52,21.15a1.33,1.33,0,1,0-1.33-1.34,1.34,1.34,0,0,0,1.33,1.34" transform="translate(-4.4 -5.17)"/></g><g id="svg_247" data-name="svg 247"><path id="svg_248" data-name="svg 248" class="cls-1" d="M120.61,22.6a1.33,1.33,0,1,0-1.33-1.33,1.33,1.33,0,0,0,1.33,1.33" transform="translate(-4.4 -5.17)"/></g><g id="svg_245" data-name="svg 245"><path id="svg_246" data-name="svg 246" class="cls-1" d="M144.31,24.88a1.33,1.33,0,1,0,1.33-1.33,1.33,1.33,0,0,0-1.33,1.33" transform="translate(-4.4 -5.17)"/></g><g id="svg_243" data-name="svg 243"><path id="svg_244" data-name="svg 244" class="cls-1" d="M146.08,26.78a1.33,1.33,0,1,0,1.33,1.33,1.33,1.33,0,0,0-1.33-1.33" transform="translate(-4.4 -5.17)"/></g><g id="svg_241" data-name="svg 241"><path id="svg_242" data-name="svg 242" class="cls-1" d="M145.43,30a1.33,1.33,0,1,0,1.34,1.33A1.33,1.33,0,0,0,145.43,30" transform="translate(-4.4 -5.17)"/></g><g id="svg_239" data-name="svg 239"><path id="svg_240" data-name="svg 240" class="cls-1" d="M138.29,19.88A1.33,1.33,0,1,0,137,18.55a1.33,1.33,0,0,0,1.33,1.33" transform="translate(-4.4 -5.17)"/></g><g id="svg_237" data-name="svg 237"><path id="svg_238" data-name="svg 238" class="cls-1" d="M141.59,20.89a1.33,1.33,0,1,0-1.33-1.33,1.33,1.33,0,0,0,1.33,1.33" transform="translate(-4.4 -5.17)"/></g><g id="svg_235" data-name="svg 235"><path id="svg_236" data-name="svg 236" class="cls-1" d="M144.19,23.17a1.33,1.33,0,1,0-1.33-1.32,1.33,1.33,0,0,0,1.33,1.32" transform="translate(-4.4 -5.17)"/></g><g id="svg_233" data-name="svg 233"><path id="svg_234" data-name="svg 234" class="cls-1" d="M134.82,20.19a1.33,1.33,0,1,0-1.33-1.33,1.33,1.33,0,0,0,1.33,1.33" transform="translate(-4.4 -5.17)"/></g><g id="svg_231" data-name="svg 231"><path id="svg_232" data-name="svg 232" class="cls-1" d="M131.53,21.15a1.33,1.33,0,1,0-1.33-1.34,1.33,1.33,0,0,0,1.33,1.34" transform="translate(-4.4 -5.17)"/></g><g id="svg_229" data-name="svg 229"><path id="svg_230" data-name="svg 230" class="cls-1" d="M127.11,21.27a1.33,1.33,0,1,0,1.33-1.33,1.33,1.33,0,0,0-1.33,1.33" transform="translate(-4.4 -5.17)"/></g><g id="svg_227" data-name="svg 227"><path id="svg_228" data-name="svg 228" class="cls-1" d="M122.26,28.46h1.48V22.77a5.27,5.27,0,0,1-1.48-.46Z" transform="translate(-4.4 -5.17)"/></g><g id="svg_225" data-name="svg 225"><path id="svg_226" data-name="svg 226" class="cls-1" d="M126.79,22.31a5.19,5.19,0,0,1-1.49.46v5.69h1.49Z" transform="translate(-4.4 -5.17)"/></g><g id="svg_223" data-name="svg 223"><path id="svg_224" data-name="svg 224" class="cls-1" d="M123.67,16V12.66A4.18,4.18,0,0,0,120.4,16Z" transform="translate(-4.4 -5.17)"/></g><g id="svg_221" data-name="svg 221"><path id="svg_222" data-name="svg 222" class="cls-1" d="M125.4,16h3.24a4.17,4.17,0,0,0-3.24-3.37Z" transform="translate(-4.4 -5.17)"/></g><g id="svg_219" data-name="svg 219"><path id="svg_220" data-name="svg 220" class="cls-1" d="M120.45,17.66a4.18,4.18,0,0,0,8.15,0h-8.15Z" transform="translate(-4.4 -5.17)"/></g><g id="svg_217" data-name="svg 217"><path id="svg_218" data-name="svg 218" class="cls-1" d="M126.81,12.13A4.62,4.62,0,0,1,125,9.18a5.32,5.32,0,0,1,3,1.92V6.53a5.28,5.28,0,0,1-3,1.92,6.71,6.71,0,0,1,1.74-3.28h-4.42A6.75,6.75,0,0,1,124,8.45a5.27,5.27,0,0,1-3-1.92V11.1a5.3,5.3,0,0,1,3-1.92,4.61,4.61,0,0,1-1.82,2.94h4.58Z" transform="translate(-4.4 -5.17)"/></g><g id="svg_215" data-name="svg 215"><path id="svg_216" data-name="svg 216" class="cls-1" d="M131.7,103.37a84.71,84.71,0,0,1-13.81-5v-.05a3.61,3.61,0,0,0-.95-2.82,3.55,3.55,0,0,0-2.63-1.29,3.66,3.66,0,0,0-1.27.24,20.14,20.14,0,0,1-1.93-2,22.89,22.89,0,0,1-4.1-7.13,25.05,25.05,0,0,1-1.21-4.73,4.3,4.3,0,0,1-4.36,3.17c0-.28,0-1-.23-1-.69.76-1.72,1.59-4.09.75A34.81,34.81,0,0,0,98.67,89a32,32,0,0,0,6,10.08,28.23,28.23,0,0,0,2.67,2.68,4.54,4.54,0,0,0,0,.54,4.22,4.22,0,0,0,2.3,3.2,3.21,3.21,0,0,0,3.41-.39,37.79,37.79,0,0,0,7.41,2.87,33.49,33.49,0,0,0,8.52,1.35,15.09,15.09,0,0,0,7.39-2.63,18.78,18.78,0,0,0,2.8-2.12l.29-.27c-2.07.29-5.19-.3-7.74-.93m-15.31-6.29-.44-.33a1.56,1.56,0,0,0-2.22,0,8.6,8.6,0,0,0-1,1l-.45.52.3.25c.86.68,1,1.43.74,1.87a.72.72,0,0,1-.44.34,2.3,2.3,0,0,1-1.64-.41l-.32-.19-.2.32-.16.24c-.07.1-.15.21-.23.35a3.28,3.28,0,0,0-.54,1.52,1.26,1.26,0,0,0,0,.32,1.46,1.46,0,0,0,.84.87l.2.12c.38.24.92.56,1.33.79a2.34,2.34,0,0,1-2.28.1,3.49,3.49,0,0,1-1.88-2.51,7,7,0,0,1,1.26-3.53l.12-.19-.12-.2a8,8,0,0,1-.59-1.15,12.94,12.94,0,0,1,1.29.24l.21,0,.15-.16c.5-.55,2.26-2.33,3.89-2.33a2.79,2.79,0,0,1,2.06,1,3.13,3.13,0,0,1,.76,1.6c-.23-.16-.49-.36-.74-.56m2.7,8a1.79,1.79,0,1,1,1.79-1.79,1.79,1.79,0,0,1-1.79,1.79m7.83,2.42a1.64,1.64,0,1,1,1.63-1.64,1.64,1.64,0,0,1-1.63,1.64" transform="translate(-4.4 -5.17)"/></g><g id="svg_213" data-name="svg 213"><path id="svg_214" data-name="svg 214" class="cls-1" d="M129.09,115.71a3,3,0,0,0-.84.12v-5a34.44,34.44,0,0,1-7.31-1.1v6.12a2.79,2.79,0,0,0-.89-.14,2.85,2.85,0,0,0-2.84,2.84,5.17,5.17,0,0,0,1.42,3.22c.33-.78.63-1.41,1.06-1.41.87,0,.47,4.34,3,4.46a1.81,1.81,0,0,0-.13.69,2,2,0,1,0,4,0,1.91,1.91,0,0,0-.12-.69c2.55-.12,2.12-4.46,3-4.46.43,0,.71.6,1.09,1.41a5.17,5.17,0,0,0,1.41-3.22,2.85,2.85,0,0,0-2.84-2.84m-4.52,10.92a1.11,1.11,0,1,1,1.11-1.11,1.11,1.11,0,0,1-1.11,1.11m6-6.31a1.45,1.45,0,0,0-1.12-.88c-1.71,0-1,4.5-3.08,4.5a1.23,1.23,0,0,1-1.36-1.21c0-.63.44-.82.44-1.33s-.4-.69-.84-.69-.84.19-.84.69.44.7.44,1.33a1.23,1.23,0,0,1-1.37,1.21c-2,0-1.36-4.5-3.07-4.5a1.45,1.45,0,0,0-1.12.88,4.07,4.07,0,0,1-.53-1.77,2,2,0,0,1,2-2c2.28,0,1.75,3.11,2.84,3.11a.76.76,0,0,0,.84-.76c0-.89-1.59-1.72-1.59-3s1.15-2.33,2.43-3.35c1.27,1,2.43,2.09,2.43,3.35s-1.59,2.11-1.59,3a.76.76,0,0,0,.84.76c1.09,0,.56-3.11,2.84-3.11a2,2,0,0,1,2,2,4.13,4.13,0,0,1-.53,1.77" transform="translate(-4.4 -5.17)"/></g><g id="svg_211" data-name="svg 211"><path id="svg_212" data-name="svg 212" class="cls-1" d="M187.83,121.73a.52.52,0,0,0-.65-.32c-5.86,1.7-13.13-3.14-20.16-7.84-5.91-3.94-11.5-7.66-16.29-7.66A9.8,9.8,0,0,0,146,107a8.41,8.41,0,0,0-3.72,4.32,26.79,26.79,0,0,1-2.34,4.37,6.4,6.4,0,0,0-1.4,3.37,3.65,3.65,0,0,0,1.22,2.61,12.77,12.77,0,0,0,3.07,2.1l.9.44c1.16.57,1.88.95,2,1.61a38.67,38.67,0,0,1-8.72,2.46,77.52,77.52,0,0,1-25,0,38.34,38.34,0,0,1-8.73-2.47c.1-1,.81-1.36,2.08-2,.3-.14.6-.28.91-.44a16.22,16.22,0,0,0,3-1.89,3.16,3.16,0,0,0,1.21-2.46,6.47,6.47,0,0,0-1.4-3.37,26.83,26.83,0,0,1-2.33-4.37,8.38,8.38,0,0,0-3.73-4.32,9.67,9.67,0,0,0-4.69-1.11c-4.79,0-10.38,3.72-16.3,7.67-7,4.69-14.3,9.53-20.16,7.83a.53.53,0,0,0-.37,1,24.19,24.19,0,0,1,4.87,3.2c2.11,1.65,4.11,3.2,6.31,3.2a15.26,15.26,0,0,0,7-2.08,74.59,74.59,0,0,0,7.17-4.52c4.63-3.16,9.41-6.42,13.95-6.79-.47.49-.94.9-1.37,1.29-1.34,1.19-2.5,2.23-2.5,4.33a9.74,9.74,0,0,0,1.35,4.47c.23.47.49,1,.76,1.62a17.25,17.25,0,0,1,1,3.26c.13.54.27,1.14.47,1.85.29,1.08.83,3.09,4.15,4.79,3.86,2,10.51,3,19.77,3s15.91-1,19.77-3c3.33-1.69,3.87-3.71,4.15-4.79.19-.71.34-1.31.47-1.85a17.25,17.25,0,0,1,1-3.26c.37-.82.72-1.49,1-2.08a7.63,7.63,0,0,0,1.25-3.83c0-2.11-1.22-3.2-2.63-4.46-.45-.4-.93-.84-1.42-1.35,4.54.37,9.32,3.62,14,6.79a76.23,76.23,0,0,0,7.17,4.51,15.3,15.3,0,0,0,7,2.08c2.19,0,4.19-1.56,6.3-3.21a24.62,24.62,0,0,1,4.86-3.19.54.54,0,0,0,.29-.68" transform="translate(-4.4 -5.17)"/></g><g id="svg_209" data-name="svg 209"><path id="svg_210" data-name="svg 210" class="cls-1" d="M152.64,74.84a7.7,7.7,0,0,1-2.25-2.62c-.7-1.44-3.6-7.16-4.05-7.92a3.44,3.44,0,0,1-.57-1.71,2.56,2.56,0,0,1,.62-1.52c.23-.29.86-.91,1.1-1.28a4.34,4.34,0,0,1,.52-.68,27.45,27.45,0,0,0-3.54-4.78,28.49,28.49,0,0,0-5.67-4.92A4.17,4.17,0,0,0,141,45.92a3.2,3.2,0,0,0-1.17-2.49c1.17-3.75,3.27-8.28,5.07-10.26l-3.77-1.59a5.89,5.89,0,0,1,.83,4.25A4.84,4.84,0,0,1,139.88,33a16.79,16.79,0,0,1-1.38,4.09,3.44,3.44,0,0,1,3.07-.28,4.48,4.48,0,0,1-4.73,1.58c-1.34-.32-2.67-1-2.61-2.07A1.26,1.26,0,0,1,135.54,35c.82.08.86,1.33.61,1.89,1.08-.61,2.19-3.76.51-4.23-1.32-.36-2.53,1.45-3,2.85-.25-1.69-.95-3.29-2.28-3.2-1.73.12-1.17,3.31-.56,4.13.1-1.12.72-1.72,1.23-1.68s1.07.36,1,1.37-1.56,1.65-3.23,1.65-4.38-.49-4.65-3.56a5.8,5.8,0,0,1,3.34,2,20.22,20.22,0,0,1,0-5.1,5.25,5.25,0,0,1-3.3,2A6.17,6.17,0,0,1,128,29.61h-6.83a6.17,6.17,0,0,1,2.73,3.52,5.21,5.21,0,0,1-3.24-2,20.45,20.45,0,0,1,0,5.1,5.69,5.69,0,0,1,3.29-2c-.27,3.06-3.06,3.55-4.64,3.55s-3.12-.63-3.23-1.65.51-1.34,1-1.37,1.12.55,1.23,1.68c.61-.81,1.17-4-.56-4.13-1.34-.09-2,1.52-2.28,3.2-.44-1.39-1.65-3.21-3-2.85-1.69.47-.57,3.62.51,4.23-.26-.56-.2-1.8.61-1.89a1.26,1.26,0,0,1,1.33,1.28c.06,1-1.28,1.75-2.61,2.07a4.49,4.49,0,0,1-4.73-1.57,3.46,3.46,0,0,1,3.11.27A16.44,16.44,0,0,1,109.26,33a4.84,4.84,0,0,1-2.15,2.87,5.89,5.89,0,0,1,.83-4.27l-3.76,1.59c1.79,2,3.9,6.52,5.07,10.29a3.15,3.15,0,0,0-1.12,2.45,4.14,4.14,0,0,0,2.23,3.51,28.49,28.49,0,0,0-5.67,4.92,31.72,31.72,0,0,0-6,10c.52.53,2.77,3,3.31,3.66a6.13,6.13,0,0,1,1.52,3.29,4.94,4.94,0,0,0,1.32,3.52,6.35,6.35,0,0,1,.74,2.52h18.69V97.69a2.82,2.82,0,0,0-2.15,1c2.16.88,4.22,1.65,6.28,2.3a5.45,5.45,0,0,1,1.14-3s-2.71-.27-4.17-.35V77.34H143.6a25.61,25.61,0,0,1-1.48,8.05,23.1,23.1,0,0,1-4.1,7.13,19,19,0,0,1-6.06,4.79c-.37.18-.35.44-.72.59a5.3,5.3,0,0,0-.9,1.65,7,7,0,0,0-.42,1.86c.86.27,1.32.41,2.14.6,6.42,1.61,8,1.14,8.36.86h0a28.7,28.7,0,0,0,4-3.79,32,32,0,0,0,6-10.08,35,35,0,0,0,2.2-12.33c0-.78,0-1,0-1.81m-28.4,1.4H105.52A25.67,25.67,0,0,1,107,67.89a23.05,23.05,0,0,1,4.1-7.13A19.24,19.24,0,0,1,117.18,56a16.49,16.49,0,0,1,7.06-1.72v22Zm.32-31.14a23.3,23.3,0,0,0-13,3.5c-1.45-.85-2.07-1.69-2.07-2.68,0-3.55,10-3.86,15.09-3.86h0c5.08,0,15.1.31,15.1,3.86,0,1-.63,1.83-2.08,2.68a23.26,23.26,0,0,0-13-3.5m.78,31.14v-22a16.58,16.58,0,0,1,6.62,1.7A19.1,19.1,0,0,1,138,60.76a23.17,23.17,0,0,1,4.1,7.13,25.67,25.67,0,0,1,1.49,8.36Z" transform="translate(-4.4 -5.17)"/></g><g id="svg_207" data-name="svg 207"><path id="svg_208" data-name="svg 208" class="cls-1" d="M140.71,72.65a.35.35,0,0,1-.2.67A20.78,20.78,0,0,0,137,64.05l.05-.06a1.16,1.16,0,0,0,.78-1,1.19,1.19,0,0,0-1.18.52c-.13-.17-.27-.34-.41-.52a17.3,17.3,0,0,0-4-3.71,14.63,14.63,0,0,0-4.4-2,.35.35,0,0,1,.68-.1c.05-.58-.45-.87-.74-.76a.51.51,0,0,0-.33.46,1.22,1.22,0,0,0-.83-.44,1.21,1.21,0,0,0,.27.88.53.53,0,0,0-.49.24.65.65,0,0,0,.64.85.35.35,0,0,1,.19-.64V65a1.18,1.18,0,0,0-1.19.3,1.18,1.18,0,0,0,1.19.31v7.76a.35.35,0,0,1-.18-.66.65.65,0,0,0-.7.8.54.54,0,0,0,.59.28,1.2,1.2,0,0,0-.31.82,1.19,1.19,0,0,0,.81-.31.54.54,0,0,0,.29.59.65.65,0,0,0,.79-.7.36.36,0,0,1-.67-.15h5.39a1.21,1.21,0,0,0,.31,1.18,1.19,1.19,0,0,0,.31-1.18h6a.35.35,0,0,1-.65.19.64.64,0,0,0,.81.68.54.54,0,0,0,.27-.6,1.21,1.21,0,0,0,.82.29,1.23,1.23,0,0,0-.34-.81.54.54,0,0,0,.59-.29.65.65,0,0,0-.72-.78m-5.17-9.46a.52.52,0,0,0-.18.52.53.53,0,0,0,.55.36,1.23,1.23,0,0,0-.43.77,1.19,1.19,0,0,0,.85-.2.54.54,0,0,0,.2.62.5.5,0,0,0,.49,0,20.24,20.24,0,0,1,2.74,7.41,1.23,1.23,0,0,0-.68-.19,1.18,1.18,0,0,0,.37.84h-4.56a.56.56,0,0,0-.3-.61A.53.53,0,0,0,134,73a1.26,1.26,0,0,0-.36-.8,1.2,1.2,0,0,0-.35.8.54.54,0,0,0-.62-.22.57.57,0,0,0-.3.61h-3.9a1.2,1.2,0,0,0,.27-.77,1.17,1.17,0,0,0-.78.28V66.53a.55.55,0,0,0,.62-.3.53.53,0,0,0-.22-.62,1.23,1.23,0,0,0,.81-.36,1.21,1.21,0,0,0-.81-.35.54.54,0,0,0,.22-.62.55.55,0,0,0-.62-.3V58.64a1.24,1.24,0,0,0,.67.27,1.23,1.23,0,0,0-.18-.76,14.07,14.07,0,0,1,3.52,1.72,16.72,16.72,0,0,1,3.61,3.32" transform="translate(-4.4 -5.17)"/></g><g id="svg_205" data-name="svg 205"><path id="svg_206" data-name="svg 206" class="cls-1" d="M137.51,70.69a1,1,0,0,0,.5-.46.59.59,0,0,1-.51-.07c.18-.1.4,0,.18-.33s-.36-.35-.57-.1a1.32,1.32,0,0,1-1.66-1.15,1,1,0,0,0,.5.41l.17.09.19,0a1.14,1.14,0,0,0,.42.06h.08v0a.66.66,0,0,0,.57-.57c.05-.6-.51-.88-1.15-1.4-.25-.21-.43-.38-.58-.54-.22-.43-.07-.82-.62-1.6a3.53,3.53,0,0,0-.18-.7,2,2,0,0,0,.34,2.3c.6.67,1.9,1.31,1.85,1.88a.37.37,0,0,1-.33.29l-.18,0-.12,0a1,1,0,0,1-.27-.12,2.08,2.08,0,0,1-.45-.35,14,14,0,0,1-1.35-1.65,2.42,2.42,0,0,1-.23-2.15c.42-.58-.26-1.78-.66-2.07a1.07,1.07,0,0,0,0-.61.63.63,0,0,1-.37,0c-.11-.22-.16-.27-.3-.3s-.25-.18-.28-.29c-.15.14-.2.27-.36.28s-.3,0-.38.07a.54.54,0,0,1-.45.16c-.24,0-.24.14-.22.32s0,.28.18.35l.07,0,.2.23.12-.24c.1-.1.43-.12.48.1s.07.2-.12.23l-.53,0c-.14,0-.14.18-.13.3s.17.21.45.14.8-.12.8.12c0,.65-.74.63-.9,1.39a1.35,1.35,0,0,1-.46-.42,2.83,2.83,0,0,0-.54-.67,2.92,2.92,0,0,0-.56-.46c-.26-.15-.27-.28-.27-.54s.1-.44.09-.65a1,1,0,0,0-.06-.2.35.35,0,0,0-.35-.22.29.29,0,0,1,.14.23.84.84,0,0,0-.11.13.15.15,0,0,0,0,.22s0,0,0,0a.39.39,0,0,1,0,.11s0,0,0,0-.13-.4-.28-.41h-.1a0,0,0,0,0,0,0c0-.17-.19-.3-.39-.1,0,0,.12,0,.15.07a.93.93,0,0,0,0,.17c0,.17.11.25.3.25,0,0,0,0,.05,0s0,.05,0,.07,0,0,0,0c-.3-.13-.42,0-.44.14a.47.47,0,0,0,0,.12c-.11.07-.13.23.06.35,0-.06,0-.16.06-.19l0,0a.31.31,0,0,0,.08.08s.07,0,.17-.06a.06.06,0,0,1,.07,0l.09.06a0,0,0,0,1,0,0c-.19.19-.15.36.07.42-.11.21-.46.13-.44-.18-.25.41.17.69.51.55,0,.14,0,.43.06.44a.08.08,0,0,1,.08-.08s0,0,0,0a.22.22,0,0,0,.18.23.1.1,0,0,1,0-.13c.05.1.13.2.17.28a2.81,2.81,0,0,0,1.28,1.41,3.44,3.44,0,0,0-.91.86c-.22.21-.54.44-.74.32s-.1-.14-.23-.23a.33.33,0,0,0-.24-.07l-.13.05a.38.38,0,0,0-.41.12.33.33,0,0,1,.28,0c0,.05,0,.13,0,.14s.07.2.47.17c0,0,.07,0,0,0a.21.21,0,0,1-.21.06c-.18,0-.27-.19-.4,0a.47.47,0,0,1-.08.1h0c-.16.05-.31.36-.12.49a.3.3,0,0,1,.12-.24l.08.09c.11.17.24.27.51-.14,0,0,0,0,0,0,0,.19-.19.46,0,.49l.11,0a.2.2,0,0,0,0,0,.35.35,0,0,0,.45.21.4.4,0,0,1-.25-.26s.11,0,.12,0,0-.33,0-.43,0,0,.06,0a.28.28,0,0,0,.38.15.33.33,0,0,0,.16-.26,1.13,1.13,0,0,1,.71-.14c0-.14.13-.34.42-.41a.45.45,0,0,1,.51.09,1.32,1.32,0,0,1,.29-.5c0,1.14,1.51,1.11,1.86,1.8a2.58,2.58,0,0,0-1.26-.24c-.38.07-1,.42-1.11.84a1.59,1.59,0,0,0,.66,1.22c-.44.09-.6,0-1,.06l0,0c-.34,0-.4-.57-.81-.41a.38.38,0,0,0-.11.08h0c-.16,0-.38.2-.34.36a.45.45,0,0,1,.26-.15s0,.08,0,.08,0,.14.15.14.11,0,.17,0a0,0,0,0,1,0,0c0,.16-.52-.09-.42.35a.55.55,0,0,0,.08.12c0,.13.09.27.32.19,0,0-.13-.09-.11-.16h.1s0,0,.06-.07,0,0,0,0,0,0,0,0,0,0,0,.1a.67.67,0,0,0,0,.14.26.26,0,0,0,.44.16c-.07,0-.21,0-.22-.12a.26.26,0,0,0,.11,0,.21.21,0,0,0,0-.15s0,0,0,0h.11s.06,0,.07,0a.27.27,0,0,0,.32.13.19.19,0,0,0,.14-.11l.19.11c0-.16.07-.3.43-.06l.26-.2s.34.14.47,0,.1-.2.1-.37c-.15-.34-.23-.31-.31-.64-.11-.57.68-.89,1.13-.8a2.59,2.59,0,0,0,1.44,1.59c.53.18.74-.4.91-.32s.07.07.09.16a2.41,2.41,0,0,1-.06.61c-.06.13-.34,0-.53,0a.23.23,0,0,0-.2.09.39.39,0,0,0-.34.36.68.68,0,0,1,.29-.16s0,.07,0,.08a.24.24,0,0,0,.42.15s.08,0,0,0-.37.31-.17.4l.12.05a.27.27,0,0,0,.2.3c0-.07-.05-.12,0-.27h.11c.15,0,.08-.27.24-.36s0,0,0,0-.08.35.06.41l.12,0a.27.27,0,0,0,.41.11s-.16-.07-.18-.14a1,1,0,0,0,.1-.14c.1-.34-.2-.35-.2-.49s.34-.06.34-.4a.27.27,0,0,0,0-.05c.17-.09.33-.2.34-.32a.93.93,0,0,1-.43-.08h0Z" transform="translate(-4.4 -5.17)"/></g><g id="svg_203" data-name="svg 203"><path id="svg_204" data-name="svg 204" class="cls-1" d="M122.12,81l-.32,0v-.3A1.7,1.7,0,0,0,120,78.76c-1,0-3.08,1.36-5.92,1.36A7.85,7.85,0,0,1,110.55,79l-.35.85a.57.57,0,0,0,0-.09.7.7,0,1,0-.7.71.72.72,0,0,0,.54-.27l-.36.84.37.15c-.41,4.31,2.77,9.8,8.4,11.47.84-.22,1.69-.1,1.69.81a.7.7,0,0,1-.78.81c-.34,0-.55-.2-.55-.42,0-.37.65-.15.72-.41s-.14-.5-.52-.5a.94.94,0,0,0-1,.91,1.22,1.22,0,0,0,1.28,1.23,1.64,1.64,0,0,0,1.75-1.89c.3,0,.64,0,.71-.32l.07-.88-.3,0,.23-9.86.22,0a.58.58,0,1,0,.12-1.14m-10.17.77,6.84,9.83c-3.66-1.42-7.3-4.7-6.84-9.83m7,8.89-6.23-9h.57a5.92,5.92,0,0,0,1-.07l5,7.17c-.11.69-.21,1.33-.3,1.84m.46-2.84L115,81.5a10.32,10.32,0,0,0,1.41-.42l3.31,4.72c-.1.67-.21,1.35-.32,2m1.06-6.94-.25,0a.6.6,0,0,0-.69.51.58.58,0,0,0,.61.64h.18c0,.08,0,.17,0,.26-.08.55-.23,1.49-.4,2.56l-2.79-4A13.6,13.6,0,0,1,120,79.74c.45,0,.55.22.45,1.13" transform="translate(-4.4 -5.17)"/></g><g id="svg_201" data-name="svg 201"><path id="svg_202" data-name="svg 202" class="cls-1" d="M120.92,61.13c1.33,0,2-.43,2-.84,0-1.48-3.66-.56-3.66-1.46a.55.55,0,0,1,.27-.41h.05c1.84-.17,1.87-1.44,3.18-1.69-1.59-.23-1.81,1-2.49,1.08a.84.84,0,0,0,.46-.76c-.32.43-1,.47-1.43,1a.31.31,0,0,0-.06.26.66.66,0,0,0-.39.54c0,1.4,3.72.44,3.72,1.46,0,.35-.64.6-1.66.6-.76,0-1.32-.55-2.74-.18,0-.24.48-.69.3-.91a.33.33,0,0,0,.23-.28.51.51,0,0,0-.27-.13c0-.07,0-.14-.07-.2s0-.17-.08-.2a1.45,1.45,0,0,0-.33-.22.82.82,0,0,0-.33-.09.84.84,0,0,0-.2,0c-.09,0-.18,0-.19.09a.41.41,0,0,0-.26-.11.52.52,0,0,0,0,.39c-.13,0-.28.35-.41.32,0,.1.09.14.13.14-.1.2-.16.44-.28.45l.1.11a4.29,4.29,0,0,0-.2.84h0a1.44,1.44,0,0,0-.3-.24c-.21-.13-.2-.23-.17-.44s.15-.35.17-.52,0-.13,0-.17a.28.28,0,0,0-.29-.19.19.19,0,0,1,.09.19s-.09.09-.1.09-.08.13,0,.19a0,0,0,0,1,0,0,.21.21,0,0,1,0,.08s0,0,0,0-.07-.32-.19-.34h-.1v0c0-.14-.13-.25-.34-.09a.18.18,0,0,1,.14.06.52.52,0,0,0-.06.14c0,.14.07.19.23.2s0,0,0,0a.16.16,0,0,1,0,.06s0,0,0,0c-.26-.11-.38,0-.41.1s0,.07,0,.1-.14.18,0,.29c0,0,0-.14.08-.16h0a.44.44,0,0,0,.06.06s.07,0,.17,0a.06.06,0,0,1,.07,0l.07.05s0,0,0,0c-.21.15-.2.31,0,.36,0,0,0,0,0,0-.06.3-.5.24-.43-.06-.29.34.09.6.44.44,0,0,0,0,0,0a.12.12,0,0,0,.1.11s0-.07.08-.07,0,0,0,0,0,.18.13.2,0-.12.06-.12.14.25.34.47a4.3,4.3,0,0,1-.82.25,1.85,1.85,0,0,0-.64,0c-.21.11-.73.3-.88.08,0-.07,0-.14-.1-.26a.32.32,0,0,0-.17-.13h-.13a.29.29,0,0,0-.35,0,.25.25,0,0,1,.2.13l-.06.11c0,.06,0,.17.31.28,0,0,0,0,0,.06a.18.18,0,0,1-.18,0c-.13-.1-.14-.25-.3-.16l-.1.05h0c-.14,0-.37.17-.27.33a.27.27,0,0,1,.17-.15s0,.09,0,.1c0,.17.1.3.44.07,0,0,0,0,0,0s-.31.29-.14.41l.08.06,0,0a.29.29,0,0,0,.29.32.31.31,0,0,1-.11-.29l.1,0c.16-.06.08-.26.17-.32s0,0,0,0,0,.27.25.25a.28.28,0,0,0,.26-.28s0,0,0,0a.19.19,0,0,1,.1.21.27.27,0,0,0,.14-.14.28.28,0,0,1-.07.34.5.5,0,0,0,.32-.33.26.26,0,0,1,.07.11s0,0,0,0a.67.67,0,0,0,.4,0s0,0,0,0a.22.22,0,0,0,0,.2.17.17,0,0,1,.07-.1c.06,0,0,.19.12.31,0-.5.31-.3.62-.51,0,0,0,0,0,0A.32.32,0,0,1,116,63c.11,0,.38-.11.38-.29s.1-.1.2-.17a.34.34,0,0,0,.35-.16c0,.05.07.2,0,.24.33,0,.67-.35.79-.38.7-.14-.44-.65,1-.57a.69.69,0,0,0,.41-.15c-.11.22-.11.65.1.68a.83.83,0,0,1,.37.16s0,0,0,0a.91.91,0,0,0-.3.08c-.34.22-.35-.5-.71-.37l-.09.07c-.14,0-.34.17-.3.32a.38.38,0,0,1,.23-.13s0,.07,0,.07,0,.11.14.11.09,0,.14,0,0,0,0,0-.44-.07-.36.3a.41.41,0,0,0,.07.12c0,.11.08.23.28.16,0,0-.11-.07-.09-.14h.09s0,0,0-.06,0,0,0,0,0,0,0,0,0,0,0,.08a.43.43,0,0,0,0,.11c0,.14.18.27.37.14-.06,0-.17,0-.19-.1a.2.2,0,0,0,.09,0s0-.07,0-.13,0,0,0,0h.09a.07.07,0,0,1,.07,0,.21.21,0,0,0,.27.12c.24-.08,0-.29.23-.33a.18.18,0,0,1,.14,0c.19,0,.47,0,.51-.05a.52.52,0,0,0-.17-.55c-.12-.06,0-.2-.11-.37A1.7,1.7,0,0,0,121,62c.51,0,0-.08.25-.21a.8.8,0,0,1,.62-.07c.07,0,.12,0,.1.12-.06.27,0,.3,0,.42s-.27,0-.42,0a.17.17,0,0,0-.16.07.33.33,0,0,0-.27.29.51.51,0,0,1,.23-.12v.05a.19.19,0,0,0,.34.12s.07,0,0,0-.29.25-.14.33l.09,0a.24.24,0,0,0,.17.25c0-.06,0-.09,0-.22h.09c.12,0,.07-.22.19-.29s0,0,0,0-.07.28.05.32l.09,0a.2.2,0,0,0,.31.09.3.3,0,0,1-.14-.1.5.5,0,0,0,.08-.12c.07-.27-.16-.28-.16-.39s.27-.06.27-.33a.19.19,0,0,0-.11-.17s0,0,0,0h0c.07,0,.15,0,.19-.08-.2,0-.14-.16-.17-.27s0,0,0,0a.28.28,0,0,0,.09-.29c-.07.09-.3.2-.31,0,0,0,0-.14-.22-.11s-.51-.14-1.15-.2c0,0-.07,0,0,0m-4.08-1.49h0m1-.24a1.85,1.85,0,0,0,.44.17c-.2,0-.15.13-.28.12s-.18-.17-.15-.29m-.27-.14c-.05.1-.18.18-.28.09s0-.12-.1-.3a1.76,1.76,0,0,0,.38.21m-.41.9c0-.07.07-.14.11-.14a.11.11,0,0,0,.14-.09c0-.08,0-.12-.12-.17.08,0,.12,0,.08-.1s-.13,0-.16,0,.06-.07.08-.09.07,0,.11,0l.35.17s.07,0,.07.09,0,.1,0,.12,0-.1-.1-.12-.05,0,0,.13-.16-.07-.2,0a.13.13,0,0,0,0,.17s0,.1,0,.18a.19.19,0,0,1-.25.13.2.2,0,0,1-.07-.28" transform="translate(-4.4 -5.17)"/></g><g id="svg_199" data-name="svg 199"><path id="svg_200" data-name="svg 200" class="cls-1" d="M122.77,66.11c0-.41-.45-.66-1.75-.66s-4.25.49-4.25-.25c0-.36.57-.33,1.26-.29a.51.51,0,0,0,.28.15c1.69.49,3.67-.39,4.69-.11-1.2-.91-2.2,0-3.49-.24.75,0,1-.21,1-.42-.58.38-1.69-.19-2.37.24l-.11.09c-.94,0-1.68,0-1.68.59,0,1.31,3.5.54,4.6.54s1.33.11,1.33.32-1.09.39-1.71.39c-1,0-3.82-.5-5.56-.15.14-.28.45-.65.29-.85a.41.41,0,0,0,.27-.33.61.61,0,0,0-.31-.15c.05-.08,0-.16-.09-.23s0-.2-.09-.22a1.4,1.4,0,0,0-.38-.26,1.25,1.25,0,0,0-.4-.11,1.38,1.38,0,0,0-.23,0c-.09,0-.2,0-.22.09a.51.51,0,0,0-.3-.13.6.6,0,0,0,0,.46c-.16,0-.32.41-.47.36.06.11.1.16.15.17-.13.23-.18.51-.34.51.1.13.16.18.22.2,0,.17,0,.36,0,.5l-.28-.1h-.07a.24.24,0,0,1-.11,0l.12,0-.16-.06a5.22,5.22,0,0,0-.57-.49c-.26-.14-.26-.27-.24-.54s.13-.44.13-.65c0,0,0-.14-.06-.2a.32.32,0,0,0-.34-.23.28.28,0,0,1,.13.23l-.11.12a.17.17,0,0,0,0,.23.06.06,0,0,1,0,0,.35.35,0,0,1,0,.1s0,0,0,0-.11-.4-.25-.41a.46.46,0,0,0-.11,0v0c0-.17-.17-.3-.38-.1a.21.21,0,0,1,.16.07.49.49,0,0,0-.05.17c0,.17.1.23.28.24a.05.05,0,0,1,.06,0s0,.05,0,.08,0,0,0,0c-.29-.13-.42,0-.43.14a.53.53,0,0,0,0,.12c-.11.08-.15.23,0,.36,0-.06,0-.17.07-.19l0,0a.23.23,0,0,0,.07.07s.08,0,.17-.06,0,0,.07,0l.08.06a0,0,0,0,1,0,.06c-.21.19-.19.38.07.43,0,0,0,0,0,.06a.25.25,0,1,1-.48-.07c-.29.42.17.74.54.53,0,0,0,0,0,0a.15.15,0,0,0,.11.14s0-.08.08-.09,0,0,0,0,0,.22.17.23c0-.07,0-.14.05-.14s.23.29.52.45.41.37.57.21c0,.25.2.54.15.54a3.33,3.33,0,0,0-.91,0c-.25.14-.86.35-1,.1-.07-.09,0-.17-.12-.3a.31.31,0,0,0-.2-.15h-.14a.37.37,0,0,0-.41,0,.28.28,0,0,1,.23.16s-.05.11-.06.12,0,.21.36.35c0,0,0,0,0,.06a.18.18,0,0,1-.2,0c-.15-.12-.17-.28-.36-.18l-.12.06h0c-.17,0-.43.19-.31.38a.3.3,0,0,1,.21-.17s0,.1,0,.12c0,.2.12.34.52.08,0,0,0,0,0,0-.1.17-.36.34-.15.47l.09.07s0,0,0,0a.36.36,0,0,0,.33.39.41.41,0,0,1-.12-.34l.11,0c.2-.08.11-.31.21-.37s.06,0,.06,0,.06.32.29.29a.31.31,0,0,0,.3-.32s0,0,0,0a.21.21,0,0,1,.11.24.32.32,0,0,0,.17-.16.33.33,0,0,1-.09.4.58.58,0,0,0,.37-.38.38.38,0,0,1,.08.13l0,0a.92.92,0,0,0,.45,0s0,0,0,0a.22.22,0,0,0,0,.22s.07-.11.09-.11,0,.22.14.36c0-.58.36-.35.72-.58,0,0,0,0,0,0a.3.3,0,0,1-.15.19c.4.09,1-.52,1.12-.78a2.5,2.5,0,0,1,.38,0c1.15.1.35-1,2.19-.71a.86.86,0,0,0,.45-.2c-.14.24-.14.74.11.78a1,1,0,0,1,.44.19s0,0,0,0a1.13,1.13,0,0,0-.35.08c-.39.26-.4-.59-.81-.42l-.12.08c-.16,0-.39.19-.35.36a.43.43,0,0,1,.27-.15,1,1,0,0,0,0,.1c0,.05,0,.13.16.13s.1,0,.16,0,.06,0,.06,0-.52-.1-.43.34a.61.61,0,0,0,.07.13c0,.13.09.27.32.19,0,0-.13-.08-.11-.16h.1s0,0,.06-.07,0,0,0,0,0,0,0,0,0,.05,0,.1,0,.12,0,.14.2.33.44.17c-.07,0-.2,0-.23-.11l.11,0a.22.22,0,0,0,.05-.16s0,0,0,0h.1c.06,0,.07,0,.08,0a.25.25,0,0,0,.32.14c.28-.1,0-.34.27-.39a.34.34,0,0,1,.16,0c.22.06.55,0,.61-.05a.59.59,0,0,0-.21-.64c-.14-.07,0-.24-.12-.44a2,2,0,0,0,.81.2,1.5,1.5,0,0,0,1-.25,1,1,0,0,1,.72-.07c.07,0,.14,0,.12.15-.07.31,0,.34,0,.49s-.31,0-.49,0a.21.21,0,0,0-.19.08c-.15,0-.32.16-.31.34a.59.59,0,0,1,.27-.14.59.59,0,0,0,0,.07.22.22,0,0,0,.39.14s.07,0,0,0-.34.29-.16.36a.29.29,0,0,0,.11.07.27.27,0,0,0,.19.28c0-.07-.05-.11,0-.26h.1c.13,0,.07-.26.22-.34s0,0,0,0-.08.34.06.38l.11,0a.24.24,0,0,0,.37.11s-.14-.07-.16-.13a1,1,0,0,0,.1-.14c.09-.31-.19-.32-.19-.45s.32,0,.32-.37a.21.21,0,0,0-.14-.2s0,0,0,0h0c.09,0,.18,0,.23-.1-.24,0-.17-.19-.2-.31s0,0,0-.06.13-.16.1-.34c-.08.11-.34.23-.37,0,0,0,0-.17-.25-.13a8.39,8.39,0,0,1-1.43-.1c.86,0,2.13-.23,2.13-.71m-10.21.75s0,0,0,0v0M114.63,65a2,2,0,0,0,.51.2c-.24,0-.17.14-.33.14s-.2-.2-.18-.34m-.31-.16c-.07.11-.21.21-.33.1s0-.14-.12-.36a2,2,0,0,0,.45.26m-.49,1.05c0-.09.08-.17.14-.17a.14.14,0,0,0,.17-.1c0-.1-.06-.15-.15-.22.1,0,.15-.07.1-.11s-.15,0-.17,0,.05-.08.08-.1.07,0,.13,0l.41.2c.06,0,.09,0,.09.1s0,.13,0,.15,0-.13-.11-.15-.07.07,0,.16-.19-.08-.24,0a.16.16,0,0,0,0,.21s0,.11,0,.21-.16.23-.3.15a.23.23,0,0,1-.09-.32m1.07,2.28v0s0,0,0,0" transform="translate(-4.4 -5.17)"/></g><g id="svg_197" data-name="svg 197"><path id="svg_198" data-name="svg 198" class="cls-1" d="M122.19,71.84c0-.38-.41-.63-1.66-.63s-5.07.47-5.07-.24c0-.44,1.3-.26,2.24-.24a.44.44,0,0,0,.28.18c1.6.45,3.27-.62,4.42-.24-.91-.83-2.08.09-3.29-.17.71,0,1.45-.14,1.49-.34-.55.36-2.11-.25-2.76.17a.44.44,0,0,0-.11.09c-1.18,0-2.63-.16-2.63.54,0,1.25,4.36.51,5.4.51s1.27.11,1.27.31-1,.36-1.63.36c-1,0-5-.53-6.66,0,.09-.28.48-.69.3-.91a.39.39,0,0,0,.27-.31.64.64,0,0,0-.3-.15c0-.07,0-.15-.07-.21s-.06-.19-.08-.22a1.75,1.75,0,0,0-.37-.25,1.36,1.36,0,0,0-.37-.1s-.21,0-.23,0-.2,0-.21.09a.47.47,0,0,0-.28-.12.53.53,0,0,0,0,.44c-.15,0-.31.38-.44.34,0,.11.09.15.14.16-.12.22-.17.48-.31.5a.62.62,0,0,0,.14.14,2.31,2.31,0,0,0,0,.38l-.13,0-.19,0a1,1,0,0,0-.21,0c-.2,0-.34-.34-.68-.53s-.25-.26-.25-.52.1-.41.09-.61c0,0,0-.13-.06-.19a.32.32,0,0,0-.33-.21.27.27,0,0,1,.13.22.44.44,0,0,0-.1.12.14.14,0,0,0,0,.21.07.07,0,0,1,0,0,.36.36,0,0,1,0,.1s0,0,0,0-.13-.38-.27-.39h-.1s0,0,0,0-.18-.28-.37-.09a.2.2,0,0,1,.14.07,1.14,1.14,0,0,0,0,.16c0,.17.11.22.28.23s0,0,.05,0a.68.68,0,0,0,0,.07s0,0,0,0c-.27-.13-.4,0-.41.13a.33.33,0,0,0,0,.11c-.1.08-.13.22.06.34,0,0,0-.15.07-.17h0l.08.07s.07,0,.16-.06a.07.07,0,0,1,.07,0l.08.05a0,0,0,0,1,0,.05c-.19.18-.16.37.09.41,0,0,0,0,0,.06,0,.34-.47.28-.46-.07-.25.4.2.71.54.51,0,0,0,0,0,0a.16.16,0,0,0,.12.13.07.07,0,0,1,.08-.07s0,0,0,0a.21.21,0,0,0,.17.23c0-.07,0-.14,0-.14a4,4,0,0,0,.82.75c.1,0,.24,0,.29-.14,0,0,.05.08.11.12,0,.23.17.52.12.52a4.26,4.26,0,0,0-1,0c-.23.13-.8.34-1,.09-.06-.08,0-.15-.12-.27a.27.27,0,0,0-.18-.15h-.14a.34.34,0,0,0-.39,0,.3.3,0,0,1,.23.15s-.06.1-.07.11,0,.2.35.33c0,0,.05,0,0,0a.17.17,0,0,1-.2,0c-.14-.11-.17-.27-.33-.17l-.12.05h0c-.16,0-.41.19-.29.37a.27.27,0,0,1,.2-.17.36.36,0,0,1,0,.11c0,.19.12.34.5.08,0,0,0,0,0,0s-.35.32-.15.44l.09.07a.06.06,0,0,0,0,0,.33.33,0,0,0,.31.37.39.39,0,0,1-.11-.33s.09,0,.1,0c.18-.07.1-.29.2-.36s.06,0,.06,0,0,.29.27.27a.3.3,0,0,0,.29-.3s0,0,0,0a.21.21,0,0,1,.1.23.4.4,0,0,0,.16-.15.33.33,0,0,1-.09.37.52.52,0,0,0,.35-.37.34.34,0,0,1,.07.12l0,0a.69.69,0,0,0,.44,0s0,0,0,0a.35.35,0,0,0,0,.22s.06-.11.09-.11,0,.21.12.34c.05-.54.7-.27,1-.49,0,0,0,0,0,0a.35.35,0,0,1-.15.18.82.82,0,0,0,.46-.18l0,0,.56-.25a1.13,1.13,0,0,0,0-.17l.19,0,0,0c.36,0,.32-.27.46-.24,2,.27.87-.88,3.26-.64.12,0,.17,0,.27-.14-.13.24-.13.62.11.67a.85.85,0,0,1,.41.17s0,0,0,0a1.23,1.23,0,0,0-.34.08c-.37.24-.39-.55-.78-.4l-.1.08c-.16,0-.37.18-.33.35a.41.41,0,0,1,.25-.15.74.74,0,0,0,0,.08c0,.07,0,.13.14.13s.1,0,.16,0,0,0,0,0-.49-.08-.4.33l.07.13c0,.12.08.24.31.18,0,0-.13-.08-.11-.15h.1s0,0,0-.06,0,0,0,0,0,0,0,0,0,0,0,.08a.57.57,0,0,0,0,.14c0,.15.2.3.42.15-.06,0-.2,0-.21-.1l.1,0s0-.09,0-.15a0,0,0,0,1,0,0h.1c.05,0,.07,0,.08,0a.24.24,0,0,0,.3.13c.26-.1,0-.33.25-.37a.32.32,0,0,1,.16,0c.2.06.52,0,.57-.05a.56.56,0,0,0-.2-.61c-.13-.07,0-.23-.12-.42a2,2,0,0,0,.78.19,1.45,1.45,0,0,0,1-.24,1,1,0,0,1,.69-.07c.07,0,.14,0,.11.14-.07.3,0,.32,0,.45s-.3,0-.47,0a.2.2,0,0,0-.18.09.34.34,0,0,0-.3.32.59.59,0,0,1,.26-.13.11.11,0,0,0,0,.06.21.21,0,0,0,.37.14s.07,0,0,0-.33.29-.15.36l.1.05a.26.26,0,0,0,.19.27c0-.06,0-.11,0-.24h.1c.13,0,.07-.25.21-.32s0,0,0,0-.07.32.06.36l.1,0a.23.23,0,0,0,.35.1s-.13-.06-.16-.12a.36.36,0,0,0,.09-.13c.1-.3-.17-.31-.17-.44s.3-.05.3-.37a.21.21,0,0,0-.14-.19s0,0,0,0h0c.09,0,.17,0,.22-.09-.23,0-.15-.18-.19-.3s0,0,0-.05a.34.34,0,0,0,.1-.33c-.07.11-.33.23-.34,0,0,0,0-.17-.25-.12a8.15,8.15,0,0,1-1.35-.11c.71,0,2-.2,2-.67m-9.09-1a2.54,2.54,0,0,0,.49.2c-.22,0-.17.12-.32.12s-.19-.19-.17-.31m-.3-.16c-.07.11-.2.2-.31.1s0-.13-.12-.34a1.86,1.86,0,0,0,.43.24m-.46,1c0-.08.07-.15.12-.15s.13,0,.16-.1-.05-.14-.14-.2c.09,0,.14-.07.09-.11s-.15,0-.17,0,.05-.07.08-.1.07,0,.13,0l.4.19a.11.11,0,0,1,.08.1s0,.12,0,.13,0-.12-.12-.13,0,0,0,.14-.19-.07-.23,0a.16.16,0,0,0,0,.2s0,.11,0,.2-.15.21-.28.15a.22.22,0,0,1-.08-.32" transform="translate(-4.4 -5.17)"/></g><g id="svg_195" data-name="svg 195"><path id="svg_196" data-name="svg 196" class="cls-1" d="M139.89,81.42a0,0,0,0,1,0,0A.34.34,0,0,0,140,81c-.08.11-.34.24-.35,0,0,0,0-.16-.23-.12a8.82,8.82,0,0,1-1.45-.1s-.08,0,0-.05c.71-.06,2-.16,2-.62s-.43-.63-1.67-.63-5.07.45-5.07-.24c0-.44,1.28-.26,2.24-.23a.49.49,0,0,0,.27.17c1.6.45,3.43-.74,4.4-.47-1.26-.44-2.05.32-3.27.07.71,0,1.46-.15,1.49-.34-.55.35-2.1-.25-2.76.17l-.11.09c-1.18,0-2.61-.15-2.61.54,0,1.24,4.35.52,5.39.52s1.28.11,1.28.3-1,.37-1.62.37c-1,0-5-.54-6.67,0,.09-.27.49-.69.31-.91a.38.38,0,0,0,.26-.32.53.53,0,0,0-.3-.14c.05-.07,0-.15-.07-.21s0-.19-.09-.21a1.42,1.42,0,0,0-.36-.25,1.1,1.1,0,0,0-.37-.1,1.37,1.37,0,0,0-.22,0c-.09,0-.19,0-.21.1a.48.48,0,0,0-.29-.13.61.61,0,0,0,0,.45c-.15,0-.3.37-.44.33.05.11.1.15.14.16-.12.22-.17.49-.32.5.09.12.16.17.21.18s0,.26,0,.37l-.21-.07h-.2l-.2,0c-.2,0-.35-.34-.68-.53s-.25-.26-.25-.52.1-.41.09-.6a1.13,1.13,0,0,0-.07-.2.33.33,0,0,0-.33-.22.29.29,0,0,1,.14.22l-.1.12a.18.18,0,0,0,0,.22,0,0,0,0,1,0,0,.37.37,0,0,1,0,.1s0,0,0,0-.12-.37-.26-.39h-.11a.05.05,0,0,0,0,0c0-.16-.17-.28-.36-.1,0,0,.13,0,.15.07s0,.15,0,.16c0,.16.11.23.28.23s.05,0,.06,0a.29.29,0,0,1,0,.07s0,0,0,0c-.28-.13-.41,0-.41.14a.51.51,0,0,0,0,.11c-.1.07-.12.22.06.34,0,0,0-.16.07-.18h0l.08.06s.07,0,.17-.06a.09.09,0,0,1,.07,0,.19.19,0,0,0,.08.05s0,0,0,0c-.2.19-.17.37.09.42a.05.05,0,0,1,0,.06c0,.35-.48.28-.46-.07-.26.41.2.71.54.51,0,0,0,0,0,0s.05.13.11.13a.08.08,0,0,1,.08-.07s0,0,0,0,0,.21.17.23,0-.14,0-.14.29.51.81.79c0,0,.19-.12.3-.19a.3.3,0,0,0,.17.23l.08,0c0,.24.25.48.2.48a2.12,2.12,0,0,0-.71,0c-.23.14-.81.34-1,.1s0-.17-.11-.29a.28.28,0,0,0-.19-.15h-.14a.33.33,0,0,0-.38,0,.28.28,0,0,1,.21.15l-.06.11c0,.08,0,.2.34.33,0,0,.05,0,0,.06a.16.16,0,0,1-.2,0c-.14-.1-.17-.26-.34-.17l-.11,0h0c-.16,0-.4.19-.3.38a.25.25,0,0,1,.2-.18l0,.11c0,.19.11.34.49.08,0,0,0,0,0,0-.08.16-.34.32-.14.44l.08.07s0,0,0,0a.34.34,0,0,0,.31.36.38.38,0,0,1-.12-.32l.11,0c.18-.07.1-.3.2-.37s0,0,0,0,.05.29.27.27a.27.27,0,0,0,.27-.3s0,0,0,0a.24.24,0,0,1,.1.24.42.42,0,0,0,.16-.16.33.33,0,0,1-.09.38.53.53,0,0,0,.35-.37.34.34,0,0,1,.08.12,0,0,0,0,1,0,0,.7.7,0,0,0,.43,0s0,0,0,0a.29.29,0,0,0,0,.22s.06-.11.09-.11,0,.21.12.35c0-.56.35-.34.69-.56,0,0,0,0,0,0a.36.36,0,0,1-.16.18c.13.1.63-.22.63-.42,0-.05.2-.07.36-.1.35,0,.3-.26.45-.24,2,.27.87-.88,3.26-.64.11,0,.17-.14.27-.23-.12.23-.13.7.12.75a1,1,0,0,1,.41.17s0,0,0,0a1.09,1.09,0,0,0-.34.08c-.36.24-.37-.55-.77-.41l-.11.09c-.16,0-.37.19-.34.35a.39.39,0,0,1,.25-.15v.08c0,.07,0,.13.15.13s.1,0,.15,0a0,0,0,0,1,0,0c0,.15-.49-.08-.4.33a1,1,0,0,0,.08.13c0,.12.08.24.3.17,0,0-.12-.09-.1-.15H135s0,0,.06-.07,0,0,0,0,0,0,0,0,0,0,0,.08,0,.12,0,.14.2.31.41.16c-.06,0-.2,0-.22-.1l.11-.05s0-.08,0-.14,0,0,0,0h.11a.06.06,0,0,1,.07,0,.25.25,0,0,0,.3.13c.27-.09,0-.32.26-.37a.49.49,0,0,1,.16,0c.2.05.51,0,.56-.05a.55.55,0,0,0-.2-.6c-.13-.06,0-.23-.11-.42a1.9,1.9,0,0,0,.78.2,1.65,1.65,0,0,0,1-.24.92.92,0,0,1,.7-.07c.07,0,.12,0,.1.14-.09.3,0,.33-.07.46s-.3,0-.47,0a.26.26,0,0,0-.18.08.4.4,0,0,0-.33.32.58.58,0,0,1,.27-.13v.06a.2.2,0,0,0,.36.14s.07,0,0,0-.35.28-.17.35l.09.05a.23.23,0,0,0,.16.27c0-.07,0-.11,0-.24h.1c.13,0,.09-.25.24-.33s0,0,0,0-.11.33,0,.37l.1,0c0,.11.16.19.34.1,0,0-.12-.06-.14-.12a.67.67,0,0,0,.1-.14c.12-.31-.14-.31-.13-.44s.3-.05.33-.37a.16.16,0,0,0-.11-.17,0,0,0,0,1,0,0h0c.09,0,.17,0,.23-.09-.23,0-.14-.18-.17-.3m-9-2.32a2.08,2.08,0,0,0,.48.2c-.22,0-.17.13-.3.13s-.2-.2-.18-.33m-.3-.16c-.07.12-.2.21-.31.1s0-.14-.12-.34a2.26,2.26,0,0,0,.43.23m-.47,1c0-.09.09-.16.13-.16s.13,0,.17-.1-.06-.14-.15-.2c.09,0,.15-.07.09-.11s-.14,0-.16,0,0-.08.07-.11.07,0,.13,0l.4.19s.07,0,.07.11,0,.11,0,.13,0-.12-.11-.13-.06.05,0,.14-.18-.08-.23,0a.15.15,0,0,0,0,.2s0,.1,0,.2-.14.2-.27.14a.23.23,0,0,1-.09-.31m-.32-.56h0Zm.1-.44h0m1.86,2.9h0" transform="translate(-4.4 -5.17)"/></g><g id="svg_193" data-name="svg 193"><path id="svg_194" data-name="svg 194" class="cls-1" d="M134.3,84.55a.4.4,0,0,0,.28.2c1.53.44,3.27-.71,4.19-.44-1.21-.42-2,.3-3.12.07.68,0,1.39-.15,1.43-.33-.53.35-2-.22-2.63.17a.32.32,0,0,0-.1.07c-.84,0-1.52,0-1.52.53,0,1.18,3.17.49,4.17.49s.88.1.88.3-1.14.35-1.7.35c-.85,0-3.45-.45-5-.14.13-.26.41-.59.26-.78a.37.37,0,0,0,.24-.3.54.54,0,0,0-.29-.13c0-.07,0-.15-.07-.21s-.05-.17-.09-.2a1.25,1.25,0,0,0-.34-.24,1,1,0,0,0-.36-.1s-.19,0-.22,0-.18,0-.2.09a.45.45,0,0,0-.27-.12.57.57,0,0,0,0,.42c-.14,0-.28.37-.41.33,0,.1.09.14.13.15-.12.21-.17.46-.3.48a.57.57,0,0,0,.12.13,2.4,2.4,0,0,0-.08.45l-.14,0H129a1.09,1.09,0,0,1-.61-.18c-.24-.13-.24-.25-.24-.49s.1-.39.08-.59a1,1,0,0,0-.05-.18.33.33,0,0,0-.32-.2.28.28,0,0,1,.13.2l-.09.11a.14.14,0,0,0,0,.21,0,0,0,0,1,0,0s0,0,0,.1,0,0,0,0-.12-.37-.26-.37h-.09v0c0-.15-.16-.27-.34-.1,0,0,.11,0,.14.07a1.09,1.09,0,0,0,0,.15c0,.16.11.21.27.22s0,0,.05,0a.39.39,0,0,1,0,.06s0,0,0,0c-.27-.11-.38,0-.39.12a.41.41,0,0,0,0,.12c-.1.06-.12.21.05.31,0,0,0-.14.06-.16l0,0s.07.06.07.07.07,0,.16-.05a0,0,0,0,1,.06,0l.08.06s0,0,0,0c-.18.17-.16.35.08.39,0,0,0,0,0,.06,0,.33-.46.27-.44-.07-.24.38.19.67.52.48,0,0,0,0,0,0s.05.12.11.13a.07.07,0,0,1,.07-.07s0,0,0,0a.21.21,0,0,0,.16.21c0-.07,0-.14,0-.14s0-.14.46.08a.28.28,0,0,0,.15.15l.3-.05c0,.23,0,.58,0,.58a2,2,0,0,0-.69,0c-.22.12-.77.32-.92.09s0-.16-.11-.27a.29.29,0,0,0-.18-.14h-.13a.33.33,0,0,0-.37,0,.28.28,0,0,1,.21.14s0,.1-.06.11,0,.19.33.31c0,0,0,0,0,.06a.18.18,0,0,1-.19,0c-.14-.11-.15-.26-.31-.17l-.12,0h0c-.14,0-.37.18-.27.36a.24.24,0,0,1,.19-.16.69.69,0,0,1,0,.1c0,.18.11.32.47.07,0,0,0,0,0,0s-.32.3-.14.43l.08.06a.08.08,0,0,0,0,0,.32.32,0,0,0,.3.34.36.36,0,0,1-.12-.3l.11,0c.17-.07.09-.27.19-.34s0,0,0,0,.06.28.27.27a.28.28,0,0,0,.27-.3s0,0,0,0a.21.21,0,0,1,.1.23.48.48,0,0,0,.15-.16.31.31,0,0,1-.08.37.49.49,0,0,0,.33-.36.26.26,0,0,1,.08.11l0,0a.67.67,0,0,0,.41,0,0,0,0,0,1,0,0,.22.22,0,0,0,0,.22s.06-.12.08-.12,0,.21.12.33c0-.52.47-.39.8-.61,0,0,0,0,0,0a.33.33,0,0,1-.14.17c.35.22.72-.27.82-.53a.35.35,0,0,0,.1-.1c0,.05,0,.1-.06.16.34,0,.3-.25.44-.24,1,.09.24-.87,1.9-.58a.66.66,0,0,0,.41-.18c-.12.22-.13.67.1.71a1,1,0,0,1,.4.17s0,0,0,0a.87.87,0,0,0-.33.08c-.35.23-.36-.53-.73-.38a.29.29,0,0,0-.1.07c-.15,0-.36.18-.32.33a.37.37,0,0,1,.24-.14.74.74,0,0,0,0,.08c0,.05,0,.12.14.12s.1,0,.15,0a0,0,0,0,1,0,0c0,.14-.46-.08-.38.31a.41.41,0,0,0,.07.11c0,.12.08.24.29.17,0,0-.11-.09-.1-.14h.09s0,0,0-.06,0,0,0,0,0,0,0,0,0,0,0,.08a.36.36,0,0,0,0,.13c0,.14.19.29.4.15-.06,0-.19,0-.2-.11l.1,0a.19.19,0,0,0,0-.14s0,0,0,0h.09a.07.07,0,0,1,.07,0,.22.22,0,0,0,.29.12c.25-.09,0-.31.23-.35a.27.27,0,0,1,.16,0c.19,0,.49,0,.54-.05a.53.53,0,0,0-.19-.58c-.12-.05,0-.21-.1-.4a1.72,1.72,0,0,0,.74.18,2,2,0,0,0,1.07-.22.92.92,0,0,1,.67-.07c.07,0,.12,0,.07.14-.13.28-.05.31-.14.43s-.29,0-.46,0a.27.27,0,0,0-.17.07.49.49,0,0,0-.37.31.64.64,0,0,1,.28-.13v.06c0,.19.16.25.31.12s.07,0,0,0-.38.27-.23.34l.1,0a.18.18,0,0,0,.1.25c0-.07,0-.1.08-.23h.1c.12,0,.12-.25.28-.32s0,0,0,0-.15.31,0,.34l.09,0c0,.11.13.18.32.1,0,0-.12-.06-.12-.11l.12-.13c.16-.3-.09-.3-.06-.42s.29,0,.38-.34a.16.16,0,0,0-.08-.18l0,0h0c.09,0,.16,0,.23-.1-.22,0-.1-.17-.1-.28a.05.05,0,0,1,0,0,.39.39,0,0,0,.17-.31c-.09.1-.36.21-.34,0,0,0,0-.15-.2-.11a11.09,11.09,0,0,1-1.56-.1s-.07,0,0-.05c.68,0,2.06-.15,2.06-.59S138.2,85,137,85s-3.85.44-3.85-.23c0-.32.51-.3,1.14-.26m-3.85-.08c-.07.1-.19.19-.3.09s0-.13-.1-.33a1.79,1.79,0,0,0,.41.24m.23.72s0-.11-.1-.13-.06,0,0,.14-.17-.08-.22,0a.15.15,0,0,0,0,.19s0,.1,0,.19-.14.2-.27.14a.21.21,0,0,1-.08-.3c0-.08.08-.14.12-.14s.13,0,.16-.09-.05-.14-.14-.2c.09,0,.13-.07.09-.1s-.14,0-.15,0,0-.07.07-.1.07,0,.12,0l.38.17s.07,0,.07.1,0,.11,0,.13m.2-.27c-.14,0-.19-.19-.16-.31a1.83,1.83,0,0,0,.46.19c-.21,0-.17.13-.3.13" transform="translate(-4.4 -5.17)"/></g><g id="svg_191" data-name="svg 191"><path id="svg_192" data-name="svg 192" class="cls-1" d="M133.05,90a.4.4,0,0,0,.28.2c1.52.43,3.27-.71,4.2-.45-1.2-.42-2,.31-3.12.07.68,0,1.39-.14,1.42-.31-.53.34-2-.24-2.63.14a.52.52,0,0,0-.12.12c-.47.1-.87.36-.87.7,0,1,3.91.2,3.91.54s-.77.52-1.79.52a10.66,10.66,0,0,0-3.81-.09v0c.12-.29.47-.71.31-.91a.32.32,0,0,0,.24-.28.47.47,0,0,0-.27-.13c0-.08,0-.14-.07-.2s0-.17-.08-.19a1.59,1.59,0,0,0-.33-.22,1.74,1.74,0,0,0-.34-.1,1.17,1.17,0,0,0-.2,0c-.07,0-.17,0-.19.08a.22.22,0,1,0-.29.3c-.14,0-.27.35-.4.3,0,.1.09.14.13.14-.11.21-.16.44-.29.45a.59.59,0,0,0,.14.14,2.77,2.77,0,0,0-.07,1,7.11,7.11,0,0,0-.84-1c-.23-.14-.23-.24-.23-.47s.09-.37.08-.55a1.36,1.36,0,0,0-.05-.18.3.3,0,0,0-.3-.2.27.27,0,0,1,.13.2.43.43,0,0,0-.09.1.13.13,0,0,0,0,.19,0,0,0,0,1,0,0,.25.25,0,0,1,0,.09s0,0,0,0-.12-.34-.23-.35h-.09s0,0,0,0-.16-.25-.33-.08c0,0,.11,0,.13.06a1.11,1.11,0,0,0,0,.15c0,.14.1.2.25.2s0,0,0,0,0,0,0,.07,0,0,0,0c-.26-.1-.37,0-.38.12a.57.57,0,0,0,0,.11c-.09.06-.11.19.06.3,0-.05,0-.14.05-.16h0l.07.07s.06,0,.15-.06h0l.08.05a0,0,0,0,1,0,0c-.17.17-.14.33.08.37,0,0,0,0,0,0,0,.32-.44.26-.42-.06-.23.37.18.64.49.46,0,0,0,0,0,0s0,.1.1.11,0-.07.07-.07,0,0,0,0,0,.19.15.21,0-.13,0-.13,0,.49.45.75a.51.51,0,0,0,.54.39c.08.19.19.37.16.37a2.44,2.44,0,0,0-.75,0,1.51,1.51,0,0,1-.5.17l0,0,0,0a.38.38,0,0,1-.37-.08c-.05-.07,0-.15-.1-.26a.28.28,0,0,0-.17-.14h-.13a.31.31,0,0,0-.35,0,.24.24,0,0,1,.19.13s0,.1,0,.11,0,.17.3.29c0,0,.05,0,0,0a.15.15,0,0,1-.18,0c-.14-.1-.15-.24-.31-.16l-.1,0h0c-.14,0-.37.17-.26.34a.25.25,0,0,1,.17-.16.77.77,0,0,0,0,.1c0,.17.1.3.43.07,0,0,0,0,0,0s-.31.28-.13.4l.07,0a.09.09,0,0,0,0,0,.3.3,0,0,0,.28.33.33.33,0,0,1-.1-.29l.1,0c.16-.07.08-.27.18-.33s0,0,0,0,.05.27.25.25a.27.27,0,0,0,.26-.27s0,0,0,0a.18.18,0,0,1,.1.2.38.38,0,0,0,.14-.14.27.27,0,0,1-.08.33.46.46,0,0,0,.32-.33.21.21,0,0,1,.07.11s0,0,0,0a.59.59,0,0,0,.39,0s0,0,0,0a.24.24,0,0,0,0,.2s.06-.1.08-.1,0,.19.11.3c0-.49.31-.3.63-.5,0,0,0,0,0,0a.36.36,0,0,1-.14.16c.12,0,.47-.15.47-.33a2.2,2.2,0,0,0,.29-.86h.13c.41,0,.6-.33,1-.35a1,1,0,0,0-.13.6c0,.22.3.47.38.54s0,0,0,0a.84.84,0,0,0-.3.08c-.34.22-.34-.5-.7-.37l-.1.08c-.15,0-.34.16-.3.31a.38.38,0,0,1,.23-.14v.07c0,.07,0,.12.13.12s.09,0,.14,0a0,0,0,0,1,0,0c0,.14-.45-.08-.36.3,0,0,0,.08.06.11s.09.23.28.17c0,0-.11-.08-.1-.14h.09s0,0,.06-.06,0,0,0,0,0,0,0,0,0,0,0,.08,0,.1,0,.1.18.28.38.14c-.05,0-.18,0-.2-.09l.1,0a.17.17,0,0,0,0-.13s0,0,0,0h.1s.06,0,.07,0a.22.22,0,0,0,.27.1c.24-.08,0-.29.23-.34h.14c.19,0,.34.09.39,0a.52.52,0,0,0-.17-.55c-.12-.06.17-.81-.41-1.15.27.07,1.13.19,1.28,0a1.52,1.52,0,0,1,.59.29c0,.05.05.11,0,.15-.23.14-.19.22-.32.26h0a1.63,1.63,0,0,0-.23-.23.17.17,0,0,0-.18,0,.33.33,0,0,0-.37.15.51.51,0,0,1,.26,0,.29.29,0,0,0,0,.06s0,.08.05.12h0l0,0s0,0,0,0-.38,0-.32.12l0,.1a.22.22,0,0,0-.06.29c0-.06,0-.09.16-.14l.06.08c.07.07.2-.13.34-.08s0,0,0,0-.26.14-.2.25l0,.09a.22.22,0,0,0,.15.3.28.28,0,0,1,0-.18l.14,0c.26-.13.1-.3.18-.38s.21.16.42,0a.19.19,0,0,0,0-.2s0,0,0,0h0c.05.06.1.13.2.07-.16-.14,0-.2.08-.3s0,0,0,0,.17,0,.27-.14c-.11,0-.41-.15-.23-.22s.31-.24.2-.37-.63-.29-.64-.59h.38c1.32,0,2.16-.37,2.14-.78,0-.89-4,.07-4-.57,0-.19.24-.34.55-.44m-2.86.13a1.73,1.73,0,0,0,.44.18c-.2,0-.16.12-.28.11s-.18-.17-.16-.29m-.26-.14c-.07.09-.19.18-.28.08s0-.12-.11-.3a1.85,1.85,0,0,0,.39.22m-.42.9c0-.07.07-.14.11-.14s.12,0,.14-.08,0-.13-.13-.17c.08,0,.13-.07.08-.1s-.14,0-.15,0,0-.08.07-.1.07,0,.12,0l.35.17s.07,0,.07.1,0,.1,0,.12,0-.11-.09-.12-.06,0,0,.12-.17-.07-.2,0,0,.11,0,.17,0,.1,0,.18-.13.2-.25.13a.2.2,0,0,1-.07-.28" transform="translate(-4.4 -5.17)"/></g><g id="svg_189" data-name="svg 189"><path id="svg_190" data-name="svg 190" class="cls-1" d="M69.22,21.36a1,1,0,1,0-1,1,1,1,0,0,0,1-1" transform="translate(-4.4 -5.17)"/></g><g id="svg_187" data-name="svg 187"><path id="svg_188" data-name="svg 188" class="cls-1" d="M68.88,18.82a1,1,0,1,0-1,1,1,1,0,0,0,1-1" transform="translate(-4.4 -5.17)"/></g><g id="svg_185" data-name="svg 185"><path id="svg_186" data-name="svg 186" class="cls-1" d="M69.43,17.69a1,1,0,1,0-.95-1,1,1,0,0,0,.95,1" transform="translate(-4.4 -5.17)"/></g><g id="svg_183" data-name="svg 183"><path id="svg_184" data-name="svg 184" class="cls-1" d="M72,17.52a1,1,0,1,0-.95-1,1,1,0,0,0,.95,1" transform="translate(-4.4 -5.17)"/></g><g id="svg_181" data-name="svg 181"><path id="svg_182" data-name="svg 182" class="cls-1" d="M82.82,15.75a1,1,0,1,0,0-1.35,1,1,0,0,0,0,1.35" transform="translate(-4.4 -5.17)"/></g><g id="svg_179" data-name="svg 179"><path id="svg_180" data-name="svg 180" class="cls-1" d="M82.61,13.72a1,1,0,1,0-1.35,0,1,1,0,0,0,1.35,0" transform="translate(-4.4 -5.17)"/></g><g id="svg_177" data-name="svg 177"><path id="svg_178" data-name="svg 178" class="cls-1" d="M80.08,13.3a1,1,0,1,0-1.35,0,1,1,0,0,0,1.35,0" transform="translate(-4.4 -5.17)"/></g><g id="svg_175" data-name="svg 175"><path id="svg_176" data-name="svg 176" class="cls-1" d="M77.92,14.91a1,1,0,0,0,0-1.35,1,1,0,1,0,0,1.35" transform="translate(-4.4 -5.17)"/></g><g id="svg_173" data-name="svg 173"><path id="svg_174" data-name="svg 174" class="cls-1" d="M71.82,13.6l.77,1.67,1-1.16.12,0a17.62,17.62,0,0,1,.12,2.08,1.22,1.22,0,1,0,1.79-1.08,9.61,9.61,0,0,1-1.35-1.26.42.42,0,0,0,.06-.15l1.62.14-.64-1.72-1.21,1-.06,0-.09-1.77L72.24,12l1.11,1.31a.61.61,0,0,0-.07.14l-1.46.12Z" transform="translate(-4.4 -5.17)"/></g><g id="svg_171" data-name="svg 171"><path id="svg_172" data-name="svg 172" class="cls-1" d="M82.89,16.57a2.45,2.45,0,0,1,.53,1.32,2.72,2.72,0,0,1-1-.91l.2,2.23a2,2,0,0,1,.8-.8c-.08,1.45-.66,2-1.15,2.15a.94.94,0,0,1-1.14-.74c-.12-.64.44-1,1-.47.11-1.34-1-1.32-1.44-.75a2,2,0,0,0-.81-2.84c-.71,1.21-.41,2,.49,2.91-.88-.45-1.67.3-.88,1.29.17-.86.91-.67,1.08,0s-.41,1.34-1.37,1.62c-1.37.42-1.81-.46-2.15-1.2a1.93,1.93,0,0,1,1.79.37l-.66-2.18a2.24,2.24,0,0,1-1.31,1.32A6.92,6.92,0,0,1,77.29,18l-2.63,1.07a6.68,6.68,0,0,1,1.63,1.07,2.2,2.2,0,0,1-1.86,0l1,2c.21-.9.67-1.45,1-1.52.28.77.57,1.7-.69,2.36a1.62,1.62,0,0,1-2.12-.21c-.35-.61,0-1.27.76-.77-.12-1.26-1.22-1.24-1.53-.3,0-1.3-.32-2.07-1.69-2.43a2,2,0,0,0,1.41,2.6c-.74-.08-1.52.65-.51,1.54,0-.81.68-.91,1.05-.37a.94.94,0,0,1-.31,1.32c-.42.27-1.25.25-2.32-.74a2,2,0,0,1,1.13,0l-1.41-1.73a2.69,2.69,0,0,1-.08,1.34A2.46,2.46,0,0,1,69.65,22l-1.08,1a12.28,12.28,0,0,1,3.61,3.55A46.75,46.75,0,0,1,78,23.56a46.18,46.18,0,0,1,6.2-2,12.37,12.37,0,0,1,.1-5.06l-1.44.06Z" transform="translate(-4.4 -5.17)"/></g><g id="svg_169" data-name="svg 169"><path id="svg_170" data-name="svg 170" class="cls-1" d="M103.85,77.36c.38-1-1.5-2.18-1.72-3.65s0-2.86-1.72-4.83-7.36-8-9.09-10a2.73,2.73,0,0,1,2.51.72c.62.57,1.83,1.74,3,2.86a31,31,0,0,1,6.07-9.75c.34-.39.69-.76,1-1.12a13.73,13.73,0,0,0-3.38,1.12c-.07-1.68.06-3-1.09-4.11.44-2.35.06-5.18-5.21-8.68,2.69.64,4.29,3.08,6.35,1.21-1.85,0-1.89-4.08-8.56-7.43,2.55-.05,4.54,4.07,7.49,1.73-2.78-.33-3.7-5.27-8.71-6.8,1.73.2,3.53,1,5-1-1.73.41-2.76-1.2-4.63-1.34A6.18,6.18,0,0,0,91,21.24a6.45,6.45,0,0,0-3.61,1.28c-.14-1.19-1.4-1.26-2.5-1.17.06.52.3,1.26-.26,1.37a46.83,46.83,0,0,0-6.18,1.86,33.66,33.66,0,0,0-5.69,3.05c-.47.32-.87-.44-1.15-.78-.81.69-1.61,1.58-1,2.48a7.16,7.16,0,0,0-3.89,1.4c0,1.49,1.23,2.93,3.07,3.74-3.1,3.07-.3,5.92-3,8.6,3.83.14,3.16-5.19,5.1-5.94-.2,3.75-2.29,4.42-2.29,8.46,0,2.16,1.28,4.51.14,5.93,3.21-.88,2.36-8,4.36-10.1A6,6,0,0,1,73.76,45c-1.12,3.31.13,7.83-1.62,9.3,3.27-.32,3.66-5.57,6.35-7.5-2.31,4.73-4.69,14.79-8.14,19.83-5.58,7.52-8.85,16.7-14,16.7-2.26,0-4-1.38-4-4.24,0-8.55,14.67-14.43,14.67-23.54A5.42,5.42,0,0,0,61.72,50a7.52,7.52,0,0,0-4.49,1.86,4.84,4.84,0,0,0-1.73-.38c-5.18,0-3.8,9.32-8.32,9.23,1.79,1,4.88-.95,6.69-3.56-.76,6-9.46,4.43-8.79,11.69C46.3,63.13,60.16,64,60.16,55.34A3.33,3.33,0,0,0,59,52.91,5.34,5.34,0,0,1,61.9,52c1.66,0,3.18,1.24,3.18,3.68,0,7.63-14.58,14.08-14.58,23.45a6.61,6.61,0,0,0,1.21,3.94,2.42,2.42,0,0,1-3-.79c-.08,2.41,3.37,3.94,5.54,2.72a5.79,5.79,0,0,0,1.51.31c-.66,1.79-2.89,2.33-4.05,2.25,3.58,2.82,9.81-.88,9.46-4.07,2.84-2.28,4.63-6.2,6.69-8.78q-.2.9-.33,1.78c-2.09,3.8-4.05,7.21-4.6,12.22-.46,4.19-2.58,8-5.52,8-.64,0-1.71-.84-2.21-.42-.92.79,0,1.62,0,2.4,0,1.19-2.3,2.38-2.3,6.06,0,1.66,1,3.65.6,4.74a6.71,6.71,0,0,0,2.7-4.09c1,4.86-2.07,4.65.15,9a1.78,1.78,0,0,1,2.57-1.43c.88.6.47,1-.18,1.66s-1.24,3.87,1.7,3.68c-.55-.37-.59-1.22.87-1.52,2-.41,2.62.52,4.78.52,1.34,0,1.7-1.75,2.77-1.75s1.05.82.68,1.42c1.71-.46,2-1.38,2-2.34s-.78-1.56-.18-1.93,2.57,0,1.79,1.65a1.9,1.9,0,0,0,1.56-2.16c0-1.24-1.42-2-2.75-1.75-.23-.78-1.38-1.2-2.44-1.2-2.39,0-2,1.89-3.66,1.89-2.62,0-5.17-3.41-5.17-9.16C60.72,98.82,64,98,66.38,97a20.22,20.22,0,0,0,8.92-7.67c1.93-3.24,2-6.78,1.74-11A7,7,0,0,1,80.73,85a4,4,0,0,1-2.38,4.09c-.89.41-1.19.24-1.28.77a1.14,1.14,0,0,0,.71,1.24c1.19.61.95,1.76,1.28,3a9.5,9.5,0,0,0,3.29,4.62,13.64,13.64,0,0,0,0-3.59c2.54,1.25.51,6.36,5.44,6.36a1.25,1.25,0,0,1-.14-2.05c.52-.19,1.18.34,2.14,1.66s.7,1.23,3,1.23,1.28-.81,2.52-.81,1.14,1.42.48,2.47c2.09-.63,2.71-2.21,2-3.84,1.83-1,2.81.41,3.08,1.42,1.81-1.8,0-4-1.42-4.14A1.44,1.44,0,0,0,98.17,96a18.56,18.56,0,0,0-2.33-.05C95,96,94.51,97.2,93.51,97.2c-3.09,0-9.21-5.6-9.21-8s5.85-3.9,5.85-7.66c0-4.91-4.83-6.59-8.9-9.74,1.45-1.63,5.68-2,8.08-.84.27-1.37,1.15-1,1.48-3.39.86,2.07,0,3.86.85,4.75.68-1,2.43-.86,2.33-3.43.53,1.61-.68,4.08.53,5.15.22-1.32,1-1.58,1.51-1.58s.93.36.93,1.15c0,2-2.42,1-2.42,3.26,0,.93,1.18,1.25,1.18,1.86a1.3,1.3,0,0,1-2.14.74A2.51,2.51,0,0,0,95.74,81a3.13,3.13,0,0,0,2.67-2c.56,1.41.13,3-.88,3.18,1.07.53,3.61,0,3.32-3.22,1.43.24,2.18,1.21,1.33,2.94,1.18-.29,2.25-.86,2.25-2.11,0-1-1-1.25-.58-2.5M76.13,33c-1.34.12-1.31-1.16-3.66-1.73a40.5,40.5,0,0,0,5.64-1.88c.35,1.54-.28,3.46-2,3.61m9.47,10c-1.72.74-3.06-.77-3.39-1.79S81.61,39.41,82,39c.75-.74,1-1.31.53-2.22s-1.64-.56-2.84-.26c.56-1,.61-1.73-.16-1.64s-.93,1.59-1.43,1.41-.22-1-.22-1.48c0-.62.41-.85,1-1.13l5-1.89c.64-.24,1.09-.36,1.53.09s1.12.74.87,1.22-1.28-.57-2,0-.08,1,1,1.28c-1.08.63-2.22,1-1.86,2.17.31,1,.87,1.21,1.92,1.22.56,0,1,.81,1.43,1.79a2.47,2.47,0,0,1-1.21,3.53m.3-13.88c-1.33,1-3.11.09-3.91-1.27a40.51,40.51,0,0,0,5.4-2.5c-1.32,2-.42,2.94-1.48,3.77" transform="translate(-4.4 -5.17)"/></g><g id="svg_167" data-name="svg 167"><path id="svg_168" data-name="svg 168" class="cls-1" d="M197.3,100.92a4.12,4.12,0,1,0,4.13-4.12,4.13,4.13,0,0,0-4.13,4.12m1.05,0a3.07,3.07,0,1,1,3.08,3.07,3.08,3.08,0,0,1-3.08-3.07" transform="translate(-4.4 -5.17)"/></g><g id="svg_165" data-name="svg 165"><path id="svg_166" data-name="svg 166" class="cls-1" d="M181.92,104.72a2.4,2.4,0,0,0-1,1.53,2.42,2.42,0,0,0,.64,2.06,3.75,3.75,0,0,0,4.39.79,2.42,2.42,0,0,0,1.32-1.71,3,3,0,0,0-2.7-3.17,3.52,3.52,0,0,0-2.62.51m1.87,3.67c-1.18-.21-2-1.09-1.85-2a1.36,1.36,0,0,1,.58-.85,2.49,2.49,0,0,1,1.83-.33,2.08,2.08,0,0,1,1.86,1.75,1.61,1.61,0,0,1,0,.2,2,2,0,0,1-2.41,1.18" transform="translate(-4.4 -5.17)"/></g><g id="svg_163" data-name="svg 163"><path id="svg_164" data-name="svg 164" class="cls-1" d="M159.22,46.88a2.74,2.74,0,0,0-.84,3.73h0a2.74,2.74,0,0,0,3.82.11,3.22,3.22,0,0,0,1.25-2.09A2.18,2.18,0,0,0,163,47a2.15,2.15,0,0,0-1.46-.81,3.23,3.23,0,0,0-2.35.69M159,49.29a2.1,2.1,0,0,1,.88-1.58,2.19,2.19,0,0,1,1.56-.48,1.11,1.11,0,0,1,.77.41,1.17,1.17,0,0,1,.21.85,2.18,2.18,0,0,1-.86,1.39,1.73,1.73,0,0,1-2.34.07,1.08,1.08,0,0,1-.21-.67" transform="translate(-4.4 -5.17)"/></g><g id="svg_161" data-name="svg 161"><path id="svg_162" data-name="svg 162" class="cls-1" d="M177.08,97.87a3.56,3.56,0,0,0-1,2.47v.09a3.5,3.5,0,0,0,.92,2.43,2.35,2.35,0,0,0,1.66.76,2.43,2.43,0,0,0,1.7-.69,3.56,3.56,0,0,0,1-2.47,3.68,3.68,0,0,0-.69-2.24,2.47,2.47,0,0,0-1.89-1,2.41,2.41,0,0,0-1.7.7m1.6,4.68h0a1.28,1.28,0,0,1-.92-.43,2.5,2.5,0,0,1-.62-1.76,2.42,2.42,0,0,1,.68-1.72,1.28,1.28,0,0,1,.95-.41c.88,0,1.56,1,1.54,2.2a2.47,2.47,0,0,1-.69,1.73,1.31,1.31,0,0,1-.94.39m0,1.06h0Z" transform="translate(-4.4 -5.17)"/></g><g id="svg_159" data-name="svg 159"><path id="svg_160" data-name="svg 160" class="cls-1" d="M156.91,64.56a2.42,2.42,0,0,0-1.38,1.2,3,3,0,0,0,1.75,3.78,3.52,3.52,0,0,0,2.67.21,2.36,2.36,0,0,0,1.38-1.2,2.4,2.4,0,0,0,.07-1.83,3.72,3.72,0,0,0-4.49-2.16m.82,4a1.94,1.94,0,0,1-1.25-2.37,1.28,1.28,0,0,1,.78-.66,2.44,2.44,0,0,1,1.85.17,2.51,2.51,0,0,1,1.29,1.34,1.33,1.33,0,0,1,0,1,1.36,1.36,0,0,1-.78.66,2.52,2.52,0,0,1-1.86-.17" transform="translate(-4.4 -5.17)"/></g><g id="svg_157" data-name="svg 157"><path id="svg_158" data-name="svg 158" class="cls-1" d="M200.23,60.33c1.34,3.68,4,5,6,4.06-4.55-.53-.86-8.31-6.72-8.31a4.41,4.41,0,0,0-.95.1,4.76,4.76,0,0,0-3.81-1.49A7.27,7.27,0,0,0,188.06,62c0,10.63,12.35,11.57,12.35,21a4.31,4.31,0,0,1-4.4,4.46c-2.07,0-3.75-2.33-5.49-6A45.68,45.68,0,0,0,186,74.87a3.32,3.32,0,0,0,1.83.64,2.34,2.34,0,0,0,1.72-.63,2.37,2.37,0,0,0,.72-1.67v-.1a3.67,3.67,0,0,0-3.42-3.54,2.35,2.35,0,0,0-1.72.63,2.38,2.38,0,0,0-.72,1.67V72a3.12,3.12,0,0,0,.2,1.08c-2.66-3.47-5.13-6.87-5.13-8.75,0-1.64,1.14-3.09,2.54-4.83l.48.27.37-.41c.5-.54,1.53-1.68,3.67-4l.12-.14h0l.51-.54-1.33-1.07a16.51,16.51,0,0,0,.89-2.61c.41,1.71,1.28,2.8,2.5,2.45-.8-1.77.81-4.13-.25-8.45,1,1.67,2.46,2.55,3.51,2.24-2.74-2.43.81-5.81-2.75-11.06a2.1,2.1,0,0,0,2.46-.41c-3.25-.45-1.77-4.61-7.47-6.09,1.42-.25,2.25-1.08,2-1.83-1.5,1.09-2.83-2-7.77-1.94a7.2,7.2,0,0,0-4-4.73,6.39,6.39,0,0,1-.35,3.8L158.55,9.18c-.47-.44-.73-.55-.86-.38s-.12.45.18.78l13.83,17.35c-1,.36-2.07.8-3.14,1.19a1.88,1.88,0,0,0-1.2,1.79,29.13,29.13,0,0,0-5.94,3.88c-.85.78-1.53,1-.78,2.71.29.66-.6,2.3,1.4,1.1,1.32-.78,4.29-2.43,4.73-1.39.23.54-1.24,1.24-2.25,1.62s-2.1,1.17-1.94,1.56,1,0,1,.38a.9.9,0,0,0,.78.87c.4,0,.92-.84,1.25-.57s-.16,2.17-.49,2.65a3.14,3.14,0,0,0,2.62-2.85c0-1.17.36-1.45.6-1.61s.53,1.25.2,2.09c.83-.17,1.69-1.27,1.57-3.28a2.26,2.26,0,0,1,1.16-.58c.53,0,1.57,1.45,3.06,1.45a4.55,4.55,0,0,0,4.42-3.26,3,3,0,0,0-.39-2.28,3.79,3.79,0,0,1,1.3,2.95c0,3.88-6.86,5.71-9.67,8.39l-.31.29-3.22-1.24-.22.71s0,.17-.19.61c-.34,1.11-1,3.4-1.46,4.72,0,0-.17.53-.17.53l.29.17a17.78,17.78,0,0,0-3.79,8.3,27.78,27.78,0,0,0-2.35-2.14,4,4,0,0,0,.17-.89A3.2,3.2,0,0,0,158,52.5a2.08,2.08,0,0,0-3-.17,2.05,2.05,0,0,0-.28.3l-.34-.27a26.68,26.68,0,0,1-3.18-2.67,1.63,1.63,0,0,0-1.4-.58c-.27,0-1,0-1.43,0s-.75.37-1.29.85c-.26.23-1,.81-1.83,1.44.4.4.79.81,1.17,1.24l.61.72.56-.44a1.75,1.75,0,0,1,2.59.58c.29.44,2.89,3.85,5.06,6.23-.24.08-.47.17-.68.26a11.5,11.5,0,0,1-3.93.24c-.93-.08-1.11-.31-1.74.68a12.14,12.14,0,0,1-.85,1.19c-.31.38-.55.81.1,1.91.95,1.61,3.31,5.84,4.09,7.75s1.71,2.21,3.21,2.83A23.91,23.91,0,0,1,159.78,77l.1-1.46a8.94,8.94,0,0,0-2.42-1.18c-.54-.2-.69-.43,0-.43a16.12,16.12,0,0,1,3.72,1.16,10.89,10.89,0,0,0-2.57-3.89,3.48,3.48,0,0,0-2.63,0,.6.6,0,0,1-.61.68.57.57,0,0,1-.57-.75c.14-.44.78-.58.64-1.4s-1.15-1-1.81-1c-.92-1.33-2-3.27-2.46-4.06s-.19-1.23.14-1.5c.79-.65,2.43.34,5.7.55,1.13.07,2.58.14,4.05.21.43,3.8,2,7.42,7.25,8.74,2.59.64,5.25,2.54,6.17,5-10.57-.18-12.23,3.93-12.23,7.83,0,4.42,3.73,4.17,3.73,7.49,0,2.89-8.89,4.09-11.58,4.48-2.27.34-3.58.84-4.66,1.94s-2.2,2.14-4.19,4.12a6.84,6.84,0,0,0,1.69.15l1.5-1.94c.44-.65.75-1.19,1-1.14s.1.54-.25,1.24l-1.24,2.08c5.22.35,5.56-1.58,5.56-2.38s-1.29-1.34-.54-1.84,1.38-.15,2,.54.79,1.29,2.23.74c0,0,11.37-4.71,12.81-5.36s.92-1.15.15-1.79a3.69,3.69,0,0,1-1-3c0-3.45,2.07-4.51,5.77-4.43a13.3,13.3,0,0,0-.11,1.66c0,5.37,8.12,10.62,10.32,10.62,1,0,2.3-.73,2.38,2.51.06,2.38.54,4.06.11,6.82s-1.22,3.17-2.87,4.33-3.21,4.8-3.91,5.56c.73.48,1.52.54,2.14-1.23a5.34,5.34,0,0,1,1.72-2.86c-.64,1.61-1.11,4-1.42,4.69,2.07.36,5.44-1.53,5.44-3s-1.16-1.35-1.16-2.32a1.12,1.12,0,0,1,1.16-.91,1.7,1.7,0,0,1,1.53,1c.91-.49,1.49-1.4,1.46-3.54,0-.83,0-1.7-.09-2.6a2.32,2.32,0,0,0,.19.34A2.41,2.41,0,0,0,194,108.5a3.61,3.61,0,0,0,2.27-.61,3.51,3.51,0,0,0,1.55-2.18,2.45,2.45,0,0,0,.06-.52,2.27,2.27,0,0,0-.37-1.28,2.38,2.38,0,0,0-1.52-1,3.53,3.53,0,0,0-2.62.56,3.58,3.58,0,0,0-1.51,2c-.17-2.92-.38-5.68-.3-6.79.12-1.64.18-2.37-.37-2.62s-1.15.68-1.95.68-3.18-2.2-3.18-4.52,2.51-5.31,2.38-8.49c0-1,.58-1.51,1-.6a14.33,14.33,0,0,0,2.27,3.75c-.66,4,3.73,7.89,7.35,5-1.79.26-3-1.33-3.81-2.93a5.37,5.37,0,0,0,1,.09l.54,0c1.27,1.57,5.3,1.44,6.35-2.46a4.13,4.13,0,0,1-3.21,1.3,6.44,6.44,0,0,0,2.31-5.18c0-10.13-12.29-11.31-12.29-20.54A5.65,5.65,0,0,1,195,56.53a3.13,3.13,0,0,1,1.91.61,4.6,4.6,0,0,0-1.15,3.52c.32,7.28,12.22,6.92,12.37,10.42,1.34-5.27-7.53-3.65-7.86-10.75M168.57,32.38c.58-1.1,0-2.77,2-2.77,1,0,1.87,1,3.07,1.37a12.26,12.26,0,0,0-5.08,1.4M157.7,54.71a2.13,2.13,0,0,1-.64,1.45,1.1,1.1,0,0,1-.78.3c-.69,0-1.23-.83-1.23-1.76v-.14a2.07,2.07,0,0,1,.63-1.45,1.14,1.14,0,0,1,.8-.31,1.12,1.12,0,0,1,.76.4,2.11,2.11,0,0,1,.46,1.51m35.13,51.15a2.53,2.53,0,0,1,1.1-1.51,2.5,2.5,0,0,1,1.82-.41,1.41,1.41,0,0,1,.87.56h0a1.3,1.3,0,0,1,.17,1,2.48,2.48,0,0,1-1.1,1.51,2,2,0,0,1-2.68-.14,1.36,1.36,0,0,1-.17-1m-7.38-33.94a1.3,1.3,0,0,1,.39-.94,1.33,1.33,0,0,1,1-.34,2.64,2.64,0,0,1,2.4,2.55,1.33,1.33,0,0,1-.4.93h0a1.33,1.33,0,0,1-1,.34,2.65,2.65,0,0,1-2.4-2.55M165.27,49c.57-1.79,1.66-5.33,1.66-5.33l1.87.73A6.3,6.3,0,0,0,167,45.68a1.92,1.92,0,0,0,1.69-.12L168,47.43a2.44,2.44,0,0,0-1.22-1.09A1.93,1.93,0,0,0,168,48.77c1.14.58,1.88.68,2.2.16s-.39-1.55-1.35-1.15c-.1-1,.45-1.5,1.1-1.5s.92.47,1.07,1.11a3,3,0,0,1,2.13-3.3,3.18,3.18,0,0,1-1.07,3.72,1.33,1.33,0,0,1,1.59.22c.36.54.23,1.28-.64,1.75a1,1,0,0,0-1.73-.45c-.34.65.18,1.28,1.23,1.86a1.94,1.94,0,0,0,2.85-.78,2.24,2.24,0,0,0-1.75.35l1.25-2.33a2.39,2.39,0,0,0,.79,1.37,3.06,3.06,0,0,0,.07-2.26l2.68,1.55a3,3,0,0,0-1.92,1.2,2.42,2.42,0,0,0,1.58,0l-1.4,2.24a2.23,2.23,0,0,0-.57-1.69,1.94,1.94,0,0,0,.74,2.86c1,.62,1.83.75,2.23.13a.94.94,0,0,0-1.24-1.28c0-1,.54-1.47,1.18-1.43s.9.63,1,1.27a3.15,3.15,0,0,1,2.68-2.78,3,3,0,0,1-1.79,3.49,1.22,1.22,0,0,1,1.49.37c.33.56.15,1.3-.75,1.71a.94.94,0,0,0-1.67-.6c-.3.54.16,1.13,1.24,1.83a1.93,1.93,0,0,0,2.73-.13,2.45,2.45,0,0,0-1.56-.52l1.25-1.58a1.93,1.93,0,0,0,.74,1.53,6.23,6.23,0,0,0,.2-2.19l1.57,1.25s-2.53,2.71-3.79,4.11Zm16.66,42a1.71,1.71,0,1,1-.14-2.69,1.94,1.94,0,0,1,.14,2.69m4.85-7.67a1.71,1.71,0,1,1-.13-2.69,1.93,1.93,0,0,1,.13,2.69" transform="translate(-4.4 -5.17)"/></g></g></g></g></g></g></svg>