<svg id="Layer_1" data-name="Layer 1" xmlns="http://www.w3.org/2000/svg" viewBox="0 0 570.55 209.68"><defs><style>.cls-1{fill:#bbb;}</style></defs><title>Flowserve</title><g id="svg_35" data-name="svg 35"><g id="svg_19" data-name="svg 19"><g id="svg_20" data-name="svg 20"><path id="svg_32" data-name="svg 32" class="cls-1" d="M281.76,56.49C258.72,28.44,213.6,6,163.21,6A165.15,165.15,0,0,0,76.8,30.24L87.48,45a147,147,0,0,1,75.73-20.88c39,0,74.4,15.09,93.4,32.34h25.15" transform="translate(-6.23 -5.98)"/><path id="svg_31" data-name="svg 31" class="cls-1" d="M354.25,163.41c19.47,18.4,55.51,34.08,95.22,34.08a147,147,0,0,0,78.19-22.4l10,15.2a165.09,165.09,0,0,1-88.14,25.37c-51.05,0-96.71-23.07-120.06-52.25h24.84" transform="translate(-6.23 -5.98)"/><path id="svg_30" data-name="svg 30" class="cls-1" d="M25.66,88.85v12.49H47V117.8H25.66v29.35H6.23V72.4H49.15V88.85H25.66" transform="translate(-6.23 -5.98)"/><path id="svg_29" data-name="svg 29" class="cls-1" d="M76.09,130.69H99.38v16.46H56.66V72.4H76.09v58.29" transform="translate(-6.23 -5.98)"/><path id="svg_28" data-name="svg 28" class="cls-1" d="M178.73,108.38c0,24.19-17.35,41.24-41.34,41.24s-41.34-17.05-41.34-41.24c0-22.6,19.82-38.46,41.34-38.46S178.73,85.78,178.73,108.38Zm-62.45.1c0,12.89,9.51,22.31,21.12,22.31s21.11-9.42,21.11-22.31c0-10.31-9.52-19.73-21.11-19.73s-21.12,9.42-21.12,19.73" transform="translate(-6.23 -5.98)"/><path id="svg_27" data-name="svg 27" class="cls-1" d="M208.28,120.68h.2L224.14,72.4H239.6l14.67,48.28h.2L268.55,72.4h20.22l-23.89,74.75H245.05L232,103.82h-.2L217.1,147.14H197.37L175.07,72.4h20.22l13,48.28" transform="translate(-6.23 -5.98)"/><path id="svg_26" data-name="svg 26" class="cls-1" d="M329.82,91.63a20.44,20.44,0,0,0-12.89-5c-3.57,0-8.33,2.08-8.33,6.25,0,4.36,5.25,6,8.62,7.14l5,1.49c10.41,3.07,18.44,8.33,18.44,20.42,0,7.44-1.79,15.07-7.73,20.12s-13.68,7-21.22,7a46.13,46.13,0,0,1-26.27-8.52l8.33-15.66c4.86,4.26,10.61,7.73,17.25,7.73,4.56,0,9.42-2.28,9.42-7.53,0-5.45-7.64-7.34-11.8-8.52-12.19-3.47-20.23-6.65-20.23-21.12,0-15.17,10.81-25.08,25.78-25.08a51.14,51.14,0,0,1,23.4,6.15l-7.74,15.06" transform="translate(-6.23 -5.98)"/><path id="svg_25" data-name="svg 25" class="cls-1" d="M367.09,88.85v12.49H389V117.8h-21.9v12.89h23.1v16.46H347.66V72.4h42.53V88.85h-23.1" transform="translate(-6.23 -5.98)"/><path id="svg_24" data-name="svg 24" class="cls-1" d="M462.44,147.14H438.25l-18.34-28.75h-.2v28.75H400.28V72.4h29c14.78,0,26,7,26,23,0,10.31-5.75,19.23-16.36,21.12l23.5,30.63h0ZM419.71,105.9h1.89c6.34,0,13.48-1.19,13.48-9.32s-7.14-9.32-13.48-9.32h-1.89V105.9" transform="translate(-6.23 -5.98)"/><path id="svg_23" data-name="svg 23" class="cls-1" d="M492,117.8l18.14-45.4h21.12l-31.92,74.75H484.27L452.85,72.4H474l18,45.4" transform="translate(-6.23 -5.98)"/><path id="svg_22" data-name="svg 22" class="cls-1" d="M553.67,88.85v12.49h21.91V117.8H553.67v12.89h23.1v16.46H534.24V72.4h42.53V88.85h-23.1" transform="translate(-6.23 -5.98)"/><path id="svg_21" data-name="svg 21" class="cls-1" d="M545.22,170.78a5.3,5.3,0,1,1,5.32,5.46A5.28,5.28,0,0,1,545.22,170.78Zm5.32,6.54a6.52,6.52,0,1,0-6.63-6.54A6.51,6.51,0,0,0,550.54,177.32Zm-1.38-6h1.31l2,3.26h1.28l-2.14-3.31a2,2,0,0,0,1.95-2.07c0-1.48-.88-2.14-2.65-2.14H548v7.52h1.14V171.3Zm0-1V168h1.55c.79,0,1.64.18,1.64,1.1,0,1.16-.86,1.23-1.83,1.23h-1.36" transform="translate(-6.23 -5.98)"/></g></g></g></svg>