<svg xmlns="http://www.w3.org/2000/svg" viewBox="0 0 579.03 207.59"><defs><style>.cls-1{fill:#bbb;}</style></defs><title>Asset 1</title><g id="Layer_2" data-name="Layer 2"><g id="Layer_1-2" data-name="Layer 1"><g id="svg_15" data-name="svg 15"><path id="svg_5" data-name="svg 5" class="cls-1" d="M107.54,143.77C89,143.77,74.09,157,74.09,175.68s15,31.91,33.45,31.91,33.58-13.17,33.58-31.91S126,143.77,107.54,143.77Zm0,50.91c-9.91,0-18-7.67-18-19s8.12-19,18-19,18.16,7.74,18.16,19S117.45,194.67,107.54,194.67Z"/><path id="svg_6" data-name="svg 6" class="cls-1" d="M218.81,143.77A24.05,24.05,0,0,0,198,156.3h-.26c-2.49-8.25-8.63-12.53-17.78-12.53-9.53,0-16.95,6.91-20,12.92h-.26a17.77,17.77,0,0,0,.26-2.75v-3.71c0-3.2-1.66-5-4.92-5h-4.67c-3.2,0-4.92,1.79-4.92,5v50.91c0,3.33,1.66,5,4.92,5h5.21c3.2,0,4.92-1.66,4.92-5V178.81c0-10.17,5-21.17,15.8-21.17,7.16,0,8.12,5.63,8.12,12.21v31.34c0,3.33,1.79,5,5,5h5.24c3.2,0,4.92-1.66,4.92-5V178.88c0-10.62,5.24-21.17,15.54-21.17,7,0,8.38,5.24,8.38,12.21v31.34c0,3.33,1.66,5,5.05,5h5.12c3.2,0,5-1.66,5-5V167C238.77,150.93,231.48,143.77,218.81,143.77Z"/><path id="svg_7" data-name="svg 7" class="cls-1" d="M64.56,121.32H59.19c-3.33,0-5,1.79-5,5v30.12a39.43,39.43,0,0,1-18.77,4.91,39.39,39.39,0,0,1-20.08-5.76V126.29c0-3.2-1.66-5-4.92-5H4.92c-3.2,0-4.92,1.79-4.92,5v74.82c0,3.33,1.66,5,4.92,5h5.5c3.2,0,4.92-1.66,4.92-5V170.23a46.64,46.64,0,0,0,20.08,4.86,45,45,0,0,0,18.74-4.22v30.25c0,3.33,1.66,5.05,5,5h5.37c3.2,0,4.92-1.66,4.92-5.05V126.23c0-3.12-1.63-4.91-4.89-4.91Z"/><path id="svg_8" data-name="svg 8" class="cls-1" d="M575.54,191.35c-1.66-2.69-2.88-3.2-5.76-1.66-2.81,1.92-7.87,5.05-13.43,5.24-10.74.38-18.1-5.76-19.51-16.37h.06c4.92,1.92,11.9,2.81,20.15,2.49,9-.38,15.54-2.24,19.38-4.86h0a5.25,5.25,0,0,0,2.59-4.62c-.7-16.69-10.94-28.59-28.27-27.82-18.29.77-30.38,14.52-29.55,33.26.77,17.33,13.94,31.34,34.09,30.44a38.37,38.37,0,0,0,20.4-7c2.56-1.66,2.94-4.09,1.41-6.78Zm-23.12-33.78c6.91-.32,12.28,4.48,12.92,12.92a33.72,33.72,0,0,0-13.11-1.66,40.44,40.44,0,0,0-13.88,2.88c-.48-10.54,4.76-16.17,12.5-16.49l1.57,2.35Z"/><path id="svg_9" data-name="svg 9" class="cls-1" d="M421.8,171.57c-.7-16.69-10.94-28.59-28.27-27.82-18.29.77-30.38,14.52-29.55,33.26.77,17.33,13.94,31.34,34.09,30.44a38.37,38.37,0,0,0,20.4-7c2.56-1.66,2.94-4.09,1.41-6.78l-1.53-2.3c-1.66-2.69-2.88-3.2-5.76-1.66-2.81,1.92-7.87,5.05-13.43,5.24-10.74.38-18.1-5.76-19.51-16.37h.06c4.92,1.92,11.9,2.81,20.15,2.49,9-.38,15.54-2.24,19.38-4.86h0a5.37,5.37,0,0,0,2.56-4.67Zm-28.33-5.12a39.73,39.73,0,0,0-13.81,2.88c1.09-8.19,6.33-13.75,14.07-14.13,6.91-.32,12.28,4.48,12.85,12.92a34.11,34.11,0,0,0-13.11-1.66Z"/><path id="svg_10" data-name="svg 10" class="cls-1" d="M458.57,144.71c-8.63,0-15.28,8.12-17.71,15.41h-.26a24.05,24.05,0,0,0,.38-4.22v-5.76c0-3.2-1.79-5-5-5h-4.7c-3.2,0-4.92,1.79-4.92,5v50.91c0,3.33,1.66,5,4.92,5.05h5.24c3.2,0,4.92-1.66,4.92-5V181.55c0-11.13,5.37-22.13,16.5-22.13,3.2,0,5.12-1.79,5.12-5v-4.67c0-3.38-1.18-5.05-4.51-5.05Z"/><path id="svg_11" data-name="svg 11" class="cls-1" d="M321.46,143.64c0-5.76,5-9.53,12.92-9.53,6.59,0,11.26,2.62,14.71,4.67,2.49,1.28,5,1.79,6.84-1.66l2.17-4c1.41-2.62,1.09-4.92-1.53-6.84-3.58-2.62-11.83-6.46-21.87-6.46-16.12,0-28.59,9.66-28.59,24.62,0,26.41,39.59,23.09,39.59,39.2,0,5.76-4.8,9.66-12.66,9.66-8.38,0-14.45-4.28-17.2-6.2-3-1.66-5-1.53-6.91,1.09L306.3,192c-2.37,3.2-1.22,5.24.7,6.91a45.16,45.16,0,0,0,26,8.63c17.78,0,28.08-11.32,28.08-25.07-.16-27.05-39.65-23-39.65-38.88Z"/><path id="svg_12" data-name="svg 12" class="cls-1" d="M519.77,145.24h-5.63a5.34,5.34,0,0,0-5.63,4.16L497.17,183a75.68,75.68,0,0,0-2.17,9.21h-.26a88.31,88.31,0,0,0-2.3-9.21l-11.38-33.58a5.28,5.28,0,0,0-5.63-4.16H469.8c-3.71,0-5.12,2.3-4,5.76l18.67,51.16c.83,2.88,2.75,4.09,5.63,4.09h9.59a5.32,5.32,0,0,0,5.63-4.09L523.77,151c1.31-3.52-.29-5.76-4-5.76Z"/><path id="svg_13" data-name="svg 13" class="cls-1" d="M299.33,185.46c-2.24-2.24-3.45-2.49-6-.32-2.3,2.49-6.59,6.59-12,8-10.36,2.69-18.93-1.73-22.58-11.77h.06c5.18.77,12.21.19,20.21-2,8.7-2.3,14.71-5.5,17.84-8.89h0a5.12,5.12,0,0,0,1.53-5.05c-4.35-16.18-16.88-25.52-33.58-21-17.65,4.73-26.48,20.72-21.62,38.82,4.48,16.76,20.4,27.56,39.91,22.32a39,39,0,0,0,18.42-11.26c2.11-2.17,2-4.6-.13-6.91Zm-29.87-28c6.72-1.79,12.92,1.73,15.35,9.85a33.93,33.93,0,0,0-13.17,1.22,41.57,41.57,0,0,0-12.92,5.82c-2.69-10.17,1.18-16.83,8.7-18.8l2,1.92Z"/><path id="svg_14" data-name="svg 14" class="cls-1" d="M251.94,55.45,196.81,2a6.91,6.91,0,0,0-4.92-2A6.66,6.66,0,0,0,187,2L166.31,22.26V18.87A6.88,6.88,0,0,0,159.45,12h-7.92a6.88,6.88,0,0,0-6.91,6.86s0,0,0,.05V43.42L132,55.7a6.92,6.92,0,0,0,4.86,11.83h7.29V114a6.88,6.88,0,0,0,6.86,6.91h81.65a6.92,6.92,0,0,0,6.91-6.91l.06-46.43h7.61a6.88,6.88,0,0,0,6.91-6.86s0,0,0-.05A6.72,6.72,0,0,0,251.94,55.45ZM230.07,87.87c-8.83,11-23,17.52-38,17.52s-29.23-6.59-38-17.59a4.21,4.21,0,0,1-.9-3,4.13,4.13,0,0,1,4.09-3.65,4.06,4.06,0,0,1,3.2,1.53c7.29,9.15,19.12,14.58,31.66,14.58s24.37-5.44,31.59-14.52a4.06,4.06,0,0,1,3.2-1.53,4.15,4.15,0,0,1,2.56.9A4.28,4.28,0,0,1,231,84.87a4.35,4.35,0,0,1-1,3Z"/></g></g></g></svg>