<svg id="Layer_1" data-name="Layer 1" xmlns="http://www.w3.org/2000/svg" viewBox="0 0 572.01 295.33"><defs><style>.cls-1{fill:#bbb;}.cls-2{fill:#fff;}</style></defs><title>Pilkington</title><path id="svg_19" data-name="svg 19" class="cls-1" d="M192.39,96.42c0-52,42-94.38,94-94.38a94.5,94.5,0,0,1,94.38,94.38c0,51.67-42.35,94-94.38,94a94.11,94.11,0,0,1-94-94Z" transform="translate(-4 -2.05)"/><path id="svg_18" data-name="svg 18" class="cls-2" d="M197.42,96.42A89.17,89.17,0,0,1,375.76,96q0,.22,0,.44a89.17,89.17,0,0,1-178.34,0Z" transform="translate(-4 -2.05)"/><path id="svg_17" data-name="svg 17" class="cls-1" d="M203.52,96.42A82.89,82.89,0,0,1,369.3,96q0,.19,0,.38A82.62,82.62,0,0,1,286.41,179c-45.57,0-82.89-37-82.89-82.54Z" transform="translate(-4 -2.05)"/><path id="svg_16" data-name="svg 16" class="cls-2" d="M246.22,112.21c-6.1,6.46-6.82,13.63-5.38,23.68a3.64,3.64,0,0,0,.36,1.08,4.42,4.42,0,0,0-1.08-.72,22.21,22.21,0,0,1-10.77-17.59c0-5,1.44-9.69,5-12.56a2.69,2.69,0,0,1,1.08-1.08,1.57,1.57,0,0,1-1.08.36c-10.41,2.51-16.51-3.59-21.53-8.25-.71-.36-1.07-.72-1.79-.72a4.72,4.72,0,0,0,1.79-1.08c5-4.66,11.12-10.77,21.53-8.25a1.57,1.57,0,0,1,1.08.36,5.14,5.14,0,0,1-1.08-.72c-3.59-3.23-5-7.9-5-12.92.36-7.18,4.67-13.64,10.77-17.59a4.42,4.42,0,0,0,1.08-.72,3.6,3.6,0,0,0-.36,1.08c-1.44,10-.72,17.22,5.38,23.68,9,9.69,27.27,5.74,31.22,7.53-2.15-3.23,3.23-22.61-6.82-31.94-6.46-6.1-13.64-6.82-24-5.38l-.72.72a5.07,5.07,0,0,1,.72-1.08,20.57,20.57,0,0,1,17.58-10.77c5-.36,9.69,1.08,12.56,4.66a2.81,2.81,0,0,1,1.08,1.44,3.73,3.73,0,0,1-.36-1.44C274.93,34,281,27.88,285.7,22.5c.72-.72.72-1.08.72-1.44a14.24,14.24,0,0,0,1.08,1.44C292.15,27.88,298.26,34,295.75,44a3.7,3.7,0,0,1-.36,1.44A2.81,2.81,0,0,1,296.47,44c2.87-3.59,7.53-5,12.56-4.66a20.57,20.57,0,0,1,17.58,10.77,5.36,5.36,0,0,1,.72,1.08s-.72-.72-1.08-.72c-10-1.44-17.22-.72-23.68,5.38-10,9.33-5,28.35-7.18,31.94C299.33,86,318,90,327,80.28c6.1-6.46,6.82-13.63,5-23.68a3.66,3.66,0,0,0-.35-1.08,4.34,4.34,0,0,0,1.07.72c6.46,3.95,10.77,10.41,10.77,17.59,0,5-1.08,9.69-4.67,12.92a5.15,5.15,0,0,1-1.44.72,3.73,3.73,0,0,1,1.44-.36c10.41-2.51,16.15,3.59,21.53,8.25a14.93,14.93,0,0,0,1.44,1.08c-.36,0-.72.36-1.44.72-5.38,4.67-11.12,10.77-21.53,8.25a3.71,3.71,0,0,1-1.44-.36,2.8,2.8,0,0,1,1.44,1.08c3.59,2.87,4.67,7.53,4.67,12.56a20.58,20.58,0,0,1-10.77,17.59,4.34,4.34,0,0,0-1.07.72,3.62,3.62,0,0,0,.35-1.08c1.8-10,1.08-17.22-5-23.68-9-9.69-27.63-5.74-31.58-7.18,2.51,2.87-2.87,22.25,7.18,31.58,6.46,6.1,13.64,6.82,23.68,5.38.36,0,1.08-.72,1.08-.72l-.72,1.44A22.2,22.2,0,0,1,309,153.48c-5,0-9.7-1.44-12.56-5a2.81,2.81,0,0,1-1.08-1.44,3.7,3.7,0,0,1,.36,1.44c2.51,10.41-3.59,16.51-8.26,21.89-.72.36-.72.72-1.08,1.44,0-.72,0-1.07-.72-1.44-4.67-5.38-10.77-11.48-8.25-21.89a3.71,3.71,0,0,1,.36-1.44,2.79,2.79,0,0,1-1.08,1.44c-2.87,3.59-7.54,5-12.56,5a22.19,22.19,0,0,1-17.58-10.77l-.72-1.44.72.72c10.41,1.44,17.58.72,24-5.38,10-9.33,4.67-28.71,6.82-31.58C273.49,106.47,255.19,102.52,246.22,112.21Z" transform="translate(-4 -2.05)"/><path id="svg_15" data-name="svg 15" class="cls-1" d="M27,289.85c1.08,1.79,2.87,2.51,5.38,2.51h3.59v2.51H4.36v-2.51H7.59c2.51,0,4.31-.72,5.38-2.51,1.08-1.44,1.44-3.59,1.44-6.1V224.53c0-7.18-1.44-9-6.46-9H4v-2.15s8.61,0,15.43-.35c6.82,0,15.07-.35,19.38-.35,15.43,0,24,10.41,24,22.24v1.8a25.1,25.1,0,0,1-25.12,23.32,44.9,44.9,0,0,1-12.92-1.44v24.76Q24.81,287.69,27,289.85Zm-2.15-53.11v16.5a17,17,0,0,0,9.33,2.52c10,.35,16.51-6.82,16.87-19v-.36c0-10.41-3.59-20.09-16.15-20.09-3.23,0-8.61.72-10,1.44v19Zm63.16,0c.72-1.44,1.79-1.8,4.31-1.8h2.51v-2.87H68.59v2.87H71.1a4.62,4.62,0,0,1,3.95,1.8,10.39,10.39,0,0,1,1.08,5V287a7,7,0,0,1-.36,2.87c-.72,1.79-2.15,2.51-5,2.51H68.59v2.51h26.2v-2.51H93c-2.51,0-4.31-.72-5-2.51a9.65,9.65,0,0,1-.72-4V241A13.31,13.31,0,0,1,88,236.73Zm24,0c-.72-1.44-2.15-1.8-4.31-1.8H105.2v-2.87h26.55v2.87h-2.51c-2.51,0-3.95.36-4.67,1.8a14.79,14.79,0,0,0-.36,4.3v44.86a11.22,11.22,0,0,0,.36,4,3.88,3.88,0,0,0,2.15.71h9.33c2.15,0,3.95,0,5.38-.71a13.53,13.53,0,0,0,8.61-7.54c.72-1.44,1.79-3.23,2.51-5l2.15.35-1.44,4.67-2.15,7.54-1.44,5h-44.5v-2.51h2.15c2.51,0,3.95-1.08,4.66-2.51.72-1.08.72-2.15.72-4V241a13.39,13.39,0,0,0-.72-4.31Zm51.67,0c-.36-1.44-1.79-1.8-4.67-1.8h-2.51v-2.87h26.55v2.87h-2.51c-2.87,0-4.31.72-5,1.8s-.72,2.51-.72,4.3v19.74c10.77-9,20.81-19.38,23-22.6.36-.36.36-.72.36-1.44.36-1.08-.36-1.8-2.51-1.8h-2.51v-2.87H215v2.87h-2.87a10.81,10.81,0,0,0-5.74,1.8,21.86,21.86,0,0,0-2.87,2.87c-3.59,3.59-11.84,11.12-20.09,19l21.89,23.68,3.59,3.59a20.75,20.75,0,0,0,3.95,4,8.65,8.65,0,0,0,5.38,2.15h1.44v2.87H192.4v-2.51h2.15c2.15,0,3.59-1.08,3.23-2.51a4.28,4.28,0,0,0-1.44-2.87,26.08,26.08,0,0,0-3.95-4.67q-8.77-9.71-17.58-19.38v23a9.58,9.58,0,0,0,.72,4c1.08,2.15,3.23,2.51,5.38,2.51h2.15v2.51H156.52v-2.51h2.15c2.87,0,4.31-.72,5-2.51a11.22,11.22,0,0,0,.36-4V241a15.11,15.11,0,0,0-.37-4.31Zm79.3,0c.72-1.44,2.15-1.8,4.67-1.8h2.51v-2.87H223.61v2.87h2.51a5.37,5.37,0,0,1,4.31,1.8c.72,1.44.72,2.87.72,5V287a7,7,0,0,1-.36,2.87c-.36,1.79-1.8,2.51-5,2.51h-2.15v2.51h26.55v-2.51H248c-2.15,0-3.95-.72-4.67-2.51-.72-.72-.72-2.15-.72-4V241A14.8,14.8,0,0,1,243,236.73Zm35.53,0-3.94-4.67H258.78v2.87a8.6,8.6,0,0,1,5.74,1.8,30.15,30.15,0,0,1,3.59,4.67v44.85c0,1.44,0,2.87-.72,3.59-.72,1.79-2.51,2.51-5.74,2.51H259.5v2.51h23v-2.51h-2.51c-3.23,0-5-.72-5.74-2.51a9.64,9.64,0,0,1-.72-4V247.14l29.78,35.17,6.46,7.54,6.1,7.53v-56a14.07,14.07,0,0,1,.72-4.67c.72-1.8,2.15-2.15,4.67-2.15h2.15v-2.51H302.56v2.51h1.8c3.23,0,5,.72,5.74,2.15.72,1.07.72,2.51.72,4.67v33.37l-32.3-38Zm73.2,0a19.42,19.42,0,0,1,10.41-2.51,21.9,21.9,0,0,1,10.05,2.51,29.8,29.8,0,0,1,9.69,11.48l1.79-.35-1.07-11.12-.72-5.38h-2.15c-.35,2.51-1.43,3.23-4.3,2.15-2.15-.72-7.18-2.87-13.63-2.87-7.9,0-15.43,2.15-20.81,6.1-7.54,5.74-12.21,14.71-11.49,28,0,6.82,1.44,12.92,4.31,17.58a27.15,27.15,0,0,0,6.82,7.54,31,31,0,0,0,18.66,6.82c13.63.72,20.45-3.23,26.2-6.46V271.9c0-5,.71-6.82,5-6.82h1.07v-2.51H366.08v2.51H370c3.23,0,5.74,2.51,5.74,6.82v16.86a5,5,0,0,1-1.43,1.08,23.41,23.41,0,0,1-11.49,2.87,18.33,18.33,0,0,1-10.41-2.87,29.21,29.21,0,0,1-7.18-7.54,40.32,40.32,0,0,1-4.3-19c0-12.56,3.94-21.89,10.75-26.55Zm40.55,0,.36-4.67h51.67l.35,4.67.35,11.12h-1.79c-1.07-7.18-3.95-10.05-7.53-11.12-1.08,0-2.52-.36-3.59-.36h-8.25v49.52a11.32,11.32,0,0,0,.35,4c1.08,2.15,2.51,2.51,5,2.51h2.15v2.51H404.83v-2.51H407c2.87,0,4.3-.72,5-2.51a10.75,10.75,0,0,0,.72-3.59V236.37h-8.26c-1.43,0-2.51.36-3.59.36-5.38,1.44-6.46,6.1-6.82,11.12h-2.15l.36-11.12Zm66.39,0a29.32,29.32,0,0,1,19-6.82,28.11,28.11,0,0,1,18.3,6.82c6.82,5.74,11.12,14.71,11.12,26.92a38.86,38.86,0,0,1-4.66,18.66,31.41,31.41,0,0,1-6.1,7.54,27.21,27.21,0,0,1-19,7.18,28.53,28.53,0,0,1-19-7.18,43.28,43.28,0,0,1-6.1-7.54c-2.87-5-4.3-11.48-4.3-18.66C447.89,252.16,451.84,242.83,458.66,236.73Zm27.63,0a14.55,14.55,0,0,0-8.61-2.87,14.85,14.85,0,0,0-9,2.87c-5.74,4.67-9,14-9,26.92,0,7.53,1.07,14,3.23,18.66,1.44,3.23,2.87,5.74,5,7.54a13.31,13.31,0,0,0,9.33,3.59,12.45,12.45,0,0,0,9-3.59,20.4,20.4,0,0,0,5.38-7.54c2.15-5,3.23-11.12,3.23-18.66C494.9,250,491.67,241,486.29,236.73Zm44.86,0-3.95-4.67H511.05v2.87a8.15,8.15,0,0,1,5.74,1.8,30.58,30.58,0,0,1,3.59,4.67v44.85a10.14,10.14,0,0,1-.35,3.59c-1.08,1.79-2.51,2.51-5.75,2.51h-2.51v2.51h23v-2.51h-2.51c-3.23,0-4.67-.72-5.74-2.51a11.12,11.12,0,0,1-.36-4V247.14l29.43,35.17,6.46,7.54,6.46,7.53v-56a16.38,16.38,0,0,1,.35-4.67c.72-1.8,2.51-2.15,4.67-2.15H576v-2.51H554.83v2.51h1.8c3.59,0,5,.72,6.1,2.15a16.08,16.08,0,0,1,.36,4.67v33.37l-31.94-38Z" transform="translate(-4 -2.05)"/></svg>