<svg id="Layer_1" data-name="Layer 1" xmlns="http://www.w3.org/2000/svg" viewBox="0 0 572.25 139.99"><defs><style>.cls-1{fill:#bbb;}</style></defs><title>Trenitalia</title><path id="svg_60" data-name="svg 60" class="cls-1" d="M188.2,103.77H230l-4,8.21a2.56,2.56,0,0,0-2.26-1.6H212.74l-17,34.89H184.91l17-34.9H188.17a7.24,7.24,0,0,0-4,1.61l4-8.21" transform="translate(-4.37 -5.5)"/><path id="svg_59" data-name="svg 59" class="cls-1" d="M312.44,137.34l-3.87,7.93H268.15L287,106.62a3.85,3.85,0,0,0,.32-1.52,3.74,3.74,0,0,0-.28-1.42h36l-4,8.17a2.58,2.58,0,0,0-2.26-1.6H296l-4.83,9.93h21l-4,8.18a2.55,2.55,0,0,0-2.26-1.59H288l-5.82,11.94h26.12a7.81,7.81,0,0,0,4.13-1.37" transform="translate(-4.37 -5.5)"/><path id="svg_58" data-name="svg 58" class="cls-1" d="M512,137.34l-3.87,7.93H477.48l18.83-38.66a3.75,3.75,0,0,0,.32-1.52,3.63,3.63,0,0,0-.28-1.42h12.16l-17,35h16.4a7.78,7.78,0,0,0,4.13-1.37" transform="translate(-4.37 -5.5)"/><path id="svg_57" data-name="svg 57" class="cls-1" d="M217.76,145.28l18.74-38.55a3.89,3.89,0,0,0,.06-3h21.62c4.18,0,12.1-.11,12.1,9.74,0,8.82-8.52,14-12.13,14.48l3.15,14.28a4.81,4.81,0,0,0,2,3H251.66l-3.44-17.18h-11.3l-8.35,17.18H217.76m42.15-31.77a3.29,3.29,0,0,0-3.56-3.14H245.58l-5.47,11.19h10.11c5.77,0,9.69-3.71,9.69-8" transform="translate(-4.37 -5.5)"/><path id="svg_56" data-name="svg 56" class="cls-1" d="M386,103.69a3.82,3.82,0,0,1,.29,1.43,3.67,3.67,0,0,1-.33,1.52l-18.8,38.63H378l20.26-41.59H386" transform="translate(-4.37 -5.5)"/><path id="svg_55" data-name="svg 55" class="cls-1" d="M532.12,103.69a3.71,3.71,0,0,1,.28,1.43,3.66,3.66,0,0,1-.32,1.52l-18.8,38.63h10.84l20.26-41.59H532.12" transform="translate(-4.37 -5.5)"/><path id="svg_54" data-name="svg 54" class="cls-1" d="M405.89,103.77h41.83l-4,8.21a2.56,2.56,0,0,0-2.25-1.6H430.44l-17,34.9H402.61l17-34.9H405.87a7.24,7.24,0,0,0-4,1.61l4-8.21" transform="translate(-4.37 -5.5)"/><path id="svg_53" data-name="svg 53" class="cls-1" d="M459.6,103.83a5.19,5.19,0,0,1-1.38,3.36l-32.9,38.17h9.48l7.8-9.45h20.17l.2,9.45h9.93l-2.13-41.53H459.6m-11.44,25.32,14.12-17,.33,17H448.16" transform="translate(-4.37 -5.5)"/><path id="svg_52" data-name="svg 52" class="cls-1" d="M563.3,103.83a5.16,5.16,0,0,1-1.38,3.36l-33,38.29h9.49l7.83-9.48h20.22l.21,9.48h10l-2.13-41.66H563.3m-11.47,25.39L566,112.13l.34,17.09H551.83" transform="translate(-4.37 -5.5)"/><path id="svg_51" data-name="svg 51" class="cls-1" d="M332.55,109.49l1.33-2.75a3.37,3.37,0,0,0,.35-1.51,3.48,3.48,0,0,0-.29-1.4h10.77l10.1,28.86,12.62-25.95a3.49,3.49,0,0,0,0-2.92h8.89l-20.21,41.54H348.4l-10.76-30.91-15,30.91H315.1l17.45-35.88" transform="translate(-4.37 -5.5)"/><path id="svg_50" data-name="svg 50" class="cls-1" d="M87.22,67.07,41.65,71.69,10.32,133.6c24.28,0,37.39-3.41,51.59-23.66A424.34,424.34,0,0,0,87.22,67.07" transform="translate(-4.37 -5.5)"/><path id="svg_49" data-name="svg 49" class="cls-1" d="M210.27,12.6l3.59-7.11H118.6c-32.3,0-48.77,10.62-58.79,30.3C52,51.2,52,51.21,52,51.21H95.25c15.38-28.66,34-38,79.86-38.61h35.15" transform="translate(-4.37 -5.5)"/><path id="svg_48" data-name="svg 48" class="cls-1" d="M207.89,17.27c-58.41.5-68.26,10-81.83,33.94l64.62,0,17.21-34" transform="translate(-4.37 -5.5)"/><path id="svg_47" data-name="svg 47" class="cls-1" d="M173.43,64l11.12-.64L188,56.54l-68.59,7.14c-12.85,23.53-18.1,38.48-34.66,57.44-12,13.71-30.72,17.19-45.06,17.19H7.82l-3.44,7.14h81c22.45-.7,36-5.76,46-14.28C146.65,118.1,147,99.37,147,94.61c0-16.37,7.18-29.55,26.48-30.65" transform="translate(-4.37 -5.5)"/></svg>